<?xml version="1.0" encoding="utf-8" ?><svg xmlns="http://www.w3.org/2000/svg" xmlns:xlink="http://www.w3.org/1999/xlink" width="911" height="721" viewBox="0 0 911 721"><path fill="#4E2F1B" d="M164.996 36.7243C179.494 32.7965 194.839 30.3785 209.634 27.7561L285.445 15.0357L334.392 6.93436C343.268 5.4929 352.515 3.44063 361.494 3.0561C370.172 2.68444 379.533 4.55033 388.137 5.62288C409.026 8.36588 429.885 11.3338 450.709 14.5262C473.977 17.8762 497.217 21.4096 520.429 25.1258C531.94 26.8833 543.654 28.1841 555.072 30.4436C558.872 31.1956 563.042 31.9924 566.436 33.9088C569.285 35.5174 571.058 37.514 572.899 40.1808C573.279 60.1083 572.979 80.1144 572.95 100.052L573.012 215.077C592.793 216.969 612.485 221.458 632.034 224.994L731.604 242.974L830.379 260.821L865.31 267.015C875.096 268.738 885.074 270.34 894.702 272.8C898.439 273.755 901.739 275.067 904.285 278.111C906.4 280.64 907.228 283.239 907.467 286.469C908.034 294.097 907.688 301.925 907.688 309.58L907.718 348.545L907.729 456.085L907.689 538.512C907.708 551.834 908.733 568.626 907.372 581.578C906.753 587.474 904.05 592.665 899.395 596.346C893.038 601.372 884.122 604.629 876.798 608.165L845.922 623.261L724.472 683.464L676.445 707.754C669.918 711.019 663.487 715.011 656.666 717.585C648.966 720.491 641.505 720.454 633.453 719.45C615.839 717.251 598.336 711.276 581.182 706.743L488.331 681.985L357.098 646.787C340.181 642.205 321.915 638.197 305.313 633.003C301.324 631.755 297.114 630.441 294.393 627.049C294.139 626.732 293.909 626.4 293.684 626.062L293.133 626.193C287.655 627.544 282.215 630.431 277.043 632.666C263.442 638.544 237.054 650.945 222.81 651.967C217.271 652.365 210.914 650.717 205.514 649.432C188.276 645.333 171.225 640.144 154.148 635.407L69.4962 611.914L33.1292 601.694C25.5637 599.547 16.19 597.723 9.33832 593.809C6.62374 592.258 4.34345 590.012 3.54146 586.912C1.89749 580.558 2.91334 563.595 2.93341 556.245L2.99593 498.209L3.04087 356.153C3.0326 330.745 2.38603 305.161 3.1439 279.773C3.21643 277.343 3.60774 275.165 4.8832 273.05C6.61162 270.183 9.9969 268.781 13.0099 267.636C23.5943 263.611 37.0449 261.156 48.1656 258.346L117.431 240.949C129.251 238.024 141.551 235.713 153.154 232.104C152.394 184.963 152.027 137.815 152.052 90.6673L152.067 61.9097C152.074 57.0802 151.521 51.2883 152.495 46.5796C152.676 45.623 152.932 44.7999 153.44 43.9598C155.998 39.7291 160.422 37.8844 164.996 36.7243Z"/><path fill="#2F1B0D" d="M152.495 46.5796C152.676 45.623 152.932 44.7999 153.44 43.9598C155.998 39.7291 160.422 37.8844 164.996 36.7243L165.022 37.4607C164.219 37.864 161.276 38.7113 161.061 39.2302C159.239 43.6414 155.51 42.9355 154.697 48.9492L153.981 49.5447L153.306 48.2776C152.966 49.6878 153.358 51.1568 152.815 52.4933C152.721 50.5303 152.691 48.5335 152.495 46.5796Z"/><path fill="#D29150" d="M299.62 307.914C311.885 311.333 324.65 313.228 337.171 315.52C359.155 319.545 381.244 323.43 403.008 328.535L402.935 398.311L402.925 418.828C402.925 423.151 402.64 427.828 403.382 432.096C403.895 435.039 405.513 437.706 407.645 439.776C416.161 448.04 422.188 441.216 430 441.327C434.478 441.391 437.384 444.109 440.219 447.18C447.306 454.855 459.083 445.986 465.86 447.543C473.921 449.395 476.075 458.785 489.503 459.273C493.597 459.422 498.407 458.694 501.446 455.711C503.608 453.589 504.116 450.478 504.449 447.585C505.718 436.552 504.896 424.675 504.919 413.527L505.13 348.944C549.475 357.975 593.96 367.101 638.065 377.221L638.475 594.928L638.712 711.399C625.643 710.633 611.947 705.869 599.288 702.553L529.016 683.729L363.099 639.274C344.582 634.239 325.873 629.622 307.441 624.307C305.477 623.741 303.723 623.044 302.213 621.606C299.948 619.448 300.018 616.891 299.813 613.929C299.067 603.144 299.62 591.965 299.62 581.144L299.608 520.257C299.637 449.501 300.408 378.661 299.62 307.914Z"/><path fill="#D29150" d="M898.223 286.036L898.559 286.123C898.77 286.394 898.884 286.498 898.985 286.871C899.913 290.292 899.159 298.675 899.156 302.598L899.138 344.062L899.125 535.224C899.126 542.338 900.261 582.249 897.68 586.532C896.403 588.651 894.182 590.373 892.026 591.524C873.711 601.297 854.55 609.883 835.885 619.008L737.312 667.755C718.671 676.967 700.108 686.334 681.623 695.855C670.924 701.236 658.485 708.754 646.953 711.651C645.505 706.278 646.345 691.634 646.336 685.426L646.277 626.786L645.949 377.144C668.722 369.677 691.235 361.132 713.787 353.01L834.736 309.223C855.839 301.551 876.815 292.758 898.223 286.036Z"/><path fill="#D29150" d="M12.3484 280.169C21.1442 280.451 30.2899 282.939 38.8526 284.826L78.8998 293.847L220.006 324.741L220.105 531.596L220.131 605.04C220.141 617.205 220.784 629.755 220.092 641.875C220.061 642.422 219.896 642.78 219.601 643.231C207.25 641.376 195.274 637.632 183.264 634.299L135.819 621.114L68.3879 602.391C53.4051 598.228 38.2801 594.262 23.4985 589.424C20.75 588.524 16.7254 587.395 14.5518 585.447C13.0937 584.141 12.489 581.67 12.3682 579.797C11.6134 568.099 12.1901 556.096 12.193 544.353L12.2221 476.841L12.3484 280.169Z"/><path fill="#D29150" d="M161.976 48.5101C170.938 48.1992 180.964 51.1903 189.836 52.7699C202.383 55.0037 215.025 56.9044 227.528 59.3591C228.06 77.9126 227.72 96.553 227.753 115.117C227.771 124.547 227.087 134.87 228.674 144.154C229.125 146.792 230.025 149.406 231.992 151.312C237.83 156.968 244.179 150.208 250.512 152.261C255.183 153.775 257.479 158.57 262.408 158.99C268.018 159.469 273.326 156.568 278.864 157.859C285.18 159.331 289.997 164.621 296.834 164.652C299.155 164.663 301.221 164.297 302.889 162.542C304.533 160.812 305.337 158.559 305.652 156.232C306.841 147.437 306.057 137.663 306.057 128.748L306.084 74.5517C314.823 75.9537 323.442 78.4033 332.181 79.9183C347.816 82.6288 364.034 84.2187 379.851 85.5826L379.984 208.828L380.457 301.569L250.406 273.842L205.136 264.728C195.59 262.795 185.98 261.014 176.572 258.483C173.162 257.566 168.17 256.51 165.661 253.841C164.399 252.499 164.253 249.662 164.06 247.881C163.017 238.239 163.009 228.24 162.691 218.54C161.995 195.931 161.706 173.312 161.825 150.693L161.751 86.4162C161.752 73.797 161.529 61.1218 161.976 48.5101Z"/><path fill="#D29150" d="M562.254 45.0118L563.317 45.2427C564.117 51.3309 563.457 58.3092 563.448 64.4774L563.377 105.94L563.105 243.966C560.083 247.515 555.766 249.39 551.532 251.124C528.401 260.596 503.557 266.683 479.647 273.932C449.318 283.127 419.161 293.183 388.576 301.471L388.434 301.441C388.271 301.258 388.039 301.118 387.945 300.891C387.226 299.15 387.775 272.239 387.755 268.376L387.357 85.5046C398.761 82.7467 410.428 80.6464 421.904 78.1578L511.464 58.5431C528.553 54.655 545.084 48.7863 562.254 45.0118Z"/><path fill="#D29150" d="M291.818 306.55C292.322 307.385 291.276 588.362 291.676 617.017C282.846 621.519 273.434 625.083 264.265 628.845C252.606 633.629 240.821 638.699 228.743 642.33L228.336 642.093C228.2 641.858 227.995 641.651 227.928 641.388C227.24 638.706 227.864 627.174 227.864 623.729L227.879 567.439L227.847 325.604C247.668 316.753 271.047 313.315 291.818 306.55Z"/><path fill="#D29150" d="M765.654 258.419C770.179 258.213 775.52 259.751 780.007 260.564L804.634 265.015L859.156 274.881C869.229 276.717 879.429 278.316 889.416 280.559C868.945 288.734 848.272 296.064 827.579 303.617L729.241 339.327L670.434 360.448C662.16 363.391 651.925 367.828 643.664 369.891C642.704 370.131 641.859 370.142 640.89 369.98C598.857 361.678 557.161 351.564 515.101 343.415C526.764 338.993 538.758 335.248 550.578 331.264L614.845 309.706L765.654 258.419Z"/><path fill="#F5C988" d="M663.178 240.239C669.177 239.608 683.309 243.108 689.734 244.26C710.873 248.048 732.01 252.344 753.25 255.509L506.987 339.129L501.705 341.074L417.46 323.818C432.783 317.185 448.564 312.089 464.374 306.78L521.103 287.708L610.911 257.355C628.267 251.539 645.647 245.49 663.178 240.239Z"/><path fill="#F5C988" d="M410.095 330.137C421.282 331.375 432.535 334.264 443.574 336.512C461.715 340.097 479.817 343.877 497.878 347.851L497.779 415.137C497.76 425.462 498.329 436.195 497.558 446.476C497.464 447.738 497.388 449.154 496.587 450.199C495.425 451.715 493.273 451.87 491.525 452.107C478.339 451.786 475.626 440.763 465.558 439.77C460.517 439.273 454.177 443.174 448.076 443.286C443.705 441.386 440.506 437.541 436.705 434.774C433.378 432.351 421.238 435.892 417.008 436.605C415.235 435.971 413.15 435.215 411.816 433.833C410.796 432.778 410.301 431.469 410.128 430.029C409.665 426.194 409.92 422.063 409.922 418.195L409.937 397.037C409.957 374.741 409.805 352.43 410.095 330.137Z"/><path fill="#D29150" d="M152.629 241.592L153.56 241.649C155.953 246.506 153.747 253.681 156.681 258.517C158.23 261.07 160.961 262.543 163.673 263.571C168.028 265.222 172.738 266.344 177.234 267.576C195.844 272.676 215.081 275.927 233.995 279.697C256.599 284.203 278.944 289.6 301.468 294.432C290.258 298.768 278.234 301.501 266.677 304.766C252.488 308.774 238.697 313.184 224.788 318.07C211.264 314.774 197.573 311.937 183.957 309.039C130.813 296.906 77.192 286.693 24.243 273.704C40.0345 270.376 55.6569 265.872 71.3145 261.945L152.629 241.592Z"/><path fill="#F5C988" d="M234.844 60.997C256.22 64.5118 277.614 68.7611 298.876 72.9227L298.857 129.136C298.854 135.97 299.798 151.353 298.181 157.085C297.081 157.782 296.494 157.531 295.22 157.433C292.525 156.486 290.019 154.977 287.469 153.697C278.56 149.224 273.297 150.122 263.728 151.929C259.741 149.702 256.644 146.329 252.173 144.883C247.545 143.388 240.315 147.452 237.082 146.05C236.073 143.913 235.789 141.456 235.619 139.119C234.951 129.924 235.37 120.438 235.272 111.2C234.979 94.4672 234.836 77.7323 234.844 60.997Z"/><path fill="#D29150" d="M572.949 224.125C584.896 224.944 596.799 227.448 608.551 229.648L650.232 237.399C600.266 253.906 550.387 270.678 500.597 287.712L454.888 303.052C438.523 308.55 422.304 313.904 406.815 321.615L378.451 315.761C354.812 311.261 330.569 307.753 307.294 301.631L316.982 298.13C330.503 301.724 344.862 303.29 358.641 305.762C367.144 307.288 377.365 310.503 385.852 310.409C394.566 310.313 414.583 302.969 423.611 300.159L466.943 286.751C494.182 278.411 523.487 271.108 549.987 261.169C556.502 258.726 564.759 255.976 569.604 250.806C574.874 245.182 573.01 231.39 572.949 224.125Z"/><path fill="#D29150" d="M492.875 31.2644C499.579 30.1369 513.711 33.3671 520.843 34.4196C531.937 36.057 543.09 37.5245 554.138 39.4496C538.182 43.3663 522.56 48.4903 506.595 52.3703C496.239 54.8872 485.742 56.7916 475.325 59.0367L420.648 71.0169C411.976 72.8844 389.458 78.789 381.657 78.383C360.539 76.1766 339.96 74.4214 319.262 69.4428L428.661 45.5599C450.041 40.7923 471.4 35.5643 492.875 31.2644Z"/><path fill="#F5C988" d="M418.382 20.1462C424.622 19.2766 436.967 22.053 443.591 22.9892C454.807 24.5744 466.138 25.9042 477.284 27.9147C455.236 33.267 433.032 37.8042 410.854 42.5704L305.697 65.4135C298.865 66.8663 256.865 57.6941 247.042 55.7196C266.924 50.8821 287.281 47.1668 307.31 42.9238C344.27 35.0238 381.296 27.431 418.382 20.1462Z"/><path fill="#D29150" d="M357.49 12.6214C368.73 11.0873 388.289 15.4776 400.561 16.3093C391.128 19.1518 381.014 20.6915 371.355 22.6729L318.722 33.5073L258.799 46.085C249.81 47.9868 240.644 50.6408 231.571 51.9574C228.808 52.3584 225.086 51.2688 222.325 50.781C207.377 47.6265 192.133 45.8382 177.162 42.6429C185.88 40.6123 194.984 39.4113 203.819 37.9282L253.598 29.7124L313.314 19.8357C328.009 17.3584 342.73 14.6637 357.49 12.6214Z"/></svg>