<?xml version="1.0" encoding="utf-8" ?><svg xmlns="http://www.w3.org/2000/svg" xmlns:xlink="http://www.w3.org/1999/xlink" width="462" height="438" viewBox="0 0 462 438"><path fill="#5B300D" d="M276.232 28.429C274.802 27.9327 273.525 27.3396 272.282 26.4777C269.65 24.6533 267.792 22.1276 267.247 18.9375C266.606 15.1762 267.525 11.0079 269.743 7.89837C271.422 5.5454 273.867 3.7924 276.752 3.35052C281.595 2.60876 286.81 2.97609 291.705 2.97871L316.483 2.98816L339.878 2.98437C344.556 2.97482 349.431 2.6082 354.064 3.31536C356.221 3.64467 357.957 4.96991 359.673 6.21811C360.072 7.13174 360.507 8.03021 360.884 8.95326C362.365 12.5798 362.606 17.4648 361.044 21.1028C359.529 24.6326 356.669 26.6549 353.208 28.0335C353.348 42.8565 354.187 57.8117 353.785 72.6213C369.157 72.7016 382.186 75.2238 395.69 82.9125C409.136 90.5682 419.782 101.827 423.937 117.037C429.366 116.845 434.894 116.872 440.142 118.435C447.681 120.68 452.951 125.11 456.684 131.97C457.91 134.751 458.712 137.557 459.101 140.577C460.188 149.033 459.65 158.072 459.628 166.594C459.608 174.48 460.224 182.937 458.904 190.712C457.315 198.235 453.291 205.336 446.735 209.587C441.156 213.205 433.282 214.739 426.68 214.028C426.951 227.04 426.618 240.094 426.588 253.111L426.555 324.304L426.529 363.54C426.513 374.55 426.905 385.897 425.002 396.779C423.292 406.555 419.846 415.843 412.87 423.146C403.743 432.7 390.407 436.821 377.465 437.033C368.903 437.173 360.315 437.031 351.75 437.022L305.037 437.015L155.763 437.013L83.604 437.014L63.3908 437C57.2597 436.998 51.0556 437.14 44.972 436.249C34.3377 434.69 23.8769 430.501 16.0955 422.933C11.6129 418.574 8.5053 413.1 6.21182 407.33C5.4867 404.997 4.67243 402.592 4.37763 400.162C1.64422 393.914 3.30305 363.992 3.02967 355.129C3.38668 353.13 3.31486 350.968 3.49864 348.935C3.7636 346.004 4.23006 343.094 4.6729 340.186C7.73415 328.482 12.9203 319.208 24.3542 313.963C33.6247 309.71 43.9904 309.996 53.9392 309.823L70.4112 309.457C90.616 309.187 110.823 309.148 131.029 309.341L202.225 309.413L233.273 309.412C240.023 309.46 247.09 309.998 253.8 309.204C259.484 308.532 265.092 306.37 269.917 303.32C278.981 297.589 285.481 287.927 287.854 277.548C289.319 270.692 288.653 258.762 288.639 251.451C288.618 240.797 288.812 230.138 288.694 219.486C289.077 212.153 288.171 204.211 283.299 198.401C272.673 185.729 259.637 190.109 245.643 188.733L245.407 188.708C241.754 189.078 237.854 189.048 234.18 188.971C230.506 188.956 226.742 188.824 223.12 189.508C206.452 192.651 204.7 204.111 197.637 216.331C194.277 222.197 189.86 227.39 184.609 231.648C172.242 241.518 155.728 240.175 140.883 240.247C136.175 240.27 131.138 240.871 126.479 240.367C126.52 246.074 126.841 251.967 126.449 257.652C126.194 261.362 125.026 264.987 122.113 267.467C118.387 270.638 111.904 270.963 107.23 270.57C107.336 275.558 107.908 294.797 106.957 298.381C106.676 299.44 105.68 300.401 104.736 300.905C102.805 301.937 100.883 301.395 98.9508 300.748L97.4188 298.93C96.7818 294.281 96.9465 289.552 96.9468 284.87C96.9471 280.164 96.8724 275.441 97.0738 270.739L95.9024 270.703C90.4991 270.533 85.2367 270.643 81.2845 266.349C76.0477 260.659 77.4277 247.443 77.6891 240.008C77.6041 240.009 77.5192 240.012 77.4342 240.012C74.4873 240.023 71.5025 239.843 68.5496 239.799C53.4472 239.575 38.8968 238.324 27.459 227.098C13.2574 213.16 11.619 191.829 11.3723 173.071C11.2843 164.099 11.2767 155.127 11.3494 146.155C11.5879 127.387 11.9841 106.009 26.0228 91.7323C35.508 82.0866 49.6238 76.9069 62.6935 74.4873C74.6613 72.2718 87.0535 72.5555 99.1769 72.4947L140.095 72.4634L276.275 72.4163C276.029 63.4997 276.187 54.6072 276.13 45.6917C276.095 40.0788 275.587 33.9954 276.232 28.429Z"/><path fill="#532412" d="M234.18 188.971C237.125 187.318 241.224 188.456 244.455 188.289C244.882 188.267 245.053 188.484 245.407 188.708C241.754 189.078 237.854 189.048 234.18 188.971Z"/><path fill="#532412" d="M4.37763 400.162L4.66667 399.939C5.08186 400.665 5.07813 401.425 5.41134 402.162C6.03816 403.549 7.29599 404.611 6.76475 406.303C6.65108 406.665 6.41737 407.013 6.21182 407.33C5.4867 404.997 4.67243 402.592 4.37763 400.162Z"/><path fill="#FDF0D8" d="M146.482 83.7275C192.157 83.1581 237.836 82.9566 283.514 83.1229L329.693 83.0575C343.948 83.0467 358.861 82.1307 372.81 85.3814C386.405 88.2531 400.913 96.3643 408.575 108.136C412.911 114.798 414.55 122.349 415.265 130.15C416.711 145.931 416.076 162.153 416.076 177.991L416.073 255.914L416.071 343.163L416.073 368.068C416.07 377.783 416.308 387.793 414.243 397.338C412.262 406.5 407.691 415.31 399.611 420.483C392.318 425.152 383.486 425.945 375.05 426.462C368.641 426.854 362.179 426.771 355.761 426.781C341.383 426.802 327.016 426.396 312.64 426.306L207.304 426.271L100.801 426.269L71.3009 426.264C61.3305 426.258 50.9746 426.718 41.1871 424.526C32.1807 422.51 23.9727 417.86 19.0266 409.894C17.4814 407.405 16.4021 404.764 15.5945 401.955C14.0491 396.523 13.4975 391.245 13.4873 385.625L13.5083 366.509C13.5306 354.034 12.6368 337.74 22.2312 328.249C31.3324 319.245 48.7481 320.603 60.5859 320.62C60.9337 321.81 61.37 322.992 61.8023 324.154C68.4494 342.019 84.7424 365.689 102.604 373.717C113.097 378.434 125.692 378.257 136.366 374.166C157.707 365.985 173.606 339.893 182.439 320.013L221.066 320.021L238.375 320.031C247.164 320.031 255.961 320.263 264.43 317.5C277.684 313.175 287.794 303.711 294.018 291.407C296.254 286.988 297.885 282.211 298.548 277.294C299.223 272.291 299.116 267.183 299.107 262.145L299.066 244.78L299.066 223.746C299.059 219.426 299.177 215.04 298.837 210.731C298.599 207.721 298.071 204.761 297.11 201.893C294.211 193.241 287.475 186.214 279.334 182.241C275.821 180.542 272.06 179.416 268.192 178.906C260.843 177.888 253.078 178.386 245.654 178.369C238.669 178.353 231.499 177.904 224.547 178.646C221.415 178.988 218.332 179.69 215.361 180.738C200.314 185.977 195.54 196.505 189.091 209.778C185.08 217.686 178.851 224.511 170.242 227.337C166.158 228.678 161.886 229.174 157.617 229.475C151.164 229.93 144.638 229.816 138.17 229.832L108.145 229.798C97.9773 229.797 87.8101 229.736 77.6436 229.614C70.9363 229.514 64.1933 229.499 57.5156 228.793C52.2005 228.232 47.0184 227.342 42.2022 224.896C37.0136 222.26 32.273 217.827 29.5098 212.677C20.2114 196.853 21.9487 169.681 21.981 151.49C22.0108 134.642 21.1007 111.365 33.9518 98.7045C37.3288 95.3777 41.441 92.9708 45.7133 90.9807C60.1118 84.2739 74.8054 83.4776 90.4497 83.2797C97.9795 83.1989 105.51 83.1833 113.04 83.2326C113.366 96.0213 113.256 108.845 113.257 121.638C113.257 128.681 112.563 137.43 114.039 144.222C114.694 147.2 116.158 149.939 118.27 152.138C121.294 155.29 125.398 156.965 129.748 156.989C134.175 157.012 138.271 155.354 141.407 152.22C143.617 150.012 145.267 147.169 145.938 144.11C147.29 137.947 146.56 128.517 146.549 121.987L146.482 83.7275Z"/><path fill="#E6D5B2" d="M372.81 85.3814C386.405 88.2531 400.913 96.3643 408.575 108.136C412.911 114.798 414.55 122.349 415.265 130.15C416.711 145.931 416.076 162.153 416.076 177.991L416.073 255.914L416.071 343.163L416.073 368.068C416.07 377.783 416.308 387.793 414.243 397.338C412.262 406.5 407.691 415.31 399.611 420.483C392.318 425.152 383.486 425.945 375.05 426.462C368.641 426.854 362.179 426.771 355.761 426.781C341.383 426.802 327.016 426.396 312.64 426.306L207.304 426.271L100.801 426.269L71.3009 426.264C61.3305 426.258 50.9746 426.718 41.1871 424.526C32.1807 422.51 23.9727 417.86 19.0266 409.894C17.4814 407.405 16.4021 404.764 15.5945 401.955L15.979 402.001C16.0933 401.944 16.2064 401.885 16.3218 401.83C17.5606 401.243 20.728 403.832 22.2343 404.351C26.5509 405.836 31.1837 406.522 35.7349 406.69C42.0311 406.923 48.3301 406.615 54.6249 406.52L83.9237 406.259L200.205 406.016L294.096 405.98L323.434 405.992C330.827 406.001 338.247 406.131 345.627 405.633C353.546 405.098 361.702 403.008 368.811 399.443C380.979 393.313 390.183 382.563 394.366 369.597C396.34 363.554 397.33 356.964 397.674 350.629C398.2 340.929 397.884 331.056 397.915 321.338L397.881 256.587L397.955 172.643L398.046 148.783C398.101 138.131 398.355 127.485 395.765 117.068C393.442 107.725 388.584 98.5364 380.964 92.4705C378.744 90.7034 374.055 87.9691 372.905 85.5926C372.871 85.5232 372.841 85.4518 372.81 85.3814Z"/><path fill="#E6D5B2" d="M29.5098 212.677L30.12 211.954C31.3104 211.597 32.4083 212.772 33.3598 213.39C35.883 215.029 39.489 216.131 42.3809 216.811C51.4589 218.946 63.7359 218.299 73.2297 218.294L109.56 218.236C121.419 218.254 133.277 218.194 145.135 218.058C153.663 218.005 162.586 218.471 171.004 216.942C175.465 216.132 179.788 214.157 183.598 211.74C184.799 210.977 186.192 209.708 187.474 209.172C187.981 208.961 188.663 209.539 189.091 209.778C185.08 217.686 178.851 224.511 170.242 227.337C166.158 228.678 161.886 229.174 157.617 229.475C151.164 229.93 144.638 229.816 138.17 229.832L108.145 229.798C97.9773 229.797 87.8101 229.736 77.6436 229.614C70.9363 229.514 64.1933 229.499 57.5156 228.793C52.2005 228.232 47.0184 227.342 42.2022 224.896C37.0136 222.26 32.273 217.827 29.5098 212.677Z"/><path fill="#F7C145" d="M73.3365 320.134C86.5531 319.552 100.539 320.007 113.822 320.005C133.794 320.001 153.802 319.75 173.77 320.076C168.246 332.271 161.094 343.155 152.178 353.153C146.977 358.81 141.124 363.767 133.933 366.711C125.398 370.205 114.979 370.694 106.403 367.092C88.8435 359.718 75.6361 337.176 68.6434 320.277L73.3365 320.134Z"/><path fill="#9C859E" d="M284.984 28.8489C304.735 29.1041 324.505 28.7346 344.258 28.8133C344.601 43.3904 344.867 57.9693 345.056 72.5492L284.952 72.5506C284.917 67.892 284.919 63.2331 284.958 58.5745C291.502 57.7897 298.073 57.2566 304.658 56.9766C305.84 56.0905 308.362 56.2041 309.891 56.0656L309.989 55.9054C309.472 55.7689 308.948 55.6756 308.528 55.3236C308.461 55.2668 308.406 55.1959 308.345 55.1321C300.657 53.7511 292.769 53.9545 284.995 54.2441C284.886 50.2705 284.88 46.2947 284.977 42.3208C288.029 41.8045 291.146 41.7579 294.235 41.674C291.304 39.9819 288.303 39.0985 284.955 38.646C284.875 35.3736 284.828 32.1202 284.984 28.8489Z"/><path fill="#532412" d="M308.345 55.1321C309.409 55.3092 311.7 55.4833 312.41 56.293C310.529 57.268 306.815 56.8905 304.658 56.9766C305.84 56.0905 308.362 56.2041 309.891 56.0656L309.989 55.9054C309.472 55.7689 308.948 55.6756 308.528 55.3236C308.461 55.2668 308.406 55.1959 308.345 55.1321Z"/><path fill="#716558" d="M425.654 127.296C431.981 127.479 438.638 127.169 443.756 131.598C447.152 134.536 448.464 138.447 448.741 142.814C449.278 151.311 448.993 159.951 448.991 168.468C448.99 175.04 449.634 183.728 448.329 190.006C447.651 193.265 446.251 195.852 444.065 198.338C443.974 198.433 443.885 198.53 443.792 198.624C439.091 203.415 432.824 203.681 426.513 203.724L426.522 164.236C426.518 151.879 426.561 139.63 425.654 127.296Z"/><path fill="#E6D5B2" d="M121.789 83.511L137.795 83.5517L137.926 120.957C137.957 127.384 138.613 134.977 137.582 141.224C137.262 143.166 136.413 144.545 135.272 146.086C133.727 147.496 132.011 148.421 129.87 148.479C127.96 148.532 126.11 147.814 124.737 146.487C123.404 145.193 122.701 143.496 122.39 141.695C121.319 135.478 121.906 127.736 121.894 121.323L121.789 83.511Z"/><path fill="#9C859E" d="M277.849 12.0592C283.289 11.8183 288.834 12.0389 294.284 12.0388L326.111 11.997L342.805 11.9505C345.709 11.9419 349.013 11.6159 351.852 12.1524C352.45 12.2654 352.999 12.7016 353.301 13.223C353.84 14.1539 353.71 15.2502 353.476 16.2512C353.039 18.1231 352.381 18.8953 350.8 19.8997C349.769 20.2958 348.722 20.4069 347.628 20.4505C342.977 20.6357 338.275 20.5073 333.618 20.5058L307.716 20.4937L289.414 20.5132C286.053 20.5167 282.596 20.6893 279.25 20.4076C278.23 20.3217 277.564 20.1801 276.814 19.4366C276.029 18.6579 275.77 17.5144 275.819 16.4383C275.9 14.6815 276.574 13.2478 277.849 12.0592Z"/><defs><linearGradient id="gradient_0" gradientUnits="userSpaceOnUse" x1="104.3233" y1="238.23802" x2="99.099503" y2="262.0004"><stop offset="0" stop-color="#767260"/><stop offset="1" stop-color="#90897A"/></linearGradient></defs><path fill="url(#gradient_0)" d="M113.58 240.374L116.699 240.44C116.717 243.948 117.521 257.756 115.448 259.797C114.897 260.339 114.152 260.479 113.41 260.563C111.185 260.816 108.775 260.545 106.525 260.56C101.242 260.634 95.9581 260.671 90.6744 260.67C90.1546 260.559 89.5655 260.463 89.1722 260.077C86.7722 257.721 87.5819 244.053 87.6248 240.381C96.1868 240.83 104.991 240.434 113.58 240.374Z"/></svg>