<?xml version="1.0" encoding="utf-8" ?><svg xmlns="http://www.w3.org/2000/svg" xmlns:xlink="http://www.w3.org/1999/xlink" width="921" height="510" viewBox="0 0 921 510"><path fill="#6B3F22" d="M124.699 2.023L637.745 2.01151L748.36 2.00158L781.189 1.92642C790.048 1.91103 800.22 1.00197 808.844 3.30625C812.41 4.25884 816 6.29574 819.104 8.25066C825.692 12.4002 831.984 17.228 838.314 21.765L873.104 46.8681L897.839 64.9357C902.456 68.3242 907.494 71.5773 911.709 75.4524C916.426 79.7901 918.406 83.8992 918.669 90.401C918.907 96.298 919.268 113.664 918.028 118.784C917.318 121.799 915.832 124.577 913.718 126.843C911.035 129.692 907.513 131.604 903.735 132.558C897.219 134.204 879.414 133.331 871.548 133.519L871.438 374.59L871.395 450.942C871.382 462.228 872.422 475.125 871.237 486.208C870.647 491.719 868.657 496.538 864.741 500.533C859.095 506.292 851.485 508.629 843.587 508.737C835.359 508.85 826.958 506.88 820.937 500.913C816.873 496.885 814.906 492.596 814.272 486.984C813.069 476.322 813.952 460.824 813.961 449.762L813.949 377.034L813.999 133.509L798.595 133.544L798.554 313.524L798.584 370.44C798.594 379.918 799.377 390.161 798.369 399.545C797.92 403.724 796.311 407.256 793.368 410.28C787.773 416.031 780.161 417.756 772.421 417.84C764.869 417.922 757.454 416.281 751.92 410.782C749.142 408.021 747.163 404.937 746.531 401.063C745.388 394.059 745.85 386.608 745.85 379.52L745.853 347.228L745.856 231.052C745.643 198.612 745.435 166.092 745.767 133.655C738.847 132.807 731.56 133.218 724.586 133.217L689.49 133.237L569.979 133.323L175.476 133.545L175.376 320.134L175.404 372.374C175.412 381.773 176.084 391.765 174.993 401.095C174.554 404.843 172.931 407.891 170.259 410.58C164.638 416.237 156.202 417.75 148.519 417.787C141.431 417.821 133.626 415.507 128.561 410.391C125.115 406.91 123.979 403.472 123.476 398.713C122.487 389.346 123.188 379.324 123.191 369.879L123.207 314.515L123.191 133.609C117.911 132.928 112.338 133.407 107.016 133.535L107.001 377.939L107.034 451.136C107.045 462.317 107.922 477.159 106.74 487.733C106.197 492.537 104.091 497.029 100.746 500.518C95.2696 506.287 87.8637 508.474 80.1061 508.618C71.591 508.776 62.705 507.065 56.4127 500.88C51.8864 496.431 50.2204 491.824 49.5332 485.715C48.2981 474.735 49.2285 459.69 49.2547 448.279L49.3353 375.584L49.3654 133.354C37.6707 132.867 17.3523 136.345 8.62122 127.687C4.70508 123.804 3.16235 118.643 3.10611 113.229C3.00554 103.546 1.41607 83.4532 8.46646 76.4351C15.4863 69.4474 24.4801 63.8573 32.5295 58.089L70.2547 31.0594L92.6101 15.0273C97.216 11.7325 102.049 7.84653 107.131 5.35439C112.916 2.51793 118.359 2.04322 124.699 2.023Z"/><path fill="#D39156" d="M15.1783 81.6973C20.7668 76.107 109.816 12.6553 114.069 11.0196C117.968 9.51966 128.249 10.1771 132.715 10.1766L651.432 10.2079L763.956 10.2022C771.775 10.2019 800.867 9.30681 806.191 10.7442C808.927 11.4831 812.082 13.6137 814.439 15.1787C821.686 19.9926 828.665 25.3352 835.715 30.4384L872.546 57.07L894.232 72.5434C898.403 75.5415 902.83 78.4381 906.583 81.9565C908.538 84.2904 909.367 86.9574 910.218 89.8377C910.277 96.9285 910.417 104.033 910.348 111.123C910.31 115.02 910.013 119.214 907.007 122.065C904.454 124.486 900.407 125.189 897.024 125.286C882.645 125.695 868.062 125.144 853.657 125.169L749.671 125.241L447.722 125.262L163.761 125.292L71.2746 125.281C56.0084 125.284 40.618 125.766 25.3669 125.305C21.437 125.186 17.7745 125.108 14.9306 121.997C13.3823 120.302 12.4748 118.229 12.0223 115.995C10.7907 109.914 11.5987 95.6934 11.9871 89.1129C12.1879 86.4146 13.3073 83.6499 15.1783 81.6973Z"/><path fill="#C07A46" d="M11.9871 89.1129C12.1879 86.4146 13.3073 83.6499 15.1783 81.6973C23.9057 82.5757 33.1839 81.9782 41.9792 81.9718L92.4559 81.9409L262.003 81.9556L694.271 81.9093L833.851 81.9358C858.066 81.9347 882.378 81.4644 906.583 81.9565C908.538 84.2904 909.367 86.9574 910.218 89.8377C910.277 96.9285 910.417 104.033 910.348 111.123C910.31 115.02 910.013 119.214 907.007 122.065C904.454 124.486 900.407 125.189 897.024 125.286C882.645 125.695 868.062 125.144 853.657 125.169L749.671 125.241L447.722 125.262L163.761 125.292L71.2746 125.281C56.0084 125.284 40.618 125.766 25.3669 125.305C21.437 125.186 17.7745 125.108 14.9306 121.997C13.3823 120.302 12.4748 118.229 12.0223 115.995C10.7907 109.914 11.5987 95.6934 11.9871 89.1129Z"/><path fill="#A15D2E" d="M11.9871 89.1129C12.1879 86.4146 13.3073 83.6499 15.1783 81.6973C23.9057 82.5757 33.1839 81.9782 41.9792 81.9718L92.4559 81.9409L262.003 81.9556L694.271 81.9093L833.851 81.9358C858.066 81.9347 882.378 81.4644 906.583 81.9565C908.538 84.2904 909.367 86.9574 910.218 89.8377C908.307 88.6805 902.897 89.1901 900.506 89.162C866.045 88.7569 831.539 89.1186 797.073 89.1165L603.834 89.0889L11.9871 89.1129Z"/><path fill="#C07A46" d="M690.722 38.0207C704.649 37.0629 719.021 37.7044 733.004 37.7463C744.23 37.78 759.455 36.9758 770.259 38.7525C772.316 39.0908 775.324 39.5793 776.618 41.3811C776.568 42.0891 776.638 42.2507 776.147 42.7633C773.06 45.9867 764.043 45.9443 759.746 46.0572C748.728 45.9556 737.709 45.9199 726.69 45.9503C715.292 46.0157 685.776 48.1572 676.24 43.6726C675.148 43.159 674.721 42.8216 674.335 41.6952C674.527 41.3115 674.688 40.9783 675.004 40.6789C678.248 37.6141 686.539 38.1369 690.722 38.0207Z"/><path fill="#C07A46" d="M154.163 37.9737L191.889 37.7338C199.343 37.6896 206.918 37.3628 214.352 37.8566C217.547 38.0688 224.356 38.3945 226.77 40.4657C227.325 40.9417 227.21 41.1688 227.26 41.886C227.057 42.1816 226.846 42.4688 226.592 42.7235C223.253 46.062 214.457 45.425 210.126 45.4531C199.539 45.4482 142.749 46.5819 137.25 43.9358C136.094 43.3799 135.818 42.9861 135.418 41.846C135.579 41.473 135.713 41.1434 136.005 40.8503C139.1 37.749 149.769 38.1784 154.163 37.9737Z"/><path fill="#C07A46" d="M455.496 27.1958C463.607 27.151 479.427 26.0993 486.502 29.2033C487.613 29.6904 488.076 30.2411 488.492 31.3206L487.975 32.2611C482.71 35.7377 469.346 35.1868 462.973 35.1328C453.789 35.1039 443.421 35.6017 434.436 33.6968C432.668 33.3218 431.162 32.9585 430.147 31.3995L430.518 30.416C434.277 26.8096 450.19 27.2821 455.496 27.1958Z"/><path fill="#C07A46" d="M350.228 51.456C357.824 50.9776 387.6 50.055 393.38 54.1206C393.972 54.537 393.894 54.7064 394.022 55.4113C393.981 55.4679 393.942 55.5261 393.899 55.5809C391.627 58.4571 385.803 58.4517 382.478 58.7626C373.039 59.2072 363.485 59.1167 354.045 58.7492C350.451 58.6093 339.484 58.8897 337.258 56.0438C336.832 55.4982 337.056 55.1956 337.17 54.5633C339.905 51.4855 346.419 51.7652 350.228 51.456Z"/><path fill="#C07A46" d="M57.5179 133.592L98.5678 133.543L98.7843 226.556L98.7792 258.382C98.779 264.746 99.0535 271.253 98.5604 277.592C98.934 293.976 98.63 310.435 98.6256 326.828L98.7036 412.422L98.7942 460.708C98.8108 468.748 99.4332 477.26 98.6224 485.237C98.2501 488.9 97.1258 492.226 94.5377 494.924C90.6442 498.982 84.9206 501.084 79.3968 501.207C73.216 501.345 66.9664 500.077 62.4126 495.593C59.0675 492.299 58.1585 488.405 57.7403 483.878C56.7365 473.009 57.5221 461.36 57.5239 450.41L57.5466 383.508L57.5296 166.768L57.5179 133.592Z"/><path fill="#A15D2E" d="M57.5179 133.592L98.5678 133.543L98.7843 226.556L98.7792 258.382C98.779 264.746 99.0535 271.253 98.5604 277.592C98.0481 273.431 98.3304 268.984 98.3383 264.788L98.3628 242.427L98.3015 166.768C84.7243 167.02 71.1094 166.813 57.5296 166.768L57.5179 133.592Z"/><path fill="#C07A46" d="M822.237 133.544L863.001 133.577L863.075 166.962L863.062 382.514L863.048 451.078C863.044 462.454 863.831 474.36 862.834 485.661C862.482 489.645 861.661 492.324 858.789 495.24C854.471 499.625 848.214 501.133 842.231 501.117C836.523 501.101 831.144 499.808 827.061 495.596C824.55 493.006 822.585 489.415 822.492 485.744C821.221 479.245 822.105 467.657 822.099 460.575L822.18 399.023L822.237 133.544Z"/><path fill="#A15D2E" d="M822.237 133.544L863.001 133.577L863.075 166.962C849.701 166.703 835.895 165.923 822.556 166.763L822.629 388.469L822.666 454.019C822.677 463.449 823.515 476.848 822.492 485.744C821.221 479.245 822.105 467.657 822.099 460.575L822.18 399.023L822.237 133.544Z"/><path fill="#A15D2E" d="M131.42 133.569L167.222 133.585L167.225 314.83L167.204 371.289C167.202 379.987 168.093 389.357 167.076 397.952C166.638 401.658 165.106 404.005 162.546 406.641C158.478 409.322 154.458 410.604 149.546 410.614C144.559 410.624 139.124 409.254 135.525 405.616C132.544 402.604 131.958 399.492 131.584 395.447C130.708 385.973 131.349 375.913 131.352 366.385L131.376 310.477L131.42 133.569Z"/><path fill="#A15D2E" d="M754.284 133.547L790.043 133.569L790.094 317.521L790.114 370.556C790.119 380.19 790.883 390.629 789.558 400.154C789.186 402.836 787.19 404.8 785.386 406.641C781.627 409.237 777.388 410.523 772.817 410.613C767.652 410.715 761.929 409.446 758.174 405.671C755.38 402.862 754.831 399.944 754.468 396.146C753.571 386.743 754.268 376.697 754.286 367.207L754.309 312.97L754.284 133.547Z"/></svg>