<?xml version="1.0" encoding="utf-8" ?><svg xmlns="http://www.w3.org/2000/svg" xmlns:xlink="http://www.w3.org/1999/xlink" width="1536" height="1024" viewBox="0 0 1536 1024"><path fill="#A2632E" d="M0 0L1536 0L1536 520.018L1536 526.07L1536 552.667L1536 567.137L1536 741.76L1536 748.912L1536 776.365L1536 783.982L1536 791.612L1536 831.811L1536 838.503L1536 892.354L1536 899.355L1536 959.19L1536 966.136L1536 1024L0 1024L0 965.494L0 959.343L0 939.814L0 934.663L0 898.782L0 892.136L0 838.011L0 831.816L0 790.717L0 783.959L0 776.42L0 282.444L0 226.165L0 0Z"/><path fill="#DFC289" d="M0 0L1536 0L1536 520.018C1521.69 518.35 1506.81 519.113 1492.41 519.113L1420.19 519.129L1180.14 519.218L616.203 519.18C521.747 519.171 427.175 520.271 332.75 519.187C332.752 510.61 332.929 501.982 332.389 493.419C333.019 445.697 332.394 397.89 332.316 350.16C332.264 318.521 334.126 282.75 329.894 251.658C327.456 234.43 322.506 217.653 315.202 201.862C297.645 164.369 261.539 135.574 223.062 121.657C179.748 105.99 127.501 108.801 85.8945 128.52C44.5765 148.102 15.1808 183.631 0 226.165L0 0Z"/><path fill="#472F11" d="M961.25 105.324C960.337 103.612 959.411 101.877 958.669 100.083C956.018 93.6827 956.387 85.6476 959.206 79.3716C961.098 75.1603 964.192 71.5656 968.668 70.0282C981.066 65.7707 982.658 74.1406 991.744 77.4419C997.286 79.4554 1002.25 71.0129 1007.06 68.5981C1019.19 62.5181 1035.07 69.6454 1047.74 69.3791C1063.91 69.0391 1081.35 63.1927 1097.43 68.3384C1103.57 70.3029 1106.74 73.4324 1109.59 79.1245L1292.49 78.9287C1293.87 76.7185 1295.42 74.1817 1297.4 72.4435C1300.37 69.8383 1304.4 68.9811 1308.23 68.6793C1319.57 67.7853 1331.05 70.982 1342.42 70.7336C1352.96 70.5035 1363.08 66.7868 1373.59 66.7012C1381.73 66.6348 1389.71 70.0498 1397.81 69.6961C1408.27 69.2403 1418.49 66.1094 1429.06 67.6074C1438.57 68.9554 1441.65 77.8868 1448.34 78.4555C1451.41 77.3095 1452.96 74.6073 1455.14 72.3009C1457.5 69.8026 1460.98 68.9696 1464.32 68.9058C1468.73 68.8214 1472.67 70.6503 1475.78 73.7116C1481.25 79.0984 1482.68 85.9619 1482.63 93.3563C1484.61 97.1944 1484.39 102.291 1483.06 106.355C1481.53 111.03 1477.52 114.817 1473.13 116.871C1466.49 119.978 1461.09 119.106 1454.29 117.225C1454.21 156.308 1451.95 195.357 1447.52 234.188C1445.42 251.408 1440.7 268.796 1439.49 285.969C1437.94 307.81 1453.03 303.896 1438.92 333.435C1441.06 345.698 1445.19 357.459 1447.58 369.65C1451.8 391.147 1463.23 469.535 1452.08 486.208C1451.08 487.69 1449.74 489.005 1448.49 490.275C1451.16 492.009 1455.73 494.288 1457.03 497.352C1457.68 498.881 1457.38 499.137 1456.74 500.564C1454.48 502.021 1451.9 502.311 1449.26 502.423C1430.82 503.206 1411.94 502.436 1393.45 502.471L1276.66 502.712C1183.08 502.946 1089.41 504.435 995.843 503.48C992.991 503.451 989.77 503.861 987.75 501.789C986.66 496.71 991.695 490.917 994.327 486.8C992.379 485.052 990.738 482.992 989.47 480.703C987.166 476.506 978.542 442.41 978.381 437.449C977.5 410.323 984.292 380.979 989.829 354.511C991.93 344.468 993.698 334.189 996.702 324.381C990.55 309.701 990.594 299.948 996.489 285.283C993.686 273.736 992.976 261.708 992.043 249.89C989.868 222.362 989.474 195.094 989.357 167.509C989.28 149.227 988.686 131.079 989.411 112.794C986.562 115.057 983.807 117.46 981.018 119.798C976.065 120.251 971.425 120.771 967.137 117.579C963.245 114.682 961.962 109.862 961.25 105.324Z"/><path fill="#DAAA65" d="M1431.16 291.991C1434.14 272.105 1438.02 252.353 1440.9 232.431C1444.97 204.779 1447.23 176.891 1447.66 148.945C1447.77 142.554 1446.57 108.04 1448.69 104.782C1454.16 105.258 1458.95 110.102 1464.29 111.471C1467.44 112.277 1471.61 110.767 1474.24 108.958C1479.54 105.316 1481.38 99.3181 1482.63 93.3563C1484.61 97.1944 1484.39 102.291 1483.06 106.355C1481.53 111.03 1477.52 114.817 1473.13 116.871C1466.49 119.978 1461.09 119.106 1454.29 117.225C1454.21 156.308 1451.95 195.357 1447.52 234.188C1445.42 251.408 1440.7 268.796 1439.49 285.969C1437.94 307.81 1453.03 303.896 1438.92 333.435C1441.06 345.698 1445.19 357.459 1447.58 369.65C1451.8 391.147 1463.23 469.535 1452.08 486.208C1451.08 487.69 1449.74 489.005 1448.49 490.275L1439.78 484.19C1441.97 482.706 1444.86 480.703 1446.34 478.478C1450.24 472.6 1449.56 461.053 1449.55 454.165C1449.52 422.443 1445.08 390.945 1438.9 359.866C1436.76 349.069 1433.74 338.484 1431.9 327.622C1432.07 327.414 1432.24 327.208 1432.41 326.998C1437.2 320.933 1440.37 313.115 1439.27 305.284C1438.47 299.542 1435.77 295.424 1431.16 291.991Z"/><path fill="#DAAA65" d="M961.25 105.324L961.976 106.022C965.844 109.709 970.783 112.907 976.367 112.645C982.272 112.368 990.394 103.931 993.335 105.838C994.586 118.116 993.123 131.282 993.337 143.711C993.686 163.689 994.335 183.661 995.285 203.62C996.335 230.993 997.177 259.718 1003.19 286.506C998.665 291.107 995.856 295.429 995.995 302.104C996.117 307.986 998.87 313.492 1002.55 317.955C1000.45 328.542 997.522 338.911 995.206 349.446C991.099 367.876 987.906 386.499 985.64 405.245C984.612 413.588 983.13 422.366 983.781 430.77C984.48 439.8 987.713 448.139 989.747 456.886C991.19 463.088 991.305 470.798 994.688 476.334C995.581 477.796 997.244 478.866 998.623 479.821L994.327 486.8C992.379 485.052 990.738 482.992 989.47 480.703C987.166 476.506 978.542 442.41 978.381 437.449C977.5 410.323 984.292 380.979 989.829 354.511C991.93 344.468 993.698 334.189 996.702 324.381C990.55 309.701 990.594 299.948 996.489 285.283C993.686 273.736 992.976 261.708 992.043 249.89C989.868 222.362 989.474 195.094 989.357 167.509C989.28 149.227 988.686 131.079 989.411 112.794C986.562 115.057 983.807 117.46 981.018 119.798C976.065 120.251 971.425 120.771 967.137 117.579C963.245 114.682 961.962 109.862 961.25 105.324Z"/><path fill="#8AD1DD" d="M1105.01 149.942C1135.73 149.918 1166.48 149.465 1197.19 149.865L1196.93 412.658L1197.05 430.366C1155.96 429.579 1114.76 430.176 1073.66 430.091C1072.66 390.948 1073.2 351.642 1073.37 312.487C1073.45 294.989 1071.68 276.206 1073.67 258.841C1090.36 225.486 1099.22 186.628 1105.01 149.942Z"/><path fill="#7FB57D" d="M1073.67 258.841L1073.95 264.479C1073.84 271.604 1073.77 278.709 1073.97 285.832C1074.07 312.197 1074 338.562 1073.75 364.926C1080.8 359.256 1087.94 354.741 1097.4 355.785C1104.17 356.532 1110.2 360.222 1114.38 365.528C1119.23 371.676 1120.21 378.132 1121.36 385.621C1127.13 379.905 1133.2 375.687 1141.64 375.645C1147.7 375.586 1153.53 377.998 1157.77 382.325C1162.03 386.66 1164.56 392.896 1164.4 398.991C1164.33 401.935 1163.76 405.072 1163.11 407.943C1173.02 404.443 1178.51 403.339 1188.31 408.043C1190.89 409.279 1194.25 412.158 1196.93 412.658L1197.05 430.366C1155.96 429.579 1114.76 430.176 1073.66 430.091C1072.66 390.948 1073.2 351.642 1073.37 312.487C1073.45 294.989 1071.68 276.206 1073.67 258.841Z"/><path fill="#EFECD9" d="M1095.35 262.797C1098.78 252.679 1103.82 244.843 1113.72 240.015C1120.15 236.885 1127.71 235.886 1134.54 238.288C1139.93 240.185 1146.7 245.262 1149.07 250.528C1150.42 253.531 1151.33 259.057 1153.54 261.238C1162.25 260.88 1168.44 260.623 1175.26 266.971C1177.64 269.184 1179.81 272.279 1179.71 275.66C1179.64 278.224 1178.16 280.52 1176.31 282.195C1173.85 284.417 1170.77 285.454 1167.55 285.89C1154.97 287.592 1140.62 286.33 1127.88 286.349C1110.84 286.375 1092.97 287.495 1076.03 286.064C1075.34 286.012 1074.65 285.934 1073.97 285.832C1073.77 278.709 1073.84 271.604 1073.95 264.479C1081.63 261.799 1087.4 260.838 1095.35 262.797Z"/><path fill="#DAAA65" d="M1385.03 304.719C1379.28 303.102 1374.7 299.741 1370.38 295.694C1324.15 252.359 1300.06 154.875 1298.62 92.9125C1298.52 88.7285 1298.2 81.7982 1301.52 78.6809C1303.91 76.4342 1307.34 75.6578 1310.52 75.4036C1321.88 74.4949 1333.67 77.8334 1345.19 77.2872C1355.35 76.8055 1365.15 72.7672 1375.42 73.0859C1383.36 73.3323 1391.12 76.6125 1399.1 76.3896C1408.15 76.1371 1416.85 73.2588 1426.02 73.9729C1429.66 74.2558 1433.81 75.305 1436.17 78.2764C1442.47 86.2029 1441.25 105.023 1441.41 114.73C1442.09 151.605 1440.09 188.481 1435.45 225.068C1432.16 249.356 1427.15 273.345 1423.79 297.584C1419.82 299.413 1415.67 300.771 1411.54 302.199L1401.3 304.61C1395.86 305.026 1390.43 305.82 1385.03 304.719Z"/><path fill="#CF944C" d="M1401.3 304.61C1406.61 294.283 1400.87 133.122 1400.94 106.47C1400.95 102.635 1400.45 97.1808 1403.34 94.3052C1405.27 93.8528 1405.26 93.8874 1407.03 94.795C1411.72 101.04 1411.9 238.199 1411.74 258.435C1411.67 266.478 1409.71 296.177 1411.4 301.781C1411.45 301.922 1411.5 302.06 1411.54 302.199L1401.3 304.61Z"/><path fill="#CF944C" d="M1385.03 304.719C1387.73 304.585 1389.7 305.071 1391.87 303.333C1392.25 300.174 1388.97 296.397 1387.85 293.342C1379.18 270.255 1371.22 246.904 1364 223.322C1359.23 207.413 1356.3 190.509 1353.42 174.153C1351.18 161.48 1342.05 96.0171 1347.09 88.8292C1347.73 88.6875 1348.48 88.4703 1349.15 88.4876C1351.3 88.5434 1352 89.3779 1352.5 91.3501C1354.3 98.5706 1353.92 107.53 1354.47 115.049C1355.45 128.483 1356.65 141.807 1358.5 155.157C1361.03 173.497 1364.52 192.54 1368.87 210.536C1371.55 221.651 1395.68 299.287 1400.55 303.94C1400.79 304.172 1401.05 304.386 1401.3 304.61C1395.86 305.026 1390.43 305.82 1385.03 304.719Z"/><path fill="#8AD1DD" d="M1227.78 149.936C1251.39 150.173 1275.03 149.929 1298.64 149.892C1301.07 162.809 1303.9 175.646 1307.13 188.384C1311.72 204.551 1316.55 220.638 1323.48 235.99C1331.89 254.443 1341.88 271.046 1353.84 287.403L1354.14 430.111L1336.42 430.463C1336.52 426.553 1336.46 422.63 1336.47 418.718C1340.8 414.196 1344.48 409.05 1344.78 402.564C1344.99 398.248 1343.37 394.045 1340.33 390.979C1335.56 386.094 1328.36 383.939 1321.66 383.949C1311.66 383.965 1304.94 389 1298.21 395.842C1298.19 388.34 1298.08 380.839 1297.9 373.339C1299.42 374.087 1301 374.797 1302.6 375.36C1307.26 377.006 1313.06 376.512 1317.47 374.349C1322.41 371.928 1326.07 367.493 1327.8 362.297C1330.18 355.115 1328.4 348.393 1325.15 341.84C1326.96 340.158 1328.76 338.322 1330.15 336.269C1333.68 331.045 1335.27 324.03 1333.89 317.842C1331.94 309.136 1323.2 302.949 1314.36 303.131C1311.06 303.199 1305.04 305.384 1302.12 304.364C1299.09 303.305 1295.34 297.618 1292.06 295.575C1288.63 293.439 1284.47 292.218 1280.47 293.309C1274.67 294.893 1270.46 300.222 1267.59 305.176C1267.19 309.199 1267.47 313.337 1267.56 317.377C1262.53 317.336 1258.12 317.54 1253.57 319.877C1249.14 322.15 1245.53 325.725 1244.11 330.597C1242.95 334.603 1243.42 338.904 1245.42 342.562C1248.61 348.335 1253.72 350.553 1259.8 352.115C1258.09 358.258 1257.25 363.487 1260.29 369.429C1262.42 373.571 1266.11 376.691 1270.55 378.096C1277.93 380.465 1284.04 377.99 1290.62 374.682L1291.15 396.724C1285.51 391.273 1279.83 388.393 1271.93 387.596C1263.77 386.774 1254.18 388.359 1247.79 393.826C1244.74 396.437 1242.43 400.008 1242.29 404.13C1242.12 409.541 1244.73 413.769 1248.33 417.505L1248.88 430.348L1227.75 430.088L1227.78 149.936Z"/><path fill="#EFECD9" d="M1272.44 216.249C1274.38 208.73 1277.11 201.52 1282.86 196.053C1289.78 189.477 1297.93 188.151 1307.13 188.384C1311.72 204.551 1316.55 220.638 1323.48 235.99C1311.11 236.445 1298.63 236.15 1286.24 236.209C1275.97 236.257 1265.5 236.747 1255.25 236.241C1251.98 236.079 1248.45 235.918 1246.22 233.16C1244.76 231.336 1244.06 228.873 1244.53 226.566C1245.19 223.287 1247.83 220.65 1250.53 218.853C1257.28 214.366 1264.81 214.742 1272.44 216.249Z"/><path fill="#DAAA65" d="M1009.93 286.854C1007.31 273.248 1005.45 259.508 1004.36 245.696C1000.81 204.939 999.453 163.255 1000.05 122.35C1000.22 111.173 999.544 98.9928 1001.33 87.9565C1001.8 85.0285 1002.7 82.0918 1004.4 79.6313C1006.89 76.012 1010.63 74.0551 1014.87 73.3561C1024.43 71.7823 1035.1 75.4958 1044.91 75.6733C1057.46 75.9004 1088.37 69.1443 1098.55 76.3922C1101.72 78.6478 1102.81 83.1053 1103.22 86.7792C1104.2 95.6031 1103.22 105.214 1102.58 114.036C1099.17 161.148 1081.52 248.56 1051.33 284.973C1049.27 287.45 1047.41 289.24 1044.36 290.467C1039.73 291.592 1034.56 291.073 1029.86 290.7C1022.97 290.08 1016.45 289.388 1009.93 286.854Z"/><path fill="#CF944C" d="M1029.86 290.7C1029.94 290.518 1030.01 290.336 1030.08 290.152C1033.21 282.045 1034.62 272.558 1036.65 264.083C1042.08 242.237 1046.77 220.217 1050.74 198.06C1053.21 184.421 1054.62 170.375 1058.09 156.943C1058.7 154.543 1059.59 152.493 1061.2 150.57C1062.93 149.932 1062.94 150.035 1064.69 150.683C1069.28 162.27 1047.73 253.366 1043.15 270.753C1041.68 276.334 1039.22 281.592 1037.69 287.104C1037.38 288.195 1036.74 289.532 1037.92 290.071C1039.64 290.856 1042.48 290.494 1044.36 290.467C1039.73 291.592 1034.56 291.073 1029.86 290.7Z"/><path fill="#CF944C" d="M1038.3 89.3566C1039.47 89.4054 1040.7 89.4142 1041.85 89.6106C1043.67 89.9203 1044.16 90.2291 1045.14 91.7308C1046.35 109.41 1043.58 128.598 1042.27 146.296C1041.64 154.887 1041.74 163.932 1040.41 172.425C1040.01 174.934 1039.18 177.086 1038.08 179.358C1037.4 179.647 1037.63 179.601 1036.97 179.698C1035.25 179.95 1035.31 179.797 1033.94 178.795C1030.62 170.38 1037.29 102.178 1038.3 89.3566Z"/><path fill="#DFC289" d="M1074.04 459.825L1257.42 459.82C1258.39 465.934 1258.85 476.587 1264.19 480.63C1271.65 486.294 1302.23 485.191 1311.84 483.418C1316.4 482.576 1321.39 481.107 1324.09 477.042C1327.31 472.193 1327.89 465.401 1328.93 459.78L1354.54 459.872C1354.54 467.585 1354.28 476.178 1360.09 482.118C1364.13 486.238 1370.01 487.4 1375.57 487.29C1381.97 487.163 1388.22 485.462 1394.28 483.517C1405.29 488.02 1413.84 491.879 1425.51 486.949C1427.12 486.263 1428.72 485.55 1430.31 484.811C1435.74 488.673 1441.13 492.634 1446.77 496.203C1401.73 496.143 1356.37 497.988 1311.37 496.516C1290.41 497.504 1268.97 496.622 1247.95 496.647C1215.5 496.684 1182.99 497.222 1150.54 496.754C1125.14 498.297 1099.15 497.307 1073.69 497.359C1057.21 497.392 1037.24 498.628 1021.09 497.366L994.866 497.465L999.55 489.973L1005.06 480.931L1013.81 480.374C1019.41 485.052 1024.77 488.483 1032.37 487.898C1039.04 487.385 1044.42 484.282 1049.88 480.675C1055.98 480.945 1064.72 482.266 1069.68 477.93C1074.44 473.757 1073.94 466.283 1074.03 460.562L1074.04 459.825Z"/><path fill="#DAAA65" d="M1074.04 459.825L1257.42 459.82C1258.39 465.934 1258.85 476.587 1264.19 480.63C1271.65 486.294 1302.23 485.191 1311.84 483.418C1316.4 482.576 1321.39 481.107 1324.09 477.042C1327.31 472.193 1327.89 465.401 1328.93 459.78L1354.54 459.872C1354.54 467.585 1354.28 476.178 1360.09 482.118C1364.13 486.238 1370.01 487.4 1375.57 487.29C1381.97 487.163 1388.22 485.462 1394.28 483.517C1405.29 488.02 1413.84 491.879 1425.51 486.949C1427.12 486.263 1428.72 485.55 1430.31 484.811C1435.74 488.673 1441.13 492.634 1446.77 496.203C1401.73 496.143 1356.37 497.988 1311.37 496.516C1326.37 494.755 1348.69 495.91 1364.48 495.794C1362.11 494.699 1359.45 493.704 1357.33 492.145C1350.11 486.835 1350.26 477.994 1349 469.923C1344.06 469.778 1339.06 469.942 1334.11 469.962C1332.07 475.728 1330.31 482.126 1326.58 487.055C1322.57 492.349 1315.05 494.019 1308.77 494.786C1299.68 495.898 1268.35 495.742 1261.57 490.341C1255.37 485.393 1253.62 477.498 1252.81 470.013C1226.18 468.922 1198.95 469.944 1172.26 469.971C1141.9 470.002 1111.46 469.181 1081.11 469.832C1080.69 472.004 1080.19 474.161 1079.61 476.298C1075.05 493.063 1062.43 489.241 1049.28 492.709C1046.23 493.515 1043.34 495.361 1040.63 496.922L1111.12 496.426C1124.16 496.377 1137.56 495.688 1150.54 496.754C1125.14 498.297 1099.15 497.307 1073.69 497.359C1057.21 497.392 1037.24 498.628 1021.09 497.366L994.866 497.465L999.55 489.973L1005.06 480.931L1013.81 480.374C1019.41 485.052 1024.77 488.483 1032.37 487.898C1039.04 487.385 1044.42 484.282 1049.88 480.675C1055.98 480.945 1064.72 482.266 1069.68 477.93C1074.44 473.757 1073.94 466.283 1074.03 460.562L1074.04 459.825Z"/><path fill="#DFC289" d="M999.55 489.973C1003.67 490.428 1007.67 490.699 1011.82 490.669L1021.09 497.366L994.866 497.465L999.55 489.973Z"/><path fill="#DAAA65" d="M1425.27 331.812L1427.47 339.234C1435.8 375.813 1442.62 411.84 1442.98 449.532C1443.04 456.582 1443.63 465.351 1441.29 472.055C1438.73 479.368 1432.89 477.258 1427.01 478.716C1424.91 479.239 1422.85 480.637 1420.9 481.578C1412.63 485.551 1402.32 478.952 1394.69 476.208C1386.72 478.219 1375.3 482.996 1367.44 478.838C1364.64 477.357 1363.49 475.442 1362.69 472.473C1356.69 450.385 1370.45 381.758 1376.42 355.951C1377.92 349.465 1379.06 340.626 1382.23 334.926L1383.44 335.347C1398.73 339.095 1410.78 338.187 1425.27 331.812Z"/><path fill="#CF944C" d="M1425.27 331.812L1427.47 339.234C1423.2 340.523 1418.94 341.605 1414.57 342.544C1416.52 349.17 1417.69 356.08 1418.59 362.919C1420.34 376.34 1426.76 447.468 1422.26 454.967C1421.65 455.983 1421.11 455.8 1420.02 456.06C1417.98 455.43 1416.86 455.073 1416.18 452.789C1414.74 447.896 1416.01 440.188 1415.81 434.901C1415.33 421.625 1413.12 350.819 1407.59 344.055L1404.22 343.903C1398.21 347.365 1399.24 391.633 1393.49 400.955L1392.34 401.215C1385.61 391.684 1395.36 353.11 1395.49 339.965C1395.5 339.588 1394.17 339.191 1394.03 339.149C1390.01 337.953 1386.76 338.505 1383.44 335.347C1398.73 339.095 1410.78 338.187 1425.27 331.812Z"/><path fill="#DAAA65" d="M1009.01 321.741C1016.18 324.753 1022.91 326.928 1030.73 327.567C1034.14 327.846 1041.69 325.046 1044.03 326.601C1044.7 328.423 1045.5 330.279 1045.92 332.177C1054.38 355.958 1059.68 384.902 1063.18 409.916C1064.99 422.81 1071.81 463.543 1065.06 472.499C1060.78 475.681 1053.71 474.048 1048.7 473.59C1043.6 476.759 1037.86 480.807 1031.66 481.096C1024.74 481.419 1020.32 477.561 1015.43 473.237C1010.34 473.521 1005.28 473.491 1000.19 473.444C998.906 468.495 998.157 463.436 996.765 458.495C994.497 450.445 991.026 441.767 990.122 433.439C987.752 411.6 1000.72 352.909 1006.81 330.189L1009.01 321.741Z"/><path fill="#CF944C" d="M1009.01 321.741C1016.18 324.753 1022.91 326.928 1030.73 327.567C1034.14 327.846 1041.69 325.046 1044.03 326.601C1044.7 328.423 1045.5 330.279 1045.92 332.177C1042.79 332.776 1039.62 334.024 1036.57 334.987C1040.09 344.915 1045.32 382.947 1042.66 391.554C1041.35 393.096 1041.17 393.507 1039.16 394.074C1035.98 391.007 1034.24 358.629 1032.89 351.546C1031.55 344.477 1029.71 337.838 1026.5 331.356C1024.05 339.861 1022.32 375.929 1018.8 380.067C1017.05 379.914 1016.86 379.809 1015.46 378.738C1013.12 371.92 1017.17 342.997 1018.18 334.027C1014.36 332.856 1010.59 331.491 1006.81 330.189L1009.01 321.741Z"/><path fill="#A2632E" d="M1203.71 149.309L1221.11 149.33L1221.11 420.666C1221.51 427.279 1221.62 431.336 1225.72 436.809L1201.81 436.699C1204.58 430.278 1202.87 409.359 1202.84 401.009L1202.8 325.174C1202.81 310.959 1201.79 295.731 1203.64 281.674C1204.93 237.701 1203.82 193.312 1203.71 149.309Z"/><path fill="#834D21" d="M1201.81 436.699C1204.58 430.278 1202.87 409.359 1202.84 401.009L1202.8 325.174C1202.81 310.959 1201.79 295.731 1203.64 281.674C1204.13 306.196 1203.67 330.795 1203.68 355.326C1203.69 380.22 1204.14 405.195 1203.64 430.079L1220.88 429.857L1221.11 420.666C1221.51 427.279 1221.62 431.336 1225.72 436.809L1201.81 436.699Z"/><path fill="#B77336" d="M1258.54 434.504C1257.53 433.709 1256.99 433.082 1256.48 431.906C1254.9 428.3 1254.27 425.899 1255.74 422.091C1257.79 420.713 1259.1 421.308 1261.44 421.59C1268.97 421.653 1326.32 420.346 1329.64 422.654C1330.53 425.792 1329.38 430.122 1327.62 432.853C1327.11 433.658 1326.41 434.356 1325.72 435.014L1324.87 438.937L1324.22 444.753C1322.97 452.751 1322.45 466.305 1317.97 473.045C1316.57 475.147 1314.11 475.719 1311.77 476.239C1304.23 477.917 1274.64 479.029 1268.62 474.493C1264.42 471.319 1262.09 447.92 1261.18 442.078L1260.21 438.143C1259.91 436.932 1259.09 435.638 1258.54 434.504Z"/><path fill="#B77336" d="M1258.54 434.504C1257.53 433.709 1256.99 433.082 1256.48 431.906C1254.9 428.3 1254.27 425.899 1255.74 422.091C1257.79 420.713 1259.1 421.308 1261.44 421.59C1268.97 421.653 1326.32 420.346 1329.64 422.654C1330.53 425.792 1329.38 430.122 1327.62 432.853C1327.11 433.658 1326.41 434.356 1325.72 435.014L1324.87 438.937L1324.22 444.753C1319.13 442.681 1307.17 444.941 1301.32 445.225C1287.46 445.897 1274.79 444.706 1261.18 442.078L1260.21 438.143C1259.91 436.932 1259.09 435.638 1258.54 434.504Z"/><path fill="#935423" d="M1260.21 438.143C1262.61 437.291 1281.26 439.95 1285.62 440.052C1298.76 440.359 1311.76 439.031 1324.87 438.937L1324.22 444.753C1319.13 442.681 1307.17 444.941 1301.32 445.225C1287.46 445.897 1274.79 444.706 1261.18 442.078L1260.21 438.143Z"/><path fill="#834D21" d="M1258.54 434.504C1260.32 434.774 1262.16 434.966 1263.93 435.351C1283.61 437.655 1306.32 440.178 1325.72 435.014L1324.87 438.937C1311.76 439.031 1298.76 440.359 1285.62 440.052C1281.26 439.95 1262.61 437.291 1260.21 438.143C1259.91 436.932 1259.09 435.638 1258.54 434.504Z"/><path fill="#935423" d="M1258.54 434.504C1257.53 433.709 1256.99 433.082 1256.48 431.906C1254.9 428.3 1254.27 425.899 1255.74 422.091C1257.79 420.713 1259.1 421.308 1261.44 421.59C1262.58 425.795 1263.64 429.742 1263.87 434.12L1263.91 434.889C1263.92 435.043 1263.92 435.197 1263.93 435.351C1262.16 434.966 1260.32 434.774 1258.54 434.504Z"/><path fill="#DAAA65" d="M1109.46 104.064C1170.54 104.1 1231.73 103.278 1292.8 104.141C1293.2 108.011 1293.55 111.885 1293.86 115.763C1294.08 117.387 1294.31 118.716 1293.9 120.342C1292.02 121.129 1117.3 122.287 1109.18 120.524C1108.17 118.192 1108.79 115.609 1109.08 113.153L1109.46 104.064Z"/><path fill="#DFC289" d="M1109.08 113.153C1119.32 112.277 1129.8 112.816 1140.08 112.798C1160.56 112.663 1181.03 112.684 1201.51 112.862L1256.67 112.685C1266.85 112.682 1277.37 112.301 1287.52 113.206C1290.18 113.444 1291.74 114.219 1293.86 115.763C1294.08 117.387 1294.31 118.716 1293.9 120.342C1292.02 121.129 1117.3 122.287 1109.18 120.524C1108.17 118.192 1108.79 115.609 1109.08 113.153Z"/><path fill="#A2632E" d="M1107.92 128.008L1295.08 127.795C1295.75 132.717 1296.55 137.661 1297.01 142.605L1245.36 142.652C1238.56 143.274 1228.14 141.027 1222.27 144.426C1221.39 146.084 1221.27 147.478 1221.11 149.33L1203.71 149.309C1203.37 146.863 1203.47 145.475 1201.79 143.513C1199.43 142.947 1197.08 142.815 1194.67 142.642L1106.02 142.634C1106.79 137.763 1107.55 132.93 1107.92 128.008Z"/><path fill="#834D21" d="M1194.67 142.642C1211.39 142.367 1228.68 141.709 1245.36 142.652C1238.56 143.274 1228.14 141.027 1222.27 144.426C1221.39 146.084 1221.27 147.478 1221.11 149.33L1203.71 149.309C1203.37 146.863 1203.47 145.475 1201.79 143.513C1199.43 142.947 1197.08 142.815 1194.67 142.642Z"/><path fill="#A2632E" d="M1201.81 436.699L1225.72 436.809C1234.12 437.416 1242.59 437.259 1251.01 437.27C1254.14 442.373 1254.99 447.182 1255.9 453.003L1074.02 453.079C1073.95 447.824 1073.55 442.552 1073.27 437.304C1116.09 437.591 1158.98 436.739 1201.81 436.699Z"/><path fill="#A2632E" d="M1109.99 86.2726C1170.75 85.996 1231.51 86.0316 1292.26 86.3797C1292.29 89.47 1292.99 94.8507 1291.25 97.2808C1269.76 96.7892 1248.19 97.2069 1226.69 97.2448L1110.12 97.2785L1109.99 86.2726Z"/><path fill="#DAAA65" d="M1429.7 300.171C1430.81 300.837 1431.56 302.004 1432.12 303.132C1433.81 306.509 1433.93 309.742 1432.7 313.329C1430.46 319.871 1424.17 324.887 1418.05 327.573C1406.95 332.445 1395.46 332.222 1384.25 327.966C1383.91 327.744 1383.57 327.514 1383.24 327.277C1379.61 324.675 1377 320.283 1376.53 315.785C1376.35 314.027 1376.94 313.211 1377.95 311.875C1381.23 309.891 1385.11 311.731 1388.69 311.858C1401.53 312.311 1420.19 308.948 1429.7 300.171Z"/><path fill="#A2632E" d="M1067.19 272.712L1067.18 374.745C1067.3 379.045 1067.59 383.375 1066.86 387.635L1066.31 387.727C1065.93 386.021 1065.51 384.337 1065.32 382.594C1061.65 362.162 1056.05 341.779 1050.1 321.905C1052.22 319.061 1054.22 316.148 1055.39 312.77C1057.92 305.465 1056.9 298.932 1053.62 292.092C1058.71 286.032 1062.98 279.393 1067.19 272.712Z"/><path fill="#834D21" d="M1065.32 382.594C1066.96 380.359 1066.9 377.43 1067.18 374.745C1067.3 379.045 1067.59 383.375 1066.86 387.635L1066.31 387.727C1065.93 386.021 1065.51 384.337 1065.32 382.594Z"/><path fill="#DAAA65" d="M1005.9 293.121C1014.86 295.282 1023.85 297.217 1033.05 297.996C1037.69 298.388 1045.67 296.31 1049.31 298.511C1049.92 299.414 1050.48 300.336 1050.66 301.434C1051.52 306.779 1048.26 312.392 1045.11 316.373C1043.48 317.556 1041.83 318.747 1039.9 319.378C1031.79 322.016 1020.56 319.92 1013.15 316.094C1008.76 313.835 1004.58 310.253 1003.25 305.317C1001.94 300.465 1003.41 297.116 1005.9 293.121Z"/><path fill="#A2632E" d="M1360.59 295.976C1364.68 298.433 1369.17 303.713 1372.85 306.942C1371.95 309.714 1371.12 312.716 1370.9 315.631C1370.41 321.899 1372.42 326.033 1376.45 330.672C1371.8 347.977 1367.52 365.116 1364.34 382.765C1363.16 388.523 1362.03 394.292 1360.95 400.072C1359.88 387.33 1360.46 374.221 1360.46 361.423C1360.39 339.607 1360.44 317.791 1360.59 295.976Z"/><path fill="#5E843B" d="M1317.4 390.204C1323.49 389.831 1329.83 389.943 1334.61 394.296C1336.88 396.368 1338.26 399.176 1338.37 402.263C1338.49 405.561 1337.11 408.624 1334.78 410.919C1330.31 415.319 1325.96 415.017 1320.19 415.005C1312.27 415.149 1304.32 415.451 1296.41 414.974C1297.41 411.343 1298.48 407.573 1300.18 404.205C1304.03 396.58 1309.43 392.778 1317.4 390.204Z"/><path fill="#5E843B" d="M1261.19 394.008C1265.31 393.754 1269.58 393.354 1273.67 394.037C1279.42 394.995 1284.47 397.407 1287.87 402.281C1290.23 405.666 1292.1 410.254 1291.32 414.401C1288.78 415.607 1284.07 415.106 1281.19 415.143C1273.48 415.239 1264.32 416.167 1256.89 413.821C1253.99 412.906 1251.03 411.26 1249.71 408.374C1248.79 406.346 1248.71 403.509 1249.6 401.458C1251.53 397.001 1256.99 395.427 1261.19 394.008Z"/><path fill="#5E843B" d="M1311.13 309.217C1313.87 309.415 1316.74 309.578 1319.34 310.531C1322.91 311.844 1326.01 314.837 1327.57 318.302C1328.99 321.467 1329.17 325.252 1327.77 328.454C1325.95 332.607 1322.55 335.271 1318.38 336.782C1314.2 336.863 1310.01 336.519 1305.84 336.252C1304.23 331.439 1302.46 327.989 1299.09 324.145C1299.92 321.287 1300.75 318.108 1302.18 315.486C1304.27 311.662 1307.18 310.35 1311.13 309.217Z"/><path fill="#5E843B" d="M1305.65 340.543C1307.95 340.825 1310.24 341.214 1312.5 341.708C1316.02 342.509 1318.87 345.011 1320.7 348.085C1322.62 351.319 1323.18 355.426 1322 359.023C1320.33 364.073 1316.4 366.806 1311.86 369.021C1308.81 369.18 1305.11 369.201 1302.33 367.826C1297.16 365.272 1295.9 358.703 1294.28 353.675C1299.76 349.817 1302.36 346.385 1305.65 340.543Z"/><path fill="#A2632E" d="M963.332 91.2587C963.301 88.1679 963.529 84.9865 965.064 82.2368C966.797 79.1328 969.793 76.5404 973.327 75.8064C975.861 75.2803 978.371 75.7922 980.516 77.2333C983.849 79.4723 985.047 83.1663 985.871 86.8666C985.653 92.8952 985.727 98.5169 980.747 102.839C978.795 104.534 976.426 105.429 973.829 105.186C971.015 104.922 968.647 103.157 966.998 100.94C964.903 98.1231 963.91 94.6792 963.332 91.2587Z"/><path fill="#935423" d="M963.332 91.2587C972.54 92.7015 977.714 90.7218 985.871 86.8666C985.653 92.8952 985.727 98.5169 980.747 102.839C978.795 104.534 976.426 105.429 973.829 105.186C971.015 104.922 968.647 103.157 966.998 100.94C964.903 98.1231 963.91 94.6792 963.332 91.2587Z"/><path fill="#A2632E" d="M1455.61 89.6334C1455.61 86.9805 1455.65 84.0793 1456.6 81.5689C1457.48 79.2426 1459.11 77.2239 1461.43 76.222C1463.66 75.2564 1465.95 75.48 1468.15 76.4132C1473.04 78.4864 1474.89 82.6046 1476.71 87.2037C1476.58 92.2215 1476.04 97.5107 1472.29 101.275C1470.6 102.971 1468.34 104.087 1465.91 103.921C1463.2 103.737 1460.67 102.005 1459.07 99.8782C1456.94 97.0355 1456.26 93.0568 1455.61 89.6334Z"/><path fill="#834D21" d="M1476.71 87.2037C1476.58 92.2215 1476.04 97.5107 1472.29 101.275C1470.6 102.971 1468.34 104.087 1465.91 103.921C1463.2 103.737 1460.67 102.005 1459.07 99.8782C1456.94 97.0355 1456.26 93.0568 1455.61 89.6334C1461.65 89.9793 1469.87 92.0639 1475.58 89.9291L1476.71 87.2037Z"/><path fill="#5E843B" d="M1272.32 347.047C1275.55 347.775 1277.3 351.28 1280.16 352.905C1283.37 354.728 1287.92 353.861 1290.37 356.834C1291.04 358.402 1291.23 359.496 1290.84 361.19C1289.79 365.793 1286.99 369.366 1283.04 371.821C1281.02 372.51 1278.45 373.107 1276.29 372.937C1273.06 372.681 1269.71 370.974 1267.67 368.446C1265.42 365.648 1264.63 362.053 1265.02 358.525C1265.61 353.269 1268.48 350.247 1272.32 347.047Z"/><path fill="#5E843B" d="M1281.63 299.36C1283.93 299.259 1286.27 299.119 1288.51 299.84C1293.26 301.374 1295.2 305.639 1297.25 309.765C1296.56 313.792 1295.42 317.787 1294.44 321.754C1291.41 321.835 1288.4 322.065 1285.38 322.288C1283.05 323.468 1280.85 324.939 1278.62 326.314C1275.83 320.824 1272.27 313.873 1274.01 307.54C1275.14 303.434 1278.11 301.286 1281.63 299.36Z"/><path fill="#5E843B" d="M1261.88 323.454C1268.07 323.835 1270.99 325.816 1275.26 330.121C1273.92 333.858 1272.91 337.363 1272.29 341.286C1269.64 343.174 1266.8 344.792 1264.01 346.459C1261.34 346.051 1258.61 345.593 1256.2 344.311C1253.31 342.773 1250.86 339.822 1250.13 336.604C1249.56 334.169 1250.02 331.61 1251.39 329.518C1253.84 325.725 1257.74 324.452 1261.88 323.454Z"/><path fill="#A2632E" d="M1332.2 437.404L1355.33 437.263C1355.23 441.209 1355.72 450.013 1353.6 453.023L1329.49 453.032C1330.31 447.802 1331.13 442.59 1332.2 437.404Z"/><path fill="#DAAA65" d="M1287.85 327.894C1289.4 327.875 1290.89 327.94 1292.4 328.356C1294.82 329.025 1296.98 330.509 1298.14 332.792C1299.31 335.11 1299.11 337.749 1298.29 340.154C1296.81 344.529 1293.76 346.583 1289.91 348.608C1288.71 348.578 1287.41 348.584 1286.24 348.326C1283.61 347.748 1281.01 346.254 1279.64 343.875C1278.39 341.722 1278.37 339.191 1279.04 336.847C1280.38 332.14 1283.79 329.992 1287.85 327.894Z"/><path fill="#A2632E" d="M1446.47 84.9867C1446.84 85.1322 1447.35 85.304 1447.66 85.5486C1450.12 87.475 1449.56 94.739 1449.56 97.5848L1447.47 95.9416C1446.02 92.3872 1445.9 88.7433 1446.47 84.9867Z"/><path fill="#472F11" d="M761.598 136.479C767.814 129.955 774.931 124.396 781.14 117.925C784.347 114.583 787.348 109.077 791.509 107.015C793.165 106.195 794.714 105.889 796.454 106.678C800.361 108.449 802.993 115.037 804.394 118.753C811.583 123.942 818.087 130.5 824.68 136.434C835.187 136.36 871.431 134.235 878.967 138.734C881.92 140.496 882.642 142.84 883.364 145.975C885.458 146.834 886.785 146.986 887.718 149.232C889.658 153.906 890.68 323.637 889.712 342.681C889.483 347.194 889.102 351.664 887.133 355.799C885.031 360.215 881.256 364.6 876.555 366.187C872.894 367.422 868.923 367.892 865.081 368.083C836.72 369.496 807.776 368.207 779.344 368.186C757.886 368.17 735.612 369.686 714.257 368.11C710.108 367.804 705.632 367.126 701.94 365.082C697.897 362.844 695.228 358.094 694.171 353.709C691.3 341.804 693.153 298.573 693.192 284.196C693.299 245.113 691.837 205.519 693.821 166.491C694.12 160.612 694.696 154.026 696.199 148.323L697.31 147.867L696.821 147.224L696.458 147.601L697.429 147.54C698.62 150.063 698.234 152.384 698.969 154.937C699.129 150.152 698.795 143.556 702.385 139.912C708.701 133.5 751.153 136.394 761.598 136.479Z"/><path fill="#DAAA65" d="M883.364 145.975C885.458 146.834 886.785 146.986 887.718 149.232C889.658 153.906 890.68 323.637 889.712 342.681C889.483 347.194 889.102 351.664 887.133 355.799C885.031 360.215 881.256 364.6 876.555 366.187C872.894 367.422 868.923 367.892 865.081 368.083C836.72 369.496 807.776 368.207 779.344 368.186C757.886 368.17 735.612 369.686 714.257 368.11C710.108 367.804 705.632 367.126 701.94 365.082C697.897 362.844 695.228 358.094 694.171 353.709C691.3 341.804 693.153 298.573 693.192 284.196C693.299 245.113 691.837 205.519 693.821 166.491C694.12 160.612 694.696 154.026 696.199 148.323L697.31 147.867L696.821 147.224L696.458 147.601L697.429 147.54C698.62 150.063 698.234 152.384 698.969 154.937C700.617 161.952 699.308 181.833 699.302 189.818L699.164 291.808C699.14 309.052 698.079 327.057 699.363 344.227C699.571 347.005 699.954 352.067 701.96 354.177C705.565 357.971 713.528 358.708 718.417 358.756L811.834 358.757C830.386 358.836 850.702 360.257 869.041 358.669C872.488 358.37 877.235 357.901 879.698 355.215C882.378 352.293 882.847 347.64 883.151 343.867C884.829 323.009 883.343 299.024 883.322 277.885L883.364 145.975Z"/><path fill="#472F11" d="M853.898 142.663C859.111 142.351 870.844 140.443 874.923 143.899C875.549 144.429 876.106 145.007 876.649 145.621C878.483 173.631 877.072 202.461 877.055 230.571C877.031 268.673 877.962 307.043 876.699 345.111C876.748 347.56 876.894 349.028 875.014 350.876C874.865 351.022 874.696 351.147 874.537 351.283C865.123 352.992 854.53 352.123 844.963 352.099L797.511 352.016L741.364 351.953C730.829 351.938 719.027 353.039 708.738 350.964C708.266 350.771 708.491 350.881 707.946 350.552C706.128 349.454 706.307 349.239 705.804 347.196C705.328 303.405 705.771 259.573 705.744 215.777L705.706 173.256C705.706 163.829 705.269 154.083 706.537 144.734L710.745 143.056C724.291 142.481 738.035 142.959 751.6 142.956C785.668 142.948 819.849 143.43 853.898 142.663Z"/><path fill="#A2632E" d="M706.537 144.734L710.745 143.056C714.499 147.834 718.523 151.679 722.845 155.907C720.428 158.345 720.658 159.182 719.815 162.42C717.814 177.077 719.227 197.313 719.195 212.55C719.14 239.12 718.244 265.98 719.132 292.522C719.967 300.607 717.91 334.148 720.092 337.93C717.753 342.156 709.632 346.763 708.738 350.964C708.266 350.771 708.491 350.881 707.946 350.552C706.128 349.454 706.307 349.239 705.804 347.196C705.328 303.405 705.771 259.573 705.744 215.777L705.706 173.256C705.706 163.829 705.269 154.083 706.537 144.734Z"/><path fill="#834D21" d="M718.609 334.839C718.687 320.862 718.023 306.437 719.132 292.522C719.967 300.607 717.91 334.148 720.092 337.93C717.753 342.156 709.632 346.763 708.738 350.964C708.266 350.771 708.491 350.881 707.946 350.552C706.128 349.454 706.307 349.239 705.804 347.196C709.707 346.469 715.878 337.932 718.609 334.839Z"/><path fill="#834D21" d="M706.537 144.734L710.745 143.056C714.499 147.834 718.523 151.679 722.845 155.907C720.428 158.345 720.658 159.182 719.815 162.42C719.584 156.007 710.789 149.141 706.537 144.734Z"/><path fill="#A2632E" d="M876.649 145.621C878.483 173.631 877.072 202.461 877.055 230.571C877.031 268.673 877.962 307.043 876.699 345.111C873.504 344.422 867.024 337.181 864.194 334.659C862.729 320.525 863.968 304.056 863.971 289.723L864.005 207.958C864.013 191.267 864.536 174.417 863.52 157.759C867.873 155.461 872.882 149.06 876.649 145.621Z"/><path fill="#A2632E" d="M864.194 334.659C867.024 337.181 873.504 344.422 876.699 345.111C876.748 347.56 876.894 349.028 875.014 350.876C874.865 351.022 874.696 351.147 874.537 351.283C865.123 352.992 854.53 352.123 844.963 352.099L797.511 352.016L741.364 351.953C730.829 351.938 719.027 353.039 708.738 350.964C709.632 346.763 717.753 342.156 720.092 337.93C729.336 337.246 738.843 337.849 748.113 337.987C763.394 338.212 778.677 338.331 793.959 338.344L840.434 338.032C847.582 337.965 855.191 337.302 862.28 337.879L864.194 334.659Z"/><path fill="#834D21" d="M864.194 334.659C867.024 337.181 873.504 344.422 876.699 345.111C876.748 347.56 876.894 349.028 875.014 350.876C874.865 351.022 874.696 351.147 874.537 351.283C871.486 346.145 866.584 341.986 862.28 337.879L864.194 334.659Z"/><path fill="#A2632E" d="M853.898 142.663C859.111 142.351 870.844 140.443 874.923 143.899C875.549 144.429 876.106 145.007 876.649 145.621C872.882 149.06 867.873 155.461 863.52 157.759C862.043 156.61 860.506 156.617 858.693 156.431C849.735 157.2 840.464 156.8 831.478 156.775L777.619 156.293C761.731 156.186 737.811 157.711 722.845 155.907C718.523 151.679 714.499 147.834 710.745 143.056C724.291 142.481 738.035 142.959 751.6 142.956C785.668 142.948 819.849 143.43 853.898 142.663Z"/><path fill="#834D21" d="M853.898 142.663C859.111 142.351 870.844 140.443 874.923 143.899C875.549 144.429 876.106 145.007 876.649 145.621C872.882 149.06 867.873 155.461 863.52 157.759C862.043 156.61 860.506 156.617 858.693 156.431C864.173 154.02 869.252 147.409 873.334 143.106C866.848 143.058 860.378 143.007 853.898 142.663Z"/><path fill="#8AD1DD" d="M725.906 163.129L857.393 163.423L857.377 265.927C857.358 283.336 858.471 301.573 857.104 318.892C858.48 321.438 858.956 325.881 858.069 328.662C858.017 328.826 857.95 328.983 857.89 329.144L857.458 330.987C853.681 333.024 847.633 332.22 843.4 332.109L838.726 331.983C831.267 331.637 823.688 331.96 816.216 332.019C822.152 319.211 825.837 306.453 830.743 293.352C831.133 290.696 832.232 289.309 833.962 287.371L833.64 286.422C823.531 256.182 852.96 202.244 816.069 183.174C806.21 178.077 794.457 177.66 784.003 181.201C775.72 184.007 769.076 189.675 765.216 197.541C761.813 204.476 760.56 212.427 759.213 219.968L758.567 220.714C752.043 228.176 736.662 233.179 737.264 244.366C737.423 247.309 738.397 249.89 740.694 251.824C748.542 258.432 764.349 255.972 773.93 255.568C775.921 274.259 772.852 287.852 760.92 302.728C753.463 312.025 745.734 320.101 741.554 331.549L725.831 331.503L725.906 163.129Z"/><path fill="#213119" d="M833.962 287.371C835.937 291.449 837.832 295.91 840.443 299.617C845.345 306.577 852.17 311.87 857.104 318.892C858.48 321.438 858.956 325.881 858.069 328.662C858.017 328.826 857.95 328.983 857.89 329.144L857.458 330.987C853.681 333.024 847.633 332.22 843.4 332.109L838.726 331.983C831.267 331.637 823.688 331.96 816.216 332.019C822.152 319.211 825.837 306.453 830.743 293.352C831.133 290.696 832.232 289.309 833.962 287.371Z"/><path fill="#5A4236" d="M830.743 293.352C836.755 306.676 842.112 317.038 838.726 331.983C831.267 331.637 823.688 331.96 816.216 332.019C822.152 319.211 825.837 306.453 830.743 293.352Z"/><path fill="#5A4236" d="M843.4 332.109C844.638 324.748 844.913 318.708 843.691 311.303C849.101 316.756 853.475 322.881 857.89 329.144L857.458 330.987C853.681 333.024 847.633 332.22 843.4 332.109Z"/><path fill="#EFECD9" d="M766.866 216.668C768.577 207.189 770.659 197.431 779.053 191.507C785.853 186.707 796.128 184.829 804.27 186.24C811.544 187.502 818.352 191.304 822.583 197.445C834.028 214.052 826.813 240.075 825.582 258.676C824.897 269.014 825.325 279.375 824.806 289.703C814.927 297.178 804.399 302.598 792.956 307.294C787.296 302.162 781.675 297 777.014 290.909C780.887 280.658 780.922 270.757 780.753 259.986C780.427 257.808 780.303 255.565 780.09 253.371L777.889 248.037C769.093 249.563 751.904 251.869 744.405 246.616C743.63 245.314 743.037 244.626 743.486 243.077C745.053 237.675 754.43 233.131 758.993 230.167C760.609 223.774 765.645 224.13 766.866 216.668Z"/><path fill="#CF944C" d="M758.993 230.167C765.146 226.117 774.55 218.5 782.401 219.906C785.514 220.464 787.676 222.409 789.336 225.01C791.071 227.729 795.724 240.126 796.332 243.26C790.336 245.607 784.234 246.996 777.889 248.037C769.093 249.563 751.904 251.869 744.405 246.616C743.63 245.314 743.037 244.626 743.486 243.077C745.053 237.675 754.43 233.131 758.993 230.167Z"/><path fill="#B77336" d="M780.781 228.692C782.561 228.844 783.405 229.117 784.466 230.694C785.576 232.345 785.237 233.699 784.991 235.52C783.915 236.58 783.709 236.797 782.261 237.161C780.191 237.806 777.839 238.385 775.776 237.579L775.202 236.254C776.35 232.786 778.358 231.296 780.781 228.692Z"/><path fill="#935423" d="M780.781 228.692C782.561 228.844 783.405 229.117 784.466 230.694C785.576 232.345 785.237 233.699 784.991 235.52C783.915 236.58 783.709 236.797 782.261 237.161C781.939 233.652 782.335 232.059 780.781 228.692Z"/><path fill="#935423" d="M766.866 216.668C771.894 215.228 782.01 211.305 786.941 214.107C792.886 217.485 802.228 237.301 803.38 243.979C803.892 246.945 803.551 249.786 801.799 252.298C798.404 257.166 791.247 258.849 785.718 259.641C784.067 259.877 782.418 259.959 780.753 259.986C780.427 257.808 780.303 255.565 780.09 253.371L777.889 248.037C784.234 246.996 790.336 245.607 796.332 243.26C795.724 240.126 791.071 227.729 789.336 225.01C787.676 222.409 785.514 220.464 782.401 219.906C774.55 218.5 765.146 226.117 758.993 230.167C760.609 223.774 765.645 224.13 766.866 216.668Z"/><path fill="#993220" d="M777.889 248.037C784.234 246.996 790.336 245.607 796.332 243.26L797.723 247.376C793.492 249.689 788.913 251.806 784.288 253.179L780.09 253.371L777.889 248.037Z"/><path fill="#CF944C" d="M797.723 247.376C797.579 248.618 797.708 248.825 796.746 249.63C794.35 251.639 788.189 253.694 785.053 253.301C784.797 253.269 784.543 253.22 784.288 253.179C788.913 251.806 793.492 249.689 797.723 247.376Z"/><path fill="#472F11" d="M805.529 209.532C806.28 209.929 807.058 210.355 807.694 210.925C809.485 212.53 810.32 215.291 810.347 217.63C810.391 221.376 809.044 223.983 806.476 226.553C805.757 226.098 805.037 225.628 804.399 225.061C802.692 223.544 801.902 220.736 801.858 218.528C801.786 214.926 803.165 212.137 805.529 209.532Z"/><path fill="#DFC289" d="M822.569 297.813L823.065 298.347C822.79 305.093 818.408 315.907 815.146 321.919C813.668 324.644 812.098 326.872 809.019 327.802C806.633 327.155 805.817 326.071 804.084 324.38C801.136 320.364 798.851 315.92 796.461 311.559C805.441 307.366 814.175 303.112 822.569 297.813Z"/><path fill="#EFECD9" d="M775.508 297.049C779.965 301.891 784.857 306.238 789.735 310.645L782.099 323.548C781.14 324.986 780.1 326.873 778.717 327.928C777.42 328.917 776.998 328.7 775.503 328.456C775.073 327.954 774.889 327.802 774.591 327.258C771.503 321.633 773.785 303.349 775.508 297.049Z"/><path fill="#DFC289" d="M792.267 314.848C796.222 318.933 799.797 327.35 803.36 332.438L793.875 332.398L781.76 332.265C785.786 326.969 788.938 320.623 792.267 314.848Z"/><path fill="#5A4236" d="M767.759 303.729C769.416 306.607 767.728 327.058 768.031 332.135L758.49 332.198L757.704 331.198C757.904 322.232 763.445 311.425 767.759 303.729Z"/><path fill="#5A4236" d="M755.677 316.583C755.192 320.733 754.817 327.49 751.997 330.764C750.668 332.306 748.401 331.961 746.479 332.081C746.465 331.839 746.441 331.596 746.437 331.353C746.366 327.103 752.732 319.491 755.677 316.583Z"/><path fill="#DAAA65" d="M785.954 124.334C791.559 126.453 795.082 126.654 801.05 125.909C805.494 129.175 809.479 132.561 813.431 136.407L803.33 136.465L772.759 136.447C777.05 132.255 781.324 128.154 785.954 124.334Z"/><path fill="#472F11" d="M413.087 217.307C413.125 214.05 413.203 211.489 415.168 208.741C417.119 206.011 420.174 203.903 423.549 203.497C426.54 203.138 429.448 204.117 431.734 206.055C435.47 209.222 435.832 212.911 436.114 217.441C451.308 221.948 463.222 230.636 471.622 244.163C484.608 265.074 486.693 292.861 481.147 316.467C484.638 326.566 478.574 337.024 474.181 346.037C467.584 359.572 456.215 371.73 441.738 376.77C429.055 381.295 415.073 380.437 403.039 374.394C390.007 367.899 378.672 356.774 374.056 342.732C372.8 338.913 371.834 335.514 372.978 331.524C372.813 331.137 372.642 330.752 372.497 330.357C363.783 306.682 364.94 275.098 375.371 252.243C383.43 234.584 395.16 224.049 413.087 217.307Z"/><path fill="#DAAA65" d="M481.147 316.467C484.638 326.566 478.574 337.024 474.181 346.037C467.584 359.572 456.215 371.73 441.738 376.77C429.055 381.295 415.073 380.437 403.039 374.394C390.007 367.899 378.672 356.774 374.056 342.732C372.8 338.913 371.834 335.514 372.978 331.524C374.863 336.018 376.78 340.411 379.313 344.59C387.003 357.281 399.076 367.625 413.741 371.072C426.283 374.144 439.537 371.914 450.383 364.906C466.799 354.369 477.085 335.143 481.147 316.467Z"/><path fill="#834D21" d="M419.755 223.009C429.187 222.089 438.059 223.563 446.448 228.107C460.233 235.574 469.582 249.501 473.99 264.272C481.102 288.109 478.945 315.707 466.942 337.586C459.3 351.516 448.143 361.273 432.793 365.654C420.574 367.118 409.262 364.546 399.198 357.32C385.3 347.341 377.473 330.502 374.72 313.985C370.794 290.44 372.9 263.12 387.285 243.316C395.496 232.012 406.006 225.276 419.755 223.009Z"/><path fill="#472F11" d="M419.127 233.434C428.082 232.837 436.665 234.66 444.406 239.278C456.438 246.456 464.213 259.269 467.505 272.642C472.349 292.32 469.307 316.713 458.566 334.065C451.953 344.747 442.896 351.839 430.678 354.756C422.384 356.288 413.816 354.755 406.567 350.442C393.893 342.828 386.149 327.145 382.901 313.209C378.209 293.075 380.856 270.018 392.071 252.451C398.497 242.385 407.449 235.965 419.127 233.434Z"/><path fill="#A2632E" d="M419.902 238.67C425.632 238.155 431.402 239.002 436.743 241.141C447.386 245.483 455.433 255.25 459.797 265.663C467.407 283.82 465.215 305.818 457.931 323.625C456.124 321.669 453.964 319.59 452.718 317.223C444.76 302.098 455.205 281.444 444.95 266.297C441.365 261.002 435.446 258.044 429.285 256.876C424.783 256.023 419.889 256.685 416.129 259.448C410.573 263.529 409.844 269.617 408.734 275.898C408.575 276.841 408.396 277.778 408.145 278.702C406.605 284.37 401.729 285.356 397.186 288C394.979 289.284 392.261 291.763 391.861 294.399C391.565 296.354 392.338 297.913 393.579 299.378C398.195 304.828 406.744 305.745 413.309 306.144C414.801 317.979 411.275 332.226 405.815 342.608C397.501 335.205 392.038 325.189 388.779 314.622C383.232 296.64 385.249 275.667 394.26 259.115C400.253 248.107 407.98 242.119 419.902 238.67Z"/><path fill="#EFECD9" d="M413.494 280.466C414.027 274.786 414.579 267.639 419.468 263.844C422.54 261.46 427.499 261.288 431.217 261.965C435.268 262.703 438.469 264.91 440.705 268.336C452.795 286.853 436.597 311.663 455.976 328.17C449.479 337.799 442.06 346.726 430.005 348.943C422.97 350.237 416.432 348.781 409.904 346.137C413.748 335.715 417.531 325.28 417.85 314.038C417.839 311.066 417.526 308.178 417.186 305.23C416.809 304.462 416.414 303.664 415.874 302.995C414.938 301.835 413.638 301.737 412.249 301.657C410.231 301.542 408.386 301.277 406.399 300.925C404.377 300.13 402.401 299.04 400.44 298.097L398.975 296.634C397.562 290.247 411.709 287.322 413.494 280.466Z"/><path fill="#B77336" d="M413.494 280.466L416.213 280.325C418.732 279.981 420.51 280.003 422.615 281.586C426.226 284.3 428.767 289.947 429.22 294.354C426.277 299.29 422.626 303.009 417.186 305.23C416.809 304.462 416.414 303.664 415.874 302.995C414.938 301.835 413.638 301.737 412.249 301.657C410.231 301.542 408.386 301.277 406.399 300.925C404.377 300.13 402.401 299.04 400.44 298.097L398.975 296.634C397.562 290.247 411.709 287.322 413.494 280.466Z"/><path fill="#935423" d="M416.213 280.325C418.732 279.981 420.51 280.003 422.615 281.586C426.226 284.3 428.767 289.947 429.22 294.354C426.277 299.29 422.626 303.009 417.186 305.23C416.809 304.462 416.414 303.664 415.874 302.995C414.938 301.835 413.638 301.737 412.249 301.657C410.231 301.542 408.386 301.277 406.399 300.925C410.146 301.001 414.181 301.328 417.741 299.949C420.433 298.906 423.204 296.882 424.314 294.131C425.072 292.252 425.036 290.259 424.115 288.445C423.171 286.586 421.548 285.548 419.572 285.016C416.773 284.263 414.836 285.624 412.49 286.949C413.04 284.101 415.074 282.929 416.213 280.325Z"/><path fill="#834D21" d="M413.494 280.466L416.213 280.325C415.074 282.929 413.04 284.101 412.49 286.949C408.99 291.279 403.559 293.342 400.44 298.097L398.975 296.634C397.562 290.247 411.709 287.322 413.494 280.466Z"/><path fill="#DFC289" d="M429.22 294.354C430.535 295.654 431.422 296.02 431.396 298.031C431.34 302.327 426.841 306.862 423.858 309.575C422.881 310.464 421.939 310.934 420.744 311.435C420.095 311.707 419.462 311.997 418.808 312.261L417.85 314.038C417.839 311.066 417.526 308.178 417.186 305.23C422.626 303.009 426.277 299.29 429.22 294.354Z"/><path fill="#472F11" d="M429.552 273.16C431.835 274.08 432.424 274.724 433.625 276.77C433.848 279.104 433.319 280.631 432.451 282.781C430.633 282.13 430.099 281.755 428.967 280.191C428.189 277.666 428.903 275.612 429.552 273.16Z"/><path fill="#834D21" d="M423.7 209.725C426.16 210.32 427.746 211.176 429.085 213.347C428.69 215.403 428.445 215.282 426.803 216.419C425.706 216.364 424.571 216.34 423.485 216.171C421.806 215.91 421.242 215.66 420.248 214.299C420.685 212.225 422.218 211.107 423.7 209.725Z"/><path fill="#472F11" d="M552.584 191.947C552.771 193.738 552.559 196.053 553.987 197.264C556.024 198.993 560.442 199.024 562.971 198.456C563.597 198.315 563.651 198.254 564.14 197.997C575.354 198.448 601.308 194.706 609.258 202.922C612.88 206.666 613.142 211.157 612.898 216.047C612.767 218.8 612.237 221.52 611.324 224.12L611.294 231.082C611.995 231.754 612.675 232.235 613.501 232.742L613.083 233.424C607.193 243.115 605.204 255.412 600.522 265.877L604.913 266.985C609.259 266.991 613.172 266.581 616.452 269.959C620.578 274.207 619.938 280.123 619.653 285.526C619.531 287.84 619.52 290.276 618.999 292.539C619.597 296.022 619.173 299.147 617.128 302.12C615.25 304.849 612.495 305.943 609.329 306.436C602.721 307.466 595.433 306.895 588.744 306.862C575.325 306.795 561.863 306.483 548.45 306.829C547.452 314.333 545.33 319.793 539.091 324.501C535.864 326.936 531.675 328.776 527.562 328.278C523.724 327.813 520.202 325.073 517.995 321.986C515.291 318.205 515.053 312.816 513.059 308.635C511.695 305.773 508.411 303.159 507.63 300.245C507.082 298.196 507.557 295.256 507.719 293.135C507.349 292.078 507.019 291.004 506.798 289.905C505.662 284.253 504.671 275.449 508.201 270.534C510.134 267.842 512.652 267.374 515.692 266.893C517.521 266.666 520.128 266.7 521.579 265.496C518.322 256.962 509.097 235.764 509.246 227.547C507.604 224.999 506.393 222.512 505.827 219.516C504.825 214.21 505.587 207.266 508.863 202.812C515.195 194.205 541.098 199.3 551.531 197.795C552.656 196.222 552.429 193.872 552.584 191.947Z"/><path fill="#DAAA65" d="M618.999 292.539C619.597 296.022 619.173 299.147 617.128 302.12C615.25 304.849 612.495 305.943 609.329 306.436C602.721 307.466 595.433 306.895 588.744 306.862C575.325 306.795 561.863 306.483 548.45 306.829C547.452 314.333 545.33 319.793 539.091 324.501C535.864 326.936 531.675 328.776 527.562 328.278C523.724 327.813 520.202 325.073 517.995 321.986C515.291 318.205 515.053 312.816 513.059 308.635C511.695 305.773 508.411 303.159 507.63 300.245C507.082 298.196 507.557 295.256 507.719 293.135C507.79 293.197 507.861 293.259 507.931 293.322C510.567 295.751 511.491 295.585 514.654 296.654C519.138 298.169 518.127 312.486 521.546 318.011C522.759 319.972 524.218 321.652 526.585 322.06C529.968 322.642 534.641 320.481 537.221 318.284C542.508 313.781 542.514 303.574 543.157 297.226C562.21 297.16 581.263 297.214 600.315 297.389C607.538 297.389 613.597 297.934 618.999 292.539Z"/><path fill="#DAAA65" d="M611.324 224.12L611.294 231.082C611.995 231.754 612.675 232.235 613.501 232.742L613.083 233.424C607.193 243.115 605.204 255.412 600.522 265.877L604.913 266.985L590.407 266.98C600.019 256.387 602.516 243.418 604.67 229.781C607.224 228.057 609.262 226.424 611.324 224.12Z"/><path fill="#DAAA65" d="M509.246 227.547C511.09 228.592 512.918 229.662 514.733 230.757C517.963 243.63 519.253 255.759 527.106 267.021C523.31 266.985 519.483 267.053 515.692 266.893C517.521 266.666 520.128 266.7 521.579 265.496C518.322 256.962 509.097 235.764 509.246 227.547Z"/><path fill="#B77336" d="M517.148 223.628C515.223 222.91 513.739 222.219 512.801 220.282C511.467 217.529 512.091 211.717 513.287 208.99C513.9 207.593 514.975 206.161 516.432 205.579C521.17 203.687 597.134 203.841 602.247 205.955C605.293 208.614 606.13 212.017 606.392 215.917C606.529 217.97 606.002 219.724 604.515 221.19C603.244 222.444 601.329 223.202 599.622 223.649L599.3 225.726L597.992 233.425C594.842 247.412 591.924 258.705 579.248 266.895C569.517 267.089 542.334 269.588 534.977 264.463C526.027 258.228 523.698 242.767 521.866 232.704L520.789 226.425C519.721 225.151 518.57 224.466 517.148 223.628Z"/><path fill="#B77336" d="M521.866 232.704C544.57 235.768 573.76 231.667 597.992 233.425C594.842 247.412 591.924 258.705 579.248 266.895C569.517 267.089 542.334 269.588 534.977 264.463C526.027 258.228 523.698 242.767 521.866 232.704Z"/><path fill="#935423" d="M520.789 226.425C528.585 223.932 587.116 225.73 599.3 225.726L597.992 233.425C573.76 231.667 544.57 235.768 521.866 232.704L520.789 226.425Z"/><path fill="#834D21" d="M517.148 223.628L572.207 223.29C580.97 223.238 591.035 222.283 599.622 223.649L599.3 225.726C587.116 225.73 528.585 223.932 520.789 226.425C519.721 225.151 518.57 224.466 517.148 223.628Z"/><path fill="#A2632E" d="M513.875 274.004C531.989 272.902 550.738 273.824 568.912 273.772C581.449 273.737 595.643 272.398 608.019 273.95C609.704 274.161 610.607 274.259 611.623 275.718C614.053 279.205 612.872 286.333 612.203 290.326C579.509 290.655 546.148 291.548 513.51 290.043C513.055 285.314 511.881 278.439 513.875 274.004Z"/><path fill="#834D21" d="M524.149 297.138L537.174 297.157C536.607 302.158 535.975 306.875 534.182 311.613C533.365 312.408 532.118 313.411 531.038 313.786C529.162 314.437 528.285 313.854 526.722 312.966C523.574 308.479 524.169 302.379 524.149 297.138Z"/><path fill="#213119" d="M551.896 157.397C552.032 151.678 553.768 132.924 550.962 128.775C544.887 124.308 534.697 124.806 527.553 122.936C511.271 118.674 497.789 104.317 495.283 87.541C494.685 83.536 494.8 77.74 497.489 74.4991C500.605 70.7441 506.529 69.8643 511.118 69.7066C522.325 69.2577 533.234 73.3872 541.336 81.146C548.796 88.1501 552.654 96.8861 556.858 105.984C561.7 93.5285 567.908 83.3773 580.63 77.7504C586.763 75.0381 595.189 72.4033 601.796 74.9483C605.116 76.2271 607.381 78.8043 608.72 82.0451C612.681 91.6295 608.628 106.753 604.506 115.696C598.252 129.298 586.822 139.834 572.76 144.961C568.461 146.541 563.927 147.499 559.415 148.234C559.431 160.006 559.186 171.863 559.619 183.624C567.254 168.636 576.281 153.739 593.227 148.224C602.026 145.36 611.441 145.811 619.699 150.084C628.499 154.638 637.091 163.243 639.963 172.908C640.783 175.668 641.041 178.738 639.526 181.317C637.378 184.974 632.613 186.434 628.702 187.209C613.54 190.213 584.848 182.718 574.302 188.161C569.812 190.479 567.119 194.054 564.14 197.997C563.651 198.254 563.597 198.315 562.971 198.456C560.442 199.024 556.024 198.993 553.987 197.264C552.559 196.053 552.771 193.738 552.584 191.947C552.133 188.266 552.089 184.65 552.086 180.945L551.613 180.137C548.995 175.713 546.07 172.593 540.876 171.256C524.987 167.168 486.646 194.309 476.205 176.464C473.088 171.135 473.453 164.661 475.161 158.939C478.455 147.907 486.634 137.855 496.833 132.499C505.565 127.914 516.212 126.634 525.664 129.656C537.534 133.452 544.883 143.207 550.236 153.928C550.818 155.07 551.371 156.227 551.896 157.397Z"/><path fill="#5E843B" d="M532.821 163.949C517.58 166.912 502.362 176.778 486.409 174.884C484.186 174.62 482.422 174.037 481.175 172.082C479.732 169.819 480.397 165.914 481.004 163.426C483.403 153.589 489.938 144.294 498.694 139.133C505.384 135.19 513.902 133.096 521.553 135.099C530.488 137.438 536.747 144.473 541.296 152.126C544.864 156.774 547.131 162.436 550.413 167.323C544.303 164.999 539.326 164.123 532.821 163.949Z"/><path fill="#40652C" d="M532.821 163.949C533.961 163.729 533.54 163.763 534.547 163.722C535.845 163.669 537.073 163.673 538.33 163.299C539.516 162.945 539.362 162.691 539.936 161.674C539.852 161.384 539.782 161.089 539.685 160.803C538.964 158.667 536.688 157.075 534.908 155.821C521.805 146.594 517.693 153.7 511.513 150.743L511.5 149.675C513.037 147.856 514.885 146.402 517.152 145.606C522.112 143.866 535.023 150.345 539.586 152.721L541.296 152.126C544.864 156.774 547.131 162.436 550.413 167.323C544.303 164.999 539.326 164.123 532.821 163.949Z"/><path fill="#5E843B" d="M559.726 126.84C562.306 112.036 564.44 96.2878 577.74 86.9681C582.846 83.3897 591.831 79.5714 598.216 80.4902C599.882 80.7299 600.719 81.3772 601.536 82.7882C604.954 88.6953 602.735 100.902 600.813 107.033C596.999 119.459 588.316 129.811 576.744 135.725C573.328 137.497 569.7 138.835 566.04 139.999C564.57 140.514 563.3 140.77 561.753 140.925C561.29 140.573 561.077 140.452 560.713 140.05C558.235 137.307 559.43 130.257 559.726 126.84Z"/><path fill="#40652C" d="M559.726 126.84L560.845 129.274L561.984 129.157C564.909 125.078 567.456 115.317 572.048 113.62C573.613 114.461 573.703 114.582 574.517 116.168C573.931 124.26 564.88 130.96 565.339 139.388L566.04 139.999C564.57 140.514 563.3 140.77 561.753 140.925C561.29 140.573 561.077 140.452 560.713 140.05C558.235 137.307 559.43 130.257 559.726 126.84Z"/><path fill="#5E843B" d="M545.5 119.479C536.169 118.172 526.663 116.708 518.493 111.687C510.255 106.625 504.98 98.523 502.875 89.1455C502.151 85.9225 500.926 81.271 502.789 78.3754C507.111 75.6239 514.853 75.7978 519.766 76.7463C531.047 78.9242 538.404 86.8534 544.579 95.9407C547.996 101.365 554.545 112.872 553.193 119.439C552.961 120.567 552.752 120.486 551.919 121.152C549.782 120.589 547.649 119.996 545.5 119.479Z"/><path fill="#40652C" d="M544.579 95.9407C547.996 101.365 554.545 112.872 553.193 119.439C552.961 120.567 552.752 120.486 551.919 121.152C549.782 120.589 547.649 119.996 545.5 119.479C545.687 111.594 544.355 103.839 544.579 95.9407Z"/><path fill="#5E843B" d="M576.179 169.379C582.438 161.06 589.736 155.225 600.341 153.772C608.902 152.599 616.642 155.253 623.35 160.545C627.46 163.787 633.136 169.245 633.561 174.823C633.662 176.151 633.336 177.011 632.768 178.185C626.403 183.322 613.192 181.868 605.509 181.053C593.74 179.805 583.952 177.84 572.406 181.884C570.594 183.411 567.963 184.493 565.866 185.637C568.917 180.119 572.167 174.26 576.179 169.379Z"/><path fill="#40652C" d="M576.179 169.379C582.381 170.624 589.31 162.881 596.509 163.512C596.479 164.726 596.434 164.721 595.521 165.596C591.202 169.736 573.241 176.279 572.423 181.363C572.395 181.534 572.411 181.71 572.406 181.884C570.594 183.411 567.963 184.493 565.866 185.637C568.917 180.119 572.167 174.26 576.179 169.379Z"/><path fill="#834D21" d="M332.389 493.419C332.929 501.982 332.752 510.61 332.75 519.187C427.175 520.271 521.747 519.171 616.203 519.18L1180.14 519.218L1420.19 519.129L1492.41 519.113C1506.81 519.113 1521.69 518.35 1536 520.018L1536 526.07L1536 552.667L1536 567.137L1536 741.76L1536 748.912L333.005 748.743L332.981 742.016L332.87 604.118C331.019 589.211 332.547 572.573 332.478 557.482C332.382 536.418 330.912 514.428 332.389 493.419Z"/><path fill="#A2632E" d="M1536 526.07L1536 552.667L765.309 552.633L496.842 552.56L398.002 552.697C376.406 552.715 354.752 553.046 333.172 552.169C333.046 543.446 333.104 534.715 333.09 525.991C382.225 527.248 431.571 526.102 480.734 526.118L769.008 526.129L1536 526.07Z"/><path fill="#A2632E" d="M333.099 566.468C343.089 567.364 353.409 566.911 363.44 566.906C380.619 566.845 397.798 566.879 414.976 567.009L414.801 672.384C414.762 695.491 415.159 718.692 414.604 741.79C387.415 741.84 360.159 741.423 332.981 742.016L332.87 604.118C333.674 591.643 333.121 578.971 333.099 566.468Z"/><path fill="#A2632E" d="M1485.91 566.9C1502.61 567.134 1519.3 567.213 1536 567.137L1536 741.76C1519.3 742.063 1502.57 741.953 1485.86 742.02C1485.36 724.626 1486.11 707.012 1486.08 689.595L1485.91 566.9Z"/><path fill="#A2632E" d="M421.531 634.479C420.225 626.511 419.427 565.904 422.59 561.679C423.335 560.685 424.945 560.087 426.149 559.945C433.24 559.111 437.971 565.432 442.399 560.663C447.945 559.685 454.423 560.27 460.069 560.265C472.503 560.272 484.936 560.347 497.369 560.489C498.831 575.535 498.403 590.677 498.362 605.776L498.109 673.818L498.354 719.571C498.358 726.618 499.14 735.034 497.69 741.876L422.085 741.909C420.328 706.236 422.241 670.225 421.531 634.479Z"/><path fill="#935423" d="M421.531 634.479C420.225 626.511 419.427 565.904 422.59 561.679C423.335 560.685 424.945 560.087 426.149 559.945C433.24 559.111 437.971 565.432 442.399 560.663C447.945 559.685 454.423 560.27 460.069 560.265C472.503 560.272 484.936 560.347 497.369 560.489C498.831 575.535 498.403 590.677 498.362 605.776L498.109 673.818L498.354 719.571C498.358 726.618 499.14 735.034 497.69 741.876C495.963 729.59 497.177 705.085 497.156 691.481L497.384 567.069C472.226 567.214 447.067 567.23 421.909 567.117C421.336 582.673 421.908 598.356 422.004 613.925C422.042 620.168 422.944 628.474 421.531 634.479Z"/><path fill="#834D21" d="M442.845 668.482C445.86 671.913 446.29 678.679 446.222 683.039C446.163 686.844 446.142 689.956 443.229 692.744C441.118 691.004 440.396 688.868 439.808 686.279C438.381 679.991 439.379 673.87 442.845 668.482Z"/><path fill="#A2632E" d="M1105.53 634.479C1104.22 626.499 1103.44 565.807 1106.59 561.666C1107.34 560.674 1108.96 560.091 1110.17 559.953C1117.29 559.136 1121.98 565.422 1126.4 560.66C1131.86 559.695 1138.23 560.266 1143.79 560.261C1156.32 560.269 1168.84 560.343 1181.37 560.483C1182.91 576.245 1182.4 592.176 1182.36 607.999L1182.11 679.215L1182.35 721.465C1182.35 727.956 1183.02 735.556 1181.7 741.878L1106.08 741.909C1104.52 706.195 1106.24 670.249 1105.53 634.479Z"/><path fill="#935423" d="M1105.53 634.479C1104.22 626.499 1103.44 565.807 1106.59 561.666C1107.34 560.674 1108.96 560.091 1110.17 559.953C1117.29 559.136 1121.98 565.422 1126.4 560.66C1131.86 559.695 1138.23 560.266 1143.79 560.261C1156.32 560.269 1168.84 560.343 1181.37 560.483C1182.91 576.245 1182.4 592.176 1182.36 607.999L1182.11 679.215L1182.35 721.465C1182.35 727.956 1183.02 735.556 1181.7 741.878C1179.9 730.14 1181.17 705.408 1181.15 692.55L1181.39 567.068C1156.23 567.212 1131.07 567.228 1105.91 567.118C1105.34 582.674 1105.91 598.356 1106 613.925C1106.04 620.168 1106.94 628.474 1105.53 634.479Z"/><path fill="#834D21" d="M1126.85 668.481C1130 672.072 1130.36 679.312 1130.2 683.863C1130.08 687.448 1130 690.114 1127.22 692.711C1125.13 690.984 1124.39 688.849 1123.81 686.28C1122.38 679.993 1123.38 673.867 1126.85 668.481Z"/><path fill="#A2632E" d="M731.894 652.982C729.4 643.148 731.051 629.778 731.01 619.591C730.959 606.626 730.4 593.652 730.648 580.688C730.742 575.765 730.09 563.774 733.584 560.412C738.843 558.603 744.987 561.636 750.106 563.013C750.718 562.09 751.329 561.335 752.105 560.545C767.891 560.097 791.173 558.908 806.534 560.773C807.924 562.875 807.608 564.803 807.713 567.277C808.191 625.413 808.302 683.772 807.658 741.897L732.027 741.901C731.628 712.298 732.722 682.552 731.894 652.982Z"/><path fill="#935423" d="M731.894 652.982C729.4 643.148 731.051 629.778 731.01 619.591C730.959 606.626 730.4 593.652 730.648 580.688C730.742 575.765 730.09 563.774 733.584 560.412C738.843 558.603 744.987 561.636 750.106 563.013C750.718 562.09 751.329 561.335 752.105 560.545C767.891 560.097 791.173 558.908 806.534 560.773C807.924 562.875 807.608 564.803 807.713 567.277C782.524 566.513 757.148 567.112 731.939 567.112C731.766 595.62 733.11 624.532 731.894 652.982Z"/><path fill="#834D21" d="M752.792 668.343C755.711 671.956 756.307 678.098 756.281 682.597C756.256 687.032 756.192 689.524 752.999 692.731C751.243 690.979 750.471 688.998 749.894 686.629C748.296 680.065 749.388 674.079 752.792 668.343Z"/><path fill="#A2632E" d="M648.64 566.852C674.144 567.191 699.698 566.906 725.209 567.005C726.113 593.967 725.021 621.458 724.834 648.447C724.622 679.094 725.209 709.784 724.51 740.421L724.182 741.169C719.237 743.387 660.377 741.624 648.895 741.983C647.634 683.706 648.632 625.156 648.64 566.852Z"/><path fill="#A2632E" d="M958.517 631.284C957.06 612.599 956.249 590.54 957.662 571.971C957.809 570.047 958.333 562.4 960.099 561.303C962.909 559.556 1023.24 559.787 1028.89 561.199C1030.03 562.816 1029.65 565.478 1029.65 567.402C1030.25 598.875 1029.82 630.427 1029.8 661.91C1029.78 688.519 1030.3 715.246 1029.57 741.835C1006.06 741.918 982.51 742.25 959.007 741.959C957.679 705.183 958.815 668.105 958.517 631.284Z"/><path fill="#935423" d="M958.517 631.284C957.06 612.599 956.249 590.54 957.662 571.971C957.809 570.047 958.333 562.4 960.099 561.303C962.909 559.556 1023.24 559.787 1028.89 561.199C1030.03 562.816 1029.65 565.478 1029.65 567.402C1006.11 567.144 982.578 567.072 959.045 567.186C958.379 581.898 958.963 596.724 959.026 611.452C959.053 617.831 959.645 625.025 958.517 631.284Z"/><path fill="#935423" d="M979.845 668.494C982.633 671.823 983.126 677.656 983.185 681.83C983.242 685.859 983.281 689.812 980.306 692.853C978.048 691.074 977.245 688.41 976.693 685.674C975.467 679.604 976.441 673.633 979.845 668.494Z"/><path fill="#A2632E" d="M1332.65 614.824C1332.54 614.411 1332.39 613.891 1332.31 613.456C1331 606.024 1330.7 566.369 1334.29 561.171C1335.8 560.88 1337.33 560.681 1338.87 560.576C1345.77 560.14 1400.29 559.29 1403.07 561.737C1404.59 567.389 1404.54 574.326 1403.97 580.114L1403.78 681.705C1403.77 701.738 1404.18 721.824 1403.39 741.843C1379.89 741.908 1356.36 742.217 1332.86 741.957L1332.65 614.824Z"/><path fill="#935423" d="M1332.65 614.824C1332.54 614.411 1332.39 613.891 1332.31 613.456C1331 606.024 1330.7 566.369 1334.29 561.171C1335.8 560.88 1337.33 560.681 1338.87 560.576C1345.77 560.14 1400.29 559.29 1403.07 561.737C1404.59 567.389 1404.54 574.326 1403.97 580.114C1403.56 575.85 1403.41 571.629 1403.34 567.346C1379.85 567.164 1356.37 567.11 1332.88 567.183C1332.8 582.897 1333.83 599.208 1332.65 614.824Z"/><path fill="#935423" d="M1353.42 668.839C1353.75 669.098 1353.94 669.237 1354.27 669.543C1356.67 671.813 1357.04 677.29 1357.16 680.438C1357.35 685.529 1357.27 689.264 1353.77 693.052C1352.57 691.68 1351.84 689.69 1351.3 687.952C1349.27 681.301 1350.18 674.876 1353.42 668.839Z"/><path fill="#A2632E" d="M1410.82 567.119C1410.77 564.996 1410.74 563.201 1411.33 561.137C1414.15 559.318 1470.66 560.38 1476.7 561.147C1478.05 562.394 1478.2 565.544 1478.54 567.328C1480.52 576.041 1479.14 608.383 1479.13 619.983C1479.11 660.573 1479.61 701.246 1479.03 741.825L1410.84 741.934L1410.66 629.675C1410.66 608.901 1410.01 587.86 1410.82 567.119Z"/><path fill="#935423" d="M1410.82 567.119C1410.77 564.996 1410.74 563.201 1411.33 561.137C1414.15 559.318 1470.66 560.38 1476.7 561.147C1478.05 562.394 1478.2 565.544 1478.54 567.328L1410.82 567.119Z"/><path fill="#A2632E" d="M575.862 567.214C575.972 564.809 575.684 562.815 576.986 560.748C583.316 559.667 637.276 559.359 641.426 561.594C642.316 566.181 642.725 570.724 642.892 575.384C643.39 589.212 644.278 699.955 641.957 706.293C641.314 718.04 642.014 730.04 641.669 741.841L576.065 741.923C575.366 716.183 575.908 690.288 575.897 664.531C575.697 632.092 575.685 599.653 575.862 567.214Z"/><path fill="#935423" d="M575.862 567.214C575.972 564.809 575.684 562.815 576.986 560.748C583.316 559.667 637.276 559.359 641.426 561.594C642.316 566.181 642.725 570.724 642.892 575.384C643.39 589.212 644.278 699.955 641.957 706.293C640.284 695.9 641.639 675.551 641.669 663.853L641.879 567.288L575.862 567.214Z"/><path fill="#A2632E" d="M504.784 560.564C523.747 561.376 549.677 558.278 567.795 560.839C569.102 562.491 568.785 565.15 568.832 567.183L568.88 697.172C568.942 712.042 568.503 726.989 568.871 741.845C547.354 741.979 525.837 741.985 504.32 741.863L504.13 626.59C504.091 608.771 504.575 590.78 503.92 572.98C503.281 568.981 504.263 564.559 504.784 560.564Z"/><path fill="#935423" d="M504.784 560.564C523.747 561.376 549.677 558.278 567.795 560.839C569.102 562.491 568.785 565.15 568.832 567.183L528.563 567.073C521.061 567.057 512.774 566.324 505.396 567.625C504.553 569.425 504.23 571.023 503.92 572.98C503.281 568.981 504.263 564.559 504.784 560.564Z"/><path fill="#935423" d="M533.277 628.415C535.195 629.214 536.609 630.063 537.532 632.01C540.215 637.666 539.234 650.322 537.089 656.105L536.105 656.107C535.029 655.509 534.473 655.023 533.927 653.891C531.124 648.081 531.279 634.587 533.277 628.415Z"/><path fill="#A2632E" d="M814.466 567.198C814.595 564.881 814.253 562.819 815.693 560.951C828.16 559.031 841.664 560.545 854.282 560.55C861.917 560.554 869.896 559.699 877.462 560.689C878.771 561.823 878.797 562.398 878.924 564.14C879.001 565.197 878.963 566.278 878.949 567.337L878.903 741.835C857.46 741.988 836.016 742 814.573 741.87L814.466 567.198Z"/><path fill="#935423" d="M814.466 567.198C814.595 564.881 814.253 562.819 815.693 560.951C828.16 559.031 841.664 560.545 854.282 560.55C861.917 560.554 869.896 559.699 877.462 560.689C878.771 561.823 878.797 562.398 878.924 564.14C879.001 565.197 878.963 566.278 878.949 567.337C871.899 566.532 864.112 567.121 856.981 567.128L814.466 567.198Z"/><path fill="#935423" d="M843.388 628.414C844.05 628.706 844.693 628.979 845.294 629.387C847.012 630.552 847.79 632.253 848.166 634.236C849.256 639.993 849.77 651.797 846.447 656.685C844.847 655.85 844.144 654.395 843.521 652.765C841.39 647.191 840.905 633.924 843.388 628.414Z"/><path fill="#A2632E" d="M1188.56 567.157C1188.55 564.956 1188.21 562.771 1189.59 560.929C1200.03 559.663 1241.62 559.247 1251.84 560.895C1252.99 562.993 1252.84 564.867 1252.83 567.187L1252.87 741.845C1231.44 741.986 1210.01 741.999 1188.59 741.883C1188.75 683.663 1187.66 625.363 1188.56 567.157Z"/><path fill="#935423" d="M1188.56 567.157C1188.55 564.956 1188.21 562.771 1189.59 560.929C1200.03 559.663 1241.62 559.247 1251.84 560.895C1252.99 562.993 1252.84 564.867 1252.83 567.187L1188.56 567.157Z"/><path fill="#935423" d="M1217.28 628.412C1219.2 629.214 1220.61 630.066 1221.53 632.01C1224.22 637.668 1223.23 650.321 1221.09 656.105L1220.3 656.118C1219.07 655.435 1218.77 655.329 1218.11 654.086C1215.08 648.347 1215.27 634.621 1217.28 628.412Z"/><path fill="#A2632E" d="M1259.92 566.9L1326.08 567.086L1325.96 674.266C1325.96 696.735 1326.34 719.288 1325.65 741.743C1303.82 742.316 1281.91 741.937 1260.07 741.923C1259.43 683.699 1258.84 625.114 1259.92 566.9Z"/><path fill="#A2632E" d="M885.762 566.914L951.905 567.093C952.385 588.8 951.898 610.61 951.878 632.33L951.669 741.834L886.023 741.914C885.02 720.714 885.781 699.111 885.756 677.867L885.762 566.914Z"/><path fill="#A2632E" d="M1036.73 566.925L1098.96 567.027C1099.57 588.771 1098.91 610.706 1098.86 632.474L1098.61 741.782L1036.88 741.927C1036.26 718.851 1036.62 695.702 1036.62 672.615L1036.73 566.925Z"/><path fill="#A2632E" d="M0 226.165C15.1808 183.631 44.5765 148.102 85.8945 128.52C127.501 108.801 179.748 105.99 223.062 121.657C261.539 135.574 297.645 164.369 315.202 201.862C322.506 217.653 327.456 234.43 329.894 251.658C334.126 282.75 332.264 318.521 332.316 350.16C332.394 397.89 333.019 445.697 332.389 493.419C330.912 514.428 332.382 536.418 332.478 557.482C332.547 572.573 331.019 589.211 332.87 604.118L332.981 742.016L333.005 748.743L1536 748.912L1536 776.365L1536 783.982L0 783.959L0 776.42L0 282.444L0 226.165Z"/><defs><linearGradient id="gradient_0" gradientUnits="userSpaceOnUse" x1="4.0249805" y1="477.28976" x2="307.49908" y2="445.27679"><stop offset="0" stop-color="#804A1F"/><stop offset="1" stop-color="#9E602D"/></linearGradient></defs><path fill="url(#gradient_0)" d="M96.3824 174.162C125.769 156.143 162.29 152.318 195.513 160.255C217.555 165.521 243.719 178.919 257.732 197.223C281.019 219.501 291.018 258.034 291.7 289.237C292.349 318.979 291.859 348.808 291.983 378.561L292.263 606.283L292.289 685.395C292.308 700.246 291.819 715.369 292.732 730.184C295.081 729.344 297.395 728.417 299.864 728.007C301.368 732.779 298.655 746.112 296.468 750.696C296.102 751.464 295.706 751.956 295.158 752.601L293.916 752.453L292.252 749.059L174.24 749.002C155.62 748.991 102.131 746.72 87.4889 751.748L88.6981 359.331L88.9566 253.448C89.0527 232.778 90.127 211.549 88.5601 190.943C61.995 214.487 45.1818 244.046 42.983 279.937C41.2747 307.82 42.6803 336.478 42.6568 364.446L42.6428 537.116L42.8106 696.198L42.8487 745.495C42.7895 755.752 42.1356 766.286 42.9527 776.511C41.6922 776.555 40.4223 776.611 39.1609 776.581C37.0583 776.532 36.2544 776.052 34.8179 774.568C32.8087 764.036 34.407 739.851 34.4639 728.125L34.5194 631.499L34.9618 426.979L34.9229 349.819C34.8467 328.383 34.4573 306.894 35.2832 285.469C35.6407 273.793 37.3031 262.194 40.2394 250.889C48.2517 220.772 69.1776 190.015 96.3824 174.162Z"/><path fill="#A2632E" d="M163.404 164.796C184.157 165.235 206.444 169.815 224.82 179.872C225.412 229.172 224.855 278.538 224.84 327.846L224.769 579.766L224.753 682.774C224.738 694.098 223.201 716.108 225.182 726.053C224.568 726.764 223.924 727.424 223.281 728.108C219.294 732.346 219.982 736.128 220.131 741.545C210.795 741.608 171.11 743.336 165.076 740.841C161.831 731.158 163.664 674.638 163.662 660.115L163.649 453.064L163.681 385.851C163.688 373.712 164.21 361.373 163.461 349.269C163.994 324.138 163.632 298.938 163.612 273.8L163.404 164.796Z"/><path fill="#935423" d="M194.544 176.54C196.279 177.124 197.448 178.341 198.212 179.993C200.986 186 198.041 193.475 196.004 199.271L195.234 200.046L193.983 199.781C191.503 194.53 193.032 182.165 194.544 176.54Z"/><path fill="#A2632E" d="M96.1811 184.788C116.522 170.834 132.119 166.457 156.732 164.45L156.56 315.727L156.514 358.511C156.5 366.333 156.03 374.52 156.732 382.3C155.309 387.46 156.414 400.673 156.414 406.656L156.476 472.469L156.48 741.638L96.1774 741.954C95.1337 705.523 96.0318 668.787 96.0252 632.327L95.99 420.296L95.9726 264.962C95.9665 238.417 94.7543 211.276 96.1811 184.788Z"/><path fill="#935423" d="M126.714 226.922C127.534 227.474 128.233 228.189 128.96 228.856C132.123 237.966 130.206 250.031 128.015 259.229L126.87 258.631C126.123 257.557 125.683 256.659 125.386 255.385C123.711 248.183 122.664 233.433 126.714 226.922Z"/><path fill="#935423" d="M96.3824 174.162C125.769 156.143 162.29 152.318 195.513 160.255C217.555 165.521 243.719 178.919 257.732 197.223C248.46 193.112 239.925 179.557 225.75 174.151L225.787 726.355L225.448 726.643L225.182 726.053C223.201 716.108 224.738 694.098 224.753 682.774L224.769 579.766L224.84 327.846C224.855 278.538 225.412 229.172 224.82 179.872C206.444 169.815 184.157 165.235 163.404 164.796L163.612 273.8C163.632 298.938 163.994 324.138 163.461 349.269C163.415 349.081 163.364 348.895 163.322 348.706C161.24 339.416 162.703 320.623 162.706 310.537L162.754 208.739C162.758 193.476 163.712 177.589 162.869 162.414C162.781 160.829 162.715 159.179 161.622 157.941L158.292 157.834C156.384 160.963 157.442 314.555 157.487 332.234C157.514 343.008 159.267 373.746 156.732 382.3C156.03 374.52 156.5 366.333 156.514 358.511L156.56 315.727L156.732 164.45C132.119 166.457 116.522 170.834 96.1811 184.788C96.412 181.272 96.332 177.688 96.3824 174.162Z"/><path fill="#472F11" d="M231.501 461.735C230.225 452.404 229.744 445.426 235.731 437.36C239.084 432.842 243.934 429.874 249.511 429.056C255.95 428.112 262.613 429.625 267.822 433.585C273.626 437.997 277.211 444.818 278.031 452.023C278.774 458.551 277.224 464.156 274.356 469.948L275.432 471.896C275.431 475.28 272.546 479.154 270.145 481.513C265.465 486.111 259.434 488.025 252.963 487.97C241.97 487.877 239.298 482.107 232.472 474.899C232.352 474.773 232.24 474.641 232.124 474.512C230.321 492.483 231.725 511.875 231.747 529.991L231.771 637.197C231.778 646.861 233.088 674.168 231.373 682.102C229.855 678.221 230.968 510.391 230.987 492.277C230.955 485.614 231.03 478.951 231.211 472.291C231.317 468.9 232.036 466.01 231.611 462.592L231.501 461.735Z"/><path fill="#935423" d="M231.501 461.735C234.82 469.408 238.712 475.579 246.86 478.759C252.5 480.975 258.795 480.822 264.321 478.336C268.616 476.438 271.504 473.599 274.356 469.948L275.432 471.896C275.431 475.28 272.546 479.154 270.145 481.513C265.465 486.111 259.434 488.025 252.963 487.97C241.97 487.877 239.298 482.107 232.472 474.899C232.352 474.773 232.24 474.641 232.124 474.512C230.321 492.483 231.725 511.875 231.747 529.991L231.771 637.197C231.778 646.861 233.088 674.168 231.373 682.102C229.855 678.221 230.968 510.391 230.987 492.277C230.955 485.614 231.03 478.951 231.211 472.291C231.317 468.9 232.036 466.01 231.611 462.592L231.501 461.735Z"/><path fill="#A2632E" d="M239.119 461.496C237.202 456.935 236.85 451.829 238.379 447.099C239.738 442.831 242.756 439.29 246.754 437.272C250.596 435.372 255.052 435.15 259.064 436.657C265.612 439.074 268.561 444.316 271.209 450.347C271.865 456.104 270.881 461.704 267.147 466.297C264.247 469.864 260.018 472.257 255.412 472.643C251.304 472.991 247.232 471.642 244.143 468.909C241.716 466.764 240.488 464.362 239.119 461.496Z"/><path fill="#834D21" d="M271.209 450.347C271.865 456.104 270.881 461.704 267.147 466.297C264.247 469.864 260.018 472.257 255.412 472.643C251.304 472.991 247.232 471.642 244.143 468.909C241.716 466.764 240.488 464.362 239.119 461.496C242.199 462.759 245.292 463.963 248.65 464.145C255.049 464.491 262.743 463.239 267.498 458.598C270.087 456.071 271.182 453.971 271.209 450.347Z"/><path fill="#A2632E" d="M1536 748.912L1536 776.365L332.349 776.469C332.468 767.224 332.965 757.998 333.005 748.743L1536 748.912Z"/><path fill="#472F11" d="M0 226.165C15.1808 183.631 44.5765 148.102 85.8945 128.52C127.501 108.801 179.748 105.99 223.062 121.657C261.539 135.574 297.645 164.369 315.202 201.862C322.506 217.653 327.456 234.43 329.894 251.658C334.126 282.75 332.264 318.521 332.316 350.16C332.394 397.89 333.019 445.697 332.389 493.419C330.912 514.428 332.382 536.418 332.478 557.482C332.547 572.573 331.019 589.211 332.87 604.118L332.981 742.016L333.005 748.743C332.965 757.998 332.468 767.224 332.349 776.469L1536 776.365L1536 783.982L0 783.959L0 776.42C9.22286 776.486 18.446 776.503 27.669 776.471L27.835 427.588L27.7901 331.157C27.7778 309.16 26.6316 286.314 29.8263 264.509C32.9202 241.951 41.6153 220.529 55.1174 202.198C75.4951 174.228 104.309 155.539 138.755 150.228C175.643 144.541 216.156 153.216 246.319 175.504C269.997 193.001 286.205 219.351 293.645 247.577C300.696 274.324 299.288 301.63 299.307 329.028L299.339 403.376L299.449 640.268L299.269 698.168C299.239 707.514 298.263 718.172 299.746 727.348C299.782 727.568 299.825 727.787 299.864 728.007C297.395 728.417 295.081 729.344 292.732 730.184C291.819 715.369 292.308 700.246 292.289 685.395L292.263 606.283L291.983 378.561C291.859 348.808 292.349 318.979 291.7 289.237C291.018 258.034 281.019 219.501 257.732 197.223C243.719 178.919 217.555 165.521 195.513 160.255C162.29 152.318 125.769 156.143 96.3824 174.162C69.1776 190.015 48.2517 220.772 40.2394 250.889C37.3031 262.194 35.6407 273.793 35.2832 285.469C34.4573 306.894 34.8467 328.383 34.9229 349.819L34.9618 426.979L34.5194 631.499L34.4639 728.125C34.407 739.851 32.8087 764.036 34.8179 774.568C36.2544 776.052 37.0583 776.532 39.1609 776.581C40.4223 776.611 41.6922 776.555 42.9527 776.511C73.0348 775.543 318.376 778.627 322.933 775.388C323.805 773.588 324.087 771.922 324.301 769.953C324.991 763.584 324.692 756.951 324.882 750.536C325.299 730.488 325.4 710.436 325.185 690.385L324.927 542.817L324.778 359.488L324.703 303.825C324.636 287.521 324.838 271.02 322.511 254.85C318.564 227.426 309.204 201.108 291.609 179.435C264.044 145.77 224.256 124.413 180.971 120.049C136.592 115.094 92.0837 128.183 57.4479 156.375C27.5223 180.78 7.65296 214.04 2.03834 252.392C0.569319 262.426 1.00387 272.41 0 282.444L0 226.165Z"/><path fill="#935423" d="M65.0323 610.191C65.2541 610.306 65.485 610.405 65.6979 610.535C67.2473 611.486 67.8787 612.608 68.3766 614.304C70.4663 621.425 70.3736 635.227 66.8499 641.867C65.5637 641.667 65.1226 641.22 64.2009 640.331C61.8033 632.68 61.2752 617.515 65.0323 610.191Z"/><path fill="#935423" d="M66.937 287.85C67.1803 288.084 67.4595 288.286 67.6668 288.553C71.4196 293.379 70.8501 305.141 68.7294 310.448C67.8835 309.011 67.0092 307.533 66.3833 305.983C64.0011 300.087 64.4492 293.59 66.937 287.85Z"/><path fill="#A2632E" d="M0 959.343L1031.46 959.419L1364.74 959.305L1474.81 959.103C1495.15 959.052 1515.69 958.404 1536 959.19L1536 966.136L1536 1024L0 1024L0 965.494L0 959.343Z"/><path fill="#935423" d="M0 959.343L1031.46 959.419L1364.74 959.305L1474.81 959.103C1495.15 959.052 1515.69 958.404 1536 959.19L1536 966.136L527.746 965.782L186.234 965.88L65.9935 965.795C44.2414 965.804 21.6485 967.188 0 965.494L0 959.343Z"/><path fill="#B77336" d="M30.6803 899.385C43.2392 900.903 55.8971 899.075 68.4973 898.829C88.5202 898.612 108.545 898.585 128.568 898.749L350.694 900.286C363.6 896.735 385.604 898.88 399.342 899.111C416.848 899.423 434.356 899.618 451.865 899.695L707.642 899.743L1266.77 898.85L1437.55 899.017C1470.21 898.993 1503.41 897.655 1536 899.355L1536 959.19C1515.69 958.404 1495.15 959.052 1474.81 959.103L1364.74 959.305L1031.46 959.419L0 959.343L0 939.814L0 934.663L0 898.782C10.0908 898.731 20.6693 898.074 30.6803 899.385Z"/><path fill="#A2632E" d="M30.6803 899.385C43.2392 900.903 55.8971 899.075 68.4973 898.829C88.5202 898.612 108.545 898.585 128.568 898.749L350.694 900.286C344.077 903.703 337.502 907.146 331.62 911.762C325.355 916.676 319.845 922.415 312.892 926.422C302.681 932.307 289.465 938.697 278.177 941.907C257.404 947.814 226.727 948.06 205.341 944.979C198.525 943.997 191.839 942.039 185.198 940.264C185.067 944.379 185.048 948.519 182.454 951.977C180.545 954.522 177.125 955.855 174.024 956.09C153.95 957.612 96.2326 932.831 72.7401 926.247C66.1727 924.406 58.9174 925.644 52.4783 923.19C47.7055 921.371 42.8236 917.76 38.9873 914.46C33.777 909.979 31.1436 906.365 30.6803 899.385Z"/><path fill="#A2632E" d="M0 934.663C11.4827 935.281 26.4262 931.28 37.209 935.548C38.3267 936.917 38.2058 936.893 38.0687 938.673C36.0131 941.025 33.5249 941.376 30.5544 941.603C20.5777 942.365 9.91478 941.036 0 939.814L0 934.663Z"/><path fill="#B77336" d="M0 783.959L1536 783.982L1536 791.612L1536 831.811C1488 831.077 1439.87 831.919 1391.86 831.934L1092.73 831.942L0 831.816L0 790.717L0 783.959Z"/><path fill="#A2632E" d="M0 783.959L1536 783.982L1536 791.612C1518.56 789.697 1499.8 790.819 1482.22 790.792L1382.62 790.73L1055.9 790.746L0 790.717L0 783.959Z"/><path fill="#A2632E" d="M1509.65 810.395C1512.51 810.232 1515.55 810.368 1518.27 811.366C1520.2 812.069 1521.16 813.079 1522.08 814.867C1521.93 816.091 1522.15 816.515 1521.19 817.395C1518.7 819.682 1514.17 818.716 1511.12 818.406C1508.03 818.221 1504.85 818.124 1501.78 817.682C1499.77 817.393 1497.64 816.966 1496.34 815.301C1496.44 815.123 1496.52 814.928 1496.66 814.768C1498.75 812.225 1506.39 811.147 1509.65 810.395Z"/><path fill="#A2632E" d="M1041.41 807.37C1043.91 807.24 1046.41 807.144 1048.91 807.083C1052.33 807.018 1057.67 807.032 1060.22 809.492C1060.1 809.7 1060 809.924 1059.86 810.117C1058.19 812.41 1054.89 812.36 1052.32 812.56C1046.03 813.207 1038.58 813.89 1032.81 810.787L1032.79 809.554C1035.35 807.819 1038.42 807.729 1041.41 807.37Z"/><path fill="#A2632E" d="M1193.18 807.458C1198.79 806.777 1207 806.233 1211.87 809.388L1210.2 811.148L1211.53 810.764C1209.16 812.08 1206.5 812.26 1203.86 812.601C1198.09 813.121 1189.82 813.954 1184.78 810.618L1184.98 809.409C1187.5 807.87 1190.31 807.79 1193.18 807.458Z"/><path fill="#A2632E" d="M449.877 814.71C451.869 814.564 453.876 814.568 455.874 814.551C460.323 814.515 468.958 813.903 472.248 817.135L472.199 818.575L470.474 819.785C465.546 820.008 460.577 820.324 455.644 820.226C452.954 820.172 449.534 820.237 447.556 818.177C447.704 816.195 448.445 816.012 449.877 814.71Z"/><path fill="#A2632E" d="M544.986 814.777C550.501 814.674 562.366 813.46 566.382 817.255L566.216 818.55L564.037 819.793C558.356 820.017 546.279 821.684 541.95 817.951C542.466 816.007 543.349 815.863 544.986 814.777Z"/><path fill="#935423" d="M0 892.136C8.13479 892.545 16.2538 892.335 24.3787 892.667C30.8066 892.93 37.2643 893.961 43.6926 893.898C52.0021 893.816 60.2566 892.492 68.6015 892.446L160.645 892.305L505.945 891.852L1536 892.354L1536 899.355C1503.41 897.655 1470.21 898.993 1437.55 899.017L1266.77 898.85L707.642 899.743L451.865 899.695C434.356 899.618 416.848 899.423 399.342 899.111C385.604 898.88 363.6 896.735 350.694 900.286L128.568 898.749C108.545 898.585 88.5202 898.612 68.4973 898.829C55.8971 899.075 43.2392 900.903 30.6803 899.385C20.6693 898.074 10.0908 898.731 0 898.782L0 892.136Z"/><path fill="#935423" d="M0 831.816L1092.73 831.942L1391.86 831.934C1439.87 831.919 1488 831.077 1536 831.811L1536 838.503C1517.4 837.386 1498.28 838.315 1479.6 838.255L1361.67 838.082L1003.41 838.541L0 838.011L0 831.816Z"/></svg>