<?xml version="1.0" encoding="utf-8" ?><svg xmlns="http://www.w3.org/2000/svg" xmlns:xlink="http://www.w3.org/1999/xlink" width="1768" height="1768" viewBox="0 0 1768 1768"><path fill="#292422" transform="matrix(-1.72656 0 0 1.72656 1768 0)" d="M513.658 85.7256C533.987 84.8035 555.408 91.471 571.374 104.157C587.612 117.059 594.035 130.932 596.325 151.098C599.576 154.086 602.386 157.254 605.882 160.033C618.9 170.38 637.496 180.19 653.348 185.631C658.315 187.336 663.495 188.392 668.483 190.027C674.394 191.965 679.824 195.478 682.589 201.22C684.503 205.195 685.108 209.82 683.579 214.025C677.839 229.812 640.454 228.695 626.905 229.868C612.935 231.077 598.999 232.573 584.997 233.364C577.299 233.799 568.045 232.721 560.93 236.319C556.811 238.402 554.643 242.388 553.201 246.595C544.96 270.644 555.85 320.915 562.349 345.285C564.195 352.205 565.751 359.896 568.903 366.335C569.029 366.41 569.156 366.483 569.281 366.561C576.936 371.331 578.293 375.998 580.24 384.369C591.259 390.615 596.692 394.956 603.299 405.85C616.93 412.604 628.812 424.349 638.145 436.307C675.798 484.543 696.243 554.603 701.889 614.98C702.582 622.387 704.317 630.071 704.192 637.497C704.097 643.116 702.523 648.307 701.72 653.82C701.089 658.151 700.91 662.58 700.354 666.936L696.516 670.429C694.891 674.878 694.275 679.872 693.164 684.493C691.436 691.681 688.594 699.011 685.356 705.651C682.75 710.994 679.137 715.671 675.467 720.311C662.15 737.15 649.9 743.888 629.896 750.662C615.28 772.374 594.207 795.594 569.131 804.96C568.262 820.179 564.058 848.193 568.464 861.649C569.257 864.071 570.378 866.681 572.459 868.272C574.241 869.636 577.429 870.555 579.533 871.35C589.289 875.041 599.569 877.019 609.714 879.312C620.48 881.682 631.194 884.284 641.849 887.116C648.785 888.936 656.472 890.581 662.794 894.033C665.652 895.594 667.672 897.973 668.562 901.138C669.179 903.331 669.128 905.764 667.952 907.764C664.66 913.362 652.654 913.181 646.905 914.21C643.697 914.785 640.547 915.744 637.431 916.687L637.517 918.741C637.63 921.714 638.18 925.113 635.848 927.414C629.246 933.925 605.077 925.709 594.927 928.399C588.222 930.177 584.035 937.277 576.569 937.012C565.675 936.624 531.076 912.051 523.8 903.77C521.038 900.627 519.475 897.662 519.714 893.414C520.234 884.184 526.319 874.654 528.625 865.634C531.772 853.33 533.83 830.05 534.714 817.033C535.298 814.758 535.562 812.404 535.9 810.081C531.89 809.198 527.864 807.367 523.755 807.126C518.325 806.808 511.956 808.619 506.472 809.178C486.132 811.249 466.435 812.147 446.463 806.797C441.502 809.62 436.539 812.144 431.061 813.822C430.469 818.515 430.517 823.331 430.289 828.057C429.665 840.968 427.423 860.677 433.553 872.233C439.185 882.848 471.247 904.324 482.277 912.181C487.518 915.914 494.673 920.113 497.489 926.113C498.752 928.805 499.194 932.032 498.08 934.853C496.525 938.794 492.838 940.492 488.863 940.946C482.178 941.708 475.365 939.936 468.671 940.622C460.969 941.411 453.28 947.774 446.618 951.477C443.84 953.021 440.924 954.254 437.987 955.458C425.85 951.682 414.509 945.34 401.993 942.902C392.858 941.123 370.56 943.23 364.784 938.122C360.825 934.621 361.602 929.292 363.329 924.878C366.849 915.879 373.309 907.079 378.469 898.925C383.134 891.552 389.057 883.981 392.514 876.021C397.801 863.848 395.744 828.603 394.787 814.859C387.473 810.718 379.694 805.498 373.972 799.272C371.42 796.494 369.595 793.112 366.52 790.846C359.964 786.017 351.958 782.531 344.978 778.271C334.812 772.067 324.788 763.878 315.794 756.075C313.748 754.3 303.431 740.139 303.204 740.077C300.277 739.277 294.269 741.368 290.959 741.47C287.079 741.59 283.16 740.706 279.401 739.862C276.119 739.124 272.633 736.363 270.036 734.272L269.242 733.627C266.106 731.12 267.414 727.771 265.399 724.947C264.042 723.045 255.921 724.142 252.705 718.795C246.333 708.204 257.112 698.486 263.301 691.185C265.841 688.188 268.127 684.925 270.4 681.721C271.658 679.947 273.613 677.574 273.825 675.355C274.024 673.28 267.926 669.021 266.273 667.47C266.272 662.65 267.601 658.147 267.816 653.405C267.895 651.65 267.707 651.316 266.511 650.034C265.596 642.813 265.893 636.352 266.817 629.139C269.331 609.496 273.48 590.435 278.47 571.307C279.771 566.317 280.849 561.212 282.382 556.29C284.528 549.403 287.54 542.588 290.192 535.873C293.29 528.029 296.2 519.954 299.706 512.289C307.598 495.035 318.179 476.286 329.404 460.977C339.686 446.952 351.703 434.244 364.421 422.404C371.9 415.442 380.056 408.65 388.425 402.8C393.282 399.405 398.821 396.613 403.366 392.83C409.87 387.417 414.498 380.339 421.347 375.039C423.291 368.206 425.833 362.119 431.116 357.176C432.453 347.885 432.555 338.259 432.582 328.887C432.658 302.076 429.272 275.719 426.008 249.143C424.247 234.801 422.208 220.421 421.688 205.966C421.029 187.682 423.947 164.256 430.473 146.946C432.628 141.231 435.626 135.819 438.579 130.483C440.293 127.385 441.976 123.902 444.087 121.067C446.921 117.259 451.153 113.432 454.461 109.952C468.848 94.8168 493.059 86.2711 513.658 85.7256Z"/><path fill="#FBF0D7" transform="matrix(-1.72656 0 0 1.72656 1768 0)" d="M440.288 363.184C441.983 356.317 442.288 348.672 442.726 341.618C445.057 304.096 438.742 267.908 434.44 230.828C430.441 196.364 430.339 155.552 453.104 127.09C467.001 109.953 487.18 99.0921 509.138 96.9303C529.316 94.8593 550.07 100.475 565.804 113.466C576.486 122.285 584.437 134.423 585.782 148.403C578.326 147.503 570.53 147.379 563.395 150.083C544.079 157.403 553.762 177.336 544.63 190.482C540.211 196.845 529.092 197.524 526.081 204.787C525.25 206.79 525.225 209.196 526.102 211.189C528.189 215.927 535.282 217.604 539.765 219.195L542.425 220.048C548.186 222.798 554.912 224.113 561.236 224.814C561.928 224.89 561.655 224.843 562.396 225.166C555.142 227.264 549.432 230.755 545.694 237.576C541.297 245.602 540.647 255.003 540.198 263.953C539.954 301.752 548.103 341.999 561.354 377.328C553.005 391.468 544.325 395.697 533.765 406.588L533.281 407.093C532.473 407.182 531.665 407.261 530.855 407.33C524.316 407.873 517.348 403.868 511.335 401.529C486.246 391.769 461.085 380.686 440.288 363.184Z"/><path fill="#D9CAAA" transform="matrix(-1.72656 0 0 1.72656 1768 0)" d="M539.765 219.195L542.425 220.048C548.186 222.798 554.912 224.113 561.236 224.814C561.928 224.89 561.655 224.843 562.396 225.166C555.142 227.264 549.432 230.755 545.694 237.576C541.297 245.602 540.647 255.003 540.198 263.953C538.121 263.607 536.971 263.166 535.556 261.574C531.413 256.913 531.186 248.997 531.471 243.053C531.858 234.978 533.498 224.851 539.765 219.195Z"/><path fill="#2C1E19" transform="matrix(-1.72656 0 0 1.72656 1768 0)" d="M510.994 137.559C512.169 137.475 513.349 137.489 514.521 137.599C517.446 137.896 520.184 139.46 522.013 141.75C524.711 145.126 525.138 149.595 524.458 153.736C523.764 157.959 521.715 161.956 518.242 164.523C517.094 164.877 515.792 165.186 514.583 165.187C512.352 165.189 510.067 164.004 508.602 162.36C505.457 158.831 504.941 153.216 505.392 148.716C505.861 144.042 507.264 140.469 510.994 137.559Z"/><path fill="#FBF0D7" transform="matrix(-1.72656 0 0 1.72656 1768 0)" d="M356.737 692.544C392.135 712.079 441.927 727.422 481.519 735.82C489.721 737.559 499.38 740.098 507.76 739.496C510.163 739.323 512.281 738.734 514.361 737.509C525.744 730.805 547.913 704.959 557.473 694.116C563.791 700.698 584.026 731.611 590.793 732.433C601.106 733.685 633.28 709.554 642.059 702.434C640.658 706.646 639.309 710.961 637.333 714.943C623.15 747.515 596.932 783.941 562.842 797.172C554.298 800.488 547.056 800.913 537.984 800.454C533.332 799.88 528.887 797.838 524.216 797.707C519.284 797.569 513.849 799.035 508.88 799.525C490.741 801.317 471.638 802.784 453.713 798.729L455.238 793.384C455.673 791.642 456.005 790.387 455.628 788.609C455.364 788.375 455.175 788 454.835 787.907C454.044 787.691 452.692 788.747 452.11 789.189C439.799 798.538 429.51 807.86 413.084 807.608C395.33 807.335 382.976 794.162 371.413 782.339C351.233 769.118 326.879 756.461 313.035 736.122C332.612 726.639 347.491 712.267 356.737 692.544Z"/><path fill="#D9CAAA" transform="matrix(-1.72656 0 0 1.72656 1768 0)" d="M356.737 692.544C392.135 712.079 441.927 727.422 481.519 735.82C489.721 737.559 499.38 740.098 507.76 739.496C510.163 739.323 512.281 738.734 514.361 737.509C525.744 730.805 547.913 704.959 557.473 694.116C563.791 700.698 584.026 731.611 590.793 732.433C601.106 733.685 633.28 709.554 642.059 702.434C640.658 706.646 639.309 710.961 637.333 714.943L636.091 714.672C626.999 720.947 600.978 741.74 589.869 739.477C581.533 737.778 563.166 712.833 557.455 705.015C547.31 716.075 519.511 746.544 504.44 747.437C495.539 747.965 485.703 745.109 477.043 743.112C442.924 735.243 410.687 724.459 378.314 711.14C369.565 714.947 361.621 719.052 357.858 728.44C353.855 738.429 353.16 747.567 357.538 757.577C360.823 765.088 369.576 775.942 371.413 782.339C351.233 769.118 326.879 756.461 313.035 736.122C332.612 726.639 347.491 712.267 356.737 692.544Z"/><path fill="#D9CAAA" transform="matrix(-1.72656 0 0 1.72656 1768 0)" d="M455.238 793.384C483.497 795.768 514.606 796.759 541.987 787.91C549.488 785.486 556.47 781.695 563.772 778.772C558.456 786.895 549.479 796.618 539.483 798.575C538.795 798.71 538.109 798.789 537.413 798.868C537.338 799.843 537.444 799.719 537.984 800.454C533.332 799.88 528.887 797.838 524.216 797.707C519.284 797.569 513.849 799.035 508.88 799.525C490.741 801.317 471.638 802.784 453.713 798.729L455.238 793.384Z"/><path fill="#373837" transform="matrix(-1.72656 0 0 1.72656 1768 0)" d="M413.949 393.076C417.095 390.276 420.383 387.544 423.235 384.44C427.773 392.327 432.029 400.402 436.766 408.169C442.695 417.891 449.344 427.408 455.631 436.93C466.314 453.111 477.785 468.897 488.864 484.817C503.729 506.165 518.228 527.765 532.356 549.608C537.913 558 543.347 566.474 548.656 575.025C550.825 578.452 553.498 581.833 555.279 585.463C556.14 587.215 557.09 589.315 556.587 591.292C556.447 591.841 556.271 592.382 556.092 592.92L555.433 593.194C548.286 589.274 541.447 582.978 535.04 577.878C527.513 571.886 519.372 565.925 512.384 559.323C498.365 547.988 464.918 522.056 455.561 508.601C458.119 496.855 462.365 485.456 465.441 473.828C454.636 470.602 442.263 469.537 431.084 467.723C424.45 453.406 420.361 437.031 416.732 421.721C415.241 415.426 410.776 398.229 413.949 393.076Z"/><path fill="#535252" transform="matrix(-1.72656 0 0 1.72656 1768 0)" d="M413.949 393.076C416.347 403.031 417.904 413.154 420.293 423.1C422.343 431.635 425.171 439.958 427.885 448.299C429.603 453.581 431.061 459.227 433.587 464.18C433.782 464.241 433.976 464.304 434.172 464.363C439.505 465.972 465.779 469.311 467.414 473.008C469.001 476.599 460.827 501.788 459.542 507.44C471.643 520.783 485.426 532.9 498.614 545.175C502.18 548.495 510.272 554.729 512.686 558.463L512.384 559.323C498.365 547.988 464.918 522.056 455.561 508.601C458.119 496.855 462.365 485.456 465.441 473.828C454.636 470.602 442.263 469.537 431.084 467.723C424.45 453.406 420.361 437.031 416.732 421.721C415.241 415.426 410.776 398.229 413.949 393.076Z"/><path fill="#ED6C11" transform="matrix(-1.72656 0 0 1.72656 1768 0)" d="M420.098 836.498C419.858 851.816 417.964 871.344 429.446 883.181C439.217 893.254 457.547 906.361 469.262 914.736C474.445 918.442 480.146 921.884 484.926 926.086C486.375 927.359 488.082 928.694 488.151 930.716C482.907 932.854 469.466 929.992 462.406 931.951C453.445 934.438 447.021 941.771 438.406 944.36C437.777 944.488 437.047 944.337 436.407 944.283C424.529 941.302 414.102 934.87 401.78 932.848C395.261 931.778 376.767 933.388 372.42 930.472C371.954 929.237 371.89 928.639 372.278 927.355C373.323 923.9 381.473 912.214 383.994 908.374C403.62 878.482 407 875.486 405.809 838.34C405.957 837.991 405.921 837.475 406.254 837.292C408.595 836.006 416.7 838.616 420.098 836.498Z"/><path fill="#CC4F11" transform="matrix(-1.72656 0 0 1.72656 1768 0)" d="M436.407 944.283C434.767 942.501 433.233 940.803 432.137 938.615C428.377 931.103 419.702 903.819 420.288 896.001C420.356 895.1 420.633 894.432 421.363 893.883C422.157 893.286 422.567 893.218 423.519 893.11C427.915 895.744 433.211 919.454 434.634 925.144C436.105 931.021 437.732 937.128 438.094 943.181C438.137 943.916 438.086 943.609 438.406 944.36C437.777 944.488 437.047 944.337 436.407 944.283Z"/><path fill="#ED6C11" transform="matrix(-1.72656 0 0 1.72656 1768 0)" d="M573.612 156.106C578.811 155.873 583.888 156.245 589.067 156.631C603.197 173.729 629.94 187.879 650.942 195.268C656.798 197.328 664.089 197.387 669.456 200.497C671.796 201.853 675.032 204.53 675.469 207.394C675.692 208.857 675.026 210.14 674.076 211.199C666.93 219.158 648.494 218.629 638.617 218.942C629.877 219.071 621.09 218.543 612.387 217.784C596.326 216.382 580.292 213.807 564.277 211.873C556.543 210.939 548.591 210.771 540.913 209.614C539.202 209.356 537.761 209.031 536.321 208.054C536.158 207.079 536.288 207.062 537.012 206.422C538.168 205.401 539.914 204.73 541.272 203.982C545.841 201.463 550.211 198.689 553.252 194.33C560.614 183.777 555.684 171.247 561.413 162.88C564.269 158.708 568.881 157.089 573.612 156.106Z"/><path fill="#2C1E19" transform="matrix(-1.72656 0 0 1.72656 1768 0)" d="M580.004 178.372C581.772 178.518 583.416 178.996 585.04 179.7C588.781 181.321 594.547 184.603 595.937 188.596C596.42 189.983 596.229 190.151 595.646 191.422C594.061 191.886 592.501 192.17 590.88 191.705C586.813 190.538 582.485 187.394 580.46 183.637C579.422 181.711 579.444 180.454 580.004 178.372Z"/><path fill="#ED6C11" transform="matrix(-1.72656 0 0 1.72656 1768 0)" d="M542.99 832.788C547.024 832.511 553.253 830.734 556.724 832.86C557.727 834.281 557.52 835.968 557.548 837.637C557.483 848.119 555.731 865.216 563.757 873.492C566.902 876.735 570.957 878.875 575.128 880.49C582.345 883.285 590.047 884.858 597.583 886.546C617.293 890.961 641.354 894.549 659.488 903.179C651.447 903.899 635.464 904.001 629.768 910.605C627.187 913.597 629.265 918.84 625.894 920.689L622.593 920.337C620.305 920.041 617.843 919.903 615.662 919.137C607.792 918.406 596.18 916.433 588.773 919.87C585.808 921.246 583.268 923.498 580.433 925.116C578.004 926.502 576.391 926.832 573.65 926.047C564.661 923.472 534.081 902.956 529.653 895.017C531.273 887.357 534.67 880.268 536.755 872.741C540.37 859.691 541.708 846.223 542.99 832.788Z"/><path fill="#CC4F11" transform="matrix(-1.72656 0 0 1.72656 1768 0)" d="M615.662 919.137C615.517 918.968 615.378 918.795 615.227 918.632C613.255 916.483 607.053 914.697 604.264 913.411C595.155 909.209 586.196 904.666 577.18 900.268C570.013 896.772 562.177 893.521 555.624 888.949C554.18 887.941 553.068 886.752 552.026 885.346L552.223 884.486C556.978 882.885 566.771 887.144 571.048 889.272C577.848 892.654 584.562 896.204 591.403 899.502C601.493 904.366 612.264 908.948 621.391 915.488C621.814 917.094 622.288 918.705 622.593 920.337C620.305 920.041 617.843 919.903 615.662 919.137Z"/><path fill="#373837" transform="matrix(-1.72656 0 0 1.72656 1768 0)" d="M580.502 394.447C586.237 396.582 589.654 398.983 592.968 404.112C602.345 417.565 611.5 433.73 616.56 449.353C610.287 454.373 602.229 459.919 597.428 466.342C600.815 470.802 604.192 475.191 607.899 479.394C608.966 480.59 610.264 481.813 611.17 483.128C614.789 487.027 618.597 490.837 621.713 495.159C616.775 517.881 605.76 541.376 592.458 560.361C589.116 567.612 578.028 580.963 572.44 587.336C568.998 591.26 565.076 595.119 562.429 599.617C561.924 600.475 561.411 601.726 560.442 601.983C560.656 600.861 561.058 600.169 561.588 599.195C565.012 592.902 567.145 585.395 569.641 578.673C588.035 529.145 592.012 482.956 586.281 430.577C585.553 423.922 585.496 417.147 584.517 410.53C583.703 405.034 582.076 399.76 580.502 394.447Z"/><path fill="#535252" transform="matrix(-1.72656 0 0 1.72656 1768 0)" d="M615.412 492.532C614.32 489.356 610.964 487.334 610.383 483.912L611.17 483.128C614.789 487.027 618.597 490.837 621.713 495.159C616.775 517.881 605.76 541.376 592.458 560.361L591.775 559.664C592.973 554.464 600.565 541.614 603.272 535.526C609.042 522.552 613.643 509.327 617.867 495.778C616.918 494.784 616.184 493.662 615.412 492.532Z"/><path fill="#535252" transform="matrix(-1.72656 0 0 1.72656 1768 0)" d="M592.968 404.112C602.345 417.565 611.5 433.73 616.56 449.353C610.287 454.373 602.229 459.919 597.428 466.342C600.815 470.802 604.192 475.191 607.899 479.394L607.109 480.017C605.445 479.586 603.519 477.167 602.066 476.068C601.856 475.895 601.633 475.736 601.435 475.549C599.582 473.798 597.07 470.522 596.969 467.896C596.716 461.325 607.776 453.129 612.004 448.445C609.852 442.166 607.403 435.994 604.666 429.948C601.577 423.104 593.537 410.831 592.968 404.112Z"/><path fill="#414141" transform="matrix(-1.72656 0 0 1.72656 1768 0)" d="M602.066 476.068C603.519 477.167 605.445 479.586 607.109 480.017L607.899 479.394C608.966 480.59 610.264 481.813 611.17 483.128L610.383 483.912C610.964 487.334 614.32 489.356 615.412 492.532C610.826 488.477 605.442 481.213 602.066 476.068Z"/><path fill="#FBF0D7" transform="matrix(-1.72656 0 0 1.72656 1768 0)" d="M460.266 429.321C469.368 435.844 479.211 440.198 488.667 445.985C490.476 449.735 491.871 453.102 496.159 454.501C501.154 456.13 507.099 453.075 511.406 450.687C515.757 448.275 519.871 445.454 523.991 442.672L525.762 447.513C528.336 455.364 530.174 463.631 532.103 471.663C538.831 499.534 543.452 527.873 545.927 556.438C541.998 550.477 538.474 544.221 534.59 538.22C524.008 522.081 513.281 506.037 502.409 490.091C491.453 474.041 479.453 458.509 469.071 442.101C465.837 438.188 463.025 433.591 460.266 429.321Z"/><path fill="#D9CAAA" transform="matrix(-1.72656 0 0 1.72656 1768 0)" d="M460.266 429.321C469.368 435.844 479.211 440.198 488.667 445.985C490.476 449.735 491.871 453.102 496.159 454.501C501.154 456.13 507.099 453.075 511.406 450.687C515.757 448.275 519.871 445.454 523.991 442.672L525.762 447.513C523.934 448.145 522.185 449.751 520.579 450.854C514.792 454.83 508.618 459.505 501.597 460.912C491.209 462.993 490.617 452.916 483.775 448.669C482.082 447.618 471.517 441.871 470.338 441.803C469.905 441.778 469.493 442.002 469.071 442.101C465.837 438.188 463.025 433.591 460.266 429.321Z"/><path fill="#FBF0D7" transform="matrix(-1.72656 0 0 1.72656 1768 0)" d="M282.914 678.451C305.421 688.025 324.14 690.626 348.34 690.505C342.979 700.757 335.532 709.775 326.478 716.977C313.866 727.191 300.395 732.323 284.115 730.58C281.257 729.889 277.477 728.531 275.7 726.009C275.093 725.147 275.178 724.859 275.317 723.884C277.985 720.778 282.103 719.707 285.387 717.423C290.356 713.966 297.62 704.78 298.26 698.709C298.344 697.912 298.037 697.832 297.567 697.269C295.158 698.488 293.137 700.773 291.235 702.662C283.97 709.876 278.12 714.597 267.443 714.705C264.855 714.731 262.272 714.514 260.37 712.602C259.939 711.093 259.95 710.191 260.767 708.801C262.821 705.303 267.056 702.381 269.732 699.173C275.053 692.792 278.952 685.703 282.914 678.451Z"/><path fill="#FBF0D7" transform="matrix(-1.72656 0 0 1.72656 1768 0)" d="M529.623 446.41C528.926 444.434 527.793 442.132 528.304 440.044C528.974 439.285 529.27 438.851 530.293 438.574C532.749 437.907 535.902 438.338 538.466 438.102C540.832 437.883 543.261 437.21 545.582 436.692L546.997 441.734C556.614 471.093 562.129 501.279 565.714 531.916C566.767 540.918 568.362 551.084 567.36 560.118C566.619 566.803 563.348 573.617 560.919 579.872C557.751 574.827 552.511 568.671 550.884 563.093C549.393 557.984 549.513 551.922 549.105 546.625C548.615 539.95 547.896 533.294 546.951 526.668C543.113 499.534 537.322 472.711 529.623 446.41Z"/><path fill="#D9CAAA" transform="matrix(-1.72656 0 0 1.72656 1768 0)" d="M529.623 446.41C528.926 444.434 527.793 442.132 528.304 440.044C528.974 439.285 529.27 438.851 530.293 438.574C532.749 437.907 535.902 438.338 538.466 438.102C540.832 437.883 543.261 437.21 545.582 436.692L546.997 441.734C542.018 441.951 534.117 442.655 530.075 445.877C529.893 446.023 529.774 446.232 529.623 446.41Z"/><path fill="#2C1E19" transform="matrix(-1.72656 0 0 1.72656 1768 0)" d="M541.329 455.832C544.087 454.683 547.253 455.994 548.393 458.756C549.532 461.517 548.211 464.679 545.445 465.809C542.693 466.934 539.549 465.62 538.415 462.871C537.281 460.123 538.584 456.975 541.329 455.832Z"/><path fill="#2C1E19" transform="matrix(-1.72656 0 0 1.72656 1768 0)" d="M549.573 487.826C551.446 487.281 553.468 487.795 554.853 489.168C556.238 490.542 556.769 492.559 556.24 494.436C555.71 496.314 554.204 497.756 552.305 498.203C549.473 498.871 546.624 497.159 545.884 494.345C545.143 491.532 546.78 488.64 549.573 487.826Z"/><path fill="#2C1E19" transform="matrix(-1.72656 0 0 1.72656 1768 0)" d="M554.341 520.338C556.122 519.574 558.18 519.855 559.692 521.067C561.205 522.28 561.925 524.227 561.567 526.132C561.209 528.037 559.829 529.59 557.98 530.17C555.312 531.006 552.457 529.605 551.487 526.984C550.517 524.362 551.771 521.44 554.341 520.338Z"/><path fill="#2C1E19" transform="matrix(-1.72656 0 0 1.72656 1768 0)" d="M557.389 548.808C560.006 547.599 563.108 548.745 564.311 551.365C565.513 553.986 564.359 557.085 561.735 558.28C559.121 559.471 556.037 558.322 554.839 555.711C553.641 553.101 554.782 550.013 557.389 548.808Z"/><path fill="#FBF0D7" transform="matrix(-1.72656 0 0 1.72656 1768 0)" d="M432.687 365.251C443.647 374.887 456.185 382.955 469.153 389.59C474.992 392.577 481.094 395.102 486.828 398.28C485.939 399.467 485.128 400.672 484.485 402.013C479.789 411.801 481.917 427.424 485.423 437.296L485.111 437.644C484.679 437.607 484.486 437.617 484.04 437.427C480.419 435.886 474.935 432.131 471.373 429.902C465.16 426.015 458.188 421.908 452.934 416.786C445.408 409.448 433.108 387.264 428.471 376.955C429.503 372.899 431.05 369.093 432.687 365.251Z"/><path fill="#FBF0D7" transform="matrix(-1.72656 0 0 1.72656 1768 0)" d="M550.239 439.042C555.482 441.955 568.377 449.618 574.267 448.428C576.451 447.987 578.55 444.625 580.67 445.525L580.599 446.06C580.355 448.013 580.36 449.836 580.467 451.797C581.113 484.015 580.453 516.628 571.289 547.807C568.962 513.454 562.368 480.472 553.178 447.365C552.213 444.597 551.319 441.766 550.239 439.042Z"/><path fill="#D9CAAA" transform="matrix(-1.72656 0 0 1.72656 1768 0)" d="M550.239 439.042C555.482 441.955 568.377 449.618 574.267 448.428C576.451 447.987 578.55 444.625 580.67 445.525L580.599 446.06C580.355 448.013 580.36 449.836 580.467 451.797L579.802 449.621C578.35 449.624 576.664 451.235 575.314 451.902C567.925 455.554 560.7 448.887 553.991 446.699L553.178 447.365C552.213 444.597 551.319 441.766 550.239 439.042Z"/><path fill="#D9CAAA" transform="matrix(-1.72656 0 0 1.72656 1768 0)" d="M685.096 674.971C685.727 675 685.391 674.899 686.013 675.491C685.797 677.047 685.353 678.416 684.85 679.903C676.098 705.803 662.515 725.699 637.549 738.062L636.924 737.932L636.858 737.034C641.518 729.372 645.771 719.197 648.25 710.599C649.558 706.063 650.37 701.267 652.079 696.866C654.516 690.588 658 689.196 659.688 681.252C668.55 680.153 676.792 678.318 685.096 674.971Z"/><path fill="#FBF0D7" transform="matrix(-1.72656 0 0 1.72656 1768 0)" d="M278.519 669.261C281.057 668.393 282.148 667.093 284.18 665.548C285.646 664.433 286.865 665.007 288.537 665.298C310.099 674.147 334.464 679.182 357.833 676.516L356.163 683.141C331.789 687.755 299.768 682.153 278.519 669.261Z"/><path fill="#CC4F11" transform="matrix(-1.72656 0 0 1.72656 1768 0)" d="M545.092 810.134C550.239 809.747 555.352 808.999 560.394 807.893C559.204 817.705 559.115 827.935 557.548 837.637C557.52 835.968 557.727 834.281 556.724 832.86C553.253 830.734 547.024 832.511 542.99 832.788C543.608 825.234 544.57 817.691 545.092 810.134Z"/><path fill="#CC4F11" transform="matrix(-1.72656 0 0 1.72656 1768 0)" d="M404.372 815.453C409.992 816.146 415.468 816.482 421.125 816.078C420.888 822.89 420.546 829.697 420.098 836.498C416.7 838.616 408.595 836.006 406.254 837.292C405.921 837.475 405.957 837.991 405.809 838.34C404.828 833.496 404.831 821.358 404.372 815.453Z"/><path fill="#FBF0D7" transform="matrix(-1.72656 0 0 1.72656 1768 0)" d="M694.29 654.969L694.83 655.768C694.982 658.005 695.44 660.414 694.136 662.394C689.363 669.639 669.057 673.494 660.637 675.114C659.367 673.711 660.094 669.158 660.165 667.278C672.26 665.541 683.872 661.353 694.29 654.969Z"/><path fill="#373837" transform="matrix(-1.72656 0 0 1.72656 1768 0)" d="M534.372 413.241C536.576 413.168 539.438 412.78 541.484 413.713C542.433 414.146 543.115 414.864 543.463 415.852C544.785 419.599 544.931 426.211 543.231 429.779C541.875 430.913 539.802 431.009 538.093 431.295C535.618 431.357 533.335 431.828 530.833 431.642C530.149 427.242 527.936 418.67 528.487 414.599C530.221 413.452 532.352 413.464 534.372 413.241Z"/><path fill="#FBF0D7" transform="matrix(-1.72656 0 0 1.72656 1768 0)" d="M568.558 375.141C568.783 375.292 569.022 375.427 569.224 375.608C571.646 377.792 575.215 387.794 575.027 391.108C574.979 391.945 567.436 392.026 566.154 392.429C559.197 394.617 552.172 400.017 546.811 404.808C545.645 405.823 544.138 407.115 542.522 407.024C542.023 405.62 545.37 403.88 546.561 402.944C556.032 395.498 564.13 386.415 568.558 375.141Z"/><path fill="#CC4F11" transform="matrix(-1.72656 0 0 1.72656 1768 0)" d="M542.425 220.048C559.117 219.852 575.656 221.818 592.308 222.598C595.454 222.597 599.343 222.564 602.323 223.592C593.55 224.671 584.09 223.998 575.229 223.92C570.925 224.189 566.675 224.629 562.396 225.166C561.655 224.843 561.928 224.89 561.236 224.814C554.912 224.113 548.186 222.798 542.425 220.048Z"/><path fill="#855036" transform="matrix(-1.72656 0 0 1.72656 1768 0)" d="M592.308 222.598C595.454 222.597 599.343 222.564 602.323 223.592C593.55 224.671 584.09 223.998 575.229 223.92C580.682 222.838 586.46 223.946 592 223.242L592.308 222.598Z"/><path fill="#2C1E19" transform="matrix(-1.72656 0 0 1.72656 1768 0)" d="M387.619 470.119C388.351 470.038 389.193 469.897 389.923 470.052C392.685 470.639 396.076 474.872 397.78 477.038C402.299 482.785 406.339 489.39 405.461 496.988C404.582 496.578 403.931 496.216 403.24 495.514C400.722 492.958 395.51 481.563 391.923 476.901C390.471 475.014 387.688 472.469 387.619 470.119Z"/><path fill="#2C1E19" transform="matrix(-1.72656 0 0 1.72656 1768 0)" d="M565.836 622.105C566.812 622.061 567.836 621.995 568.802 622.163C570.642 622.483 572.253 623.692 573.227 625.262C574.222 626.865 574.313 628.783 573.754 630.56C572.896 633.285 571.183 634.209 568.731 635.407C567.967 635.418 567.27 635.378 566.523 635.197C564.9 634.803 563.477 633.641 562.661 632.197C561.661 630.427 561.486 628.325 562.058 626.387C562.708 624.191 563.923 623.23 565.836 622.105Z"/><path fill="#2C1E19" transform="matrix(-1.72656 0 0 1.72656 1768 0)" d="M568.269 656.484C568.504 656.512 568.74 656.529 568.974 656.568C571.058 656.918 572.813 657.755 573.935 659.623C574.939 661.296 574.991 663.271 574.397 665.093C573.546 667.707 571.967 668.538 569.638 669.698C568.604 669.457 567.62 669.172 566.631 668.78C564.981 668.124 563.794 666.907 563.15 665.247C562.537 663.664 562.583 662.034 563.319 660.506C564.389 658.283 566.036 657.315 568.269 656.484Z"/><path fill="#2C1E19" transform="matrix(-1.72656 0 0 1.72656 1768 0)" d="M282.526 618.801C283.61 618.697 284.862 618.508 285.941 618.655C287.082 618.81 288.124 619.564 288.837 620.443C289.864 621.709 290.236 623.096 289.928 624.71C289.494 626.979 288.357 628.224 286.497 629.482C286.257 629.564 286.027 629.682 285.777 629.728C284.635 629.934 283.109 629.47 282.233 628.689C281.04 627.625 280.556 626.131 280.389 624.584C280.121 622.109 280.987 620.644 282.526 618.801Z"/><path fill="#2C1E19" transform="matrix(-1.72656 0 0 1.72656 1768 0)" d="M281.855 634.046C282.416 634.03 283.186 633.957 283.752 634.078C285.137 634.374 286.286 635.279 286.966 636.517C287.889 638.197 287.837 640.042 287.261 641.822C286.651 643.706 285.487 644.303 283.848 645.141C283.291 645.146 282.55 645.199 281.994 645.066C280.495 644.709 279.315 643.818 278.628 642.426C277.741 640.631 277.812 638.834 278.504 636.987C279.223 635.07 280.173 634.829 281.855 634.046Z"/><path fill="#D9CAAA" transform="matrix(-1.72656 0 0 1.72656 1768 0)" d="M273.542 666.029C273.49 663.284 273.349 660.448 274.331 657.851L275.41 657.688C276.797 660.167 275.114 663.569 276.58 666.563C277.607 667.503 278.18 667.785 279.541 668.07C281.458 667.543 282.559 664.983 284.344 663.787C286.191 663.627 286.951 664.396 288.537 665.298C286.865 665.007 285.646 664.433 284.18 665.548C282.148 667.093 281.057 668.393 278.519 669.261C276.765 668.407 275.153 667.132 273.542 666.029Z"/><path fill="#414141" transform="matrix(-1.72656 0 0 1.72656 1768 0)" d="M567.679 399.077C568.116 399.027 568.553 398.983 568.991 398.945C570.844 398.789 572.125 398.761 573.617 400.035L573.631 401.117L572.58 401.884C570.93 402.115 569.714 402.396 568.142 401.648C567.498 401.697 566.993 401.804 566.38 402.014C564.808 402.552 563.8 402.842 562.135 402.753L562.096 402.253C563.579 400.593 565.674 399.936 567.679 399.077Z"/></svg>