<?xml version="1.0" encoding="utf-8" ?><svg xmlns="http://www.w3.org/2000/svg" xmlns:xlink="http://www.w3.org/1999/xlink" width="1923" height="1923" viewBox="0 0 1923 1923"><path fill="#232024" transform="matrix(-1.87793 0 0 1.87793 1923 0)" d="M508.688 84.7422C509.365 84.6947 510.043 84.6526 510.72 84.6159C530.186 83.5909 555.121 92.5695 569.449 105.65C583.392 118.379 591.268 132.477 592.182 151.512C603.705 163.394 633.615 179.426 649.998 184.949C657.108 187.346 664.754 187.601 671.25 191.719C678.09 196.055 680.126 202.116 681.816 209.591C680.912 212.446 680.003 214.867 677.991 217.139C673.836 221.83 667.855 224.47 661.897 226.026C651.596 228.718 640.793 228.203 630.247 229.013C613.83 230.273 597.677 231.97 581.198 232.699C572.325 233.092 558.986 232.276 552.692 239.484C541.658 252.121 547.877 286.172 549.192 302.223C561.32 307.309 576.457 316.243 584.912 326.542C589.345 331.942 592.297 337.565 593.969 344.342C594.589 346.855 595.002 349.671 596.004 352.056C597.115 354.701 599.219 357.221 600.792 359.627C604.489 365.281 607.958 372.795 608.777 379.562C609.563 386.061 606.78 391.277 606.392 397.479C606.072 402.604 617.9 412.936 621.386 417.309C625.004 421.846 627.928 427.315 630.927 432.286C639.65 446.74 647.69 461.435 654.636 476.837C663.506 496.504 670.48 517.033 677.748 537.326C686.342 561.325 697.084 589.94 701.237 614.979C702.269 621.198 702.72 628.136 701.899 634.407C701.252 639.351 699.613 643.723 695.592 646.846C698.262 662.571 696.561 671.679 692.012 686.896C686.265 706.12 675.512 722.205 660.119 734.995C657.259 737.372 654.378 740.003 651.176 741.91C645.291 745.413 638.374 747.154 632.33 750.453L631.702 750.8C630.202 754.855 629.21 759.044 627.491 763.037C621.462 777.045 613.289 789.83 606.818 803.569C602.558 812.616 598.934 822.382 595.351 831.726C594.577 833.742 586.504 860.626 586.505 860.7C586.516 862.033 587.816 864.248 588.367 865.481C587.945 867.038 587.513 868.598 587.156 870.171C586.788 871.793 586.907 872.553 587.769 873.953C589.413 874.767 590.887 874.872 592.679 875.098C600.491 876.086 608.718 878.913 616.404 880.814C629.046 883.942 647.095 887.19 658.686 892.163C661.545 893.39 664.177 894.91 666.039 897.48C667.765 899.863 668.527 903.288 667.887 906.175C665.95 914.909 645.086 912.083 637.468 917.143C637.309 917.249 637.153 917.359 636.995 917.467C637.091 920.043 637.574 923.363 636.576 925.782C634.618 930.528 627.2 929.982 622.982 931.829C622.034 932.244 622.555 932.177 621.484 932.001C621.875 931.199 621.997 931.009 621.944 930.089C615.771 927.747 596.927 926.839 591.029 929.567C586.461 931.68 583.237 935.989 577.998 936.767C567.142 938.377 541.525 919.155 532.418 912.147C525.962 907.18 516.335 900.286 518.976 890.932C519.774 888.105 521.405 885.205 521.529 882.247C521.723 877.589 519.347 872.576 518.815 867.896C518.292 863.285 519.299 861.032 522.037 857.53C519.66 844.82 519.324 835.428 515.497 822.385C514.44 817.876 513.056 813.354 511.082 809.159C499.253 810.153 487.381 811.649 475.494 811.457C472.17 819.537 467.557 827.183 463.689 835.024C459.552 843.412 454.753 855.613 452.152 864.6C451.091 868.264 453.073 871.833 452.899 875.536C452.76 878.52 451.082 881.798 450.273 884.688C449.84 886.235 449.198 887.455 450.061 888.925C451.345 891.114 455.29 893.281 457.37 894.765C466.701 901.423 492.298 917.494 496.956 926.062C498.239 928.42 499.168 931.201 498.309 933.865C494.585 945.414 473.426 938.704 463.412 941.951C456.331 944.247 450.744 949.611 444.048 952.697C441.766 953.749 439.45 954.572 436.907 954.527C426.809 954.352 411.043 944.406 398.675 942.705C390.507 941.582 374.37 943.134 368.046 940.533C365.043 939.299 362.214 936.809 361.136 933.676C357.99 924.534 376.936 902.595 380.584 894.272C381.998 891.045 377.738 885.326 377.368 881.691C376.763 875.753 378.426 869.948 378.124 864.096C377.84 858.586 376.716 852.905 375.955 847.433C374.307 835.569 373.379 822.695 369.28 811.41C366.262 803.099 361.727 795.209 358.238 787.06C346.304 782.982 320.467 762.795 311.273 753.489C307.116 749.281 303.565 744.444 299.999 739.735C290.466 741.688 278.511 741.828 270.083 736.231C267.205 734.319 264.53 731.86 263.81 728.398C263.681 727.776 263.331 725.399 262.702 724.978C262.328 724.727 260.677 724.366 260.183 724.216C255.65 722.84 252.849 721.669 249.425 718.315C248.421 715.151 247.772 712.326 248.211 708.97C249.085 702.287 257.44 693.27 262.843 689.234C253.583 677.776 248.201 671.693 243.975 656.845C242.383 651.253 238.954 633.915 242.55 629.051C245.814 624.636 252.039 632.419 256.771 631.681C257.056 628.742 255.202 625.062 254.675 622.117C253.283 614.341 254.931 597.059 259.88 590.846C260.858 589.618 262.179 588.678 263.808 588.648C267.204 588.586 269.709 591.691 272.033 593.744C274.037 593.374 274.59 588.628 275.083 586.733C277.473 577.541 280.791 567.275 284.573 558.55C292.174 541.019 301.434 524.324 310.416 507.488C321.887 485.985 345.005 440.035 363.148 425.368C359.724 422.059 357.158 418.533 355.293 414.138C348.554 398.261 351.132 377.134 361.133 363.144C365.6 356.895 371.614 351.637 375.398 344.901C378.681 339.058 379.164 331.905 381.722 325.671C389.638 306.372 410.195 299.231 427.917 291.781C426.103 283.373 425.823 274.526 424.733 265.984C423.414 255.637 421.378 245.399 420.096 235.041C416.757 208.058 416.32 183.319 423.326 156.827C427.3 141.798 432.143 130.069 441.929 117.67C459.207 95.7787 482.001 87.8879 508.688 84.7422Z"/><path fill="#48728F" transform="matrix(-1.87793 0 0 1.87793 1923 0)" d="M360.65 385.653C363.779 374.454 369.053 366.686 376.165 357.665C378.512 354.688 381.302 351.56 383.034 348.202C386.288 341.89 386.772 334.513 389.966 328.14C396.48 315.143 415.572 304.822 428.872 300.35C428.927 303.456 429.222 306.505 429.54 309.591C426.873 310.97 424.24 312.372 421.72 314.01C415.356 318.146 408.785 324.272 407.297 332.035C406.242 337.535 408.2 342.533 411.277 347.008C420.425 360.312 452.581 373.489 467.985 381.711C476.557 386.299 484.887 391.324 492.944 396.766C502.64 403.335 511.896 410.134 520.429 418.189C524.228 421.775 527.523 425.936 531.4 429.418C532.472 430.38 533.15 431.043 534.581 431.315C539.948 427.871 558.8 397.184 562.981 389.752C569.433 378.285 579.592 360.368 575.574 346.995C572.174 335.679 562.848 328.211 552.833 322.844C551.703 319.047 551.062 315.011 550.245 311.131C558.59 315.851 566.831 320.818 573.985 327.26C583.221 335.575 587.268 344.549 587.958 356.943C591.036 361.011 589.17 364.915 591.351 368.932L593.395 362.751C595.53 366.103 597.725 369.53 599.054 373.3C601.178 379.195 601.671 386.681 598.814 392.388C594.225 401.556 578.678 409.095 570.13 414.664C566.085 417.349 562.129 420.165 558.267 423.106C558.118 424.815 558.463 425.897 559.271 427.41C572.854 422.13 586.817 413.534 598.258 404.535L602.925 409.09C617.196 423.778 628.603 443.304 637.893 461.465C652.276 489.584 694.421 597.815 694.075 627.676C693.995 634.504 691.698 641.158 686.744 646.002C684.732 647.971 682.12 649.618 679.572 650.821C676.654 652.681 673.329 654.013 670.122 655.298C666.568 656.383 663.176 657.319 659.458 657.629C659.741 653.551 660.28 649.496 660.519 645.409C661.768 624.061 652.734 589.442 648.872 567.457C646.916 556.322 646.013 545.088 644.386 533.914C641.448 513.744 633.796 467.397 620.828 452.92C619.587 452.523 619.529 452.486 618.306 452.916C617.446 457.147 623.337 471.951 624.659 476.934C626.206 483.003 627.655 489.096 629.007 495.212C631.421 505.809 633.453 516.489 635.098 527.233C636.904 539.49 638.111 551.833 640.089 564.065C645.165 595.457 656.893 629.9 650.39 661.619C648.11 672.736 644.447 679.667 634.82 686.031C640.059 675.631 647.607 659.581 646.961 647.731C646.866 645.99 646.596 644.794 645.731 643.288C643.331 639.109 639.495 635.518 636.564 631.68C631.591 625.169 627.319 617.392 623.712 610.05C620.438 603.384 616.932 588.868 611.834 584.382L609.471 584.454C608.994 586.242 609.841 587.639 610.557 589.305C611.202 590.805 611.288 591.926 611.149 593.543C614.652 608.209 622.078 623.331 631.17 635.288C634.506 639.675 638.41 643.66 641.652 648.103C641.053 651.415 640.559 654.802 639.716 658.059C639.431 659.656 639.117 661.188 638.654 662.743C637.552 665.252 636.625 667.821 635.685 670.393C633.15 676.51 630.456 683.563 626.341 688.815C616.43 693.656 604.54 695.723 593.773 697.902C541.853 708.408 490.103 707.18 438.068 698.236C435.141 692.964 432.622 687.475 430.532 681.819C429.005 676.926 427.746 671.952 426.188 667.068C426.017 666.846 425.842 666.628 425.677 666.402C424.942 665.396 424.887 664.477 424.737 663.27L423.502 662.109L422.689 662.341C421.823 665.49 423.734 669.784 422.485 672.198C424.772 681.267 427.572 689.006 432.092 697.23C408.557 692.393 385.459 686.378 363.323 676.945C364.163 673.714 364.631 670.374 365.423 667.119C390.81 650.785 389.988 619.572 396.402 593.213C399.548 580.284 404.338 567.489 409.192 555.116C410.995 550.52 412.642 545.623 414.863 541.233C417.47 536.08 423.049 533.366 426.306 528.654C427.421 527.041 429.096 524.358 428.762 522.344L427.71 522.303C424.128 524.183 421.845 526.616 419.23 529.609C421.45 523.456 428.017 508.664 426.09 502.57L425.378 502.345C425.209 502.453 425.03 502.545 424.872 502.668C420.796 505.84 418.212 514.004 416.058 518.72C405.427 541.991 395.48 565.988 388.891 590.758C385.821 602.3 384.37 614.427 381.83 626.115C379.066 638.837 374.459 653.096 362.728 660.332C351.025 667.552 334.065 663.77 321.583 660.839C319.151 660.455 316.75 659.718 314.406 658.976C311.36 657.963 308.38 656.873 305.404 655.667C303.493 655 301.428 654.489 299.847 653.186C298.657 652.702 297.598 652.025 296.504 651.36C291.769 649.099 287.426 645.834 284.528 641.413C276.502 629.169 279.025 611.827 281.598 598.329C283.019 590.874 284.89 583.581 287.489 576.443C295.218 555.22 305.885 535.43 316.316 515.463C330.593 488.135 344.909 459.623 364.527 435.637C370.492 428.345 376.832 422.524 384.609 417.228C387.229 415.386 389.88 413.587 392.559 411.831C412.821 418.453 423.313 417.763 443.281 419.751C454.789 420.914 466.216 422.775 477.498 425.322C483.16 426.615 489.308 427.895 494.631 430.195L500.995 432.308C501.23 431.264 501.277 430.105 501.403 429.038C473.322 413.093 440.633 414.981 410.081 409.051C400.187 407.13 391.334 402.154 381.6 400.243L379.837 400.738C378.781 401.352 377.822 401.797 377.189 402.894L377.607 403.964C379.867 405.786 383.022 406.564 385.733 407.538C379.373 411.11 373.672 415.717 367.872 420.111C367.268 419.337 366.685 418.547 366.123 417.743C359.466 408.158 358.628 396.814 360.65 385.653Z"/><path fill="#48728F" transform="matrix(-1.87793 0 0 1.87793 1923 0)" d="M476.493 591.944C483.865 592.188 491.222 593.023 498.591 593.391C512.18 594.079 525.792 594.177 539.389 593.685C562.822 592.826 585.825 589.252 609.14 587.297C609.625 589.42 610.436 591.486 611.149 593.543C614.652 608.209 622.078 623.331 631.17 635.288C634.506 639.675 638.41 643.66 641.652 648.103C641.053 651.415 640.559 654.802 639.716 658.059C639.431 659.656 639.117 661.188 638.654 662.743C637.552 665.252 636.625 667.821 635.685 670.393C633.15 676.51 630.456 683.563 626.341 688.815C616.43 693.656 604.54 695.723 593.773 697.902C541.853 708.408 490.103 707.18 438.068 698.236C435.141 692.964 432.622 687.475 430.532 681.819C429.005 676.926 427.746 671.952 426.188 667.068C425.906 665.682 425.613 664.475 425.831 663.051C428.379 659.142 433.937 658.032 437.799 655.655C459.892 642.052 470.845 616.188 476.493 591.944Z"/><path fill="#2C506C" transform="matrix(-1.87793 0 0 1.87793 1923 0)" d="M430.532 681.819C440.943 683.399 451.156 686.058 461.614 687.501C505.161 693.509 551.615 694.076 594.774 684.909C603.409 683.075 612.383 680.542 620.573 677.185C625.363 675.222 630.127 671.273 635.276 670.446C635.412 670.424 635.549 670.411 635.685 670.393C633.15 676.51 630.456 683.563 626.341 688.815C616.43 693.656 604.54 695.723 593.773 697.902C541.853 708.408 490.103 707.18 438.068 698.236C435.141 692.964 432.622 687.475 430.532 681.819Z"/><path fill="#2C506C" transform="matrix(-1.87793 0 0 1.87793 1923 0)" d="M638.654 662.743C630.585 655.035 622.608 646.049 616.93 636.452C609.944 624.643 605.577 611.477 601.863 598.338C601.226 596.085 599.726 592.553 600.314 590.281L601.129 590.155C602.428 591.293 603.127 592.85 603.766 594.429C607.586 603.859 609.333 612.997 613.905 622.85C619.773 635.498 628.57 648.324 639.118 657.545L639.716 658.059C639.431 659.656 639.117 661.188 638.654 662.743Z"/><path fill="#2C506C" transform="matrix(-1.87793 0 0 1.87793 1923 0)" d="M485.721 594.269C486.186 594.661 486.303 594.957 486.568 595.493C486.885 604.102 482.557 615.907 479.395 623.916C469.943 647.851 453.202 664 429.77 674.09C429.273 672.899 429.044 672.022 428.96 670.734C430.261 669.134 433.218 668.273 435.096 667.386C456.804 657.128 470.672 638.484 478.761 616.26C481.393 609.028 483.119 601.505 485.721 594.269Z"/><path fill="#232024" transform="matrix(-1.87793 0 0 1.87793 1923 0)" d="M550.945 428.237C548.855 425 547.048 422.495 547.938 418.466C548.35 416.603 549.456 414.919 551.151 413.987C552.655 413.161 554.393 413.064 556.022 413.553C558.218 414.212 558.992 415.504 559.936 417.435C559.417 419.323 558.984 421.286 558.267 423.106C558.118 424.815 558.463 425.897 559.271 427.41L560.12 429.569C568.538 460.843 568.658 494.829 566.861 526.917C567.488 527.273 568.136 527.619 568.712 528.056C570.031 529.057 571.132 530.732 571.087 532.434C571.025 534.742 569.233 536.444 567.765 538.013C568.159 539.69 568.866 541.813 568.825 543.529C568.774 545.641 567.881 547.889 566.337 549.36C565.169 550.472 563.646 551.161 562.002 550.965C560.513 550.787 559.293 549.931 558.431 548.733C556.192 545.624 557.073 542.273 557.581 538.783C556.486 537.217 555.255 535.677 554.859 533.769C554.245 530.809 556.591 528.363 558.25 526.218C560.275 493.521 558.57 461.827 551.226 429.844C549.615 431.335 547.75 432.39 545.885 433.53L550.945 428.237Z"/><path fill="#232024" transform="matrix(-1.87793 0 0 1.87793 1923 0)" d="M502.11 423.714C501.948 421.36 501.913 419.641 503.481 417.752C504.635 416.369 506.309 415.525 508.108 415.419C510.265 415.274 512.379 416.077 513.897 417.617C515.277 419.011 516.239 421.029 516.17 423.015C516.121 424.406 515.692 425.798 515.304 427.126C516.411 429.721 518.931 433.466 519.351 436.058L518.126 436.942C517.998 439.444 518.528 442.004 518.715 444.502C518.996 448.261 519.005 452.082 518.89 455.848C518.2 478.403 514.631 501.381 518.818 523.82C520.56 524.904 522.365 526.137 522.935 528.248C523.443 530.119 523.148 532.116 522.123 533.761C521.434 534.867 520.545 535.875 519.722 536.883C520.591 540.121 521.739 543.101 519.93 546.265C519.146 547.637 517.92 548.878 516.309 549.191C514.663 549.51 513.304 549.17 511.971 548.188C510.325 546.974 509.104 544.719 508.943 542.688C508.791 540.769 509.074 538.707 509.235 536.79C507.638 534.844 506.082 533.017 506.44 530.339C506.758 527.955 508.477 526.139 509.939 524.346C509.075 512.875 508.281 501.518 508.605 490.001C508.925 478.651 510.245 467.323 510.518 455.979C510.688 448.933 508.981 441.775 509.26 434.84L508.851 432.615C507.735 427.954 505.367 427.501 502.46 424.127L502.11 423.714Z"/><path fill="#1B2B3F" transform="matrix(-1.87793 0 0 1.87793 1923 0)" d="M422.485 672.198C421.389 668.489 419.966 663.879 422.023 660.333C425.296 654.689 433.558 650.707 438.644 646.634C442.917 643.212 447.027 639.352 450.533 635.139C456.894 627.493 462.02 617.029 465.607 607.79C467.465 603.003 468.931 597.908 471.223 593.312C471.88 591.994 472.943 589.301 474.327 588.885C479.443 587.349 497.21 589.471 503.826 589.502C520.69 589.642 537.554 589.249 554.393 588.325C565.871 587.644 577.33 586.657 588.755 585.364C595.285 584.677 602.134 583.496 608.687 583.558C609.93 583.57 610.734 583.829 611.834 584.382L609.471 584.454C608.994 586.242 609.841 587.639 610.557 589.305C611.202 590.805 611.288 591.926 611.149 593.543C610.436 591.486 609.625 589.42 609.14 587.297C585.825 589.252 562.822 592.826 539.389 593.685C525.792 594.177 512.18 594.079 498.591 593.391C491.222 593.023 483.865 592.188 476.493 591.944C470.845 616.188 459.892 642.052 437.799 655.655C433.937 658.032 428.379 659.142 425.831 663.051C425.613 664.475 425.906 665.682 426.188 667.068C426.017 666.846 425.842 666.628 425.677 666.402C424.942 665.396 424.887 664.477 424.737 663.27L423.502 662.109L422.689 662.341C421.823 665.49 423.734 669.784 422.485 672.198Z"/><path fill="#2C506C" transform="matrix(-1.87793 0 0 1.87793 1923 0)" d="M381.6 400.243C385.452 399.186 389.105 399.087 393.052 399.432C402.222 400.234 411.373 402.924 420.483 404.402C435.843 406.896 451.551 408.363 466.71 411.918C474.875 413.833 483.073 416.263 490.792 419.545C492.209 420.147 500.667 424.32 501.66 424.207C501.881 424.182 501.96 423.878 502.11 423.714L502.46 424.127C505.367 427.501 507.735 427.954 508.851 432.615C508.747 432.653 508.648 432.722 508.537 432.731C506.715 432.889 503.039 430.047 501.403 429.038C473.322 413.093 440.633 414.981 410.081 409.051C400.187 407.13 391.334 402.154 381.6 400.243Z"/><path fill="#2C506C" transform="matrix(-1.87793 0 0 1.87793 1923 0)" d="M384.609 417.228C387.229 415.386 389.88 413.587 392.559 411.831C412.821 418.453 423.313 417.763 443.281 419.751C454.789 420.914 466.216 422.775 477.498 425.322C483.16 426.615 489.308 427.895 494.631 430.195L494.15 431.176C493.351 430.909 477.032 429.537 474.036 429.15C444.201 425.293 414.192 422.793 384.609 417.228Z"/><path fill="#2C506C" transform="matrix(-1.87793 0 0 1.87793 1923 0)" d="M360.65 385.653C364.233 391.347 366.397 398.332 373.714 400.217C375.634 400.712 377.848 400.563 379.837 400.738C378.781 401.352 377.822 401.797 377.189 402.894L377.607 403.964C379.867 405.786 383.022 406.564 385.733 407.538C379.373 411.11 373.672 415.717 367.872 420.111C367.268 419.337 366.685 418.547 366.123 417.743C359.466 408.158 358.628 396.814 360.65 385.653Z"/><path fill="#2C506C" transform="matrix(-1.87793 0 0 1.87793 1923 0)" d="M599.054 373.3C601.178 379.195 601.671 386.681 598.814 392.388C594.225 401.556 578.678 409.095 570.13 414.664C566.085 417.349 562.129 420.165 558.267 423.106C558.984 421.286 559.417 419.323 559.936 417.435L560.076 417.657C560.297 417.677 560.526 417.778 560.739 417.718C561.611 417.472 564.584 413.683 565.505 412.82C569.28 409.283 573.738 406.299 577.833 403.134C589.585 394.05 597.081 388.782 599.054 373.3Z"/><path fill="#2C506C" transform="matrix(-1.87793 0 0 1.87793 1923 0)" d="M598.258 404.535L602.925 409.09C594.23 415.989 570.93 426.94 560.12 429.569L559.271 427.41C572.854 422.13 586.817 413.534 598.258 404.535Z"/><path fill="#2C506C" transform="matrix(-1.87793 0 0 1.87793 1923 0)" d="M587.958 356.943C591.036 361.011 589.17 364.915 591.351 368.932C591.331 369.101 591.324 369.272 591.291 369.439C589.923 376.354 577.949 394.489 572.155 398.74C573.654 394.098 576.266 389.761 578.478 385.418C583.192 376.16 586.361 367.23 587.958 356.943Z"/><path fill="#2C506C" transform="matrix(-1.87793 0 0 1.87793 1923 0)" d="M670.122 655.298C672.614 651.225 676.842 640.637 679.725 638.244L680.835 638.433C685.52 643.59 678.787 646.231 679.572 650.821C676.654 652.681 673.329 654.013 670.122 655.298Z"/><path fill="#2C506C" transform="matrix(-1.87793 0 0 1.87793 1923 0)" d="M296.504 651.36C296.469 647.959 294.547 645.097 295.061 641.422C295.302 639.692 296.006 638.241 297.369 637.137L298.206 637.6C299.17 639.858 300.016 642.047 300.678 644.42C299.345 646.502 298.463 647.686 299.059 650.233C299.29 651.222 299.573 652.208 299.847 653.186C298.657 652.702 297.598 652.025 296.504 651.36Z"/><path fill="#234057" transform="matrix(-1.87793 0 0 1.87793 1923 0)" d="M314.406 658.976C314.7 658.858 314.995 658.744 315.287 658.623C318.299 657.375 323.198 652.719 326.404 653.302L327.256 654.089C327.284 655.324 326.964 655.937 326.104 656.853C324.991 658.038 322.022 659.445 321.583 660.839C319.151 660.455 316.75 659.718 314.406 658.976Z"/><path fill="#1B2B3F" transform="matrix(-1.87793 0 0 1.87793 1923 0)" d="M300.678 644.42C302.329 648.069 304.326 651.811 305.404 655.667C303.493 655 301.428 654.489 299.847 653.186C299.573 652.208 299.29 651.222 299.059 650.233C298.463 647.686 299.345 646.502 300.678 644.42Z"/><path fill="#1B2B3F" transform="matrix(-1.87793 0 0 1.87793 1923 0)" d="M501.403 429.038C503.039 430.047 506.715 432.889 508.537 432.731C508.648 432.722 508.747 432.653 508.851 432.615L509.26 434.84L500.995 432.308C501.23 431.264 501.277 430.105 501.403 429.038Z"/><path fill="#2C506C" transform="matrix(-1.87793 0 0 1.87793 1923 0)" d="M389.746 344.386C390.939 345.572 391.449 347.578 392.121 349.117C395.129 356.007 398.142 360.835 404.138 365.543C416.703 375.406 433.736 380.657 448.353 386.929C458.684 391.362 468.692 396.514 478.302 402.348C483.606 405.616 489.08 409.068 493.292 413.718L492.973 414.432C487.898 412.464 483.21 409.268 478.457 406.628C471.565 402.886 464.582 399.316 457.513 395.92C440.697 387.94 422.243 382.825 406.467 372.767C399.559 368.362 390.158 360.587 388.466 352.123C387.821 348.896 387.964 347.148 389.746 344.386Z"/><path fill="#2C506C" transform="matrix(-1.87793 0 0 1.87793 1923 0)" d="M384.462 425.125C385.556 425.024 386.64 424.961 387.729 425.154C397.004 426.791 405.308 436.137 410.249 443.624C418.682 456.401 422.795 470.954 424.057 486.115C424.398 490.209 424.813 494.71 423.964 498.761C423.157 499.031 422.859 499.075 421.966 499.056C419.848 495.241 420.928 487.652 420.438 483.172C419.045 470.448 415.08 456.966 407.983 446.221C404.489 440.931 399.677 435.105 394.419 431.496C391.739 429.656 386.771 428.168 384.89 425.722C384.741 425.528 384.605 425.324 384.462 425.125Z"/><path fill="#FCF1D6" transform="matrix(-1.87793 0 0 1.87793 1923 0)" d="M437.314 357.471C440.871 332.05 439.961 305.674 437.274 280.215C432.239 232.503 416.361 174.578 445.353 131.199C457.286 113.626 475.684 101.484 496.534 97.4208C517.05 93.4373 538.764 96.9873 556.128 108.897C569.919 118.355 578.516 131.146 581.558 147.559C573.394 147.243 565.023 146.741 557.406 150.258C539.143 158.691 549.743 179.054 540.594 189.627C535.165 195.899 523.651 197.802 520.971 206.185C520.484 207.711 520.504 209.209 521.32 210.629C523.885 215.096 530.594 216.992 535.189 218.433L537.875 219.359C544.007 222.744 550.663 222.966 557.253 224.718C549.798 227.27 544.341 231.246 540.792 238.474C536.989 246.219 536.385 254.734 536.028 263.207C535.552 303.824 546.099 343.334 558.952 381.491C551.14 395.258 542.405 408.486 533.858 421.801C510.261 393.19 470.141 373.349 437.314 357.471Z"/><path fill="#DBCAA7" transform="matrix(-1.87793 0 0 1.87793 1923 0)" d="M535.189 218.433L537.875 219.359C544.007 222.744 550.663 222.966 557.253 224.718C549.798 227.27 544.341 231.246 540.792 238.474C536.989 246.219 536.385 254.734 536.028 263.207L533.764 263.3C532.783 262.851 532.014 262.424 531.24 261.657C527.42 257.866 526.999 250.36 527.056 245.232C527.151 236.651 528.793 224.634 535.189 218.433Z"/><path fill="#232024" transform="matrix(-1.87793 0 0 1.87793 1923 0)" d="M506.946 136.981C507.743 136.968 508.541 136.958 509.337 137C512.422 137.161 515.646 138.871 517.637 141.217C520.159 144.19 520.864 148.121 520.366 151.912C519.713 156.876 517.554 160.925 513.62 163.997C512.178 164.414 510.756 164.701 509.244 164.522C506.838 164.237 504.684 162.548 503.362 160.591C500.515 156.377 500.144 150.334 501.301 145.505C502.178 141.841 503.69 138.959 506.946 136.981Z"/><path fill="#2C506C" transform="matrix(-1.87793 0 0 1.87793 1923 0)" d="M359.656 703.664C381.023 713.282 399.21 718.12 421.72 723.928C419.745 726.318 417.87 728.669 415.441 730.622C404.479 738.253 392.541 739.86 379.478 738.278C378.159 738.955 378.071 738.913 377.495 740.262C377.826 741.472 377.824 741.894 378.941 742.588C379.203 742.75 379.488 742.871 379.762 743.012C383.381 744.155 387.907 744.236 391.671 744.07C405.476 743.459 416.536 738.309 425.875 728.194C426.488 727.185 427.184 726.33 427.932 725.421C429.777 724.808 430.608 725.154 432.488 725.524C433.014 725.606 433.552 725.744 434.084 725.704C462.337 730.338 490.924 732.632 519.555 732.562C519.394 735.07 519.311 737.563 518.725 740.016C516.909 752.38 515.046 764.921 509.871 776.42C503.886 776.887 489.504 778.38 484.503 780.938C482.932 781.742 481.615 783.02 480.488 784.359C476.034 789.653 473.011 796.911 469.822 803.031C464.594 813.066 458.966 823.071 454.431 833.438C449.391 844.956 445.724 856.977 441.979 868.959C427.123 874.314 409.361 873.345 394.194 869.772L392.035 869.315L387.32 867.812C383.8 849.756 383.748 830.758 379.127 812.94C376.792 803.933 371.668 795.771 368.251 787.137C359.058 763.91 357.118 740.329 358.367 715.613C358.777 711.629 359.288 707.651 359.656 703.664Z"/><path fill="#2C506C" transform="matrix(-1.87793 0 0 1.87793 1923 0)" d="M359.656 703.664C381.023 713.282 399.21 718.12 421.72 723.928C419.745 726.318 417.87 728.669 415.441 730.622C404.479 738.253 392.541 739.86 379.478 738.278C378.159 738.955 378.071 738.913 377.495 740.262C377.826 741.472 377.824 741.894 378.941 742.588C379.203 742.75 379.488 742.871 379.762 743.012L377.647 742.8C375.501 745.467 377.21 757.562 377.625 761.51C379.46 778.95 386.354 794.787 389.524 811.816C390.981 819.641 391.286 827.682 391.811 835.613C392.54 847.004 393.334 858.39 394.194 869.772L392.035 869.315L387.32 867.812C383.8 849.756 383.748 830.758 379.127 812.94C376.792 803.933 371.668 795.771 368.251 787.137C359.058 763.91 357.118 740.329 358.367 715.613C358.777 711.629 359.288 707.651 359.656 703.664Z"/><path fill="#2C506C" transform="matrix(-1.87793 0 0 1.87793 1923 0)" d="M359.656 703.664C381.023 713.282 399.21 718.12 421.72 723.928C419.745 726.318 417.87 728.669 415.441 730.622C404.479 738.253 392.541 739.86 379.478 738.278C378.848 738.119 377.699 738.067 377.333 737.492C375.117 734.019 378.178 722.496 378.877 718.463C379.103 717.436 379.517 716.155 379.519 715.114C379.522 713.962 379.176 713.75 378.371 713.112L377.431 713.497C376.514 714.808 376.221 715.886 375.883 717.441C372.641 715.158 364.512 712.935 360.612 713.665C359.234 713.923 359.127 714.513 358.367 715.613C358.777 711.629 359.288 707.651 359.656 703.664Z"/><path fill="#234057" transform="matrix(-1.87793 0 0 1.87793 1923 0)" d="M359.656 703.664C381.023 713.282 399.21 718.12 421.72 723.928C419.745 726.318 417.87 728.669 415.441 730.622C413.396 728.262 384.74 720.876 378.877 718.463C379.103 717.436 379.517 716.155 379.519 715.114C379.522 713.962 379.176 713.75 378.371 713.112L377.431 713.497C376.514 714.808 376.221 715.886 375.883 717.441C372.641 715.158 364.512 712.935 360.612 713.665C359.234 713.923 359.127 714.513 358.367 715.613C358.777 711.629 359.288 707.651 359.656 703.664Z"/><path fill="#1B2B3F" transform="matrix(-1.87793 0 0 1.87793 1923 0)" d="M375.883 717.441C376.221 715.886 376.514 714.808 377.431 713.497L378.371 713.112C379.176 713.75 379.522 713.962 379.519 715.114C379.517 716.155 379.103 717.436 378.877 718.463C378.178 722.496 375.117 734.019 377.333 737.492C377.699 738.067 378.848 738.119 379.478 738.278C378.159 738.955 378.071 738.913 377.495 740.262C377.826 741.472 377.824 741.894 378.941 742.588C379.203 742.75 379.488 742.871 379.762 743.012L377.647 742.8C375.501 745.467 377.21 757.562 377.625 761.51C379.46 778.95 386.354 794.787 389.524 811.816C390.981 819.641 391.286 827.682 391.811 835.613C392.54 847.004 393.334 858.39 394.194 869.772L392.035 869.315C393.232 865.602 391.304 857.754 391.024 853.595C390.088 839.708 389.903 824.942 387.085 811.313C385.598 804.124 382.437 797.231 380.429 790.156C374.393 768.889 369.795 739.007 375.883 717.441Z"/><path fill="#234057" transform="matrix(-1.87793 0 0 1.87793 1923 0)" d="M434.084 725.704C462.337 730.338 490.924 732.632 519.555 732.562C519.394 735.07 519.311 737.563 518.725 740.016C514.162 738.746 508.454 739.011 503.726 738.755C496.911 738.379 490.101 737.895 483.301 737.305C466.193 735.778 449.435 733.055 432.586 729.814C433.171 728.484 433.605 727.077 434.084 725.704Z"/><path fill="#1B2B3F" transform="matrix(-1.87793 0 0 1.87793 1923 0)" d="M425.875 728.194C426.488 727.185 427.184 726.33 427.932 725.421C429.777 724.808 430.608 725.154 432.488 725.524C433.014 725.606 433.552 725.744 434.084 725.704C433.605 727.077 433.171 728.484 432.586 729.814C429.957 733.557 427.085 736.766 423.504 739.635C412.393 748.539 396.731 752.594 382.652 750.722C380.815 750.477 378.577 750.294 377.376 748.718L377.577 747.756C384.153 746.339 393.413 748.366 401.563 746.659C412.075 744.458 422.876 738.844 428.86 729.707L429.252 729.1L425.875 728.194Z"/><path fill="#234057" transform="matrix(-1.87793 0 0 1.87793 1923 0)" d="M425.875 728.194C426.488 727.185 427.184 726.33 427.932 725.421C429.777 724.808 430.608 725.154 432.488 725.524C431.395 726.695 430.248 727.846 429.252 729.1L425.875 728.194Z"/><path fill="#2C506C" transform="matrix(-1.87793 0 0 1.87793 1923 0)" d="M601.025 723.171C602.141 722.803 603.288 722.693 604.448 722.543C604.945 722.652 605.495 722.621 605.939 722.87C606.54 723.208 607.724 725.318 608.211 726.026C612.539 732.318 617.979 738.687 625.58 741.028C626.557 743.965 623.098 752.754 621.543 755.681C621.051 756.608 620.403 757.315 619.707 758.09C613.399 772.839 605.32 786.37 598.372 800.759C588.925 820.322 581.888 842.02 577.259 863.238C564.638 865.649 549.574 866.416 537.097 862.76L534.52 861.956C533.574 861.707 532.333 861.504 531.473 861.059C529.273 859.922 529.407 850.522 529.208 847.855C527.525 825.311 519.307 804.457 511.562 783.456C520.078 782.401 527.971 780.95 536.179 778.476C539.476 777.292 543.626 775.756 545.817 772.923L545.498 772.151C541.051 770.848 520.219 775.299 514.032 776.269C514.513 774.546 515.021 771.946 516.05 770.473C516.942 769.196 523.057 769.054 524.614 768.562C526.363 768.009 528.124 766.937 529.632 765.905C538.545 759.805 541.138 747.466 543.077 737.577C543.293 735.528 543.747 733.552 544.189 731.543C559.352 730.222 587.353 727.946 601.025 723.171Z"/><path fill="#234057" transform="matrix(-1.87793 0 0 1.87793 1923 0)" d="M511.562 783.456C520.078 782.401 527.971 780.95 536.179 778.476C533.79 780.88 529.554 781.345 526.336 782.063C528.825 787.443 529.568 793.318 530.723 799.094C533.292 811.939 535.397 824.447 536.172 837.56C536.667 845.946 536.191 854.408 537.097 862.76L534.52 861.956C533.574 861.707 532.333 861.504 531.473 861.059C529.273 859.922 529.407 850.522 529.208 847.855C527.525 825.311 519.307 804.457 511.562 783.456Z"/><path fill="#1B2B3F" transform="matrix(-1.87793 0 0 1.87793 1923 0)" d="M534.52 861.956C536.436 856.74 532.064 817.89 530.669 810.234C529.645 804.611 523.44 786.664 524.712 782.796L526.336 782.063C528.825 787.443 529.568 793.318 530.723 799.094C533.292 811.939 535.397 824.447 536.172 837.56C536.667 845.946 536.191 854.408 537.097 862.76L534.52 861.956Z"/><path fill="#234057" transform="matrix(-1.87793 0 0 1.87793 1923 0)" d="M544.189 731.543C559.352 730.222 587.353 727.946 601.025 723.171C601.545 725.296 602.021 727.201 603.501 728.872C589.483 731.852 575.615 734.55 561.375 736.257C555.34 736.981 549.017 736.519 543.077 737.577C543.293 735.528 543.747 733.552 544.189 731.543Z"/><path fill="#1B2B3F" transform="matrix(-1.87793 0 0 1.87793 1923 0)" d="M601.025 723.171C602.141 722.803 603.288 722.693 604.448 722.543C604.945 722.652 605.495 722.621 605.939 722.87C606.54 723.208 607.724 725.318 608.211 726.026C612.539 732.318 617.979 738.687 625.58 741.028C626.557 743.965 623.098 752.754 621.543 755.681C621.051 756.608 620.403 757.315 619.707 758.09L623.506 747.348C614.351 743.221 608.078 737.901 603.501 728.872C602.021 727.201 601.545 725.296 601.025 723.171Z"/><path fill="#2C506C" transform="matrix(-1.87793 0 0 1.87793 1923 0)" d="M604.448 722.543C604.945 722.652 605.495 722.621 605.939 722.87C606.54 723.208 607.724 725.318 608.211 726.026C612.539 732.318 617.979 738.687 625.58 741.028C625.276 742.078 625.103 742.695 624.312 743.469C622.527 743.442 620.858 742.693 619.316 741.836C613.24 738.457 605.602 730.057 603.75 723.309L604.448 722.543Z"/><path fill="#EC6B11" transform="matrix(-1.87793 0 0 1.87793 1923 0)" d="M569.176 155.607C574.589 155.319 579.799 155.55 585.176 156.235C596.049 171.721 629.286 188.899 647.814 194.886C653.806 196.823 662.462 196.967 667.424 200.93C669.155 202.313 670.783 204.623 670.985 206.879C671.133 208.535 670.489 210.113 669.381 211.326C663.143 218.157 643.359 218.154 634.515 218.459C627.668 218.476 620.823 218.211 613.997 217.666C596.425 216.373 579.022 213.482 561.529 211.454C553.009 210.466 543.929 210.62 535.572 208.959C533.985 208.644 532.683 208.319 531.611 207.079C536.556 202.789 543.479 200.439 547.885 195.471C556.818 185.397 551.158 171.469 557.335 162.236C560.15 158.027 564.435 156.515 569.176 155.607Z"/><path fill="#381914" transform="matrix(-1.87793 0 0 1.87793 1923 0)" d="M575.944 177.86C577.823 177.967 579.651 178.558 581.356 179.34C584.979 181.001 590.728 184.309 591.986 188.252C592.384 189.499 592.166 189.668 591.6 190.773C590.078 191.239 588.569 191.551 586.984 191.238C582.83 190.417 577.964 186.403 576.009 182.738C575.016 180.877 575.313 179.723 575.944 177.86Z"/><path fill="#EC6B11" transform="matrix(-1.87793 0 0 1.87793 1923 0)" d="M425.653 895.695C430.707 895.272 435.382 894.174 440.21 892.649C447.594 898.679 454.964 904.737 462.707 910.304C470.045 915.58 477.978 920.513 484.852 926.374C485.919 927.284 487.153 928.299 487.452 929.734C487.49 929.914 487.48 930.101 487.494 930.285C486.494 931.338 485.576 931.28 484.178 931.339C476.657 931.658 469.24 930.137 461.818 932.04C453.334 934.215 444.298 943.391 436.82 943.881C430.887 944.27 417.498 937.362 411.003 935.383C403.608 933.082 395.908 931.908 388.163 931.901C384.162 931.869 374.723 933.371 371.713 930.375C371.125 929.79 371.181 929.258 371.289 928.456C371.987 923.266 389.606 898.726 393.565 892.966C401.579 894.579 409.468 895.985 417.681 896.033C420.34 895.963 422.998 895.851 425.653 895.695Z"/><path fill="#C44A10" transform="matrix(-1.87793 0 0 1.87793 1923 0)" d="M417.681 896.033C420.34 895.963 422.998 895.851 425.653 895.695C425.635 895.865 425.6 896.033 425.599 896.204C425.587 898.488 427.201 901.897 427.918 904.16C430.015 910.781 438.957 936.641 435.313 941.384C433.859 941.386 432.937 940.7 431.929 939.622C426.3 933.606 422.186 905.53 417.681 896.033Z"/><path fill="#EC6B11" transform="matrix(-1.87793 0 0 1.87793 1923 0)" d="M581.663 883.138C606.789 889.077 635.575 893.135 659.292 903.083C651.661 903.79 634.504 903.923 629.315 910.438C626.961 913.394 628.192 918.787 624.872 920.577L621.914 920.404C618.458 919.521 614.544 919.313 610.99 918.73C604.44 918.032 596.942 917.421 590.522 919.15C585.017 920.633 579.927 927.113 574.245 926.297C565.25 925.005 534.381 903.527 528.692 895.724C529.044 891.881 530.102 888.387 531.396 884.774C539.003 886.698 546.633 887.457 554.468 887.507C558.574 887.38 562.678 887.21 566.781 886.996C571.969 886.143 576.856 885.418 581.663 883.138Z"/><path fill="#EC6B11" transform="matrix(-1.87793 0 0 1.87793 1923 0)" d="M581.663 883.138C606.789 889.077 635.575 893.135 659.292 903.083C651.661 903.79 634.504 903.923 629.315 910.438C626.961 913.394 628.192 918.787 624.872 920.577L621.914 920.404C621.887 919.51 622.004 917.287 621.647 916.478C618.857 910.163 574.574 894.393 566.781 886.996C571.969 886.143 576.856 885.418 581.663 883.138Z"/><path fill="#C44A10" transform="matrix(-1.87793 0 0 1.87793 1923 0)" d="M554.468 887.507C558.574 887.38 562.678 887.21 566.781 886.996C574.574 894.393 618.857 910.163 621.647 916.478C622.004 917.287 621.887 919.51 621.914 920.404C618.458 919.521 614.544 919.313 610.99 918.73C611.214 918.442 611.544 918.249 611.856 918.061C611.941 918.009 612.044 917.995 612.138 917.962C611.649 917.136 611.216 916.831 610.388 916.359C606.87 914.352 602.822 912.891 599.131 911.19C587.26 905.717 563.928 895.442 554.468 887.507Z"/><path fill="#FCF1D6" transform="matrix(-1.87793 0 0 1.87793 1923 0)" d="M283.044 672.2C302.788 684.635 324.425 688.662 347.436 688.482C342.234 699.687 333.699 709.439 324.035 717.036C310.501 727.675 297.307 732.452 280.088 730.316C278.719 729.817 277.424 729.27 276.163 728.533C274.426 727.519 273.576 726.78 273.073 724.806C274.242 721.286 280.185 719.491 283.157 717.418C287.949 714.077 294.645 705.162 295.613 699.319C295.805 698.163 295.879 698.639 295.221 697.666C292.044 698.149 284.322 707.446 280.526 709.963C274.918 713.68 267.18 715.654 260.487 714.154C258.816 713.78 257.711 713.267 256.763 711.796C256.679 710.577 256.613 710.206 257.309 709.136C258.869 706.737 261.67 704.713 263.716 702.699C266.054 700.396 268.171 697.798 270.125 695.166C275.446 688 279.31 680.258 283.044 672.2Z"/><path fill="#DBCAA7" transform="matrix(-1.87793 0 0 1.87793 1923 0)" d="M351.592 700.217L352.624 700.683C353.438 702.785 350.47 717.902 350.294 721.784C349.503 739.229 350.421 756.798 355.515 773.6C347.803 768.511 340.214 763.239 332.754 757.788C324.355 751.297 316.883 744.894 310.853 736.061C328.181 728.05 340.694 715.626 351.592 700.217Z"/><path fill="#DBCAA7" transform="matrix(-1.87793 0 0 1.87793 1923 0)" d="M683.702 676.908L684.402 677.038L684.742 677.697C683.704 680.7 682.646 683.697 681.566 686.685C673.446 708.931 658.876 727.209 637.152 737.304L636.281 737.162C636.369 734.139 638.016 730.915 638.712 727.941C640.107 721.986 640.829 716.057 641.149 709.957C641.84 709.333 642.522 708.699 643.195 708.055C649.587 701.901 649.3 692.831 649.496 684.613C661.821 684.629 672.584 682.234 683.702 676.908Z"/><path fill="#FCF1D6" transform="matrix(-1.87793 0 0 1.87793 1923 0)" d="M264.999 598.772C267.386 601.439 269.761 604.07 272.353 606.54C270.597 620.787 270.809 633.967 279.035 646.293C276.691 652.941 275.5 658.408 275.89 665.478C275.982 667.142 275.568 668.142 274.821 669.614C272.675 673.772 270.26 677.797 267.917 681.847C260.709 671.835 255.252 662.53 251.467 650.694C250.315 646.722 249.458 642.788 248.723 638.719C252.598 641.693 263.583 649.111 268.63 648.126C269.974 647.864 270.061 647.502 270.756 646.422C271.032 642.4 268.214 637.991 266.788 634.272C262.543 623.196 261.954 610.217 264.999 598.772Z"/><path fill="#DBCAA7" transform="matrix(-1.87793 0 0 1.87793 1923 0)" d="M251.467 650.694L252.994 650.29C253.773 650.833 254.122 651.308 254.619 652.083C259.466 659.632 267.505 664.75 274.821 669.614C272.675 673.772 270.26 677.797 267.917 681.847C260.709 671.835 255.252 662.53 251.467 650.694Z"/><path fill="#48728F" transform="matrix(-1.87793 0 0 1.87793 1923 0)" d="M490.087 711.589C491.957 711.582 494.058 711.354 495.861 711.84L502.817 712.049C513.007 711.561 523.243 712.454 533.427 712.021C537.253 712.128 541.129 711.726 544.948 711.473C544.507 715.342 544.418 719.18 544.349 723.072L534.73 723.733C531.786 724.18 528.798 724.038 525.827 724.015C522.562 723.903 519.257 724.011 515.987 724.015L510.97 724.031L503.038 723.94C498.834 724.253 494.648 723.869 490.453 723.575C490.455 719.911 491.163 715.017 490.087 711.589Z"/><path fill="#48728F" transform="matrix(-1.87793 0 0 1.87793 1923 0)" d="M490.087 711.589C491.957 711.582 494.058 711.354 495.861 711.84L502.817 712.049C505.73 712.451 508.582 712.51 511.517 712.543C511.33 716.367 511.061 720.205 510.97 724.031L503.038 723.94C498.834 724.253 494.648 723.869 490.453 723.575C490.455 719.911 491.163 715.017 490.087 711.589Z"/><path fill="#234057" transform="matrix(-1.87793 0 0 1.87793 1923 0)" d="M490.087 711.589C491.957 711.582 494.058 711.354 495.861 711.84C494.746 712.84 494.908 713.789 494.828 715.219C494.674 717.964 494.78 720.722 494.589 723.465C497.383 723.547 500.28 723.467 503.038 723.94C498.834 724.253 494.648 723.869 490.453 723.575C490.455 719.911 491.163 715.017 490.087 711.589Z"/><path fill="#48728F" transform="matrix(-1.87793 0 0 1.87793 1923 0)" d="M533.427 712.021C537.253 712.128 541.129 711.726 544.948 711.473C544.507 715.342 544.418 719.18 544.349 723.072L534.73 723.733C533.505 723.541 533.399 723.715 532.478 722.788C532.013 719.776 531.76 714.674 533.427 712.021Z"/><path fill="#234057" transform="matrix(-1.87793 0 0 1.87793 1923 0)" d="M502.817 712.049C513.007 711.561 523.243 712.454 533.427 712.021C531.76 714.674 532.013 719.776 532.478 722.788C533.399 723.715 533.505 723.541 534.73 723.733C531.786 724.18 528.798 724.038 525.827 724.015L526.96 723.515C528.38 721.297 527.931 715.219 528.011 712.542L516.403 712.516L515.987 724.015L510.97 724.031C511.061 720.205 511.33 716.367 511.517 712.543C508.582 712.51 505.73 712.451 502.817 712.049Z"/><path fill="#2C506C" transform="matrix(-1.87793 0 0 1.87793 1923 0)" d="M384.932 874.502C403.917 881.402 424.247 880.941 443.559 875.959C443.255 878.535 442.902 881.039 442.358 883.578C424.434 891.878 404.173 887.672 385.903 883.034L384.932 874.502Z"/><path fill="#2C506C" transform="matrix(-1.87793 0 0 1.87793 1923 0)" d="M540.086 731.854L538.99 738.53C536.876 744.717 535.819 751.186 532.44 756.908C528.825 763.028 523.608 764.98 517.142 766.77C520.453 757.533 522.48 748.493 523.52 738.764C523.716 736.68 523.957 734.592 524.094 732.504C529.415 732.252 534.76 731.876 540.086 731.854Z"/><path fill="#234057" transform="matrix(-1.87793 0 0 1.87793 1923 0)" d="M540.086 731.854L538.99 738.53C533.833 738.535 528.675 738.612 523.52 738.764C523.716 736.68 523.957 734.592 524.094 732.504C529.415 732.252 534.76 731.876 540.086 731.854Z"/><path fill="#2C506C" transform="matrix(-1.87793 0 0 1.87793 1923 0)" d="M527.549 866.852L532.5 868.923C533.525 869.115 534.986 869.194 535.911 869.621C550.09 872.711 563.959 872.557 578.18 869.678C577.474 872.401 576.854 875.199 575.991 877.874C561.782 879.537 548.89 879.998 534.692 877.492L532.593 877.33C531.202 877.042 530.083 876.78 528.828 876.068C527.108 873.349 527.568 869.969 527.549 866.852Z"/><path fill="#2C506C" transform="matrix(-1.87793 0 0 1.87793 1923 0)" d="M527.549 866.852L532.5 868.923C532.561 871.312 533.286 875.226 532.593 877.33C531.202 877.042 530.083 876.78 528.828 876.068C527.108 873.349 527.568 869.969 527.549 866.852Z"/><path fill="#1B2B3F" transform="matrix(-1.87793 0 0 1.87793 1923 0)" d="M532.5 868.923C533.525 869.115 534.986 869.194 535.911 869.621L534.842 869.913C533.965 872.139 534.516 875.129 534.692 877.492L532.593 877.33C533.286 875.226 532.561 871.312 532.5 868.923Z"/><path fill="#2C506C" transform="matrix(-1.87793 0 0 1.87793 1923 0)" d="M428.683 317.428L429.137 317.614C430.928 321.31 428.641 346.75 428.216 352.48C425.524 350.526 422.92 348.524 420.366 346.393C419.142 345.042 417.855 343.68 416.835 342.166C414.906 339.302 413.798 335.916 414.528 332.466C415.951 325.743 423.229 320.867 428.683 317.428Z"/><path fill="#DBCAA7" transform="matrix(-1.87793 0 0 1.87793 1923 0)" d="M502.45 785.212L503.061 785.131C505.596 786.302 508.292 796.912 509.348 799.783C501.412 800.484 493.456 800.945 485.491 801.165L479.453 801.287C481.568 796.426 484.233 791.439 487.135 787.003C492.236 786.369 497.341 785.772 502.45 785.212Z"/><path fill="#48728F" transform="matrix(-1.87793 0 0 1.87793 1923 0)" d="M293.998 658.382C296.275 659.503 298.549 660.75 300.894 661.716C302.14 662.254 303.449 662.751 304.653 663.375C307.457 664.535 310.244 665.44 313.162 666.27C314.558 666.56 315.95 666.826 317.31 667.26C319.653 668.054 321.993 668.72 324.385 669.338C323.866 671.619 323.217 677.167 321.442 678.675C321.331 678.769 321.193 678.829 321.069 678.906L314.506 677.28C312.921 677.102 311.701 676.834 310.202 676.29C307.67 675.225 304.836 674.337 302.143 673.826C300.608 673.282 299.304 672.832 298.012 671.823L291.375 668.473C292.562 665.17 293.268 661.81 293.998 658.382Z"/><path fill="#48728F" transform="matrix(-1.87793 0 0 1.87793 1923 0)" d="M293.998 658.382C296.275 659.503 298.549 660.75 300.894 661.716C300.008 664.962 299.376 668.769 298.012 671.823L291.375 668.473C292.562 665.17 293.268 661.81 293.998 658.382Z"/><path fill="#48728F" transform="matrix(-1.87793 0 0 1.87793 1923 0)" d="M317.31 667.26C319.653 668.054 321.993 668.72 324.385 669.338C323.866 671.619 323.217 677.167 321.442 678.675C321.331 678.769 321.193 678.829 321.069 678.906L314.506 677.28C315.709 673.92 316.821 670.814 317.31 667.26Z"/><path fill="#1B2B3F" transform="matrix(-1.87793 0 0 1.87793 1923 0)" d="M313.162 666.27C314.558 666.56 315.95 666.826 317.31 667.26C316.821 670.814 315.709 673.92 314.506 677.28C312.921 677.102 311.701 676.834 310.202 676.29C311.355 673.017 312.212 669.608 313.162 666.27Z"/><path fill="#1B2B3F" transform="matrix(-1.87793 0 0 1.87793 1923 0)" d="M300.894 661.716C302.14 662.254 303.449 662.751 304.653 663.375C303.866 666.827 303.245 670.468 302.143 673.826C300.608 673.282 299.304 672.832 298.012 671.823C299.376 668.769 300.008 664.962 300.894 661.716Z"/><path fill="#48728F" transform="matrix(-1.87793 0 0 1.87793 1923 0)" d="M449.487 707.608C451.25 707.563 453.737 707.426 455.369 708.188C460.398 708.947 465.447 709.56 470.511 710.027C472.212 710.046 473.877 709.993 475.538 710.412C475.502 714.364 475.755 718.571 475.13 722.47C473.575 722.486 472.004 722.296 470.454 722.167C464.825 721.463 459.181 720.88 453.527 720.418C451.565 720.191 449.613 720.186 447.662 719.819L448.447 719.415C449.807 716.931 449.287 710.607 449.487 707.608Z"/><path fill="#234057" transform="matrix(-1.87793 0 0 1.87793 1923 0)" d="M470.511 710.027C472.212 710.046 473.877 709.993 475.538 710.412C475.502 714.364 475.755 718.571 475.13 722.47C473.575 722.486 472.004 722.296 470.454 722.167L470.511 710.027Z"/><path fill="#234057" transform="matrix(-1.87793 0 0 1.87793 1923 0)" d="M449.487 707.608C451.25 707.563 453.737 707.426 455.369 708.188L454.281 708.673C453.582 712.276 453.386 716.734 453.527 720.418C451.565 720.191 449.613 720.186 447.662 719.819L448.447 719.415C449.807 716.931 449.287 710.607 449.487 707.608Z"/><path fill="#2C506C" transform="matrix(-1.87793 0 0 1.87793 1923 0)" d="M683.342 657.239C685.413 656.084 687.353 654.889 689.292 653.521C689.521 657.285 689.792 660.995 689.494 664.761C688.095 665.785 686.709 666.902 685.24 667.822C684.164 668.533 683.182 669.174 681.965 669.635C679.496 670.512 677.052 671.458 674.635 672.47C673.146 673.128 671.764 673.537 670.178 673.894C667.956 674.71 665.514 675.14 663.209 675.695C662.924 672.199 662.603 668.798 661.895 665.358C664.24 664.89 666.554 664.295 668.874 663.721C670.199 663.131 671.537 662.571 672.887 662.041C675.262 661.228 677.546 660.155 679.845 659.147C680.84 658.3 682.168 657.81 683.342 657.239Z"/><path fill="#2C506C" transform="matrix(-1.87793 0 0 1.87793 1923 0)" d="M661.895 665.358C664.24 664.89 666.554 664.295 668.874 663.721C669.238 667.115 669.522 670.543 670.178 673.894C667.956 674.71 665.514 675.14 663.209 675.695C662.924 672.199 662.603 668.798 661.895 665.358Z"/><path fill="#48728F" transform="matrix(-1.87793 0 0 1.87793 1923 0)" d="M683.342 657.239C685.413 656.084 687.353 654.889 689.292 653.521C689.521 657.285 689.792 660.995 689.494 664.761C688.095 665.785 686.709 666.902 685.24 667.822C684.738 664.255 684.098 660.761 683.342 657.239Z"/><path fill="#1B2B3F" transform="matrix(-1.87793 0 0 1.87793 1923 0)" d="M668.874 663.721C670.199 663.131 671.537 662.571 672.887 662.041C673.481 665.232 673.382 669.574 674.635 672.47C673.146 673.128 671.764 673.537 670.178 673.894C669.522 670.543 669.238 667.115 668.874 663.721Z"/><path fill="#1B2B3F" transform="matrix(-1.87793 0 0 1.87793 1923 0)" d="M679.845 659.147C680.84 658.3 682.168 657.81 683.342 657.239C684.098 660.761 684.738 664.255 685.24 667.822C684.164 668.533 683.182 669.174 681.965 669.635C680.401 666.205 680.062 662.848 679.845 659.147Z"/><path fill="#48728F" transform="matrix(-1.87793 0 0 1.87793 1923 0)" d="M411.243 700.242C412.838 700.468 414.482 700.602 416.009 701.135C420.128 702.256 424.259 703.13 428.447 703.954C430.04 704.072 431.455 704.189 432.976 704.692C432.174 708.727 432.254 713.09 431.987 717.2C430.182 716.946 428.381 716.695 426.588 716.366C422.905 715.35 419.075 714.775 415.318 714.087C413.555 713.806 411.802 713.325 410.063 712.92C411.517 709.844 411.061 703.731 411.243 700.242Z"/><path fill="#234057" transform="matrix(-1.87793 0 0 1.87793 1923 0)" d="M411.243 700.242C412.838 700.468 414.482 700.602 416.009 701.135C415.235 705.352 415.398 709.807 415.318 714.087C413.555 713.806 411.802 713.325 410.063 712.92C411.517 709.844 411.061 703.731 411.243 700.242Z"/><path fill="#1B2B3F" transform="matrix(-1.87793 0 0 1.87793 1923 0)" d="M428.447 703.954C430.04 704.072 431.455 704.189 432.976 704.692C432.174 708.727 432.254 713.09 431.987 717.2C430.182 716.946 428.381 716.695 426.588 716.366L427.139 716.017C428.537 713.508 427.951 707.668 428.368 704.526L428.447 703.954Z"/><path fill="#1B2B3F" transform="matrix(-1.87793 0 0 1.87793 1923 0)" d="M611.034 720.481C618.581 718.636 625.843 715.878 633.373 714.015C632.891 716.925 632.218 719.73 631.473 722.582C630.082 727.14 628.851 731.834 627.214 736.305C622.082 733.762 618.25 731.035 614.553 726.607C613.255 724.633 612.159 722.556 611.034 720.481Z"/><path fill="#234057" transform="matrix(-1.87793 0 0 1.87793 1923 0)" d="M614.553 726.607C619.6 724.186 626.082 724.27 631.473 722.582C630.082 727.14 628.851 731.834 627.214 736.305C622.082 733.762 618.25 731.035 614.553 726.607Z"/><path fill="#2C506C" transform="matrix(-1.87793 0 0 1.87793 1923 0)" d="M354.853 692.851C355.956 689.598 357.391 686.639 359.154 683.702C360.947 684.339 362.736 684.992 364.519 685.659C365.715 685.94 366.955 686.15 368.09 686.627C371.514 688.132 375.038 689.352 378.561 690.605C378.205 694.224 378.339 699.523 377.048 702.888C375.255 702.05 373.461 701.382 371.592 700.737C369.148 700.282 365.498 699.955 363.861 697.921L354.853 692.851Z"/><path fill="#2C506C" transform="matrix(-1.87793 0 0 1.87793 1923 0)" d="M354.853 692.851C355.956 689.598 357.391 686.639 359.154 683.702C360.947 684.339 362.736 684.992 364.519 685.659C364.205 689.741 363.986 693.829 363.861 697.921L354.853 692.851Z"/><path fill="#1B2B3F" transform="matrix(-1.87793 0 0 1.87793 1923 0)" d="M364.519 685.659C365.715 685.94 366.955 686.15 368.09 686.627C367.916 689.542 366.707 696.803 368.777 699.175C369.414 699.906 370.713 700.357 371.592 700.737C369.148 700.282 365.498 699.955 363.861 697.921C363.986 693.829 364.205 689.741 364.519 685.659Z"/><path fill="#48728F" transform="matrix(-1.87793 0 0 1.87793 1923 0)" d="M580.637 707.726C582.188 707.069 584.744 707.099 586.46 706.889C586.548 710.557 586.628 714.179 587.097 717.821C585.336 718.144 583.365 718.713 581.588 718.761C577.227 719.488 572.856 720.158 568.478 720.771L563.57 721.203C563.525 717.739 564.525 712.987 563.562 709.724C564.97 709.218 567.041 709.229 568.547 709.05C572.571 708.956 576.645 708.239 580.637 707.726Z"/><path fill="#2C506C" transform="matrix(-1.87793 0 0 1.87793 1923 0)" d="M563.562 709.724C564.97 709.218 567.041 709.229 568.547 709.05L568.478 720.771L563.57 721.203C563.525 717.739 564.525 712.987 563.562 709.724Z"/><path fill="#2C506C" transform="matrix(-1.87793 0 0 1.87793 1923 0)" d="M580.637 707.726C582.188 707.069 584.744 707.099 586.46 706.889C586.548 710.557 586.628 714.179 587.097 717.821C585.336 718.144 583.365 718.713 581.588 718.761C581.861 715.417 582.39 711.654 581.73 708.354L580.637 707.726Z"/><path fill="#2C506C" transform="matrix(-1.87793 0 0 1.87793 1923 0)" d="M554.431 331.349C559.625 334.029 564.631 339.456 567.213 344.678C570.861 352.054 568.934 358.575 566.482 365.905L565.408 368.25C562.314 365.447 555.386 336.894 554.431 331.349Z"/><path fill="#48728F" transform="matrix(-1.87793 0 0 1.87793 1923 0)" d="M563.562 709.724C564.525 712.987 563.525 717.739 563.57 721.203L549.486 722.736C547.738 723.09 546.128 723.096 544.349 723.072C544.418 719.18 544.507 715.342 544.948 711.473L549.55 711.075C554.227 710.694 558.898 710.244 563.562 709.724Z"/><path fill="#234057" transform="matrix(-1.87793 0 0 1.87793 1923 0)" d="M544.948 711.473L549.55 711.075C549.444 714.497 548.619 719.507 549.486 722.736C547.738 723.09 546.128 723.096 544.349 723.072C544.418 719.18 544.507 715.342 544.948 711.473Z"/><path fill="#48728F" transform="matrix(-1.87793 0 0 1.87793 1923 0)" d="M394.414 695.709C395.83 696.053 397.277 696.321 398.623 696.884C402.75 698.282 407.01 699.226 411.243 700.242C411.061 703.731 411.517 709.844 410.063 712.92C406.12 711.645 401.974 710.493 397.89 709.792C396.4 709.386 394.954 708.917 393.496 708.409C393.676 704.229 393.591 699.815 394.414 695.709Z"/><path fill="#1B2B3F" transform="matrix(-1.87793 0 0 1.87793 1923 0)" d="M394.414 695.709C395.83 696.053 397.277 696.321 398.623 696.884C398.414 701.185 398.045 705.492 397.89 709.792C396.4 709.386 394.954 708.917 393.496 708.409C393.676 704.229 393.591 699.815 394.414 695.709Z"/><path fill="#48728F" transform="matrix(-1.87793 0 0 1.87793 1923 0)" d="M432.976 704.692C438.327 706.123 444.005 706.83 449.487 707.608C449.287 710.607 449.807 716.931 448.447 719.415L447.662 719.819C442.484 718.767 437.203 718.051 431.987 717.2C432.254 713.09 432.174 708.727 432.976 704.692Z"/><path fill="#48728F" transform="matrix(-1.87793 0 0 1.87793 1923 0)" d="M378.561 690.605C380.255 690.906 381.596 691.111 383.047 692.071C386.675 693.378 390.617 695.019 394.414 695.709C393.591 699.815 393.676 704.229 393.496 708.409C389.802 706.8 385.813 705.718 381.95 704.598C380.196 704.175 378.67 703.68 377.048 702.888C378.339 699.523 378.205 694.224 378.561 690.605Z"/><path fill="#1B2B3F" transform="matrix(-1.87793 0 0 1.87793 1923 0)" d="M378.561 690.605C380.255 690.906 381.596 691.111 383.047 692.071C381.768 695.443 382.055 700.93 381.95 704.598C380.196 704.175 378.67 703.68 377.048 702.888C378.339 699.523 378.205 694.224 378.561 690.605Z"/><path fill="#1B2B3F" transform="matrix(-1.87793 0 0 1.87793 1923 0)" d="M353.016 670.61L355.594 670.276C356.437 670.98 356.564 671.127 356.694 672.287C356.926 674.345 355.375 677.011 354.11 678.606C353.191 679.764 351.768 679.941 350.402 680.229L345.661 680.926L338.768 681.198C336.928 681.197 334.882 681.392 333.125 680.795C333.288 680.737 333.47 680.718 333.614 680.621C335.06 679.646 335.985 672.999 336.431 671.068C341.965 671.123 347.509 671.241 353.016 670.61Z"/><path fill="#2C506C" transform="matrix(-1.87793 0 0 1.87793 1923 0)" d="M340.692 671.563L347.941 671.555L345.661 680.926L338.768 681.198C339.364 677.999 339.841 674.701 340.692 671.563Z"/><path fill="#2C506C" transform="matrix(-1.87793 0 0 1.87793 1923 0)" d="M353.016 670.61L355.594 670.276C356.437 670.98 356.564 671.127 356.694 672.287C356.926 674.345 355.375 677.011 354.11 678.606C353.191 679.764 351.768 679.941 350.402 680.229C351.16 677.353 351.263 672.934 353.016 670.61Z"/><path fill="#48728F" transform="matrix(-1.87793 0 0 1.87793 1923 0)" d="M612.549 701.703C613.856 701.261 615.262 700.98 616.602 700.642C617.362 703.925 617.089 707.133 617.497 710.426C615.751 710.961 614.118 711.371 612.308 711.622C609.041 712.494 605.764 713.332 602.55 714.387C601.067 714.694 599.568 715.063 598.069 715.269L597.888 704.944C599.177 704.356 601.033 704.152 602.441 703.843C605.85 703.239 609.201 702.591 612.549 701.703Z"/><path fill="#234057" transform="matrix(-1.87793 0 0 1.87793 1923 0)" d="M597.888 704.944C599.177 704.356 601.033 704.152 602.441 703.843L602.55 714.387C601.067 714.694 599.568 715.063 598.069 715.269L597.888 704.944Z"/><path fill="#234057" transform="matrix(-1.87793 0 0 1.87793 1923 0)" d="M612.549 701.703C613.856 701.261 615.262 700.98 616.602 700.642C617.362 703.925 617.089 707.133 617.497 710.426C615.751 710.961 614.118 711.371 612.308 711.622C612.559 708.343 612.492 704.994 612.549 701.703Z"/><path fill="#48728F" transform="matrix(-1.87793 0 0 1.87793 1923 0)" d="M475.538 710.412C480.369 711.015 485.223 711.408 490.087 711.589C491.163 715.017 490.455 719.911 490.453 723.575L475.13 722.47C475.755 718.571 475.502 714.364 475.538 710.412Z"/><path fill="#C44A10" transform="matrix(-1.87793 0 0 1.87793 1923 0)" d="M537.875 219.359C555.335 218.733 572.803 222.131 590.293 221.939C592.469 221.928 599.031 221.769 600.484 223.026C592.444 224.192 577.134 224.017 568.797 223.455C564.943 223.706 561.069 224.548 557.253 224.718C550.663 222.966 544.007 222.744 537.875 219.359Z"/><path fill="#71422C" transform="matrix(-1.87793 0 0 1.87793 1923 0)" d="M590.293 221.939C592.469 221.928 599.031 221.769 600.484 223.026C592.444 224.192 577.134 224.017 568.797 223.455C576.161 221.814 585.026 223.351 592.672 222.804L592.252 222.349C591.503 222.3 591.863 222.354 590.982 222.125L590.293 221.939Z"/><path fill="#48728F" transform="matrix(-1.87793 0 0 1.87793 1923 0)" d="M324.385 669.338C325.747 669.565 328.749 669.616 329.888 670.245L336.431 671.068C335.985 672.999 335.06 679.646 333.614 680.621C333.47 680.718 333.288 680.737 333.125 680.795L326.854 679.982C324.859 679.792 323.009 679.402 321.069 678.906C321.193 678.829 321.331 678.769 321.442 678.675C323.217 677.167 323.866 671.619 324.385 669.338Z"/><path fill="#1B2B3F" transform="matrix(-1.87793 0 0 1.87793 1923 0)" d="M324.385 669.338C325.747 669.565 328.749 669.616 329.888 670.245L328.803 670.69C328.235 673.804 327.585 676.902 326.854 679.982C324.859 679.792 323.009 679.402 321.069 678.906C321.193 678.829 321.331 678.769 321.442 678.675C323.217 677.167 323.866 671.619 324.385 669.338Z"/><path fill="#48728F" transform="matrix(-1.87793 0 0 1.87793 1923 0)" d="M632.982 695.419L641.652 691.239C641.084 695.417 641.045 700.449 637.357 703.225C636.084 704.183 634.524 704.798 633.074 705.435C631.566 706.18 630.217 706.657 628.585 707.055C628.669 703.754 628.554 700.441 628.494 697.139L632.982 695.419Z"/><path fill="#1B2B3F" transform="matrix(-1.87793 0 0 1.87793 1923 0)" d="M628.494 697.139L632.982 695.419C632.975 698.711 632.756 702.167 633.074 705.435C631.566 706.18 630.217 706.657 628.585 707.055C628.669 703.754 628.554 700.441 628.494 697.139Z"/><path fill="#48728F" transform="matrix(-1.87793 0 0 1.87793 1923 0)" d="M283.84 651.62C285.935 653.227 288.124 654.728 290.271 656.266C291.645 656.875 292.784 657.492 293.998 658.382C293.268 661.81 292.562 665.17 291.375 668.473C289.925 667.945 288.734 667.21 287.437 666.395C285.402 664.873 283.607 663.406 281.892 661.506L283.84 651.62Z"/><path fill="#1B2B3F" transform="matrix(-1.87793 0 0 1.87793 1923 0)" d="M290.271 656.266C291.645 656.875 292.784 657.492 293.998 658.382C293.268 661.81 292.562 665.17 291.375 668.473C289.925 667.945 288.734 667.21 287.437 666.395C288.705 663.213 289.396 659.589 290.271 656.266Z"/><path fill="#48728F" transform="matrix(-1.87793 0 0 1.87793 1923 0)" d="M597.888 704.944L598.069 715.269C594.414 716.107 590.723 716.869 587.097 717.821C586.628 714.179 586.548 710.557 586.46 706.889C590.311 706.369 594.093 705.785 597.888 704.944Z"/><path fill="#48728F" transform="matrix(-1.87793 0 0 1.87793 1923 0)" d="M628.494 697.139C628.554 700.441 628.669 703.754 628.585 707.055C624.805 707.758 621.131 709.189 617.497 710.426C617.089 707.133 617.362 703.925 616.602 700.642C620.572 700.029 624.687 698.386 628.494 697.139Z"/><path fill="#2C506C" transform="matrix(-1.87793 0 0 1.87793 1923 0)" d="M657.797 665.9L658.312 666.554C658.62 669.162 659.437 673.72 658.067 676.056C657.676 676.721 656.55 676.859 655.855 677.101L655.228 676.307C654.98 673.398 656.993 668.809 657.797 665.9Z"/></svg>