<?xml version="1.0" encoding="utf-8" ?><svg xmlns="http://www.w3.org/2000/svg" xmlns:xlink="http://www.w3.org/1999/xlink" width="1816" height="1032" viewBox="0 0 1816 1032"><path fill="#ABB551" d="M0 0L232.74 0L252.275 0L491.386 0L524.433 0L790.237 0L795.966 0L808.714 0L813.657 0L858.846 0L986.679 0L1052.13 0L1053.42 0L1064.03 0L1070.11 0L1816 0L1816 337.694L1816 346.683L1816 362.601L1816 370.325L1816 569.969L1816 576.154L1816 592.655L1816 598.406L1816 811.009L1816 845.439L1816 1000.02L1816 1032L1746.97 1032L1740.67 1032L1710.08 1032L1554.96 1032L1529.84 1032L1458.53 1032L1403.39 1032L1123.46 1032L1091.16 1032L1049.34 1032L967.905 1032L719.538 1032L692.423 1032L682.722 1032L673.347 1032L398.491 1032L366.187 1032L98.3082 1032L0 1032L0 959.784L0 596.655L0 590.867L0 569.177L0 424.519L0 377.037L0 369.749L0 352.93L0 347.449L0 217.942L0 198.046L0 90.267L0 72.6183L0 0Z"/><path fill="#849740" d="M1053.42 0L1064.03 0L1070.11 0L1816 0L1816 337.694L1816 346.683L1816 362.601L1816 370.325L1816 569.969L1816 576.154L1816 592.655L1816 598.406L1816 811.009L1816 845.439L1816 1000.02L1816 1032L1746.97 1032L1740.67 1032L1710.08 1032L1554.96 1032L1529.84 1032L1458.53 1032L1403.39 1032L1123.46 1032L1091.16 1032L1049.34 1032L967.905 1032L719.538 1032L692.423 1032L682.722 1032L673.347 1032L398.491 1032L366.187 1032L98.3082 1032L0 1032L0 959.784L0 596.655L0 590.867L0 569.177C29.5461 570.533 58.6925 569.951 88.2298 569.333C103.005 569.024 117.761 569.362 132.519 568.422L139.806 567.618C141.377 590.765 148.213 629.216 146.109 650.424C145.68 654.743 144.652 658.433 142.42 662.172C143.157 667.671 143.096 679.218 144.947 683.865C146.736 688.356 151.936 688.75 152.552 695.243C154.043 710.963 152.022 727.619 152.881 743.545C155.59 793.769 173.453 844.957 214.593 876.261C249.245 902.629 299.61 911.121 342.05 905.219C372.32 901.01 396.46 891.125 417.448 868.629C438.427 893.091 469.936 903.703 501.445 906.092C543.775 909.301 580.266 897.581 615.534 874.928C647.394 905.472 701.144 910.541 743.074 909.638C769.965 909.059 808.162 904.332 829.881 886.681L831.394 886.356L833.622 892.155C835.79 897.965 842.741 902.049 848.148 904.368C868.815 913.229 895.91 912.579 916.605 904.11C924.318 900.953 930.66 896.471 936.323 890.393C941.112 893.917 947.142 896.624 951.591 900.284C992.172 914.57 1036.22 915.703 1077.49 903.522C1104.58 895.229 1128.09 879.486 1140.82 853.612C1144.26 846.622 1145.91 838.101 1149.64 831.549C1150.58 829.902 1150.6 829.694 1152.4 829.144C1152.69 829.445 1152.85 829.605 1153.12 829.95C1155.45 832.933 1154.44 836.968 1153.9 840.391C1166.72 844.002 1179.49 847.484 1192.74 849.125C1232.69 854.073 1301.53 850.915 1331.6 819.795C1334.78 816.509 1338.02 812.76 1340.41 808.884C1343.46 803.953 1345.07 794.124 1350.47 791.724C1352.42 792.665 1353.35 792.961 1354.03 795.215C1356.57 803.633 1349.75 815.535 1345.87 822.669C1346.18 836.914 1349.02 849.898 1357.42 861.783C1368.93 878.05 1390.75 885.821 1409.78 888.959C1440.81 894.075 1479.42 888.907 1505.43 870.234C1524.06 856.596 1536.48 836.106 1539.97 813.289C1543.42 791.372 1537.39 766.881 1524.83 748.683C1519.91 741.55 1513.81 735.277 1508.75 728.241C1499.33 715.12 1499.08 704.286 1501.65 688.928C1510.94 682.134 1518.31 676.103 1520.87 664.243C1524.79 646.094 1517.64 624.364 1507.96 609.031C1503.1 601.315 1497.24 594.348 1492.25 586.731C1509.07 569.514 1526.21 549.41 1530.92 525.093C1536.08 498.493 1526.98 477.153 1512.3 455.497C1520.57 447.556 1527.87 438.72 1530.3 427.204C1533.34 412.742 1528.45 400.919 1520.63 389.115C1518.06 387.705 1515.29 386.594 1512.61 385.397C1512.73 357.438 1512.49 329.996 1503.23 303.23C1491.96 270.831 1468.2 244.281 1437.25 229.485C1391.76 207.4 1358.39 211.252 1312.21 227.27C1314.88 224.624 1317.94 222.284 1320.94 220.021C1341.42 204.586 1369.77 201.114 1394.56 204.637C1397.1 200.297 1399.55 196.485 1403.89 193.757C1412.31 188.458 1421.8 190.508 1430.87 192.54C1429.06 189.948 1427.32 187.314 1425.81 184.539C1412.05 159.307 1415.54 126.069 1423.31 99.651C1425.44 96.3196 1427.34 93.086 1428.93 89.4635L1428.05 87.2471L1427.61 86.5665C1414.26 65.9494 1405.31 57.6817 1380.69 52.4084L1365.1 52.4661L1138.25 52.5538C1134.89 52.3616 1131.45 52.5077 1128.08 52.513C1104.63 52.0024 1081.09 52.4089 1057.64 52.5769L1051.23 52.5056C1051.76 49.2245 1052.86 45.9306 1053.74 42.7245C1055.06 28.8345 1053.59 13.9977 1053.42 0Z"/><path fill="#D7E8EA" d="M132.519 568.422L139.806 567.618C141.377 590.765 148.213 629.216 146.109 650.424C145.68 654.743 144.652 658.433 142.42 662.172C143.157 667.671 143.096 679.218 144.947 683.865C146.736 688.356 151.936 688.75 152.552 695.243C154.043 710.963 152.022 727.619 152.881 743.545C155.59 793.769 173.453 844.957 214.593 876.261C249.245 902.629 299.61 911.121 342.05 905.219C372.32 901.01 396.46 891.125 417.448 868.629C438.427 893.091 469.936 903.703 501.445 906.092C543.775 909.301 580.266 897.581 615.534 874.928C647.394 905.472 701.144 910.541 743.074 909.638C769.965 909.059 808.162 904.332 829.881 886.681C830.498 888.316 831.805 890.381 830.728 892.009C830.566 892.253 830.301 892.412 830.087 892.613C838.697 906.162 846.496 911.557 862.327 915.041C882.541 919.489 909.065 915.86 926.627 904.638C929.705 902.671 932.38 900.065 935.123 897.662L936.025 898.035L936.087 900.803C933.955 916.963 927.898 932.084 914.553 942.295C908.874 946.639 902.573 949.649 896.102 952.627C893.769 956.483 887.135 961.804 885.951 965.434C891.749 968.296 928.9 965.034 938.156 965.018C1082.26 966.139 1226.37 964.365 1370.39 959.696C1381.28 959.361 1392.2 960.048 1403.09 959.88C1437.87 959.197 1472.64 957.976 1507.39 956.216C1537.41 954.657 1570.6 952.251 1599.99 946.01L1601.08 947.158C1608.56 946.553 1616.72 944.254 1624.06 942.509C1658.3 934.364 1692.95 920.761 1716.56 893.574C1729.47 878.703 1737.88 861.075 1744.73 842.738C1777.24 755.675 1758.86 662.994 1752.62 573.423C1755.7 572.42 1758.97 571.172 1762.18 570.756C1769.59 569.798 1777.56 570.696 1785.04 570.798C1795.37 570.994 1805.7 570.717 1816 569.969L1816 576.154L1816 592.655L1816 598.406L1816 811.009L1816 845.439L1816 1000.02L1816 1032L1746.97 1032L1740.67 1032L1710.08 1032L1554.96 1032L1529.84 1032L1458.53 1032L1403.39 1032L1123.46 1032L1091.16 1032L1049.34 1032L967.905 1032L719.538 1032L692.423 1032L682.722 1032L673.347 1032L398.491 1032L366.187 1032L98.3082 1032L0 1032L0 959.784L0 596.655L0 590.867L0 569.177C29.5461 570.533 58.6925 569.951 88.2298 569.333C103.005 569.024 117.761 569.362 132.519 568.422Z"/><path fill="#7E8F47" d="M132.519 568.422L139.806 567.618C141.377 590.765 148.213 629.216 146.109 650.424C145.68 654.743 144.652 658.433 142.42 662.172C143.157 667.671 143.096 679.218 144.947 683.865C146.736 688.356 151.936 688.75 152.552 695.243C154.043 710.963 152.022 727.619 152.881 743.545C155.59 793.769 173.453 844.957 214.593 876.261C249.245 902.629 299.61 911.121 342.05 905.219C372.32 901.01 396.46 891.125 417.448 868.629C438.427 893.091 469.936 903.703 501.445 906.092C543.775 909.301 580.266 897.581 615.534 874.928C647.394 905.472 701.144 910.541 743.074 909.638C769.965 909.059 808.162 904.332 829.881 886.681C830.498 888.316 831.805 890.381 830.728 892.009C830.566 892.253 830.301 892.412 830.087 892.613C838.697 906.162 846.496 911.557 862.327 915.041C882.541 919.489 909.065 915.86 926.627 904.638C929.705 902.671 932.38 900.065 935.123 897.662L936.025 898.035L936.087 900.803C933.955 916.963 927.898 932.084 914.553 942.295C908.874 946.639 902.573 949.649 896.102 952.627C893.769 956.483 887.135 961.804 885.951 965.434C891.749 968.296 928.9 965.034 938.156 965.018C1082.26 966.139 1226.37 964.365 1370.39 959.696C1381.28 959.361 1392.2 960.048 1403.09 959.88C1437.87 959.197 1472.64 957.976 1507.39 956.216C1537.41 954.657 1570.6 952.251 1599.99 946.01L1601.08 947.158C1590.75 951.18 1576.64 951.626 1565.51 952.831C1497.23 960.227 1428.54 960.335 1359.97 962.008C1251.61 964.757 1143.22 966.494 1034.82 967.22L933.011 967.301C917.203 967.279 899.393 965.452 883.832 967.775C878.123 968.627 872.84 972.29 867.271 973.958C888.5 975.137 919.315 971.84 938.631 975.066C914.603 975.924 890.187 973.719 866.236 974.996C861.03 975.274 855.583 978.157 850.327 979.035C829.995 982.432 811.463 980.942 791.981 974.559L618.449 974.836C533.176 975.399 447.9 974.803 362.644 973.049C311.98 971.63 259.156 972.317 209.78 959.467C180.933 951.959 153.209 938.64 131.985 917.362C114.152 899.483 102.699 878.246 95.2462 854.221C82.3229 812.56 81.7843 765.024 79.9524 721.665C77.9779 681.551 77.0549 641.392 77.1845 601.23C51.4029 601.296 25.537 600.413 0 596.655L0 590.867L0 569.177C29.5461 570.533 58.6925 569.951 88.2298 569.333C103.005 569.024 117.761 569.362 132.519 568.422Z"/><path fill="#71552B" d="M0 590.867C23.8059 597.024 59.8995 594.946 85.0856 594.809C85.5229 636.129 86.4997 677.442 88.016 718.737C89.6863 762.264 90.1201 813.017 103.3 854.858C110.419 877.457 121.292 896.798 138.273 913.424C162.154 936.806 194.314 948.84 226.55 955.291C267.648 963.516 311.222 963.694 352.993 964.365L472.258 965.676L782.014 967.344C785.318 969.662 788.972 971.877 791.981 974.559L618.449 974.836C533.176 975.399 447.9 974.803 362.644 973.049C311.98 971.63 259.156 972.317 209.78 959.467C180.933 951.959 153.209 938.64 131.985 917.362C114.152 899.483 102.699 878.246 95.2462 854.221C82.3229 812.56 81.7843 765.024 79.9524 721.665C77.9779 681.551 77.0549 641.392 77.1845 601.23C51.4029 601.296 25.537 600.413 0 596.655L0 590.867Z"/><path fill="#90A249" d="M830.087 892.613C838.697 906.162 846.496 911.557 862.327 915.041C882.541 919.489 909.065 915.86 926.627 904.638C929.705 902.671 932.38 900.065 935.123 897.662L936.025 898.035L936.087 900.803C933.955 916.963 927.898 932.084 914.553 942.295C908.874 946.639 902.573 949.649 896.102 952.627C882.707 958.638 869.26 963.725 854.824 966.615C831.728 971.238 805.149 972.891 784.68 959.061C768.409 948.068 769.946 935.461 766.518 918.295C789.557 914.34 812.525 908.885 830.087 892.613Z"/><path fill="#789142" d="M132.519 568.422L139.806 567.618C141.377 590.765 148.213 629.216 146.109 650.424C145.68 654.743 144.652 658.433 142.42 662.172C140.685 662.854 139.003 663.439 137.13 663.563C132.284 663.884 128.008 662.095 124.449 658.858C111.9 647.449 107.649 618.76 106.728 602.602C109.084 600.327 111.317 598.203 114.085 596.423C121.901 593.152 121.86 583.957 126.808 577.781C126.99 576.789 127.186 575.8 127.396 574.814C128.246 570.936 129.396 570.438 132.519 568.422Z"/><path fill="#90A249" d="M114.085 596.423C121.901 593.152 121.86 583.957 126.808 577.781C127.227 596.66 130.642 616.377 134.709 634.784C135.959 640.437 140.692 651.538 139.578 656.966C138.938 657.374 138.483 657.959 137.709 657.769C133.086 656.63 128.461 650.916 126.189 646.94C118.839 634.076 115.593 611.025 114.085 596.423Z"/><path fill="#90A249" d="M615.312 881.342C634.707 906.849 670.871 915.419 700.965 919.532C720.969 922.266 740.471 921.092 760.443 918.836C762.386 927.743 764.144 936.713 767.805 945.112C768.26 947.036 768.471 947.172 767.545 949.021C756.063 954.703 742.036 956.256 729.509 958.143C697.999 962.888 662.028 968.339 631.158 957.808C620.21 954.073 611.87 948.723 606.676 938.2C604.199 935.021 603.322 930.412 602.318 926.583C593.917 939.311 571.194 942.455 556.991 945.339C551.953 946.361 546.632 947.549 541.557 946.216C542.172 943.131 542.873 940.064 543.658 937.018L543.605 935.741C543.304 934.549 542.972 933.365 542.609 932.19C540.193 924.34 534.166 921.039 527.42 917.358C558.47 915.107 593.593 904.977 615.312 881.342Z"/><path fill="#849740" d="M606.676 938.2C614.471 942.978 622.568 948.265 631.441 950.717C663.49 959.575 733.179 953.539 766.744 945.406C767.1 945.32 767.452 945.213 767.805 945.112C768.26 947.036 768.471 947.172 767.545 949.021C756.063 954.703 742.036 956.256 729.509 958.143C697.999 962.888 662.028 968.339 631.158 957.808C620.21 954.073 611.87 948.723 606.676 938.2Z"/><path fill="#789142" d="M597.474 920.219C597.218 915.911 596.541 910.788 597.992 906.626L598.79 906.926C601.071 912.502 601.405 918.904 602.177 924.839L602.318 926.583C593.917 939.311 571.194 942.455 556.991 945.339C551.953 946.361 546.632 947.549 541.557 946.216C542.172 943.131 542.873 940.064 543.658 937.018L543.605 935.741C557.932 934.064 584.955 927.044 597.474 920.219Z"/><path fill="#849740" d="M541.557 946.216C553.205 939.807 573.675 938.941 586.927 933.798C591.623 931.976 597.718 925.005 602.177 924.839L602.318 926.583C593.917 939.311 571.194 942.455 556.991 945.339C551.953 946.361 546.632 947.549 541.557 946.216Z"/><path fill="#90A249" d="M352.907 916.603C380.073 911.649 402.758 899.936 419.19 877.487C436.588 899.754 452.108 909.221 479.681 914.42C495.142 917.67 511.651 919.225 527.42 917.358C534.166 921.039 540.193 924.34 542.609 932.19C542.972 933.365 543.304 934.549 543.605 935.741L543.658 937.018C542.873 940.064 542.172 943.131 541.557 946.216C540.438 947.538 539.173 948.729 537.787 949.767C531.421 954.541 522.394 954.602 514.887 953.446C500.555 951.239 491.385 944.995 482.947 933.549C455.17 943.916 427.604 949.165 397.873 944.926C377.423 942.01 365.065 932.716 352.907 916.603Z"/><path fill="#ABB551" d="M479.681 914.42C495.142 917.67 511.651 919.225 527.42 917.358C534.166 921.039 540.193 924.34 542.609 932.19C542.972 933.365 543.304 934.549 543.605 935.741L543.658 937.018C539.33 940.824 533.471 942.753 527.89 943.821C516.309 946.037 502.282 944.752 492.457 937.783C483.831 931.665 481.468 924.266 479.681 914.42Z"/><path fill="#849740" d="M347.013 915.669C347.468 915.799 348.681 915.987 349.011 916.242C350.693 917.539 352.481 920.619 353.86 922.354C359.686 929.686 365.566 936.184 373.822 940.914C381.85 945.513 390.907 948.004 399.845 950.133C423.402 955.744 444.872 956.89 467.765 948.05C473.672 945.769 478.567 939.212 484.036 937.774L485.354 939.663C481.547 944.322 477.945 947.499 472.554 950.234C447.305 963.041 411.349 958.199 385.55 949.68C369.507 944.383 354.476 933.508 346.837 918.146C346.253 916.971 346.611 916.854 347.013 915.669Z"/><path fill="#71552B" d="M1752.62 573.423C1755.7 572.42 1758.97 571.172 1762.18 570.756C1769.59 569.798 1777.56 570.696 1785.04 570.798C1795.37 570.994 1805.7 570.717 1816 569.969L1816 576.154C1798.41 578.608 1777.23 578.534 1759.9 574.883C1767.42 663.915 1782.59 757.242 1751.14 843.575C1744.48 861.874 1735.48 880.746 1722.84 895.718C1676.72 950.316 1589.44 958.317 1522.6 963.825C1469.67 968.187 1416.18 968.962 1363.1 969.919L1214.26 972.766C1148.52 974.366 1082.77 975.185 1017.01 975.225C990.997 975.262 964.6 976.073 938.631 975.066C919.315 971.84 888.5 975.137 867.271 973.958C872.84 972.29 878.123 968.627 883.832 967.775C899.393 965.452 917.203 967.279 933.011 967.301L1034.82 967.22C1143.22 966.494 1251.61 964.757 1359.97 962.008C1428.54 960.335 1497.23 960.227 1565.51 952.831C1576.64 951.626 1590.75 951.18 1601.08 947.158C1608.56 946.553 1616.72 944.254 1624.06 942.509C1658.3 934.364 1692.95 920.761 1716.56 893.574C1729.47 878.703 1737.88 861.075 1744.73 842.738C1777.24 755.675 1758.86 662.994 1752.62 573.423Z"/><path fill="#93C6BC" d="M0 959.784C5.44191 958.106 10.3572 957.181 15.6171 960.054C19.7888 962.334 23.1543 966.16 24.4323 970.78C25.2262 973.65 25.2725 976.678 23.7617 979.342C22.3974 981.748 19.438 984.116 16.687 984.709C14.5915 985.161 11.3592 984.573 9.95267 986.115C11.8294 987.963 13.4885 988.765 16.1484 988.764C25.7223 988.762 33.7044 986.431 41.5707 993.647C45.5804 997.325 47.8041 1002.07 49.7117 1007.07C56.2932 1001.33 63.1431 996.638 72.2757 997.172C79.7559 997.609 86.525 1001.7 91.3044 1007.32C97.2273 1014.3 99.2057 1022.48 98.3676 1031.43L98.3082 1032L0 1032L0 959.784Z"/><path fill="#785227" d="M1772.31 591.786C1786.82 591.035 1801.47 592.177 1816 592.655L1816 598.406C1805.67 600.584 1793.48 599.516 1782.91 599.51C1784.31 635.725 1790.03 671.745 1791.07 708.039C1791.66 728.609 1790.05 749.599 1787.52 770.004C1785.71 761.445 1785.78 752.306 1785.28 743.589C1784.42 728.639 1783.66 713.67 1782.59 698.734C1780.03 662.968 1775.68 627.462 1772.31 591.786Z"/><path fill="#93C6BC" d="M1794.53 1016.24C1800.87 1008.72 1806.99 1003.94 1816 1000.02L1816 1032L1746.97 1032C1753.38 1023.33 1766.91 1014.06 1777.39 1012.05C1784.49 1010.7 1788.72 1012.28 1794.53 1016.24Z"/><path fill="#93C6BC" d="M967.905 1032C968.082 1025.86 969.442 1021.79 973.98 1017.44C979.032 1012.6 986.168 1010.29 993.098 1010.57C999.603 1010.84 1006.79 1013.46 1011.27 1018.32C1013.86 1021.12 1014.9 1024.22 1015.61 1027.89C1022 1026.64 1028.28 1012.96 1040.26 1020.93C1044.61 1023.82 1047.14 1027.35 1049.34 1032L967.905 1032Z"/><path fill="#93C6BC" d="M1403.39 1032C1402.7 1026.56 1403.3 1022.32 1406.75 1017.88C1409.64 1014.16 1414.24 1011.85 1418.89 1011.41C1424.1 1010.91 1429.53 1012.83 1433.6 1016.05C1437.83 1019.39 1437.3 1025.13 1440.5 1028.81L1441.26 1028.15C1443.76 1025.99 1446.3 1024.06 1449.82 1024.21C1452.27 1024.31 1454.29 1025.88 1455.76 1027.71C1456.85 1029.06 1457.73 1030.46 1458.53 1032L1403.39 1032Z"/><path fill="#93C6BC" d="M673.347 1032C669.938 1029.94 666.179 1027.54 665.239 1023.34C664.395 1019.57 665.111 1014.7 667.264 1011.47C669.17 1008.61 672.142 1007.07 675.487 1006.61C680.295 1005.94 685.502 1007.44 689.347 1010.37C692.096 1012.46 694.46 1015.43 694.973 1018.92C695.383 1021.72 694.377 1024.18 692.579 1026.28C689.895 1029.43 686.521 1030.66 682.722 1032L673.347 1032Z"/><path fill="#93C6BC" d="M366.187 1032C365.214 1028.2 364.545 1025.36 366.745 1021.76C369.146 1017.83 373.54 1015.6 377.952 1014.78C383.058 1013.84 388.781 1014.69 393.032 1017.8C396.17 1020.07 398.207 1023.55 398.643 1027.4C398.827 1029 398.786 1030.42 398.491 1032L366.187 1032Z"/><path fill="#93C6BC" d="M1091.16 1032C1093.33 1026.97 1095.6 1023.39 1100.86 1021.26C1104.87 1019.63 1109.12 1019.86 1113.06 1021.58C1117.78 1023.64 1121.06 1027.57 1123.46 1032L1091.16 1032Z"/><path fill="#93C6BC" d="M1816 811.009L1816 845.439C1815.18 844.723 1814.39 843.981 1813.63 843.213C1809.45 839.026 1805.73 833.928 1805.84 827.745C1805.98 820.38 1811.01 815.689 1816 811.009Z"/><path fill="#93C6BC" d="M1529.84 1032C1532.27 1028.17 1534.7 1025.14 1539.27 1023.93C1542.63 1023.04 1546.12 1023.8 1549.01 1025.65C1551.51 1027.25 1553.23 1029.64 1554.96 1032L1529.84 1032Z"/><path fill="#93C6BC" d="M1710.08 1032C1716.15 1028 1722.13 1024.95 1729.62 1026.39C1733.8 1027.2 1737.46 1029.25 1740.67 1032L1710.08 1032Z"/><path fill="#93C6BC" d="M692.423 1032C697.43 1028.25 702.968 1025.08 709.458 1025.91C714.008 1026.5 716.599 1028.65 719.538 1032L692.423 1032Z"/><path fill="#785227" d="M43.9234 614.796C48.8356 614.333 54.0325 614.49 58.9779 614.362C60.0329 637.589 58.2264 661.073 57.287 684.287C56.6804 699.274 57.1191 715.207 54.9251 730.019L54.3489 729.757C52.4544 720.736 52.3614 711.183 51.5098 701.997C51.4361 676.038 48.7061 650.098 49.1229 624.081C32.4618 623.225 16.4009 620.669 0 617.813C14.4839 615.862 29.3284 615.552 43.9234 614.796Z"/><path fill="#785227" d="M1757.03 873.957C1757.06 874.1 1757.11 874.241 1757.12 874.386C1758.56 886.024 1743.78 910.209 1736.18 919.122C1715.64 943.231 1682.84 957.147 1651.69 959.587L1651.54 958.95C1689.6 946.022 1718.21 933.611 1742.17 899.384C1747.68 891.515 1751.06 882.316 1756.6 874.553L1757.03 873.957Z"/><path fill="#93C6BC" d="M1742.34 987.598C1744.52 987.446 1746.82 987.344 1748.97 987.759C1752.12 988.368 1755.2 990.486 1756.9 993.184C1758.74 996.116 1759.03 999.751 1758.09 1003.04C1756.49 1008.63 1752.86 1011.38 1747.98 1014.07C1746.06 1014.33 1743.89 1014.45 1741.99 1014.03C1738.74 1013.32 1735.68 1011.13 1734.02 1008.27C1732.13 1005.01 1732.03 1001.1 1733.04 997.537C1734.47 992.467 1737.98 990.049 1742.34 987.598Z"/><path fill="#785227" d="M69.4139 820.639C72.6682 823.744 72.3187 838.819 73.218 843.953C76.1714 860.814 79.5033 878.961 85.6533 894.986C88.7485 903.052 94.1335 910.464 96.6626 918.694C96.7257 918.899 96.782 919.107 96.8417 919.313C93.779 916.675 91.3738 913.017 89.0997 909.687C72.146 884.861 63.8376 850.395 69.4139 820.639Z"/><path fill="#785227" d="M1750.92 921.758L1751.82 922.629C1752.43 925.936 1748.15 932.234 1746.41 935.027C1737.23 949.758 1721.82 956.667 1705.59 960.501L1705.17 960.149C1705.4 958.558 1713.09 955.647 1714.9 954.68C1729.42 946.91 1740.36 934.075 1750.92 921.758Z"/><path fill="#D7E8EA" d="M1053.42 0L1064.03 0L1070.11 0L1816 0L1816 337.694L1816 346.683L1816 362.601C1798.35 362.815 1779.48 363.113 1761.98 365.285C1758.83 367.293 1751.14 366.73 1750.64 368.678C1747.7 368.063 1745.61 368.293 1745.27 364.727C1743.81 349.614 1745.45 333.11 1745.68 317.859C1746.63 257.266 1751.32 158.629 1707.67 111.34C1671.27 71.9019 1621.22 62.3541 1570.16 57.9345C1551.56 56.183 1532.91 54.9636 1514.23 54.2777C1514.95 54.4706 1514.69 54.3809 1515.32 54.6124C1518.08 55.624 1520.29 56.3622 1523.25 56.3116C1524.33 56.2932 1524.37 56.6747 1525.13 57.3868L1524.48 57.84C1513.12 53.3002 1480.81 57.1158 1473.87 54.3045C1457.83 56.5332 1442.65 66.8384 1432.9 79.628C1431.05 82.0568 1429.42 84.5173 1428.05 87.2471L1427.61 86.5665C1414.26 65.9494 1405.31 57.6817 1380.69 52.4084L1365.1 52.4661L1138.25 52.5538C1134.89 52.3616 1131.45 52.5077 1128.08 52.513C1104.63 52.0024 1081.09 52.4089 1057.64 52.5769L1051.23 52.5056C1051.76 49.2245 1052.86 45.9306 1053.74 42.7245C1055.06 28.8345 1053.59 13.9977 1053.42 0Z"/><path fill="#785227" d="M1051.23 52.5056C1051.76 49.2245 1052.86 45.9306 1053.74 42.7245L1054.75 44.624C1063.76 46.4536 1075.54 45.029 1084.8 44.9341C1101.99 44.7075 1119.17 44.694 1136.35 44.8936L1382.63 44.9842C1432.43 44.7836 1482.21 45.8181 1531.95 48.0868C1567.99 50.0046 1606.41 51.8798 1641.07 62.5217C1673.34 72.4277 1705.33 92.9204 1724.15 121.463C1757.88 172.631 1754.48 257.948 1752.89 317.397C1752.47 333.206 1753.45 350.185 1751.63 365.811L1761.98 365.285C1758.83 367.293 1751.14 366.73 1750.64 368.678C1747.7 368.063 1745.61 368.293 1745.27 364.727C1743.81 349.614 1745.45 333.11 1745.68 317.859C1746.63 257.266 1751.32 158.629 1707.67 111.34C1671.27 71.9019 1621.22 62.3541 1570.16 57.9345C1551.56 56.183 1532.91 54.9636 1514.23 54.2777C1514.95 54.4706 1514.69 54.3809 1515.32 54.6124C1518.08 55.624 1520.29 56.3622 1523.25 56.3116C1524.33 56.2932 1524.37 56.6747 1525.13 57.3868L1524.48 57.84C1513.12 53.3002 1480.81 57.1158 1473.87 54.3045C1457.83 56.5332 1442.65 66.8384 1432.9 79.628C1431.05 82.0568 1429.42 84.5173 1428.05 87.2471L1427.61 86.5665C1414.26 65.9494 1405.31 57.6817 1380.69 52.4084L1365.1 52.4661L1138.25 52.5538C1134.89 52.3616 1131.45 52.5077 1128.08 52.513C1104.63 52.0024 1081.09 52.4089 1057.64 52.5769L1051.23 52.5056Z"/><path fill="#7E8F47" d="M1380.69 52.4084C1393.79 52.4238 1469.46 51.2866 1475.17 53.8549L1473.87 54.3045C1457.83 56.5332 1442.65 66.8384 1432.9 79.628C1431.05 82.0568 1429.42 84.5173 1428.05 87.2471L1427.61 86.5665C1414.26 65.9494 1405.31 57.6817 1380.69 52.4084Z"/><path fill="#785227" d="M1816 337.694L1816 346.683C1797.77 346.25 1779.53 346.731 1761.28 346.221C1778.76 340.639 1797.95 340.65 1816 337.694Z"/><path fill="#785227" d="M1064.03 0L1070.11 0C1069.91 8.0197 1070.47 17.158 1067.18 24.6434L1065.99 25.0065C1062.18 19.1877 1063.8 6.89834 1064.03 0Z"/><path fill="#B06431" d="M1701.36 65.3267C1701.61 65.356 1701.86 65.377 1702.11 65.4146C1715.62 67.4584 1738.23 89.1695 1746.02 100.389C1773.65 140.202 1777.78 226.484 1769.33 272.872C1768.98 273.904 1768.37 274.927 1767.89 275.91C1766.31 273.559 1767.04 264.723 1766.96 261.499C1766.32 236.385 1764.88 211.429 1761.44 186.52C1754.37 135.236 1744.22 97.8701 1701.36 65.3267Z"/><path fill="#F2DBBB" d="M1711.78 7.61337C1716.9 6.76216 1722.13 8.48989 1725.73 12.2333C1729.77 16.4197 1731.18 22.4848 1729.4 28.0211C1727.62 33.5574 1722.95 37.6693 1717.23 38.7246C1708.59 40.3178 1700.32 34.5661 1698.8 25.9198C1697.29 17.2734 1703.11 9.0505 1711.78 7.61337Z"/><path fill="#F2DBBB" d="M1671.13 10.2424C1672.32 10.4585 1673.54 10.6685 1674.7 10.9972C1677.27 11.7196 1678.26 12.7786 1679.5 14.9896C1679.03 17.6555 1678.24 18.4273 1676.55 20.4566C1675.08 20.2926 1673.24 20.2241 1671.84 19.7367C1669.51 18.9232 1669.03 18.1259 1667.99 16.0767C1668.07 13.4361 1669.48 12.1088 1671.13 10.2424Z"/><path fill="#789142" d="M829.881 886.681L831.394 886.356L833.622 892.155C835.79 897.965 842.741 902.049 848.148 904.368C868.815 913.229 895.91 912.579 916.605 904.11C924.318 900.953 930.66 896.471 936.323 890.393C941.112 893.917 947.142 896.624 951.591 900.284L951.15 900.7C946.578 901.043 941.225 895.332 937.4 893.064L936.941 894.49C939.155 899.615 947.675 905.132 952.581 907.824C956.592 910.023 961.636 911.494 965.95 913.028C1002.2 925.927 1042.32 923.223 1078.9 913.318C1087.58 910.968 1095.38 906.211 1104.05 903.843C1107.8 908.401 1111.51 913.063 1115.69 917.239C1128.28 929.812 1148.81 937.18 1166.64 937.042C1182.57 936.919 1193.84 929.564 1204.54 918.583C1206.98 924.43 1209.54 928.731 1214.09 933.22C1229.67 948.571 1250.8 953.397 1271.98 953.181C1282.85 953.07 1301.93 950.749 1310.57 943.883C1315.85 939.682 1319.72 934.046 1324.43 929.269C1327.01 926.653 1327.66 927.212 1330.68 929.205C1349.32 941.508 1356.73 946.957 1380.2 946.856C1394.54 946.795 1408.01 945.075 1418.57 934.203C1429 923.459 1429.59 911.312 1429.39 897.237C1439.34 897.455 1448.68 895.085 1458.5 894.957L1458.68 895.409C1452.38 899.789 1444.04 899.254 1436.65 899.859C1435.98 899.915 1434.81 900.108 1434.27 900.583C1432.28 902.333 1430.45 919.416 1429.19 923.198C1428.05 926.6 1425.85 929.727 1423.55 932.44C1414.42 943.212 1401.04 948.771 1387.15 949.898C1370.65 951.236 1351.97 947.338 1338.12 938.044C1334.22 935.43 1330.78 931.834 1327.18 928.804C1326.01 930.859 1324.79 932.755 1323.23 934.54C1309.79 949.987 1296.09 954.46 1276.14 955.811C1255.1 957.238 1230.45 951.688 1214.5 937.092C1210.1 933.065 1207.45 927.373 1203 923.49C1202.9 923.607 1202.8 923.726 1202.7 923.841C1194.84 932.809 1182.74 938.389 1170.92 939.181C1152.71 940.403 1128.31 933.529 1114.85 920.549C1110.39 916.25 1107.38 910.63 1102.71 906.523C1069.44 923.579 1025.92 927.474 989.406 921.577C976.678 919.521 947.192 912.083 939.604 901.172C938.987 900.285 938.682 899.979 937.598 899.616L937.034 902.963C936.227 902.108 936.322 901.905 936.087 900.803L936.025 898.035L935.123 897.662C932.38 900.065 929.705 902.671 926.627 904.638C909.065 915.86 882.541 919.489 862.327 915.041C846.496 911.557 838.697 906.162 830.087 892.613C830.301 892.412 830.566 892.253 830.728 892.009C831.805 890.381 830.498 888.316 829.881 886.681Z"/><path fill="#785227" d="M1761.98 365.285C1779.48 363.113 1798.35 362.815 1816 362.601L1816 370.325C1799.52 369.951 1764.81 373.33 1750.64 368.678C1751.14 366.73 1758.83 367.293 1761.98 365.285Z"/><path fill="#596C21" d="M1642.98 788.653C1645.48 789.604 1646.7 790.921 1647.73 793.375C1650.79 800.655 1649.54 809.508 1646.78 816.619C1645.78 817.08 1645.34 816.9 1644.27 816.817C1643.08 814.796 1643.04 793.053 1642.98 788.653Z"/><path fill="#596C21" d="M1654.49 456.847C1655.86 457.435 1656.06 457.677 1656.97 458.875C1656.79 466.626 1650.39 476.57 1646.87 483.521C1645.91 483.179 1645.41 482.708 1644.64 482.063C1643.63 475.315 1651.02 462.68 1654.49 456.847Z"/><path fill="#596C21" d="M1671.95 770.195C1673.81 770.95 1673.9 770.835 1674.83 772.753C1674.56 773.719 1674.26 774.399 1673.63 775.194C1669.42 780.473 1662.04 782.678 1655.63 783.325C1654.22 782.123 1654.14 781.997 1653.67 780.208C1655.81 777.5 1667.26 774.05 1671.95 770.195Z"/><path fill="#596C21" d="M1556.66 193.891C1557.36 194.656 1557.69 195.449 1558.13 196.377C1557.97 197.439 1557.74 198.427 1557.32 199.421C1554.37 206.346 1544.6 212.429 1538.1 215.344L1536.81 213.522C1536.85 212.966 1536.68 212.355 1536.93 211.854C1537.47 210.735 1542.05 207.97 1543.31 206.982C1548.42 202.986 1552.44 198.827 1556.66 193.891Z"/><path fill="#596C21" d="M1661.99 478.361C1663.38 478.809 1663.35 478.839 1664.12 480.086C1662.46 486.768 1650.91 495.304 1645.41 499.453L1643.92 498.882L1643.56 497.126C1646.29 490.538 1656.73 483.108 1661.99 478.361Z"/><path fill="#596C21" d="M1529.11 261.235C1534.63 262.305 1542.58 271.362 1545.82 275.992C1547.38 278.22 1547.12 278.758 1546.7 281.321C1541.73 279.626 1536.82 274.275 1533.53 270.289C1531.37 267.686 1528.79 264.818 1529.11 261.235Z"/><path fill="#596C21" d="M1586.04 761.31C1587.12 761.653 1587.59 762.141 1588.47 762.849C1588.39 764.317 1588.5 764.764 1587.6 765.928C1583.99 770.632 1576.99 772.946 1571.39 773.842C1570.22 772.958 1570.1 772.224 1569.7 770.881C1572.65 767.019 1581.62 765.287 1586.04 761.31Z"/><path fill="#789142" d="M1172.19 903.191C1174.54 904.277 1176.57 906.701 1177.99 908.841C1180.29 912.293 1181.02 914.57 1180.19 918.633C1177.57 917.561 1174.83 914.741 1173.39 912.33C1171.54 909.207 1171.32 906.662 1172.19 903.191Z"/><path fill="#D7E8EA" d="M0 0L232.74 0L252.275 0L491.386 0L524.433 0L790.237 0L795.966 0L808.714 0L813.657 0C812.088 18.0516 811.518 36.0485 810.388 54.1124L599.694 56.0022L527.146 56.2505C515.604 56.2758 503.147 55.3028 491.708 56.6064C469.807 53.7039 434.981 56.1568 411.299 56.4308C372.693 56.5334 334.09 57.2268 295.505 58.5107C269.347 59.4067 241.543 59.7376 215.905 65.414C194.162 70.2282 170.353 80.9036 152.647 94.428C150.113 96.3636 147.639 98.4197 145.413 100.706C132.16 110.859 122.339 124.848 114.776 139.582C95.4527 184.144 91.0571 263.316 88.371 312.92C87.234 333.917 87.81 354.468 83.0331 375.055C55.3549 375.699 27.6844 376.987 0 377.037L0 369.749L0 352.93L0 347.449L0 217.942L0 198.046L0 90.267L0 72.6183L0 0Z"/><path fill="#785227" d="M808.714 0L813.657 0C812.088 18.0516 811.518 36.0485 810.388 54.1124L599.694 56.0022L527.146 56.2505C515.604 56.2758 503.147 55.3028 491.708 56.6064C469.807 53.7039 434.981 56.1568 411.299 56.4308C372.693 56.5334 334.09 57.2268 295.505 58.5107C269.347 59.4067 241.543 59.7376 215.905 65.414C194.162 70.2282 170.353 80.9036 152.647 94.428C150.113 96.3636 147.639 98.4197 145.413 100.706C132.16 110.859 122.339 124.848 114.776 139.582C95.4527 184.144 91.0571 263.316 88.371 312.92C87.234 333.917 87.81 354.468 83.0331 375.055C55.3549 375.699 27.6844 376.987 0 377.037L0 369.749C26.3208 369.007 52.6074 367.957 78.9417 367.71C80.4639 306.472 83.9337 197.298 106.381 142.354C111.816 129.008 119.756 116.826 129.771 106.464C153.24 81.8409 184.716 65.5728 217.753 58.0817C247.044 51.4401 278.717 50.8355 308.67 50.2276L403.274 49.2071C538.398 47.2872 673.595 49.1037 808.706 46.0768C808.34 30.7444 808.677 15.3398 808.714 0Z"/><path fill="#F2DBBB" d="M491.386 0L524.433 0C520.059 8.01211 515.164 10.0101 506.815 12.8444C504.173 12.2969 501.003 11.7498 498.573 10.563C494.089 8.37292 492.803 4.41399 491.386 0Z"/><path fill="#F2DBBB" d="M232.74 0L252.275 0C251.067 2.44048 250.114 5.28553 248.126 7.21338C245.902 9.36975 241.844 11.0224 238.756 10.8066C237.143 10.6939 235.524 9.88843 234.511 8.61782C232.374 5.93765 232.466 3.19063 232.74 0Z"/><path fill="#785227" d="M790.237 0L795.966 0C796.02 7.86495 796.794 16.037 793.785 23.4703L792.468 23.9164C788.569 18.4605 790.087 6.61886 790.237 0Z"/><path fill="#F2DBBB" d="M0 198.046C3.32196 199.568 6.78277 201.017 8.23567 204.675C9.10227 206.857 8.82337 209.055 7.75869 211.108C6.03429 214.433 3.24638 216.309 0 217.942L0 198.046Z"/><path fill="#F2DBBB" d="M0 72.6183C2.71532 74.617 6.35551 76.8345 6.81574 80.4991C7.08414 82.6363 6.15726 84.4688 4.78569 86.0341C3.36139 87.6596 1.73633 88.9866 0 90.267L0 72.6183Z"/><path fill="#785227" d="M0 347.449C8.6371 348.382 17.7663 348.09 26.2347 349.778C17.5032 351.243 8.81166 352.147 0 352.93L0 347.449Z"/><defs><linearGradient id="gradient_0" gradientUnits="userSpaceOnUse" x1="137.51257" y1="101.82694" x2="115.37263" y2="81.654175"><stop offset="0" stop-color="#8C511E"/><stop offset="1" stop-color="#AD6126"/></linearGradient></defs><path fill="url(#gradient_0)" d="M190.404 42.7548L193.494 42.882C191.908 44.876 174.918 50.4434 171.403 52.0269C164.274 55.2092 157.337 58.8069 150.629 62.8013C109.944 87.1987 89.5111 122.149 78.2991 167.151L77.5743 169.414L77.2349 168.678C78.4529 144.785 85.4346 120.412 98.6907 100.382C119.841 68.4234 153.438 50.3735 190.404 42.7548Z"/><path fill="#F2DBBB" d="M272.987 3.67488C275.614 3.36974 278.658 3.01944 281.22 3.80195C284.425 4.78063 287.334 7.35267 288.647 10.4565C289.871 13.3494 289.928 16.4578 288.731 19.3617C286.911 23.7809 283.533 25.9187 279.253 27.5826C278.378 27.6202 277.502 27.6125 276.628 27.5595C272.694 27.3494 268.691 26.3845 266.055 23.1962C264.17 20.9147 263.675 18.0635 264.196 15.1973C265.17 9.84476 268.853 6.77468 272.987 3.67488Z"/><path fill="#785227" d="M145.435 42.7219L146.298 42.9052C145.59 44.7071 123.549 56.2642 119.904 58.7044C113.669 62.879 108.325 67.5639 103.032 72.8668L102.286 72.8503C102.607 72.1765 102.942 71.5132 103.318 70.8678C112.325 55.4044 128.773 47.0552 145.435 42.7219Z"/><path fill="#90A249" d="M858.846 0L986.679 0L1052.13 0L1053.42 0C1053.59 13.9977 1055.06 28.8345 1053.74 42.7245C1052.86 45.9306 1051.76 49.2245 1051.23 52.5056L1057.64 52.5769C1057.37 52.7071 1057.11 52.843 1056.85 52.9676C1055.53 53.5868 1054.1 53.6426 1052.67 53.7627C1051.26 55.0567 1050.63 56.0994 1049.96 57.8838C1050.26 60.3853 1050.38 64.2636 1051.48 66.4979C1051.63 69.377 1050.83 71.8907 1050.04 74.6182C1059.9 76.1447 1077.83 72.2971 1084.21 81.8157C1089.38 89.5222 1083.66 101.905 1084.78 110.815C1084.8 110.986 1084.81 111.159 1084.83 111.33C1084.59 111.278 1084.34 111.223 1084.09 111.175C1074.59 109.322 1009.17 109.943 999.118 111.791C993.576 112.809 990.044 114.649 985.384 117.798C975.159 114.812 965.047 112.139 954.442 110.895C936.834 108.829 918.151 109.492 900.396 108.823C858.656 106.871 816.855 106.586 775.093 107.967C760.785 108.438 746.026 108.334 731.828 109.984C705.6 89.889 665.16 90.1497 633.81 92.8813C634.568 90.0061 635.538 87.1905 637.136 84.6608C641.595 77.5991 649.862 73.1671 657.794 71.2831C668.642 68.7064 693.64 70.151 701.786 78.8819C705.049 82.379 704.96 88.9681 708.964 91.452C715.512 92.2978 724.776 79.9851 731.245 76.8908C740.723 72.3568 752.067 73.4671 761.672 77.0973C776.158 82.5723 770.294 88.7403 774.821 98.5994C778.95 99.8223 783.956 93.9695 787.009 91.3602C803.353 77.3922 813.575 78.047 834.272 75.6492C838.201 68.6165 844.006 62.6928 848.562 56.0462C860.261 38.9762 858.275 19.7178 858.846 0Z"/><path fill="#7E8F47" d="M986.679 0L1052.13 0L1053.42 0C1053.59 13.9977 1055.06 28.8345 1053.74 42.7245C1052.86 45.9306 1051.76 49.2245 1051.23 52.5056L1057.64 52.5769C1057.37 52.7071 1057.11 52.843 1056.85 52.9676C1055.53 53.5868 1054.1 53.6426 1052.67 53.7627C1051.26 55.0567 1050.63 56.0994 1049.96 57.8838C1050.26 60.3853 1050.38 64.2636 1051.48 66.4979C1051.63 69.377 1050.83 71.8907 1050.04 74.6182C1045.26 74.2129 1040.59 72.7918 1035.77 72.4269C1022.99 71.4588 1009.78 71.9468 996.947 71.8891C996.942 46.3693 995.006 24.2957 986.679 0Z"/><path fill="#71552B" d="M1052.13 0L1053.42 0C1053.59 13.9977 1055.06 28.8345 1053.74 42.7245C1052.86 45.9306 1051.76 49.2245 1051.23 52.5056C1050.34 35.048 1051.17 17.4384 1052.13 0Z"/><path fill="#849740" d="M813.657 0L858.846 0C858.275 19.7178 860.261 38.9762 848.562 56.0462C844.006 62.6928 838.201 68.6165 834.272 75.6492C813.575 78.047 803.353 77.3922 787.009 91.3602C783.956 93.9695 778.95 99.8223 774.821 98.5994C770.294 88.7403 776.158 82.5723 761.672 77.0973C752.067 73.4671 740.723 72.3568 731.245 76.8908C724.776 79.9851 715.512 92.2978 708.964 91.452C704.96 88.9681 705.049 82.379 701.786 78.8819C693.64 70.151 668.642 68.7064 657.794 71.2831C649.862 73.1671 641.595 77.5991 637.136 84.6608C635.538 87.1905 634.568 90.0061 633.81 92.8813C665.16 90.1497 705.6 89.889 731.828 109.984C737.291 115.62 747.418 126.011 747.481 134.247C747.491 135.638 746.859 136.003 745.996 137.016L744.526 137.094C741.097 132.684 738.879 127.256 735.215 123.123C724.209 110.706 704.597 106.011 688.74 104.009C658.586 100.2 609.943 100.483 584.694 120.461C574.517 128.514 571.569 137.564 569.466 149.889C564.677 133.244 559.479 119.877 543.559 110.858C511.295 92.578 378.139 90.9514 341.303 101.598C338.067 102.533 334.291 103.683 331.774 106.01C330.128 110.16 331.465 113.234 332.888 117.292C324.312 108.222 313.746 102.707 304.569 94.6316C300.51 91.0596 299.035 86.4129 298.785 81.103C298.625 77.7118 299.378 75.7653 301.747 73.3012C312.013 62.6198 346.28 64.3345 360.169 67.0455C363.983 67.79 371.109 72.5641 374.658 71.7066C379.505 70.5357 385.043 66.4352 389.942 64.6089C404.648 59.1276 419.49 59.117 434.949 58.7417L430.94 58.4111C438.623 57.0774 448.462 58.1165 456.371 58.1148C468.167 58.1493 479.958 57.646 491.708 56.6064C503.147 55.3028 515.604 56.2758 527.146 56.2505L599.694 56.0022L810.388 54.1124C811.518 36.0485 812.088 18.0516 813.657 0Z"/><path fill="#ABB551" d="M485.546 60.6753C497.074 60.2184 513.909 59.6873 523.936 65.9168C532.031 70.9467 533.244 79.3296 535.169 87.878C546.208 74.7408 557.107 63.8088 575.015 61.4469C585.703 60.0372 600.476 61.1493 609.298 68.0319C616.28 73.4789 617.575 80.484 618.609 88.7571L624.673 94.0466C617.237 96.2398 609.934 98.4815 602.74 101.381C589.007 107.222 578.855 115.263 570.008 127.292C567.672 123.526 565.074 119.929 562.232 116.528C538.821 88.6103 495.192 87.955 461.265 84.9322C461.384 79.7006 461.3 74.4825 461.21 69.2516C469.093 63.4627 475.997 61.6796 485.546 60.6753Z"/><path fill="#7E8F47" d="M145.413 100.706C147.639 98.4197 150.113 96.3636 152.647 94.428C170.353 80.9036 194.162 70.2282 215.905 65.414C241.543 59.7376 269.347 59.4067 295.505 58.5107C334.09 57.2268 372.693 56.5334 411.299 56.4308C434.981 56.1568 469.807 53.7039 491.708 56.6064C479.958 57.646 468.167 58.1493 456.371 58.1148C448.462 58.1165 438.623 57.0774 430.94 58.4111L434.949 58.7417C419.49 59.117 404.648 59.1276 389.942 64.6089C385.043 66.4352 379.505 70.5357 374.658 71.7066C371.109 72.5641 363.983 67.79 360.169 67.0455C346.28 64.3345 312.013 62.6198 301.747 73.3012C299.378 75.7653 298.625 77.7118 298.785 81.103C299.035 86.4129 300.51 91.0596 304.569 94.6316C313.746 102.707 324.312 108.222 332.888 117.292C333.723 119.239 334.869 121.099 334.359 123.25L332.897 124.152C327.427 122.202 322.556 116.002 317.462 112.788C298.131 100.59 266.492 90.7069 244.672 101.106C219.761 112.979 181.955 168.08 168.588 193.251C162.666 204.4 158.025 216.263 153.934 228.19C142.776 260.721 135.32 298.659 136.684 333.183C137.275 348.143 138.507 364.784 141.943 379.339C143.141 384.412 151.168 405.187 149.548 408.491L148.474 407.47C149.632 401.383 144.778 393.92 142.956 387.85C138.836 374.127 137.281 359.177 136.178 344.942C132.204 293.64 144.953 234.412 169.003 189.027C178.579 170.955 192.094 152.712 205.074 136.944C215.026 124.855 226.303 111.054 239.335 102.266C251.581 94.0088 269.319 94.8759 283.289 97.7166C294.35 99.966 304.675 104.085 314.591 109.447C319.317 112.002 328.99 121.661 333.062 121.877C332.393 116.197 322.533 109.189 318.106 105.7C311.446 100.451 303.38 95.1 295.495 91.9482C287.19 88.6288 268.159 86.5887 259.323 87.588C233.742 90.4809 207.899 119.374 193.144 138.277C179.447 155.871 167.621 174.843 157.858 194.887C153.783 203.411 150.738 212.201 147.188 220.924C145.587 224.861 143.409 228.684 142.182 232.755C140.858 237.146 140.252 244.667 136.703 247.812C135.526 244.177 143.712 224.306 141.97 223.389C131.964 218.121 119.486 223.798 110.862 213.191C112.151 204.123 151.248 176.731 143.902 166.451C139.792 160.701 129.811 156.152 124.187 151.503C121.46 149.249 118.029 144.747 114.934 143.441C100.895 174.42 95.3026 236.69 92.5269 271.628C91.095 290.413 89.9564 309.22 89.1114 328.042C88.6411 338.644 88.9171 349.618 87.6308 360.137C87.0148 365.173 85.7404 373.204 82.9832 377.523C62.4045 377.127 42.4401 377.647 21.8787 378.705C15.5358 379.031 9.45015 378.414 3.18395 379.57C0.693928 390.135 2.59436 411.382 2.66016 422.907C11.2679 422.996 21.643 424.254 30.0164 422.848C40.1055 421.153 50.5994 418.971 60.4543 416.245C73.3989 412.665 102.615 400.819 114.875 402.37C117.794 402.739 122.074 403.28 124.775 402.006C122.989 378.776 123.993 357.339 126.27 334.181C126.746 329.338 126.497 323.651 127.959 319.013L128.442 319.621L128.17 318.84L127.67 320.011C129.834 322.678 128.744 331.865 128.378 335.406C125.897 359.405 122.597 379.002 126.64 403.394C100.016 403.15 79.6713 412.944 54.5301 419.152C36.1099 423.699 18.9245 424.613 0 424.519L0 377.037C27.6844 376.987 55.3549 375.699 83.0331 375.055C87.81 354.468 87.234 333.917 88.371 312.92C91.0571 263.316 95.4527 184.144 114.776 139.582C122.339 124.848 132.16 110.859 145.413 100.706Z"/><path fill="#ABB551" d="M145.413 100.706C177.276 92.2701 191.989 94.6012 222.706 105.073C186.809 137.409 161.976 176.69 145.298 221.875C137.052 221.628 121.953 220.548 115.232 215.792C114.048 213.858 113.435 213.083 114.173 210.722C117.272 200.798 150.72 179.064 145.623 166.835C141.819 157.707 121.331 151.198 114.776 139.582C122.339 124.848 132.16 110.859 145.413 100.706Z"/><path fill="#789142" d="M1128.08 52.513C1131.45 52.5077 1134.89 52.3616 1138.25 52.5538L1365.1 52.4661L1380.69 52.4084C1405.31 57.6817 1414.26 65.9494 1427.61 86.5665L1428.05 87.2471L1428.93 89.4635C1427.34 93.086 1425.44 96.3196 1423.31 99.651C1417.65 84.6217 1408.31 71.9781 1393.34 65.1493C1381.62 59.8069 1369.59 59.2872 1357.57 63.9096C1345.09 68.7099 1335.6 76.4735 1328.35 87.6378C1324.19 77.4253 1317.52 70.9847 1307.34 66.6051C1293.65 60.7176 1276.69 61.1591 1263 66.8099C1256.55 69.4704 1251.07 73.2555 1246.22 78.2856C1227.13 65.5331 1207.33 58.9739 1184.26 63.5453C1175.08 65.3654 1166.53 68.9345 1158.52 73.7535C1150.27 65.1687 1141.73 62.4 1129.93 62.195C1120.87 62.0373 1109.85 63.0803 1102.96 69.6825C1093.06 79.1601 1097.42 107.916 1084.83 111.33C1084.81 111.159 1084.8 110.986 1084.78 110.815C1083.66 101.905 1089.38 89.5222 1084.21 81.8157C1077.83 72.2971 1059.9 76.1447 1050.04 74.6182C1050.83 71.8907 1051.63 69.377 1051.48 66.4979C1050.38 64.2636 1050.26 60.3853 1049.96 57.8838C1050.63 56.0994 1051.26 55.0567 1052.67 53.7627C1054.1 53.6426 1055.53 53.5868 1056.85 52.9676C1057.11 52.843 1057.37 52.7071 1057.64 52.5769C1081.09 52.4089 1104.63 52.0024 1128.08 52.513Z"/><path fill="#7E8F47" d="M1138.25 52.5538L1365.1 52.4661C1351.89 57.6503 1342.41 60.6095 1331.96 70.9461C1322.47 61.502 1310.05 56.1568 1296.84 54.4867C1278.36 52.1501 1261.34 56.1107 1246.54 67.6253C1239.57 62.908 1231.92 58.8972 1223.87 56.3727C1201.46 49.3405 1180.72 53.6489 1160.31 64.3453C1152.41 57.9046 1146.52 57.1289 1138.25 52.5538Z"/><path fill="#849740" d="M1057.64 52.5769C1081.09 52.4089 1104.63 52.0024 1128.08 52.513C1125.16 54.2298 1121.71 54.5213 1118.44 55.1814C1105.51 57.7878 1096.44 62.1133 1087.88 72.5973C1076.52 66.4253 1064.19 66.081 1051.48 66.4979C1050.38 64.2636 1050.26 60.3853 1049.96 57.8838C1050.63 56.0994 1051.26 55.0567 1052.67 53.7627C1054.1 53.6426 1055.53 53.5868 1056.85 52.9676C1057.11 52.843 1057.37 52.7071 1057.64 52.5769Z"/><path fill="#789142" d="M1203.79 145.73C1223.42 142.027 1246.6 148.56 1263.67 158.117C1278.85 166.62 1290.33 179.365 1294.96 196.447C1299 211.355 1295.3 224.936 1287.92 238.013C1289.18 226.683 1289.02 216.929 1286.84 205.724C1274 168.185 1235.2 155.06 1198.72 156.191C1191.73 156.408 1171.51 161.053 1166.76 157.704L1167.03 155.928C1172.73 149.429 1195.23 146.697 1203.79 145.73Z"/><path fill="#789142" d="M1331.84 153.696C1332.02 153.738 1332.2 153.774 1332.38 153.822C1338.45 155.457 1343.93 167.968 1346.97 173.329C1346.71 169.601 1345.95 165.098 1347.44 161.603C1347.78 160.815 1348.19 160.867 1348.94 160.547C1351.21 162.791 1351.54 166.35 1352.18 169.359C1352.65 172.343 1353.7 176.482 1351.76 179.132C1350.69 180.599 1350.28 180.504 1348.5 180.719C1345.9 180.012 1344.07 178.441 1342.33 176.461C1338.01 171.555 1331.47 160.345 1331.84 153.696Z"/><path fill="#789142" d="M1403.5 647.804C1405.58 647.792 1407.24 647.622 1409.05 648.794C1410.91 655.612 1411.13 677.174 1408.72 683.591C1406.27 683.272 1405.7 683.289 1403.84 681.729C1400.35 673.337 1402.16 656.794 1403.5 647.804Z"/><path fill="#789142" d="M1382.75 671.188C1385.07 671.122 1386.66 671.198 1388.47 672.707C1388.45 673.753 1388.52 674.274 1387.98 675.185C1384.84 680.511 1375.7 682.387 1370.16 683.65C1367.43 684.072 1366.61 684.521 1364.15 683.046C1364.11 682.198 1364.32 681.539 1364.74 680.809C1367.79 675.548 1377.29 672.906 1382.75 671.188Z"/><path fill="#789142" d="M1290.86 271.239C1292.32 272.099 1293.65 273.097 1294.83 274.315C1299.75 279.363 1307.46 288.799 1307.26 295.97C1300.34 293.249 1294.69 284.94 1291.48 278.529C1290.12 275.805 1289.9 274.189 1290.86 271.239Z"/><path fill="#789142" d="M1369.56 637.279C1374.11 637.998 1385.51 644.779 1388.78 648.188C1390.24 649.706 1389.96 650.25 1389.98 652.295C1388.59 652.204 1387.21 652.069 1385.83 651.888C1380.53 651.16 1374.35 648.458 1371.13 643.998C1369.53 641.775 1369.18 639.959 1369.56 637.279Z"/><path fill="#789142" d="M1470.69 687.631C1473.94 687.82 1476.83 689.779 1479.48 691.525C1483.7 694.308 1486.54 696.619 1487.57 701.649C1486.75 701.657 1485.95 701.635 1485.13 701.563C1480.75 701.174 1474.08 697.689 1471.57 694.039C1469.89 691.611 1470.29 690.38 1470.69 687.631Z"/><path fill="#789142" d="M855.96 358.707C860.141 360.023 864.052 365.248 866.48 368.811C869.277 372.915 871.082 375.589 870.093 380.57C866.836 379.425 864.663 376.025 862.664 373.367C859.888 369.677 855.29 363.496 855.96 358.707Z"/><path fill="#789142" d="M1143.8 418.054C1144.5 418.158 1145.12 418.339 1145.75 418.681C1151 421.536 1159.2 433.247 1161.02 438.953C1159.73 438.76 1158.39 438.534 1157.21 437.914C1151.19 434.729 1145.8 424.348 1143.8 418.054Z"/><path fill="#789142" d="M668.321 254.76C669.881 255.62 670.697 255.714 671.23 257.583C672.663 262.61 669.194 269.602 666.826 273.882C665.568 273.134 664.579 272.436 664.064 270.997C662.299 266.062 666.236 259.002 668.321 254.76Z"/><path fill="#789142" d="M1501.98 389.794C1503.54 390.134 1504.69 391.337 1505.89 392.324C1506.4 394.004 1506.69 394.366 1505.85 395.93C1504.25 398.94 1500.9 399.901 1497.9 400.886C1495.9 400.422 1495.09 400.073 1493.74 398.507L1493.99 396.377C1496.16 393.38 1498.9 391.739 1501.98 389.794Z"/><path fill="#789142" d="M1343.55 302.951C1345.49 303.469 1345.7 303.677 1347.01 305.066L1346.42 306.931C1342.93 310.262 1338.21 312.198 1333.93 314.339L1331.7 314.159L1330.6 312.859C1330.69 312.561 1330.76 312.256 1330.87 311.964C1332.24 308.235 1340.09 304.808 1343.55 302.951Z"/><path fill="#789142" d="M1016.22 508.597C1018.07 510.304 1018.79 511.123 1019.2 513.729C1019.99 518.649 1018.34 524.473 1015.54 528.501C1014.12 527.01 1013.56 525.746 1013.23 523.711C1012.43 518.933 1013.31 512.528 1016.22 508.597Z"/><path fill="#789142" d="M1241.82 124.588C1244.68 124.801 1246.32 126.024 1248.2 128.119C1251.08 131.322 1253.16 135.33 1252.94 139.707C1250.06 139.274 1248.02 137.826 1246.12 135.706C1243.38 132.665 1241.66 128.695 1241.82 124.588Z"/><path fill="#789142" d="M1405.82 527.806L1408.41 529.414C1410.76 533.581 1415.07 541.674 1413.84 546.55C1411.2 545.569 1409.9 544.406 1408.49 541.963C1406.09 537.781 1404.53 532.563 1405.82 527.806Z"/><path fill="#789142" d="M831.657 593.608C832.881 594.112 833.733 594.55 834.642 595.546C838.161 599.401 841.581 606.135 841.513 611.425C839.411 610.966 838.759 610.901 837.194 609.341C833.253 605.414 831.669 598.986 831.657 593.608Z"/><path fill="#789142" d="M1357.56 598.026C1361.58 598.873 1368.71 601.491 1371.64 604.444C1372.66 605.469 1372.31 606.338 1372.29 607.714C1368.24 608.022 1363.58 607.594 1360.31 604.896C1357.74 602.779 1357.71 601.087 1357.56 598.026Z"/><path fill="#789142" d="M1310.06 180.48C1311.6 181.47 1311.68 181.862 1312.43 183.468C1312.54 188.608 1309.95 192.284 1306.92 196.195C1305.55 194.829 1304.45 193.096 1304.34 191.112C1304.11 186.803 1307.36 183.414 1310.06 180.48Z"/><path fill="#789142" d="M1336.29 693.214C1338.79 694.941 1341.02 698.821 1342.47 701.469C1344.18 704.584 1344.51 706.142 1343.5 709.537C1343.34 709.452 1343.19 709.371 1343.03 709.281C1339.64 707.273 1335.56 702.529 1334.77 698.581C1334.25 696.008 1334.93 695.255 1336.29 693.214Z"/><path fill="#789142" d="M400.596 423.432C401.619 423.964 402.453 424.608 403.158 425.534C406.058 429.344 409.299 435.482 408.709 440.369C405.554 439.267 403.798 436.959 402.248 434.109C400.366 430.646 399.481 427.283 400.596 423.432Z"/><path fill="#789142" d="M1320.28 193.842L1322.78 194.471C1323.46 195.446 1323.91 195.569 1323.67 196.817C1323 200.216 1318.23 203.285 1315.57 205.049L1313.36 204.475C1312.83 203.504 1312.5 203.361 1312.72 202.203C1313.38 198.806 1317.68 195.737 1320.28 193.842Z"/><path fill="#789142" d="M1255.49 520.876C1256.52 521.05 1257.56 521.323 1258.4 521.986C1261.85 524.7 1262.66 531.701 1262.89 535.788C1261.22 535.725 1260.05 535.567 1258.89 534.244C1255.77 530.668 1255.39 525.391 1255.49 520.876Z"/><path fill="#789142" d="M650.489 254.71C652.227 255.41 652.31 255.532 653.331 257.113C653.653 261.703 651.549 266.335 650.082 270.622C648.292 270.257 648.344 270.144 647.21 268.685C646.42 263.789 648.617 259.114 650.489 254.71Z"/><path fill="#789142" d="M1254.26 639.467C1255.56 639.645 1256.63 640.107 1257.83 640.61C1261.2 644.415 1262.66 648.02 1262.69 653.125C1261.29 653.202 1260.16 652.635 1258.9 652.12C1255.4 648.517 1254.83 644.274 1254.26 639.467Z"/><path fill="#789142" d="M939.74 788.976C940.086 789.181 940.404 789.35 940.717 789.598C943.943 792.145 949.461 799.754 950.027 803.826C949.803 803.774 949.579 803.726 949.356 803.669C945.676 802.729 942.873 800.432 941.009 797.107C939.516 794.442 938.885 791.973 939.74 788.976Z"/><path fill="#789142" d="M980.339 669.053C982.764 669.996 984.767 672.094 986.459 674.028C988.559 676.427 990.519 678.848 990.283 682.184C987.333 681.831 984.422 679.778 982.521 677.544C980.18 674.793 979.94 672.503 980.339 669.053Z"/><path fill="#789142" d="M886.975 216.885C888.679 217.697 889.526 219.104 890.221 220.802C891.895 224.804 891.893 229.31 890.214 233.309C889.204 232.519 888.333 231.639 887.703 230.503C885.328 226.222 885.575 221.398 886.975 216.885Z"/><path fill="#789142" d="M1266.85 134.385C1268.76 135.88 1269 135.924 1269.52 138.256C1268.89 141.546 1266.08 144.233 1263.99 146.754L1262.39 146.352C1261.47 145.429 1260.92 145.249 1260.92 143.92C1260.93 140.302 1264.54 136.847 1266.85 134.385Z"/><path fill="#789142" d="M690.121 573.049C691.27 573.622 692.012 574.227 692.916 575.138C696.686 578.942 699.357 581.874 699.36 587.347C697.029 586.597 694.438 584.633 692.848 582.76C690.257 579.71 689.741 576.918 690.121 573.049Z"/><path fill="#789142" d="M1124.48 140.39C1127.42 141.139 1128.88 142.92 1130.45 145.418C1132.35 148.457 1133.5 151.981 1132.71 155.537C1131.79 155.168 1130.99 154.735 1130.23 154.08C1126.89 151.202 1124.57 144.689 1124.48 140.39Z"/><path fill="#789142" d="M1157.73 137.691C1159.32 138.454 1159.4 138.552 1160.26 140.096C1160.27 144.46 1158 148.612 1156.3 152.551L1154.48 152.312L1153.53 150.815C1153.18 146.019 1155.48 141.758 1157.73 137.691Z"/><path fill="#789142" d="M335.735 527.907L336.519 528.12C337.405 528.356 338.101 528.634 338.838 529.209C342.485 532.05 344.608 538.339 345.021 542.764C343.936 542.458 342.888 542.126 341.994 541.397C338.25 538.342 336.38 532.505 335.735 527.907Z"/><path fill="#789142" d="M1231.72 640.553C1233.11 641.067 1234.18 641.771 1234.91 643.039C1236.81 646.365 1238.06 650.585 1237.02 654.375L1235.17 654.161C1233.86 653.473 1233.21 652.805 1232.5 651.478C1230.72 648.161 1230.53 644.069 1231.72 640.553Z"/><path fill="#789142" d="M992.708 510.101C992.938 510.15 993.172 510.184 993.398 510.248C995.427 510.822 996.83 512.023 997.773 513.924C999.207 516.813 998.47 519.54 997.356 522.328C995.425 521.198 993.92 520.099 992.808 518.101C991.241 515.288 991.768 512.952 992.708 510.101Z"/><path fill="#789142" d="M1127.95 433.048C1128.94 433.183 1129.97 433.336 1130.91 433.685C1135.39 435.342 1137.02 439.788 1138.6 443.851C1137.44 443.645 1136.22 443.429 1135.13 442.975C1131.04 441.268 1129.32 436.9 1127.95 433.048Z"/><path fill="#789142" d="M562.914 195.795C564.822 197.075 566.197 198.483 567.549 200.327C569.5 202.989 570.893 205.977 570.413 209.335C568.226 208.233 566.709 206.924 565.281 204.953C563.229 202.122 562.378 199.282 562.914 195.795Z"/><path fill="#789142" d="M220.766 646.786C222.598 647.647 223.338 648.169 224.358 649.935C224.98 653.24 223.047 656.284 221.694 659.2C220.236 659.169 220.207 658.885 219.116 657.879C218.355 654.322 219.876 650.25 220.766 646.786Z"/><path fill="#789142" d="M544.201 413.73C544.824 414.113 544.895 414.112 545.483 414.73C548.323 417.713 549.754 423.303 549.823 427.3C547.764 426.755 546.375 425.904 545.268 424.108C543.223 420.792 543.26 417.391 544.201 413.73Z"/><path fill="#789142" d="M709.483 575.705C711.276 576.809 711.3 577.057 712.098 578.9C712.233 582.849 710.468 586.451 709.024 590.043L707.456 588.645C705.974 584.498 708.084 579.617 709.483 575.705Z"/><path fill="#849740" d="M1238.18 526.089C1240.47 526.484 1241.93 527.12 1243.49 528.913C1245.66 531.413 1246.02 533.77 1245.71 536.926C1243.59 536.34 1241.96 535.156 1240.5 533.552C1238.44 531.306 1237.98 529.059 1238.18 526.089Z"/><path fill="#849740" d="M327.133 834.507C328.019 834.979 328.71 835.595 329.48 836.232C330.764 840.833 329.749 844.655 328.474 849.121C327.8 848.599 327.212 848.118 326.755 847.384C324.484 843.734 326.251 838.326 327.133 834.507Z"/><path fill="#789142" d="M315.374 527.935C316.125 528.16 316.808 528.343 317.439 528.834C320.524 531.236 322.327 536.866 322.796 540.601L320.127 539.728C316.553 536.311 315.937 532.675 315.374 527.935Z"/><path fill="#789142" d="M856.02 599.91L857.447 601.6C858.088 606.042 856.111 609.358 854 613.069C853.201 612.332 852.76 612.051 852.445 611.001C851.336 607.31 854.323 603.02 856.02 599.91Z"/><path fill="#789142" d="M282.83 268.041C285.543 267.852 289.208 267.455 291.824 268.306C294.346 269.127 294.711 269.787 295.787 272.016C293.01 272.164 289.457 272.328 286.781 271.487C284.377 270.731 283.935 270.119 282.83 268.041Z"/><path fill="#789142" d="M848.826 373.729C850.57 374.383 852.379 375.705 853.716 377.017C855.552 378.818 856.605 380.702 856.623 383.325C854.421 382.88 851.957 382.025 850.435 380.271C848.604 378.162 848.811 376.313 848.826 373.729Z"/><path fill="#849740" d="M996.736 246.764C997.676 247.513 998.224 248.252 998.937 249.198C999.514 252.693 997.531 255.976 996.153 259.09C994.989 258.518 994.669 257.759 994.032 256.682C993.703 253.207 995.467 249.918 996.736 246.764Z"/><path fill="#789142" d="M726.539 776.392L727.535 777.747C727.436 782.104 724.775 787.11 723.208 791.166C722.568 790.586 722.252 789.839 721.832 789.092C721.734 784.299 724 780.297 726.539 776.392Z"/><path fill="#849740" d="M346.288 837.333C347.192 837.871 347.601 838.417 348.266 839.217C348.64 842.713 346.948 845.85 345.638 849.001C344.184 848.288 343.894 847.632 343.147 846.268C342.928 843.02 344.857 840.137 346.288 837.333Z"/><path fill="#789142" d="M562.566 416.464C563.027 417.057 563.434 417.397 563.584 418.147C564.421 422.328 562.557 425.404 560.412 428.782C559.56 428.1 559.119 428.012 558.83 426.9C557.981 423.637 561.029 419.184 562.566 416.464Z"/><path fill="#789142" d="M391.711 440.683C392.805 440.945 393.837 441.269 394.883 441.687C397.883 442.887 399.527 444.833 400.808 447.742C398.567 448.003 396.799 447.916 394.843 446.575C392.509 444.974 392.229 443.239 391.711 440.683Z"/><path fill="#789142" d="M546.988 202.834C549.893 205.733 552.038 209.179 552.582 213.291C550.231 212.405 548.909 211.424 547.179 209.612C546.264 206.702 546.414 205.724 546.988 202.834Z"/></svg>