<?xml version="1.0" encoding="utf-8" ?><svg xmlns="http://www.w3.org/2000/svg" xmlns:xlink="http://www.w3.org/1999/xlink" width="1108" height="1118" viewBox="0 0 1108 1118"><defs><linearGradient id="gradient_0" gradientUnits="userSpaceOnUse" x1="348.53833" y1="841.19977" x2="466.78802" y2="53.113689"><stop offset="0" stop-color="#402E27"/><stop offset="1" stop-color="#4F3E46"/></linearGradient></defs><path fill="url(#gradient_0)" transform="scale(1.37071 1.37071)" d="M380.377 5.21236C380.262 8.62593 379.44 23.3482 380.731 25.7008C381.546 27.1851 384.068 27.9597 385.2 29.688C385.263 29.7838 385.323 29.8816 385.384 29.9784C386.314 30.9606 387.223 31.9747 388.211 32.899C389.044 41.7989 388.254 50.8879 388.748 59.8326C390.63 59.5897 392.663 59.4333 394.49 58.9194C397.793 57.99 400.979 56.3569 404.389 55.8621C421.431 53.3894 431.805 56.3988 446.625 64.0977C450.682 66.2055 454.955 68.3315 458.588 71.1239C459.876 72.1141 460.976 73.2227 462.066 74.4237C464.651 74.7323 467.23 75.0858 469.803 75.4841C470.89 76.5587 471.974 77.6295 473.014 78.7502C475.773 79.0217 481.899 78.7082 483.692 80.9021C484.051 81.3425 484.388 81.7959 484.727 82.2531C488.266 84.097 505.05 82.9176 509.795 82.9338C514.668 78.7938 517.29 79.9368 523.144 79.3734C523.708 78.0525 524.214 76.6334 525.553 75.9063C526.014 75.6557 526.59 75.4906 527.096 75.6835C529.043 76.4258 530.482 79.9925 531.121 81.8689C532.029 84.5329 532.324 95.7386 533.146 96.5815C534.412 96.3161 535.674 95.9905 536.972 95.9552C538.697 95.7782 540.425 95.6241 542.155 95.493C544.673 92.829 545.996 92.5812 549.561 92.4698C584.381 91.7048 619.209 91.3037 654.038 91.2665L701.496 90.8597C707.966 90.8559 714.51 90.6615 720.973 90.9211C722.179 90.9695 723.559 90.9624 724.628 91.5566C728.216 99.0111 731.081 106.967 734.333 114.593L761.122 178.347C771.868 203.227 782.261 228.259 792.297 253.434C795.77 262.002 801.458 272.682 803.184 281.6C804.082 286.238 803.783 291.289 803.833 296.002C803.925 303.745 803.949 311.49 803.904 319.234C803.885 324.868 803.657 330.638 804.224 336.249C798.354 339.694 792.098 342.676 786.125 345.969C786.053 435.119 786.457 524.27 787.337 613.416C787.93 653.063 788.312 692.712 788.485 732.363C788.528 747.631 788.763 762.928 788.46 778.193L694.105 779.258C673.631 779.393 653.079 778.919 632.622 779.763C625.343 790.468 618.198 801.355 611.195 812.24C610.536 813.48 609.897 814.673 609.433 816L549.342 816L467.528 816L383.832 816L300.347 816L216.928 816L139.373 816C139.554 814.281 139.655 812.749 140.549 811.236C139.515 810.995 138.247 810.781 137.318 810.243C136.187 809.589 135.879 807.594 135.554 806.385C132.988 797.212 131.553 786.863 130.204 777.415C119.42 776.847 108.58 777.035 97.7819 777.004L47.5191 776.869C37.1492 776.844 26.3513 777.4 16.0351 776.489C14.8315 766.164 15.6059 755.273 15.5164 744.878C15.1643 723.501 15.0524 702.122 15.1808 680.743L13.6971 463.726L13.1656 388.89C13.0268 376.235 13.5621 361.814 12.2254 349.354C8.98443 346.972 5.35076 345.266 2.29819 342.595C2.60042 330.483 2.71956 318.367 2.65558 306.251C2.62082 300.026 1.65794 284.801 2.95975 279.348C5.00656 270.774 11.4756 258.553 15.2459 250.183L40.2176 194.842L67.9576 133.292L75.6763 116.325C77.1309 113.135 78.4229 109.663 80.2927 106.71C81.8275 103.022 83.2654 99.2505 85.1722 95.736C88.4078 95.5582 91.7182 95.8754 94.9609 95.9544C100.261 96.0526 105.562 96.1134 110.864 96.1365L169.629 96.2895L370.678 95.9692C370.449 81.1965 370.734 66.3543 370.756 51.5765C370.773 40.2274 370.228 28.3382 371.533 17.0687L374.9 14.5092C374.96 12.3789 375.215 10.3664 375.547 8.26609C377.102 7.18631 378.774 6.22338 380.377 5.21236Z"/><defs><linearGradient id="gradient_1" gradientUnits="userSpaceOnUse" x1="270.0918" y1="45.606457" x2="97.650085" y2="334.45425"><stop offset="0" stop-color="#A9A7A8"/><stop offset="1" stop-color="#C0BAAF"/></linearGradient></defs><path fill="url(#gradient_1)" transform="scale(1.37071 1.37071)" d="M380.377 5.21236C380.262 8.62593 379.44 23.3482 380.731 25.7008C381.546 27.1851 384.068 27.9597 385.2 29.688C385.263 29.7838 385.323 29.8816 385.384 29.9784C384.402 30.4729 383.999 30.5375 383.672 31.6822C382.742 34.9449 384.426 46.7563 384.683 50.6892C384.993 55.4569 385.147 60.9532 384.447 65.6899L384.029 195.806C383.33 198.987 384.569 203.711 383.123 206.441C382.339 207.06 381.731 207.354 380.754 207.506C379.494 207.702 378.462 207.477 377.462 206.678C374.389 204.225 375.294 196.416 375.227 192.798C374.87 196.596 374.895 200.409 374.865 204.22C373.739 204.878 372.687 205.769 371.373 205.743L371.164 205.568C371.006 205.956 370.911 206.377 370.689 206.732C369.101 209.27 354.058 214.726 350.508 216.327C344.079 219.228 337.885 222.715 331.689 226.077C310.856 237.383 290.893 250.302 269.838 261.169C268.699 262.431 267.62 263.663 265.927 264.14C260.994 267.642 255.491 270.552 250.27 273.621C242.976 277.909 235.748 282.451 228.081 286.042C219.384 284.632 210.209 285.184 201.412 285.173L169.757 285.018L66.9473 285.006C48.4177 284.96 29.4936 285.726 11.0208 284.398C13.2173 275.341 16.6798 266.69 20.0842 258.035C26.3666 242.241 33.0921 226.627 40.2529 211.212C49.5528 190.182 59.053 169.241 68.7522 148.392C74.9455 135.229 81.6026 122.312 87.8983 109.21L87.699 109.02C87.4567 107.675 89.7825 104.717 90.3339 103.172C89.3372 102.592 88.3225 102.906 87.191 102.987L86.8492 102.594L87.4386 101.23C87.2735 101.153 86.6419 100.849 86.4859 100.808C86.0404 100.693 85.5767 100.661 85.1297 100.552L84.9982 99.6526C85.1016 99.4761 85.2284 99.3113 85.3084 99.123C85.6241 98.3805 85.6322 98.1107 85.3348 97.3827L84.8842 98.2432L85.1903 97.5287C84.9976 98.2597 81.3519 106.175 80.8486 106.769L80.2927 106.71C81.8275 103.022 83.2654 99.2505 85.1722 95.736C88.4078 95.5582 91.7182 95.8754 94.9609 95.9544C100.261 96.0526 105.562 96.1134 110.864 96.1365L169.629 96.2895L370.678 95.9692C370.449 81.1965 370.734 66.3543 370.756 51.5765C370.773 40.2274 370.228 28.3382 371.533 17.0687L374.9 14.5092C374.96 12.3789 375.215 10.3664 375.547 8.26609C377.102 7.18631 378.774 6.22338 380.377 5.21236Z"/><path fill="#A6A4A3" transform="scale(1.37071 1.37071)" d="M270.354 155.065L316.385 154.9C333.51 154.691 350.687 154.233 367.811 154.736C367.538 164.027 367.374 173.321 367.32 182.616C367.287 187.673 366.833 193.158 367.836 198.136C368.392 200.891 369.548 203.282 371.164 205.568C371.006 205.956 370.911 206.377 370.689 206.732C369.101 209.27 354.058 214.726 350.508 216.327C344.079 219.228 337.885 222.715 331.689 226.077C310.856 237.383 290.893 250.302 269.838 261.169L269.598 260.687C269.409 258.802 269.28 257.128 267.907 255.721C265.899 254.891 263.629 254.776 261.478 254.659C249.068 253.983 236.384 254.567 223.936 254.574L145.236 254.545C140.185 253.612 134.023 254.224 128.826 254.204C116.873 254.109 104.919 254.131 92.9668 254.268C93.8874 232.743 115.323 173.648 127.563 156.899C132.76 155.89 138.299 156.128 143.58 156.054C152.263 155.949 160.948 155.901 169.632 155.909L240.97 155.515C247.76 155.508 264.436 156.297 270.354 155.065Z"/><path fill="#8D888D" transform="scale(1.37071 1.37071)" d="M119.234 130.705C177.91 130.9 236.584 131.47 295.253 132.416L340.914 132.883C349.805 132.951 358.906 132.595 367.748 133.499C367.895 139.36 367.709 145.237 367.809 151.103L367.817 152.631L367.811 154.736C350.687 154.233 333.51 154.691 316.385 154.9L270.354 155.065C264.436 156.297 247.76 155.508 240.97 155.515L169.632 155.909C160.948 155.901 152.263 155.949 143.58 156.054C138.299 156.128 132.76 155.89 127.563 156.899C115.323 173.648 93.8874 232.743 92.9668 254.268C104.919 254.131 116.873 254.109 128.826 254.204C134.023 254.224 140.185 253.612 145.236 254.545C131.843 255.223 118.14 254.567 104.715 254.556C98.0669 254.551 91.4797 255.071 84.8438 255.201C76.6339 255.362 68.3545 255.048 60.141 254.927C63.6698 246.857 66.1809 238.31 69.3046 230.068C73.1354 219.96 77.6119 209.918 82.0108 200.038C84.5438 194.35 88.048 188.982 90.8733 183.403C97.0882 171.132 102.756 158.342 109.491 146.364C112.496 141.018 116.13 136.004 119.234 130.705Z"/><path fill="#605960" transform="scale(1.37071 1.37071)" d="M270.354 155.065C265.351 154.685 260.172 154.95 255.15 155.007C247.507 155.105 239.864 155.153 232.22 155.153C228.57 155.156 223.766 155.708 220.275 154.838C226.744 153.973 234.006 154.589 240.559 154.592L277.437 154.591C303.155 154.824 328.892 154.086 354.604 153.798L354.741 153.487C352.221 152.692 348.785 153.186 346.12 153.152C331.849 152.972 317.642 153.525 303.377 153.759C285.989 154.044 268.381 154.228 251 153.667C266.462 153.091 281.972 153.637 297.443 153.404C320.9 153.05 344.353 152.082 367.817 152.631L367.811 154.736C350.687 154.233 333.51 154.691 316.385 154.9L270.354 155.065Z"/><defs><linearGradient id="gradient_2" gradientUnits="userSpaceOnUse" x1="219.04507" y1="170.26591" x2="320.24161" y2="-22.275702"><stop offset="0" stop-color="#0B0A0D"/><stop offset="1" stop-color="#4A2A36"/></linearGradient></defs><path fill="url(#gradient_2)" transform="scale(1.37071 1.37071)" d="M380.377 5.21236C380.262 8.62593 379.44 23.3482 380.731 25.7008C381.546 27.1851 384.068 27.9597 385.2 29.688C385.263 29.7838 385.323 29.8816 385.384 29.9784C384.402 30.4729 383.999 30.5375 383.672 31.6822C382.742 34.9449 384.426 46.7563 384.683 50.6892C384.993 55.4569 385.147 60.9532 384.447 65.6899L384.029 195.806C383.33 198.987 384.569 203.711 383.123 206.441C382.339 207.06 381.731 207.354 380.754 207.506C379.494 207.702 378.462 207.477 377.462 206.678C374.389 204.225 375.294 196.416 375.227 192.798C374.87 196.596 374.895 200.409 374.865 204.22C373.739 204.878 372.687 205.769 371.373 205.743L371.164 205.568C369.548 203.282 368.392 200.891 367.836 198.136C366.833 193.158 367.287 187.673 367.32 182.616C367.374 173.321 367.538 164.027 367.811 154.736L367.817 152.631L367.809 151.103C368.656 142.434 367.692 133.761 367.741 125.102C368.421 117.765 367.977 109.999 368.012 102.615C354.846 102.146 341.633 102.39 328.46 102.436L267.532 102.527C208.982 102.357 150.313 101.654 91.7711 102.443C90.564 104.746 89.2722 107.003 87.8983 109.21L87.699 109.02C87.4567 107.675 89.7825 104.717 90.3339 103.172C89.3372 102.592 88.3225 102.906 87.191 102.987L86.8492 102.594L87.4386 101.23C87.2735 101.153 86.6419 100.849 86.4859 100.808C86.0404 100.693 85.5767 100.661 85.1297 100.552L84.9982 99.6526C85.1016 99.4761 85.2284 99.3113 85.3084 99.123C85.6241 98.3805 85.6322 98.1107 85.3348 97.3827L84.8842 98.2432L85.1903 97.5287C84.9976 98.2597 81.3519 106.175 80.8486 106.769L80.2927 106.71C81.8275 103.022 83.2654 99.2505 85.1722 95.736C88.4078 95.5582 91.7182 95.8754 94.9609 95.9544C100.261 96.0526 105.562 96.1134 110.864 96.1365L169.629 96.2895L370.678 95.9692C370.449 81.1965 370.734 66.3543 370.756 51.5765C370.773 40.2274 370.228 28.3382 371.533 17.0687L374.9 14.5092C374.96 12.3789 375.215 10.3664 375.547 8.26609C377.102 7.18631 378.774 6.22338 380.377 5.21236Z"/><path fill="#4A3C44" transform="scale(1.37071 1.37071)" d="M384.447 65.6899L384.029 195.806C383.33 198.987 384.569 203.711 383.123 206.441C382.339 207.06 381.731 207.354 380.754 207.506C379.494 207.702 378.462 207.477 377.462 206.678C374.389 204.225 375.294 196.416 375.227 192.798L375.897 85.2312C377.176 87.0353 375.055 108.305 375.895 112.993C377.617 113.272 380.095 111.386 381.896 110.969C382.382 110.856 382.779 110.79 383.218 110.539C383.352 110.463 383.933 110.076 383.982 109.995C385.168 108.017 382.877 72.2366 384.447 65.6899Z"/><path fill="#3C2A2E" transform="scale(1.37071 1.37071)" d="M379.501 41.477C379.713 41.6238 379.944 41.7472 380.138 41.9173C381.551 43.1536 381.115 47.2428 381.087 48.9726C380.927 48.8628 380.754 48.7703 380.607 48.6433C378.829 47.0999 379.441 43.628 379.501 41.477Z"/><path fill="#4A3C44" transform="scale(1.37071 1.37071)" d="M112.849 125.137C121.801 124.444 131.203 125.039 140.199 125.084L194.486 125.386C252.238 125.658 309.991 125.563 367.741 125.102C367.692 133.761 368.656 142.434 367.809 151.103C367.709 145.237 367.895 139.36 367.748 133.499C358.906 132.595 349.805 132.951 340.914 132.883L295.253 132.416C236.584 131.47 177.91 130.9 119.234 130.705C116.13 136.004 112.496 141.018 109.491 146.364C102.756 158.342 97.0882 171.132 90.8733 183.403C88.048 188.982 84.5438 194.35 82.0108 200.038C77.6119 209.918 73.1354 219.96 69.3046 230.068C66.1809 238.31 63.6698 246.857 60.141 254.927C68.3545 255.048 76.6339 255.362 84.8438 255.201C91.4797 255.071 98.0669 254.551 104.715 254.556C118.14 254.567 131.843 255.223 145.236 254.545L223.936 254.574C236.384 254.567 249.068 253.983 261.478 254.659C263.629 254.776 265.899 254.891 267.907 255.721C269.28 257.128 269.409 258.802 269.598 260.687L269.838 261.169C268.699 262.431 267.62 263.663 265.927 264.14L265.586 263.691C258.485 265.076 249.289 264.282 241.959 264.267L197.248 264.143L107.175 263.852L79.5716 263.76C72.4049 263.72 65.3104 263.977 58.2358 262.677C56.713 261.332 56.031 257.909 55.8989 255.965C54.863 240.724 101.237 139.273 112.849 125.137Z"/><path fill="#3C2A2E" transform="scale(1.37071 1.37071)" d="M269.598 260.687L269.838 261.169C268.699 262.431 267.62 263.663 265.927 264.14L265.586 263.691L269.598 260.687Z"/><defs><linearGradient id="gradient_3" gradientUnits="userSpaceOnUse" x1="637.89764" y1="103.46671" x2="528.49384" y2="288.41287"><stop offset="0" stop-color="#867E86"/><stop offset="1" stop-color="#A3A2A1"/></linearGradient></defs><path fill="url(#gradient_3)" transform="scale(1.37071 1.37071)" d="M384.447 65.6899C385.147 60.9532 384.993 55.4569 384.683 50.6892C384.426 46.7563 382.742 34.9449 383.672 31.6822C383.999 30.5375 384.402 30.4729 385.384 29.9784C386.314 30.9606 387.223 31.9747 388.211 32.899C389.044 41.7989 388.254 50.8879 388.748 59.8326C390.63 59.5897 392.663 59.4333 394.49 58.9194C397.793 57.99 400.979 56.3569 404.389 55.8621C421.431 53.3894 431.805 56.3988 446.625 64.0977C450.682 66.2055 454.955 68.3315 458.588 71.1239C459.876 72.1141 460.976 73.2227 462.066 74.4237C464.651 74.7323 467.23 75.0858 469.803 75.4841C470.89 76.5587 471.974 77.6295 473.014 78.7502C475.773 79.0217 481.899 78.7082 483.692 80.9021C484.051 81.3425 484.388 81.7959 484.727 82.2531C488.266 84.097 505.05 82.9176 509.795 82.9338C514.668 78.7938 517.29 79.9368 523.144 79.3734C523.708 78.0525 524.214 76.6334 525.553 75.9063C526.014 75.6557 526.59 75.4906 527.096 75.6835C529.043 76.4258 530.482 79.9925 531.121 81.8689C532.029 84.5329 532.324 95.7386 533.146 96.5815C534.412 96.3161 535.674 95.9905 536.972 95.9552L539.811 96.2454C539.647 96.2802 539.483 96.3127 539.32 96.3499C538.757 96.4784 538.249 96.6469 537.71 96.8461C537.744 97.7661 537.897 97.6568 538.526 98.2593C541.986 98.6651 545.593 98.8754 548.992 99.6302L548.8 99.9221C544.021 99.993 538.625 100.917 534.743 97.7095L534.402 98.0882L534.644 98.7759C534.943 99.6394 535.152 100.504 535.36 101.393C540.024 102.812 555.129 100.984 557.473 102.197C551.457 102.586 545.271 101.87 539.302 102.459C538.235 102.469 537.727 102.259 536.874 102.97C536.735 110.355 537.117 117.798 537.352 125.183L537.309 126.601L537.503 132.315L538.255 131.414C552.577 132.32 567.08 131.773 581.427 131.598C592.982 131.457 604.543 131.669 616.096 131.444C622.638 131.692 629.222 131.551 635.77 131.548L636.317 131.6C643.695 132.266 683.887 130.768 687.313 133.155C688.079 135.922 688.65 138.73 690.331 141.102C697.038 150.571 702.147 160.21 707.358 170.555C710.977 177.742 714.857 184.837 718.089 192.209C724.426 206.667 729.728 221.626 735.946 236.127C737.751 240.337 744.145 251.883 744.205 255.488C739.022 256.294 733.157 255.451 727.905 255.321C722.806 255.195 717.672 255.364 712.571 255.465L552.197 254.554L507.589 254.467C501.73 254.458 493.088 255.506 487.584 254.058C480.971 252.319 474.265 247.999 468.112 245.033C451.056 236.811 434.193 228.251 417.036 220.234C409.886 216.893 402.421 212.824 394.893 210.476C394.728 210.425 394.562 210.377 394.397 210.328L394.478 205.368C394.307 205.951 394.08 206.463 393.833 207.017C391.321 208.356 387.197 207.227 384.366 207.114C383.949 203.415 384.123 199.534 384.029 195.806L384.447 65.6899Z"/><defs><linearGradient id="gradient_4" gradientUnits="userSpaceOnUse" x1="492.97238" y1="54.042221" x2="388.77875" y2="208.75108"><stop offset="0" stop-color="#461907"/><stop offset="1" stop-color="#140826"/></linearGradient></defs><path fill="url(#gradient_4)" transform="scale(1.37071 1.37071)" d="M384.447 65.6899C385.147 60.9532 384.993 55.4569 384.683 50.6892C384.426 46.7563 382.742 34.9449 383.672 31.6822C383.999 30.5375 384.402 30.4729 385.384 29.9784C386.314 30.9606 387.223 31.9747 388.211 32.899C389.044 41.7989 388.254 50.8879 388.748 59.8326C390.63 59.5897 392.663 59.4333 394.49 58.9194C397.793 57.99 400.979 56.3569 404.389 55.8621C421.431 53.3894 431.805 56.3988 446.625 64.0977C450.682 66.2055 454.955 68.3315 458.588 71.1239C459.876 72.1141 460.976 73.2227 462.066 74.4237C464.651 74.7323 467.23 75.0858 469.803 75.4841C470.89 76.5587 471.974 77.6295 473.014 78.7502C475.773 79.0217 481.899 78.7082 483.692 80.9021C484.051 81.3425 484.388 81.7959 484.727 82.2531C488.266 84.097 505.05 82.9176 509.795 82.9338C514.668 78.7938 517.29 79.9368 523.144 79.3734C523.708 78.0525 524.214 76.6334 525.553 75.9063C526.014 75.6557 526.59 75.4906 527.096 75.6835C529.043 76.4258 530.482 79.9925 531.121 81.8689C532.029 84.5329 532.324 95.7386 533.146 96.5815C534.412 96.3161 535.674 95.9905 536.972 95.9552L539.811 96.2454C539.647 96.2802 539.483 96.3127 539.32 96.3499C538.757 96.4784 538.249 96.6469 537.71 96.8461C537.744 97.7661 537.897 97.6568 538.526 98.2593C541.986 98.6651 545.593 98.8754 548.992 99.6302L548.8 99.9221C544.021 99.993 538.625 100.917 534.743 97.7095L534.402 98.0882L534.644 98.7759C534.943 99.6394 535.152 100.504 535.36 101.393C540.024 102.812 555.129 100.984 557.473 102.197C551.457 102.586 545.271 101.87 539.302 102.459C538.235 102.469 537.727 102.259 536.874 102.97C536.735 110.355 537.117 117.798 537.352 125.183L537.309 126.601L537.503 132.315L537.688 153.984C537.745 168.323 537.594 177.736 526.949 188.59C514.905 200.871 497.742 204.283 481.154 204.363C461.852 204.455 449.305 195.019 433.463 185.797C429.108 183.262 424.649 180.597 419.648 179.595C411.825 178.028 402.791 179.398 394.908 180.342C394.746 188.589 394.09 197.152 394.478 205.368C394.307 205.951 394.08 206.463 393.833 207.017C391.321 208.356 387.197 207.227 384.366 207.114C383.949 203.415 384.123 199.534 384.029 195.806L384.447 65.6899Z"/><path fill="#FDFAF7" transform="scale(1.37071 1.37071)" d="M393.622 110.939C393.533 102.492 392.597 78.8329 394.59 72.0332C395.013 70.5921 396.084 69.3056 397.134 68.2697C402.89 62.5876 410.783 61.8519 418.457 62.0504C441.529 62.6473 462.353 84.3177 486.51 89.2058C492.225 90.3622 498.072 90.3715 503.877 90.198C511.831 89.9603 519.142 89.249 526.645 86.4264C526.889 95.4568 526.765 104.625 527.312 113.629C528.932 122.033 527.942 131.535 527.882 140.091C528.754 151.654 529.548 166.22 522.473 176.092C517.402 183.167 508.836 186.896 500.67 189.031C479.949 194.45 464.313 191.093 446.342 179.951C439.974 176.002 433.489 171.81 426.14 169.972C415.581 167.33 403.754 169.185 393.189 171.011C393.255 164.13 392.314 141.59 394.054 136.619C392.886 133.402 393.659 115.355 393.622 110.939Z"/><path fill="#C44752" transform="scale(1.37071 1.37071)" d="M394.054 136.619C413.853 128.715 429.972 129.826 449.383 138.149C465.997 145.273 477.623 155.164 496.906 152.822C502.499 152.143 507.923 150.867 513.163 148.787C518.472 146.68 523.843 144.235 527.882 140.091C528.754 151.654 529.548 166.22 522.473 176.092C517.402 183.167 508.836 186.896 500.67 189.031C479.949 194.45 464.313 191.093 446.342 179.951C439.974 176.002 433.489 171.81 426.14 169.972C415.581 167.33 403.754 169.185 393.189 171.011C393.255 164.13 392.314 141.59 394.054 136.619Z"/><path fill="#2C6E9D" transform="scale(1.37071 1.37071)" d="M393.622 110.939C396.882 106.119 402.96 103.436 408.547 102.348C441.188 95.9902 457.196 122.146 485.276 124.45C493.547 125.128 502.205 123.324 510.142 121.163C514.086 120.089 524.467 117.176 527.104 114.291L527.312 113.629C528.932 122.033 527.942 131.535 527.882 140.091C523.843 144.235 518.472 146.68 513.163 148.787C507.923 150.867 502.499 152.143 496.906 152.822C477.623 155.164 465.997 145.273 449.383 138.149C429.972 129.826 413.853 128.715 394.054 136.619C392.886 133.402 393.659 115.355 393.622 110.939Z"/><path fill="#A6A4A3" transform="scale(1.37071 1.37071)" d="M537.352 125.183C537.117 117.798 536.735 110.355 536.874 102.97C537.727 102.259 538.235 102.469 539.302 102.459C544.877 103.161 550.729 102.908 556.347 102.942L583.214 103.061L661.911 103.222C673.298 103.199 684.685 103.287 696.07 103.488C701.88 103.578 707.798 103.453 713.588 103.904C718.938 109.736 724.943 124.058 728.528 131.595C740.707 157.629 752.401 183.888 763.603 210.358C770.663 226.744 778.215 242.986 784.706 259.607C788.047 268.163 790.976 276.603 793.323 285.487C774.023 286.379 754.422 285.696 735.092 285.711L619.365 285.423C604.128 285.328 588.891 285.318 573.654 285.392C566.13 285.462 558.458 285.287 550.964 285.861C548.351 286.061 546.079 286.496 543.671 287.587C538.116 285.183 532.923 281.425 527.828 278.17C520.013 273.18 512.264 268.238 504.135 263.765C528.635 262.905 553.244 263.658 577.759 263.765L689.068 263.774L725.594 263.805C731.908 263.811 738.321 264.045 744.625 263.743C746.443 263.656 749.034 263.663 750.563 262.647C751.538 259.956 751.027 257.058 750.433 254.326C747.215 239.547 738.942 221.954 732.772 208.046C726.937 194.64 720.939 181.305 714.78 168.044C712.567 163.318 699.047 133.819 696.709 132.22C694.644 130.633 693 126.17 690.564 125.659C690.368 126.321 690.094 127.079 690.036 127.766C689.947 128.81 690.626 129.448 691.267 130.171C691.355 130.27 691.445 130.368 691.534 130.466L691.43 130.873C690.976 130.598 690.57 130.216 690.066 130.048C689.408 129.828 676.732 130.923 674.563 130.961C661.232 131.199 647.847 130.914 634.51 130.953C628.549 130.97 621.954 130.499 616.096 131.444C604.543 131.669 592.982 131.457 581.427 131.598C567.08 131.773 552.577 132.32 538.255 131.414L537.503 132.315L537.309 126.601L537.352 125.183Z"/><path fill="#4A3C44" transform="scale(1.37071 1.37071)" d="M537.352 125.183C569.909 124.358 602.527 125.213 635.094 125.006L672.94 124.722C679.053 124.703 685.737 124.177 691.785 125.046C693.865 127.228 695.468 129.458 696.709 132.22C694.644 130.633 693 126.17 690.564 125.659C690.368 126.321 690.094 127.079 690.036 127.766C689.947 128.81 690.626 129.448 691.267 130.171C691.355 130.27 691.445 130.368 691.534 130.466L691.43 130.873C690.976 130.598 690.57 130.216 690.066 130.048C689.408 129.828 676.732 130.923 674.563 130.961C661.232 131.199 647.847 130.914 634.51 130.953C628.549 130.97 621.954 130.499 616.096 131.444C604.543 131.669 592.982 131.457 581.427 131.598C567.08 131.773 552.577 132.32 538.255 131.414L537.503 132.315L537.309 126.601L537.352 125.183Z"/><path fill="#3C2A2E" transform="scale(1.37071 1.37071)" d="M537.309 126.601L539.096 126.907C539.446 127.503 539.606 127.464 539.406 128.177C539.095 129.287 538.579 130.306 538.255 131.414L537.503 132.315L537.309 126.601Z"/><path fill="#9D9183" transform="scale(1.37071 1.37071)" d="M140.638 806.448C136.737 801.466 137.015 793.825 137.746 787.78C138.02 785.509 138.461 780.789 140.163 779.232C149.645 778.577 159.349 779.296 168.863 779.266L220.961 778.683L404.673 777.907C450.199 777.938 495.725 778.201 541.248 778.697C557.853 778.727 574.457 778.881 591.06 779.158C600.007 779.277 609.163 778.941 618.062 779.939C614.588 789.883 608.422 799.954 600.686 807.182C584.872 807.82 568.986 807.547 553.162 807.545L483.087 807.681C407.643 808.202 332.196 808.291 256.75 807.949L183.607 807.478C171.303 807.327 158.642 806.354 146.375 806.94L140.638 806.448Z"/><path fill="#7B6B68" transform="scale(1.37071 1.37071)" d="M417.45 811.953C421.538 811.432 426.007 811.733 430.142 811.73L453.493 811.731L528.104 811.692C534.796 812.352 541.71 812.011 548.443 812.119C548.712 813.407 548.923 814.754 549.342 816L467.528 816L383.832 816C384.091 814.689 383.919 813.271 383.855 811.938C395.053 811.828 406.252 811.833 417.45 811.953Z"/><path fill="#82776A" transform="scale(1.37071 1.37071)" d="M383.855 811.938C395.053 811.828 406.252 811.833 417.45 811.953C424.708 812.596 464.704 811.022 467.253 812.837C467.741 813.982 467.643 814.803 467.528 816L383.832 816C384.091 814.689 383.919 813.271 383.855 811.938Z"/><path fill="#9D9183" transform="scale(1.37071 1.37071)" d="M146.887 811.195C169.943 811.566 193.118 811.092 216.148 811.89C216.351 813.285 216.562 814.637 216.928 816L139.373 816C139.554 814.281 139.655 812.749 140.549 811.236L146.887 811.195Z"/><path fill="#82776A" transform="scale(1.37071 1.37071)" d="M298.808 811.902L383.855 811.938C383.919 813.271 384.091 814.689 383.832 816L300.347 816C300.099 814.462 299.505 813.286 298.808 811.902Z"/><path fill="#9D9183" transform="scale(1.37071 1.37071)" d="M216.148 811.89C243.647 812.075 271.32 812.602 298.808 811.902C299.505 813.286 300.099 814.462 300.347 816L216.928 816C216.562 814.637 216.351 813.285 216.148 811.89Z"/><path fill="#82776A" transform="scale(1.37071 1.37071)" d="M528.104 811.692L579.33 811.648C589.056 811.633 599.554 810.883 609.188 812.009L611.195 812.24C610.536 813.48 609.897 814.673 609.433 816L549.342 816C548.923 814.754 548.712 813.407 548.443 812.119C541.71 812.011 534.796 812.352 528.104 811.692Z"/><path fill="#716A7C" transform="scale(1.37071 1.37071)" d="M687.961 131.33C693.456 135.954 694.72 143.354 697.792 149.596C704.799 163.835 712.714 177.813 719.099 192.332C721.52 197.837 723.575 203.516 725.844 209.087C727.806 213.903 730.013 218.618 731.924 223.454C735.688 232.977 741.24 248.64 747.379 256.614C736.985 256.372 722.309 256.958 712.571 255.465C717.672 255.364 722.806 255.195 727.905 255.321C733.157 255.451 739.022 256.294 744.205 255.488C744.145 251.883 737.751 240.337 735.946 236.127C729.728 221.626 724.426 206.667 718.089 192.209C714.857 184.837 710.977 177.742 707.358 170.555C702.147 160.21 697.038 150.571 690.331 141.102C688.65 138.73 688.079 135.922 687.313 133.155C683.887 130.768 643.695 132.266 636.317 131.6L635.77 131.548C653.144 131.025 670.597 132.182 687.961 131.33Z"/><path fill="#37221D" transform="scale(1.37071 1.37071)" d="M135.554 806.385C135.922 805.851 135.661 806.136 136.464 805.666C137.943 806.224 139.051 806.502 140.638 806.448L146.375 806.94L146.755 807.029C148.391 807.398 149.938 807.491 151.606 807.562L142.107 807.516L141.412 808.561C141.575 809.169 141.489 809.459 142.077 809.803C144.235 811.066 147.056 810.5 149.439 810.694C148.592 810.88 147.741 811.047 146.887 811.195L140.549 811.236C139.515 810.995 138.247 810.781 137.318 810.243C136.187 809.589 135.879 807.594 135.554 806.385Z"/><path fill="#9D9183" transform="scale(1.37071 1.37071)" d="M249.525 431.114C265.04 430.392 280.65 430.735 296.184 430.721L368.849 430.73C398.249 430.71 427.65 430.911 457.048 431.335C471.843 431.502 486.647 431.379 501.433 432.003C505.041 440.395 515.402 453.452 517.037 461.19C520.729 461.017 523.625 463.107 527.155 463.364C527.219 463.369 527.273 463.412 527.332 463.436L528.146 461.759C528.427 461.574 528.67 461.311 528.989 461.204C531.508 460.354 564.964 460.934 569.965 461.05C573.822 461.029 577.693 461.079 581.548 460.964C582.674 470.043 582.388 479.445 582.481 488.591C582.614 500.954 582.846 513.317 583.177 525.677C584.628 583.038 585.492 640.413 585.767 697.792C576.507 698.428 567.081 697.856 557.793 697.922C550.268 697.975 529.611 699.168 523.16 697.643C522.53 697.738 522.376 697.906 521.861 698.267L521.393 698.59C521.091 698.802 520.824 699.065 520.514 699.266C518.783 700.384 514.273 699.99 512.238 700.043C508.096 709.088 504.476 718.271 501.041 727.601L456.186 727.096C455.918 715.859 456.141 704.573 456.129 693.332L456.035 639.04C456.075 625.657 456.591 612.072 455.869 598.719C455.457 604.17 455.667 609.719 455.669 615.187L455.673 641.354L455.707 727.769C445.167 727.034 387.229 728.168 383.062 726.227C388.607 725.014 401.958 726.642 408.936 725.874C404.124 725.439 384.889 726.643 382.306 724.375C380.715 724.076 378.973 724.246 377.392 724.526L377.06 725.4C370.916 726.073 318.603 726.232 314.925 724.892L314.546 723.651L313.988 724.479C310.921 725.016 307.835 723.93 304.742 724.25C299.181 725.15 292.504 724.547 286.847 724.52C276.994 724.472 266.825 724.9 257.023 723.802C255.643 718.73 252.608 704.91 249.657 701.01C248.143 699.009 244.993 698.982 242.709 698.71C241.439 691.469 241.407 683.7 240.966 676.349C239.94 660.883 239.294 645.393 239.029 629.895C238.603 592.774 237.835 555.658 236.725 518.551C236.296 505.26 236.352 491.839 235.354 478.582C234.438 473.215 234.535 467.649 234.398 462.221C237.589 460.693 240.267 458.949 242.727 456.399C249.439 449.441 249.641 440.243 249.525 431.114Z"/><path fill="#37221D" transform="scale(1.37071 1.37071)" d="M249.525 431.114C265.04 430.392 280.65 430.735 296.184 430.721L368.849 430.73C398.249 430.71 427.65 430.911 457.048 431.335C471.843 431.502 486.647 431.379 501.433 432.003C505.041 440.395 515.402 453.452 517.037 461.19C517.317 468.965 517.094 476.686 516.755 484.455C496.266 484.531 475.776 484.491 455.287 484.335L454.896 522.326C454.825 531.676 454.96 541.08 454.491 550.419C443.985 551.354 433.163 550.851 422.611 550.867L368.014 550.928L332.941 550.876C325.013 550.852 316.162 551.702 308.465 549.866C307.609 548.908 307.539 547.529 307.422 546.274C306.929 540.937 307.273 535.296 307.274 529.928L307.253 498.471C306.611 491.749 307.078 484.643 307.105 477.88C296.37 477.307 285.406 477.942 274.656 478.203C261.559 478.56 248.456 478.686 235.354 478.582C234.438 473.215 234.535 467.649 234.398 462.221C237.589 460.693 240.267 458.949 242.727 456.399C249.439 449.441 249.641 440.243 249.525 431.114Z"/><path fill="#7B6B68" transform="scale(1.37071 1.37071)" d="M249.525 431.114C265.04 430.392 280.65 430.735 296.184 430.721L368.849 430.73C398.249 430.71 427.65 430.911 457.048 431.335C471.843 431.502 486.647 431.379 501.433 432.003C505.041 440.395 515.402 453.452 517.037 461.19C517.317 468.965 517.094 476.686 516.755 484.455C496.266 484.531 475.776 484.491 455.287 484.335C454.976 473.779 456.061 462.887 455.016 452.411C442.713 451.505 430.195 451.886 417.859 451.842L358.916 451.724C349.445 451.763 339.974 451.751 330.503 451.688C322.92 451.608 315.174 451.13 307.634 452.046L307.49 484.07C307.454 488.765 307.771 493.818 307.253 498.471C306.611 491.749 307.078 484.643 307.105 477.88C296.37 477.307 285.406 477.942 274.656 478.203C261.559 478.56 248.456 478.686 235.354 478.582C234.438 473.215 234.535 467.649 234.398 462.221C237.589 460.693 240.267 458.949 242.727 456.399C249.439 449.441 249.641 440.243 249.525 431.114Z"/><path fill="#2C6E9D" transform="scale(1.37071 1.37071)" d="M315.866 461.771C336.754 461.198 357.973 460.962 378.859 461.591L379.13 494.519C379.204 501.02 379.74 508.071 378.959 514.513C379.397 523.307 379.049 532.318 379.066 541.134C370.794 541.616 362.483 541.441 354.199 541.446L316.281 541.43C315.997 528.418 316.238 515.397 315.878 502.385C315.079 490.511 315.094 473.686 315.866 461.771Z"/><path fill="#4394BC" transform="scale(1.37071 1.37071)" d="M315.878 502.385C336.854 502.191 357.832 502.332 378.804 502.809C378.802 506.656 378.544 510.694 378.959 514.513C379.397 523.307 379.049 532.318 379.066 541.134C370.794 541.616 362.483 541.441 354.199 541.446L316.281 541.43C315.997 528.418 316.238 515.397 315.878 502.385Z"/><path fill="#2C6E9D" transform="scale(1.37071 1.37071)" d="M387.799 460.629L448.281 460.662C448.593 470.168 448.277 479.684 448.218 489.193C448.193 493.248 448.889 498.825 447.969 502.734C447.588 515.641 447.81 528.58 447.681 541.493C427.63 541.536 407.304 542.16 387.29 541.121C387.139 528.197 387.471 515.24 387.606 502.315C387.589 488.443 387.417 474.494 387.799 460.629Z"/><path fill="#4394BC" transform="scale(1.37071 1.37071)" d="M387.606 502.315C400.251 502.459 412.897 502.517 425.543 502.49C432.993 502.499 440.534 502.304 447.969 502.734C447.588 515.641 447.81 528.58 447.681 541.493C427.63 541.536 407.304 542.16 387.29 541.121C387.139 528.197 387.471 515.24 387.606 502.315Z"/><path fill="#ABAAA3" transform="scale(1.37071 1.37071)" d="M527.332 463.436L528.146 461.759C528.427 461.574 528.67 461.311 528.989 461.204C531.508 460.354 564.964 460.934 569.965 461.05C573.822 461.029 577.693 461.079 581.548 460.964C582.674 470.043 582.388 479.445 582.481 488.591C582.614 500.954 582.846 513.317 583.177 525.677C584.628 583.038 585.492 640.413 585.767 697.792C576.507 698.428 567.081 697.856 557.793 697.922C550.268 697.975 529.611 699.168 523.16 697.643C522.53 697.738 522.376 697.906 521.861 698.267L521.393 698.59C521.091 698.802 520.824 699.065 520.514 699.266C518.783 700.384 514.273 699.99 512.238 700.043C512.756 692.468 512.529 684.748 512.7 677.152C513.182 657.477 513.494 637.799 513.638 618.12L516.755 484.455C517.094 476.686 517.317 468.965 517.037 461.19C520.729 461.017 523.625 463.107 527.155 463.364C527.219 463.369 527.273 463.412 527.332 463.436Z"/><defs><linearGradient id="gradient_5" gradientUnits="userSpaceOnUse" x1="531.19159" y1="579.31909" x2="507.34326" y2="580.41162"><stop offset="0" stop-color="#4B3536"/><stop offset="1" stop-color="#634639"/></linearGradient></defs><path fill="url(#gradient_5)" transform="scale(1.37071 1.37071)" d="M517.037 461.19C520.729 461.017 523.625 463.107 527.155 463.364C527.219 463.369 527.273 463.412 527.332 463.436C526.583 469.022 526.144 474.278 526.336 479.931L524.041 650.223C523.935 657.961 524.627 693.466 523.16 697.643C522.53 697.738 522.376 697.906 521.861 698.267L521.393 698.59C521.091 698.802 520.824 699.065 520.514 699.266C518.783 700.384 514.273 699.99 512.238 700.043C512.756 692.468 512.529 684.748 512.7 677.152C513.182 657.477 513.494 637.799 513.638 618.12L516.755 484.455C517.094 476.686 517.317 468.965 517.037 461.19Z"/><path fill="#8D888D" transform="scale(1.37071 1.37071)" d="M527.332 463.436L528.146 461.759C528.427 461.574 528.67 461.311 528.989 461.204C531.508 460.354 564.964 460.934 569.965 461.05C569.856 461.072 569.747 461.096 569.637 461.115C562.948 462.325 549.299 461.505 542.069 461.509C539.19 461.511 535.824 461.203 533.061 462.057C531.487 465.698 536.065 469.586 534.013 472.785C533.063 473.154 532.408 473.267 531.405 472.954C530.054 472.532 528.415 470.816 527.362 469.884C527.093 473.209 526.992 476.659 526.336 479.931C526.144 474.278 526.583 469.022 527.332 463.436Z"/><path fill="#673C19" transform="scale(1.37071 1.37071)" d="M382.573 591.582L382.938 591.062C390.768 590.247 399.305 591.271 407.234 591.182C421.072 591.027 435.375 589.664 449.146 590.707C450.565 605.932 449.594 621.75 449.57 637.061L449.458 725.945L408.936 725.874C404.124 725.439 384.889 726.643 382.306 724.375C380.715 724.076 378.973 724.246 377.392 724.526L377.769 603.762C378.282 599.82 377.718 595.783 378.279 591.823C379.92 592.214 380.967 592.203 382.573 591.582Z"/><path fill="#37221D" transform="scale(1.37071 1.37071)" d="M378.279 591.823C379.92 592.214 380.967 592.203 382.573 591.582L382.347 679.112C382.343 694.101 383.151 709.433 382.306 724.375C380.715 724.076 378.973 724.246 377.392 724.526L377.769 603.762C378.282 599.82 377.718 595.783 378.279 591.823Z"/><path fill="#673C19" transform="scale(1.37071 1.37071)" d="M351.632 591.311C356.049 591.046 375.277 589.167 378.106 590.579C378.173 590.982 378.283 591.416 378.279 591.823C377.718 595.783 378.282 599.82 377.769 603.762L377.392 724.526L377.06 725.4C370.916 726.073 318.603 726.232 314.925 724.892L314.546 723.651C314.231 716.373 314.464 708.998 314.461 701.71C314.416 686.189 314.483 670.668 314.663 655.147C314.756 633.85 313.889 612.147 315.247 590.905C327.078 592.343 339.72 591.41 351.632 591.311Z"/><path fill="#5D433B" transform="scale(1.37071 1.37071)" d="M351.632 591.311C356.049 591.046 375.277 589.167 378.106 590.579C378.173 590.982 378.283 591.416 378.279 591.823C377.718 595.783 378.282 599.82 377.769 603.762C377.376 599.97 377.624 595.96 377.614 592.141C370.44 592.861 358.822 592.486 351.632 591.311Z"/><path fill="#37221D" transform="scale(1.37071 1.37071)" d="M304.742 724.25C304.775 697.775 305.02 671.3 305.477 644.828C305.598 633.969 305.794 623.11 306.066 612.253C306.211 606.605 306.177 600.85 306.668 595.227C306.972 591.749 307.184 589.261 310.049 586.96C311.773 585.575 313.349 584.713 315.562 584.452C323.709 583.493 332.359 584.038 340.576 583.997L391.235 584.005L428.649 583.805C435.985 583.798 443.427 583.518 450.716 584.423C455.835 591.601 456.065 588.985 455.869 598.719C455.457 604.17 455.667 609.719 455.669 615.187L455.673 641.354L455.707 727.769C445.167 727.034 387.229 728.168 383.062 726.227C388.607 725.014 401.958 726.642 408.936 725.874L449.458 725.945L449.57 637.061C449.594 621.75 450.565 605.932 449.146 590.707C435.375 589.664 421.072 591.027 407.234 591.182C399.305 591.271 390.768 590.247 382.938 591.062L382.573 591.582C380.967 592.203 379.92 592.214 378.279 591.823C378.283 591.416 378.173 590.982 378.106 590.579C375.277 589.167 356.049 591.046 351.632 591.311C339.72 591.41 327.078 592.343 315.247 590.905C313.889 612.147 314.756 633.85 314.663 655.147C314.483 670.668 314.416 686.189 314.461 701.71C314.464 708.998 314.231 716.373 314.546 723.651L313.988 724.479C310.921 725.016 307.835 723.93 304.742 724.25Z"/><path fill="#ABAAA3" transform="scale(1.37071 1.37071)" d="M625.02 344.031C640.75 345.972 656.988 345.07 672.83 345.049L747.983 344.987C757.876 344.968 770.712 344.023 780.136 344.983C780.441 348.547 780.411 352.077 780.376 355.649C780.448 366.352 781.11 377.47 780.422 388.129L780.052 725.179C769.904 724.594 759.693 724.745 749.53 724.744L700.896 724.816L643.882 724.544C633.091 724.456 622.198 724.082 611.413 724.35C610.237 719.058 607.477 702.153 603.397 699.625C601.554 698.484 597.351 697.593 596.689 695.316C595.725 691.998 596.091 681.494 595.985 677.291C595.342 651.784 595.481 626.262 594.984 600.75C594.49 575.066 593.818 549.386 592.968 523.711C592.554 512.893 592.248 502.071 592.048 491.246C591.883 482.942 591.611 474.647 592.445 466.366C592.796 462.88 602.389 454.575 604.998 451.288C604.688 450.612 604.412 450.544 603.817 450.129C604.78 448.102 606.788 446.577 607.998 444.65C608.856 443.284 609.144 441.573 609.746 440.072L610.294 439.869L611.095 440.996C612.405 437.643 613.049 434.047 613.604 430.505C619.123 430.149 624.688 430.584 630.212 430.303C634.158 430.103 637.68 429.386 640.385 426.267C642.235 424.133 643.498 421.516 644.411 418.863C646.016 414.198 655.547 372.518 655.327 369.417C654.608 369.26 654.298 369.187 653.775 368.637C652.379 367.171 651.181 365.099 649.967 363.452C647.682 360.352 645.289 357.556 642.517 354.88C636.585 351.424 630.911 347.556 625.02 344.031Z"/><path fill="#605960" transform="scale(1.37071 1.37071)" d="M625.02 344.031C640.75 345.972 656.988 345.07 672.83 345.049L747.983 344.987C757.876 344.968 770.712 344.023 780.136 344.983C780.441 348.547 780.411 352.077 780.376 355.649C780.448 366.352 781.11 377.47 780.422 388.129C779.741 381.553 780.142 374.611 780.178 368.004C772.25 367.624 764.132 368.018 756.189 368.064L703.165 368.518L671.341 368.513C666.548 368.492 659.923 367.68 655.333 368.758L655.327 369.417C654.608 369.26 654.298 369.187 653.775 368.637C652.379 367.171 651.181 365.099 649.967 363.452C647.682 360.352 645.289 357.556 642.517 354.88C636.585 351.424 630.911 347.556 625.02 344.031Z"/><path fill="#A6A4A3" transform="scale(1.37071 1.37071)" d="M625.02 344.031C640.75 345.972 656.988 345.07 672.83 345.049L747.983 344.987C757.876 344.968 770.712 344.023 780.136 344.983C780.441 348.547 780.411 352.077 780.376 355.649C749.958 354.962 719.448 355.558 689.023 355.702L662.604 355.743C655.923 355.713 649.141 355.837 642.517 354.88C636.585 351.424 630.911 347.556 625.02 344.031Z"/><path fill="#3C2A2E" transform="scale(1.37071 1.37071)" d="M604.998 451.288C604.688 450.612 604.412 450.544 603.817 450.129C604.78 448.102 606.788 446.577 607.998 444.65C608.856 443.284 609.144 441.573 609.746 440.072L610.294 439.869L611.095 440.996C609.61 444.924 607.521 447.953 604.998 451.288Z"/><path fill="#37221D" transform="scale(1.37071 1.37071)" d="M659.342 572.297C670.785 571.95 682.38 572.413 693.84 572.446C703.921 572.475 714.157 572.029 724.215 572.507C725.859 572.585 728.788 572.571 730.091 573.595C731.265 574.517 732.112 576.523 732.394 577.939C733.325 582.615 733.033 588.148 733.085 592.905L733.179 619.364L733.101 662.702C733.093 669.805 733.435 677.051 733.135 684.138C733.072 685.623 733.043 687.419 732.185 688.667L730.806 688.902C715.913 689.483 700.884 689.239 685.981 689.137C676.593 689.073 666.579 689.66 657.297 688.153C656.093 672.05 657.234 653.343 657.281 636.923C657.304 629.218 656.544 577.466 657.922 573.243C658.132 572.601 658.764 572.554 659.342 572.297Z"/><path fill="#2C6E9D" transform="scale(1.37071 1.37071)" d="M704.651 581.104C711.252 580.961 718.048 580.639 724.622 581.317C725.022 592.4 724.72 603.596 724.71 614.693C724.758 636.936 724.578 659.18 724.169 681.42L720.048 681.463C712.948 681.497 705.848 681.319 698.758 680.931L698.433 581.321L704.651 581.104Z"/><path fill="#2C6E9D" transform="scale(1.37071 1.37071)" d="M664.386 581.207C672.782 581.05 681.207 581.236 689.605 581.288C690.195 592.665 690.143 604.097 690.285 615.489C690.604 637.378 690.544 659.271 690.105 681.158C682.782 682.296 673.303 681.134 665.776 680.831L664.386 581.207Z"/><path fill="#37221D" transform="scale(1.37071 1.37071)" d="M660.844 420.118C671.606 419.646 723.277 419.201 730.275 421.373C731.37 422.7 732.344 424.115 733.34 425.517C733.878 431.389 733.498 437.622 733.492 443.53L733.417 477.136L733.237 506.429C733.187 511.989 733.522 517.987 732.682 523.477C732.168 526.841 730.275 528.545 727.635 530.458C725.976 531.387 724.413 531.898 722.523 532.147C714.741 533.173 706.367 532.707 698.516 532.727C685.466 532.76 670.701 533.635 657.911 531.336C657.074 520.689 657.269 426.176 658.979 421.704C659.42 420.55 659.773 420.543 660.844 420.118Z"/><path fill="#2C6E9D" transform="scale(1.37071 1.37071)" d="M703.105 429.288C710.156 429.01 717.645 428.759 724.664 429.552C725.057 447.91 724.759 466.344 724.712 484.707C724.678 497.865 725.111 511.23 724.35 524.362L720.634 524.572C713.156 524.783 705.673 524.751 698.197 524.474C699.258 501.475 698.559 478.296 698.597 455.272C698.606 449.15 697.902 435.371 698.96 429.873C700.091 429.243 701.812 429.356 703.105 429.288Z"/><path fill="#2C6E9D" transform="scale(1.37071 1.37071)" d="M667.561 429.52C674.681 429.335 681.772 429.388 688.893 429.518C689.775 449.734 689.25 470.12 689.377 490.363C689.442 500.674 690.538 514.747 689.506 524.665C681.925 524.655 674.345 524.688 666.77 524.355L667.289 473.926C667.376 459.137 667.128 444.301 667.561 429.52Z"/><path fill="#ABAAA3" transform="scale(1.37071 1.37071)" d="M23.8083 367.445C50.6203 367.248 77.4336 367.31 104.244 367.63C102.19 370.445 100.418 373.948 100.931 377.539C101.664 382.666 107.385 385.41 111.184 388.199C111.951 398.708 111.952 409.41 112.429 419.954C103.309 420.23 94.185 420.379 85.0604 420.402C79.9609 420.447 74.674 420.2 69.6123 420.763C67.9469 420.948 66.1919 421.051 65.1256 422.52C64.1785 423.826 63.9853 425.395 63.8575 426.959C63.3005 433.773 63.4781 440.817 63.4501 447.653L63.3884 481.862L63.2828 510.354C63.2619 516.96 62.9373 523.72 63.8715 530.273C67.4658 531.301 71.2612 531.456 74.9763 531.511L106.63 531.814C112.858 531.854 119.815 532.422 125.923 531.282C128.026 530.889 130.257 529.985 131.761 528.415C133.036 527.084 133.189 523.857 133.314 522.033C134.023 511.722 133.442 500.989 133.442 490.639L133.563 431.164C138.975 431.161 144.386 431.294 149.792 431.563C154.022 441.218 158.648 450.52 164.409 459.341C164.955 471.74 164.365 484.325 164.137 496.736L162.496 571.061C161.924 603.412 161.115 635.759 160.067 668.098C159.67 678.374 159.715 688.794 158.892 699.037C157.937 699.644 157.016 700.271 156.13 700.977C151.129 704.965 150.421 718.182 149.732 724.498C107.645 724.862 65.5556 724.782 23.4703 724.26L23.8083 367.445Z"/><defs><linearGradient id="gradient_6" gradientUnits="userSpaceOnUse" x1="48.362244" y1="605.25671" x2="147.74306" y2="654.43774"><stop offset="0" stop-color="#2D1305"/><stop offset="1" stop-color="#3B2B27"/></linearGradient></defs><path fill="url(#gradient_6)" transform="scale(1.37071 1.37071)" d="M73.2848 570.753C80.4036 570.655 128.718 569.489 131.763 571.349C133.827 579.13 132.7 608.572 132.687 618.136C132.655 641.545 133.149 665.032 132.605 688.427C129.267 688.962 125.882 688.996 122.51 689.109C102.966 689.065 83.1363 689.667 63.6295 688.714C63.0958 683.323 63.4229 677.715 63.4585 672.291L63.5813 645.67L63.6712 597.964C63.68 590.668 63.4277 583.312 63.6447 576.023C63.6804 574.821 63.6119 573.181 64.3271 572.185C66.9182 570.466 70.2908 570.83 73.2848 570.753Z"/><path fill="#2C6E9D" transform="scale(1.37071 1.37071)" d="M98.799 579.322C107.413 578.931 116.082 578.611 124.703 578.927C125.667 598.789 124.927 618.855 124.874 638.739C124.839 651.78 125.858 665.407 124.567 678.376C121.035 678.018 117.203 678.41 113.633 678.368C108.667 678.309 103.692 677.87 98.7273 677.966C98.4382 645.085 98.4621 612.202 98.799 579.322Z"/><path fill="#2C6E9D" transform="scale(1.37071 1.37071)" d="M70.5156 578.982C77.7078 578.837 84.9022 578.833 92.0946 578.97C92.3224 597.989 92.4125 617.01 92.3648 636.031C92.3532 649.383 92.6091 662.9 91.8319 676.23L91.5582 677.919C89.4521 679.349 74.2302 678.246 70.8712 678.18C70.3046 645.138 70.453 612.03 70.5156 578.982Z"/><path fill="#5D433B" transform="scale(1.37071 1.37071)" d="M70.8712 678.18C74.2302 678.246 89.4521 679.349 91.5582 677.919L91.8319 676.23L91.9675 677.518C93.421 678.669 96.6748 678.205 98.466 678.013C98.554 678.004 98.6402 677.982 98.7273 677.966C103.692 677.87 108.667 678.309 113.633 678.368C117.203 678.41 121.035 678.018 124.567 678.376C125.192 678.726 124.936 678.644 125.565 678.789C126.617 679.034 127.254 679.108 128.065 679.902C128.473 681.216 127.577 682.923 127.132 684.178C119.503 684.411 73.0651 684.471 68.8645 682.804C69.9626 680.241 70.6929 681.71 70.8712 678.18Z"/><path fill="#8D888D" transform="scale(1.37071 1.37071)" d="M331.206 275.26C348.587 266.411 375.232 252.869 394.745 259.181C406.296 262.918 417.58 270.092 428.015 276.221C443.309 285.205 458.358 294.556 473.587 303.639L524.791 334.092C534.381 339.872 543.773 346.09 553.505 351.623C563.83 357.494 574.308 363.512 584.859 368.94C589.305 371.226 594.09 372.96 598.462 375.312C579.457 374.87 560.39 375.431 541.374 375.49L409.388 376.414C326.274 376.753 243.158 376.532 160.046 375.751C164.797 373.842 169.585 371.977 174.161 369.672C184.515 364.456 194.432 357.739 204.32 351.684C219.249 342.631 234.099 333.448 248.867 324.134C274.445 308.152 300.524 293.216 326.523 277.954C326.176 277.474 325.616 277.112 325.204 276.66C326.521 275.398 329.623 273.946 331.413 273.454L330.626 274.472L331.206 275.26Z"/><path fill="#4A3C44" transform="scale(1.37071 1.37071)" d="M326.523 277.954C326.176 277.474 325.616 277.112 325.204 276.66C326.521 275.398 329.623 273.946 331.413 273.454L330.626 274.472L331.206 275.26C329.697 276.277 328.128 277.107 326.523 277.954Z"/><path fill="#4A3C44" transform="scale(1.37071 1.37071)" d="M394.29 364.377C377.214 372.108 357.058 366.888 345.881 351.84C334.704 336.792 335.529 315.987 347.863 301.872C360.196 287.756 380.702 284.149 397.112 293.207C413.522 302.266 421.398 321.54 416.027 339.499C412.723 350.547 404.794 359.622 394.29 364.377Z"/><path fill="#3C2A2E" transform="scale(1.37071 1.37071)" d="M394.29 364.377L393.922 363.414C395.878 361.326 399.79 359.633 402.227 357.938C407.779 354.079 410.555 350.165 413.367 344.041C414.085 342.477 414.441 340.609 415.318 339.155L416.027 339.499C412.723 350.547 404.794 359.622 394.29 364.377Z"/><path fill="#716A7C" transform="scale(1.37071 1.37071)" d="M377.437 298.598C385.103 298.303 392.178 300.674 398.026 305.685C403.483 310.36 407.817 317.429 408.326 324.699C408.854 332.236 405.914 339.714 400.991 345.361C395.011 352.221 387.284 355.717 378.302 356.27C370.05 356.835 362.292 355.602 355.909 349.954C350.518 345.184 347.469 338.144 347.099 331.004C346.676 322.876 349.53 314.918 355.022 308.912C361.074 302.264 368.556 299.027 377.437 298.598Z"/><path fill="#A6A4A3" transform="scale(1.37071 1.37071)" d="M120.82 386.897C129.088 385.369 137.798 385.885 146.187 385.845L180.829 385.686L292.459 385.292L524.645 385.519L592.024 385.626C608.153 385.644 624.585 385.331 640.665 386.62C639.248 397.681 638.458 410.379 633.273 420.372C627.458 420.975 621.53 420.973 615.684 421.165C606.097 421.506 596.508 421.772 586.917 421.962C553.044 422.536 519.166 422.674 485.29 422.376L224.594 422.004L161.22 422.038C155.11 422.014 149.001 421.937 142.892 421.808C139.855 421.744 136.529 421.397 133.514 421.664L130.22 420.439L122.904 419.456C121.29 408.683 121.284 397.764 120.82 386.897Z"/><path fill="#A6A4A3" transform="scale(1.37071 1.37071)" d="M124.38 372.501C123.265 371.74 121.532 370.791 120.822 369.601C120.487 369.037 120.413 368.591 120.631 367.996C123.74 359.513 253.285 283.649 271.077 273.023C285.885 264.18 300.412 254.924 315.382 246.339C327.487 239.353 339.822 232.774 352.367 226.613C371.252 217.318 372.835 216.177 393.414 223.19C412.682 229.756 431.075 238.941 449.266 248.001C475.702 261.169 501.941 274.704 526.944 290.479C538.158 297.555 548.921 305.301 559.811 312.858C574.931 323.444 590.169 333.86 605.524 344.104C612.084 348.506 641.229 366.735 643.566 371.502C643.277 372.22 643.179 372.488 642.504 372.936C639.289 375.069 615.22 375.807 610.854 374.2C606.577 372.626 602.364 369.156 598.453 366.72C592.916 363.33 587.329 360.021 581.696 356.792C547.663 337.138 513.755 317.27 479.974 297.187C459.817 285.249 419.089 257.301 398.627 252.573C384.982 249.421 369.563 251.01 356.271 255.114C336.921 261.088 319.126 272.139 301.581 282.002C269.261 300.332 237.393 319.449 206.006 339.335C206.245 339.879 206.239 340.17 206.769 340.471L206.991 341.019C204.247 343.426 202.021 345.512 198.546 346.851C198.242 345.9 198.277 345.8 197.461 345.252L196.008 345.421C183.991 352.921 171.749 360.054 159.298 366.81C153.879 369.801 148.104 373.704 142.112 375.338C136.99 376.735 131.15 376.458 125.86 376.547L124.38 372.501Z"/><path fill="#4A3C44" transform="scale(1.37071 1.37071)" d="M206.006 339.335C206.245 339.879 206.239 340.17 206.769 340.471L206.991 341.019C204.247 343.426 202.021 345.512 198.546 346.851C198.242 345.9 198.277 345.8 197.461 345.252L196.008 345.421C199.309 343.341 202.642 341.313 206.006 339.335Z"/><path fill="#A6A4A3" transform="scale(1.37071 1.37071)" d="M174.098 462.865C177.851 461.742 183.497 462.491 187.464 462.615C199.008 462.628 213.361 461.871 224.55 463.026C225.923 471.441 225.945 480.203 226.267 488.718L227.597 527.068C228.899 571.284 229.59 615.516 229.671 659.751C229.818 672.541 230.576 685.323 230.733 698.108C224.437 698.173 218.129 698.311 211.834 698.136C207.065 698.081 202.295 698.087 197.525 698.153C195.397 699.236 178.275 698.39 174.354 698.353C172.343 698.431 170.264 698.291 168.247 698.248C170.348 640.926 171.064 583.515 172.639 526.172C173.046 513.473 173.332 500.77 173.499 488.065C173.624 479.701 173.442 471.203 174.098 462.865Z"/><path fill="#ABAAA3" transform="scale(1.37071 1.37071)" d="M187.464 462.615C199.008 462.628 213.361 461.871 224.55 463.026C225.923 471.441 225.945 480.203 226.267 488.718L227.597 527.068C228.899 571.284 229.59 615.516 229.671 659.751C229.818 672.541 230.576 685.323 230.733 698.108C224.437 698.173 218.129 698.311 211.834 698.136C212.707 693.199 211.89 685.241 211.836 680.034C211.729 668.306 211.705 656.577 211.764 644.848L213.268 504.565C213.279 496.842 213.096 488.8 212.462 481.109C211.975 475.201 210.791 469.321 210.968 463.378C202.022 463.647 192.958 463.525 184.008 463.356C184.339 467.143 184.372 470.695 183.356 474.394C183.305 470.778 183.03 467.003 183.519 463.416C184.464 462.662 186.265 462.725 187.464 462.615Z"/><path fill="#A6A4A3" transform="scale(1.37071 1.37071)" d="M174.098 462.865C177.851 461.742 183.497 462.491 187.464 462.615C186.265 462.725 184.464 462.662 183.519 463.416C183.03 467.003 183.305 470.778 183.356 474.394L180.639 594.472C180.371 628.977 180.345 663.483 180.563 697.989C186.162 698.019 191.944 697.763 197.525 698.153C195.397 699.236 178.275 698.39 174.354 698.353C172.343 698.431 170.264 698.291 168.247 698.248C170.348 640.926 171.064 583.515 172.639 526.172C173.046 513.473 173.332 500.77 173.499 488.065C173.624 479.701 173.442 471.203 174.098 462.865Z"/><defs><linearGradient id="gradient_7" gradientUnits="userSpaceOnUse" x1="183.28648" y1="580.31647" x2="177.28552" y2="580.33759"><stop offset="0" stop-color="#81817D"/><stop offset="1" stop-color="#9DA29F"/></linearGradient></defs><path fill="url(#gradient_7)" transform="scale(1.37071 1.37071)" d="M174.098 462.865C177.851 461.742 183.497 462.491 187.464 462.615C186.265 462.725 184.464 462.662 183.519 463.416C183.03 467.003 183.305 470.778 183.356 474.394L180.639 594.472C180.371 628.977 180.345 663.483 180.563 697.989C186.162 698.019 191.944 697.763 197.525 698.153C195.397 699.236 178.275 698.39 174.354 698.353L176.535 697.79C176.734 697.576 177.036 697.423 177.133 697.147C177.72 695.48 177.919 678.644 177.992 675.678C178.326 662.177 177.973 648.61 178.052 635.101L178.92 565.517C179.074 554.048 180.381 542.567 180.729 531.085C181.417 508.386 181.332 485.673 182.07 462.971C179.427 463.032 176.724 463.231 174.098 462.865Z"/><path fill="#9D9183" transform="scale(1.37071 1.37071)" d="M319.721 734.928C330.539 734.616 341.414 734.835 352.241 734.807L420.346 734.781C446.522 734.796 473.002 733.775 499.132 735.01C499.144 741.561 499.076 748.505 503.941 753.593C506.059 755.807 508.005 756.601 510.955 757.11C522.509 759.105 539.44 758.188 551.645 758.244L610.39 758.996C611.857 763.078 613.356 767.168 613.809 771.505L435.675 771.385L235.627 771.657L177.689 771.375C165.873 771.317 153.978 771.578 142.176 770.969C144.128 764.523 147.625 758.423 151.008 752.624C164.087 752.078 243.489 753.663 247.92 750.977C252.568 748.16 255.264 740.56 256.504 735.558C266.507 735.069 276.583 735.384 286.598 735.393C297.64 735.335 308.682 735.179 319.721 734.928Z"/><path fill="#9D9183" transform="scale(1.37071 1.37071)" d="M554.436 294.42C562.009 295.131 569.853 294.591 577.454 294.521L612.736 294.492L733.809 294.894L764.083 295.09C774.034 295.079 784.099 294.889 794.029 295.565C795.339 308.285 795.095 321.568 794.977 334.355C780.504 333.964 765.973 334.279 751.495 334.322L683.733 334.315C670.724 334.307 657.716 334.229 644.708 334.082C633.972 333.975 623.001 333.539 612.321 334.809C606.874 332.283 601.664 328.089 596.689 324.734C582.41 315.108 567.959 305.091 554.436 294.42Z"/><path fill="#9D9183" transform="scale(1.37071 1.37071)" d="M215.138 294.234L215.767 294.18L215.897 294.484C210.502 299.126 153.632 332.989 148.89 334.328C144.219 335.646 127.774 334.523 121.649 334.556C85.473 334.749 49.2158 335.16 13.0486 334.425C12.3495 334.469 12.0337 334.433 11.4122 334.104C10.8202 330.396 11.2409 326.018 11.2671 322.228L11.7136 294.479C28.2586 293.811 45.0937 294.447 61.6725 294.436L161.966 294.391L193.46 294.443C200.658 294.481 207.96 294.803 215.138 294.234Z"/><path fill="#82776A" transform="scale(1.37071 1.37071)" d="M779.185 726.924L779.505 727.081C780.857 729.203 780.259 748.481 780.051 751.883C779.777 756.352 778.368 760.03 774.9 762.967C770.181 766.964 762.75 770.496 756.682 771.661C750.084 772.926 742.999 772.822 736.29 773.003C722.459 773.376 708.678 773.277 694.847 773.119C674.008 772.882 652.773 773.357 632.012 771.477C629.495 767.394 627.074 763.399 624.868 759.139C620.238 750.135 615.72 740.926 612.321 731.379C621.858 731.774 631.403 731.91 640.946 731.786C645.779 731.731 650.625 731.378 655.455 731.443C687.933 731.875 720.381 732.559 752.872 732.568C757.072 732.57 772.6 733.223 775.798 732.372C776.927 732.071 775.897 732.265 777.005 732.076C778.001 731.907 778.866 731.878 779.697 731.25C780.23 729.704 779.856 728.414 779.185 726.924Z"/><path fill="#82776A" transform="scale(1.37071 1.37071)" d="M22.8677 729.652C30.7101 729.381 38.6331 730.212 46.4868 730.301C59.3141 730.446 72.1754 729.971 84.9955 730.371C101.981 730.257 118.966 730.282 135.951 730.446C141.157 730.504 146.402 730.318 151.6 730.499C151.411 734.307 151.189 738.188 150.551 741.951C140 748.818 134.189 760.911 129.529 772.206C109.947 772.594 90.3593 772.645 70.7754 772.359C54.7738 772.239 38.8248 772.253 22.8481 771.195C23.1676 761.438 22.6545 751.62 23.0496 741.9C22.6365 737.881 22.8445 733.691 22.8677 729.652Z"/><path fill="#7B6B68" transform="scale(1.37071 1.37071)" d="M22.8677 729.652C30.7101 729.381 38.6331 730.212 46.4868 730.301C59.3141 730.446 72.1754 729.971 84.9955 730.371L84.5631 730.418C73.8326 731.473 59.3899 730.673 48.303 730.839C44.1008 730.902 39.9897 731.662 35.8079 731.866C33.0956 731.997 25.3523 731.134 23.4445 732.875C23.0506 735.883 23.4585 738.922 23.0496 741.9C22.6365 737.881 22.8445 733.691 22.8677 729.652Z"/><path fill="#ABAAA3" transform="scale(1.37071 1.37071)" d="M521.07 704.127C532.007 703.901 543.018 704.325 553.964 704.341C566.984 704.36 580.038 704.003 593.048 704.585C595.061 710.78 596.339 717.283 597.78 723.633C599.689 731.828 601.515 740.042 603.258 748.274L597.824 748.363C580.877 748.248 563.93 748.047 546.985 747.758C536.521 747.582 526.038 747.582 515.585 747.045C514.088 739.309 514.759 723.594 516.574 716C517.566 711.85 519.259 707.974 521.07 704.127Z"/><path fill="#ABAAA3" transform="scale(1.37071 1.37071)" d="M167.019 704.542C178.05 704.04 189.226 704.413 200.27 704.445C211.77 704.479 223.59 703.982 235.001 705.552C241.981 715.764 244.384 731.843 243.219 743.926L235.39 744.067C223.631 744.333 211.799 743.956 200.034 743.911C186.606 743.861 173.11 744.1 159.693 743.564C160.124 734.147 160.178 718.647 163.185 709.924C163.974 707.635 164.766 705.615 167.019 704.542Z"/><path fill="#2C6E9D" transform="scale(1.37071 1.37071)" d="M103.809 430.493C110.638 430.368 117.479 430.206 124.291 430.791C124.486 451.903 124.508 473.016 124.356 494.129C124.308 503.272 124.534 512.461 124.157 521.597L119.427 521.734C112.44 522.079 105.426 521.814 98.4364 521.649C98.9061 491.357 97.9064 460.944 99.184 430.687L103.809 430.493Z"/><path fill="#2C6E9D" transform="scale(1.37071 1.37071)" d="M70.9292 521.53C72.1965 521.785 73.4248 522.078 74.6674 522.434C73.4026 522.502 72.1228 522.259 70.8669 522.097L70.476 521.472C70.349 512.288 69.6382 431.871 71.5816 428.941C76.4284 428.832 84.3647 427.752 88.7314 429.756L88.4605 430.148L85.8658 430.368C87.1876 430.549 88.2954 430.475 89.3612 431.302C90.3275 441.916 89.6032 454.793 89.6028 465.609C89.6022 484.234 89.9476 502.939 89.2269 521.551C83.1277 521.591 77.0283 521.584 70.9292 521.53Z"/><path fill="#3C2A2E" transform="scale(1.37071 1.37071)" d="M70.9292 521.53C72.1965 521.785 73.4248 522.078 74.6674 522.434C73.4026 522.502 72.1228 522.259 70.8669 522.097L70.476 521.472C70.349 512.288 69.6382 431.871 71.5816 428.941C76.4284 428.832 84.3647 427.752 88.7314 429.756L88.4605 430.148L85.8658 430.368C81.0419 430.378 76.2053 430.324 71.3832 430.44C71.2219 460.748 72.1007 491.255 70.9292 521.53Z"/><path fill="#A6A4A3" transform="scale(1.37071 1.37071)" d="M519.913 431.291C539.421 430.964 559.048 431.223 578.56 431.395C587.81 431.476 597.073 431.185 606.319 431.537C602.962 436.413 599.458 440.999 595.475 445.383C593.358 447.463 590.915 450.399 587.992 451.315C582.954 452.895 572.857 452.17 567.236 452.217L526.494 452.303C522.645 445.204 520.209 438.23 515.39 431.518L519.913 431.291Z"/><path fill="#A6A4A3" transform="scale(1.37071 1.37071)" d="M158.443 431.33C170.661 430.677 183.069 431.04 195.308 431.042C210.455 431.045 225.696 430.799 240.826 431.483C239.174 436.548 237.523 441.725 235.296 446.566L232.552 451.623C224.625 452.835 216.134 452.277 208.116 452.297C195.494 452.328 182.847 452.497 170.229 452.165C166.544 447.539 159.995 436.844 158.443 431.33Z"/><path fill="#ABAAA3" transform="scale(1.37071 1.37071)" d="M74.9396 345.646C92.8925 345.521 110.874 346.123 128.818 345.489C123.769 348.95 119.273 353.15 114.221 356.643C109.377 356.98 104.427 356.762 99.5709 356.754C91.8128 356.723 84.0545 356.784 76.2978 356.938C58.5204 357.195 40.7406 357.245 22.9621 357.088C23.1632 353.374 22.8208 349.589 22.6404 345.876C39.9583 345.148 57.5872 345.776 74.9396 345.646Z"/><path fill="#3C2A2E" transform="scale(1.37071 1.37071)" d="M324.714 377.918C330.041 377.03 353.102 377.449 358.774 378.159L356.38 378.178C363.987 379.09 371.751 378.962 379.397 378.914L380.991 378.983C376.747 380.22 360.126 379.31 354.9 379.28C348.684 379.245 342.387 379.544 336.182 379.277C332.681 379.127 328.049 378.829 324.714 377.918Z"/><path fill="#3C2A2E" transform="scale(1.37071 1.37071)" d="M244.117 434.15C245.217 434.726 246.08 435.555 247.022 436.356C247.077 439.828 247.331 443.479 246.513 446.875C245.434 451.352 241.838 455.503 237.944 457.87L237.625 457.41C239.068 456.193 241.036 454.516 241.714 452.726C241.777 452.562 241.829 452.394 241.888 452.229C243.214 448.508 242.892 443.112 244.855 439.854C245.279 439.15 245.689 438.491 246.084 437.763C245.946 436.389 244.896 435.285 244.117 434.15Z"/><path fill="#3C2A2E" transform="scale(1.37071 1.37071)" d="M130.22 420.439L133.514 421.664C132.867 422.588 132.038 423.022 130.999 423.395C129.977 423.135 129.953 423.212 129.397 422.33C129.501 421.245 129.457 421.203 130.22 420.439Z"/></svg>