<?xml version="1.0" encoding="utf-8" ?><svg xmlns="http://www.w3.org/2000/svg" xmlns:xlink="http://www.w3.org/1999/xlink" width="724" height="792" viewBox="0 0 724 792"><path fill="#6B4210" d="M94.7765 4.33486C100.847 3.09281 124.801 3.44518 131.6 4.16889C152.166 4.91204 172.689 4.92716 193.255 5.44121L301.478 6.31666L549.101 8.7402L605.594 8.93426C613.735 8.97716 625.801 8.21769 633.587 9.86105C638.197 10.834 664.273 28.834 667.912 32.7943C673.815 39.22 685.581 74.7319 689.383 85.2448L718.225 165.534C718.496 166.302 718.52 166.614 719.413 166.731C719.619 166.758 719.829 166.731 720.037 166.732C721.355 166.642 722.68 166.52 724 166.468L724 221.478L720.236 221.83C707.511 223.714 694.56 223.943 681.818 225.785C681.054 243.318 681.545 260.979 681.533 278.532L681.475 371.395L680.997 636.298L681.168 729.226L681.143 750.073C681.142 754.779 681.492 759.839 680.577 764.478C679.753 768.652 667.336 782.436 663.615 786.125C652.555 786.915 641.343 786.571 630.256 786.564L578.328 786.523L419.24 786.683L372.049 786.771C361.838 786.722 351.503 786.301 341.301 786.689L337.802 786.699C329.392 786.131 320.684 786.527 312.254 786.534L266.389 786.54L264.681 789.671L263.532 792L132.377 792L63.518 792C63.3312 790.183 63.1154 788.511 62.5731 786.753C56.8667 781.765 51.4003 776.327 45.9306 771.074C43.0906 768.347 41.5134 766.578 41.0762 762.506C40.4152 756.35 40.7246 749.769 40.6706 743.567L40.3231 711.464L39.444 607.452L35.9088 223.152C30.7122 221.839 2.54667 219.856 0.811528 217.739C0.943601 217.493 1.0639 217.24 1.2091 217.001C4.17221 212.134 1.56664 172.948 4.05206 162.902C6.9502 151.187 10.8776 139.474 14.6199 128.001L30.5933 79.6634L43.1971 41.203C45.4057 34.4944 47.4002 27.3035 50.1556 20.8224C50.5424 19.9126 50.9144 19.1761 51.8059 18.6869C51.9492 18.6083 52.098 18.54 52.2431 18.4648C57.0664 15.9652 62.8012 14.4566 67.9487 12.6964C76.5838 9.74369 85.8178 6.0977 94.7765 4.33486Z"/><path fill="#CAC7B0" d="M138.345 786.294C181.026 785.97 223.71 786.052 266.389 786.54L264.681 789.671L263.532 792L132.377 792C132.346 790.259 132.234 788.508 132.159 786.768C133.787 786.773 137.028 787.136 138.345 786.294Z"/><path fill="#C5B493" d="M62.5731 786.753C70.8817 785.725 83.4483 786.573 92.2343 786.567C107.595 786.556 122.99 786.023 138.345 786.294C137.028 787.136 133.787 786.773 132.159 786.768C132.234 788.508 132.346 790.259 132.377 792L63.518 792C63.3312 790.183 63.1154 788.511 62.5731 786.753Z"/><path fill="#876E1C" d="M720.037 166.732C721.355 166.642 722.68 166.52 724 166.468L724 221.478L720.236 221.83C720.265 218.749 719.761 215.631 719.738 212.528C719.652 200.824 719.828 189.098 719.526 177.397C719.46 174.843 718.336 169.17 719.003 167.092L720.037 166.732Z"/><path fill="#A08A1D" d="M131.6 4.16889C152.166 4.91204 172.689 4.92716 193.255 5.44121L191.677 5.95488L192.775 6.38378C191.773 6.40432 190.954 6.20961 190.135 6.82387C191.072 6.91767 192.553 7.16135 193.454 6.83283C193.612 6.77523 194.08 6.28728 194.167 6.29196C194.283 6.29827 194.743 6.85841 194.908 6.91133C197.495 7.74436 209.543 6.04967 211.039 7.12692L211.032 7.07953C210.333 7.48374 210.329 7.65822 209.498 7.52318C205.27 6.83576 190.135 6.37913 186.551 7.77301C183.963 7.8223 181.376 7.92631 178.792 8.08495C160.653 7.71324 141.087 9.87829 123.45 4.95042L123.285 4.56864C126.014 4.01946 128.827 4.18389 131.6 4.16889Z"/><path fill="#876E1C" d="M193.255 5.44121L301.478 6.31666C291.358 7.09778 281.167 6.90153 271.028 7.0889C255.586 7.37426 240.227 7.78439 224.775 7.78367C212.168 7.78308 199.109 8.65214 186.551 7.77301C190.135 6.37913 205.27 6.83576 209.498 7.52318C210.329 7.65822 210.333 7.48374 211.032 7.07953L211.039 7.12692C209.543 6.04967 197.495 7.74436 194.908 6.91133C194.743 6.85841 194.283 6.29827 194.167 6.29196C194.08 6.28728 193.612 6.77523 193.454 6.83283C192.553 7.16135 191.072 6.91767 190.135 6.82387C190.954 6.20961 191.773 6.40432 192.775 6.38378L191.677 5.95488L193.255 5.44121Z"/><path fill="#895418" d="M94.7765 4.33486C100.847 3.09281 124.801 3.44518 131.6 4.16889C128.827 4.18389 126.014 4.01946 123.285 4.56864L123.45 4.95042C141.087 9.87829 160.653 7.71324 178.792 8.08495C178.278 8.25152 178.355 8.23801 177.745 8.37417C173.632 9.29167 168.257 8.66401 164.002 8.60334C155.643 8.48417 147.235 8.98046 138.893 8.36417C132.221 7.87122 125.673 6.30409 118.956 5.8767C113.04 5.50033 99.3954 7.23056 94.7765 4.33486Z"/><path fill="#ECD5BA" d="M50.0397 224.82C66.3426 224.082 82.6773 224.509 98.9928 224.506L169.597 224.272L398.928 224.277C459.952 224.099 520.978 224.388 581.998 225.145L643.918 225.698C653.158 225.806 662.659 225.275 671.856 226.064C672.142 244.172 672.247 262.283 672.171 280.393C672.16 290.639 672.489 300.977 672.106 311.208L672.855 616.052L672.567 697.447C672.502 715.228 673.061 733.619 671.167 751.302C670.493 757.589 668.82 764.589 664.285 769.275C661.557 772.095 657.646 774.087 653.792 774.78C647.767 775.864 641.248 775.478 635.145 775.463L609.747 775.391L532.936 775.498C532.06 775.492 532.432 775.516 531.562 775.387C522.089 775.862 512.518 775.65 503.03 775.688C488.474 775.796 473.918 775.805 459.362 775.717C458.935 764.304 459.251 752.739 459.17 741.309C459.182 711.815 458.721 682.324 457.787 652.846C457.416 643.258 458.489 633.108 457.073 623.656C456.446 619.475 455.495 616.134 452.412 613.021C447.795 608.362 438.113 609.291 431.985 609.193C398.019 608.968 364.053 608.916 330.086 609.035C316.582 608.962 303.077 609.039 289.575 609.267C283.059 609.415 276.176 609.26 269.728 610.308C266.458 610.839 263.442 612.137 261.075 614.499C258.077 617.492 257.36 620.491 256.868 624.578C256.04 631.458 256.348 638.653 256.411 645.575C256.519 654.545 256.557 663.515 256.524 672.485L256.483 777.685L150.815 778.181L107.096 778.453C94.9148 778.458 81.2677 779.167 69.3633 776.412C63.8667 775.126 59.1095 771.702 56.1454 766.898C51.86 760.001 51.1384 748.925 50.7784 740.907C50.5367 735.523 51.3538 730.108 51.4715 724.724C51.7142 713.624 51.4534 702.451 51.4289 691.346L50.1833 577.565C48.4842 493.524 47.6542 409.467 47.6935 325.409L47.7977 274.83C47.8462 267.871 46.9969 258.581 48.5732 251.909C49.7569 242.915 48.8892 233.767 50.0397 224.82Z"/><path fill="#C4A682" d="M50.0397 224.82C66.3426 224.082 82.6773 224.509 98.9928 224.506L169.597 224.272L398.928 224.277C459.952 224.099 520.978 224.388 581.998 225.145L643.918 225.698C653.158 225.806 662.659 225.275 671.856 226.064C672.142 244.172 672.247 262.283 672.171 280.393C672.16 290.639 672.489 300.977 672.106 311.208C672.044 311.107 671.969 311.013 671.921 310.904C671.07 308.986 671.747 268.234 671.5 261.979C670.975 283.292 671.784 304.639 671.347 325.952C670.788 326.259 670.231 326.451 669.627 326.653C664.29 325.645 667.419 316.014 663.853 313.541C663.165 314.001 662.632 314.375 661.826 314.6C660.595 308.838 660.111 303.043 659.044 297.291C657.787 290.505 656.326 290.875 651.389 287.38C648.616 285.416 643.872 285.483 640.573 284.659C639.064 284.282 637.555 283.542 636.123 282.934C635.161 285.87 636.296 292.999 636.508 296.261C637.181 306.611 637.78 316.957 638.874 327.275L643.02 364.604C643.482 369.029 644.92 375.777 644.129 380.051C642.257 358.999 639.231 338.064 637.516 317.004C636.772 307.44 636.132 297.868 635.596 288.291C635.239 282.655 635.157 276.698 634.009 271.159C633.21 267.301 631.611 264.288 628.784 261.553C625.196 258.081 620.486 255.291 615.464 254.698C603.08 253.234 586.412 254.212 573.472 253.973C530.275 253.176 487.017 253.976 443.809 253.618L158.477 250.333C134.436 250.296 110.279 250.14 86.2445 250.61C81.4546 250.704 76.7154 251.405 71.9349 251.629C64.181 251.992 56.3382 251.842 48.5732 251.909C49.7569 242.915 48.8892 233.767 50.0397 224.82Z"/><path fill="#C5B493" d="M671.347 325.952C671.784 304.639 670.975 283.292 671.5 261.979C671.747 268.234 671.07 308.986 671.921 310.904C671.969 311.013 672.044 311.107 672.106 311.208L672.855 616.052L672.567 697.447C672.502 715.228 673.061 733.619 671.167 751.302C670.493 757.589 668.82 764.589 664.285 769.275C661.557 772.095 657.646 774.087 653.792 774.78C647.767 775.864 641.248 775.478 635.145 775.463L609.747 775.391L532.936 775.498C532.06 775.492 532.432 775.516 531.562 775.387C532.42 774.246 539.948 774.464 541.667 774.427C555.138 774.14 568.577 774.675 582.037 774.805C599.708 775.042 617.382 774.923 635.048 774.447C640.786 774.34 653.809 775.681 658.371 772.504L659.604 771.64C662.327 769.726 664.393 768.549 666.146 765.52C668.708 761.095 670.106 755.528 670.455 750.449C670.858 744.586 670.591 738.663 670.656 732.79L670.789 686.699L671.988 568.862C671.994 563.791 672.678 541.514 671.796 538.331C669.098 528.595 671.312 518.356 671.772 508.512C672.084 501.826 671.914 495.005 671.939 488.305L671.618 405.709C671.809 385.661 671.652 365.61 671.148 345.567C671.06 340.93 671.39 336.439 671.217 331.823C668.586 328.54 671.042 329.58 671.347 325.952Z"/><path fill="#672C06" d="M542.073 310.72C553.36 310.591 564.668 310.79 575.957 310.858C583.908 310.907 592.453 310.4 600.298 311.755C603.528 312.313 606.842 313.263 609.328 315.5C613.813 319.534 614.22 326.323 614.53 331.954C615.328 346.476 615.325 361.239 615.24 375.782C615.185 385.101 615.467 394.911 614.093 404.124C613.615 407.329 612.851 411.652 610.557 414.068C600.996 424.133 582.22 422.741 569.396 422.876C559.566 422.919 549.737 422.864 539.909 422.713C531.661 422.589 522.58 422.762 514.511 420.935C510.232 419.966 505.613 418.244 502.361 415.201C496.16 409.397 496.642 399.998 496.416 392.183C496.125 377.967 496.083 363.747 496.288 349.529C496.364 342.003 495.793 333.607 497.233 326.237C497.866 322.998 499.463 319.176 501.817 316.83C509.639 309.034 531.637 310.835 542.073 310.72Z"/><path fill="#709B91" d="M504.219 330.695C503.309 329.485 503.214 328.095 503.127 326.591C502.988 324.191 503.726 322.059 505.422 320.326C506.524 319.2 508.158 318.204 509.737 317.961C515.297 317.104 521.854 318.083 527.472 318.382C531.666 318.605 535.929 318.549 540.129 318.457L540.445 318.778L539.408 319.014C543.661 319.705 549.633 318.868 554.078 318.853C566.763 318.812 579.468 319.037 592.15 318.822C595.252 318.769 601.05 317.755 603.906 318.763C604.971 319.139 607.572 320.122 608.261 320.96C609.194 322.095 609.139 323.178 608.914 324.547C608.966 326.925 609.262 329.304 609.5 331.67C611.489 339.431 612.076 398.504 608.663 403.994C608.339 404.515 607.87 404.933 607.384 405.299C607.096 405.907 606.814 406.359 606.356 406.861C599.412 414.482 587.009 414.678 577.395 414.941C566.293 415.244 555.149 415.034 544.04 415.127C534.551 415.206 522.224 416.258 513.088 414.424C510.943 413.993 508.939 413.002 507.387 411.443C505.885 409.933 505.309 408.567 504.968 406.499C503.618 398.315 504.328 388.311 504.306 379.921L504.219 330.695Z"/><path fill="#93B5B1" d="M523.296 320.318C530.927 320.216 538.805 319.756 546.411 320.145C551.645 320.51 556.968 320.313 562.214 320.308C574.584 320.295 587.049 319.96 599.407 320.379C600.728 332.043 600.036 344.316 599.941 356.072C599.874 364.445 600.326 373.294 599.253 381.588C594.213 385.478 587.974 387.602 582.105 389.935C572.164 393.888 561.826 397.92 551.287 399.907C539.406 402.147 527.21 402.38 515.225 403.85C514.589 381.724 514.295 359.589 514.344 337.453C514.335 333.931 513.615 324.161 514.361 321.282C515.303 320.773 516.183 320.703 517.225 320.584L523.296 320.318Z"/><path fill="#4B260C" d="M504.219 330.695C503.309 329.485 503.214 328.095 503.127 326.591C502.988 324.191 503.726 322.059 505.422 320.326C506.524 319.2 508.158 318.204 509.737 317.961C515.297 317.104 521.854 318.083 527.472 318.382C531.666 318.605 535.929 318.549 540.129 318.457L540.445 318.778L539.408 319.014C543.661 319.705 549.633 318.868 554.078 318.853C566.763 318.812 579.468 319.037 592.15 318.822C595.252 318.769 601.05 317.755 603.906 318.763C604.971 319.139 607.572 320.122 608.261 320.96C609.194 322.095 609.139 323.178 608.914 324.547C608.408 323.027 607.931 321.816 606.631 320.806C604.52 319.165 601.998 319.328 599.499 319.725C587.675 319.886 575.85 319.932 564.025 319.864C558.258 319.874 552.136 319.519 546.411 320.145C538.805 319.756 530.927 320.216 523.296 320.318L517.225 320.584C513.347 320.383 510.587 320.339 506.939 321.76C506.705 321.852 506.468 321.935 506.233 322.023C504.698 323.374 504.436 324.659 504.327 326.661C504.254 328.003 504.239 329.351 504.219 330.695Z"/><path fill="#563E1B" d="M506.233 322.023C506.526 321.567 506.466 321.767 506.542 321.237C506.56 321.113 506.57 320.989 506.584 320.865C508.439 318.886 510.858 318.42 513.471 318.195C515.808 317.994 521.543 317.699 523.381 319.251L523.296 320.318L517.225 320.584C513.347 320.383 510.587 320.339 506.939 321.76C506.705 321.852 506.468 321.935 506.233 322.023Z"/><path fill="#4B260C" d="M609.5 331.67C611.489 339.431 612.076 398.504 608.663 403.994C608.339 404.515 607.87 404.933 607.384 405.299C609.157 397.678 608.565 388.69 608.767 380.819C609.253 365.606 609.473 350.386 609.43 335.165L609.5 331.67Z"/><path fill="#446F6A" d="M599.499 319.725C601.998 319.328 604.52 319.165 606.631 320.806C607.931 321.816 608.408 323.027 608.914 324.547C608.966 326.925 609.262 329.304 609.5 331.67L609.43 335.165C608.155 333.633 609.125 326.992 607.614 324.258C606.466 322.181 604.456 322.523 602.501 321.952C600.937 321.495 600.284 321.129 599.499 319.725Z"/><path fill="#672C06" d="M119.519 323.949C120.088 322.634 120.886 321.333 121.779 320.208C126.087 314.783 132.71 313.496 139.214 312.674C152.807 310.956 166.824 311.302 180.508 311.281C190.739 311.265 201.431 310.765 211.572 312.298C216.045 312.974 221.198 314.133 224.831 316.97C228.924 319.391 231.067 324.235 232.175 328.659C234.613 338.393 233.58 354.868 233.598 365.249C233.619 376.927 234.474 389.553 232.748 401.102C232.135 405.211 230.88 409.216 228.738 412.796C226.033 417.319 220.634 419.319 215.745 420.489C200.901 424.042 148.623 425.319 133.218 423.16C129.498 422.639 125.694 421.658 122.487 419.627C118.704 417.232 116.555 413.497 115.658 409.189C113.948 400.974 114.814 391.118 114.902 382.693C115.062 367.344 114.868 348.992 116.86 333.941C117.314 330.508 118.027 327.093 119.519 323.949Z"/><path fill="#662401" d="M119.519 323.949C120.088 322.634 120.886 321.333 121.779 320.208C126.087 314.783 132.71 313.496 139.214 312.674C152.807 310.956 166.824 311.302 180.508 311.281C190.739 311.265 201.431 310.765 211.572 312.298C216.045 312.974 221.198 314.133 224.831 316.97C224.656 316.958 224.481 316.952 224.306 316.935C222.968 316.808 221.503 315.882 220.242 315.39C217.009 314.128 213.6 313.021 210.137 312.639C201.168 311.649 191.877 312.081 182.855 312.064C168.226 312.036 153.184 311.509 138.658 313.422C134.821 313.927 130.946 314.74 127.455 316.458C127.189 316.882 127.053 317.224 126.857 317.676C125.953 319.766 123.303 321.226 122.192 323.881C120.245 328.536 121.24 334.216 119.826 339.238C120.208 334.406 120.832 328.631 119.519 323.949Z"/><defs><linearGradient id="gradient_0" gradientUnits="userSpaceOnUse" x1="202.89458" y1="419.84369" x2="141.87766" y2="316.46646"><stop offset="0" stop-color="#729C8D"/><stop offset="1" stop-color="#90BBB4"/></linearGradient></defs><path fill="url(#gradient_0)" d="M135.483 319.987L133.324 319.715C134.539 318.581 136.951 318.211 138.594 317.985C144.686 317.148 151.033 317.329 157.172 317.074C171.558 316.478 186.141 315.943 200.535 316.421C205.999 316.602 214.874 316.704 219.262 320.144C220.429 321.059 221.528 321.077 222.338 322.441C221.687 322.835 221.341 322.651 220.61 322.465C218.589 321.952 217.482 321.003 215.234 320.962C215.021 320.958 214.807 320.946 214.594 320.942C214.465 320.94 214.337 320.944 214.208 320.945C215.233 321.464 216.404 321.946 217.319 322.632C219.889 323.032 221.217 324.091 222.774 326.169C224.041 327.859 224.467 329.751 224.724 331.802C225.57 338.564 225.377 345.69 225.417 352.503C225.475 362.364 225.474 372.225 225.414 382.086C225.358 388.417 225.925 397.194 224.801 403.203C224.779 403.318 224.754 403.432 224.731 403.546C224.48 406.286 223.64 408.01 221.51 409.824C218.339 412.522 214.225 413.629 210.222 414.383C195.424 417.171 179.605 416.402 164.581 416.707C154.898 416.903 144.729 417.815 135.125 416.774C130.998 416.327 127.467 415.055 124.186 412.472C122.944 411.236 122.677 409.637 122.528 407.955C122.125 403.41 122.456 398.75 122.59 394.196C122.826 387.227 122.983 380.255 123.062 373.283C123.187 361.205 121.939 347.354 123.355 335.518C123.834 331.516 124.531 326.581 127.311 323.474C128.933 321.661 130.599 321.266 132.952 321.133L132.852 320.927C133.811 320.171 134.299 320.181 135.483 319.987Z"/><path fill="#6B4210" d="M135.483 319.987L133.324 319.715C134.539 318.581 136.951 318.211 138.594 317.985C144.686 317.148 151.033 317.329 157.172 317.074C171.558 316.478 186.141 315.943 200.535 316.421C205.999 316.602 214.874 316.704 219.262 320.144C220.429 321.059 221.528 321.077 222.338 322.441C221.687 322.835 221.341 322.651 220.61 322.465C218.589 321.952 217.482 321.003 215.234 320.962C215.021 320.958 214.807 320.946 214.594 320.942C214.465 320.94 214.337 320.944 214.208 320.945C200.799 319.324 186.715 320.218 173.191 320.173C160.614 320.132 148.059 319.384 135.483 319.987Z"/><path fill="#578181" d="M124.186 412.472C122.944 411.236 122.677 409.637 122.528 407.955C122.125 403.41 122.456 398.75 122.59 394.196C122.826 387.227 122.983 380.255 123.062 373.283C123.187 361.205 121.939 347.354 123.355 335.518C123.834 331.516 124.531 326.581 127.311 323.474C128.933 321.661 130.599 321.266 132.952 321.133C133.956 321.304 135.041 321.396 135.978 321.809C134.196 321.847 132.814 321.805 131.41 323.015C128.597 325.441 126.559 341.288 126.413 345.279C126.205 350.951 127.074 366.373 125.178 371.177C124.521 370.922 124.847 371.111 124.234 370.551C123.036 375.956 124.796 381.143 125.201 386.476C125.545 390.992 125.041 408.294 124.186 412.472Z"/><defs><linearGradient id="gradient_1" gradientUnits="userSpaceOnUse" x1="134.16525" y1="357.90363" x2="135.62637" y2="357.90921"><stop offset="0" stop-color="#466866"/><stop offset="1" stop-color="#628D88"/></linearGradient></defs><path fill="url(#gradient_1)" d="M132.852 320.927C134.674 321.071 136.504 321.185 138.319 321.395L138.127 321.692C137.644 322.452 137.139 323.255 136.917 324.137C135.34 330.387 135.788 338.187 135.653 344.615C135.387 357.334 135.112 370.144 135.725 382.856C135.884 386.137 137.326 396.451 136.88 398.589C135.414 397.176 137.382 393.336 134.601 392.557C134.663 392.78 134.729 393.001 134.787 393.226C135.099 394.451 134.955 395.768 134.889 397.019C133.366 392.51 133.55 325.874 135.014 323.223C135.229 322.832 135.654 322.44 135.96 322.113L135.978 321.809C135.041 321.396 133.956 321.304 132.952 321.133L132.852 320.927Z"/><path fill="#181817" d="M135.483 319.987C148.059 319.384 160.614 320.132 173.191 320.173C186.715 320.218 200.799 319.324 214.208 320.945C215.233 321.464 216.404 321.946 217.319 322.632C215.195 322.293 213.217 322.068 211.062 322.093C202.393 321.499 193.607 321.78 184.918 321.678C169.386 321.456 153.853 321.362 138.319 321.395C136.504 321.185 134.674 321.071 132.852 320.927C133.811 320.171 134.299 320.181 135.483 319.987Z"/><path fill="#578181" d="M211.062 322.093C213.217 322.068 215.195 322.293 217.319 322.632C219.889 323.032 221.217 324.091 222.774 326.169C224.041 327.859 224.467 329.751 224.724 331.802C225.57 338.564 225.377 345.69 225.417 352.503C225.475 362.364 225.474 372.225 225.414 382.086C225.358 388.417 225.925 397.194 224.801 403.203C224.779 403.318 224.754 403.432 224.731 403.546C224.028 397.526 224.512 391.23 224.549 385.178L224.548 353.24C224.52 345.565 224.898 336.227 222.314 328.951C220.937 325.073 218.117 325.003 214.906 323.41C213.624 322.774 212.447 322.434 211.062 322.093Z"/><path fill="#672C06" d="M535.228 456.118C547.563 455.672 559.993 456.145 572.328 456.42C580.431 456.6 589.005 456.322 597.031 457.49C599.236 457.812 601.85 458.269 603.571 459.763C606.861 462.621 607.964 467.671 608.29 471.812C609.297 484.611 608.769 497.703 608.887 510.554C608.985 518.165 609.019 525.778 608.988 533.39C608.956 537.036 609.203 541.236 608.466 544.801C607.703 548.49 605.807 551.902 603.356 554.735C594.572 564.884 576.734 564.019 564.366 564.915C560.66 565.184 556.95 565.403 553.238 565.572C538.281 566.244 508.024 568.292 496.64 557.697C491.616 553.022 490.294 547.406 490.056 540.749C489.668 529.91 490.013 518.958 490.088 508.11C490.151 499.043 489.437 487.847 491.329 479.062C492.365 474.248 494.387 469.685 497.796 466.079C507.683 455.619 522.03 456.593 535.228 456.118Z"/><path fill="#93B5B1" d="M511.872 466.283C512.719 465.529 512.88 465.498 513.995 465.35C522.341 464.242 534.74 465.02 543.505 465.023C559.414 465.028 575.474 464.447 591.358 465.375C592.856 465.463 593.805 465.416 595.046 466.362L597.343 466.431C597.238 479.174 597.506 492.153 596.719 504.866C596.963 509.002 597.405 513.414 598.173 517.481L599.507 517.004C600.174 523.742 600.423 538.32 599.697 545.068L598.702 546.898C598.395 547.61 598.002 548.281 597.532 548.897C594.399 552.954 589.446 554.108 584.63 554.606C568.74 556.249 551.631 556.373 535.609 556.634C527.3 556.769 518.603 557.398 510.341 556.652C507.325 556.38 502.289 555.702 499.964 553.617C496.924 550.89 498.2 544.827 498.088 541.135C497.666 540.419 497.527 540.01 497.456 539.163C496.889 532.404 497.414 525.231 497.414 518.422C497.413 507.596 496.504 489.46 498.372 479.518C499.06 480.78 498.614 492.753 498.64 495.46C498.927 490.026 497.757 480.884 499.609 476.033C501.556 470.934 507.158 468.254 511.872 466.283Z"/><path fill="#709B91" d="M511.872 466.283L512.347 466.431L511.588 467.071C510.668 479.318 511.054 491.837 511.055 504.12C511.056 516.618 510.71 529.25 511.396 541.725C525.634 540.362 561.695 538.819 573.37 532.986C580.268 529.54 586.376 523.359 591.231 517.459C594.58 513.391 595.974 510.128 596.719 504.866C596.963 509.002 597.405 513.414 598.173 517.481L599.507 517.004C600.174 523.742 600.423 538.32 599.697 545.068L598.702 546.898C598.395 547.61 598.002 548.281 597.532 548.897C594.399 552.954 589.446 554.108 584.63 554.606C568.74 556.249 551.631 556.373 535.609 556.634C527.3 556.769 518.603 557.398 510.341 556.652C507.325 556.38 502.289 555.702 499.964 553.617C496.924 550.89 498.2 544.827 498.088 541.135C497.666 540.419 497.527 540.01 497.456 539.163C496.889 532.404 497.414 525.231 497.414 518.422C497.413 507.596 496.504 489.46 498.372 479.518C499.06 480.78 498.614 492.753 498.64 495.46C498.927 490.026 497.757 480.884 499.609 476.033C501.556 470.934 507.158 468.254 511.872 466.283Z"/><path fill="#181817" d="M498.088 541.135C497.666 540.419 497.527 540.01 497.456 539.163C496.889 532.404 497.414 525.231 497.414 518.422C497.413 507.596 496.504 489.46 498.372 479.518C499.06 480.78 498.614 492.753 498.64 495.46C498.548 510.669 498.691 525.937 498.088 541.135Z"/><path fill="#343629" d="M599.507 517.004C600.174 523.742 600.423 538.32 599.697 545.068L598.702 546.898C598.657 537.161 599.01 527.177 598.173 517.481L599.507 517.004Z"/><path fill="#4B260C" d="M511.872 466.283C512.719 465.529 512.88 465.498 513.995 465.35C522.341 464.242 534.74 465.02 543.505 465.023C559.414 465.028 575.474 464.447 591.358 465.375C592.856 465.463 593.805 465.416 595.046 466.362C587.575 466.621 579.971 466.143 572.484 466.111C552.438 465.834 532.389 465.941 512.347 466.431L511.872 466.283Z"/><path fill="#6B4210" d="M599.116 466.304C600.739 467.138 601.918 470.793 602.465 472.612C604.443 479.188 603.615 496.893 603.695 504.634C603.795 514.279 604.261 524.029 603.854 533.66C603.703 537.243 603.94 542.491 602.299 545.668C602.018 546.212 601.616 546.64 601.199 547.081L600.436 547.153C599.849 546.394 599.851 546.031 599.697 545.068C600.423 538.32 600.174 523.742 599.507 517.004L598.173 517.481C597.405 513.414 596.963 509.002 596.719 504.866C597.506 492.153 597.238 479.174 597.343 466.431L599.116 466.304Z"/><path fill="#2F4E4B" d="M597.343 466.431L599.116 466.304C598.251 470.809 599.095 476.594 599.113 481.248C599.159 493.185 598.713 505.084 599.507 517.004L598.173 517.481C597.405 513.414 596.963 509.002 596.719 504.866C597.506 492.153 597.238 479.174 597.343 466.431Z"/><path fill="#672C06" d="M142.903 456.495C157.271 455.749 171.853 456.271 186.235 456.504C196.421 456.669 207.08 456.291 217.167 457.665C220.339 458.097 224.112 458.838 226.785 460.698C230.433 463.237 232.378 467.992 233.171 472.235C234.919 481.579 233.991 497.874 233.962 507.946C233.931 518.718 234.603 531.38 233.321 541.945C232.978 544.771 232.196 548.665 230.466 550.975C224.215 559.323 212.741 561.025 203.136 562.221C188.682 563.718 174.177 563.765 159.663 563.578C150.286 563.458 140.094 563.633 130.933 561.468C127.507 560.659 124.314 559.283 121.573 557.043C116.089 552.56 114.411 545.89 113.744 539.117C112.633 527.83 113.188 516.054 113.434 504.711C113.671 493.796 113.335 481.878 115.656 471.184C116.354 467.964 117.573 464.681 119.746 462.153C124.932 456.12 135.685 456.863 142.903 456.495Z"/><path fill="#93B5B1" d="M134.737 464.481C132.224 464.481 129.428 464.758 127.052 463.874L127.015 463.457C132.645 460.187 155.596 463.051 163.198 462.626L163.773 462.591L164.573 463.326C163.575 463.289 162.563 463.49 161.573 463.619L194.266 464.142C202.145 464.296 210.386 464.171 218.173 465.504L218.47 465.879L217.855 466.165C219.914 466.47 222.043 466.673 224.032 467.298C225.741 470.242 226.547 472.863 226.986 476.238C228.502 487.874 227.51 503.013 227.42 514.958C227.364 522.303 228.352 537.184 226.505 543.781C225.412 547.685 222.919 550.395 219.416 552.311C217.064 553.598 214.734 554.134 212.092 554.359C205.705 554.904 199.144 554.587 192.732 554.641C178.983 554.79 165.232 554.784 151.483 554.624C146.476 554.592 131.223 555.249 127.311 554.138C125.499 553.622 123.543 552.153 122.723 550.435C120.459 545.69 122.04 526.234 122.22 520.146C121.699 511.631 122.23 502.782 122.329 494.242C122.415 486.698 121.948 478.57 122.96 471.094C123.232 469.088 123.604 467.384 124.801 465.7C128.101 465.224 131.301 464.863 134.639 464.779L134.737 464.481Z"/><defs><linearGradient id="gradient_2" gradientUnits="userSpaceOnUse" x1="226.10075" y1="472.04568" x2="119.73351" y2="544.99353"><stop offset="0" stop-color="#658C85"/><stop offset="1" stop-color="#7CA89F"/></linearGradient></defs><path fill="url(#gradient_2)" d="M134.639 464.779C140.462 464.767 146.394 464.517 152.204 464.842C148.147 465.581 143.584 465.313 139.46 465.335C139.892 473.978 139.417 482.693 138.932 491.327C138.504 498.948 134.334 536.312 138.72 541.649C145.492 545.536 181.279 537.107 189.335 534.93C199.324 532.231 209.061 528.344 218.517 524.181C219.285 517.361 220.716 470.651 217.562 467.272C216.862 466.522 215.391 466.297 214.41 466.051L217.855 466.165C219.914 466.47 222.043 466.673 224.032 467.298C225.741 470.242 226.547 472.863 226.986 476.238C228.502 487.874 227.51 503.013 227.42 514.958C227.364 522.303 228.352 537.184 226.505 543.781C225.412 547.685 222.919 550.395 219.416 552.311C217.064 553.598 214.734 554.134 212.092 554.359C205.705 554.904 199.144 554.587 192.732 554.641C178.983 554.79 165.232 554.784 151.483 554.624C146.476 554.592 131.223 555.249 127.311 554.138C125.499 553.622 123.543 552.153 122.723 550.435C120.459 545.69 122.04 526.234 122.22 520.146C121.699 511.631 122.23 502.782 122.329 494.242C122.415 486.698 121.948 478.57 122.96 471.094C123.232 469.088 123.604 467.384 124.801 465.7C128.101 465.224 131.301 464.863 134.639 464.779Z"/><path fill="#578181" d="M122.22 520.146C121.699 511.631 122.23 502.782 122.329 494.242C122.415 486.698 121.948 478.57 122.96 471.094C123.232 469.088 123.604 467.384 124.801 465.7C125.081 466.133 125.32 466.455 125.394 466.981C125.718 469.297 125.27 472.193 125.23 474.553C125.085 482.936 125.524 498.377 123.814 505.984C123.769 506.182 123.72 506.378 123.674 506.574L123.561 504.132C122.62 509.471 123.126 514.835 122.22 520.146Z"/><path fill="#33211C" d="M134.737 464.481C132.224 464.481 129.428 464.758 127.052 463.874L127.015 463.457C132.645 460.187 155.596 463.051 163.198 462.626L163.773 462.591L164.573 463.326C163.575 463.289 162.563 463.49 161.573 463.619L194.266 464.142C202.145 464.296 210.386 464.171 218.173 465.504L218.47 465.879L217.855 466.165L214.41 466.051C193.749 464.958 172.895 464.21 152.204 464.842C146.394 464.517 140.462 464.767 134.639 464.779L134.737 464.481Z"/><path fill="#895418" d="M134.737 464.481C132.224 464.481 129.428 464.758 127.052 463.874L127.015 463.457C132.645 460.187 155.596 463.051 163.198 462.626L163.773 462.591L164.573 463.326C163.575 463.289 162.563 463.49 161.573 463.619C156.174 463.705 138.903 463.347 134.737 464.481Z"/><path fill="#672C06" d="M359.016 311.869L387.313 311.662C395.157 311.623 403.628 311.027 411.337 312.606C414.99 313.355 418.314 314.602 421.139 317.124C426.185 321.628 427.326 328.726 427.621 335.136C428.145 346.516 427.699 358.06 427.53 369.454C427.363 380.741 427.912 396.126 425.429 406.941C424.805 409.659 423.639 412.194 421.693 414.229C413.701 422.584 392.185 421.972 381.237 422.343C371.094 422.559 360.949 422.651 350.804 422.617C343.006 422.584 334.529 422.84 326.901 421.094C323.719 420.366 320.636 419.134 318.19 416.914C313.811 412.94 312.987 408.4 312.79 402.824C312.232 387.014 312.521 371.068 312.554 355.245C312.57 347.285 311.852 334.257 313.391 326.845C313.856 324.608 315.082 322.692 316.664 321.067C325.748 311.738 346.633 312.302 359.016 311.869Z"/><defs><linearGradient id="gradient_3" gradientUnits="userSpaceOnUse" x1="391.27567" y1="419.19458" x2="347.96533" y2="316.13211"><stop offset="0" stop-color="#6E9E8E"/><stop offset="1" stop-color="#90B9AA"/></linearGradient></defs><path fill="url(#gradient_3)" d="M321.776 407.924C321.498 407.564 321.446 407.545 321.272 407.045C320.474 404.748 320.172 340.593 320.661 334.874C320.875 332.369 321.411 329.956 322.691 327.759C324.31 324.981 326.388 323.036 329.538 322.245C329.666 322.213 329.794 322.184 329.922 322.154C328.819 321.849 327.297 321.405 326.656 320.462C327.572 320.091 328.307 320.476 329.239 320.776C331.204 321.41 348.692 319.82 352.536 319.655C360.288 319.325 368.234 319.78 376.012 319.749C385.154 319.712 394.651 319.17 403.758 319.758C406.956 319.965 413.029 320.107 415.633 321.968L414.953 322.469C415.03 322.557 415.106 322.647 415.184 322.735C416.554 324.279 418.365 325.643 418.925 327.728C421.344 336.738 419.453 365.034 419.201 375.539C418.986 384.504 419.146 393.521 418.738 402.476C418.637 404.695 418.517 407.485 416.733 409.043C408.269 416.433 375.379 415.705 363.675 415.876C354.164 416.016 344.436 416.509 334.953 415.652C331.17 415.31 325.466 415.045 322.465 412.484C321.791 411.006 321.838 409.518 321.776 407.924Z"/><path fill="#4B260C" d="M321.776 407.924C321.498 407.564 321.446 407.545 321.272 407.045C320.474 404.748 320.172 340.593 320.661 334.874C320.875 332.369 321.411 329.956 322.691 327.759C324.31 324.981 326.388 323.036 329.538 322.245C329.666 322.213 329.794 322.184 329.922 322.154C328.819 321.849 327.297 321.405 326.656 320.462C327.572 320.091 328.307 320.476 329.239 320.776C331.204 321.41 348.692 319.82 352.536 319.655C360.288 319.325 368.234 319.78 376.012 319.749C385.154 319.712 394.651 319.17 403.758 319.758C406.956 319.965 413.029 320.107 415.633 321.968L414.953 322.469C412.773 321.658 410.83 321.224 408.514 321.028C397.479 320.095 385.981 320.719 374.892 320.697C363.463 320.675 348.6 320.046 337.468 321.176C335.302 321.396 332.965 321.848 330.997 322.792C327.685 324.381 323.744 327.812 322.672 331.384C320.896 337.301 321.79 353.593 321.787 360.702L321.776 407.924Z"/><path fill="#662401" d="M390.926 457.671C400.093 457.682 409.409 458.829 416.219 465.661C419.39 468.842 421.214 473.026 422.291 477.334C424.817 487.435 424.296 498.922 424.4 509.294C424.527 518.827 424.573 528.362 424.537 537.896C424.47 544.461 424.654 550.418 419.553 555.325C416.65 558.154 413.123 560.261 409.257 561.477C394.438 566.28 361.656 565.282 344.907 564.995C334.924 564.627 322.54 563.884 314.765 556.756C311.676 553.923 311.113 550.478 310.954 546.443C310.507 535.072 311.418 523.366 311.708 511.967C311.972 501.63 311.612 483.677 313.521 474.18C314.099 471.303 315.404 468.457 317.441 466.326C320.151 463.491 323.662 462.106 327.388 461.184C334.968 459.31 343.253 459.375 351.029 459.03C364.32 458.442 377.63 458.179 390.926 457.671Z"/><path fill="#93B5B1" d="M318.099 553.185C317.668 546.325 318.736 538.989 318.933 532.079C319.229 521.762 318.51 480.131 321.683 474.001C323.123 471.22 326.342 469.736 329.2 468.802C338.552 465.745 389.587 465.69 399.873 467.015C402.999 467.417 405.644 468.227 408.453 469.642C409.681 469.687 410.979 470.77 411.814 471.622C412.232 472.048 412.525 472.394 412.747 472.947C413.131 473.16 413.906 473.457 414.195 473.749C415.87 475.446 417.508 480.772 418.181 483.139C419.603 488.135 419.312 544.226 417.758 546.922C417.29 547.734 416.513 548.369 415.786 548.937C414.499 551.358 412.436 552.149 409.956 553.041C408.423 555.429 406.061 556.052 403.412 556.623C396.752 558.059 387.973 558.38 381.193 557.626C368.975 557.65 334.957 560.513 325.506 556.449C322.857 555.589 320.525 554.552 318.099 553.185Z"/><path fill="#6B4210" d="M408.453 469.642C409.681 469.687 410.979 470.77 411.814 471.622C412.232 472.048 412.525 472.394 412.747 472.947C413.131 473.16 413.906 473.457 414.195 473.749C415.87 475.446 417.508 480.772 418.181 483.139C419.603 488.135 419.312 544.226 417.758 546.922C417.29 547.734 416.513 548.369 415.786 548.937L416.24 546.438C415.929 542.393 415.788 538.366 415.69 534.312C415.312 531.861 415.479 529.222 415.378 526.734C415.118 520.342 414.769 512.117 412.892 506.014C413.581 502.369 413.765 498.545 414.086 494.847C414.173 493.92 414.225 492.989 414.239 492.058C414.382 486.45 415.182 478.926 412.206 473.897C411.272 472.321 409.713 470.97 408.453 469.642Z"/><path fill="#446F6A" d="M414.086 494.847C416.189 500.772 414.98 504.424 416.096 509.899C416.235 512.112 416.302 514.364 416.558 516.565C416.346 519.798 415.989 523.038 415.88 526.274C415.79 528.911 415.956 531.698 415.69 534.312C415.312 531.861 415.479 529.222 415.378 526.734C415.118 520.342 414.769 512.117 412.892 506.014C413.581 502.369 413.765 498.545 414.086 494.847Z"/><path fill="#2F4E4B" d="M408.453 469.642C409.681 469.687 410.979 470.77 411.814 471.622C412.232 472.048 412.525 472.394 412.747 472.947C413.774 474.435 414.789 475.854 415.288 477.618C417.075 483.944 416.227 502.602 416.096 509.899C414.98 504.424 416.189 500.772 414.086 494.847C414.173 493.92 414.225 492.989 414.239 492.058C414.382 486.45 415.182 478.926 412.206 473.897C411.272 472.321 409.713 470.97 408.453 469.642Z"/><path fill="#343629" d="M416.558 516.565C417.246 521.095 417.556 542.438 416.24 546.438C415.929 542.393 415.788 538.366 415.69 534.312C415.956 531.698 415.79 528.911 415.88 526.274C415.989 523.038 416.346 519.798 416.558 516.565Z"/><path fill="#895418" d="M387.756 555.453C395.206 555.213 402.628 554.407 409.956 553.041C408.423 555.429 406.061 556.052 403.412 556.623C396.752 558.059 387.973 558.38 381.193 557.626C368.975 557.65 334.957 560.513 325.506 556.449C329.333 555.878 333.828 556.319 337.737 556.249C348.449 556.058 359.15 556 369.86 555.639C375.603 556.186 381.957 555.569 387.756 555.453Z"/><path fill="#6B4210" d="M387.756 555.453C395.206 555.213 402.628 554.407 409.956 553.041C408.423 555.429 406.061 556.052 403.412 556.623C396.752 558.059 387.973 558.38 381.193 557.626C385.332 555.689 395.829 557.906 401.35 556.12L401.102 555.974C396.986 556.587 390.255 556.898 386.156 555.963L387.756 555.453Z"/><path fill="#578181" d="M411.231 515.066C409.898 518.465 407.932 521.685 406.114 524.846L405.808 524.893C408.849 517.57 411.479 514.341 412.892 506.014C414.769 512.117 415.118 520.342 415.378 526.734C415.479 529.222 415.312 531.861 415.69 534.312C415.788 538.366 415.929 542.393 416.24 546.438L415.786 548.937C414.499 551.358 412.436 552.149 409.956 553.041C402.628 554.407 395.206 555.213 387.756 555.453C381.957 555.569 375.603 556.186 369.86 555.639C370.153 555.311 370.41 555.218 370.86 555.134C373.761 554.599 377.528 555.086 380.574 555.012C388.214 554.826 396.299 554.493 403.812 553.147C407.485 552.488 411.137 551.434 413.319 548.186C413.393 548.075 413.465 547.963 413.538 547.852L413.683 549.978L414.026 550.188C414.496 549.504 414.909 548.939 414.97 548.078C415.287 543.57 415.003 523.488 414.04 519.744C413.522 517.731 412.578 516.569 411.231 515.066Z"/><path fill="#672C06" d="M613.692 704.333C613.43 705.619 613.152 706.901 612.756 708.154C610.565 715.083 606.79 721.225 600.164 724.612C596.704 726.381 592.958 727.454 589.126 728.051C576.926 729.949 516.977 733.03 507.804 730.011C505.254 729.172 501.74 727.295 500.624 724.745C499.739 722.721 499.45 720.14 499.372 717.94C499.062 709.172 500.044 700.167 500.36 691.394C500.874 677.141 500.801 662.625 502.463 648.46C502.903 644.714 503.435 640.781 505.039 637.326C506.9 633.316 510.316 630.455 514.44 628.97C522.823 625.952 580.004 625.284 591.818 626.293C595.401 626.599 598.928 627.072 602.208 628.619C607.451 631.093 610.349 634.817 612.242 640.203C615.763 651.411 615.501 691.759 613.692 704.333Z"/><path fill="#6B4210" d="M612.242 640.203C615.763 651.411 615.501 691.759 613.692 704.333C613.064 703.863 612.48 703.698 611.737 703.472C611.601 703.43 610.721 703.184 610.569 703.088C610.371 702.963 610.162 702.821 610.049 702.616C609.96 702.453 610.218 656.257 610.479 652.647C610.788 648.382 612.569 644.574 612.242 640.203Z"/><defs><linearGradient id="gradient_4" gradientUnits="userSpaceOnUse" x1="561.95142" y1="723.02466" x2="549.98969" y2="634.75568"><stop offset="0" stop-color="#70988F"/><stop offset="1" stop-color="#94B3AA"/></linearGradient></defs><path fill="url(#gradient_4)" d="M569.183 634.717C577.276 634.494 592.696 632.917 599.894 635.32C602.604 638.526 604.753 641.15 605.425 645.441C607.317 655.211 606.371 669.678 606.242 680.006C606.136 688.555 606.494 697.524 605.349 706.001C606.105 707.701 606.136 709.104 605.463 710.86C604.66 712.956 603.187 714.711 601.785 716.429C599.928 718.069 598.227 719.254 595.838 720.046C592.316 721.071 589.321 721.751 585.674 720.747C574.936 722.688 563.196 722.279 552.293 722.719C539.385 723.24 521.133 725.319 508.706 723.184C507.839 722.505 507.969 722.35 507.802 721.243C507.451 718.989 507.23 716.792 507.222 714.51L507.363 687.041C507.372 675.718 506.919 653.59 509.638 643.298C510.203 641.159 511.248 639.172 512.857 637.63C513.831 636.696 515.08 635.727 516.436 635.473C521.348 634.552 526.929 635.22 531.948 635.157C543.013 634.928 554.081 634.783 565.149 634.723L569.183 634.717Z"/><path fill="#93B5B1" d="M531.489 638.019C536.5 637.315 542.744 637.2 547.779 637.625C547.924 637.64 548.069 637.657 548.214 637.671C553.391 638.155 567.333 636.908 570.873 637.97C569.057 639.086 555.112 639.041 552.303 638.721C551.796 638.663 551.992 638.618 551.67 638.747C554.728 639.994 557.617 639.474 560.711 640.192C562.812 640.679 564.067 642.369 566.363 642.231C570.293 641.995 574.23 641.927 578.166 642.027L540.146 643.937C534.358 644.249 528.355 645.109 522.579 645.064C521.531 645.056 520.95 645.065 520.121 644.444L519.565 643.228C518.585 643.182 518.424 642.853 517.7 642.224L517.806 641.196C518.702 640.675 519.032 641.046 519.818 640.78C520.133 640.673 520.818 639.079 522.261 638.67C525.231 637.827 528.5 638.881 531.489 638.019Z"/><path fill="#20404C" d="M565.149 634.723L569.183 634.717C568.669 635.148 568.339 635.192 567.698 635.316C566.602 635.528 565.511 635.902 564.44 636.217L565.076 636.189C562.487 636.61 559.906 637.021 557.299 637.315C554.956 637.385 552.531 637.621 550.229 637.095C549.364 637.216 548.605 637.324 547.779 637.625C542.744 637.2 536.5 637.315 531.489 638.019C527.345 637.893 516.861 636.531 513.642 639.249C508.928 643.229 508.803 680.218 508.587 688.419C508.299 699.375 508.427 710.291 507.802 721.243C507.451 718.989 507.23 716.792 507.222 714.51L507.363 687.041C507.372 675.718 506.919 653.59 509.638 643.298C510.203 641.159 511.248 639.172 512.857 637.63C513.831 636.696 515.08 635.727 516.436 635.473C521.348 634.552 526.929 635.22 531.948 635.157C543.013 634.928 554.081 634.783 565.149 634.723Z"/><path fill="#648CA3" d="M565.149 634.723L569.183 634.717C568.669 635.148 568.339 635.192 567.698 635.316C566.602 635.528 565.511 635.902 564.44 636.217L565.076 636.189C562.487 636.61 559.906 637.021 557.299 637.315C554.956 637.385 552.531 637.621 550.229 637.095C551.142 636.968 551.802 636.902 552.615 636.435L551.55 636.789C555.758 634.154 560.343 634.964 565.149 634.723Z"/><path fill="#7A9FAF" d="M569.183 634.717C577.276 634.494 592.696 632.917 599.894 635.32C602.604 638.526 604.753 641.15 605.425 645.441L605.012 645.234C604.824 644.65 604.619 644.069 604.344 643.52C603.644 642.126 601.623 640 600.12 639.539C597.142 642.207 599.545 656.193 597.971 658.861C596.925 655.582 598.235 648.055 598.209 644.253C598.198 642.6 597.469 639.866 598.011 638.374C598.359 637.414 598.136 638.539 598.305 637.369C592.566 634.293 566.312 638.161 557.786 637.364L557.299 637.315C559.906 637.021 562.487 636.61 565.076 636.189L564.44 636.217C565.511 635.902 566.602 635.528 567.698 635.316C568.339 635.192 568.669 635.148 569.183 634.717Z"/><path fill="#6B4210" d="M605.349 706.001C606.105 707.701 606.136 709.104 605.463 710.86C604.66 712.956 603.187 714.711 601.785 716.429C599.928 718.069 598.227 719.254 595.838 720.046L595.83 717.967C598.585 716.723 600.126 715.428 602.004 713.135C602.893 710.738 604.404 708.455 605.349 706.001Z"/><path fill="#895418" d="M595.83 717.967L595.838 720.046C592.316 721.071 589.321 721.751 585.674 720.747C589.107 719.975 592.46 718.968 595.83 717.967Z"/><path fill="#662401" d="M138.887 619.689C149.016 619.278 159.213 619.322 169.348 619.372C181.368 619.432 199.961 618.114 210.866 623.558C215.905 626.073 220.157 630.606 221.852 636.029C224.874 645.695 224.028 668.653 224.163 679.553C224.243 685.97 224.815 692.826 224.223 699.206C223.998 701.636 223.445 704.51 222.215 706.644C217.519 714.793 206.379 719.653 197.691 721.701C184.397 723.835 170.359 724.042 156.904 724.347C144.961 724.617 131.639 725.42 122.399 716.439C115.637 709.867 114.324 702.305 114.17 693.257C113.985 682.335 114.631 671.326 114.941 660.405C115.138 653.457 114.543 639.733 116.433 633.75C117.848 629.272 121.474 624.71 124.703 621.366C129.156 619.915 134.245 619.965 138.887 619.689Z"/><path fill="#93B5B1" d="M196.907 715.781C188.391 718.183 146.709 719.58 137.353 718.338C134.875 718.013 132.48 717.227 130.292 716.019C126.484 713.871 123.248 710.025 122.138 705.755C120.45 699.255 122.262 644.061 123.308 634.967C123.593 632.489 123.984 629.646 125.311 627.499C130.494 624.839 183.212 625.899 191.348 626.454C194.725 626.685 197.919 627.085 201.172 628.03C205.882 629.454 209.695 631.135 212.181 635.691C213.769 638.602 214.595 641.909 215.307 645.122C215.397 645.527 215.343 645.362 215.5 645.71C218.586 652.391 217.076 670.811 216.999 678.544C216.954 683.07 217.355 687.914 216.867 692.396C216.705 698.332 217.912 703.856 213.175 708.368C209.231 712.125 202.263 715.143 196.907 715.781Z"/><path fill="#578181" d="M196.907 715.781C188.391 718.183 146.709 719.58 137.353 718.338C134.875 718.013 132.48 717.227 130.292 716.019C126.484 713.871 123.248 710.025 122.138 705.755C120.45 699.255 122.262 644.061 123.308 634.967C123.593 632.489 123.984 629.646 125.311 627.499C130.494 624.839 183.212 625.899 191.348 626.454C194.725 626.685 197.919 627.085 201.172 628.03C187.58 629.101 174.126 628.979 160.506 628.874C156.182 628.841 151.809 629.207 147.494 629.002C145.598 628.913 143.866 628.276 141.979 628.186C137.997 627.997 134.051 628.395 130.059 628.075C133.487 627.507 142.762 628.303 144.922 627.453C143.169 626.416 129.8 627.037 127.513 627.54C126.763 627.705 125.884 627.966 125.496 628.667C124.128 631.14 126.636 650.239 126.665 654.164C126.705 659.634 125.558 665.059 125.249 670.504C124.869 677.186 127.027 694.157 124.295 699.581C123.558 698.468 123.554 696.444 123.377 695.119L123.136 695.307C122.55 700.179 121.993 706.256 125.145 710.37C127.544 713.501 132.521 717.117 136.528 717.489C140.921 717.896 145.643 717.585 150.069 717.577C159.674 717.56 169.455 717.544 179.041 716.943C184.462 716.602 191.718 715.207 196.907 715.781Z"/><path fill="#4B260C" d="M215.5 645.71C218.586 652.391 217.076 670.811 216.999 678.544C216.954 683.07 217.355 687.914 216.867 692.396C216.313 685.73 216.714 678.786 216.588 672.083C216.423 663.292 215.861 654.496 215.5 645.71Z"/><path fill="#ECD5BA" d="M179.187 635.828C181.803 635.604 188.39 634.663 190.355 636.889C190.901 637.507 191.187 638.011 191.042 638.846C190.99 639.146 190.773 639.72 190.666 640.021C185.671 641.345 181.067 640.73 176.104 641.471L171.228 641.72C167.178 643.167 149.415 643.361 145.417 642.074C144.865 641.547 144.736 641.111 144.578 640.385C144.279 639.008 144.208 637.781 144.951 636.577C149.826 635.976 155.372 637.399 160.402 637.3C166.686 637.177 172.896 635.462 179.187 635.828Z"/><path fill="#CAC7B0" d="M179.187 635.828C181.803 635.604 188.39 634.663 190.355 636.889C190.901 637.507 191.187 638.011 191.042 638.846C190.99 639.146 190.773 639.72 190.666 640.021C188.339 634.349 183.108 640.07 179.432 637.479L179.187 635.828Z"/><path fill="#C4A682" d="M283.842 330.975C284.268 331.22 284.034 331.036 284.426 331.651C283.242 332.759 281.234 333.236 279.721 333.792L279.31 333.888C280.009 332.319 282.317 331.584 283.842 330.975Z"/><path fill="#93B5B1" d="M58.2975 40.6593C58.4048 40.5634 58.5169 40.4725 58.6194 40.3716C60.4786 38.5421 61.6974 36.1009 63.6065 34.2387C75.0108 23.1146 86.6698 21.2491 101.876 20.9416C112.355 20.7296 122.91 21.261 133.392 21.4819C146.185 21.7057 158.979 21.7903 171.774 21.7357L415.826 21.1818L533.881 20.0199C550.603 19.7218 567.328 19.6008 584.053 19.657C597.923 19.6772 611.987 19.6108 625.781 21.175C636.995 22.4466 645.956 25.626 654.197 33.6056C662.55 41.6935 668.497 52.5941 673.279 63.1086C680.233 78.3968 685.353 95.1067 690.209 111.161C698.254 137.761 705.243 164.239 710.049 191.645C711.227 198.365 712.952 205.659 713.252 212.467C712.746 212.692 712.366 212.857 711.816 212.953C708.819 213.476 705.258 213.154 702.19 213.155L679.855 212.99C666.528 212.938 653.165 213.597 639.842 213.223C638.221 213.178 634.82 213.396 633.611 212.446C614.224 211.958 594.693 212.396 575.287 212.332L450.555 212.129L182.254 211.961L73.6352 212.621L39.4479 212.738C30.4093 212.74 21.3561 213.094 12.3984 211.708C12.145 199.309 15.8512 184.597 18.4335 172.349C24.36 143.9 31.4612 115.708 39.7189 87.8455C41.9375 80.4463 44.2439 73.0736 46.6375 65.729C47.721 62.4967 49.0754 59.3536 50.0865 56.102C49.6542 55.107 49.9423 54.0651 50.2714 53.081C51.3987 49.7107 55.123 42.31 58.2975 40.6593Z"/><path fill="#563E1B" d="M633.611 212.446L686.288 212.194C695.1 212.162 704.53 211.312 713.252 212.467C712.746 212.692 712.366 212.857 711.816 212.953C708.819 213.476 705.258 213.154 702.19 213.155L679.855 212.99C666.528 212.938 653.165 213.597 639.842 213.223C638.221 213.178 634.82 213.396 633.611 212.446Z"/><path fill="#672C06" d="M50.0865 56.102C49.6542 55.107 49.9423 54.0651 50.2714 53.081C51.3987 49.7107 55.123 42.31 58.2975 40.6593C55.3583 45.7094 52.5197 50.785 50.0865 56.102Z"/><defs><linearGradient id="gradient_5" gradientUnits="userSpaceOnUse" x1="343.14563" y1="30.753567" x2="357.35168" y2="199.78838"><stop offset="0" stop-color="#714D27"/><stop offset="1" stop-color="#4C3F2E"/></linearGradient></defs><path fill="url(#gradient_5)" d="M41.8318 175.029C41.7924 174.115 41.7961 173.199 41.8429 172.285C42.3224 164.23 45.0444 155.788 46.9744 147.958C50.2458 134.304 53.9359 120.754 58.0393 107.327C62.0727 93.693 66.2709 79.8149 72.5545 67.0147C74.668 62.7094 77.3044 58.372 80.9265 55.1612C84.1325 52.3193 88.5318 51.4956 92.6775 51.2921C101.12 50.8776 109.631 51.0451 118.084 50.9328C142.042 50.7366 166.001 50.6729 189.96 50.7418L379.62 50.7482L519.211 50.1739C539.468 49.9075 559.728 49.8234 579.987 49.9218C590.348 49.9539 600.857 49.6555 611.199 50.2718C615.464 50.2929 620.107 50.2685 624.276 51.2172C625.71 51.3951 627.013 51.6266 628.234 52.4499C635.156 55.2137 639.016 63.5012 641.771 69.9072C647.976 84.3323 652.697 99.1955 657.226 114.208C660.87 126.285 664.499 138.541 666.956 150.927C667.864 153.388 668.425 156.258 668.713 158.869C670.274 166.033 671.377 175.782 669.533 182.96C663.351 183.841 657.037 183.832 650.802 183.985L623.981 184.513C603.258 184.92 582.53 184.978 561.805 184.686C551.795 184.61 541.656 184.863 531.661 184.399C523.995 184.846 516.064 184.401 508.378 184.215C500.487 184.063 492.595 183.968 484.703 183.931C466.036 183.685 447.137 184.26 428.515 182.997C409.126 182.533 389.732 182.377 370.339 182.528L271.711 182.798L145.01 182.501L81.0041 182.471C72.6666 182.436 56.6566 183.247 49.3013 181.379C45.7561 180.479 43.6454 178.021 41.8318 175.029Z"/><path fill="#93B5B1" d="M87.6528 62.0648C88.0284 61.992 88.404 61.9184 88.7823 61.8609C94.6889 60.9622 101.185 61.4465 107.167 61.4261L140.285 61.269L272.387 61.4237L449.921 61.3912L558.218 60.6748C575.651 60.5367 593.085 60.551 610.518 60.7177C615.138 60.8046 622.29 60.7186 626.122 63.7086C636.691 71.957 654.504 139.384 657.926 154.814C658.972 159.532 659.673 164.255 660.282 169.046C660.062 170.089 660.171 170.515 659.286 171.155C650.396 171.412 641.487 171.287 632.593 171.403L602.597 172.025C595.76 172.116 586.176 171.369 579.616 172.442C550.786 172.041 521.917 172.725 493.085 172.61L180.806 171.619C138.598 171.382 96.3286 171.516 54.1289 170.764C57.964 152.396 76.5708 74.4281 87.6528 62.0648Z"/><defs><linearGradient id="gradient_6" gradientUnits="userSpaceOnUse" x1="577.54785" y1="170.56416" x2="580.0036" y2="192.2917"><stop offset="0" stop-color="#585751"/><stop offset="1" stop-color="#6F706F"/></linearGradient></defs><path fill="url(#gradient_6)" d="M665.825 150.577L666.159 150.405L666.448 151.628L666.727 151.539L666.482 151.416L666.845 151.172L666.956 150.927C667.864 153.388 668.425 156.258 668.713 158.869C670.274 166.033 671.377 175.782 669.533 182.96C663.351 183.841 657.037 183.832 650.802 183.985L623.981 184.513C603.258 184.92 582.53 184.978 561.805 184.686C551.795 184.61 541.656 184.863 531.661 184.399C523.995 184.846 516.064 184.401 508.378 184.215C500.487 184.063 492.595 183.968 484.703 183.931C466.036 183.685 447.137 184.26 428.515 182.997C431.129 182.48 433.771 181.938 436.442 181.874C440.21 181.783 443.978 182.433 447.743 182.574C451.021 182.696 454.269 182.343 457.531 182.422C459.483 182.469 462.78 183.385 464.479 182.387C462.49 181.811 449.606 181.51 446.964 181.586C445.754 181.621 446.118 180.593 445.33 180.326C443.11 179.573 439.768 180.475 437.325 179.853C441.784 178.559 465.27 179.459 471.693 179.359C486.751 179.125 501.908 178.003 516.957 178.325C534.367 177.161 551.752 177.925 569.178 177.359C575.24 177.163 581.27 176.464 587.322 176.104C600.561 175.317 613.904 174.67 627.163 174.279C631.539 174.15 635.861 174.823 640.215 175.149C644.809 175.494 650.061 175.466 654.671 175.071C656.192 174.941 659.091 174.008 660.248 173.094L660.267 172.543C659.655 172.066 659.424 171.909 658.622 171.828C654.441 171.407 648.755 172.065 644.388 172.071C633.274 172.069 622.16 172.219 611.051 172.519C600.785 172.791 590.31 173.388 580.064 172.485L579.616 172.442C586.176 171.369 595.76 172.116 602.597 172.025L632.593 171.403C641.487 171.287 650.396 171.412 659.286 171.155C660.171 170.515 660.062 170.089 660.282 169.046L660.691 170.559C662.642 171.102 664.836 171.476 666.774 170.699C669.025 167.154 664.833 158.268 666 153.986C666.029 153.879 666.067 153.776 666.1 153.671C666.101 153.636 666.106 153.602 666.102 153.568C665.961 152.552 665.856 151.606 665.825 150.577Z"/><path fill="#595751" d="M428.515 182.997C431.129 182.48 433.771 181.938 436.442 181.874C440.21 181.783 443.978 182.433 447.743 182.574C451.021 182.696 454.269 182.343 457.531 182.422C459.483 182.469 462.78 183.385 464.479 182.387C462.49 181.811 449.606 181.51 446.964 181.586C445.754 181.621 446.118 180.593 445.33 180.326C443.11 179.573 439.768 180.475 437.325 179.853C441.784 178.559 465.27 179.459 471.693 179.359C486.751 179.125 501.908 178.003 516.957 178.325C516.856 178.381 516.761 178.448 516.655 178.491C513.265 179.856 507.165 177.222 504.09 179.512L504.235 179.993C505.239 180.247 506.2 180.453 507.229 180.574C500.829 180.648 461.979 179.885 459.238 181.564C474.144 181.473 489.051 181.551 503.956 181.797C501.417 182.793 489.122 180.98 487.556 182.597C489.529 184.267 528.971 182.713 531.661 184.399C523.995 184.846 516.064 184.401 508.378 184.215C500.487 184.063 492.595 183.968 484.703 183.931C466.036 183.685 447.137 184.26 428.515 182.997Z"/><path fill="#595751" d="M665.825 150.577L666.159 150.405L666.448 151.628L666.727 151.539L666.482 151.416L666.845 151.172L666.956 150.927C667.864 153.388 668.425 156.258 668.713 158.869L668.402 161.494L668.027 161.715C666.897 159.298 666.692 156.285 666.1 153.671C666.101 153.636 666.106 153.602 666.102 153.568C665.961 152.552 665.856 151.606 665.825 150.577Z"/><path fill="#33211C" d="M628.234 52.4499C635.156 55.2137 639.016 63.5012 641.771 69.9072C647.976 84.3323 652.697 99.1955 657.226 114.208C660.87 126.285 664.499 138.541 666.956 150.927L666.845 151.172L666.482 151.416L666.727 151.539L666.448 151.628L666.159 150.405L665.825 150.577C663.998 144.273 662.577 137.98 660.889 131.654C655.479 111.371 648.507 86.9111 639.66 68.1112C638.398 65.4283 637.437 62.2883 635.862 59.8001C633.843 56.6118 630.617 55.3251 628.449 52.7469C628.37 52.6534 628.306 52.5489 628.234 52.4499Z"/><path fill="#563E1B" d="M611.199 50.2718C615.464 50.2929 620.107 50.2685 624.276 51.2172C620.246 52.1821 615.057 51.6461 611.199 50.2718Z"/><path fill="#93B5B1" d="M265.632 663.283C267.062 661.796 267.775 661.085 269.868 661.042C270.627 661.026 271.129 661.145 271.811 661.497C270.708 661.911 269.019 661.465 268.387 662.335L268.675 664.95C272.392 665.214 276.126 664.514 279.847 664.639C281.782 664.704 283.766 664.298 285.714 664.243C291.856 664.069 298.049 664.02 304.173 664.545L303.604 664.701C307.854 665.007 348.338 665.404 349.755 664.99C350.155 664.873 350.371 664.693 350.654 664.433C351.279 663.86 351.19 663.685 352.098 663.601L352.223 663.943C351.91 664.538 351.602 664.73 351.812 665.404C352.27 666.873 354.038 667.664 354.348 669.132C353.775 670 352.368 671.686 352.651 672.75C352.691 672.902 352.782 673.036 352.845 673.179C353.375 674.381 353.528 675.163 353.498 676.458C353.337 683.52 352.115 690.513 351.583 697.554C351.195 702.7 351.476 707.782 351.401 712.93C351.331 717.742 350.876 722.545 350.957 727.359C351.09 725.024 350.948 722.681 350.534 720.38C350.359 722.369 350.934 727.37 349.792 728.864L349.618 735.381C349.85 748.848 349.199 762.301 349.259 775.752L293.484 775.77C285.075 775.776 275.858 774.952 267.523 775.947L266.052 776.297C265.498 775.669 265.475 775.394 265.391 774.576C265.205 772.757 265.516 770.869 265.503 769.039C265.452 762.404 265.428 755.808 265.532 749.171C265.779 733.464 265.648 717.74 265.731 702.03C265.777 693.403 266.478 684.392 265.767 675.821C265.316 671.696 265.581 667.43 265.632 663.283Z"/><path fill="#709B91" d="M265.632 663.283C267.062 661.796 267.775 661.085 269.868 661.042C270.627 661.026 271.129 661.145 271.811 661.497C270.708 661.911 269.019 661.465 268.387 662.335L268.675 664.95C272.392 665.214 276.126 664.514 279.847 664.639C281.782 664.704 283.766 664.298 285.714 664.243C291.856 664.069 298.049 664.02 304.173 664.545L303.604 664.701C307.854 665.007 348.338 665.404 349.755 664.99C350.155 664.873 350.371 664.693 350.654 664.433C351.279 663.86 351.19 663.685 352.098 663.601L352.223 663.943C351.91 664.538 351.602 664.73 351.812 665.404C352.27 666.873 354.038 667.664 354.348 669.132C353.775 670 352.368 671.686 352.651 672.75C352.691 672.902 352.782 673.036 352.845 673.179C353.375 674.381 353.528 675.163 353.498 676.458C353.337 683.52 352.115 690.513 351.583 697.554C351.195 702.7 351.476 707.782 351.401 712.93C351.331 717.742 350.876 722.545 350.957 727.359C351.09 725.024 350.948 722.681 350.534 720.38C350.359 722.369 350.934 727.37 349.792 728.864C350.007 717.235 350.106 705.604 350.09 693.972C349.808 691.09 349.976 688.108 349.996 685.211C330.911 685.197 311.826 685.313 292.742 685.56C287.692 685.622 282.642 685.627 277.592 685.576C274.835 685.55 271.748 685.248 269.021 685.531C268.344 685.602 267.737 685.791 267.111 686.044C266.547 680.378 266.786 673.267 268.199 667.769L267.596 668.571C267.392 668.845 267.162 669.098 266.952 669.368C265.768 670.892 266.316 673.961 265.767 675.821C265.316 671.696 265.581 667.43 265.632 663.283Z"/><path fill="#672C06" d="M265.632 663.283C267.062 661.796 267.775 661.085 269.868 661.042C270.627 661.026 271.129 661.145 271.811 661.497C270.708 661.911 269.019 661.465 268.387 662.335L268.675 664.95C272.392 665.214 276.126 664.514 279.847 664.639C281.782 664.704 283.766 664.298 285.714 664.243C291.856 664.069 298.049 664.02 304.173 664.545L303.604 664.701C307.854 665.007 348.338 665.404 349.755 664.99C350.155 664.873 350.371 664.693 350.654 664.433C351.279 663.86 351.19 663.685 352.098 663.601L352.223 663.943C351.91 664.538 351.602 664.73 351.812 665.404C352.27 666.873 354.038 667.664 354.348 669.132C353.775 670 352.368 671.686 352.651 672.75C352.691 672.902 352.782 673.036 352.845 673.179C353.375 674.381 353.528 675.163 353.498 676.458C353.337 683.52 352.115 690.513 351.583 697.554C351.195 702.7 351.476 707.782 351.401 712.93C351.331 717.742 350.876 722.545 350.957 727.359C351.09 725.024 350.948 722.681 350.534 720.38C350.359 722.369 350.934 727.37 349.792 728.864C350.007 717.235 350.106 705.604 350.09 693.972C351.296 685.25 350.525 674.845 350.226 665.992C332.352 665.608 314.423 665.975 296.545 666.102C288.086 666.162 279.374 665.464 270.953 666.086C269.428 666.199 269.136 666.665 268.199 667.769L267.596 668.571C267.392 668.845 267.162 669.098 266.952 669.368C265.768 670.892 266.316 673.961 265.767 675.821C265.316 671.696 265.581 667.43 265.632 663.283Z"/><path fill="#709B91" d="M265.767 675.821C266.316 673.961 265.768 670.892 266.952 669.368C267.162 669.098 267.392 668.845 267.596 668.571L268.199 667.769C266.786 673.267 266.547 680.378 267.111 686.044C267.171 690.654 266.962 695.36 267.199 699.953L267.241 700.383C267.627 704.809 267.38 709.395 267.367 713.838L267.291 737.629C267.275 742.31 266.435 749.277 268.06 753.603C276.217 759.261 320.951 759.161 332.291 757.115C337.927 756.099 343.081 750.366 346.225 745.818C347.838 743.485 349.038 741.326 349.254 738.449C349.331 737.425 349.414 736.387 349.618 735.381C349.85 748.848 349.199 762.301 349.259 775.752L293.484 775.77C285.075 775.776 275.858 774.952 267.523 775.947L266.052 776.297C265.498 775.669 265.475 775.394 265.391 774.576C265.205 772.757 265.516 770.869 265.503 769.039C265.452 762.404 265.428 755.808 265.532 749.171C265.779 733.464 265.648 717.74 265.731 702.03C265.777 693.403 266.478 684.392 265.767 675.821Z"/><path fill="#181817" d="M265.767 675.821C266.316 673.961 265.768 670.892 266.952 669.368C267.162 669.098 267.392 668.845 267.596 668.571L268.199 667.769C266.786 673.267 266.547 680.378 267.111 686.044C267.171 690.654 266.962 695.36 267.199 699.953C266.128 714.23 266.895 729.001 266.807 743.342C266.742 753.925 265.781 764.819 266.486 775.37C267.154 775.95 266.794 775.788 267.523 775.947L266.052 776.297C265.498 775.669 265.475 775.394 265.391 774.576C265.205 772.757 265.516 770.869 265.503 769.039C265.452 762.404 265.428 755.808 265.532 749.171C265.779 733.464 265.648 717.74 265.731 702.03C265.777 693.403 266.478 684.392 265.767 675.821Z"/><path fill="#93B5B1" d="M447.514 662.331C447.822 660.786 448.025 657.618 449.23 656.71C450.353 657.734 450.736 659.905 450.807 661.404C451.099 667.518 450.571 673.928 450.584 680.09C450.601 688.55 451.179 697.411 450.609 705.824C451.399 713.816 450.913 722.323 450.976 730.373C451.096 745.699 451.412 761.051 450.686 776.367C440.6 776.882 430.348 776.52 420.241 776.554L368.568 776.88C368.674 768.105 369.2 759.334 369.369 750.558C369.602 734.217 369.728 717.874 369.75 701.531C369.796 693.421 370.961 683.81 369.99 675.949C369.479 674.681 369.106 673.413 368.742 672.096C368.445 671.515 368.273 670.451 368.314 669.799C368.379 668.762 368.645 668.641 369.391 668.035C370.787 667.937 371.018 668.469 372.071 669.336L373.264 667.861L373.779 667.928L373.907 666.929C375.962 665.471 382.392 666.131 384.98 666.051C381.859 665.855 378.707 665.832 375.58 665.728C383.23 664.17 391.214 664.738 398.991 664.654C405.69 664.581 412.348 663.889 419.026 663.799C428.102 663.678 437.353 664.297 446.392 663.445L446.739 663C446.301 662.152 445.678 662.119 444.824 661.767C445.919 661.622 446.54 661.908 447.514 662.331Z"/><path fill="#4B260C" d="M375.58 665.728C383.23 664.17 391.214 664.738 398.991 664.654C405.69 664.581 412.348 663.889 419.026 663.799C428.102 663.678 437.353 664.297 446.392 663.445L446.739 663C446.301 662.152 445.678 662.119 444.824 661.767C445.919 661.622 446.54 661.908 447.514 662.331C447.4 663.507 447.545 664.178 446.731 665.064L444.71 665.552C427.797 665.4 410.904 665.921 393.994 666.037C391.075 665.762 387.922 666.009 384.98 666.051C381.859 665.855 378.707 665.832 375.58 665.728Z"/><path fill="#709B91" d="M447.514 662.331C447.822 660.786 448.025 657.618 449.23 656.71C450.353 657.734 450.736 659.905 450.807 661.404C451.099 667.518 450.571 673.928 450.584 680.09C450.601 688.55 451.179 697.411 450.609 705.824C448.525 695.471 449.569 677.388 449.603 666.12C447.903 666.085 446.352 666.072 444.71 665.552L446.731 665.064C447.545 664.178 447.4 663.507 447.514 662.331Z"/><path fill="#578181" d="M384.98 666.051C387.922 666.009 391.075 665.762 393.994 666.037C391.243 667.836 380.476 665.818 377.781 667.658C380.653 668.557 383.624 666.748 386.471 667.22L386.453 667.623C381.977 668.822 377.6 667.817 373.413 670.242L373.779 667.928L373.907 666.929C375.962 665.471 382.392 666.131 384.98 666.051Z"/><path fill="#4B260C" d="M368.742 672.096C368.445 671.515 368.273 670.451 368.314 669.799C368.379 668.762 368.645 668.641 369.391 668.035C370.787 667.937 371.018 668.469 372.071 669.336L373.264 667.861L373.779 667.928L373.413 670.242C372.294 672.022 370.745 674.007 369.99 675.949C369.479 674.681 369.106 673.413 368.742 672.096Z"/><path fill="#672C06" d="M368.742 672.096C368.445 671.515 368.273 670.451 368.314 669.799C368.379 668.762 368.645 668.641 369.391 668.035C370.787 667.937 371.018 668.469 372.071 669.336L371.805 670.488C370.76 671.124 369.245 670.419 368.844 671.542C368.781 671.719 368.776 671.912 368.742 672.096Z"/><path fill="#93B5B1" d="M351.189 618.969C371.774 618.596 392.361 618.413 412.949 618.42C424.439 618.414 436.276 617.842 447.726 618.753C447.633 621.197 447.452 623.654 447.746 626.089C449.451 630.513 449.292 648.547 447.656 653.008C445.756 653.68 400.557 652.886 394.653 652.741C389.295 653.755 380.668 652.523 374.886 652.624C358.692 652.905 342.506 652.692 326.306 652.897C313.746 653.056 301.27 652.984 288.717 652.645C281.993 652.463 275.638 652.601 268.931 651.768L268.55 651.488C267.993 651.707 268.322 651.601 267.551 651.761C268.111 651.283 268.749 651.421 269.44 650.91C268.351 650.817 267.168 650.899 266.07 650.9C265.359 649.461 265.299 648.006 265.263 646.43C265.089 638.816 264.224 629.8 270.061 624C271.957 622.116 274.259 620.688 276.86 620.029C281.989 618.73 288.179 619.501 293.502 619.457L318.65 619.061C325.675 618.239 344.077 618.038 351.189 618.969Z"/><path fill="#4B260C" d="M269.44 650.91C296.084 650.505 322.735 651.212 349.379 651.182L378.594 651.18C382.764 651.189 388.147 650.697 392.192 651.536L392.202 652.025C394.666 652.384 397.257 652.268 399.747 652.285C398.081 652.357 396.263 652.289 394.653 652.741C389.295 653.755 380.668 652.523 374.886 652.624C358.692 652.905 342.506 652.692 326.306 652.897C313.746 653.056 301.27 652.984 288.717 652.645C281.993 652.463 275.638 652.601 268.931 651.768L268.55 651.488C267.993 651.707 268.322 651.601 267.551 651.761C268.111 651.283 268.749 651.421 269.44 650.91Z"/><path fill="#33211C" d="M447.746 626.089C449.451 630.513 449.292 648.547 447.656 653.008C445.756 653.68 400.557 652.886 394.653 652.741C396.263 652.289 398.081 652.357 399.747 652.285C397.257 652.268 394.666 652.384 392.202 652.025L392.192 651.536C410.372 651.006 428.862 652.737 446.983 651.361C448.199 643.254 447.84 634.286 447.746 626.089Z"/><path fill="#33211C" d="M318.65 619.061C321.597 619.107 325.323 618.768 328.181 619.458C316.314 620.173 304.318 620.06 292.43 620.246C287.496 620.323 281.549 619.704 276.776 620.908C274.046 621.596 271.309 624.143 269.463 626.21C263.949 632.383 266.799 643.211 266.07 650.9C265.359 649.461 265.299 648.006 265.263 646.43C265.089 638.816 264.224 629.8 270.061 624C271.957 622.116 274.259 620.688 276.86 620.029C281.989 618.73 288.179 619.501 293.502 619.457L318.65 619.061Z"/><path fill="#4B260C" d="M318.65 619.061C325.675 618.239 344.077 618.038 351.189 618.969C344.831 619.177 334.113 620.217 328.181 619.458C325.323 618.768 321.597 619.107 318.65 619.061Z"/><path fill="#CAC7B0" fill-opacity="0.54509807" d="M264.681 789.671L265.425 790.976C265.762 791.148 265.875 791.238 266.302 791.273C269.092 791.504 274.021 790.023 276.959 789.739C287.811 788.69 298.754 788.565 309.609 787.341L306.143 787.446C309.928 786.354 326.992 786.812 332 786.922C331.739 787.967 331.674 788.668 330.674 789.292C329.432 790.069 327.679 790.347 326.317 790.936L325.423 791.437L325.604 792L263.532 792L264.681 789.671Z"/><path fill="#CAC7B0" fill-opacity="0.68235296" d="M266.389 786.54L312.254 786.534C320.684 786.527 329.392 786.131 337.802 786.699C335.866 786.844 333.942 787.035 332 786.922C326.992 786.812 309.928 786.354 306.143 787.446L309.609 787.341C298.754 788.565 287.811 788.69 276.959 789.739C274.021 790.023 269.092 791.504 266.302 791.273C265.875 791.238 265.762 791.148 265.425 790.976L264.681 789.671L266.389 786.54Z"/></svg>