<?xml version="1.0" encoding="utf-8" ?><svg xmlns="http://www.w3.org/2000/svg" xmlns:xlink="http://www.w3.org/1999/xlink" width="736" height="700" viewBox="0 0 736 700"><defs><linearGradient id="gradient_0" gradientUnits="userSpaceOnUse" x1="116.33414" y1="-4.1599255" x2="578.71606" y2="760.75446"><stop offset="0" stop-color="#340106"/><stop offset="1" stop-color="#5B2508"/></linearGradient></defs><path fill="url(#gradient_0)" d="M87.5134 12.2674C98.4968 9.55691 117.922 10.3427 129.708 10.2736C153.155 10.1345 176.603 10.1215 200.05 10.2344L494.375 10.7845L579.054 10.5212C597.111 10.3958 617.069 11.0348 634.865 8.3934C641.646 19.2979 645.579 30.8471 649.931 42.8382C655.509 58.2057 660.619 73.751 666.283 89.0806C681.032 129.022 695.414 169.099 709.425 209.305C716.338 229.022 724.761 248.705 729.666 269.044C731.832 278.027 733.508 291.882 728.185 300.136C723.897 306.785 713.056 305.983 706.113 307.604L705.479 307.756C705.271 313.969 704.93 320.36 705.66 326.547C705.42 327.943 705.313 329.294 705.261 330.71C704.024 343.658 704.084 356.63 704.041 369.63L704.339 429.743C704.349 434.21 703.728 438.666 703.557 443.128C703.331 449.024 703.551 455.029 703.63 460.932C703.723 467.903 704.803 474.784 704.904 481.777C705.021 489.934 704.121 498.718 705.531 506.751C704.841 509.302 706.275 511.683 705.06 514.133L704.66 514.207C704.692 520.619 704.45 527.022 704.529 533.439C704.556 535.595 704.369 538.092 704.723 540.202C704.431 551.446 704.898 562.669 704.626 573.918C704.381 584.075 703.347 594.24 703.493 604.404C703.512 605.713 703.421 606.793 704.323 607.851C703.341 615.88 703.408 624.202 703.335 632.291L703.224 665.247C703.218 671.795 704.128 679.415 702.736 685.789C697.131 691.323 694.626 690.905 687.248 691.052L687.616 690.831L687.504 690.458C684.409 689.833 680.653 690.629 677.463 690.647L642.162 690.661L529.888 689.899C516.323 689.763 502.686 690.794 489.115 690.134L493.332 689.922C488.823 689.454 484.293 689.653 479.769 689.52C477.011 689.44 474.205 689.008 471.463 689.006C470.423 689.005 469.337 689.349 468.338 689.616C464.011 690.776 455.829 689.897 450.898 689.926C440.324 689.988 429.758 690.328 419.172 690.33C411.638 690.331 404.067 689.972 396.547 690.076C395.607 690.089 394.782 689.959 393.974 690.513C366.545 690.826 339.078 690.53 311.645 690.527L124.06 690.461L61.7182 690.766C54.7955 690.848 35.313 691.977 29.6844 690.728C25.9435 689.898 22.363 685.297 20.3427 682.23C19.9003 674.998 20.6854 667.421 20.7384 660.14L20.9696 608.45L20.8841 559.857C20.9182 555.277 21.5197 550.724 21.5667 546.142C21.9516 495.599 21.8224 445.053 21.1792 394.513C20.8793 380.307 21.7499 366.163 21.7961 351.966C21.8128 346.83 22.2003 341.265 21.4401 336.182C21.1123 333.99 18.9917 331.487 17.7894 329.601C18.3689 329.044 18.9648 328.478 19.4568 327.841C22.6489 323.703 21.8531 313.47 21.1354 308.629C17.0482 304.929 11.2841 303.433 7.12264 299.709C3.34728 296.331 1.82624 291.34 1.65495 286.41C1.38818 278.731 3.98562 264.194 6.03714 256.699C8.78109 246.673 12.5499 236.857 15.9966 227.052C21.0492 212.647 25.9722 198.197 30.7651 183.704C43.1367 145.628 54.2394 107.119 66.4228 68.9721L75.2742 41.4383C77.5723 34.3389 79.772 27.1364 82.6955 20.2638C83.9665 17.2759 85.3018 14.6714 87.5134 12.2674Z"/><path fill="#EEA233" d="M210.741 306.212C222.167 306.55 233.684 306.168 245.119 306.164C273.064 306.069 301.009 306.125 328.953 306.335C377.353 307.058 425.758 307.376 474.163 307.288C499.772 307.297 525.546 307.804 551.134 306.884C554.89 307.259 558.813 307.008 562.593 306.988L582.703 306.876L653.162 306.478C666.511 306.463 680.338 305.943 693.624 307.2C693.868 315.142 693.78 323.024 693.667 330.966C693.6 335.667 693.704 340.453 693.282 345.135L693.181 612.965C693.604 618.82 692.4 619.321 694.646 625.216C694.978 626.089 695.526 627.315 694.96 628.148C693.944 628.298 693.514 628.164 692.851 628.981L692.708 629.972C693.692 646.759 692.739 663.819 692.986 680.649C682.936 681.29 672.729 680.976 662.657 681.053C646.674 681.325 630.688 681.471 614.703 681.49L498.154 681.857C475.636 681.774 453.066 681.047 430.556 681.247L429.874 681.936L430.785 683.569L430.623 684.114C429.645 683.961 428.659 683.836 427.69 683.633C423.672 682.79 410.979 686.306 408.326 684.017C384.358 684.645 360.354 684.089 336.375 684.63C332.739 684.712 304.094 685.945 303.343 685.541C302.939 685.324 302.999 684.99 302.908 684.583C303.326 683.524 304.214 683.113 305.129 682.532L304.962 682.029C303.598 681.05 301.283 681.219 299.651 681.121C297.902 681.144 296.356 681.21 294.644 681.635L294.157 681.753C294.059 681.777 293.963 681.805 293.866 681.83C288.649 683.201 267.443 682.344 260.43 682.425C209.234 683.035 158.032 682.914 106.84 682.061C90.4989 681.906 74.1911 681.383 57.8576 681.023C49.2666 680.834 40.1908 681.465 31.692 680.156C31.681 662.944 31.7656 645.732 31.9459 628.521L31.9735 624.578L32.0705 620.157C31.8454 614.504 32.3076 608.633 32.3743 602.958C32.6105 589.95 32.6455 576.939 32.4795 563.93C31.3135 489.036 31.019 414.131 31.596 339.23C31.071 336.033 31.2338 332.5 31.1851 329.252C31.0596 321.658 31.0972 314.063 31.2978 306.47C48.8126 305.925 66.4854 306.445 84.0169 306.514C110.201 306.669 136.387 306.658 162.571 306.482C178.252 306.483 195.208 307.166 210.741 306.212Z"/><path fill="#2887A5" d="M294.647 417.052C294.441 410.408 293.932 380.252 296.493 376.177C301.725 375.305 307.103 375.62 312.386 375.67C318.337 375.747 324.289 375.748 330.24 375.673C350.584 375.542 370.928 375.602 391.27 375.854C401.691 375.932 413.073 375.421 423.374 376.143C424.786 376.242 425.968 376.436 427.147 377.264C429.076 378.618 430.76 381.073 431.116 383.399C432.194 390.436 431.567 398.17 431.586 405.31L431.601 447.52L431.229 532.439C431.247 548.233 431.135 564.027 430.893 579.819C429.714 586.296 430.45 601.835 430.428 609.267C430.413 614.213 429.93 619.142 429.904 624.056C429.888 627.211 430.355 630.345 430.412 633.5C430.461 636.241 430.26 639.119 430.555 641.838L430.451 669.614C430.483 673.434 430.226 677.449 430.556 681.247L429.874 681.936L430.785 683.569L430.623 684.114C429.645 683.961 428.659 683.836 427.69 683.633C423.672 682.79 410.979 686.306 408.326 684.017C384.358 684.645 360.354 684.089 336.375 684.63C332.739 684.712 304.094 685.945 303.343 685.541C302.939 685.324 302.999 684.99 302.908 684.583C303.326 683.524 304.214 683.113 305.129 682.532L304.962 682.029C303.598 681.05 301.283 681.219 299.651 681.121C297.902 681.144 296.356 681.21 294.644 681.635L294.157 681.753C294.059 681.777 293.963 681.805 293.866 681.83C295.009 667.567 294.704 652.971 294.564 638.662L294.689 631.864C294.634 630.384 294.737 628.983 294.902 627.512C295.205 626.918 295.422 626.054 295.483 625.391C295.589 624.234 294.609 622.855 293.818 622.062C293.735 621.979 293.641 621.908 293.552 621.831L294.229 621.266C295.385 618.611 294.627 599.418 294.641 595.098L294.378 473.321L294.39 437.562C294.398 430.771 294.153 423.821 294.647 417.052Z"/><path fill="#310C0B" d="M294.647 417.052C294.441 410.408 293.932 380.252 296.493 376.177C301.725 375.305 307.103 375.62 312.386 375.67C318.337 375.747 324.289 375.748 330.24 375.673C350.584 375.542 370.928 375.602 391.27 375.854C401.691 375.932 413.073 375.421 423.374 376.143C424.786 376.242 425.968 376.436 427.147 377.264C429.076 378.618 430.76 381.073 431.116 383.399C432.194 390.436 431.567 398.17 431.586 405.31L431.601 447.52L431.229 532.439C431.247 548.233 431.135 564.027 430.893 579.819C429.714 586.296 430.45 601.835 430.428 609.267C430.413 614.213 429.93 619.142 429.904 624.056C429.888 627.211 430.355 630.345 430.412 633.5C430.461 636.241 430.26 639.119 430.555 641.838L430.451 669.614C430.483 673.434 430.226 677.449 430.556 681.247L429.874 681.936L430.785 683.569L430.623 684.114C429.645 683.961 428.659 683.836 427.69 683.633C423.672 682.79 410.979 686.306 408.326 684.017C411.251 683.911 414.715 684.274 417.109 682.371C418.498 682.043 419.608 682.432 420.828 681.546C421.697 666.63 421.145 651.393 421.122 636.431L420.875 553.694L420.84 440.994C420.825 422.89 421.267 404.719 420.742 386.626C407.518 385.528 393.914 386.014 380.65 385.972L304.423 385.915L304.716 548.087C304.541 577.094 304.563 606.101 304.781 635.108C304.811 650.684 304.276 666.476 304.962 682.029C303.598 681.05 301.283 681.219 299.651 681.121C297.902 681.144 296.356 681.21 294.644 681.635L294.157 681.753C294.059 681.777 293.963 681.805 293.866 681.83C295.009 667.567 294.704 652.971 294.564 638.662L294.689 631.864C294.634 630.384 294.737 628.983 294.902 627.512C295.205 626.918 295.422 626.054 295.483 625.391C295.589 624.234 294.609 622.855 293.818 622.062C293.735 621.979 293.641 621.908 293.552 621.831L294.229 621.266C295.385 618.611 294.627 599.418 294.641 595.098L294.378 473.321L294.39 437.562C294.398 430.771 294.153 423.821 294.647 417.052Z"/><path fill="#4C1913" d="M294.689 631.864C294.907 630.825 295.14 629.818 295.457 628.804C296.761 627.964 298.207 628.118 299.739 628.007C300.082 634.349 299.594 640.627 299.564 646.964C299.526 655.014 299.939 663.258 299.374 671.275C299.18 674.039 299.15 676.755 299.193 679.527C299.204 680.253 300.052 680.572 299.651 681.121C297.902 681.144 296.356 681.21 294.644 681.635L294.157 681.753C294.059 681.777 293.963 681.805 293.866 681.83C295.009 667.567 294.704 652.971 294.564 638.662L294.689 631.864Z"/><path fill="#5A220F" d="M294.229 621.266C295.385 618.611 294.627 599.418 294.641 595.098L294.378 473.321L294.39 437.562C294.398 430.771 294.153 423.821 294.647 417.052C295.324 423.25 294.881 429.93 294.88 436.175L294.868 471.503L295.602 561.188C295.616 573.148 295.739 585.132 295.56 597.089C295.454 604.1 295.029 611.095 295.132 618.112C295.149 619.243 295.231 620.336 295.909 621.276C296.747 621.612 297.408 621.506 298.277 621.413C299.029 621.979 299.427 622.376 299.593 623.349C299.842 624.811 299.714 626.512 299.739 628.007C298.207 628.118 296.761 627.964 295.457 628.804C295.14 629.818 294.907 630.825 294.689 631.864C294.634 630.384 294.737 628.983 294.902 627.512C295.205 626.918 295.422 626.054 295.483 625.391C295.589 624.234 294.609 622.855 293.818 622.062C293.735 621.979 293.641 621.908 293.552 621.831L294.229 621.266Z"/><path fill="#5A220F" d="M430.126 680.884C430.057 677.271 429.668 673.149 430.451 669.614C430.483 673.434 430.226 677.449 430.556 681.247L429.874 681.936L430.785 683.569L430.623 684.114C429.645 683.961 428.659 683.836 427.69 683.633C423.672 682.79 410.979 686.306 408.326 684.017C411.251 683.911 414.715 684.274 417.109 682.371C418.498 682.043 419.608 682.432 420.828 681.546C423.166 679.952 427.383 680.736 430.126 680.884Z"/><defs><linearGradient id="gradient_1" gradientUnits="userSpaceOnUse" x1="358.1908" y1="681.28192" x2="358.03271" y2="685.98126"><stop offset="0" stop-color="black"/><stop offset="1" stop-color="#351B20"/></linearGradient></defs><path fill="url(#gradient_1)" d="M305.129 682.532C342.428 682.607 379.82 682.974 417.109 682.371C414.715 684.274 411.251 683.911 408.326 684.017C384.358 684.645 360.354 684.089 336.375 684.63C332.739 684.712 304.094 685.945 303.343 685.541C302.939 685.324 302.999 684.99 302.908 684.583C303.326 683.524 304.214 683.113 305.129 682.532Z"/><path fill="#05376A" d="M325.921 501.394C329.209 501.276 332.142 501.782 335.334 502.536C336.236 511.163 335.699 520.329 335.652 529.008C335.596 539.349 335.936 550.043 334.994 560.337C333.207 561.588 331.399 562.227 329.29 562.698C325.785 562.385 323.152 561.403 319.967 559.933C319.292 541.253 319.706 522.096 320.915 503.444C321.005 503.392 321.094 503.339 321.184 503.289L321.637 503.038C323.094 502.224 324.278 501.717 325.921 501.394Z"/><path fill="#BF7725" d="M210.741 306.212C222.167 306.55 233.684 306.168 245.119 306.164C273.064 306.069 301.009 306.125 328.953 306.335C377.353 307.058 425.758 307.376 474.163 307.288C499.772 307.297 525.546 307.804 551.134 306.884C554.89 307.259 558.813 307.008 562.593 306.988L582.703 306.876L653.162 306.478C666.511 306.463 680.338 305.943 693.624 307.2C693.868 315.142 693.78 323.024 693.667 330.966C693.6 335.667 693.704 340.453 693.282 345.135C692.869 340.946 693.152 336.505 693.167 332.285C687.284 331.681 681.342 331.773 675.436 331.661C664.232 331.397 653.024 331.348 641.819 331.516C623.482 331.66 605.138 331.525 586.813 332.234C564.603 333.092 542.395 334.885 520.199 336.089C451.869 339.702 383.448 341.323 315.024 340.952C303.129 340.771 291.224 339.876 279.331 339.457C263.639 338.905 247.735 338.749 232.08 337.688C226.531 337.312 221.015 336.346 215.476 335.823C205.254 334.857 194.769 334.227 184.507 333.878C171.601 333.438 158.372 333.197 145.453 333.555C140.231 333.7 135.035 334.373 129.811 334.507C113.195 334.932 96.5585 334.888 79.9387 335.129C71.007 335.235 62.0747 335.278 53.1425 335.26C46.4442 335.27 38.7274 334.486 32.2529 336.212C31.64 337.029 31.7044 338.214 31.596 339.23C31.071 336.033 31.2338 332.5 31.1851 329.252C31.0596 321.658 31.0972 314.063 31.2978 306.47C48.8126 305.925 66.4854 306.445 84.0169 306.514C110.201 306.669 136.387 306.658 162.571 306.482C178.252 306.483 195.208 307.166 210.741 306.212Z"/><path fill="#BF7725" d="M32.0705 620.157C42.3261 620.797 52.6256 620.61 62.8967 620.618L107.754 620.59L231.989 620.654L271.3 620.809C278.913 620.865 286.638 620.676 294.229 621.266L293.552 621.831C293.641 621.908 293.735 621.979 293.818 622.062C294.609 622.855 295.589 624.234 295.483 625.391C295.422 626.054 295.205 626.918 294.902 627.512C294.737 628.983 294.634 630.384 294.689 631.864L294.564 638.662C294.704 652.971 295.009 667.567 293.866 681.83C288.649 683.201 267.443 682.344 260.43 682.425C209.234 683.035 158.032 682.914 106.84 682.061C90.4989 681.906 74.1911 681.383 57.8576 681.023C49.2666 680.834 40.1908 681.465 31.692 680.156C31.681 662.944 31.7656 645.732 31.9459 628.521L31.9735 624.578L32.0705 620.157Z"/><defs><linearGradient id="gradient_2" gradientUnits="userSpaceOnUse" x1="168.73726" y1="623.43304" x2="168.71973" y2="628.48273"><stop offset="0" stop-color="#883815"/><stop offset="1" stop-color="#995320"/></linearGradient></defs><path fill="url(#gradient_2)" d="M32.0705 620.157C42.3261 620.797 52.6256 620.61 62.8967 620.618L107.754 620.59L231.989 620.654L271.3 620.809C278.913 620.865 286.638 620.676 294.229 621.266L293.552 621.831C293.641 621.908 293.735 621.979 293.818 622.062C294.609 622.855 295.589 624.234 295.483 625.391C295.422 626.054 295.205 626.918 294.902 627.512C294.737 628.983 294.634 630.384 294.689 631.864L294.564 638.662C293.778 635.496 294.314 631.411 294.382 628.147C280.808 629.017 267.235 628.807 253.641 628.959C226.734 629.214 199.825 629.222 172.918 628.984L52.5752 628.735C46.5105 628.983 39.729 629.358 33.7361 628.607L31.9459 628.521L31.9735 624.578L32.0705 620.157Z"/><path fill="#5A220F" d="M32.0705 620.157C42.3261 620.797 52.6256 620.61 62.8967 620.618L107.754 620.59L231.989 620.654L271.3 620.809C278.913 620.865 286.638 620.676 294.229 621.266L293.552 621.831C293.641 621.908 293.735 621.979 293.818 622.062C294.609 622.855 295.589 624.234 295.483 625.391C295.422 626.054 295.205 626.918 294.902 627.512C293.78 627.04 292.499 627.019 291.357 626.591C288.466 625.509 286.305 623.574 283.054 623.253C277.505 622.705 271.389 623.418 265.786 623.436L224.964 623.425C183.821 623.208 142.678 623.22 101.535 623.46C101.351 623.63 101.211 623.865 100.983 623.969C100.954 623.982 56.2174 624.452 50.7156 624.871C45.8993 625.237 40.4446 626.075 35.833 627.457C35.126 627.827 34.4153 628.187 33.7361 628.607L31.9459 628.521L31.9735 624.578L32.0705 620.157Z"/><path fill="#703719" d="M31.9735 624.578C39.3345 623.364 46.7932 623.551 54.216 623.531L78.0685 623.463C82.677 623.48 87.2855 623.468 91.8938 623.428C95.0717 623.386 98.3737 623.134 101.535 623.46C101.351 623.63 101.211 623.865 100.983 623.969C100.954 623.982 56.2174 624.452 50.7156 624.871C45.8993 625.237 40.4446 626.075 35.833 627.457C35.126 627.827 34.4153 628.187 33.7361 628.607L31.9459 628.521L31.9735 624.578Z"/><path fill="#8C5532" d="M35.833 627.457L36.3449 627.494C39.7044 627.72 43.0798 627.119 46.4552 627.071C57.9196 626.909 69.3941 627.086 80.8598 627.063C87.3546 627.05 94.0076 626.704 100.476 626.882C101.316 626.905 102.148 627.106 102.811 627.635C99.2793 628.564 94.1734 627.577 90.4125 627.525C85.9472 627.463 54.6144 627.435 52.5752 628.735C46.5105 628.983 39.729 629.358 33.7361 628.607C34.4153 628.187 35.126 627.827 35.833 627.457Z"/><path fill="#BF7725" d="M430.873 628.835C437.083 629.577 443.653 629.319 449.913 629.382C465.126 629.535 480.367 629.177 495.585 629.151L604.477 629.413C624.119 629.128 643.765 629.143 663.407 629.459C673.17 629.541 682.967 629.214 692.708 629.972C693.692 646.759 692.739 663.819 692.986 680.649C682.936 681.29 672.729 680.976 662.657 681.053C646.674 681.325 630.688 681.471 614.703 681.49L498.154 681.857C475.636 681.774 453.066 681.047 430.556 681.247C430.226 677.449 430.483 673.434 430.451 669.614L430.555 641.838C430.981 637.559 430.834 633.138 430.873 628.835Z"/><path fill="#703719" d="M430.555 641.838C430.26 639.119 430.461 636.241 430.412 633.5C430.355 630.345 429.888 627.211 429.904 624.056C429.93 619.142 430.413 614.213 430.428 609.267C430.45 601.835 429.714 586.296 430.893 579.819C431.455 593.456 430.518 607.158 431.086 620.798C448.522 621.075 465.991 620.635 483.432 620.602L632.993 620.565C652.931 620.652 672.948 620.307 692.876 620.809C692.934 618.224 692.842 615.525 693.181 612.965C693.604 618.82 692.4 619.321 694.646 625.216C694.978 626.089 695.526 627.315 694.96 628.148C693.944 628.298 693.514 628.164 692.851 628.981L692.708 629.972C682.967 629.214 673.17 629.541 663.407 629.459C643.765 629.143 624.119 629.128 604.477 629.413L495.585 629.151C480.367 629.177 465.126 629.535 449.913 629.382C443.653 629.319 437.083 629.577 430.873 628.835C430.834 633.138 430.981 637.559 430.555 641.838Z"/><path fill="#5A220F" d="M97.1434 557.732C97.849 543.63 97.4346 529.307 97.4563 515.177L97.3195 427.12L97.2405 399.43C97.2161 394.583 96.7512 389.245 97.493 384.473C97.8365 382.264 99.2686 380.557 100.885 379.101C102.963 377.229 104.847 376.343 107.627 376.068C114.92 375.349 122.714 375.877 130.054 375.875C146.515 375.846 162.975 375.946 179.435 376.174L222.892 376.211C229.864 376.202 237.107 375.785 244.056 376.275C245.564 376.382 247.287 376.449 248.354 377.627C249.614 379.019 249.961 381.048 250.094 382.851C250.845 393.004 250.466 403.374 250.487 413.56L250.568 469.068C250.761 488.849 250.773 508.633 250.606 528.415C250.602 538.085 251.318 548.131 250.493 557.76C250.461 558.133 250.426 558.506 250.387 558.879C248.809 560.682 247.352 562.465 245.276 563.722C238.507 564.307 231.496 563.862 224.703 563.773C212.519 563.538 200.333 563.407 188.146 563.379L132.648 563.355C123.809 563.338 112.498 564.049 103.929 562.731C103.234 563.51 102.413 564.294 101.353 564.501C99.8507 564.796 98.1464 564.31 96.9599 563.364C96.107 562.684 95.3766 561.653 95.4101 560.517C95.4469 559.27 96.2106 558.434 97.1434 557.732Z"/><path fill="#FCB745" d="M103.929 562.731C103.234 563.51 102.413 564.294 101.353 564.501C99.8507 564.796 98.1464 564.31 96.9599 563.364C96.107 562.684 95.3766 561.653 95.4101 560.517C95.4469 559.27 96.2106 558.434 97.1434 557.732C98.9007 560.188 101.167 561.612 103.929 562.731Z"/><path fill="#4DCEEA" d="M108.266 387.438C128.249 386.939 148.446 386.925 168.42 387.463C173.328 387.61 178.237 387.698 183.147 387.726C186.407 387.731 189.785 387.527 193.025 387.786C208.684 387.673 224.37 387.401 240.024 387.806C240.149 398.763 240.141 409.722 240.001 420.679C240.516 434.671 239.786 448.752 240.017 462.764C240.082 465.658 240.23 468.578 240.056 471.469L239.714 552.999C229.82 553.36 219.863 553.067 209.961 553.03C199.029 552.989 188.049 553.178 177.125 552.803C173.762 552.699 170.397 552.677 167.033 552.738C147.606 552.486 128.026 553.796 108.617 552.688L108.302 545.538C107.702 544.055 107.16 542.591 106.961 540.995C106.058 533.733 106.659 525.924 106.652 518.596C106.636 503.799 106.261 489.115 107.932 474.388L108.268 479.852C108.451 476.979 108.427 474.104 108.425 471.227C107.821 466.989 108.099 461.67 108.23 457.354C108.579 434.041 108.129 410.747 108.266 387.438Z"/><path fill="#4DCEEA" d="M206.455 471.429C217.641 471.769 228.884 471.029 240.056 471.469L239.714 552.999C229.82 553.36 219.863 553.067 209.961 553.03C199.029 552.989 188.049 553.178 177.125 552.803C176.838 548.518 176.831 544.221 176.774 539.929L176.908 482.613C177.238 478.93 177.171 475.169 177.247 471.472C186.983 471.558 196.719 471.544 206.455 471.429Z"/><path fill="#4DCEEA" d="M108.425 471.227C128.089 471.176 147.886 470.904 167.534 471.554C167.709 498.562 167.727 525.74 167.033 552.738C147.606 552.486 128.026 553.796 108.617 552.688L108.302 545.538C107.702 544.055 107.16 542.591 106.961 540.995C106.058 533.733 106.659 525.924 106.652 518.596C106.636 503.799 106.261 489.115 107.932 474.388L108.268 479.852C108.451 476.979 108.427 474.104 108.425 471.227Z"/><path fill="#110205" d="M107.932 474.388L108.268 479.852C108.357 501.74 107.977 523.654 108.302 545.538C107.702 544.055 107.16 542.591 106.961 540.995C106.058 533.733 106.659 525.924 106.652 518.596C106.636 503.799 106.261 489.115 107.932 474.388Z"/><path fill="#4DCEEA" d="M108.266 387.438C128.249 386.939 148.446 386.925 168.42 387.463C168.533 403.785 168.414 420.107 168.062 436.425C167.93 444.705 167.961 453.027 167.583 461.298C156.405 461.46 145.226 461.542 134.047 461.543C125.518 461.605 116.985 461.854 108.457 461.603C108.391 460.194 108.385 458.755 108.23 457.354C108.579 434.041 108.129 410.747 108.266 387.438Z"/><path fill="#2C5C8A" d="M168.42 387.463C173.328 387.61 178.237 387.698 183.147 387.726C186.407 387.731 189.785 387.527 193.025 387.786L192.584 387.832C189.922 388.079 179.58 387.184 178.155 388.838L177.953 389.795L177.511 456.138L177.543 461.524C198.269 461.894 218.978 460.994 239.707 461.825C239.677 448.612 239.015 433.716 240.001 420.679C240.516 434.671 239.786 448.752 240.017 462.764C240.082 465.658 240.23 468.578 240.056 471.469C228.884 471.029 217.641 471.769 206.455 471.429C196.719 471.544 186.983 471.558 177.247 471.472C177.171 475.169 177.238 478.93 176.908 482.613L176.774 539.929C176.831 544.221 176.838 548.518 177.125 552.803C173.762 552.699 170.397 552.677 167.033 552.738C167.727 525.74 167.709 498.562 167.534 471.554C147.886 470.904 128.089 471.176 108.425 471.227C107.821 466.989 108.099 461.67 108.23 457.354C108.385 458.755 108.391 460.194 108.457 461.603C116.985 461.854 125.518 461.605 134.047 461.543C145.226 461.542 156.405 461.46 167.583 461.298C167.961 453.027 167.93 444.705 168.062 436.425C168.414 420.107 168.533 403.785 168.42 387.463Z"/><path fill="#05376A" d="M177.511 456.138L177.128 456.512L176.8 456.282C176.273 453.403 177.019 450.177 176.934 447.227C176.578 434.965 176.534 422.76 176.558 410.488C176.569 404.663 176.111 398.269 176.951 392.511C177.108 391.429 177.332 390.695 177.953 389.795L177.511 456.138Z"/><path fill="#3B78BC" d="M237.708 470.986C237.577 469.26 237.422 467.512 237.451 465.78C237.473 464.499 237.563 463.596 238.518 462.671C239.232 462.534 239.345 462.504 240.017 462.764C240.082 465.658 240.23 468.578 240.056 471.469C228.884 471.029 217.641 471.769 206.455 471.429C210.652 470.603 215.53 471.013 219.824 471.033C225.786 471.081 231.747 471.065 237.708 470.986Z"/><path fill="#5A220F" d="M529.723 376.052C548.945 375.691 568.204 375.954 587.431 375.873L607.852 375.754C612.098 375.728 616.482 375.5 620.711 375.905C623.37 376.16 624.74 376.61 626.453 378.789C628.071 380.849 628.972 383.198 629.216 385.794C630.203 396.328 629.635 407.348 629.698 417.941L629.984 480.478C630.077 497.59 630.083 514.704 630.001 531.817C630.015 539.913 630.943 548.46 629.881 556.477C629.293 557.226 628.649 557.907 627.968 558.573C625.76 560.733 623.128 562.326 620.119 563.08C613.292 564.793 590.778 563.648 582.786 563.555L518.357 563.197C508.693 563.099 498.862 563.391 489.229 562.749C487.838 562.657 485.605 562.604 484.483 561.78C482.613 560.407 482.044 558.177 481.854 555.99C481.194 548.397 481.583 540.497 481.605 532.869L481.69 491.081C481.534 467.589 481.506 444.096 481.605 420.603C481.656 408.794 481.146 396.601 482.052 384.834C482.218 382.682 482.756 380.235 484.258 378.593C485.611 377.113 488.391 376.61 490.272 376.367C494.778 375.786 499.687 376.184 504.246 376.185C512.738 376.196 521.231 376.152 529.723 376.052Z"/><path fill="#4DCEEA" d="M552.661 387.375C554.911 387.416 557.118 387.018 559.366 387C573.026 387.402 586.785 387.035 600.455 387.02C606.644 387.013 613.019 386.702 619.177 387.312C619.293 404.298 619.27 421.284 619.109 438.27C619.1 446.093 618.776 454.085 619.33 461.882C620.601 466.48 620.386 473.644 619.617 478.402L619.488 552.214C606.261 552.816 592.992 552.613 579.753 552.621C573.236 552.625 566.031 553.262 559.602 552.37C557.92 552.3 556.21 552.348 554.525 552.34L492.146 552.601C491.751 543.921 491.962 535.174 491.974 526.486L492.04 483.758C491.391 476.49 492.333 468.99 492.242 461.683C492.01 448.733 492.287 435.773 492.285 422.818C492.284 410.998 491.981 399.164 492.21 387.346C502.674 386.649 513.338 386.927 523.831 386.925C533.381 386.923 543.143 386.595 552.661 387.375Z"/><path fill="#4DCEEA" d="M552.661 387.375C554.911 387.416 557.118 387.018 559.366 387C573.026 387.402 586.785 387.035 600.455 387.02C606.644 387.013 613.019 386.702 619.177 387.312C619.293 404.298 619.27 421.284 619.109 438.27C619.1 446.093 618.776 454.085 619.33 461.882C599.077 461.776 578.823 461.861 558.572 462.139C558.301 463.079 558.232 463.294 557.317 463.803C556.491 464.262 555.192 464.102 554.369 463.727C553.214 463.2 553.066 462.528 552.582 461.447C532.471 461.803 512.355 461.882 492.242 461.683C492.01 448.733 492.287 435.773 492.285 422.818C492.284 410.998 491.981 399.164 492.21 387.346C502.674 386.649 513.338 386.927 523.831 386.925C533.381 386.923 543.143 386.595 552.661 387.375Z"/><path fill="#4DCEEA" d="M492.21 387.346C502.674 386.649 513.338 386.927 523.831 386.925C533.381 386.923 543.143 386.595 552.661 387.375C553.183 403.035 553.084 418.685 553.053 434.351C553.036 442.879 553.387 451.556 552.949 460.063L552.582 461.447C532.471 461.803 512.355 461.882 492.242 461.683C492.01 448.733 492.287 435.773 492.285 422.818C492.284 410.998 491.981 399.164 492.21 387.346Z"/><path fill="#1E204C" d="M552.661 387.375C554.911 387.416 557.118 387.018 559.366 387L558.111 387.43C556.759 390.756 558.581 447.502 558.145 455.973C558.344 458.024 558.487 460.08 558.572 462.139C558.301 463.079 558.232 463.294 557.317 463.803C556.491 464.262 555.192 464.102 554.369 463.727C553.214 463.2 553.066 462.528 552.582 461.447L552.949 460.063C553.387 451.556 553.036 442.879 553.053 434.351C553.084 418.685 553.183 403.035 552.661 387.375Z"/><path fill="#05376A" d="M558.145 455.973C558.344 458.024 558.487 460.08 558.572 462.139C558.301 463.079 558.232 463.294 557.317 463.803C556.491 464.262 555.192 464.102 554.369 463.727C553.214 463.2 553.066 462.528 552.582 461.447L552.949 460.063L553.252 460.834C554.75 461.434 556.457 461.643 558.038 461.951C557.985 459.941 558.013 457.979 558.145 455.973Z"/><path fill="#4DCEEA" d="M559.157 473.412C571.865 473.736 584.602 473.605 597.315 473.608C604.714 473.61 612.177 473.431 619.558 473.997L619.617 478.402L619.488 552.214C606.261 552.816 592.992 552.613 579.753 552.621C573.236 552.625 566.031 553.262 559.602 552.37C559.778 546.739 559.488 540.998 559.476 535.355C559.463 520.81 559.354 506.264 559.151 491.72C559.465 485.656 559.196 479.486 559.157 473.412Z"/><path fill="#2C5C8A" d="M492.242 461.683C512.355 461.882 532.471 461.803 552.582 461.447C553.066 462.528 553.214 463.2 554.369 463.727C555.192 464.102 556.491 464.262 557.317 463.803C558.232 463.294 558.301 463.079 558.572 462.139C578.823 461.861 599.077 461.776 619.33 461.882C620.601 466.48 620.386 473.644 619.617 478.402L619.558 473.997C612.177 473.431 604.714 473.61 597.315 473.608C584.602 473.605 571.865 473.736 559.157 473.412C559.196 479.486 559.465 485.656 559.151 491.72C558.62 487.683 558.893 483.431 558.907 479.362C558.913 477.892 559.221 474.708 558.147 473.627C555.99 474.812 556.437 473.498 554.46 473.465C553.758 474.996 554.152 477.482 554.129 479.172C553.893 477.369 553.759 475.632 553.72 473.814C533.289 473.031 512.757 473.255 492.311 473.25C492.259 476.713 492.415 480.319 492.04 483.758C491.391 476.49 492.333 468.99 492.242 461.683Z"/><path fill="#1E204C" d="M554.129 479.172C554.152 477.482 553.758 474.996 554.46 473.465C556.437 473.498 555.99 474.812 558.147 473.627C559.221 474.708 558.913 477.892 558.907 479.362C558.893 483.431 558.62 487.683 559.151 491.72C559.354 506.264 559.463 520.81 559.476 535.355C559.488 540.998 559.778 546.739 559.602 552.37C557.92 552.3 556.21 552.348 554.525 552.34C554.893 542.587 554.608 532.735 554.581 522.972C554.648 508.371 554.498 493.769 554.129 479.172Z"/><path fill="#BF7725" d="M510.66 592.351C514.865 592.126 519.132 591.765 522.449 594.921C524.248 596.629 525.259 599.007 525.239 601.488C525.22 605.738 522.374 609.659 519.48 612.536C508.354 613.949 493.184 613.152 481.652 613.165C478.271 613.181 469.904 614.105 467.192 611.937C466.261 611.193 466.06 610.444 465.943 609.313C465.564 605.644 466.373 601.53 468.814 598.697C475.249 591.228 486.106 593.211 494.843 593.072C500.12 592.954 505.394 592.714 510.66 592.351Z"/><path fill="#8C5532" d="M590.187 593.787C599.83 593.515 632.078 592.251 639.766 596.884C644.613 599.805 648.085 605.577 649.354 610.936C645.875 611.692 642.208 611.631 638.663 611.694C629.687 611.733 620.7 611.603 611.723 611.538C604.71 611.487 597.485 611.657 590.511 610.89C587.685 610.58 582.659 609.955 580.462 608.055C579.932 607.597 579.861 607.092 579.791 606.425C579.444 603.102 580.59 598.563 582.731 595.994C584.579 593.777 587.551 593.966 590.187 593.787Z"/><path fill="#8C5532" d="M340.688 20.6646L418.436 20.3336C422.507 20.2804 426.603 20.1653 430.674 20.3128C434.602 20.4551 437.822 20.9109 441.781 20.2783C442.663 19.6208 442.628 19.2813 442.936 18.2531L443.11 18.301L443.342 19.3651L444.965 19.4644C446.335 19.5184 446.855 19.4477 447.953 20.3967C465.721 19.2101 483.756 20.6716 501.554 20.8274C511.94 20.8714 522.326 20.8299 532.711 20.7027C536.37 20.6629 540.277 20.2272 543.886 20.3634C544.801 20.398 545.537 21.0833 546.449 21.1646C550.045 21.4854 568.194 20.0979 569.857 21.4787L631.486 21.5588C638.048 37.7951 643.58 54.3231 649.61 70.7536C661.564 102.378 672.997 134.196 683.905 166.196L703.208 222.692C707.423 234.887 712.032 247.06 715.834 259.383C701.151 259.519 686.48 259.134 671.799 259.052C665.9 259.019 659.386 258.447 653.549 259.119C647.849 260.696 630.526 259.006 623.207 259.138C596.03 259.503 568.849 259.597 541.67 259.422C530.608 259.412 519.504 259.753 508.458 259.666C492.39 259.539 476.314 259.251 460.242 259.448C458.918 259.464 457.655 259.84 456.418 259.856C449.135 259.951 441.457 259.202 434.236 260.063C437.538 260.385 441.663 259.646 444.762 260.808L444.732 261.337C438.376 263.868 422.648 262.037 415.288 261.615L414.922 261.162L415.278 260.726C420.954 260.67 426.515 260.095 432.172 259.905C424.772 259.357 417 259.811 409.554 259.818C398.807 259.827 388.064 259.559 377.33 259.52C370.137 259.494 362.987 260.002 355.778 259.867C353.919 259.833 336.926 259.47 336.348 260.028L336.843 260.513L337.262 260.125C337.628 260.332 337.445 260.245 337.918 260.424L338.287 260.562L338.367 261.131C339.542 261.104 340.797 261.159 341.956 260.964C342.068 260.945 342.178 260.916 342.289 260.892L342.851 261.389L342.654 261.823C340.856 262.661 332.674 264.537 330.789 264.703C327.623 264.982 324.107 264.642 320.9 264.621C320.713 264.784 319.879 265.581 319.677 265.589C317.694 265.664 315.042 263.524 312.444 263.594C307.8 263.719 303.262 264.704 298.646 264.701C294.07 264.698 290.029 262.9 285.624 262.545C282.983 262.332 276.4 263.131 274.462 262.586C273.992 262.454 273.507 261.83 273.039 261.715C271.914 261.438 270.613 262.066 269.411 261.727C267.419 261.164 265.133 262.012 263.011 261.479L262.752 260.954L263.342 260.642C263.818 260.682 264.294 260.712 264.771 260.733C268.15 260.893 271.822 260.875 275.198 260.636C277.374 260.482 279.489 260.074 281.68 260.064C283.41 260.056 287.819 260.738 289.259 260.054C289.435 259.97 289.547 259.792 289.691 259.661C286.613 258.832 279.9 259.422 276.499 259.42L232.947 259.764C229.622 259.791 226.314 259.517 222.992 259.467C214.961 259.348 206.915 259.444 198.881 259.446C175.986 259.453 153.049 259.743 130.159 259.349C133.314 258.967 136.587 259.167 139.764 259.187C148.026 259.236 156.734 259.796 164.95 259.08L165.356 259.041C160.872 258.481 155.993 258.808 151.466 258.793C142.419 258.788 133.371 258.737 124.324 258.641C120.34 258.583 115.491 258.896 111.629 257.865L110.838 258.339L111.407 258.352C109.567 259.218 107.862 259.369 105.929 258.577C105.806 258.526 105.69 258.457 105.571 258.396C85.32 258.3 65.0343 258.809 44.7757 258.842C36.3797 258.855 25.6861 259.578 17.5466 258.328C18.7738 253.173 20.6604 248.122 22.3424 243.097C25.581 233.423 28.9845 223.788 31.9627 214.03L72.5448 82.7378C72.4428 82.2977 72.34 81.8803 72.3496 81.4247C72.433 77.4527 87.0598 31.9884 90.113 24.8373C90.7345 23.3816 91.3966 21.9575 92.5235 20.8221C97.8897 19.8675 103.644 20.4875 109.066 20.5087C119.054 20.5477 129.025 20.3425 139.023 20.4599C151.405 20.6053 163.8 19.8668 176.181 20.666C177.202 20.7319 177.918 20.8648 178.846 21.3238C179.487 21.6409 181.249 20.6693 182.074 20.486C185.074 19.8191 189.342 20.3356 192.459 20.3411L311.381 20.6879C316.585 20.6913 337.753 19.6015 340.688 20.6646Z"/><path fill="#8C5532" d="M444.965 19.4644C446.335 19.5184 446.855 19.4477 447.953 20.3967C465.721 19.2101 483.756 20.6716 501.554 20.8274C511.94 20.8714 522.326 20.8299 532.711 20.7027C536.37 20.6629 540.277 20.2272 543.886 20.3634C544.801 20.398 545.537 21.0833 546.449 21.1646C550.045 21.4854 568.194 20.0979 569.857 21.4787L631.486 21.5588C638.048 37.7951 643.58 54.3231 649.61 70.7536C661.564 102.378 672.997 134.196 683.905 166.196L703.208 222.692C707.423 234.887 712.032 247.06 715.834 259.383C701.151 259.519 686.48 259.134 671.799 259.052C665.9 259.019 659.386 258.447 653.549 259.119C647.22 258.924 640.888 258.82 634.556 258.805C629.85 258.772 624.779 259.039 620.145 258.209C617.286 258.21 614.471 258.886 611.596 258.796C592.843 258.221 573.952 259.03 555.184 259.038L527.571 259.021C522.806 259.014 517.822 258.724 513.078 259.097C511.079 259.27 508.727 259.595 506.767 259.139C489.572 193.256 471.964 127.481 453.945 61.8185C451.983 54.6807 445.004 24.5171 442.615 20.8425C443.199 19.9167 443.955 19.8153 444.965 19.4644Z"/><path fill="#8C5532" d="M620.145 258.209C618.111 248.815 615.949 239.45 613.66 230.116C609.496 212.903 604.866 195.806 599.777 178.844C590.314 148.636 580.076 118.676 569.074 88.9934C562.067 69.5181 555.346 49.9258 547.716 30.6803C546.922 28.6788 545.853 23.9912 544.474 22.5061C543.937 21.9281 541.727 23.2356 540.647 22.5799L540.738 21.837C544.634 20.5163 564.161 21.7069 569.857 21.4787L631.486 21.5588C638.048 37.7951 643.58 54.3231 649.61 70.7536C661.564 102.378 672.997 134.196 683.905 166.196L703.208 222.692C707.423 234.887 712.032 247.06 715.834 259.383C701.151 259.519 686.48 259.134 671.799 259.052C665.9 259.019 659.386 258.447 653.549 259.119C647.22 258.924 640.888 258.82 634.556 258.805C629.85 258.772 624.779 259.039 620.145 258.209Z"/><path fill="#4C1913" d="M447.953 20.3967C465.721 19.2101 483.756 20.6716 501.554 20.8274C511.94 20.8714 522.326 20.8299 532.711 20.7027C536.37 20.6629 540.277 20.2272 543.886 20.3634C544.801 20.398 545.537 21.0833 546.449 21.1646C550.045 21.4854 568.194 20.0979 569.857 21.4787C564.161 21.7069 544.634 20.5163 540.738 21.837L540.647 22.5799C541.727 23.2356 543.937 21.9281 544.474 22.5061C545.853 23.9912 546.922 28.6788 547.716 30.6803C555.346 49.9258 562.067 69.5181 569.074 88.9934C580.076 118.676 590.314 148.636 599.777 178.844C604.866 195.806 609.496 212.903 613.66 230.116C615.949 239.45 618.111 248.815 620.145 258.209C617.286 258.21 614.471 258.886 611.596 258.796C612.427 258.634 613.168 258.553 613.852 258.009C614.254 254.326 609.843 240.523 608.765 236C606.613 226.968 604.117 218.032 601.81 209.041C599.796 201.192 597.99 193.238 595.689 185.469C586.695 155.102 575.877 125.146 565.234 95.3153L548.538 48.6318C545.355 39.6079 541.884 30.824 539.548 21.522L469.698 20.9173C462.457 20.8219 455.202 21.0616 447.966 20.8324L447.953 20.3967Z"/><path fill="#310C0B" d="M444.965 19.4644C446.335 19.5184 446.855 19.4477 447.953 20.3967L447.966 20.8324L447.3 21.3053C447.684 26.8214 450.043 33.1399 451.482 38.5163L459.882 70.2816L500.639 222.626C502.161 228.314 508.542 256.647 511.285 258.584C511.734 258.9 512.558 258.999 513.078 259.097C511.079 259.27 508.727 259.595 506.767 259.139C489.572 193.256 471.964 127.481 453.945 61.8185C451.983 54.6807 445.004 24.5171 442.615 20.8425C443.199 19.9167 443.955 19.8153 444.965 19.4644Z"/><path fill="#110205" d="M547.898 167.23C549.534 167.209 550.822 167.259 552.176 168.271L551.882 168.733L550.293 168.856C548.347 168.995 546.642 169.187 544.781 168.44L544.616 167.998C545.662 167.317 546.678 167.323 547.898 167.23Z"/><path fill="#8C5532" d="M357.955 21.0969C377.417 20.8796 396.881 20.889 416.342 21.1253C421.39 21.147 439.363 21.8927 442.615 20.8425C445.004 24.5171 451.983 54.6807 453.945 61.8185C471.964 127.481 489.572 193.256 506.767 259.139C501.37 258.549 495.416 258.928 489.967 258.946L459.963 259.038L364.44 259.053C362.632 258.846 360.767 258.924 359.193 257.947C358.486 257.033 358.347 256.305 358.302 255.177C357.683 239.71 358.053 224.031 358.032 208.545C357.801 183.751 357.709 158.957 357.756 134.163L357.491 61.2384C357.506 47.8723 357.274 34.447 357.955 21.0969Z"/><path fill="#5A220F" d="M419.551 116.955C420.141 117.171 420.603 117.476 421.112 117.839C423.16 119.303 425.202 121.121 425.627 123.697C424.299 123.518 423.121 122.812 422.097 121.969C420.449 120.612 419.804 119.017 419.551 116.955Z"/><path fill="#8C5532" d="M260.01 24.1478C260.273 23.4805 260.293 22.6373 260.389 21.9234C261.194 21.1294 261.423 21.2231 262.485 21.0578C263.182 20.9493 263.5 20.8999 264.184 21.1129C272.461 21.5117 280.885 21.1982 289.176 21.201C302.796 21.2554 316.415 21.2293 330.034 21.1226C337.835 21.2587 345.613 21.0831 353.405 21.5564C352.395 27.3876 353.354 34.2144 353.442 40.1504C353.601 50.8514 353.522 61.565 353.53 72.2673L354.018 218.413L354.236 245.203C354.268 249.006 354.947 255.213 353.994 258.705L353.94 259.175C357.424 259.719 360.951 259.362 364.44 259.053L459.963 259.038L489.967 258.946C495.416 258.928 501.37 258.549 506.767 259.139C508.727 259.595 511.079 259.27 513.078 259.097C517.822 258.724 522.806 259.014 527.571 259.021L555.184 259.038C573.952 259.03 592.843 258.221 611.596 258.796C614.471 258.886 617.286 258.21 620.145 258.209C624.779 259.039 629.85 258.772 634.556 258.805C640.888 258.82 647.22 258.924 653.549 259.119C647.849 260.696 630.526 259.006 623.207 259.138C596.03 259.503 568.849 259.597 541.67 259.422C530.608 259.412 519.504 259.753 508.458 259.666C492.39 259.539 476.314 259.251 460.242 259.448C458.918 259.464 457.655 259.84 456.418 259.856C449.135 259.951 441.457 259.202 434.236 260.063C437.538 260.385 441.663 259.646 444.762 260.808L444.732 261.337C438.376 263.868 422.648 262.037 415.288 261.615L414.922 261.162L415.278 260.726C420.954 260.67 426.515 260.095 432.172 259.905C424.772 259.357 417 259.811 409.554 259.818C398.807 259.827 388.064 259.559 377.33 259.52C370.137 259.494 362.987 260.002 355.778 259.867C353.919 259.833 336.926 259.47 336.348 260.028L336.843 260.513L337.262 260.125C337.628 260.332 337.445 260.245 337.918 260.424L338.287 260.562L338.367 261.131C339.542 261.104 340.797 261.159 341.956 260.964C342.068 260.945 342.178 260.916 342.289 260.892L342.851 261.389L342.654 261.823C340.856 262.661 332.674 264.537 330.789 264.703C327.623 264.982 324.107 264.642 320.9 264.621C320.713 264.784 319.879 265.581 319.677 265.589C317.694 265.664 315.042 263.524 312.444 263.594C307.8 263.719 303.262 264.704 298.646 264.701C294.07 264.698 290.029 262.9 285.624 262.545C282.983 262.332 276.4 263.131 274.462 262.586C273.992 262.454 273.507 261.83 273.039 261.715C271.914 261.438 270.613 262.066 269.411 261.727C267.419 261.164 265.133 262.012 263.011 261.479L262.752 260.954L263.342 260.642C263.818 260.682 264.294 260.712 264.771 260.733C268.15 260.893 271.822 260.875 275.198 260.636C277.374 260.482 279.489 260.074 281.68 260.064C283.41 260.056 287.819 260.738 289.259 260.054C289.435 259.97 289.547 259.792 289.691 259.661C286.613 258.832 279.9 259.422 276.499 259.42L232.947 259.764C229.622 259.791 226.314 259.517 222.992 259.467C214.961 259.348 206.915 259.444 198.881 259.446C175.986 259.453 153.049 259.743 130.159 259.349C133.314 258.967 136.587 259.167 139.764 259.187C148.026 259.236 156.734 259.796 164.95 259.08L165.356 259.041C180.511 258.79 195.669 258.709 210.826 258.8C217.244 258.842 224.129 258.471 230.481 259.129C229.962 258.673 229.324 258.192 228.891 257.657C228.832 257.585 228.372 256.939 228.341 256.733C228.05 254.795 233.49 222.938 234.063 218.518L249.551 105.156L257.238 47.4034C258.243 39.6726 258.812 31.8453 260.01 24.1478Z"/><path fill="#310C0B" d="M260.01 24.1478C260.273 23.4805 260.293 22.6373 260.389 21.9234C261.194 21.1294 261.423 21.2231 262.485 21.0578C263.182 20.9493 263.5 20.8999 264.184 21.1129C264.033 26.8391 261.952 35.3266 261.018 41.3302C259.226 52.8519 257.819 64.4648 256.141 76.0119C249.731 121.102 243.78 166.256 238.29 211.467L233.988 243.397C233.436 247.321 232.59 251.22 232.129 255.153C231.994 256.299 231.897 257.589 232.253 258.695C238.336 258.828 244.724 259.283 250.777 258.782C261.656 259.532 272.843 259.04 283.755 259.054C307.138 259.082 330.561 258.815 353.94 259.175C357.424 259.719 360.951 259.362 364.44 259.053L459.963 259.038L489.967 258.946C495.416 258.928 501.37 258.549 506.767 259.139C508.727 259.595 511.079 259.27 513.078 259.097C517.822 258.724 522.806 259.014 527.571 259.021L555.184 259.038C573.952 259.03 592.843 258.221 611.596 258.796C614.471 258.886 617.286 258.21 620.145 258.209C624.779 259.039 629.85 258.772 634.556 258.805C640.888 258.82 647.22 258.924 653.549 259.119C647.849 260.696 630.526 259.006 623.207 259.138C596.03 259.503 568.849 259.597 541.67 259.422C530.608 259.412 519.504 259.753 508.458 259.666C492.39 259.539 476.314 259.251 460.242 259.448C458.918 259.464 457.655 259.84 456.418 259.856C449.135 259.951 441.457 259.202 434.236 260.063C437.538 260.385 441.663 259.646 444.762 260.808L444.732 261.337C438.376 263.868 422.648 262.037 415.288 261.615L414.922 261.162L415.278 260.726C420.954 260.67 426.515 260.095 432.172 259.905C424.772 259.357 417 259.811 409.554 259.818C398.807 259.827 388.064 259.559 377.33 259.52C370.137 259.494 362.987 260.002 355.778 259.867C353.919 259.833 336.926 259.47 336.348 260.028L336.843 260.513L337.262 260.125C337.628 260.332 337.445 260.245 337.918 260.424L338.287 260.562L338.367 261.131C339.542 261.104 340.797 261.159 341.956 260.964C342.068 260.945 342.178 260.916 342.289 260.892L342.851 261.389L342.654 261.823C340.856 262.661 332.674 264.537 330.789 264.703C327.623 264.982 324.107 264.642 320.9 264.621C320.713 264.784 319.879 265.581 319.677 265.589C317.694 265.664 315.042 263.524 312.444 263.594C307.8 263.719 303.262 264.704 298.646 264.701C294.07 264.698 290.029 262.9 285.624 262.545C282.983 262.332 276.4 263.131 274.462 262.586C273.992 262.454 273.507 261.83 273.039 261.715C271.914 261.438 270.613 262.066 269.411 261.727C267.419 261.164 265.133 262.012 263.011 261.479L262.752 260.954L263.342 260.642C263.818 260.682 264.294 260.712 264.771 260.733C268.15 260.893 271.822 260.875 275.198 260.636C277.374 260.482 279.489 260.074 281.68 260.064C283.41 260.056 287.819 260.738 289.259 260.054C289.435 259.97 289.547 259.792 289.691 259.661C286.613 258.832 279.9 259.422 276.499 259.42L232.947 259.764C229.622 259.791 226.314 259.517 222.992 259.467C214.961 259.348 206.915 259.444 198.881 259.446C175.986 259.453 153.049 259.743 130.159 259.349C133.314 258.967 136.587 259.167 139.764 259.187C148.026 259.236 156.734 259.796 164.95 259.08L165.356 259.041C180.511 258.79 195.669 258.709 210.826 258.8C217.244 258.842 224.129 258.471 230.481 259.129C229.962 258.673 229.324 258.192 228.891 257.657C228.832 257.585 228.372 256.939 228.341 256.733C228.05 254.795 233.49 222.938 234.063 218.518L249.551 105.156L257.238 47.4034C258.243 39.6726 258.812 31.8453 260.01 24.1478Z"/><path fill="#703719" d="M250.777 258.782C255.92 258.281 261.264 258.57 266.438 258.579L293.154 258.628C305.783 258.649 318.482 258.884 331.106 258.554C334.95 258.454 338.791 257.54 342.616 257.574C346.423 257.609 350.188 258.559 353.994 258.705L353.94 259.175C330.561 258.815 307.138 259.082 283.755 259.054C272.843 259.04 261.656 259.532 250.777 258.782Z"/><path fill="#310C0B" d="M319.895 106.331C320.672 106.462 320.718 106.465 321.263 107.029C321.406 108.164 321.054 108.924 320.372 109.798C319.113 111.413 318.178 112.115 316.152 112.413L314.806 111.663C314.311 110.828 314.303 110.79 314.413 109.826C315.716 107.927 317.855 107.201 319.895 106.331Z"/><path fill="#8C5532" d="M340.688 20.6646L418.436 20.3336C422.507 20.2804 426.603 20.1653 430.674 20.3128C434.602 20.4551 437.822 20.9109 441.781 20.2783C442.663 19.6208 442.628 19.2813 442.936 18.2531L443.11 18.301L443.342 19.3651L444.965 19.4644C443.955 19.8153 443.199 19.9167 442.615 20.8425C439.363 21.8927 421.39 21.147 416.342 21.1253C396.881 20.889 377.417 20.8796 357.955 21.0969C357.274 34.447 357.506 47.8723 357.491 61.2384L357.756 134.163C357.709 158.957 357.801 183.751 358.032 208.545C358.053 224.031 357.683 239.71 358.302 255.177C358.347 256.305 358.486 257.033 359.193 257.947C360.767 258.924 362.632 258.846 364.44 259.053C360.951 259.362 357.424 259.719 353.94 259.175L353.994 258.705C354.947 255.213 354.268 249.006 354.236 245.203L354.018 218.413L353.53 72.2673C353.522 61.565 353.601 50.8514 353.442 40.1504C353.354 34.2144 352.395 27.3876 353.405 21.5564C345.613 21.0831 337.835 21.2587 330.034 21.1226C316.415 21.2293 302.796 21.2554 289.176 21.201C280.885 21.1982 272.461 21.5117 264.184 21.1129C263.5 20.8999 263.182 20.9493 262.485 21.0578C261.423 21.2231 261.194 21.1294 260.389 21.9234C260.293 22.6373 260.273 23.4805 260.01 24.1478C259.919 23.1102 260.065 22.2076 259.369 21.4044C248.891 20.5038 237.428 21.1532 226.855 21.1457C211.309 21.1346 195.697 20.7137 180.16 21.2675C175.194 38.8635 169.284 56.191 164.029 73.7054C146.952 129.023 130.805 184.624 115.595 240.484C115.063 242.461 110.867 256.229 111.022 257.307L111.629 257.865L110.838 258.339L111.407 258.352C109.567 259.218 107.862 259.369 105.929 258.577C105.806 258.526 105.69 258.457 105.571 258.396C85.32 258.3 65.0343 258.809 44.7757 258.842C36.3797 258.855 25.6861 259.578 17.5466 258.328C18.7738 253.173 20.6604 248.122 22.3424 243.097C25.581 233.423 28.9845 223.788 31.9627 214.03L72.5448 82.7378C72.4428 82.2977 72.34 81.8803 72.3496 81.4247C72.433 77.4527 87.0598 31.9884 90.113 24.8373C90.7345 23.3816 91.3966 21.9575 92.5235 20.8221C97.8897 19.8675 103.644 20.4875 109.066 20.5087C119.054 20.5477 129.025 20.3425 139.023 20.4599C151.405 20.6053 163.8 19.8668 176.181 20.666C177.202 20.7319 177.918 20.8648 178.846 21.3238C179.487 21.6409 181.249 20.6693 182.074 20.486C185.074 19.8191 189.342 20.3356 192.459 20.3411L311.381 20.6879C316.585 20.6913 337.753 19.6015 340.688 20.6646Z"/><path fill="#4C1913" d="M340.688 20.6646L418.436 20.3336C422.507 20.2804 426.603 20.1653 430.674 20.3128C434.602 20.4551 437.822 20.9109 441.781 20.2783C442.663 19.6208 442.628 19.2813 442.936 18.2531L443.11 18.301L443.342 19.3651L444.965 19.4644C443.955 19.8153 443.199 19.9167 442.615 20.8425C439.363 21.8927 421.39 21.147 416.342 21.1253C396.881 20.889 377.417 20.8796 357.955 21.0969C357.274 34.447 357.506 47.8723 357.491 61.2384L357.756 134.163C357.709 158.957 357.801 183.751 358.032 208.545C358.053 224.031 357.683 239.71 358.302 255.177C358.347 256.305 358.486 257.033 359.193 257.947C360.767 258.924 362.632 258.846 364.44 259.053C360.951 259.362 357.424 259.719 353.94 259.175L353.994 258.705C354.947 255.213 354.268 249.006 354.236 245.203L354.018 218.413L353.53 72.2673C353.522 61.565 353.601 50.8514 353.442 40.1504C353.354 34.2144 352.395 27.3876 353.405 21.5564C345.613 21.0831 337.835 21.2587 330.034 21.1226C316.415 21.2293 302.796 21.2554 289.176 21.201C280.885 21.1982 272.461 21.5117 264.184 21.1129C263.5 20.8999 263.182 20.9493 262.485 21.0578C261.423 21.2231 261.194 21.1294 260.389 21.9234C260.293 22.6373 260.273 23.4805 260.01 24.1478C259.919 23.1102 260.065 22.2076 259.369 21.4044C248.891 20.5038 237.428 21.1532 226.855 21.1457C211.309 21.1346 195.697 20.7137 180.16 21.2675C175.194 38.8635 169.284 56.191 164.029 73.7054C146.952 129.023 130.805 184.624 115.595 240.484C115.063 242.461 110.867 256.229 111.022 257.307L111.629 257.865L110.838 258.339L111.407 258.352C109.567 259.218 107.862 259.369 105.929 258.577C105.806 258.526 105.69 258.457 105.571 258.396C107.538 255.614 113.573 231.13 115.096 225.601C128.823 176.167 143.025 126.865 157.7 77.7037C160.36 68.7433 163.118 59.8122 165.973 50.9122C169.176 41.1223 172.64 31.3787 175.52 21.4895C170.047 20.9651 164.465 21.1368 158.972 21.1601L136.551 21.208L109.984 21.1879C104.168 21.1841 98.2887 20.9942 92.4898 21.4692C89.3049 26.6743 87.3133 34.4056 85.4159 40.2859C80.9868 54.3941 76.6963 68.5454 72.5448 82.7378C72.4428 82.2977 72.34 81.8803 72.3496 81.4247C72.433 77.4527 87.0598 31.9884 90.113 24.8373C90.7345 23.3816 91.3966 21.9575 92.5235 20.8221C97.8897 19.8675 103.644 20.4875 109.066 20.5087C119.054 20.5477 129.025 20.3425 139.023 20.4599C151.405 20.6053 163.8 19.8668 176.181 20.666C177.202 20.7319 177.918 20.8648 178.846 21.3238C179.487 21.6409 181.249 20.6693 182.074 20.486C185.074 19.8191 189.342 20.3356 192.459 20.3411L311.381 20.6879C316.585 20.6913 337.753 19.6015 340.688 20.6646Z"/><path fill="#703719" d="M16.1298 267.778C39.7106 268.952 63.5193 268.659 87.1338 268.846C128.993 269.31 170.855 269.337 212.715 268.927L403.101 268.691L577.034 269.315C611.015 269.693 645 269.583 678.978 268.985C692.715 268.77 706.622 269.021 720.334 268.307C721.475 277.681 722.395 286.307 722.38 295.785C717.24 295.669 707.032 294.66 702.367 295.426C697.335 296.511 690.443 295.838 685.157 295.83L657.467 295.874C643.464 295.826 629.438 296.04 615.441 295.905C609.8 295.85 604.174 295.471 598.537 295.393C577.306 295.18 556.073 295.319 534.846 295.811C533.295 295.857 532.322 297.319 530.754 297.364C527.782 297.448 524.843 296.732 521.879 296.772C515.546 296.858 509.205 297.837 502.885 298.047C497.538 298.224 492.157 297.388 486.807 297.387C482.517 297.386 478.211 298.467 473.92 298.723C469.544 298.984 465.138 298.556 460.81 298.767C459.016 298.854 457.074 299.599 455.246 299.832C447.227 300.856 439.296 302.245 431.234 302.897C427.855 303.17 422.277 301.326 419.379 302.659L419.025 303.759C418.007 303.716 415.855 302.587 415.099 303.029C414.214 303.545 413.474 304.104 412.411 303.882C410.98 303.583 409.499 302.682 408.049 302.662C407.37 303.655 407.435 303.681 406.271 303.941C405.167 303.513 403.63 302.751 402.459 302.684C397.812 302.419 393.296 305.415 388.57 304.519C387.504 304.317 385.759 304.333 384.707 304.517L384.646 304.844C385.869 305.474 387.058 304.882 388.01 305.606L387.57 306.234L387.06 306.188L387.021 305.88L386.257 306.184L386.586 306.131L386.405 306.36C390.195 306.979 394.337 306.573 398.173 306.533C404.648 306.465 411.124 306.467 417.6 306.54C451.559 307.078 485.524 307.158 519.485 306.778C527.036 306.756 544.764 305.305 551.134 306.884C525.546 307.804 499.772 307.297 474.163 307.288C425.758 307.376 377.353 307.058 328.953 306.335C301.009 306.125 273.064 306.069 245.119 306.164C233.684 306.168 222.167 306.55 210.741 306.212C204.637 305.332 197.286 306.006 191.005 306.014L149.073 305.93C154.52 305.431 160.237 305.611 165.708 305.643C173.634 305.721 181.56 305.747 189.487 305.723L239.891 305.432C255.137 305.43 270.438 305.704 285.677 305.353L285.816 304.822C283.277 304.668 278.389 305.058 276.154 303.976C272.537 302.224 268.599 302.122 264.675 301.587C259.332 300.859 253.952 300.045 248.574 299.635C243.842 299.275 239.065 299.357 234.322 299.216L208.336 298.375C203.134 298.218 197.969 297.837 192.777 297.595C188.569 297.398 184.388 297.014 180.187 296.746C178.496 296.639 176.738 296.912 175.093 296.495L174.946 296.024C175.295 295.984 175.646 295.958 175.991 295.896C178.615 295.418 182.816 296.804 185.014 295.495C176.836 294.691 167.992 295.439 159.767 295.541L119.877 295.805C107.855 295.94 95.8087 295.789 83.7846 295.81C78.6595 295.819 73.5276 296.093 68.4057 296.049C59.904 295.975 51.3148 295.437 42.8185 295.621C40.8148 295.664 38.9143 297.078 36.9623 297.498C35.6486 297.78 34.0972 297.407 32.857 297.845C29.6869 298.962 28.3656 296.288 25.7203 295.515C23.3647 294.826 18.5754 295.686 15.6921 295.26C16.8504 294.459 35.215 295.126 38.15 294.967C29.4166 294.021 20.502 295.001 11.736 294.457C11.9927 285.598 14.2695 276.418 16.1298 267.778Z"/><path fill="#310C0B" d="M38.15 294.967C103.051 295.261 167.952 295.11 232.851 294.514L702.367 295.426C697.335 296.511 690.443 295.838 685.157 295.83L657.467 295.874C643.464 295.826 629.438 296.04 615.441 295.905C609.8 295.85 604.174 295.471 598.537 295.393C577.306 295.18 556.073 295.319 534.846 295.811C533.295 295.857 532.322 297.319 530.754 297.364C527.782 297.448 524.843 296.732 521.879 296.772C515.546 296.858 509.205 297.837 502.885 298.047C497.538 298.224 492.157 297.388 486.807 297.387C482.517 297.386 478.211 298.467 473.92 298.723C469.544 298.984 465.138 298.556 460.81 298.767C459.016 298.854 457.074 299.599 455.246 299.832C447.227 300.856 439.296 302.245 431.234 302.897C427.855 303.17 422.277 301.326 419.379 302.659L419.025 303.759C418.007 303.716 415.855 302.587 415.099 303.029C414.214 303.545 413.474 304.104 412.411 303.882C410.98 303.583 409.499 302.682 408.049 302.662C407.37 303.655 407.435 303.681 406.271 303.941C405.167 303.513 403.63 302.751 402.459 302.684C397.812 302.419 393.296 305.415 388.57 304.519C387.504 304.317 385.759 304.333 384.707 304.517L384.646 304.844C385.869 305.474 387.058 304.882 388.01 305.606L387.57 306.234L387.06 306.188L387.021 305.88L386.257 306.184L386.586 306.131L386.405 306.36C390.195 306.979 394.337 306.573 398.173 306.533C404.648 306.465 411.124 306.467 417.6 306.54C451.559 307.078 485.524 307.158 519.485 306.778C527.036 306.756 544.764 305.305 551.134 306.884C525.546 307.804 499.772 307.297 474.163 307.288C425.758 307.376 377.353 307.058 328.953 306.335C301.009 306.125 273.064 306.069 245.119 306.164C233.684 306.168 222.167 306.55 210.741 306.212C204.637 305.332 197.286 306.006 191.005 306.014L149.073 305.93C154.52 305.431 160.237 305.611 165.708 305.643C173.634 305.721 181.56 305.747 189.487 305.723L239.891 305.432C255.137 305.43 270.438 305.704 285.677 305.353L285.816 304.822C283.277 304.668 278.389 305.058 276.154 303.976C272.537 302.224 268.599 302.122 264.675 301.587C259.332 300.859 253.952 300.045 248.574 299.635C243.842 299.275 239.065 299.357 234.322 299.216L208.336 298.375C203.134 298.218 197.969 297.837 192.777 297.595C188.569 297.398 184.388 297.014 180.187 296.746C178.496 296.639 176.738 296.912 175.093 296.495L174.946 296.024C175.295 295.984 175.646 295.958 175.991 295.896C178.615 295.418 182.816 296.804 185.014 295.495C176.836 294.691 167.992 295.439 159.767 295.541L119.877 295.805C107.855 295.94 95.8087 295.789 83.7846 295.81C78.6595 295.819 73.5276 296.093 68.4057 296.049C59.904 295.975 51.3148 295.437 42.8185 295.621C40.8148 295.664 38.9143 297.078 36.9623 297.498C35.6486 297.78 34.0972 297.407 32.857 297.845C29.6869 298.962 28.3656 296.288 25.7203 295.515C23.3647 294.826 18.5754 295.686 15.6921 295.26C16.8504 294.459 35.215 295.126 38.15 294.967Z"/><path fill="#310C0B" d="M391.994 260.704C392.948 260.489 394.538 260.543 395.53 260.64C396.387 260.724 397.189 260.778 397.771 261.427C396.635 261.955 395.286 261.796 394.055 261.778C392.351 261.826 389.311 262.196 387.937 261.074C389.231 260.544 390.618 260.69 391.994 260.704Z"/><path fill="#310C0B" d="M403.944 260.263C405.296 260.541 407.174 260.555 408.314 261.27C407.768 261.607 407.401 261.703 406.776 261.747C405.839 261.812 404.926 261.937 403.997 262.073C403.886 262.082 403.775 262.108 403.663 262.101C402.961 262.055 402.38 261.929 401.663 261.985L400.972 262.044L400.765 261.159L400.213 261.321C401.286 260.637 402.265 260.864 403.407 260.46C403.587 260.397 403.765 260.329 403.944 260.263Z"/><path fill="#310C0B" d="M379.762 261.053C380.192 260.874 380.646 260.757 381.109 260.704C383.136 260.493 384.954 260.424 386.548 261.778C384.472 261.796 381.554 262.259 379.762 261.053Z"/><path fill="#703719" fill-opacity="0.98039216" d="M393.974 690.513C394.782 689.959 395.607 690.089 396.547 690.076C404.067 689.972 411.638 690.331 419.172 690.33C429.758 690.328 440.324 689.988 450.898 689.926C455.829 689.897 464.011 690.776 468.338 689.616C469.337 689.349 470.423 689.005 471.463 689.006C474.205 689.008 477.011 689.44 479.769 689.52C484.293 689.653 488.823 689.454 493.332 689.922L489.115 690.134C502.686 690.794 516.323 689.763 529.888 689.899L642.162 690.661L677.463 690.647C680.653 690.629 684.409 689.833 687.504 690.458L687.616 690.831L687.248 691.052C665.218 691.97 471.503 689.484 469.263 691.414C469.829 692.15 470.478 692.65 470.48 693.597C469.73 693.83 469.547 693.798 468.802 693.671C468.657 692.986 468.585 692.349 468.511 691.653C467.78 690.998 467.374 690.752 466.373 690.683C459.189 690.188 451.558 690.678 444.327 690.647L393.974 690.513Z"/><path fill="#66952A" fill-opacity="0.98823529" d="M704.723 540.202C705.643 542.775 705.506 551.684 706.309 552.836L706.303 552.478C706.293 551.034 705.997 548.84 707.066 547.747C707.148 547.663 707.241 547.592 707.328 547.515C707.178 553.987 707.264 560.744 706.614 567.185C706.401 569.295 705.085 571.021 705.033 573.189C704.782 583.619 706.994 598.104 704.323 607.851C703.421 606.793 703.512 605.713 703.493 604.404C703.347 594.24 704.381 584.075 704.626 573.918C704.898 562.669 704.431 551.446 704.723 540.202Z"/><path fill="#66952A" fill-opacity="0.98039216" d="M704.723 540.202C704.369 538.092 704.556 535.595 704.529 533.439C704.45 527.022 704.692 520.619 704.66 514.207L705.06 514.133C705.007 515.056 704.84 515.384 705.34 516.196C706.392 517.904 706.824 520.157 706.767 522.127C706.737 523.166 706.557 523.693 707.197 524.52C707.426 530.491 708.372 542.022 707.328 547.515C707.241 547.592 707.148 547.663 707.066 547.747C705.997 548.84 706.293 551.034 706.303 552.478L706.309 552.836C705.506 551.684 705.643 542.775 704.723 540.202Z"/><path fill="#579835" fill-opacity="0.97647059" d="M705.06 514.133C706.275 511.683 704.841 509.302 705.531 506.751C707.377 512.479 707.713 518.531 707.197 524.52C706.557 523.693 706.737 523.166 706.767 522.127C706.824 520.157 706.392 517.904 705.34 516.196C704.84 515.384 705.007 515.056 705.06 514.133Z"/><path fill="#BCDC9F" fill-opacity="0.011764706" d="M705.66 326.547C705.708 326.671 705.765 326.792 705.803 326.92C706.052 327.764 706.011 328.649 706.021 329.521C706.05 329.425 706.077 329.327 706.109 329.231C706.236 328.846 706.402 328.514 706.589 328.156C707.835 328.117 709.577 328.745 710.528 329.555C710.829 329.811 711.043 330.089 711.304 330.39L710.691 330.637C710.175 330.841 709.72 330.945 709.186 331.069C708.437 331.244 708.187 331.435 707.636 331.943C707.294 332.877 706.977 333.743 706.835 334.735L706.015 334.506L705.676 333.85C705.848 332.864 705.952 332.051 705.84 331.042L705.261 330.71C705.313 329.294 705.42 327.943 705.66 326.547Z"/><path fill="#BCDC9F" fill-opacity="0.17647059" d="M711.304 330.39C711.842 331.221 712.013 331.654 712.059 332.645C711.571 333.615 711.105 334.103 710.057 334.471C709.015 334.837 707.921 334.773 706.835 334.735C706.977 333.743 707.294 332.877 707.636 331.943C708.187 331.435 708.437 331.244 709.186 331.069C709.72 330.945 710.175 330.841 710.691 330.637L711.304 330.39Z"/></svg>