<?xml version="1.0" encoding="utf-8" ?><svg xmlns="http://www.w3.org/2000/svg" xmlns:xlink="http://www.w3.org/1999/xlink" width="1054" height="1241" viewBox="0 0 1054 1241"><path fill="#79411B" transform="scale(1.55067 1.55067)" d="M76.6453 0L84.4428 0C82.6884 0.846062 80.8857 0.862531 79.0451 1.36011C85.182 1.73155 91.2889 2.87244 97.4034 3.10178C114.841 3.59604 132.287 3.73533 149.73 3.51958C160.612 3.37777 171.422 2.97909 182.315 3.18285C211.146 3.72215 239.943 5.66854 268.753 6.80359C292.573 7.74201 316.43 7.80767 340.239 9.00279C432.654 9.61302 525.072 9.32436 617.481 8.13685C621.251 7.81033 625.084 7.42582 628.868 7.44529C636.13 25.9086 642.577 44.7945 649.184 63.5042C657.999 88.8999 667.081 114.202 676.428 139.406C675.343 146.136 670.648 159.05 665.083 163.003C659.159 167.212 649.193 169.405 642.382 172.273C642.388 226.117 642.092 279.96 641.493 333.801L640.256 582.612L639.734 716.558L639.604 758.508C639.571 765.807 639.987 773.431 639.262 780.677C638.782 785.461 635.516 789.58 632.234 792.897C630.826 794.32 629.12 795.616 627.308 796.479C626.866 797.671 626.536 798.741 626.349 800L623.265 800L620.993 800L33.1629 800L32.456 332.458L32.3243 211.789L32.3467 181.644C32.3628 176.004 32.9774 169.599 31.8655 164.072C21.565 160.809 10.7143 158.03 5.30426 147.659C-0.37623 136.77 6.66159 107.82 10.2745 96.2097C12.3662 89.4882 14.9144 82.8615 17.2226 76.2057C25.3355 52.8112 31.4837 36.4331 44.4938 14.9095C46.3514 11.8363 48.9871 6.44164 52.0402 4.53231C58.8544 0.271011 69.0951 4.81019 76.3878 0.968669L76.6453 0Z"/><path fill="#AF8353" transform="scale(1.55067 1.55067)" d="M340.239 9.00279C432.654 9.61302 525.072 9.32436 617.481 8.13685C618.655 8.19672 620.642 8.02508 621.56 8.78566C621.706 9.74192 621.758 10.3472 622.583 10.9609C623.025 11.29 623.599 11.5227 624.099 11.7541C627.195 16.6717 630.457 30.4324 632.419 36.6416C635.612 46.4555 638.899 56.2386 642.28 65.9894C646.778 78.9939 651.379 91.9626 656.082 104.894C658.652 111.93 661.597 118.957 663.845 126.095C663.82 126.197 663.792 126.299 663.768 126.401C663.084 129.348 664.834 133.306 662.852 135.616L661.245 136.09C651.307 134.385 636.185 132.876 629.833 123.937C626.595 119.379 625.155 112.736 623.548 107.421L614.645 77.7554C609.473 60.5212 605.513 41.6676 584.906 37.751C579.01 36.6306 572.61 36.7714 566.621 36.5562C555.189 36.1091 543.751 35.8304 532.31 35.7203L435.692 34.3583C349.237 32.0071 262.755 30.8132 176.268 30.777L114.285 30.7779C103.274 30.7987 91.7746 30.1929 80.8263 31.356C67.0648 39.9041 53.7884 77.8391 47.9954 93.4313C44.4947 102.854 40.6958 112.332 38.2459 122.092C39.6367 124.039 40.2598 125.723 40.8499 128.044C48.8354 130.007 73.5473 128.921 83.1385 128.891C106.048 128.884 128.958 128.709 151.865 128.367L211.815 126.921C233.376 126.382 254.951 126.765 276.48 128.069C299.31 129.662 322.051 132.672 344.956 133.166C371.546 133.51 398.14 133.599 424.732 133.435C468.739 132.743 512.754 132.728 556.762 133.389C580.509 133.827 604.02 134.274 627.708 136.224C637.042 136.993 654.165 138.2 662.429 141.532C664.621 144.975 667.455 147.988 666.407 152.457C665.498 156.331 661.984 159.229 658.673 161.132C657.173 161.994 655.573 162.698 653.997 163.41C651.913 163.663 650.009 164.898 647.833 164.992C643.079 165.197 637.783 163.948 633.084 163.237C620.351 161.311 606.539 158.425 593.881 157.221C570.976 155.042 547.597 154.823 524.598 154.731C494.789 154.595 464.979 154.729 435.173 155.132C409.868 155.515 384.593 156.306 359.281 156.302C343.019 156.415 326.757 156.296 310.499 155.946C298.936 155.636 287.392 154.826 275.826 154.644C246.389 154.182 216.895 154.508 187.452 154.535L51.0287 154.53C40.5212 154.448 30.0043 154.802 19.5018 154.57C19.082 154.298 18.6748 154.032 18.2858 153.717C14.4655 150.621 12.8474 145.326 12.3255 140.621C9.89907 118.744 24.7732 74.1055 33.544 53.7224C38.7659 41.5869 44.8955 28.8663 53.2271 18.525C55.147 16.1419 57.5938 13.3883 60.6595 12.5852C66.2907 11.11 73.7088 11.9924 79.5533 12.0054L108.585 12.0381C159.882 11.6614 211.181 11.545 262.48 11.6889L315.205 12.4129C320.33 12.4681 331.126 13.2612 335.837 12.2912C337.131 12.0249 337.997 11.0217 338.601 9.91489C338.869 9.42445 338.631 9.63591 339.159 9.37799L338.494 9.81738L338.413 9.47415L340.239 9.00279Z"/><path fill="#79411B" transform="scale(1.55067 1.55067)" d="M30.2615 123.061C30.6513 123.159 31.0826 123.247 31.4528 123.413C32.348 123.816 32.6139 124.083 32.9553 124.985C32.5507 126.297 31.6395 126.834 30.5819 127.641C29.7199 127.365 28.4473 127.079 27.7572 126.51C27.1685 126.024 27.2087 125.678 27.1266 124.979C27.8728 123.782 28.9978 123.526 30.2615 123.061Z"/><path fill="#8D592D" transform="scale(1.55067 1.55067)" d="M662.429 141.532C664.299 141.249 668.969 141.104 670.615 142.065C670.724 142.129 670.815 142.22 670.915 142.297C670.842 143.728 670.304 144.772 669.408 145.887C667.205 148.626 668.305 152.736 666.067 155.511C663.033 159.271 659.731 161.576 655.34 163.528L653.997 163.41C655.573 162.698 657.173 161.994 658.673 161.132C661.984 159.229 665.498 156.331 666.407 152.457C667.455 147.988 664.621 144.975 662.429 141.532Z"/><path fill="#9D7246" transform="scale(1.55067 1.55067)" d="M663.845 126.095C664.756 128.265 667.428 133.134 666.612 135.281C666.287 136.135 666.022 136.203 665.264 136.621C663.856 136.631 662.613 136.384 661.245 136.09L662.852 135.616C664.834 133.306 663.084 129.348 663.768 126.401C663.792 126.299 663.82 126.197 663.845 126.095Z"/><path fill="#8D592D" transform="scale(1.55067 1.55067)" d="M624.044 795.531L627.308 796.479C626.866 797.671 626.536 798.741 626.349 800L623.265 800C623.516 798.509 623.775 797.019 624.044 795.531Z"/><path fill="#8D592D" transform="scale(1.55067 1.55067)" d="M620.993 800C621.008 798.898 621.077 797.918 621.304 796.839C622.268 795.874 622.749 795.86 624.044 795.531C623.775 797.019 623.516 798.509 623.265 800L620.993 800Z"/><path fill="#AF8353" transform="scale(1.55067 1.55067)" d="M39.8635 163.339C67.9116 162.886 96.0455 163.907 124.1 163.998C172.23 163.796 220.361 163.996 268.488 164.596C298.077 165.091 327.622 166.36 357.22 166.362C405.035 166.365 452.785 164.593 500.586 163.96C521.904 163.678 543.264 163.149 564.576 163.967C577.733 164.472 590.853 165.765 603.971 166.869C606.029 166.712 609.174 168.321 611.379 168.726C619.652 170.245 628.293 170.929 636.431 173.051C636.073 199.463 636.61 225.891 636.199 252.305L635.725 294.526C635.594 303.171 635.022 312.057 635.448 320.677C636.165 328.695 635.612 337.082 635.723 345.151L635.818 366.718C635.927 374.694 636.253 382.684 635.537 390.641L635.432 388.463C635.157 392.852 634.89 418.932 634.362 419.836L631.943 653.203L631.562 734.3C631.518 749.619 632.208 765.36 631.034 780.632C630.836 783.209 630.276 784.841 628.402 786.726C627.145 787.989 625.762 789.044 624.293 790.046C604.564 791.094 584.23 790.639 564.438 790.825L418.462 791.441C418.42 779.099 418.51 766.757 418.73 754.417C418.795 747.517 418.376 740.244 419.017 733.406C418.718 727.061 418.982 720.561 418.976 714.205L418.965 675.852C418.963 668.424 419.252 660.91 418.598 653.508C417.076 652.382 415.005 650.529 413.176 650.061C407.408 648.586 385.023 649.765 377.479 649.865C370.808 649.953 364.454 648.944 359.387 654.147C359.159 658.037 358.838 661.943 358.915 665.841C359.433 671.258 358.837 676.889 358.789 682.332L358.424 717.183L357.606 770.787C357.457 777.661 357.542 784.515 357.108 791.384C340.299 791.614 323.49 791.709 306.68 791.668C306.216 770.027 307.08 748.36 307.178 726.719L307.247 684.129C307.262 679.421 306.515 668.071 307.783 664.212L307.73 651.113C293.741 650.823 279.749 650.788 265.759 651.008C259.118 651.072 251.991 650.586 245.455 651.635C244.52 667.319 244.778 683.226 244.571 698.941C244.358 715.171 243.705 731.407 243.634 747.635C243.639 762.227 242.726 776.846 242.481 791.441C174.69 791.887 106.897 791.949 39.1048 791.626C39.2942 776.338 38.0638 760.805 38.9222 745.559C38.759 707.466 38.9133 669.372 39.3852 631.281L39.7862 522.18L39.8635 163.339Z"/><path fill="#9D7246" transform="scale(1.55067 1.55067)" d="M603.971 166.869C606.029 166.712 609.174 168.321 611.379 168.726C619.652 170.245 628.293 170.929 636.431 173.051C636.073 199.463 636.61 225.891 636.199 252.305L635.725 294.526C635.594 303.171 635.022 312.057 635.448 320.677C636.165 328.695 635.612 337.082 635.723 345.151L635.818 366.718C635.927 374.694 636.253 382.684 635.537 390.641L635.432 388.463C635.157 392.852 634.89 418.932 634.362 419.836L631.943 653.203L631.562 734.3C631.518 749.619 632.208 765.36 631.034 780.632C630.836 783.209 630.276 784.841 628.402 786.726C627.145 787.989 625.762 789.044 624.293 790.046C604.564 791.094 584.23 790.639 564.438 790.825L418.462 791.441C418.42 779.099 418.51 766.757 418.73 754.417C418.795 747.517 418.376 740.244 419.017 733.406C419.454 739.275 419.18 745.301 419.173 751.189C423.056 750.752 426.983 750.712 430.876 750.356C437.38 749.763 443.805 748.794 450.331 748.349C467.586 747.173 484.882 746.954 502.151 746.157L603.207 741.18C605.396 724.602 604.653 707.118 604.662 690.413L604.754 616.067L604.611 333.842L604.899 223.438L605.334 187.318C605.391 184.181 606.262 170.146 605.565 167.994C605.373 167.401 604.504 167.149 603.971 166.869Z"/><path fill="#8D592D" transform="scale(1.55067 1.55067)" d="M635.448 320.677C636.165 328.695 635.612 337.082 635.723 345.151L635.818 366.718C635.927 374.694 636.253 382.684 635.537 390.641L635.432 388.463C635.157 392.852 634.89 418.932 634.362 419.836C633.825 414.71 634.316 408.975 634.299 403.799C634.225 390.669 634.298 377.538 634.519 364.41L634.961 336.485C635.048 331.29 634.819 325.827 635.448 320.677Z"/><path fill="#9D7246" transform="scale(1.55067 1.55067)" d="M38.9222 745.559C58.9477 745.625 78.9406 746.993 98.9575 747.385C127.558 747.945 156.087 747.724 184.684 747.697C204.306 747.679 224.023 748.034 243.634 747.635C243.639 762.227 242.726 776.846 242.481 791.441C174.69 791.887 106.897 791.949 39.1048 791.626C39.2942 776.338 38.0638 760.805 38.9222 745.559Z"/><path fill="#8D592D" transform="scale(1.55067 1.55067)" d="M306.68 791.668C306.216 770.027 307.08 748.36 307.178 726.719L307.247 684.129C307.262 679.421 306.515 668.071 307.783 664.212C308.622 678.33 307.976 692.266 307.94 706.372L307.578 790.824C311.056 790.846 316.307 791.486 319.563 790.532C320.082 790.38 320.54 790.553 321.05 790.668C322.154 784.539 321.044 744.354 322.037 743.41C322.787 745.187 321.26 749.243 322.78 750.467C323.58 749.796 323.723 749.493 323.795 748.438C323.912 746.718 323.65 745.676 324.185 743.983C324.29 743.651 324.245 743.027 324.249 742.697L324.664 742.826C325.645 752.478 323.887 784.213 327.392 790.644C333.305 791.846 349.649 790.894 356.564 790.822C356.357 786.971 356.709 783.223 356.759 779.384L357.178 750.334L357.954 696.482C358.057 688.421 357.847 680.348 358.145 672.291C358.221 670.242 358.156 667.765 358.915 665.841C359.433 671.258 358.837 676.889 358.789 682.332L358.424 717.183L357.606 770.787C357.457 777.661 357.542 784.515 357.108 791.384C340.299 791.614 323.49 791.709 306.68 791.668Z"/><path fill="#79411B" transform="scale(1.55067 1.55067)" d="M302.298 483.187C302.7 482.26 302.889 481.784 303.865 481.379C305.159 480.843 307.595 480.83 308.845 481.498C309.5 481.848 309.824 482.29 310.27 482.864C325.078 482.81 339.875 483.088 354.681 483.154C365.396 483.202 376.368 482.809 387.042 483.67C393.613 483.665 401.623 481.841 407.987 483.482L445.831 483.928C452.053 483.97 463.998 483.115 469.696 484.585C471.931 485.162 473.644 486.893 475.324 488.395C475.634 502.449 475.41 516.538 475.509 530.598C475.585 541.532 476.117 552.686 475.572 563.604C475.502 565.007 475.374 568.742 474.427 569.825C473.195 571.235 468.911 571.798 467.071 571.993C457.986 572.952 448.186 572.582 439.029 572.631L396.394 573.045L391.042 573.069L389.624 573.106C370.298 573.427 350.969 573.567 331.64 573.527C326.356 573.539 313.502 574.198 308.978 573.431C308.23 573.304 307.789 572.85 307.263 572.342C306.455 571.561 305.921 571.127 304.741 571.189C302.439 571.309 300.311 572.859 297.983 573.042C285.039 574.061 270.383 573.253 257.313 573.198C245.297 573.147 232.973 573.831 221.001 572.945C218.186 572.736 215.275 572.301 212.623 571.294C210.883 570.633 209.998 569.711 209.258 568.014C207.705 564.455 208.204 496.482 208.682 489.122C208.799 487.314 209.361 485.762 210.013 484.094C214.499 483.335 219.245 483.569 223.78 483.547L240.282 483.374C260.953 483.093 281.626 483.03 302.298 483.187Z"/><path fill="#8D592D" transform="scale(1.55067 1.55067)" d="M302.298 483.187C302.7 482.26 302.889 481.784 303.865 481.379C305.159 480.843 307.595 480.83 308.845 481.498C309.5 481.848 309.824 482.29 310.27 482.864C310.134 484.349 310.122 485.937 309.556 487.328C309.365 489.981 309.708 492.525 309.744 495.17C309.796 499.025 309.689 502.893 309.654 506.749C309.485 525.829 309.624 544.905 308.974 563.979C307.103 564.003 305.231 564.014 303.359 564.013C303.429 562.569 303.677 560.91 303.435 559.488C304.111 539.187 303.979 518.746 303.653 498.44C303.617 496.206 304.887 488.967 304.316 487.602C303.953 486.735 304.04 486.15 304.164 485.231C304.03 484.553 303.81 484.22 303.455 483.638L302.298 483.187Z"/><path fill="#AA9275" transform="scale(1.55067 1.55067)" d="M302.298 483.187C302.7 482.26 302.889 481.784 303.865 481.379C305.159 480.843 307.595 480.83 308.845 481.498C309.5 481.848 309.824 482.29 310.27 482.864C310.134 484.349 310.122 485.937 309.556 487.328C309.103 487.622 308.632 487.84 308.146 488.076C306.554 487.761 305.287 486.332 304.164 485.231C304.03 484.553 303.81 484.22 303.455 483.638L302.298 483.187Z"/><path fill="#703B1A" transform="scale(1.55067 1.55067)" d="M303.455 483.638C303.81 484.22 304.03 484.553 304.164 485.231C304.04 486.15 303.953 486.735 304.316 487.602C304.887 488.967 303.617 496.206 303.653 498.44C303.979 518.746 304.111 539.187 303.435 559.488C302.96 560.039 303.048 560.806 302.991 561.526C302.92 562.426 302.9 563.152 302.469 563.971C302.079 564.714 302.053 564.563 301.325 564.808L300.31 564.104C298.953 558.598 299.631 535.072 299.643 527.961L299.846 500.178C299.864 497.791 299.52 495.383 299.598 493.007C299.625 492.192 299.756 491.772 300.174 491.074C300.459 490.6 300.77 490.215 300.911 489.669C301.366 487.913 301.688 485.916 300.712 484.35C300 484.076 299.358 483.882 298.606 483.75L298.607 483.754C300.223 483.765 301.839 483.692 303.455 483.638Z"/><path fill="#8D592D" transform="scale(1.55067 1.55067)" d="M391.057 570.752C390.702 569.396 390.225 567.802 391.026 566.514C391.371 565.958 392.248 565.536 392.896 565.467C393.285 565.426 393.688 565.447 394.079 565.45L395.823 565.463C395.863 567.353 396.074 569.449 395.867 571.318L396.394 573.045L391.042 573.069L391.057 570.752Z"/><path fill="#8D592D" transform="scale(1.55067 1.55067)" d="M391.057 570.752C391.401 571.366 391.392 571.772 392.115 571.947C393.1 572.186 394.917 571.646 395.867 571.318L396.394 573.045L391.042 573.069L391.057 570.752Z"/><path fill="#9D7246" transform="scale(1.55067 1.55067)" d="M387.042 483.67C393.613 483.665 401.623 481.841 407.987 483.482C403.485 483.481 398.016 482.895 393.633 483.792C393.399 484.627 393.494 485.118 393.641 485.95C393.207 487.56 393.276 488.437 391.93 489.559C390.131 487.874 388.748 485.522 387.042 483.67Z"/><path fill="#9D7246" transform="scale(1.55067 1.55067)" d="M393.641 485.95C395.377 487.964 396.276 489.493 397.068 492.007C395.422 491.941 393.459 492.177 392.077 491.303C392.032 490.721 391.983 490.14 391.93 489.559C393.276 488.437 393.207 487.56 393.641 485.95Z"/><path fill="#AA9275" transform="scale(1.55067 1.55067)" d="M260.371 552.057C258.928 553.999 260.669 558.921 259.848 561.399L259.043 561.668L258.004 561.093C257.768 560.711 257.442 560.371 257.297 559.946C256.879 558.716 257.576 548.872 257.58 546.886L257.59 510.755C258.365 513.046 257.808 517.19 257.808 519.67L257.781 544.404C257.761 549.7 257.069 555.758 258.263 560.915L258.762 561.071C259.358 559.833 259.489 558.071 259.555 556.692C259.884 549.806 259.983 494.282 259.471 492.809C258.983 492.637 258.549 492.502 258.035 492.424C257.896 492.402 257.756 492.388 257.616 492.37C270.346 491.107 283.162 490.98 295.914 491.991L295.969 492.293C294.466 515.549 295.19 539.217 295.205 562.526L260.478 562.748C260.376 559.185 260.34 555.621 260.371 552.057Z"/><path fill="#703B1A" transform="scale(1.55067 1.55067)" d="M260.371 552.057C258.928 553.999 260.669 558.921 259.848 561.399L259.043 561.668L258.004 561.093C257.768 560.711 257.442 560.371 257.297 559.946C256.879 558.716 257.576 548.872 257.58 546.886L257.59 510.755C258.365 513.046 257.808 517.19 257.808 519.67L257.781 544.404C257.761 549.7 257.069 555.758 258.263 560.915L258.762 561.071C259.358 559.833 259.489 558.071 259.555 556.692C259.884 549.806 259.983 494.282 259.471 492.809C258.983 492.637 258.549 492.502 258.035 492.424C257.896 492.402 257.756 492.388 257.616 492.37C270.346 491.107 283.162 490.98 295.914 491.991L295.969 492.293C284.125 492.534 272.277 492.371 260.444 493.012C260.49 512.687 260.639 532.384 260.371 552.057Z"/><path fill="#AA9275" transform="scale(1.55067 1.55067)" d="M362.193 491.999C369.557 491.822 376.924 491.803 384.289 491.941C384.355 505.669 384.055 519.407 384 533.138C383.962 542.809 384.406 552.777 383.535 562.401C380.06 562.262 376.555 562.389 373.077 562.422C365.879 562.462 358.681 562.455 351.483 562.403C351.959 539.005 351.752 515.593 352.015 492.191L362.193 491.999Z"/><path fill="#AA9275" transform="scale(1.55067 1.55067)" d="M440.501 493.536L465.224 493.338C465.146 516.334 464.879 539.329 464.423 562.32L459.726 562.293C451.381 562.451 443.034 562.51 434.687 562.47C434.819 539.598 435.165 516.66 434.947 493.792L440.501 493.536Z"/><path fill="#878272" transform="scale(1.55067 1.55067)" d="M312.518 491.807C321.563 491.825 330.731 491.585 339.753 492.211L340.081 539.173C340.114 546.688 340.852 555.101 339.764 562.517C330.642 562.532 321.52 562.626 312.4 562.801C312.558 539.129 311.963 515.476 312.518 491.807Z"/><path fill="#988C78" transform="scale(1.55067 1.55067)" d="M221.298 493.386C230.309 493.089 239.567 493.033 248.572 493.345C249.275 501.965 248.783 510.993 248.805 519.649C248.842 534.1 249.09 548.58 248.851 563.027C239.759 562.817 230.593 563.171 221.488 563.133C221.591 539.884 221.527 516.634 221.298 493.386Z"/><path fill="#878272" transform="scale(1.55067 1.55067)" d="M398.447 493.786L425.28 493.695C425.412 509.51 425.383 525.327 425.194 541.141C425.091 548.245 425.347 555.46 424.826 562.543C415.933 562.557 407.029 562.795 398.135 562.907C397.895 556.199 398.218 549.435 398.246 542.721L398.447 493.786Z"/><path fill="#79411B" transform="scale(1.55067 1.55067)" d="M111.985 199.409C121.938 199.483 131.892 199.488 141.846 199.426C148.383 199.346 155.617 198.616 162.087 199.543C163.644 199.766 164.893 200.321 166.285 201.015C166.343 201.378 166.391 201.741 166.443 202.105C167.045 206.351 166.824 210.773 166.828 215.058L166.84 234.162C166.843 250.223 167.561 266.803 166.606 282.794C165.389 284.494 163.988 285.896 162.503 287.356C151.647 288.681 140.03 287.89 129.087 287.872C118.658 287.84 108.244 288.154 97.8175 288.286C90.6784 288.376 83.0986 288.977 76.0947 287.444C73.9689 278.17 74.554 268.104 74.2831 258.62C73.9433 246.724 73.3643 234.836 73.1051 222.936C72.9395 215.339 73.1622 207.707 72.8248 200.12C78.5784 199.325 84.4875 199.538 90.2834 199.53L111.985 199.409Z"/><path fill="#AA9275" transform="scale(1.55067 1.55067)" d="M132.354 209.164C139.897 208.944 147.444 208.92 154.988 209.092C155.365 232.019 154.819 255 154.696 277.932L148.128 277.969C140.178 278.069 132.228 278.023 124.281 277.832C124.08 255.039 124.53 232.237 124.207 209.444L132.354 209.164Z"/><path fill="#AA9275" transform="scale(1.55067 1.55067)" d="M85.5586 209.448C93.9711 209.105 102.482 209.158 110.897 209.416L110.983 253.653C110.969 261.653 111.211 269.756 110.773 277.743C102.904 277.953 95.0333 278.057 87.162 278.056C86.9454 255.18 86.4109 232.309 85.5586 209.448Z"/><path fill="#79411B" transform="scale(1.55067 1.55067)" d="M91.3279 483.411C91.7125 483.399 92.0971 483.389 92.4818 483.381C105.295 483.139 118.085 483.443 130.894 483.491C138.997 483.522 147.392 483.067 155.458 483.674C156.986 483.788 162.102 484.196 163.072 485.431C163.918 486.507 164.046 489.522 164.117 490.91C164.624 500.88 164.08 511.156 164.068 521.154C164.049 536.248 164.395 551.457 163.592 566.532C163.332 566.853 163.062 567.166 162.782 567.47C157.704 572.937 150.838 572.279 143.989 572.465C131.417 572.563 118.846 572.798 106.28 573.171C98.6616 573.369 90.3722 574.124 82.8186 573.313C78.473 572.846 75.3475 570.013 72.7552 566.722C72.3618 561.345 72.6053 555.809 72.5517 550.413C72.4045 539.212 72.3193 528.011 72.296 516.809C72.284 512.277 71.2339 487.333 73.7729 484.945C76.6379 482.251 87.3662 483.403 91.3279 483.411Z"/><path fill="#AA9275" transform="scale(1.55067 1.55067)" d="M131.627 493.535C138.904 493.394 146.182 493.326 153.46 493.331C152.708 516.311 153.891 539.4 152.892 562.35L144.38 562.407C137.004 562.388 129.629 562.296 122.255 562.133C122.276 539.365 122.417 516.597 122.68 493.829L131.627 493.535Z"/><path fill="#AA9275" transform="scale(1.55067 1.55067)" d="M85.3233 494.288C93.3588 494.064 101.476 493.911 109.511 494.188L109.429 538.433C109.409 545.981 109.767 553.746 109.228 561.269C101.258 561.509 93.2823 561.503 85.3124 561.25C85.8467 538.959 85.0612 516.597 85.3233 494.288Z"/><path fill="#79411B" transform="scale(1.55067 1.55067)" d="M384.705 336.119C402.919 336.339 421.134 336.391 439.348 336.275C449.884 336.272 460.571 335.843 471.057 336.972C471.53 337.811 472.013 338.665 472.373 339.559C472.754 340.503 472.892 341.448 472.933 342.457C473.229 349.769 472.627 416.728 471.855 418.343C470.74 420.68 467.942 421.523 465.706 422.404C458.767 423.355 451.696 423.087 444.708 423.077L417.831 423.112C408.158 423.147 393.486 424.261 384.594 422.899C383.192 421.773 381.707 420.468 380.651 418.997C379.746 417.738 379.331 416.492 379.103 414.972C377.99 407.563 378.545 395.863 378.507 388.087L378.491 361.186C378.506 352.98 378.373 344.67 379.531 336.528L384.705 336.119Z"/><path fill="#AA9275" transform="scale(1.55067 1.55067)" d="M433.303 346.981L430.933 346.787L430.729 346.485L431.631 346.223L431.962 346.706L432.25 346.153C436.458 345.888 455.194 344.656 457.897 346.292C455.732 346.328 453.395 346.206 451.291 346.729L461.626 346.768C461.854 368.852 461.266 390.989 461.054 413.075C450.652 413.956 439.848 413.536 429.408 413.38L429.764 373.79C429.836 365.119 429.646 356.339 430.182 347.685C431.091 346.97 432.169 347.081 433.303 346.981Z"/><path fill="#703B1A" transform="scale(1.55067 1.55067)" d="M433.303 346.981L430.933 346.787L430.729 346.485L431.631 346.223L431.962 346.706L432.25 346.153C436.458 345.888 455.194 344.656 457.897 346.292C455.732 346.328 453.395 346.206 451.291 346.729L433.303 346.981Z"/><path fill="#988C78" transform="scale(1.55067 1.55067)" d="M390.846 347.459L390.033 347.017C391.881 345.296 410.247 345.761 413.587 345.873C415.839 345.949 418.017 346.173 420.231 346.602C417.365 346.748 414.293 346.679 411.468 347.137L418.746 347.164L418.664 413.552L389.637 413.742L389.712 370.282C389.725 362.911 389.247 355.14 389.964 347.821L390.846 347.459Z"/><path fill="#58280E" transform="scale(1.55067 1.55067)" d="M390.846 347.459L390.033 347.017C391.881 345.296 410.247 345.761 413.587 345.873C415.839 345.949 418.017 346.173 420.231 346.602C417.365 346.748 414.293 346.679 411.468 347.137C404.593 347.118 397.717 347.225 390.846 347.459Z"/><path fill="#79411B" transform="scale(1.55067 1.55067)" d="M502.224 199.747C502.475 199.728 502.726 199.713 502.977 199.701C510.344 199.334 517.975 200.161 525.383 200.16C537.454 200.082 549.525 200.156 561.594 200.382C567.268 200.453 573.735 199.956 579.282 200.99C582.742 201.635 585.351 203.217 587.932 205.55C588.006 233.206 587.854 260.862 587.475 288.515L582.058 288.964C565.698 289.958 548.992 289.387 532.585 289.45C525.802 289.476 508.303 290.369 503.011 288.986C501.117 288.491 499.252 286.305 498.332 284.672C497.359 282.944 497.112 280.499 496.985 278.54C496.389 269.349 496.921 259.748 496.896 250.525C496.86 236.972 496.374 222.986 497.435 209.47C497.676 206.399 498.182 203.632 499.059 200.679C500.026 199.827 500.983 199.909 502.224 199.747Z"/><path fill="#878272" transform="scale(1.55067 1.55067)" d="M510.413 210.174C519.544 210.171 529.008 209.686 538.086 210.535C538.45 221.16 538.246 231.852 538.232 242.484C538.217 254.656 538.352 266.866 537.945 279.03C528.693 278.788 519.368 279.213 510.102 279.179C509.737 256.204 510.352 233.155 510.413 210.174Z"/><path fill="#988C78" transform="scale(1.55067 1.55067)" d="M549.983 210.205L550.607 209.346C555.669 208.713 572.788 208.711 577.459 209.969C577.755 210.647 577.125 266.993 577.013 271.947C576.962 274.189 576.879 276.701 576.391 278.891L549.373 278.656C549.507 264.415 549.556 250.173 549.522 235.931C549.518 227.428 549.088 218.659 549.983 210.205Z"/><path fill="#703B1A" transform="scale(1.55067 1.55067)" d="M549.983 210.205L550.607 209.346C555.669 208.713 572.788 208.711 577.459 209.969C577.755 210.647 577.125 266.993 577.013 271.947C576.962 274.189 576.879 276.701 576.391 278.891C575.348 272.03 576.068 264.059 576.086 257.086C576.214 241.584 576.189 226.08 576.013 210.579C568.157 209.276 558.046 210.152 549.983 210.205Z"/><path fill="#79411B" transform="scale(1.55067 1.55067)" d="M79.7055 635.691C98.6179 635.133 117.638 635.587 136.555 635.887C142.766 635.986 155.06 635.347 160.416 636.957C162.134 637.474 164.082 639.044 164.837 640.686C166.392 644.068 164.723 701.234 164.029 709.137C163.736 712.474 163.265 715.574 162.201 718.755C160.872 720.023 159.808 720.839 158.1 721.564C151.492 722.594 144.563 722.471 137.884 722.513L112.481 722.613C103.831 722.654 89.0674 723.633 80.9098 722.207C78.9249 721.86 77.153 720.017 75.2723 719.159C75.1563 719.106 75.0393 719.056 74.9228 719.004C73.3185 711.769 73.6458 703.649 73.5549 696.251C73.4056 684.112 73.1257 671.964 73.0961 659.824C73.0806 653.462 73.6881 646.735 73.1321 640.437L74.6685 638.71C76.3424 636.814 77.1913 636.198 79.7055 635.691Z"/><path fill="#988C78" transform="scale(1.55067 1.55067)" d="M124.474 704.399C123.482 706.124 124.128 709.438 123.736 711.521C123.488 701.471 123.368 691.101 123.653 681.055C123.88 673.038 124.072 665.121 124.035 657.092C124.024 654.744 124.292 652.244 124.097 649.922C123.973 648.455 123.467 647.066 123.328 645.608C124.074 644.956 124.584 644.678 125.58 644.53C130.911 643.739 136.968 644.509 142.392 644.588C146.112 644.643 149.979 644.356 153.675 644.614C154.145 644.647 154.551 644.748 155.005 644.862C155.221 645.52 155.184 645.729 155.135 646.409C154.602 653.751 154.681 711.634 153.781 712.945L153.562 712.855C143.991 713.486 134.04 713.461 124.46 712.912C124.483 710.075 124.488 707.237 124.474 704.399Z"/><path fill="#703B1A" transform="scale(1.55067 1.55067)" d="M124.474 704.399C123.482 706.124 124.128 709.438 123.736 711.521C123.488 701.471 123.368 691.101 123.653 681.055C123.88 673.038 124.072 665.121 124.035 657.092C124.024 654.744 124.292 652.244 124.097 649.922C123.973 648.455 123.467 647.066 123.328 645.608C124.074 644.956 124.584 644.678 125.58 644.53C130.911 643.739 136.968 644.509 142.392 644.588C146.112 644.643 149.979 644.356 153.675 644.614C154.145 644.647 154.551 644.748 155.005 644.862C155.221 645.52 155.184 645.729 155.135 646.409C154.602 653.751 154.681 711.634 153.781 712.945L153.562 712.855C152.908 706.326 153.445 699.327 153.584 692.751C153.9 677.723 154.806 660.508 154.039 645.698C144.497 645.436 134.316 645.113 124.843 646.156L124.474 704.399Z"/><path fill="#988C78" transform="scale(1.55067 1.55067)" d="M85.2256 679.909C84.9884 683.159 85.8595 697.521 84.8766 699.226C84.4301 688.004 84.2954 676.561 84.268 665.328C84.2589 661.589 84.7592 649.198 84.0529 646.594C82.9476 646.676 82.9085 646.791 82.0666 647.535C81.1633 651.175 81.5917 655.542 81.5975 659.3L81.666 685.558C81.6847 689.89 82.2536 695.042 81.4695 699.289C80.6468 694.786 81.3081 684.069 81.3056 678.866C81.3001 667.593 80.6718 656.04 81.2657 644.801C82.1018 644.489 82.7951 644.356 83.6921 644.332C86.6216 644.254 111.72 644.542 112.55 644.794C113.699 648.322 112.24 667.961 112.119 673.236C111.971 679.692 112.31 686.154 112.25 692.609C112.214 696.356 111.745 700.079 111.772 703.834C111.779 704.711 111.753 711.597 111.952 711.839C112.88 712.964 115.014 712.465 114.273 714.676C114.158 715.021 113.665 715.548 113.456 715.808L112.735 715.988C111.225 714.435 111.575 713.802 109.24 713.744C104.036 713.615 98.6592 714.357 93.4787 713.787C92.4352 713.672 91.6615 713.206 90.6942 713.056C89.5505 712.878 87.5219 713.44 86.6701 712.742L86.8016 712.594L86.1101 712.144C84.676 709.986 85.6111 684.866 85.2256 679.909Z"/><path fill="#703B1A" transform="scale(1.55067 1.55067)" d="M85.2256 679.909C84.9884 683.159 85.8595 697.521 84.8766 699.226C84.4301 688.004 84.2954 676.561 84.268 665.328C84.2589 661.589 84.7592 649.198 84.0529 646.594C82.9476 646.676 82.9085 646.791 82.0666 647.535C81.1633 651.175 81.5917 655.542 81.5975 659.3L81.666 685.558C81.6847 689.89 82.2536 695.042 81.4695 699.289C80.6468 694.786 81.3081 684.069 81.3056 678.866C81.3001 667.593 80.6718 656.04 81.2657 644.801C82.1018 644.489 82.7951 644.356 83.6921 644.332C86.6216 644.254 111.72 644.542 112.55 644.794C113.699 648.322 112.24 667.961 112.119 673.236C111.971 679.692 112.31 686.154 112.25 692.609C112.214 696.356 111.745 700.079 111.772 703.834C111.779 704.711 111.753 711.597 111.952 711.839C112.88 712.964 115.014 712.465 114.273 714.676C114.158 715.021 113.665 715.548 113.456 715.808L112.735 715.988C111.225 714.435 111.575 713.802 109.24 713.744C104.036 713.615 98.6592 714.357 93.4787 713.787C92.4352 713.672 91.6615 713.206 90.6942 713.056C89.5505 712.878 87.5219 713.44 86.6701 712.742L86.8016 712.594C93.2173 711.881 104.15 712.539 111.145 712.461C110.896 705.555 111.215 698.558 111.314 691.646L112.128 645.806C103.344 645.254 93.8329 645.34 85.0572 646.094C84.8833 657.367 85.2517 668.636 85.2256 679.909Z"/><path fill="#79411B" transform="scale(1.55067 1.55067)" d="M213.068 199.294C231.103 198.843 249.133 199.158 267.168 199.308C274.717 199.371 284.541 198.501 291.867 199.796C294.468 200.256 296.807 201.552 299.11 202.784C300.092 210.661 299.281 219.287 299.26 227.254C299.273 245.519 299.11 263.784 298.769 282.046C296.988 283.392 295.8 285.053 294.587 286.891C292.01 288.013 224.515 288.022 216.611 286.97C214.648 285.117 211.812 282.919 210.774 280.393C209.132 276.398 208.534 205.21 209.926 202.084C210.577 200.622 211.615 199.852 213.068 199.294Z"/><path fill="#878272" transform="scale(1.55067 1.55067)" d="M220.175 278.005C219.327 278.459 219.099 278.793 218.147 278.531C217.588 277.433 217.36 276.529 217.335 275.289C217.251 271.11 217.606 266.825 217.619 262.621L218.003 220.503C218.059 217.429 217.366 210.899 218.18 208.188C218.35 207.623 219.338 207.279 219.846 206.993C229.415 207.067 239.167 206.567 248.702 207.14L248.459 252.283C248.418 260.66 248.859 269.393 248.021 277.729C239.811 277.935 228.07 278.964 220.175 278.005Z"/><path fill="#8D592D" transform="scale(1.55067 1.55067)" d="M220.175 278.005C219.327 278.459 219.099 278.793 218.147 278.531C217.588 277.433 217.36 276.529 217.335 275.289C217.251 271.11 217.606 266.825 217.619 262.621L218.003 220.503C218.059 217.429 217.366 210.899 218.18 208.188C218.35 207.623 219.338 207.279 219.846 206.993C220.427 225.578 220.658 244.172 220.539 262.765C220.489 267.436 221.094 273.614 220.175 278.005Z"/><path fill="#988C78" transform="scale(1.55067 1.55067)" d="M259.917 207.083C269.254 206.994 278.591 206.977 287.928 207.032L287.444 248.219C287.391 258.123 287.656 268.141 287.097 278.028C280.05 278.817 267.407 278.112 259.793 278.091C259.652 254.449 259.601 230.722 259.917 207.083Z"/><path fill="#79411B" transform="scale(1.55067 1.55067)" d="M505.006 483.764C519.427 483.397 533.859 483.826 548.282 483.877C561.624 483.924 575.17 483.387 588.439 484.955C589.241 490.333 588.961 496.015 588.951 501.449L588.737 529.182L588.693 551.895C588.683 556.245 589.127 561.333 588.201 565.564C587.593 568.343 585.381 569.486 583.126 570.819C581.6 571.419 580.086 571.685 578.455 571.781C564.749 572.589 550.727 571.88 536.975 571.938C529.944 571.967 511.658 573.327 505.669 571.799C503.006 571.119 501.588 569.144 500.309 566.895C500.352 539.317 500.544 511.739 500.883 484.162L505.006 483.764Z"/><path fill="#988C78" transform="scale(1.55067 1.55067)" d="M511.255 492.225C520.99 492.18 530.777 491.936 540.495 492.561C540.797 503.258 540.611 514.026 540.614 524.73C540.617 537.214 540.759 549.724 540.433 562.204C530.577 562.045 520.702 562.428 510.84 562.427L511.255 492.225Z"/><path fill="#988C78" transform="scale(1.55067 1.55067)" d="M560.506 491.996C566.784 491.855 573.082 491.942 579.363 491.929C578.819 515.393 578.853 539.033 579.181 562.502L568.477 562.494L550.31 562.489L550.629 518.673C550.691 509.875 550.533 501.022 551.014 492.236L560.506 491.996Z"/><path fill="#79411B" transform="scale(1.55067 1.55067)" d="M503.949 638.455C518.158 637.393 534.197 638.188 548.57 638.223C558.27 638.246 573.989 637.414 583.189 638.923C585.521 639.306 586.996 639.816 588.355 641.854C589.266 643.222 589.662 644.672 589.837 646.287C590.979 656.811 590.219 670.17 590.213 680.898C590.208 688.806 591.109 707.458 589.428 714.442C588.506 718.273 586.193 720.878 582.869 722.839C574.643 725.487 549.519 724.534 539.612 724.613C531.421 724.678 523.237 725.079 515.043 725.083C510.295 725.085 504.846 724.973 501.347 721.258C500.305 720.152 499.559 718.826 499.342 717.314C498.427 710.939 499.324 699.999 499.413 693.19C499.638 676.001 499.608 658.721 500.396 641.552C501.511 640.296 502.571 639.405 503.949 638.455Z"/><path fill="#988C78" transform="scale(1.55067 1.55067)" d="M512.131 712.628C512.022 713.462 511.93 714.298 511.855 715.136C511.497 714.38 510.909 650.335 511.974 646.292C514.255 644.089 519.958 644.531 522.979 644.583C526.391 644.641 538.33 644.175 540.528 646.198C541.543 647.132 541.662 651.161 541.74 652.485C542.345 662.727 541.655 673.037 541.651 683.292C541.647 692.528 542.426 702.269 541.485 711.442C541.375 712.518 541.196 713.483 540.787 714.491C540.189 714.61 539.63 714.693 539.02 714.723C536.859 714.526 534.469 714.82 532.29 714.909C525.963 715.167 519.32 715.753 513.019 715.111C512.154 714.428 512.295 713.692 512.131 712.628Z"/><path fill="#58280E" transform="scale(1.55067 1.55067)" d="M512.131 712.628C512.022 713.462 511.93 714.298 511.855 715.136C511.497 714.38 510.909 650.335 511.974 646.292C514.255 644.089 519.958 644.531 522.979 644.583C526.391 644.641 538.33 644.175 540.528 646.198C541.543 647.132 541.662 651.161 541.74 652.485C542.345 662.727 541.655 673.037 541.651 683.292C541.647 692.528 542.426 702.269 541.485 711.442C541.375 712.518 541.196 713.483 540.787 714.491C540.189 714.61 539.63 714.693 539.02 714.723C538.843 692.108 539.61 669.458 538.986 646.851L512.137 646.584C511.907 668.595 512.142 690.616 512.131 712.628Z"/><path fill="#988C78" transform="scale(1.55067 1.55067)" d="M551.828 646.334C557.507 642.712 572.55 645.898 579.208 646.227C577.63 646.31 576.021 646.329 574.453 646.517C576.309 646.723 578.139 646.883 580.006 646.952L579.685 712.807C576.037 713.302 572.179 713.733 568.492 713.702L551.391 714.328C551.674 699.151 551.757 683.971 551.641 668.792C551.633 661.533 550.97 653.482 551.828 646.334Z"/><path fill="#878272" transform="scale(1.55067 1.55067)" d="M569.493 646.473L574.453 646.517C576.309 646.723 578.139 646.883 580.006 646.952L579.685 712.807C576.037 713.302 572.179 713.733 568.492 713.702C570.151 697.106 569.355 680.052 569.681 663.38C569.739 660.371 570.648 649.421 570.033 647.286C569.943 646.974 569.673 646.744 569.493 646.473Z"/><path fill="#58280E" transform="scale(1.55067 1.55067)" d="M551.828 646.334C557.507 642.712 572.55 645.898 579.208 646.227C577.63 646.31 576.021 646.329 574.453 646.517L569.493 646.473C563.638 646.523 557.668 646.714 551.828 646.334Z"/><path fill="#79411B" transform="scale(1.55067 1.55067)" d="M242.028 337.681C250.458 337.377 258.976 337.609 267.418 337.557C274.695 337.512 286.546 336.532 293.301 338.131C295.732 338.706 297.632 340.133 299.499 341.702C300.098 346.192 299.847 350.816 299.84 355.339L299.914 374.143L300.081 399.903C300.121 404.782 300.386 409.772 300.078 414.64C299.952 416.617 299.692 418.697 298.785 420.476C292.886 424.557 275.098 423.037 267.391 423.008L222.917 423.297C217.478 423.282 213.997 423.563 209.958 419.506C208.231 411.423 208.893 402.46 208.815 394.179C208.587 377.38 208.677 360.579 209.086 343.784C210.377 341.686 211.473 340.153 213.403 338.616C221.91 336.93 233.184 337.912 242.028 337.681Z"/><path fill="#AA9275" transform="scale(1.55067 1.55067)" d="M259.42 346.545C269.123 346.808 278.925 346.105 288.602 346.724C288.805 359.792 288.781 372.862 288.529 385.93C288.433 394.042 288.553 402.235 288.164 410.334C288.112 411.437 288.273 412.125 287.454 412.879C277.986 413.898 268.037 413.508 258.51 413.44C258.606 391.169 258.398 368.793 259.42 346.545Z"/><path fill="#878272" transform="scale(1.55067 1.55067)" d="M223.361 347.221L223.291 346.692C227.598 345.906 239.989 344.666 243.465 347.01C243.552 347.069 243.629 347.143 243.711 347.21L247.908 347.32C247.742 369.099 247.013 390.863 247.188 412.644C238.685 413.391 230.088 413.25 221.559 413.266C222.124 404.811 221.247 350.433 222.718 347.886C222.872 347.619 223.147 347.443 223.361 347.221Z"/><path fill="#703B1A" transform="scale(1.55067 1.55067)" d="M223.361 347.221L223.291 346.692C227.598 345.906 239.989 344.666 243.465 347.01C243.552 347.069 243.629 347.143 243.711 347.21C236.937 347.255 230.131 347.441 223.361 347.221Z"/><path fill="#79411B" transform="scale(1.55067 1.55067)" d="M73.5348 337.128C80.0746 336.749 86.7287 336.998 93.2801 337.031C105.801 337.069 118.321 337.189 130.84 337.391C138.502 337.47 150.473 336.38 157.584 337.826C160.031 338.323 161.802 339.812 163.616 341.409C164.313 353.352 163.679 365.916 163.684 377.919C163.689 390.755 164.578 404.27 163.029 416.993C161.777 417.952 160.363 418.71 159.008 419.512C156.656 420.698 154.314 421.826 151.665 422.14C141.63 423.332 130.942 422.602 120.826 422.771L97.5927 423.22C91.1308 423.345 84.3019 423.829 77.915 422.68C76.6191 421.121 75.2767 419.414 74.8836 417.373C74.0987 413.297 74.2197 408.845 74.0818 404.702C73.8287 397.612 73.6544 390.52 73.5589 383.426C73.3516 368.086 72.5205 352.433 73.5348 337.128Z"/><path fill="#AA9275" transform="scale(1.55067 1.55067)" d="M122.302 346.905C126.866 345.752 147.354 346.356 153.229 346.53C152.982 368.373 152.58 390.215 152.023 412.053C141.834 412.49 131.207 412.933 121.035 412.123C121.015 409.308 121.144 406.412 120.967 403.609C119.716 405.453 121.129 410.165 120.302 412.546C119.185 412.594 118.762 412.366 117.82 411.844C116.514 408.435 117.234 402.12 117.228 398.425L117.227 367.96C117.207 361.518 117.569 354.337 116.403 347.997C118.382 347.687 120.36 347.404 122.302 346.905Z"/><path fill="#703B1A" transform="scale(1.55067 1.55067)" d="M116.403 347.997C118.382 347.687 120.36 347.404 122.302 346.905C121.489 365.793 121.451 384.711 120.967 403.609C119.716 405.453 121.129 410.165 120.302 412.546C119.185 412.594 118.762 412.366 117.82 411.844C116.514 408.435 117.234 402.12 117.228 398.425L117.227 367.96C117.207 361.518 117.569 354.337 116.403 347.997Z"/><path fill="#AA9275" transform="scale(1.55067 1.55067)" d="M86.0027 346.838C94.04 346.768 102.078 346.763 110.115 346.821C110.466 368.596 109.41 390.384 109.444 412.163C101.637 412.863 93.614 412.594 85.7703 412.571C85.6094 390.66 85.6869 368.747 86.0027 346.838Z"/><path fill="#79411B" transform="scale(1.55067 1.55067)" d="M504.129 337.581C519.988 337.704 535.847 337.707 551.706 337.59C560.663 337.57 570.246 336.994 579.126 338.066C582.448 338.467 585.192 339.382 588.234 340.744C589.011 355.613 588.313 370.728 588.288 385.626C588.275 393.039 589.107 413.846 587.585 419.893C587.118 421.749 586.403 422.257 584.785 423.206C578.598 424.781 571.733 424.21 565.374 424.212C555.995 424.256 546.616 424.182 537.238 423.991C527.579 423.87 517.598 424.413 508.003 423.302C506.507 422.093 504.852 420.877 503.501 419.512C502.217 418.214 501.274 416.758 500.995 414.928C499.96 408.134 500.694 400.45 500.707 393.559C500.741 375.555 501.28 357.542 501.156 339.544C502.085 338.703 503.026 338.168 504.129 337.581Z"/><path fill="#988C78" transform="scale(1.55067 1.55067)" d="M515.162 348.201C523.505 347.763 532.281 347.685 540.595 348.364C540.812 354.06 540.659 409.853 539.944 412.124C539.861 412.387 539.596 412.551 539.423 412.764L537.926 412.913C529.472 413.201 521.012 413.283 512.553 413.161C512.516 405.509 512.098 351.2 513.603 348.484L515.162 348.201Z"/><path fill="#988C78" transform="scale(1.55067 1.55067)" d="M551.625 348.142C559.936 347.887 568.252 347.875 576.564 348.105C576.504 369.665 575.729 391.231 575.945 412.791C568.508 414.284 558.949 413.338 551.313 413.255L551.625 348.142Z"/><path fill="#79411B" transform="scale(1.55067 1.55067)" d="M415.793 198.61C426.182 198.133 436.685 198.466 447.082 198.641C455.351 198.779 464.523 198.306 472.621 200.126C473.379 218.663 472.73 237.499 472.752 256.06L472.768 274.746C472.769 277.953 473.092 281.715 472.503 284.858C472.185 286.556 471.13 287.11 469.759 288.03C468.607 288.629 467.368 289.042 466.087 289.254C460.346 290.206 453.953 289.771 448.12 289.796C441.518 289.825 434.765 290.113 428.182 289.711C422.883 289.388 418.508 286.337 415.072 282.419C414.315 275.892 414.767 268.887 414.761 262.308L414.734 224.788C414.731 219.795 414.065 203.192 414.864 199.491C414.991 198.902 415.31 198.898 415.793 198.61Z"/><path fill="#AA9275" transform="scale(1.55067 1.55067)" d="M438.333 207.619C445.605 207.48 453.372 206.833 460.579 207.649C461.088 231.339 460.496 255.126 460.49 278.828L450.632 278.726C442.87 278.514 435.073 278.63 427.307 278.617C427.171 255.017 427.595 231.387 427.698 207.785C431.239 207.679 434.79 207.671 438.333 207.619Z"/><path fill="#79411B" transform="scale(1.55067 1.55067)" d="M334.296 198.605C343.686 197.79 353.672 198.365 363.097 198.553C370.442 198.699 378.283 198.402 385.555 199.479C387.048 199.699 388.493 200.201 389.917 200.684C391.182 212.191 390.676 224.255 390.813 235.849C390.925 245.116 390.96 254.383 390.917 263.65C390.898 269.472 391.037 275.339 390.532 281.143C389.282 282.933 387.785 284.602 386.397 286.29C384.625 287.456 382.831 287.948 380.763 288.262C375.502 289.061 347.854 289.912 342.787 288.984C338.866 288.266 335.852 286.147 333.733 282.774C332.988 281.588 332.95 279.732 332.875 278.36C332.487 271.28 332.716 264.061 332.692 256.965L332.644 220.4C332.669 216.156 332.128 203.501 333.065 199.902C333.287 199.046 333.573 199.016 334.296 198.605Z"/><path fill="#AA9275" transform="scale(1.55067 1.55067)" d="M345.469 206.713C356.393 206.955 367.32 207.068 378.248 207.054C379.274 216.757 378.533 227.222 378.544 236.998C378.559 250.574 379.057 264.259 378.623 277.823C367.385 277.618 356.117 277.776 344.876 277.761C344.832 268.868 345.135 259.972 345.169 251.078C345.225 236.288 345.082 221.5 345.469 206.713Z"/><path fill="#703B1A" transform="scale(1.55067 1.55067)" d="M244.036 619.656C253.594 619.083 263.364 619.413 272.948 619.384L329.956 619.387C350.639 619.192 371.323 619.373 391.999 619.928C400.483 620.201 409.371 620.018 417.756 621.305C421.414 621.866 424.445 623.683 427.566 625.556C427.5 627.208 427.713 629.04 426.93 630.532L425.83 630.863C414.66 631.011 403.458 630.539 392.286 630.407L321.326 629.729L274.182 629.412C263.285 629.317 252.126 629.518 241.294 628.312C241.268 626.121 240.513 622.216 241.874 620.39C242.261 619.872 243.415 619.8 244.036 619.656Z"/><path fill="#AF8353" transform="scale(1.55067 1.55067)" d="M75.8478 43.1319C81.2831 44.1703 94.0156 43.4101 100.231 43.4968C127.394 43.8753 154.606 43.55 181.778 43.6374C254.333 43.8707 326.829 46.6871 399.376 46.7949L505.35 46.8322C529.06 46.7855 553.159 46.007 576.8 47.6936C582.216 48.08 587.942 49.5046 592.527 52.5202C596.855 55.3661 600.395 60.3993 602.802 64.896C609.775 77.9195 617.28 106.113 620.457 121.01C609.378 122.841 597.415 121.829 586.165 122.137C509.186 122.894 432.173 125.76 355.182 124.933C338.205 124.68 321.237 124.027 304.291 122.975C295.671 122.436 287.063 121.587 278.439 121.147C265.703 120.497 252.853 120.304 240.102 120.219L119.518 120.329C102.082 120.53 84.645 120.5 67.2104 120.239C59.3977 120.196 51.5837 120.384 43.7729 120.171C49.5691 106.271 68.1446 51.2675 75.8478 43.1319Z"/><path fill="#9D7246" transform="scale(1.55067 1.55067)" d="M194.203 95.2569C195.429 95.2755 196.686 95.2329 197.695 96.047C198.369 96.5906 198.815 97.3125 198.891 98.1839C199.092 100.455 197.764 102.17 196.449 103.841C195.819 104.121 195.49 104.107 194.812 104.018C193.937 103.055 193.517 102.001 193.314 100.712C192.972 98.5392 192.896 97.1043 194.203 95.2569Z"/><path fill="#988C78" transform="scale(1.55067 1.55067)" d="M296.269 660.874C296.808 659.931 296.759 659.814 297.77 659.466C298.317 659.821 298.519 659.883 298.668 660.565C299.141 662.734 298.625 671.208 298.644 673.98C298.795 689.409 298.833 704.839 298.759 720.268C298.707 725.82 297.657 735.455 298.518 740.54C297.548 740.113 296.635 739.657 295.713 739.133C290.841 738.888 285.917 739.073 281.039 739.126C273.946 738.661 266.507 739.161 259.376 739.086L260.129 660.977C267.473 660.793 274.818 660.711 282.164 660.732C286.827 660.782 291.621 661.169 296.269 660.874Z"/><path fill="#58280E" transform="scale(1.55067 1.55067)" d="M296.269 660.874C296.808 659.931 296.759 659.814 297.77 659.466C298.317 659.821 298.519 659.883 298.668 660.565C299.141 662.734 298.625 671.208 298.644 673.98C298.795 689.409 298.833 704.839 298.759 720.268C298.707 725.82 297.657 735.455 298.518 740.54C297.548 740.113 296.635 739.657 295.713 739.133C296.742 734.697 296.1 714.207 296.123 708.272L296.304 677.997C296.346 672.322 296.617 666.536 296.269 660.874Z"/><path fill="#988C78" transform="scale(1.55067 1.55067)" d="M370.211 682.221C368.673 678.421 369.35 666.344 369.768 661.968L369.999 661.876L370.354 666.059C370.434 664.524 370.536 662.987 370.572 661.45C382.919 661.391 395.351 661.097 407.681 661.809L407.786 712.593C407.776 721.122 408.1 729.756 407.77 738.274C395.239 738.365 382.708 738.368 370.178 738.283C369.976 725.974 369.976 713.662 370.178 701.352C370.244 695.202 370.918 688.318 370.211 682.221Z"/><path fill="#58280E" transform="scale(1.55067 1.55067)" d="M370.211 682.221C368.673 678.421 369.35 666.344 369.768 661.968L369.999 661.876L370.354 666.059C370.315 671.439 370.389 676.845 370.211 682.221Z"/><path fill="#8D592D" transform="scale(1.55067 1.55067)" d="M284.361 742.526C288.201 742.543 292.08 742.446 295.912 742.713C297.021 742.825 298.131 742.746 299.041 743.412C299.871 750.081 299.352 757.416 299.399 764.15C299.463 773.14 300.13 782.697 299.165 791.634C284.97 791.841 270.753 791.643 256.554 791.734C255.83 785.789 255.576 747.001 257.047 742.993C263.691 744.666 276.942 742.813 284.361 742.526Z"/><path fill="#8D592D" transform="scale(1.55067 1.55067)" d="M369.981 741.697C370.013 740.841 370.051 740.005 369.967 739.151L370.256 738.782C378.428 738.686 386.6 738.651 394.772 738.679C399.061 738.671 403.626 738.293 407.868 738.801C408.141 739.2 408.277 739.209 408.202 739.706C408.066 740.599 408 741.288 408.163 742.193C409.286 746.162 408.628 753.348 408.658 757.656C408.83 768.903 408.824 780.153 408.642 791.4C395.207 791.459 381.673 792.034 368.248 791.553C368.281 791.379 368.31 791.205 368.345 791.031C369.874 783.431 367.446 744.762 369.981 741.697Z"/><path fill="#58280E" transform="scale(1.55067 1.55067)" d="M369.981 741.697C370.013 740.841 370.051 740.005 369.967 739.151L370.256 738.782C378.428 738.686 386.6 738.651 394.772 738.679C399.061 738.671 403.626 738.293 407.868 738.801C408.141 739.2 408.277 739.209 408.202 739.706C408.066 740.599 408 741.288 408.163 742.193C395.462 741.518 382.654 742.449 369.981 741.697Z"/><path fill="#58280E" transform="scale(1.55067 1.55067)" d="M281.039 739.126C285.917 739.073 290.841 738.888 295.713 739.133C296.635 739.657 297.548 740.113 298.518 740.54C297.989 741.625 297.966 742.161 296.729 742.563C296.476 742.645 296.177 742.677 295.912 742.713C292.08 742.446 288.201 742.543 284.361 742.526C278.732 741.942 272.727 742.034 267.064 742.09C264.567 742.114 261.687 742.489 259.226 742.137C258.316 742.007 258.084 741.859 257.413 741.25L257.639 740.571C260.93 738.194 275.524 739.986 280.69 739.185C280.807 739.167 280.922 739.146 281.039 739.126Z"/></svg>