<?xml version="1.0" encoding="utf-8" ?><svg xmlns="http://www.w3.org/2000/svg" xmlns:xlink="http://www.w3.org/1999/xlink" width="688" height="868" viewBox="0 0 688 868"><path fill="#221A46" d="M58.5603 0L141.029 0L204.795 0L261.821 0L290.474 0L404.341 0L443.117 0L631.473 0L632.711 0C640.474 19.2505 646.026 39.4762 652.267 59.2542C656.366 71.3746 683.833 155.352 683.331 161.642C683.689 162.92 683.605 163.438 684.731 164.197L688 164.011L688 174.995L688 201.992C685.812 203.149 684.636 204.004 683.678 206.384C683.905 214.29 684.235 222.714 683.574 230.591C683.476 231.755 683.06 232.824 682.929 233.985L684.028 235.135C679.903 238.106 671.906 238.93 666.873 239.228L666.045 422.446L665.993 468.695C665.991 475.382 666.599 482.667 665.898 489.271C666.402 525.138 665.881 561.091 665.706 596.965L664.91 748.684C664.582 786.865 663.66 825.212 664.406 863.378L664.222 868L581.228 868L547.589 868L482.733 868L154.874 868C146.58 866.422 134.412 867.088 125.644 866.599C114.057 865.951 102.57 864.201 90.9375 864.179C87.0852 864.171 83.4334 862.648 79.5188 862.57C63.2523 862.245 46.9512 862.693 30.701 861.662L20.4841 861.186C19.5624 838.025 20.1822 814.623 20.2466 791.435L20.5771 682.404L21.6864 397.481L21.8938 305.058C22.0924 282.322 21.9834 259.583 21.5667 236.849C15.3712 233.945 9.19787 230.994 3.04735 227.996C2.43117 210.541 3.10286 192.817 3.16531 175.34C2.82838 159.335 3.32606 152.679 8.39874 137.36C9.8513 132.509 11.5233 127.756 13.2312 122.989C16.4367 114.595 19.2226 105.992 22.2617 97.5321L51.6113 15.1595C53.4212 9.78884 55.2271 4.63904 58.5603 0Z"/><path fill="#798E9C" d="M64.0233 15.395C64.6053 14.1698 64.7907 13.195 66.1608 12.6885C67.8319 12.0708 91.2335 12.6898 94.9498 12.6892L229.868 12.9323L626.876 13.2159C629.708 26.4793 633.831 39.5862 637.667 52.5929C643.947 74.2662 650.556 95.843 657.491 117.316C662.255 132.432 667.228 147.681 670.711 163.15L202.765 163.3L79.1886 162.753L38.0352 162.768C29.1084 162.772 20.0311 163.082 11.1328 162.315L11.2562 160.693C14.4029 145.144 22.9791 126.272 28.2865 110.956C31.9902 103.737 35.1558 93.2929 38.0621 85.5271C46.8039 62.1675 54.5602 38.4781 64.0233 15.395Z"/><defs><linearGradient id="gradient_0" gradientUnits="userSpaceOnUse" x1="343.64868" y1="141.41936" x2="346.04593" y2="27.172335"><stop offset="0" stop-color="#1C0D40"/><stop offset="1" stop-color="#303252"/></linearGradient></defs><path fill="url(#gradient_0)" d="M107.918 30.6995C120.499 30.3035 133.144 30.5348 145.732 30.521L220.692 30.6988L419.363 31.2214L531.001 31.2471L565.282 31.3022C573.188 31.3439 581.372 31.1044 589.204 32.2208C595.67 38.9014 619.948 121.977 624.798 137.229C610.243 137.585 595.545 136.941 580.964 136.957L282.324 136.654L140.433 136.928C114.956 136.881 89.1699 137.498 63.7329 136.287C64.6539 124.905 89.3169 40.6975 96.0898 32.9673C98.4048 30.3251 104.651 30.8055 107.918 30.6995Z"/><path fill="#505471" d="M185.703 52.7557C203.884 52.264 222.246 52.6669 240.445 52.6793L362.253 52.9549L494.767 52.9821C524.432 52.9384 554.069 52.3774 583.73 53.1986C588.683 69.2936 595.353 85.1138 601.146 100.931C603.791 108.153 606.631 119.139 610.192 125.415C599.076 126.258 587.924 125.882 576.785 126.175C558.232 126.662 539.713 126.515 521.164 126.769C513.924 126.868 506.716 127.555 499.468 127.592C447.885 127.228 396.258 128.089 344.671 128.241L185.447 127.147L115.621 125.986C101.757 125.765 87.797 126.041 73.9557 125.21C77.305 119.165 79.1971 111.434 81.4772 104.849C87.4031 87.7359 92.8575 70.4598 98.8636 53.3765C127.791 52.6518 156.767 53.1197 185.703 52.7557Z"/><defs><linearGradient id="gradient_1" gradientUnits="userSpaceOnUse" x1="489.60406" y1="449.92532" x2="612.01508" y2="545.15631"><stop offset="0" stop-color="#A5B7C1"/><stop offset="1" stop-color="#D7DAC8"/></linearGradient></defs><path fill="url(#gradient_1)" d="M557.546 428.482C589.961 429.2 622.382 427.723 654.776 427.045L654.957 432.618L654.922 481.658C654.921 488.705 655.626 496.318 654.993 503.289C656.063 514.342 655.381 526.011 655.423 537.132L655.437 604.082C655.418 609.118 654.324 624.042 655.379 627.873C644.206 627.298 632.826 627.721 621.632 627.718L543.772 628.047L541.222 628.473C536.913 628.963 531.095 628.959 527.098 630.487C520.987 623.434 515.486 615.011 510.413 607.172C508.471 604.172 506.858 600.757 504.637 597.972C503.93 596.646 503.623 595.502 503.518 594.007C503.179 589.188 503.51 584.212 503.605 579.379L504.054 554.071L504.753 471.835C504.913 458.749 505.823 441.759 504.342 428.959C522.05 428.562 539.861 429.317 557.546 428.482Z"/><path fill="#A9BCBE" d="M654.087 493.739C654.033 497.132 654.433 500.536 654.481 503.932C654.534 507.724 654.012 512.22 654.705 515.892C654.708 511.877 654.559 507.791 654.942 503.793L654.993 503.289C656.063 514.342 655.381 526.011 655.423 537.132L655.437 604.082C655.418 609.118 654.324 624.042 655.379 627.873C644.206 627.298 632.826 627.721 621.632 627.718L543.772 628.047C548.58 625.489 560.847 609.205 564.862 604.292L620.016 535.449C629.344 523.649 638.391 511.587 648.016 500.031C648.482 499.472 648.851 499.255 649.507 498.979C649.614 499.079 649.728 499.684 649.769 499.836L650.242 499.885C651.268 497.448 652.333 495.718 654.087 493.739Z"/><path fill="#A9BCBE" d="M543.772 628.047L621.632 627.718C632.826 627.721 644.206 627.298 655.379 627.873C654.661 628.041 653.947 628.207 653.222 628.346C654.358 628.387 654.943 628.221 655.849 628.942C655.54 632.207 654.703 635.279 655.467 638.563L654.567 638.788C655.748 658.318 654.558 678.141 654.658 697.707L654.879 770.094C654.89 781.261 655.153 792.5 654.928 803.659C654.916 804.255 654.858 804.549 654.566 805.065C605.523 804.174 556.365 804.816 507.31 804.788C506.744 767.592 507.672 730.299 507.806 693.094C509.93 693.108 512.08 693.163 514.201 693.052C516.525 692.93 518.598 692.305 520.188 690.557C520.7 690.123 521.172 689.67 521.618 689.167C529.433 680.356 528.878 667.317 529.15 656.324C529.264 651.702 529.602 646.954 529.292 642.34C528.454 638.823 528.657 635.275 527.547 631.681L527.098 630.487C531.095 628.959 536.913 628.963 541.222 628.473L543.772 628.047Z"/><path fill="#382F53" d="M543.772 628.047L621.632 627.718C632.826 627.721 644.206 627.298 655.379 627.873C654.661 628.041 653.947 628.207 653.222 628.346C654.358 628.387 654.943 628.221 655.849 628.942C655.54 632.207 654.703 635.279 655.467 638.563L654.567 638.788C642.938 639.147 531.05 638.068 529.693 638.847C529.147 639.971 529.275 641.122 529.292 642.34C528.454 638.823 528.657 635.275 527.547 631.681L527.098 630.487C531.095 628.959 536.913 628.963 541.222 628.473L543.772 628.047Z"/><path fill="#505471" d="M527.098 630.487C531.095 628.959 536.913 628.963 541.222 628.473C541.474 629.913 541.679 630.232 541.021 631.584C538.423 633.446 534.536 632.797 531.555 632.27C530.052 632.005 529.116 631.501 527.547 631.681L527.098 630.487Z"/><defs><linearGradient id="gradient_2" gradientUnits="userSpaceOnUse" x1="664.22119" y1="356.62146" x2="494.5173" y2="326.12585"><stop offset="0" stop-color="#A5B8BC"/><stop offset="1" stop-color="#C6D1CB"/></linearGradient></defs><path fill="url(#gradient_2)" d="M505.017 265.295C505.071 265.303 505.125 265.309 505.178 265.317C512.026 266.369 519.299 266.048 526.227 266.08L557.727 266.165C590.129 266.431 622.534 266.372 654.936 265.985C654.897 273.864 654.625 281.822 655.018 289.69L655.224 376.075L655.142 403.679C655.099 407.858 655.31 412.328 654.87 416.478L654.485 416.694L552.568 417.57C542.901 417.598 533.235 417.559 523.569 417.455C517.025 417.389 510.492 416.982 503.971 417.624C504.598 410.445 504.363 403.024 504.403 395.82L504.44 356.622C505.209 349.685 504.559 342.204 504.546 335.192L504.559 291.919C504.569 283.106 504.195 274.07 505.017 265.295Z"/><path fill="#CDD5CF" d="M506.099 413.199C506.507 412.827 507.136 412.841 507.527 413.232C507.917 413.622 507.933 414.25 507.561 414.659C507.305 414.941 506.914 415.06 506.544 414.967C506.174 414.874 505.885 414.586 505.792 414.216C505.699 413.846 505.817 413.456 506.099 413.199Z"/><path fill="#505471" d="M343.726 696.307C346.206 696.151 348.692 695.955 351.177 695.899C351.344 707.33 351.211 718.772 351.272 730.205C351.298 735.122 351.06 740.221 351.458 745.114C351.603 743.268 351.724 741.446 351.732 739.592C378.338 740.387 404.954 740.805 431.572 740.844L431.506 782.334C431.496 789.846 431.168 797.527 431.611 805.019L431.46 834.477C431.441 838.881 430.924 844.089 431.575 848.396C431.613 848.501 431.654 848.605 431.69 848.711C432.713 851.771 430.876 857.667 433.17 859.769L434.377 859.707C434.298 859.525 434.217 859.344 434.14 859.161C433.818 858.39 433.708 857.619 433.596 856.798L433.909 856.57L434.068 857.046C434.42 858.071 434.593 858.925 435.521 859.578C436.527 859.659 437.509 859.757 438.505 859.928C443.459 860.296 448.886 859.569 453.904 859.541C468.183 859.399 482.462 859.431 496.74 859.637C496.931 858.415 497.064 857.252 497.093 856.014C497.116 856.15 497.138 856.285 497.163 856.42C497.384 857.627 497.632 858.992 498.714 859.74C499.683 860.409 500.643 860.367 501.749 860.108C503.031 859.807 504.953 858.946 506.219 859.154L506.586 859.572C511.302 859.637 516.012 859.687 520.721 859.963C517.93 861.435 500.691 860.221 497.555 862.287L498.109 862.967C514.491 863.127 530.964 863.652 547.342 863.156C547.793 864.808 547.671 866.313 547.589 868L482.733 868L154.874 868C146.58 866.422 134.412 867.088 125.644 866.599C114.057 865.951 102.57 864.201 90.9375 864.179C89.9527 864.006 89.1725 863.796 88.2656 863.37L88.5103 862.922C94.841 861.63 107.208 862.691 114.035 862.762C129.993 862.928 145.953 862.976 161.912 862.906C170.242 862.885 178.851 863.331 187.139 862.608L186.46 862.296C185.031 862.044 184.182 862.133 183.158 861.01L183.398 860.29C184.751 859.454 185.708 859.473 187.273 859.482C190.447 860.326 194.839 859.91 198.079 859.474C215.669 859.568 233.258 859.556 250.847 859.437C255.262 859.58 259.679 859.631 264.096 859.59C271.634 860.497 279.839 859.975 287.438 859.986C306.567 860.013 325.898 859.338 344.999 860.231L344.629 742.66C344.735 738.363 344.347 734.064 344.248 729.768C343.993 718.631 343.689 707.445 343.726 696.307Z"/><path fill="#140C2F" d="M343.726 696.307C346.206 696.151 348.692 695.955 351.177 695.899C351.344 707.33 351.211 718.772 351.272 730.205C351.298 735.122 351.06 740.221 351.458 745.114C351.316 769.481 351.42 793.849 351.771 818.214C351.84 832.003 351.105 846.216 352.149 859.954C378.467 860.114 404.923 859.367 431.216 860.057C431.378 856.171 431.565 852.286 431.575 848.396C431.613 848.501 431.654 848.605 431.69 848.711C432.713 851.771 430.876 857.667 433.17 859.769L434.377 859.707C434.298 859.525 434.217 859.344 434.14 859.161C433.818 858.39 433.708 857.619 433.596 856.798L433.909 856.57L434.068 857.046C434.42 858.071 434.593 858.925 435.521 859.578C436.527 859.659 437.509 859.757 438.505 859.928C443.459 860.296 448.886 859.569 453.904 859.541C468.183 859.399 482.462 859.431 496.74 859.637C496.931 858.415 497.064 857.252 497.093 856.014C497.116 856.15 497.138 856.285 497.163 856.42C497.384 857.627 497.632 858.992 498.714 859.74C499.683 860.409 500.643 860.367 501.749 860.108C503.031 859.807 504.953 858.946 506.219 859.154L506.586 859.572C511.302 859.637 516.012 859.687 520.721 859.963C517.93 861.435 500.691 860.221 497.555 862.287L498.109 862.967C514.491 863.127 530.964 863.652 547.342 863.156C547.793 864.808 547.671 866.313 547.589 868L482.733 868L154.874 868C146.58 866.422 134.412 867.088 125.644 866.599C114.057 865.951 102.57 864.201 90.9375 864.179C89.9527 864.006 89.1725 863.796 88.2656 863.37L88.5103 862.922C94.841 861.63 107.208 862.691 114.035 862.762C129.993 862.928 145.953 862.976 161.912 862.906C170.242 862.885 178.851 863.331 187.139 862.608L186.46 862.296C185.031 862.044 184.182 862.133 183.158 861.01L183.398 860.29C184.751 859.454 185.708 859.473 187.273 859.482C190.447 860.326 194.839 859.91 198.079 859.474C215.669 859.568 233.258 859.556 250.847 859.437C255.262 859.58 259.679 859.631 264.096 859.59C271.634 860.497 279.839 859.975 287.438 859.986C306.567 860.013 325.898 859.338 344.999 860.231L344.629 742.66C344.735 738.363 344.347 734.064 344.248 729.768C343.993 718.631 343.689 707.445 343.726 696.307Z"/><defs><linearGradient id="gradient_3" gradientUnits="userSpaceOnUse" x1="298.21277" y1="821.71906" x2="278.81461" y2="905.69519"><stop offset="0" stop-color="#9D98A2"/><stop offset="1" stop-color="#E9EDE8"/></linearGradient></defs><path fill="url(#gradient_3)" d="M187.139 862.608C213.966 861.865 240.874 862.618 267.702 862.894C299.513 863.314 331.327 863.475 363.141 863.378C388.047 863.623 412.956 863.593 437.863 863.29C444.836 863.683 478.431 862.48 481.577 863.862C481.876 865.292 482.183 866.64 482.733 868L154.874 868C146.58 866.422 134.412 867.088 125.644 866.599C114.057 865.951 102.57 864.201 90.9375 864.179C89.9527 864.006 89.1725 863.796 88.2656 863.37L88.5103 862.922C94.841 861.63 107.208 862.691 114.035 862.762C129.993 862.928 145.953 862.976 161.912 862.906C170.242 862.885 178.851 863.331 187.139 862.608Z"/><path fill="#8E898E" d="M498.109 862.967C514.491 863.127 530.964 863.652 547.342 863.156C547.793 864.808 547.671 866.313 547.589 868L482.733 868C482.183 866.64 481.876 865.292 481.577 863.862C478.431 862.48 444.836 863.683 437.863 863.29C444.298 862.256 451.643 862.904 458.207 862.906L498.109 862.967Z"/><path fill="#505471" d="M263.733 735.991C271.899 736.878 280.182 737.005 288.386 737.315L321.703 738.49C328.832 738.677 336.696 738.052 343.703 739.171C344.433 739.969 344.464 741.613 344.629 742.66L344.999 860.231C325.898 859.338 306.567 860.013 287.438 859.986C279.839 859.975 271.634 860.497 264.096 859.59L264.286 858.704C265.142 855.109 264.018 837.811 263.971 832.569L263.314 745.561C263.732 742.434 263.642 739.148 263.733 735.991Z"/><path fill="#A9BCBE" d="M190.602 732.199C197.874 732.32 254.221 731.912 255.997 732.803L256.13 765.209C255.781 778.095 256.201 791.046 256.22 803.939L256.01 859.197C254.308 859.244 252.531 859.19 250.847 859.437C233.258 859.556 215.669 859.568 198.079 859.474C195.838 859.085 193.414 859.181 191.137 859.127C190.223 845.647 190.842 831.767 190.816 818.24C190.759 789.566 190.987 760.87 190.602 732.199Z"/><path fill="#505471" d="M506.547 815.473C520.019 815.189 533.555 815.467 547.034 815.475C582.558 815.611 618.082 815.54 653.605 815.261L656.245 815.427C657.953 819.345 655.823 852.066 656.802 859.473C657.895 850.403 656.64 841.019 657.292 831.889C658.796 836.036 656.205 852.956 657.981 858.839L660.061 858.79C661.709 853.617 658.807 836.703 660.787 832.96C661.44 840.631 659.44 854.117 661.091 860.682C661.319 861.586 662.052 862.319 662.664 862.99L664.406 863.378L664.222 868L581.228 868L547.589 868C547.671 866.313 547.793 864.808 547.342 863.156C530.964 863.652 514.491 863.127 498.109 862.967L497.555 862.287C500.691 860.221 517.93 861.435 520.721 859.963C516.012 859.687 511.302 859.637 506.586 859.572C506.047 844.9 506.333 830.151 506.547 815.473Z"/><defs><linearGradient id="gradient_4" gradientUnits="userSpaceOnUse" x1="578.36298" y1="866.53119" x2="578.96729" y2="855.55609"><stop offset="0" stop-color="#0E0911"/><stop offset="1" stop-color="#110C22"/></linearGradient></defs><path fill="url(#gradient_4)" d="M656.802 859.473C657.895 850.403 656.64 841.019 657.292 831.889C658.796 836.036 656.205 852.956 657.981 858.839L660.061 858.79C661.709 853.617 658.807 836.703 660.787 832.96C661.44 840.631 659.44 854.117 661.091 860.682C661.319 861.586 662.052 862.319 662.664 862.99L664.406 863.378L664.222 868L581.228 868L547.589 868C547.671 866.313 547.793 864.808 547.342 863.156C530.964 863.652 514.491 863.127 498.109 862.967L497.555 862.287C500.691 860.221 517.93 861.435 520.721 859.963C525.757 859.563 531.007 859.839 536.065 859.855C545.285 859.907 554.506 859.912 563.727 859.87L656.802 859.473Z"/><path fill="#74686C" d="M662.664 862.99L664.406 863.378L664.222 868L581.228 868C580.68 866.431 580.212 864.859 579.77 863.258C589.828 863.278 654.752 862.691 658.133 863.966L658.177 865.893L658.805 866.117C659.963 864.585 660.618 863.29 662.664 862.99Z"/><path fill="#74686C" d="M547.342 863.156C558.111 862.633 568.983 863.405 579.77 863.258C580.212 864.859 580.68 866.431 581.228 868L547.589 868C547.671 866.313 547.793 864.808 547.342 863.156Z"/><path fill="#382F53" d="M263.739 691.359C292.762 692.026 321.994 691.914 351.024 691.696C377.822 691.495 404.794 691.2 431.563 692.611C432.583 716.712 431.986 740.998 431.89 765.122L431.851 790.196C431.849 795.1 432.063 800.136 431.611 805.019C431.168 797.527 431.496 789.846 431.506 782.334L431.572 740.844C404.954 740.805 378.338 740.387 351.732 739.592C351.724 741.446 351.603 743.268 351.458 745.114C351.06 740.221 351.298 735.122 351.272 730.205C351.211 718.772 351.344 707.33 351.177 695.899C348.692 695.955 346.206 696.151 343.726 696.307C343.689 707.445 343.993 718.631 344.248 729.768C344.347 734.064 344.735 738.363 344.629 742.66C344.464 741.613 344.433 739.969 343.703 739.171C336.696 738.052 328.832 738.677 321.703 738.49L288.386 737.315C280.182 737.005 271.899 736.878 263.733 735.991C263.642 739.148 263.732 742.434 263.314 745.561C263.104 739.551 263.377 733.538 263.24 727.521C262.97 715.722 262.039 703.068 263.739 691.359Z"/><path fill="#A9BCBE" d="M438.835 733.472C450.08 733.793 474.439 732.254 484.884 729.16C488.394 728.12 492.155 726.29 495.117 724.147C495.746 723.692 495.683 723.803 496.401 723.846C496.098 756.958 496.08 790.071 496.348 823.184L496.433 847.479C496.448 851.348 496.04 855.853 496.74 859.637C482.462 859.431 468.183 859.399 453.904 859.541C448.886 859.569 443.459 860.296 438.505 859.928C438.184 855.144 438.456 850.142 438.515 845.339C438.633 837.034 438.701 828.729 438.718 820.424L438.678 738.873C438.817 737.085 438.796 735.266 438.835 733.472Z"/><path fill="#505471" d="M30.9759 815.839C70.3486 814.903 109.848 815.758 149.237 815.634C160.359 815.6 171.527 815.943 182.638 815.584C182.912 830.213 182.599 844.872 182.697 859.506C184.267 859.364 185.7 859.248 187.273 859.482C185.708 859.473 184.751 859.454 183.398 860.29L183.158 861.01C184.182 862.133 185.031 862.044 186.46 862.296L187.139 862.608C178.851 863.331 170.242 862.885 161.912 862.906C145.953 862.976 129.993 862.928 114.035 862.762C107.208 862.691 94.841 861.63 88.5103 862.922L88.2656 863.37C89.1725 863.796 89.9527 864.006 90.9375 864.179C87.0852 864.171 83.4334 862.648 79.5188 862.57C63.2523 862.245 46.9512 862.693 30.701 861.662C30.2335 846.462 30.8342 831.055 30.9759 815.839Z"/><path fill="#382F53" d="M182.697 859.506C184.267 859.364 185.7 859.248 187.273 859.482C185.708 859.473 184.751 859.454 183.398 860.29L183.158 861.01C184.182 862.133 185.031 862.044 186.46 862.296C182.308 862.818 172.035 862.853 167.992 862.089C169.277 862.062 173.23 862.089 174.071 861.371C172.892 861.36 169.063 861.679 168.287 861.07C172.419 859.714 179.271 861.995 182.697 859.506Z"/><path fill="#798E9C" d="M504.465 238.716C524.917 238.34 545.403 238.559 565.86 238.554L655.014 238.687C655.602 247.752 655.107 256.847 655.402 265.923C655.267 273.738 655.78 281.928 655.018 289.69C654.625 281.822 654.897 273.864 654.936 265.985C622.534 266.372 590.129 266.431 557.727 266.165L526.227 266.08C519.299 266.048 512.026 266.369 505.178 265.317C505.125 265.309 505.071 265.303 505.017 265.295C504.195 274.07 504.569 283.106 504.559 291.919L504.546 335.192C504.559 342.204 505.209 349.685 504.44 356.622C503.067 348.466 504.017 335.519 504.014 326.992C504.008 309.708 503.887 292.408 504.113 275.125C504.186 269.556 504.922 264.051 505.061 258.495C505.225 251.933 504.739 245.274 504.465 238.716Z"/><path fill="#798E9C" d="M190.43 690.285C212 690.348 233.59 690.115 255.147 690.911C255.799 699.533 255.65 708.225 255.715 716.868C255.754 722.169 256.049 727.51 255.997 732.803C254.221 731.912 197.874 732.32 190.602 732.199C190.191 718.266 190.277 704.225 190.43 690.285Z"/><path fill="#798E9C" d="M438.311 692.549L496.696 692.942C497.043 703.075 497.117 713.738 496.401 723.846C495.683 723.803 495.746 723.692 495.117 724.147C492.155 726.29 488.394 728.12 484.884 729.16C474.439 732.254 450.08 733.793 438.835 733.472C438.796 735.266 438.817 737.085 438.678 738.873C437.933 733.745 438.273 728.056 438.216 722.869C438.105 712.764 437.909 702.648 438.311 692.549Z"/><defs><linearGradient id="gradient_5" gradientUnits="userSpaceOnUse" x1="499.53598" y1="16.408789" x2="497.47101" y2="-8.607358"><stop offset="0" stop-color="#4D2320"/><stop offset="1" stop-color="#673C30"/></linearGradient></defs><path fill="url(#gradient_5)" d="M290.474 0L404.341 0L443.117 0L631.473 0L632.711 0C640.474 19.2505 646.026 39.4762 652.267 59.2542C651.442 60.4127 651.275 61.2825 651.142 62.6842L650.517 61.414C647.939 58.281 647.12 53.5814 645.886 49.7756C643.751 43.193 634.478 10.9984 631.504 7.74747C630.512 6.66248 629.927 6.47063 628.464 6.34583C624.248 5.98636 619.856 6.09607 615.621 5.97431C603.664 5.61864 591.703 5.47958 579.741 5.5572L512.291 5.22186C457.238 5.32666 402.185 5.15609 347.134 4.71015C329.606 4.52315 312.038 4.60102 294.518 4.19073C283.527 4.76286 272.255 4.2645 261.241 4.08896C262.315 3.275 271.101 2.89885 273.313 2.44248C274.418 2.00635 276.262 2.49628 277.433 2.67631C281.177 3.25183 286.81 1.09648 290.474 0Z"/><path fill="#7E534A" d="M290.474 0L404.341 0L401.602 1.59862C401.449 1.60106 401.297 1.60502 401.144 1.60593C398.265 1.62301 395.469 0.984724 392.609 0.948294C386.158 0.866132 379.47 1.18642 373.012 1.39425C371.941 1.42869 371.332 2.32026 370.338 2.4399C366.102 2.9501 359.487 2.84458 355.022 2.90605C348.805 2.99165 342.378 2.91655 336.158 2.7601C333.433 2.69159 330.65 2.34852 327.93 2.48022C324.878 2.62794 321.937 3.61892 318.845 3.72899C311.011 4.00792 302.182 2.78413 294.518 4.19073C283.527 4.76286 272.255 4.2645 261.241 4.08896C262.315 3.275 271.101 2.89885 273.313 2.44248C274.418 2.00635 276.262 2.49628 277.433 2.67631C281.177 3.25183 286.81 1.09648 290.474 0Z"/><path fill="#663611" d="M631.473 0L632.711 0C640.474 19.2505 646.026 39.4762 652.267 59.2542C651.442 60.4127 651.275 61.2825 651.142 62.6842L650.517 61.414C644.42 40.8935 637.974 20.3965 631.473 0Z"/><path fill="#4D3528" d="M404.341 0L443.117 0L443.334 1.9015L442.934 2.39073C439.163 2.51071 435.113 0.0644671 431.483 1.45118C429.239 2.30855 404.249 2.39685 401.602 1.59862L404.341 0Z"/><path fill="#4D3528" d="M663.01 402.805C665.495 412.283 664.574 433.937 664.615 444.866L665.12 483.939C665.174 486.937 664.59 490.165 664.957 493.12C665.613 492.479 665.644 490.271 665.898 489.271C666.402 525.138 665.881 561.091 665.706 596.965L664.91 748.684C664.582 786.865 663.66 825.212 664.406 863.378L662.664 862.99C662.052 862.319 661.319 861.586 661.091 860.682C659.44 854.117 661.44 840.631 660.787 832.96C661.649 824.783 661.214 816.267 661.185 808.039C661.138 794.808 661.111 781.622 660.741 768.396C660.615 763.88 661.01 759.358 661.049 754.842L661.095 725.65L661.872 526.597L661.984 460.036C661.965 451.274 661.328 442.516 661.551 433.757C661.66 429.472 663.033 425.427 663.172 421.232C663.377 415.073 662.626 409.025 663.01 402.805Z"/><defs><linearGradient id="gradient_6" gradientUnits="userSpaceOnUse" x1="26.853745" y1="93.086441" x2="35.351185" y2="96.171165"><stop offset="0" stop-color="#2E0F0E"/><stop offset="1" stop-color="#3F2643"/></linearGradient></defs><path fill="url(#gradient_6)" d="M58.4065 3.469C64.5103 3.24381 70.7618 3.70221 76.8801 3.81116L76.7606 4.20234C75.2313 4.17612 73.5979 4.13701 72.1128 4.53291C71.5747 4.67636 68.7973 5.86839 68.4793 5.78375C68.3 5.73603 68.1809 5.56313 68.0317 5.45282L67.9716 4.49511C65.95 4.03003 62.2517 4.14403 60.2347 4.56917C60.2339 5.2433 60.1046 5.05739 60.589 5.51311C61.6004 6.46456 66.3583 6.86369 67.8124 6.93197C65.1782 8.36669 62.5823 6.71898 60.1923 7.48295C60.0271 9.73721 60.324 14.7421 58.8092 16.3707C58.4747 16.7304 58.4994 16.6332 58.0095 16.6528C58.2583 15.3897 58.97 13.3184 58.4208 12.1379C56.0122 14.4134 56.0072 19.7054 55.9144 22.8037C55.8827 23.8599 55.9005 24.4361 56.6118 25.2334C59.8076 23.3014 58.6044 14.26 64.0233 15.395C54.5602 38.4781 46.8039 62.1675 38.0621 85.5271C35.1558 93.2929 31.9902 103.737 28.2865 110.956C22.9791 126.272 14.4029 145.144 11.2562 160.693L11.1328 162.315C9.78186 164.512 11.0541 167.534 10.3722 169.929L9.11655 170.026C7.64575 171.902 9.18132 178.709 7.89218 182.278C6.83775 178.506 7.38095 172.85 7.29042 168.851C7.25836 167.434 6.51839 166.081 5.94752 164.809C6.45149 154.61 9.12037 145.421 11.4233 135.586C10.4029 136.519 9.78451 137.118 8.39874 137.36C9.8513 132.509 11.5233 127.756 13.2312 122.989C16.4367 114.595 19.2226 105.992 22.2617 97.5321L51.6113 15.1595L52.0467 15.1066C53.7825 13.658 54.9315 9.20967 56.1786 7.1304C56.755 5.87487 57.6738 4.64894 58.4065 3.469Z"/><path fill="#663611" d="M56.1786 7.1304C56.195 8.66251 56.0927 10.2164 55.652 11.6921C54.8529 14.3679 53.5369 16.8935 52.6666 19.5514C51.7062 22.4842 51.2172 25.5587 50.2187 28.4777C47.4438 36.5902 43.8874 44.4341 41.0717 52.5232C35.9529 67.2295 30.4983 81.7982 25.2417 96.4523C22.1127 105.175 19.3883 114.193 15.847 122.747C14.7011 126.9 13.6343 131.87 11.4233 135.586C10.4029 136.519 9.78451 137.118 8.39874 137.36C9.8513 132.509 11.5233 127.756 13.2312 122.989C16.4367 114.595 19.2226 105.992 22.2617 97.5321L51.6113 15.1595L52.0467 15.1066C53.7825 13.658 54.9315 9.20967 56.1786 7.1304Z"/><path fill="#2E2536" d="M12.3485 146.404C13.141 145.607 13.7227 144.806 14.1669 143.768C15.2391 141.262 15.558 138.189 16.376 135.559C18.1225 129.943 23.3146 117.253 23.8898 112.365C23.9047 112.238 23.9155 112.11 23.9284 111.983C24.3427 112.514 24.1889 113.882 24.2157 114.584L24.5618 114.554C24.586 114.428 24.6083 114.302 24.6344 114.176L24.7585 113.606C25.0193 112.356 25.229 111.865 26.1216 110.926C27.2589 110.519 27.2031 110.448 28.2865 110.956C22.9791 126.272 14.4029 145.144 11.2562 160.693C11.1608 160.59 11.0547 160.496 10.9699 160.385C9.14493 157.981 12.1367 149.568 12.3485 146.404Z"/><path fill="#2E2536" d="M657.051 437.536C656.517 438.608 655.735 439.506 656.031 440.69L656.452 440.38C658.634 450.922 654.46 473.432 657.407 481.625C658.081 483.501 657.135 485.933 658.095 487.577C658.939 485.029 658.556 481.487 658.635 478.783C658.798 473.19 659.057 467.578 659.035 461.981C659.012 456.37 656.936 430.309 660.436 427.202C660.945 427.645 660.886 427.411 660.926 427.899C661.197 431.238 659.843 434.569 659.812 437.896C659.734 445.951 660.425 454.146 660.542 462.214C660.602 466.339 660.097 470.447 660.078 474.574L659.572 597.142C659.581 600.801 661.09 626.438 659.986 627.917C659.143 627.183 659.075 626.412 659.022 625.302C658.689 618.368 658.958 611.405 658.583 604.45L658.273 605.577L657.716 605.311C657.717 605.325 657.722 605.34 657.717 605.353C657.646 605.524 657.544 605.684 657.49 605.861C656.834 608.007 657.518 612.053 657.37 614.453C657.112 618.64 655.988 622.656 655.706 626.816C655.663 627.451 655.693 627.217 655.379 627.873C654.324 624.042 655.418 609.118 655.437 604.082L655.423 537.132C655.381 526.011 656.063 514.342 654.993 503.289C655.626 496.318 654.921 488.705 654.922 481.658L654.957 432.618C655.161 434.307 656.137 436.111 657.051 437.536Z"/><path fill="#663611" d="M663.01 402.805C662.283 362.128 663.263 321.492 663.644 280.821C663.718 272.968 662.707 245.815 664.332 240.128C665.77 235.095 678.665 236.984 682.388 234.4C682.575 234.27 682.749 234.124 682.929 233.985L684.028 235.135C679.903 238.106 671.906 238.93 666.873 239.228L666.045 422.446L665.993 468.695C665.991 475.382 666.599 482.667 665.898 489.271C665.644 490.271 665.613 492.479 664.957 493.12C664.59 490.165 665.174 486.937 665.12 483.939L664.615 444.866C664.574 433.937 665.495 412.283 663.01 402.805Z"/><path fill="#987168" d="M58.5603 0L141.029 0L204.795 0C199.538 2.9516 180.348 3.20367 179.004 4.12988C169.488 4.4092 159.906 4.15768 150.381 4.19265L76.7606 4.20234L76.8801 3.81116C70.7618 3.70221 64.5103 3.24381 58.4065 3.469C57.6738 4.64894 56.755 5.87487 56.1786 7.1304C54.9315 9.20967 53.7825 13.658 52.0467 15.1066L51.6113 15.1595C53.4212 9.78884 55.2271 4.63904 58.5603 0Z"/><defs><linearGradient id="gradient_7" gradientUnits="userSpaceOnUse" x1="103.88268" y1="5.4585733" x2="102.55075" y2="-1.692199"><stop offset="0" stop-color="#A37A70"/><stop offset="1" stop-color="#B3907E"/></linearGradient></defs><path fill="url(#gradient_7)" d="M58.5603 0L141.029 0C136.752 1.70808 132.751 1.27219 128.286 1.70986C121.54 2.37103 114.771 3.66264 107.993 3.77886C100.56 3.90632 82.9408 2.63938 76.8801 3.81116C70.7618 3.70221 64.5103 3.24381 58.4065 3.469C57.6738 4.64894 56.755 5.87487 56.1786 7.1304C54.9315 9.20967 53.7825 13.658 52.0467 15.1066L51.6113 15.1595C53.4212 9.78884 55.2271 4.63904 58.5603 0Z"/><path fill="#2E2536" d="M655.402 265.923C656.176 269.305 655.931 273.075 655.941 276.531C655.965 284.922 655.34 293.65 656.005 302.005C656.045 299.204 656.103 296.404 656.179 293.604C656.555 294.661 656.761 295.932 657.673 296.595C658.58 295.679 658.762 282.577 658.759 280.29C658.757 279.079 658.745 277.92 658.546 276.723C658.224 274.777 658.795 271.756 659.772 270.07C660.915 271.895 660.221 310.668 659.178 315.11C658.104 319.678 656.987 323.023 657.337 327.792L657.733 328.248C658.732 326.373 659.441 319.813 659.883 319.665C660.086 322.276 659.985 325.156 659.56 327.741C659.11 330.479 655.771 339.381 657.658 341.536L659.189 340.73C659.895 341.298 659.818 341.471 659.93 342.378C660.416 346.327 660.349 379.316 659.693 381.376L659.059 381.304C658.893 380.642 658.999 380.243 659.107 379.586C659.54 376.948 659.392 374.004 658.877 371.386L658.517 370.97C656.346 376.932 660.139 384.583 656.256 389.808C655.994 388.418 655.929 387.093 655.891 385.681C655.816 393.079 654.912 406.971 656.036 413.705L656.244 411.341L656.593 411.169C657.13 413.399 657.183 415.337 657.081 417.623L658.055 417.247C658.337 419.105 656.604 419.763 657.767 422.029C658.218 422.032 658.448 422.019 658.887 421.878C658.971 424.951 657.39 427.749 657.423 430.997C657.424 431.101 657.416 431.205 657.413 431.309C656.556 428.862 654.594 418.73 654.87 416.478C655.31 412.328 655.099 407.858 655.142 403.679L655.224 376.075L655.018 289.69C655.78 281.928 655.267 273.738 655.402 265.923Z"/><path fill="#382F53" d="M655.467 638.563C655.632 637.324 655.826 636.088 656.048 634.857L655.799 634.614C655.87 634.519 655.947 634.429 656.012 634.33C656.3 633.887 656.315 633.595 656.356 633.085L656.432 634.064L656.066 634.467C656.003 636.746 656.802 638.246 657.153 640.403C657.77 644.193 657.931 648.456 657.963 652.296C658.008 657.682 657.325 663.162 657.147 668.559C656.837 679.014 656.683 689.473 656.685 699.932C656.549 715.433 657.278 730.973 657.282 746.473L657.26 781.548C657.219 786.546 656.826 791.589 656.922 796.574C656.987 799.922 657.716 803.237 657.806 806.564C657.847 808.102 656.774 808.083 656.283 809.193C655.442 811.098 657.016 813.367 656.245 815.427L653.605 815.261L653.402 814.781C654.388 814.652 655.058 814.446 655.966 814.039L656.174 813.311C655.824 812.714 655.514 812.404 654.823 812.208C650.162 810.886 628.856 813.602 626.662 812.115C631.708 811.681 647.84 811.774 651.339 809.911C653.233 808.902 653.81 807.514 654.409 805.578L654.566 805.065C654.858 804.549 654.916 804.255 654.928 803.659C655.153 792.5 654.89 781.261 654.879 770.094L654.658 697.707C654.558 678.141 655.748 658.318 654.567 638.788L655.467 638.563Z"/><path fill="#505471" d="M654.485 416.694C653.625 417.076 653.06 417.267 652.101 417.33C641.281 418.419 630.202 417.162 619.329 417.923L619.303 418.146L618.97 418.05L619.662 417.882L619.64 418.182C626.667 418.94 633.974 418.21 640.924 419.514C630.988 421.289 621.581 420.747 611.545 420.522C602.486 420.318 593.306 420.217 584.25 420.323L551.555 421.005C544.001 421.217 535.497 421.913 528.045 420.762L527.505 420.674C526.815 421.166 526.427 421.3 525.586 421.394L525.233 421.051L525.626 420.267C531.483 416.516 545.95 421.165 553.546 418.7C543.863 418.069 533.898 418.538 524.18 418.5C518.432 418.478 512.517 417.891 506.804 418.176L506.602 418.528C509.229 418.821 513.097 418.436 515.454 419.397C513.522 420.742 509.487 420.67 507.209 420.771C504.666 420.884 505.674 419.172 503.971 417.624C510.492 416.982 517.025 417.389 523.569 417.455C533.235 417.559 542.901 417.598 552.568 417.57L654.485 416.694Z"/><defs><linearGradient id="gradient_8" gradientUnits="userSpaceOnUse" x1="609.52722" y1="437.01331" x2="615.88318" y2="409.74255"><stop offset="0" stop-color="#151328"/><stop offset="1" stop-color="#2F3765"/></linearGradient></defs><path fill="url(#gradient_8)" d="M654.485 416.694L654.87 416.478C654.594 418.73 656.556 428.862 657.413 431.309C657.968 433.276 657.104 435.493 657.051 437.536C656.137 436.111 655.161 434.307 654.957 432.618L654.776 427.045C622.382 427.723 589.961 429.2 557.546 428.482C559.828 426.75 565.802 429.037 568.443 428.091C569.05 427.873 569.62 427.095 570.227 426.898C573.125 425.956 585.652 426.42 589.441 426.336C594.172 426.232 598.855 425.99 603.56 425.479C602.803 425.031 602.202 424.744 601.794 423.922C602.327 423.934 602.752 423.968 603.234 423.7C604.706 422.879 629.112 422.465 632.683 422.554C636.741 422.656 642.192 423.797 646.128 422.935C648.246 422.471 652.052 420.123 653.255 418.305L653.104 417.62L652.101 417.33C653.06 417.267 653.625 417.076 654.485 416.694Z"/><path fill="#8F685D" d="M204.795 0L261.821 0L290.474 0C286.81 1.09648 281.177 3.25183 277.433 2.67631C276.262 2.49628 274.418 2.00635 273.313 2.44248C271.101 2.89885 262.315 3.275 261.241 4.08896C243.72 4.26523 226.196 4.26152 208.675 4.07784C198.785 4.25019 188.894 4.26754 179.004 4.12988C180.348 3.20367 199.538 2.9516 204.795 0Z"/><path fill="#987168" d="M208.675 4.07784C209.931 3.15892 218.879 3.60521 221.095 3.40937C226.152 2.96241 231.031 1.75962 236.153 1.74777C242.266 1.73361 249.941 3.52435 255.88 2.07997C259.142 2.48433 262.125 2.85618 265.427 2.75825C268.028 2.68108 270.733 2.24257 273.313 2.44248C271.101 2.89885 262.315 3.275 261.241 4.08896C243.72 4.26523 226.196 4.26152 208.675 4.07784Z"/><path fill="#9B4F00" d="M651.142 62.6842C651.275 61.2825 651.442 60.4127 652.267 59.2542C656.366 71.3746 683.833 155.352 683.331 161.642L683.099 162.894C681.882 157.775 679.804 152.772 678.025 147.831C675.594 141.022 673.233 134.189 670.942 127.333C663.916 105.925 657.739 84.2279 651.142 62.6842Z"/><path fill="#675B49" d="M683.752 174.041C685.585 173.907 686.443 174.06 688 174.995L688 201.992C685.812 203.149 684.636 204.004 683.678 206.384C683.367 195.618 683.639 184.81 683.752 174.041Z"/><path fill="#140C2F" d="M520.188 690.557L519.673 689.855C524.581 684.395 526.842 678.922 527.631 671.683C528.124 667.157 529.559 640.99 527.979 639.027C527.099 639.032 525.932 639.152 525.114 638.807C524.1 638.379 523.598 636.875 523.326 635.884C522.913 634.379 522.769 632.87 523.626 631.5C524.15 630.663 524.808 630.729 525.729 630.501C518.332 620.362 510.068 609.861 504.336 598.678L504.637 597.972C506.858 600.757 508.471 604.172 510.413 607.172C515.486 615.011 520.987 623.434 527.098 630.487L527.547 631.681C528.657 635.275 528.454 638.823 529.292 642.34C529.602 646.954 529.264 651.702 529.15 656.324C528.878 667.317 529.433 680.356 521.618 689.167C521.172 689.67 520.7 690.123 520.188 690.557Z"/><defs><linearGradient id="gradient_9" gradientUnits="userSpaceOnUse" x1="4.2591319" y1="146.10414" x2="9.305871" y2="148.88023"><stop offset="0" stop-color="#5E2C15"/><stop offset="1" stop-color="#47201C"/></linearGradient></defs><path fill="url(#gradient_9)" d="M8.39874 137.36C9.78451 137.118 10.4029 136.519 11.4233 135.586C9.12037 145.421 6.45149 154.61 5.94752 164.809L5.24777 164.424C5.01607 163.14 4.7691 161.859 4.61155 160.564C2.62104 165.722 4.4756 176.639 3.81128 182.77C3.37945 180.309 3.70785 177.748 3.16531 175.34C2.82838 159.335 3.32606 152.679 8.39874 137.36Z"/><path fill="#505471" d="M256.13 765.209C257.377 774.58 256.541 786.728 256.546 796.427C256.593 817.021 256.529 837.615 256.354 858.209C259.025 858.263 261.637 858.345 264.286 858.704L264.096 859.59C259.679 859.631 255.262 859.58 250.847 859.437C252.531 859.19 254.308 859.244 256.01 859.197L256.22 803.939C256.201 791.046 255.781 778.095 256.13 765.209Z"/><path fill="#876328" d="M683.331 161.642C683.689 162.92 683.605 163.438 684.731 164.197L688 164.011L688 174.995C686.443 174.06 685.585 173.907 683.752 174.041C683.818 170.301 683.654 166.596 683.099 162.894L683.331 161.642Z"/><path fill="#505471" d="M10.8999 171.486C61.1986 172.159 111.56 171.6 161.865 171.631L483.313 171.595L606.487 171.704C629.001 171.729 651.668 171.13 674.163 172.003C674.753 177.457 675.195 182.926 675.49 188.404C675.7 192.835 677.104 225.298 676.286 226.933C676.156 227.195 675.893 227.367 675.696 227.583C662.21 227.241 648.776 227.492 635.291 227.501L569.22 227.509L401.306 227.147C305.755 226.475 210.202 226.327 114.65 226.703L39.4668 226.341C29.6468 226.288 19.846 225.991 10.0238 226.123C10.2886 207.919 10.3802 189.683 10.8999 171.486Z"/><defs><linearGradient id="gradient_10" gradientUnits="userSpaceOnUse" x1="52.657898" y1="475.05103" x2="149.62531" y2="565.76453"><stop offset="0" stop-color="#9ABBC9"/><stop offset="1" stop-color="#D6E6D6"/></linearGradient></defs><path fill="url(#gradient_10)" d="M31.955 429.342C39.7351 430.261 48.0884 429.738 55.9353 429.741L96.7853 429.684C103.513 429.276 110.381 429.613 117.128 429.651L149.53 429.69L172.307 429.695C176.12 429.701 180.528 429.283 184.272 430.002L184.683 430.488C184.77 444.881 184.475 459.284 184.459 473.681C184.449 482.158 185.051 491.17 184.372 499.579C184.97 517.438 184.539 535.417 184.527 553.294C184.518 567.655 185.066 582.283 184.284 596.604C180.424 602.627 175.914 608.352 171.685 614.128C168.395 618.621 165.253 623.497 161.526 627.627C142.958 627.074 124.219 627.665 105.637 627.661C98.1118 627.659 89.9417 628.21 82.479 627.336C75.0404 628.022 67.0377 627.472 59.5573 627.439C49.9297 627.396 40.1126 627.741 30.509 627.131C29.0322 571.627 29.8013 516.004 29.8751 460.485C29.8799 456.877 29.2064 432.044 29.7951 430.39C29.8966 430.105 30.1368 429.891 30.3077 429.641L31.955 429.342Z"/><path fill="#A9BCBE" d="M93.9715 627.083C94.4476 626.167 94.9397 625.258 95.4476 624.359C99.8031 616.661 105.812 609.713 111.074 602.601C118.636 592.266 126.092 581.853 133.439 571.365C144.095 556.256 154.258 540.805 164.975 525.739C168.91 520.209 173.008 513.385 177.741 508.548C179.167 507.091 181.591 506.571 183.506 506.043C184.476 504.217 184.245 501.644 184.372 499.579C184.97 517.438 184.539 535.417 184.527 553.294C184.518 567.655 185.066 582.283 184.284 596.604C180.424 602.627 175.914 608.352 171.685 614.128C168.395 618.621 165.253 623.497 161.526 627.627C142.958 627.074 124.219 627.665 105.637 627.661C98.1118 627.659 89.9417 628.21 82.479 627.336C86.2093 626.872 90.2037 627.104 93.9715 627.083Z"/><path fill="#CDD5CF" d="M31.955 429.342C39.7351 430.261 48.0884 429.738 55.9353 429.741L96.7853 429.684C96.6351 429.847 96.4864 430.012 96.3345 430.173C92.0643 434.713 86.8492 438.605 82.4222 443.087C76.2207 449.367 38.3516 490.891 36.23 495.972C34.0005 501.312 35.6631 580.921 35.8849 595.054C35.9825 601.272 35.5162 607.387 35.4822 613.584C35.4577 618.058 35.8785 622.517 35.8158 626.997L30.509 627.131C29.0322 571.627 29.8013 516.004 29.8751 460.485C29.8799 456.877 29.2064 432.044 29.7951 430.39C29.8966 430.105 30.1368 429.891 30.3077 429.641L31.955 429.342Z"/><path fill="#A9BCBE" d="M32.8969 238.1C63.8758 237.553 94.9801 238.247 125.97 238.245L163.397 238.223C170.359 238.22 177.502 237.885 184.436 238.456C184.491 248.171 184.482 257.887 184.408 267.603L184.133 308.384C184.093 314.723 184.456 321.296 184.051 327.609C184.966 340.681 184.548 354.042 184.587 367.147C184.638 384.319 184.958 401.585 184.319 418.747C149.198 419.062 114.076 419.148 78.954 419.005C73.6515 419.066 68.3485 419.084 63.0456 419.057C51.8193 419.368 40.5356 419.101 29.3034 419.06C28.774 394.896 28.4347 370.728 28.2856 346.559C27.9772 319.717 27.9373 292.872 28.1658 266.029C28.2468 260.479 27.5973 242.887 28.7485 238.706C30.007 237.875 31.4079 238.13 32.8969 238.1Z"/><path fill="#CDD5CF" d="M178.022 267.753L184.408 267.603L184.133 308.384C184.093 314.723 184.456 321.296 184.051 327.609C184.966 340.681 184.548 354.042 184.587 367.147C184.638 384.319 184.958 401.585 184.319 418.747C149.198 419.062 114.076 419.148 78.954 419.005C73.6515 419.066 68.3485 419.084 63.0456 419.057C61.8056 418.099 34.4505 418.573 30.5494 418.458C35.895 411.911 43.2104 406.433 49.3182 400.571C61.933 388.375 74.3512 375.978 86.5681 363.383C99.0812 350.458 110.959 336.992 123.188 323.808C132.612 313.649 142.345 303.739 151.991 293.79C160.486 285.028 168.686 275.625 178.022 267.753Z"/><path fill="#A9BCBE" d="M184.051 327.609C184.966 340.681 184.548 354.042 184.587 367.147C184.638 384.319 184.958 401.585 184.319 418.747C149.198 419.062 114.076 419.148 78.954 419.005C81.7695 417.261 102.49 419.736 107.925 418.372L106.795 418.286L106.623 417.973C109.783 411.975 124.415 397.033 129.833 390.816C141.317 377.636 152.767 364.541 164.461 351.549C168.916 346.598 173.161 340.921 178.143 336.51C179.631 335.193 180.953 334.988 182.895 335.131C183.029 335.141 183.163 335.155 183.297 335.166C184.091 334.45 183.965 329.055 184.051 327.609Z"/><path fill="#798E9C" d="M32.8969 238.1C63.8758 237.553 94.9801 238.247 125.97 238.245L163.397 238.223C170.359 238.22 177.502 237.885 184.436 238.456C184.491 248.171 184.482 257.887 184.408 267.603L178.022 267.753C172.542 267.154 166.709 267.415 161.186 267.393L128.612 267.469L33.9489 267.786C33.7083 260.809 34.8784 243.547 32.8969 238.1Z"/><path fill="#A9BCBE" d="M193.439 238.124L284.258 238.204C303.982 238.238 323.762 237.996 343.475 238.616C344.446 246.945 344.181 255.792 344.449 264.195C345.115 265.429 345.51 266.313 345.566 267.73C345.814 273.964 345.228 280.237 345.094 286.471C344.924 294.407 345.102 302.412 345.114 310.354C345.121 314.511 345.477 318.648 345.526 322.799L345.959 380.2L345.918 403.763C345.898 409.505 345.632 415.4 346.458 421.098C346.732 422.985 347.768 425.745 349.367 426.885L350.103 426.625C351.873 422.475 350.808 415.446 350.983 410.873C351.986 384.682 351.49 358.284 351.274 332.07C351.159 318.085 351.487 304.103 351.418 290.12C351.357 277.559 351.06 265.011 351.219 252.45C351.275 247.955 350.993 243.225 351.506 238.775C351.519 238.661 351.534 238.548 351.548 238.435C352.653 247.833 351.874 258.21 351.86 267.708L351.816 324.842C351.826 332.595 351.234 341.18 352.189 348.86L351.843 417.401C351.142 420.748 351.534 424.672 351.545 428.101C348.992 427.92 346.395 427.453 343.851 427.129C344.62 425.644 345.446 424.083 345.784 422.432C346.066 421.055 345.938 419.916 345.143 418.741C344.589 417.923 343.853 418.009 342.925 417.807C337.382 417.178 331.574 417.494 325.995 417.555L300.306 417.891C294.459 417.506 288.317 417.89 282.435 417.905C269.748 417.961 257.06 417.944 244.373 417.855L210.582 418.451C204.909 419.169 199.054 418.236 193.403 419.063C193.046 413.358 193.311 407.502 193.311 401.783L193.304 369.371L193.364 273.53C192.852 261.708 193.095 249.944 193.439 238.124Z"/><path fill="#CDD5CF" d="M344.449 264.195C345.115 265.429 345.51 266.313 345.566 267.73C345.814 273.964 345.228 280.237 345.094 286.471C344.924 294.407 345.102 302.412 345.114 310.354C345.121 314.511 345.477 318.648 345.526 322.799L345.959 380.2L345.918 403.763C345.898 409.505 345.632 415.4 346.458 421.098C346.732 422.985 347.768 425.745 349.367 426.885L350.103 426.625C351.873 422.475 350.808 415.446 350.983 410.873C351.986 384.682 351.49 358.284 351.274 332.07C351.159 318.085 351.487 304.103 351.418 290.12C351.357 277.559 351.06 265.011 351.219 252.45C351.275 247.955 350.993 243.225 351.506 238.775C351.519 238.661 351.534 238.548 351.548 238.435C352.653 247.833 351.874 258.21 351.86 267.708L351.816 324.842C351.826 332.595 351.234 341.18 352.189 348.86L351.843 417.401C351.142 420.748 351.534 424.672 351.545 428.101C348.992 427.92 346.395 427.453 343.851 427.129C344.62 425.644 345.446 424.083 345.784 422.432C346.066 421.055 345.938 419.916 345.143 418.741C344.589 417.923 343.853 418.009 342.925 417.807C337.382 417.178 331.574 417.494 325.995 417.555L300.306 417.891C294.459 417.506 288.317 417.89 282.435 417.905C269.748 417.961 257.06 417.944 244.373 417.855L210.582 418.451C210.791 418.07 210.992 417.691 211.223 417.324C213.682 413.41 218.574 409.629 221.838 406.249C229.135 398.695 236.308 390.962 243.418 383.231C256.076 369.466 333.246 279.138 341.759 277.679C342.301 277.586 342.492 277.619 342.915 277.982C344.541 279.375 344.154 283.703 344.267 285.75C345.269 279.677 344.656 272.682 344.626 266.505L344.449 264.195Z"/><path fill="#A9BCBE" d="M344.449 264.195C345.115 265.429 345.51 266.313 345.566 267.73C345.814 273.964 345.228 280.237 345.094 286.471C344.924 294.407 345.102 302.412 345.114 310.354C345.121 314.511 345.477 318.648 345.526 322.799L345.959 380.2L345.918 403.763C345.898 409.505 345.632 415.4 346.458 421.098C346.732 422.985 347.768 425.745 349.367 426.885L350.103 426.625C351.873 422.475 350.808 415.446 350.983 410.873C351.986 384.682 351.49 358.284 351.274 332.07C351.159 318.085 351.487 304.103 351.418 290.12C351.357 277.559 351.06 265.011 351.219 252.45C351.275 247.955 350.993 243.225 351.506 238.775C351.519 238.661 351.534 238.548 351.548 238.435C352.653 247.833 351.874 258.21 351.86 267.708L351.816 324.842C351.826 332.595 351.234 341.18 352.189 348.86L351.843 417.401C351.142 420.748 351.534 424.672 351.545 428.101C348.992 427.92 346.395 427.453 343.851 427.129C344.62 425.644 345.446 424.083 345.784 422.432C346.066 421.055 345.938 419.916 345.143 418.741C344.589 417.923 343.853 418.009 342.925 417.807C337.382 417.178 331.574 417.494 325.995 417.555L300.306 417.891C294.459 417.506 288.317 417.89 282.435 417.905C269.748 417.961 257.06 417.944 244.373 417.855C249.982 416.937 255.874 417.827 261.55 417.33L260.883 415.51C268.91 401.751 286.584 384.242 297.555 371.625C305.175 362.818 312.694 353.924 320.113 344.947C324.661 339.428 329.06 333.629 333.904 328.373C337.206 324.791 340.986 321.654 344.403 318.176C343.986 307.388 344.303 296.547 344.267 285.75C345.269 279.677 344.656 272.682 344.626 266.505L344.449 264.195Z"/><path fill="#382F53" d="M344.449 264.195C345.115 265.429 345.51 266.313 345.566 267.73C345.814 273.964 345.228 280.237 345.094 286.471C344.924 294.407 345.102 302.412 345.114 310.354C345.121 314.511 345.477 318.648 345.526 322.799L345.959 380.2L345.918 403.763C345.898 409.505 345.632 415.4 346.458 421.098C346.732 422.985 347.768 425.745 349.367 426.885L350.103 426.625C351.873 422.475 350.808 415.446 350.983 410.873C351.986 384.682 351.49 358.284 351.274 332.07C351.159 318.085 351.487 304.103 351.418 290.12C351.357 277.559 351.06 265.011 351.219 252.45C351.275 247.955 350.993 243.225 351.506 238.775C351.519 238.661 351.534 238.548 351.548 238.435C352.653 247.833 351.874 258.21 351.86 267.708L351.816 324.842C351.826 332.595 351.234 341.18 352.189 348.86L351.843 417.401C351.142 420.748 351.534 424.672 351.545 428.101C348.992 427.92 346.395 427.453 343.851 427.129C344.62 425.644 345.446 424.083 345.784 422.432C346.066 421.055 345.938 419.916 345.143 418.741C344.589 417.923 343.853 418.009 342.925 417.807C343.614 417.71 344.19 417.552 344.844 417.313C345.841 413.49 345.099 395.731 345.091 390.556L344.921 346.746C344.903 337.254 345.264 327.638 344.403 318.176C343.986 307.388 344.303 296.547 344.267 285.75C345.269 279.677 344.656 272.682 344.626 266.505L344.449 264.195Z"/><path fill="#798E9C" d="M193.439 238.124L284.258 238.204C303.982 238.238 323.762 237.996 343.475 238.616C344.446 246.945 344.181 255.792 344.449 264.195L344.626 266.505C332.13 265.432 319.091 266.601 306.513 266.625L235.48 267.176C221.497 267.318 207.497 267.65 193.515 267.292C193.512 269.335 193.641 271.508 193.364 273.53C192.852 261.708 193.095 249.944 193.439 238.124Z"/><path fill="#A9BCBE" d="M351.548 238.435C378.494 238.23 405.441 238.268 432.386 238.549C453.381 238.583 474.577 237.96 495.546 238.733C495.581 247.973 495.803 257.263 495.516 266.497C495.193 300.278 495.064 334.059 495.127 367.841L495.09 400.332C495.085 406.14 494.76 412.181 495.261 417.96L495.265 418.939C494.664 419.251 494.326 419.635 493.88 420.133C493.456 420.606 493.175 420.904 492.652 421.281L492.508 419.883C489.69 419.243 486.389 419.826 483.457 419.686C483.234 419.383 482.974 418.99 482.702 418.736C482.149 418.218 481.371 418.037 480.638 417.98C476.968 417.697 472.959 418.089 469.242 418.089C460.597 418.088 451.945 418.009 443.301 418.119C445.06 419.153 460.782 418.194 464.067 418.351C468.257 418.551 472.293 419.547 476.484 419.651C477.084 419.666 477.182 419.665 477.75 419.936C475.554 420.553 473.219 420.756 470.945 420.818C462.165 421.058 453.486 420.252 444.743 420.03C437.861 419.856 411.198 420.631 407.379 419.116L407.389 418.759C408.33 418.764 409.231 418.791 410.157 418.591C407.457 418.536 397.981 417.7 395.902 418.753C397 418.748 398.596 418.514 399.514 419.173C395.606 421.007 362.942 419.445 356.151 419.742C356.469 420.026 356.752 420.248 356.984 420.61C355.002 419.81 354.393 417.942 352.176 417.461C352.065 417.438 351.954 417.421 351.843 417.401L352.189 348.86C351.234 341.18 351.826 332.595 351.816 324.842L351.86 267.708C351.874 258.21 352.653 247.833 351.548 238.435Z"/><path fill="#CDD5CF" d="M351.548 238.435C378.494 238.23 405.441 238.268 432.386 238.549C453.381 238.583 474.577 237.96 495.546 238.733C495.581 247.973 495.803 257.263 495.516 266.497C494.717 266.153 493.996 266.224 493.139 266.214C484.124 265.788 475.008 266.086 465.985 266.158C458.135 266.221 450.284 266.037 442.436 266.178C451.632 267.691 462.651 266.73 472.025 266.691C462.731 277.929 454.622 290.228 444.874 301.07C428.702 319.055 411.11 335.753 394.777 353.589C385.781 363.412 377.234 373.909 369.061 384.425C364.877 389.807 357.816 398.918 356.785 405.475C356.488 407.364 356.453 411.626 354.555 412.464C353.679 411.508 353.372 410.348 352.952 409.145L353.156 409.5L352.85 410.01C352.767 412.254 352.742 414.39 353.006 416.623L357.639 416.67C356.545 416.82 355.48 416.979 354.407 417.242L351.843 417.401L352.189 348.86C351.234 341.18 351.826 332.595 351.816 324.842L351.86 267.708C351.874 258.21 352.653 247.833 351.548 238.435Z"/><path fill="#798E9C" d="M351.548 238.435C378.494 238.23 405.441 238.268 432.386 238.549C453.381 238.583 474.577 237.96 495.546 238.733C495.581 247.973 495.803 257.263 495.516 266.497C494.717 266.153 493.996 266.224 493.139 266.214C484.124 265.788 475.008 266.086 465.985 266.158C458.135 266.221 450.284 266.037 442.436 266.178C428.475 265.952 414.513 265.821 400.55 265.784C391.272 265.753 381.959 265.571 372.697 266.179C367.59 266.182 356.93 265.325 352.282 266.187L352.246 322.34C352.249 331.104 352.765 340.14 352.189 348.86C351.234 341.18 351.826 332.595 351.816 324.842L351.86 267.708C351.874 258.21 352.653 247.833 351.548 238.435Z"/><path fill="#A9BCBE" d="M352.282 266.187C356.93 265.325 367.59 266.182 372.697 266.179C365.282 267.553 364.29 273.16 359.572 277.938C359.94 275.534 361.156 271.178 359.543 269.173C357.819 267.029 354.596 267.239 352.282 266.187Z"/><defs><linearGradient id="gradient_11" gradientUnits="userSpaceOnUse" x1="466.21469" y1="332.43701" x2="516.60565" y2="350.1246"><stop offset="0" stop-color="#CDDBC7"/><stop offset="1" stop-color="#E4E6EA"/></linearGradient></defs><path fill="url(#gradient_11)" d="M493.139 266.214C493.996 266.224 494.717 266.153 495.516 266.497C495.193 300.278 495.064 334.059 495.127 367.841L495.09 400.332C495.085 406.14 494.76 412.181 495.261 417.96C492.936 417.479 490.785 417.157 488.408 417.139C487.979 409.658 488.562 401.788 488.63 394.274L489.248 339.782C489.333 321.113 488.94 302.426 488.88 283.753C488.867 279.486 487.996 270.939 489.062 267.114C490.092 266.233 491.834 266.328 493.139 266.214Z"/><path fill="#382F53" d="M488.408 417.139C490.785 417.157 492.936 417.479 495.261 417.96L495.265 418.939C494.664 419.251 494.326 419.635 493.88 420.133C493.456 420.606 493.175 420.904 492.652 421.281L492.508 419.883C489.69 419.243 486.389 419.826 483.457 419.686C483.234 419.383 482.974 418.99 482.702 418.736C482.149 418.218 481.371 418.037 480.638 417.98C476.968 417.697 472.959 418.089 469.242 418.089C460.597 418.088 451.945 418.009 443.301 418.119C445.06 419.153 460.782 418.194 464.067 418.351C468.257 418.551 472.293 419.547 476.484 419.651C477.084 419.666 477.182 419.665 477.75 419.936C475.554 420.553 473.219 420.756 470.945 420.818C462.165 421.058 453.486 420.252 444.743 420.03C437.861 419.856 411.198 420.631 407.379 419.116L407.389 418.759C408.33 418.764 409.231 418.791 410.157 418.591C407.457 418.536 397.981 417.7 395.902 418.753C397 418.748 398.596 418.514 399.514 419.173C395.606 421.007 362.942 419.445 356.151 419.742C356.469 420.026 356.752 420.248 356.984 420.61C355.002 419.81 354.393 417.942 352.176 417.461C352.065 417.438 351.954 417.421 351.843 417.401L354.407 417.242C360.036 417.881 366.198 417.329 371.893 417.335L409.503 417.371L458.401 417.204C468.32 417.232 478.519 417.846 488.408 417.139Z"/><defs><linearGradient id="gradient_12" gradientUnits="userSpaceOnUse" x1="197.69261" y1="767.59705" x2="11.57048" y2="681.48651"><stop offset="0" stop-color="#92AAB2"/><stop offset="1" stop-color="#B8D3D7"/></linearGradient></defs><path fill="url(#gradient_12)" d="M30.507 637.79C60.8603 637.502 91.2156 637.494 121.569 637.766C134.429 637.871 147.341 637.462 160.19 637.93C160.9 646.976 160.769 682.564 166.857 687.727C170.139 690.51 177.93 689.672 182.187 690.848C183.536 708.302 183.129 726.175 182.973 743.686L182.544 804.406L101.462 804.589C79.2961 804.676 57.0456 805.098 34.89 804.47C34.017 804.499 32.0546 804.703 31.4513 803.988C29.8381 802.073 30.8684 796.659 30.986 794.275L30.507 637.79Z"/><path fill="#CDD5CF" d="M30.986 794.275L31.048 793.772C32.1035 784.748 31.2791 774.843 31.2497 765.739C31.2394 762.545 30.9527 758.797 31.6439 755.681C32.3788 759.885 30.5924 762.946 34.4672 766.078C34.5726 766.163 34.6937 766.227 34.807 766.302C34.9231 765.703 34.9517 766.051 34.6495 765.501C34.1268 764.551 34.5809 762.497 34.6938 761.423L34.9753 761.544C36.1167 768.777 35.0085 776.758 34.894 784.106C34.7885 790.877 35.1458 797.717 34.89 804.47C34.017 804.499 32.0546 804.703 31.4513 803.988C29.8381 802.073 30.8684 796.659 30.986 794.275Z"/><defs><linearGradient id="gradient_13" gradientUnits="userSpaceOnUse" x1="352.0856" y1="577.61035" x2="185.13577" y2="441.11108"><stop offset="0" stop-color="#97AEB5"/><stop offset="1" stop-color="#C6D5D4"/></linearGradient></defs><path fill="url(#gradient_13)" d="M193.225 429.452C213.368 429.201 233.628 430.678 253.771 429.748C284.079 429.986 314.387 429.935 344.693 429.595C344.819 451.419 344.831 473.243 344.73 495.067L344.644 589.606L248.461 589.975C230.292 590.027 212.038 589.655 193.879 590.293C193.336 562.261 193.091 534.225 193.143 506.189L193.092 479.831C193.069 476.111 193.432 471.983 192.939 468.338C193.327 463.764 193.136 459.061 193.155 454.47L193.225 429.452Z"/><defs><linearGradient id="gradient_14" gradientUnits="userSpaceOnUse" x1="356.15088" y1="427.67142" x2="491.48193" y2="591.08228"><stop offset="0" stop-color="#B0C0C6"/><stop offset="1" stop-color="#E9E4D7"/></linearGradient></defs><path fill="url(#gradient_14)" d="M352.34 429.333L453.108 429.145C467.221 429.165 481.387 428.581 495.489 429.034C494.624 435.343 494.995 441.968 495.002 448.333L495.037 477.484C495.145 504.943 495.102 532.403 494.906 559.862C494.827 570.074 495.025 580.347 494.711 590.551L490.529 590.113L487.025 589.983L401.628 589.739C389.265 589.678 376.492 590.517 364.189 589.582C360.213 589.629 356.236 589.646 352.26 589.633L352.247 483.305L352.421 449.196C352.467 442.64 352.775 435.874 352.34 429.333Z"/><path fill="#A9BCBE" d="M488.265 439.189C489.924 444.067 488.7 466.851 488.691 473.516C488.758 500.439 488.551 527.363 488.068 554.282C487.818 566.177 488.027 578.116 487.025 589.983L401.628 589.739C389.265 589.678 376.492 590.517 364.189 589.582C363.116 589.36 362.143 589.116 361.123 588.712L360.923 588.106C361.941 586.927 363.187 585.958 364.143 584.746C367.372 580.652 370.118 576.15 373.359 572.029C377.701 566.51 382.45 561.287 387.113 556.038L458.8 474.952C467.12 465.384 482.945 449.408 488.265 439.189Z"/><path fill="#CDD5CF" d="M488.265 439.189C488.71 438.24 489.17 437.299 489.644 436.365L490.524 436.547L489.828 436.009L490.611 436.077C488.501 447.064 489.399 458.196 489.377 469.345C489.334 490.368 489.681 511.445 489.374 532.462C489.195 544.664 489.236 556.954 488.883 569.148C488.712 575.048 487.392 583.079 488.247 588.678C488.915 589.432 489.631 589.718 490.529 590.113L487.025 589.983C488.027 578.116 487.818 566.177 488.068 554.282C488.551 527.363 488.758 500.439 488.691 473.516C488.7 466.851 489.924 444.067 488.265 439.189Z"/><path fill="#798E9C" d="M492.011 598.639L493.45 598.46L494.155 599.077C498.454 613.699 511.312 627.059 519.136 640.037C506.035 640.788 492.787 640.486 479.663 640.614L411.92 641.31C341.721 641.914 271.517 641.906 201.318 641.288C192.386 641.244 183.301 641.458 174.414 640.493C174.075 639.056 173.724 637.611 173.477 636.156C173.203 634.539 173.413 633.062 173.988 631.535C176.982 623.586 189.868 607.542 195.148 600.258C202.743 599.18 210.873 599.715 218.55 599.607C235.765 599.383 252.981 599.266 270.198 599.254L407.535 598.969C435.627 599.036 463.964 600.048 492.011 598.639Z"/><defs><linearGradient id="gradient_15" gradientUnits="userSpaceOnUse" x1="352.11423" y1="701.28241" x2="341.00262" y2="628.46289"><stop offset="0" stop-color="#514D6A"/><stop offset="1" stop-color="#5B6179"/></linearGradient></defs><path fill="url(#gradient_15)" d="M260.361 652.904L441.885 652.967C467.929 652.977 493.997 652.293 520.038 652.727C519.577 660.667 519.057 669.792 516.003 677.188C506.548 678.545 496.281 678.285 486.73 678.426C469.277 678.695 451.822 678.747 434.367 678.582L273.208 678.111C250.719 678.231 228.23 678.136 205.743 677.825C195.08 677.692 184.424 677.756 173.773 677.177C172.996 669.308 172.928 661.329 172.819 653.427C184.064 653.03 195.36 653.19 206.612 653.154L260.361 652.904Z"/><path fill="#382F53" d="M244.373 417.855C257.06 417.944 269.748 417.961 282.435 417.905C288.317 417.89 294.459 417.506 300.306 417.891C300.486 417.954 300.664 418.021 300.845 418.081C304.482 419.295 319.874 418.392 321.001 419.308L321.807 419.374C299.032 420.538 276.176 420.004 253.394 419.554C248.603 419.459 241.887 420.554 237.45 419.85L237.671 418.859C228.638 418.679 219.599 419.052 210.57 419.25C205.233 419.367 199.067 418.942 193.872 420.053C192.466 422.72 195.037 425.44 193.876 428.143C194.125 428.35 194.328 428.632 194.623 428.766C196.578 429.652 204.168 428.898 206.643 428.896C211.929 428.892 251.527 428.749 253.068 429.199C253.353 429.283 253.537 429.565 253.771 429.748C233.628 430.678 213.368 429.201 193.225 429.452L193.155 454.47C193.136 459.061 193.327 463.764 192.939 468.338C191.862 460.782 192.689 447.128 192.696 438.946C192.698 435.676 192.94 432.101 192.288 428.892C190.722 427.63 188.215 428.652 186.41 427.591C186.31 427.532 186.224 427.452 186.132 427.382C185.855 428.519 185.594 429.332 184.865 430.264C184.806 430.34 184.744 430.413 184.683 430.488L184.272 430.002C180.528 429.283 176.12 429.701 172.307 429.695L149.53 429.69L117.128 429.651C110.381 429.613 103.513 429.276 96.7853 429.684L55.9353 429.741C48.0884 429.738 39.7351 430.261 31.955 429.342C44.255 427.846 58.0745 428.874 70.5424 428.844L150.685 428.879L171.576 428.838C175.665 428.849 180.328 429.291 184.334 428.572L184.471 427.804C184.187 427.082 184.187 426.692 183.522 426.237C181.396 424.779 174.273 426.101 171.865 426.659L171.315 426.792L171.431 426.136C174.602 424.626 180.388 424.634 183.834 425.148C184.395 425.59 184.847 425.93 185.52 426.182C185.699 424.472 185.632 421.802 186.413 420.33C186.751 419.695 186.885 419.801 187.52 419.584L188.087 420.006C189.379 420.003 190.714 419.931 191.997 420.081C192.533 419.862 192.959 419.429 193.403 419.063C199.054 418.236 204.909 419.169 210.582 418.451L244.373 417.855Z"/><path fill="#505471" d="M187.032 421.393C188.918 421.639 190.106 422.447 191.294 423.905C191.29 424.773 191.166 425.5 190.991 426.344C190.192 427.125 190.028 427.211 188.942 427.479C187.931 427.084 187.33 426.769 186.802 425.758C186.049 424.318 186.69 422.861 187.032 421.393Z"/><path fill="#383C77" d="M188.087 420.006C189.379 420.003 190.714 419.931 191.997 420.081C192.341 421.229 192.673 421.619 192.089 422.751C191.887 423.144 191.548 423.553 191.294 423.905C190.106 422.447 188.918 421.639 187.032 421.393L186.852 421.105C187.258 420.732 187.67 420.366 188.087 420.006Z"/><path fill="#ABA89B" fill-opacity="0.72941178" d="M683.678 206.384C684.636 204.004 685.812 203.149 688 201.992L688 232.154C686.578 232.4 685.417 232.242 684.391 233.305L684.028 235.135L682.929 233.985C683.06 232.824 683.476 231.755 683.574 230.591C684.235 222.714 683.905 214.29 683.678 206.384Z"/></svg>