<?xml version="1.0" encoding="utf-8" ?><svg xmlns="http://www.w3.org/2000/svg" xmlns:xlink="http://www.w3.org/1999/xlink" width="687" height="844" viewBox="0 0 687 844"><defs><linearGradient id="gradient_0" gradientUnits="userSpaceOnUse" x1="487.11069" y1="948.1593" x2="351.14221" y2="-15.868287"><stop offset="0" stop-color="#26292D"/><stop offset="1" stop-color="#3F3946"/></linearGradient></defs><path fill="url(#gradient_0)" transform="scale(0.787313 0.787313)" d="M646.525 17.3494C647.271 17.2796 649.236 17.3691 649.64 16.7569C651.553 13.8597 654.3 6.95847 657.77 5.88302C657.965 5.82256 658.167 5.78505 658.365 5.73607C660.229 6.90411 664.541 14.8371 665.217 17.2693C688.223 17.4091 711.186 16.5177 734.188 17.4348C743.069 17.2495 752.443 17.1706 761.166 19.0708C773.104 20.7303 783.542 27.2355 790.729 36.9033C793.774 41.0002 795.432 46.7239 797.032 51.5639C800.167 61.0433 802.486 70.7938 805.29 80.3752L830.541 169.748C837.973 196.124 845.863 222.16 852.074 248.867C854.056 257.388 856.857 267.021 857.313 275.722C859.818 286.943 861.565 298.709 855.166 308.987C852.148 313.833 847.092 318.376 842.257 321.397C838.191 326.23 840.365 343.818 839.689 350.745L840.233 467.409C838.205 471.839 840.941 477.253 839.036 481.32C839.364 485.478 839.442 489.656 840.013 493.791C839.095 520.953 839.465 548.263 839.463 575.443C839.463 582.396 840.624 599.689 839.219 605.584C839.295 605.757 839.364 605.934 839.447 606.105C839.83 606.89 840.479 607.295 841.143 607.825C843.276 609.531 843.78 611.234 844.089 613.919C844.62 618.541 843.755 625.808 840.851 629.547C840.444 630.072 839.999 630.562 839.548 631.049L838.739 689.106C838.502 702.719 837.291 718.257 838.287 731.71C838.874 739.637 840.224 747.673 841.639 755.484C842.138 758.234 842.987 761.493 840.821 763.716C850.214 772.28 857.975 780.6 860.424 793.472C860.448 797.797 860.278 802.246 860.507 806.559C859.535 820.492 859.821 832.35 859.986 846.199C860.186 862.987 860.437 879.715 860.954 896.499C861.38 910.331 860.778 924.199 861.7 938.014C862.392 948.372 864.302 958.523 865.323 968.829C866.393 979.636 866.265 990.676 866.341 1001.53C866.394 1009.1 866.776 1016.95 866.017 1024.49C865.394 1030.68 863.86 1036.66 858.972 1040.88C854.882 1044.41 849.494 1046.35 844.234 1047.27C833.378 1049.17 821.507 1048.11 810.504 1048.04C794.462 1047.93 778.198 1048.28 762.207 1046.91C754.566 1046.25 746.437 1044.57 738.807 1045.85C738.322 1045.93 737.843 1046.01 737.36 1046.1C734.834 1050.99 732.315 1057.95 726.653 1059.79C711.404 1064.75 683.616 1063.54 666.865 1063.59L618.681 1063.69C602.565 1063.72 584.154 1064.77 568.252 1063.46C563.963 1063.1 559.171 1062.29 555.342 1060.26C543.686 1054.08 527.75 1034.49 518.513 1023.86C514.9 1019.7 511.309 1015.11 507.086 1011.55C498.47 1011.67 489.872 1012.95 481.25 1013.27C463.279 1013.94 445.2 1013.53 427.213 1013.48C415.49 1013.45 382.401 1014.7 372.622 1011.5C359.406 1008.55 336.946 985.938 327.069 975.646C324 972.653 321.091 969.643 318.298 966.385C311.913 961.241 307.046 951.103 303.367 943.789C283.048 942.953 261.975 942.657 241.673 943.553L240.842 943.776C239.755 946.795 240.108 950.844 239.963 954.051C239.488 964.491 238.047 979.396 227.501 984.926C224.018 986.752 218.393 987.278 214.515 987.51C204.418 988.113 194.154 987.814 184.031 987.872L130.914 988.141C119.488 988.106 108.061 988.185 96.6367 988.375C87.7431 988.583 78.7904 989.206 69.8975 988.937C58.9694 988.608 45.0652 989.147 34.8174 985.359C31.4177 984.102 28.8473 980.73 27.4049 977.518C25.1221 972.435 25.4523 966.539 25.6866 961.117L25.7021 887.67C25.6519 876.092 24.3354 863.554 25.6074 852.108L22.8472 849.811C23.9706 837.737 23.7831 825.48 23.7734 813.363L23.7425 764.547C23.9586 722.703 25.4468 680.95 24.2423 639.116C23.9617 629.467 23.6053 619.82 23.1733 610.177C22.6971 588.912 21.1861 562.035 23.6245 541.279C24.1477 537.767 24.3947 534.178 24.7561 530.643C24.3266 526.004 24.7938 520.938 24.8397 516.26C24.9418 505.867 25.0896 495.285 24.6243 484.898C24.4782 481.635 22.0717 475.145 22.5543 472.526C22.7337 471.553 23.9989 469.811 24.5013 468.866C25.5037 466.075 27.2691 329.68 25.6327 321.111C25.4596 321.065 25.2851 321.024 25.1134 320.973C18.3274 318.952 9.63777 316.597 6.0489 309.832C-0.840602 296.845 6.71835 260.253 11.2811 246.147C13.2453 232.823 17.1862 219.349 20.3441 206.24L35.4452 143.434C41.1361 119.98 46.979 96.5633 52.9738 73.1854C55.9734 61.4879 58.5977 49.4373 62.3602 37.9665C64.1157 32.6145 66.2166 27.3348 69.7004 22.8599C70.199 22.0456 70.805 21.3021 71.502 20.6496C73.1281 19.0741 75.1819 18.0118 77.4074 17.5952C83.7231 16.4595 91.5985 17.4818 98.0711 17.5422L141.988 17.8636C161.018 17.172 180.292 17.7884 199.343 17.7839L312.777 17.7834L485.897 17.7739C510.129 17.7425 534.39 17.1125 558.616 17.3712C579.894 17.0994 601.174 17.0665 622.453 17.2725L646.525 17.3494Z"/><path fill="#BBC6C7" transform="scale(0.787313 0.787313)" d="M41.7771 354.141C53.0894 355.459 64.8724 355.152 76.2616 355.303C99.3567 355.611 122.473 355.445 145.57 355.432L339.662 355.103L669.041 354.983C720.659 355.215 772.277 354.74 823.881 353.557C823.958 356.986 824.092 360.414 824.283 363.838L824.346 659.692L824.38 717.053C824.396 722.846 825.328 740.009 824.081 744.16C817.691 741.233 791.522 742.415 782.609 742.405L690.127 742.483C685.366 742.495 660.069 743.414 657.448 742.474C657.064 742.336 656.795 741.983 656.469 741.738C656.404 728.107 656.417 714.476 656.506 700.845C656.53 688.776 657.663 674.431 654.528 662.77C653.182 657.761 650.459 653.509 646.782 649.883C643.785 646.929 640.328 644.087 635.989 643.595C630.967 643.025 625.659 643.26 620.6 643.189C609.827 643.03 599.052 642.992 588.278 643.076L506.525 643.084L328.559 643.017C304.578 643.031 280.55 642.617 256.574 642.945C246.44 643.084 239.635 644.446 232.369 651.979C228.894 655.565 226.652 660.165 225.966 665.11C224.862 672.864 225.182 681.202 225.106 689.044L225.045 733.352L224.9 839.071C224.897 856.843 225.22 874.67 224.93 892.436C225.061 896.967 225.475 901.674 225.19 906.192C213.334 905.56 201.298 906.27 189.419 906.198C161.391 906.024 133.363 906.031 105.335 906.217C84.0663 906.387 62.6237 907.002 41.3749 906.125C40.6715 900.83 40.9368 840.079 41.729 837.609L41.4769 370.337C41.8941 364.958 41.7692 359.533 41.7771 354.141Z"/><path fill="#424257" transform="scale(0.787313 0.787313)" d="M41.3749 906.125C40.6715 900.83 40.9368 840.079 41.729 837.609C42.3178 855.875 41.7959 874.314 41.6885 892.596L168.284 892.46L205.059 892.585C211.551 892.623 218.493 893.141 224.93 892.436C225.061 896.967 225.475 901.674 225.19 906.192C213.334 905.56 201.298 906.27 189.419 906.198C161.391 906.024 133.363 906.031 105.335 906.217C84.0663 906.387 62.6237 907.002 41.3749 906.125Z"/><defs><linearGradient id="gradient_1" gradientUnits="userSpaceOnUse" x1="434.93338" y1="435.18011" x2="437.50461" y2="576.30627"><stop offset="0" stop-color="#98989A"/><stop offset="1" stop-color="#C2D0D1"/></linearGradient></defs><path fill="url(#gradient_1)" transform="scale(0.787313 0.787313)" d="M145.015 427.454C147.042 424.437 150.071 422.218 153.701 421.55C160.322 420.333 167.698 420.908 174.446 420.904L210.085 420.95L330.054 420.962C410.723 421.341 491.394 421.294 572.063 420.818C603.928 420.602 635.796 420.6 667.662 420.814C684.146 420.83 700.795 420.354 717.26 420.87C719.852 420.952 722.019 422.09 724.087 423.584C727.15 425.798 728.798 429.281 730.497 432.541C729.528 450.332 729.933 468.311 729.939 486.131C729.946 506.21 729.669 526.365 730.165 546.435C730.481 554.245 732.831 577.803 727.951 582.761C726.194 584.547 718.105 584.278 715.379 584.329C684.355 584.906 653.223 584.258 622.185 584.326L398.883 584.592L223.206 584.802C200.23 584.702 177.099 585.291 154.142 584.502C152.07 584.431 148.722 584.68 147.203 583.079C142.876 578.52 144.073 556.319 144.388 549.891C144.413 549.387 144.449 549.203 144.517 548.753C143.811 522.04 143.437 495.318 143.392 468.596C143.345 456.895 142.565 444.646 143.608 432.994C143.785 431.017 144.144 429.261 145.015 427.454Z"/><defs><linearGradient id="gradient_2" gradientUnits="userSpaceOnUse" x1="438.92654" y1="391.87122" x2="415.08505" y2="577.94043"><stop offset="0" stop-color="#353332"/><stop offset="1" stop-color="#363953"/></linearGradient></defs><path fill="url(#gradient_2)" transform="scale(0.787313 0.787313)" d="M145.015 427.454C147.042 424.437 150.071 422.218 153.701 421.55C160.322 420.333 167.698 420.908 174.446 420.904L210.085 420.95L330.054 420.962C410.723 421.341 491.394 421.294 572.063 420.818C603.928 420.602 635.796 420.6 667.662 420.814C684.146 420.83 700.795 420.354 717.26 420.87C719.852 420.952 722.019 422.09 724.087 423.584C727.15 425.798 728.798 429.281 730.497 432.541C729.528 450.332 729.933 468.311 729.939 486.131C729.946 506.21 729.669 526.365 730.165 546.435L724.376 548.474L720.678 548.565C718.188 548.45 715.705 548.566 713.216 548.653C694.482 548.522 675.747 548.532 657.013 548.685C648.104 548.803 621.229 550.397 614.035 548.402L613.348 547.064C612.595 545.478 612.383 543.763 612.284 542.028C611.817 533.781 612.352 525.378 612.353 517.113C612.356 491.014 613.171 464.614 612.087 438.551C604.324 438.604 596.56 438.572 588.798 438.454L588.815 438.287C584.675 438.393 580.388 437.986 576.221 437.933C543.188 437.593 510.154 437.518 477.121 437.708C467.094 437.576 456.688 437.169 446.698 437.998C438.507 438.286 430.258 438.087 422.059 438.083C410.976 437.384 399.72 437.372 388.619 437.672C376.975 437.08 365.099 437.551 353.427 437.558L287.033 437.577L276.451 437.572C269.454 437.35 262.271 436.995 255.295 437.655C255.317 452.016 254.929 466.424 255.258 480.777L255.173 515.123C255.14 520.562 255.496 526.326 254.953 531.713C254.903 531.832 254.85 531.95 254.804 532.07C253.222 536.254 255.477 543.486 252.88 546.833C249.699 547.619 246.505 547.566 243.333 546.789L242.351 545.978C243.163 545.152 244.253 545.074 245.342 544.848C244.46 544.142 243.634 544.111 242.545 544.036C235.74 543.563 228.458 544.159 221.578 544.11C210.313 544.029 195.254 542.984 184.437 544.317C181.816 544.641 180.43 546.53 178.053 547.384C175.996 548.123 172.114 547.533 169.877 547.437C166.817 547.48 163.368 547.23 160.397 547.923L154.209 548.24C152.825 548.177 151.912 547.88 150.648 547.325C151.363 545.01 152.261 542.502 152.594 540.104C153.698 532.158 153.218 520.805 153.32 512.492C153.435 503.111 154.194 493.181 153.418 483.851C153.379 483.727 153.337 483.603 153.302 483.478C151.043 475.507 154.279 462.523 152.643 453.932L152.235 453.928C150.774 457.51 151.911 472.248 151.79 477.14C151.579 485.644 150.771 494.167 150.532 502.688C150.166 515.74 150.448 528.984 150.474 542.057C148.584 542.868 145.603 543.684 144.943 545.828C144.658 546.752 144.734 547.806 144.517 548.753C143.811 522.04 143.437 495.318 143.392 468.596C143.345 456.895 142.565 444.646 143.608 432.994C143.785 431.017 144.144 429.261 145.015 427.454Z"/><path fill="#3E7EA3" transform="scale(0.787313 0.787313)" d="M716.592 444.004L716.71 443.605C717.123 442.165 717.31 440.825 717.422 439.335L717.782 439.108C719.718 437.869 720.87 436.805 722.068 434.831L722.865 435.083C725.097 440.331 723.809 446.495 724.907 451.98L724.667 509.296C724.5 522.272 723.701 535.525 724.376 548.474L720.678 548.565C718.188 548.45 715.705 548.566 713.216 548.653C694.482 548.522 675.747 548.532 657.013 548.685C648.104 548.803 621.229 550.397 614.035 548.402L613.348 547.064C612.595 545.478 612.383 543.763 612.284 542.028C611.817 533.781 612.352 525.378 612.353 517.113C612.356 491.014 613.171 464.614 612.087 438.551C604.324 438.604 596.56 438.572 588.798 438.454L588.815 438.287C600.101 437.862 611.802 437.751 623.091 437.99C633.067 438.446 643.209 437.95 653.207 437.942C671.98 438.002 690.753 437.912 709.524 437.673C711.547 437.77 713.517 437.82 715.498 438.281C717.031 439.997 716.665 441.795 716.592 444.004Z"/><defs><linearGradient id="gradient_3" gradientUnits="userSpaceOnUse" x1="735.97961" y1="462.04257" x2="603.30902" y2="522.77344"><stop offset="0" stop-color="#3B4C62"/><stop offset="1" stop-color="#2C5B85"/></linearGradient></defs><path fill="url(#gradient_3)" transform="scale(0.787313 0.787313)" d="M716.592 444.004L716.71 443.605C717.123 442.165 717.31 440.825 717.422 439.335L717.782 439.108C719.718 437.869 720.87 436.805 722.068 434.831L722.865 435.083C725.097 440.331 723.809 446.495 724.907 451.98L724.667 509.296C724.5 522.272 723.701 535.525 724.376 548.474L720.678 548.565C718.188 548.45 715.705 548.566 713.216 548.653C694.482 548.522 675.747 548.532 657.013 548.685C648.104 548.803 621.229 550.397 614.035 548.402L613.348 547.064C612.595 545.478 612.383 543.763 612.284 542.028C611.817 533.781 612.352 525.378 612.353 517.113C612.356 491.014 613.171 464.614 612.087 438.551C604.324 438.604 596.56 438.572 588.798 438.454L588.815 438.287C600.101 437.862 611.802 437.751 623.091 437.99L623.873 508.934C623.993 517.937 623.772 526.979 624.134 535.973C630.159 535.989 636.334 535.717 642.338 536.096C666.522 536.034 690.808 536.437 714.981 535.866C716.187 527.195 715.546 517.682 715.562 508.907C715.601 487.443 714.775 465.378 716.592 444.004Z"/><path fill="#424257" transform="scale(0.787313 0.787313)" d="M613.348 547.064C613.973 545.957 613.99 545.576 615.302 545.259C620.592 543.984 629.657 544.897 635.285 544.9C653.57 544.909 671.859 545.38 690.143 545.061C696.008 544.959 716.265 543.318 720.325 544.666C721.064 545.931 720.797 547.17 720.678 548.565C718.188 548.45 715.705 548.566 713.216 548.653C694.482 548.522 675.747 548.532 657.013 548.685C648.104 548.803 621.229 550.397 614.035 548.402L613.348 547.064Z"/><path fill="#424257" transform="scale(0.787313 0.787313)" d="M642.338 536.096C666.522 536.034 690.808 536.437 714.981 535.866L716.062 536.822C715.96 536.904 715.868 537.002 715.755 537.068C713.579 538.349 630.917 537.788 627.753 537.024L627.982 536.646C632.774 536.377 637.545 536.495 642.338 536.096Z"/><defs><linearGradient id="gradient_4" gradientUnits="userSpaceOnUse" x1="246.5462" y1="550.82928" x2="164.78958" y2="433.43665"><stop offset="0" stop-color="#33678F"/><stop offset="1" stop-color="#438FB2"/></linearGradient></defs><path fill="url(#gradient_4)" transform="scale(0.787313 0.787313)" d="M156.982 437.491C189.655 436.841 222.617 437.168 255.295 437.655C255.317 452.016 254.929 466.424 255.258 480.777L255.173 515.123C255.14 520.562 255.496 526.326 254.953 531.713C254.903 531.832 254.85 531.95 254.804 532.07C253.222 536.254 255.477 543.486 252.88 546.833C249.699 547.619 246.505 547.566 243.333 546.789L242.351 545.978C243.163 545.152 244.253 545.074 245.342 544.848C244.46 544.142 243.634 544.111 242.545 544.036C235.74 543.563 228.458 544.159 221.578 544.11C210.313 544.029 195.254 542.984 184.437 544.317C181.816 544.641 180.43 546.53 178.053 547.384C175.996 548.123 172.114 547.533 169.877 547.437C166.186 546.639 161.173 547.904 158.361 545.304C157.348 542.813 157.745 539.716 157.804 537.047C162.227 537.071 166.944 537.429 171.31 536.695C166.662 536.874 161.628 537.132 157.023 536.488C156.261 521.055 156.751 505.501 156.784 490.047C156.822 472.523 156.487 455.013 156.982 437.491Z"/><path fill="#424257" transform="scale(0.787313 0.787313)" d="M157.023 536.488C162.728 535.897 168.629 536.161 174.367 536.151L202.277 536.043L229.736 535.858C235.163 535.827 241.241 535.33 246.573 536.336L246.343 536.774C239.216 538.738 199.431 540.371 193.022 538.034L192.786 537.587C194.171 537.41 196.024 538.048 196.841 536.995C192.867 536.035 175.609 535.918 171.31 536.695C166.662 536.874 161.628 537.132 157.023 536.488Z"/><defs><linearGradient id="gradient_5" gradientUnits="userSpaceOnUse" x1="437.57327" y1="421.30518" x2="437.54303" y2="546.39923"><stop offset="0" stop-color="#201E24"/><stop offset="1" stop-color="#293C5F"/></linearGradient></defs><path fill="url(#gradient_5)" transform="scale(0.787313 0.787313)" d="M145.015 427.454C147.042 424.437 150.071 422.218 153.701 421.55C160.322 420.333 167.698 420.908 174.446 420.904L210.085 420.95L330.054 420.962C410.723 421.341 491.394 421.294 572.063 420.818C603.928 420.602 635.796 420.6 667.662 420.814C684.146 420.83 700.795 420.354 717.26 420.87C719.852 420.952 722.019 422.09 724.087 423.584C727.15 425.798 728.798 429.281 730.497 432.541C729.528 450.332 729.933 468.311 729.939 486.131C729.946 506.21 729.669 526.365 730.165 546.435L724.376 548.474C723.701 535.525 724.5 522.272 724.667 509.296L724.907 451.98C725.507 445.64 726.027 436.724 724.22 430.619C723.988 429.835 723.354 428.347 722.607 427.911C720.986 426.964 713.326 427.034 711.202 427.082C609.084 428.405 506.955 428.658 404.832 427.841L230.506 428.267C208.727 428.503 186.947 428.445 165.17 428.094C159.351 427.998 153.336 428.556 147.561 428.198C146.539 428.135 145.914 427.917 145.015 427.454Z"/><defs><linearGradient id="gradient_6" gradientUnits="userSpaceOnUse" x1="439.27814" y1="417.10876" x2="431.17398" y2="562.53412"><stop offset="0" stop-color="#1E1E24"/><stop offset="1" stop-color="#2D4067"/></linearGradient></defs><path fill="url(#gradient_6)" transform="scale(0.787313 0.787313)" d="M153.989 434.024C164.99 434.389 176.29 433.379 187.352 433.383L291.679 433.314L555.955 433.71L668.84 433.586L704.869 433.54C710.737 433.51 716.797 432.893 722.626 433.403C722.002 433.629 721.386 433.844 720.747 434.026C719.766 434.306 719.054 435.686 718.424 436.503C715.786 437.693 712.403 437.521 709.524 437.673C690.753 437.912 671.98 438.002 653.207 437.942C643.209 437.95 633.067 438.446 623.091 437.99C611.802 437.751 600.101 437.862 588.815 438.287C584.675 438.393 580.388 437.986 576.221 437.933C543.188 437.593 510.154 437.518 477.121 437.708C467.094 437.576 456.688 437.169 446.698 437.998C438.507 438.286 430.258 438.087 422.059 438.083C410.976 437.384 399.72 437.372 388.619 437.672C376.975 437.08 365.099 437.551 353.427 437.558L287.033 437.577L276.451 437.572C269.454 437.35 262.271 436.995 255.295 437.655C222.617 437.168 189.655 436.841 156.982 437.491C156.487 455.013 156.822 472.523 156.784 490.047C156.751 505.501 156.261 521.055 157.023 536.488C161.628 537.132 166.662 536.874 171.31 536.695C166.944 537.429 162.227 537.071 157.804 537.047C157.745 539.716 157.348 542.813 158.361 545.304C161.173 547.904 166.186 546.639 169.877 547.437C166.817 547.48 163.368 547.23 160.397 547.923L154.209 548.24C152.825 548.177 151.912 547.88 150.648 547.325C151.363 545.01 152.261 542.502 152.594 540.104C153.698 532.158 153.218 520.805 153.32 512.492C153.435 503.111 154.194 493.181 153.418 483.851C154.437 467.417 154.221 450.49 153.989 434.024Z"/><defs><linearGradient id="gradient_7" gradientUnits="userSpaceOnUse" x1="388.43365" y1="550.28125" x2="309.3428" y2="424.78033"><stop offset="0" stop-color="#386E92"/><stop offset="1" stop-color="#488CB1"/></linearGradient></defs><path fill="url(#gradient_7)" transform="scale(0.787313 0.787313)" d="M287.033 437.577L353.427 437.558C365.099 437.551 376.975 437.08 388.619 437.672C395.832 438.551 403.538 438.055 410.815 437.997C411.386 443.641 411.781 449.3 412 454.968C412.306 463.304 413.904 535.477 412.943 537.306C405.287 535.995 391.01 536.948 382.671 536.956C374.748 536.203 366.457 536.658 358.487 536.619L310.939 536.464C302.88 536.441 294.387 536.997 286.416 535.873C286.266 527.611 286.201 519.348 286.221 511.084C286.623 503.966 286.19 496.632 286.181 489.492C286.166 477.893 286.405 466.294 286.292 454.695C286.347 448.981 286.255 443.249 287.033 437.577Z"/><path fill="#3E7EA3" transform="scale(0.787313 0.787313)" d="M477.121 437.708C510.154 437.518 543.188 437.593 576.221 437.933C576.709 451.77 576.304 465.598 576.319 479.437C576.517 498.189 576.527 516.941 576.349 535.693C563.919 536.398 551.311 536.056 538.862 536.048L459.146 535.505C458.365 503.125 459.057 470.62 459.621 438.239C465.177 438.258 471.719 438.884 477.121 437.708Z"/><defs><linearGradient id="gradient_8" gradientUnits="userSpaceOnUse" x1="435.95978" y1="450.32422" x2="437.38235" y2="586.07892"><stop offset="0" stop-color="#1F213A"/><stop offset="1" stop-color="#848382"/></linearGradient></defs><path fill="url(#gradient_8)" transform="scale(0.787313 0.787313)" d="M150.474 542.057C150.448 528.984 150.166 515.74 150.532 502.688C150.771 494.167 151.579 485.644 151.79 477.14C151.911 472.248 150.774 457.51 152.235 453.928L152.643 453.932C154.279 462.523 151.043 475.507 153.302 483.478C153.337 483.603 153.379 483.727 153.418 483.851C154.194 493.181 153.435 503.111 153.32 512.492C153.218 520.805 153.698 532.158 152.594 540.104C152.261 542.502 151.363 545.01 150.648 547.325C151.912 547.88 152.825 548.177 154.209 548.24C154.43 556.494 154.246 564.842 154.71 573.076L561.564 572.77C614.477 572.581 667.493 573.551 720.39 572.46C720.598 564.634 720.727 556.807 720.778 548.98C718.274 548.896 715.704 548.917 713.216 548.653C715.705 548.566 718.188 548.45 720.678 548.565L724.376 548.474L730.165 546.435C730.481 554.245 732.831 577.803 727.951 582.761C726.194 584.547 718.105 584.278 715.379 584.329C684.355 584.906 653.223 584.258 622.185 584.326L398.883 584.592L223.206 584.802C200.23 584.702 177.099 585.291 154.142 584.502C152.07 584.431 148.722 584.68 147.203 583.079C142.876 578.52 144.073 556.319 144.388 549.891C144.413 549.387 144.449 549.203 144.517 548.753C144.734 547.806 144.658 546.752 144.943 545.828C145.603 543.684 148.584 542.868 150.474 542.057Z"/><defs><linearGradient id="gradient_9" gradientUnits="userSpaceOnUse" x1="518.34595" y1="548.68256" x2="515.42639" y2="436.86725"><stop offset="0" stop-color="#2D5278"/><stop offset="1" stop-color="#356990"/></linearGradient></defs><path fill="url(#gradient_9)" transform="scale(0.787313 0.787313)" d="M446.698 437.998C456.688 437.169 467.094 437.576 477.121 437.708C471.719 438.884 465.177 438.258 459.621 438.239C459.057 470.62 458.365 503.125 459.146 535.505L538.862 536.048C551.311 536.056 563.919 536.398 576.349 535.693C576.527 516.941 576.517 498.189 576.319 479.437C576.304 465.598 576.709 451.77 576.221 437.933C580.388 437.986 584.675 438.393 588.815 438.287L588.798 438.454C588.546 438.793 588.171 439.07 588.041 439.473C587.446 441.32 588.301 452.984 588.297 456.137L588.285 547.654C574.5 549.475 552.387 548.176 537.698 548.159C507.345 548.125 476.833 548.748 446.509 547.452C444.918 519.589 446.397 491.261 446.651 463.343C446.728 454.918 447.076 446.409 446.698 437.998Z"/><defs><linearGradient id="gradient_10" gradientUnits="userSpaceOnUse" x1="362.04318" y1="558.31763" x2="336.44589" y2="426.63922"><stop offset="0" stop-color="#284B73"/><stop offset="1" stop-color="#376D92"/></linearGradient></defs><path fill="url(#gradient_10)" transform="scale(0.787313 0.787313)" d="M276.451 437.572L287.033 437.577C286.255 443.249 286.347 448.981 286.292 454.695C286.405 466.294 286.166 477.893 286.181 489.492C286.19 496.632 286.623 503.966 286.221 511.084C286.201 519.348 286.266 527.611 286.416 535.873C294.387 536.997 302.88 536.441 310.939 536.464L358.487 536.619C366.457 536.658 374.748 536.203 382.671 536.956C391.01 536.948 405.287 535.995 412.943 537.306C413.904 535.477 412.306 463.304 412 454.968C411.781 449.3 411.386 443.641 410.815 437.997C403.538 438.055 395.832 438.551 388.619 437.672C399.72 437.372 410.976 437.384 422.059 438.083C421.019 474.663 423.197 511.729 422.317 548.428C392.333 548.884 362.305 548.524 332.316 548.563L301.42 548.628C295.407 548.648 289.159 548.979 283.171 548.397C281.109 548.197 279.28 547.713 277.822 546.154C276.841 545.106 276.568 543.697 276.387 542.321C275.389 534.721 275.919 526.535 275.913 518.873L275.842 473.412C275.83 466.201 276.349 458.538 275.779 451.386C275.875 446.776 276.099 442.17 276.451 437.572Z"/><path fill="#424257" transform="scale(0.787313 0.787313)" d="M382.671 536.956C391.01 536.948 405.287 535.995 412.943 537.306C408.403 539.752 309.088 538.582 294.447 538.298C307.493 537.42 321.005 538.095 334.095 538.182L333.81 537.64L331.66 537.258C347.733 535.683 366.167 537.912 382.671 536.956Z"/><path fill="#3E7EA3" transform="scale(0.787313 0.787313)" d="M286.221 511.084C284.355 504.591 287.556 498.236 283.812 492.272C282.167 489.651 285.188 459.733 286.292 454.695C286.405 466.294 286.166 477.893 286.181 489.492C286.19 496.632 286.623 503.966 286.221 511.084Z"/><path fill="#909192" transform="scale(0.787313 0.787313)" d="M255.295 437.655C262.271 436.995 269.454 437.35 276.451 437.572C276.099 442.17 275.875 446.776 275.779 451.386C275.738 451.655 275.694 451.924 275.656 452.193C275.006 456.782 275.51 461.792 274.974 466.518L274.772 466.523C274.743 464.036 275.351 439.533 275.021 438.775C274.904 438.506 274.607 438.359 274.4 438.152C273.216 440.035 275.021 477.048 271.598 480.532C266.54 481.579 260.446 480.832 255.258 480.777C254.929 466.424 255.317 452.016 255.295 437.655Z"/><path fill="#424257" transform="scale(0.787313 0.787313)" d="M254.953 531.713C254.95 537.05 255.263 542.658 254.294 547.926C237.67 548.518 220.978 548.217 204.344 548.204C189.749 548.193 174.975 548.536 160.397 547.923C163.368 547.23 166.817 547.48 169.877 547.437C172.114 547.533 175.996 548.123 178.053 547.384C180.43 546.53 181.816 544.641 184.437 544.317C195.254 542.984 210.313 544.029 221.578 544.11C228.458 544.159 235.74 543.563 242.545 544.036C243.634 544.111 244.46 544.142 245.342 544.848C244.253 545.074 243.163 545.152 242.351 545.978L243.333 546.789C246.505 547.566 249.699 547.619 252.88 546.833C255.477 543.486 253.222 536.254 254.804 532.07C254.85 531.95 254.903 531.832 254.953 531.713Z"/><path fill="#753920" transform="scale(0.787313 0.787313)" d="M629.365 739.507C638.053 739.496 647.952 740.038 656.469 741.738C656.795 741.983 657.064 742.336 657.448 742.474C660.069 743.414 685.366 742.495 690.127 742.483L782.609 742.405C791.522 742.415 817.691 741.233 824.081 744.16C824.239 746.182 828.074 750.967 829.699 752.387C830.209 752.832 830.733 753.244 831.279 753.644C833.76 757.672 837.34 760.576 840.821 763.716C850.214 772.28 857.975 780.6 860.424 793.472C860.448 797.797 860.278 802.246 860.507 806.559C859.535 820.492 859.821 832.35 859.986 846.199C860.186 862.987 860.437 879.715 860.954 896.499C861.38 910.331 860.778 924.199 861.7 938.014C862.392 948.372 864.302 958.523 865.323 968.829C866.393 979.636 866.265 990.676 866.341 1001.53C866.394 1009.1 866.776 1016.95 866.017 1024.49C865.394 1030.68 863.86 1036.66 858.972 1040.88C854.882 1044.41 849.494 1046.35 844.234 1047.27C833.378 1049.17 821.507 1048.11 810.504 1048.04C794.462 1047.93 778.198 1048.28 762.207 1046.91C754.566 1046.25 746.437 1044.57 738.807 1045.85C738.322 1045.93 737.843 1046.01 737.36 1046.1C734.834 1050.99 732.315 1057.95 726.653 1059.79C711.404 1064.75 683.616 1063.54 666.865 1063.59L618.681 1063.69C602.565 1063.72 584.154 1064.77 568.252 1063.46C563.963 1063.1 559.171 1062.29 555.342 1060.26C543.686 1054.08 527.75 1034.49 518.513 1023.86C514.9 1019.7 511.309 1015.11 507.086 1011.55C498.47 1011.67 489.872 1012.95 481.25 1013.27C463.279 1013.94 445.2 1013.53 427.213 1013.48C415.49 1013.45 382.401 1014.7 372.622 1011.5C359.406 1008.55 336.946 985.938 327.069 975.646C324 972.653 321.091 969.643 318.298 966.385L318.814 965.732C316.658 961.837 309.132 944.885 307.338 943.262C307.287 943.091 307.231 942.921 307.186 942.748C307.117 942.48 307.062 942.208 306.998 941.938C306.097 938.136 307.789 934.394 306.882 930.322C304.406 927.023 304.689 923.627 304.532 919.668C304.834 905.328 305.406 863.862 309.399 851.912L310.459 852.534C310.402 854.412 310.022 856.248 309.99 858.11C312.214 852.348 312.412 846.201 314.306 840.385C317.256 831.322 325.022 825.566 333.182 821.416C338.553 821.996 343.99 822.358 349.377 822.821L344.675 822.955C353.64 823.646 362.721 823.133 371.714 823.32C386.729 823.632 401.693 823.127 416.693 823.261C426.928 823.353 437.202 824.191 447.423 824.186C456.406 824.183 465.28 823.066 474.206 822.875C477.546 822.804 480.816 823.544 484.147 823.626L488.154 824.772C490.507 825.444 492.065 826.494 493.858 828.111C494.159 827.162 494.244 827.517 493.821 826.695C492.917 824.936 490.312 823.605 488.498 823.042C487.964 822.877 487.454 822.833 486.9 822.787C487.38 822.31 487.492 822.439 488.171 822.451C490.156 822.486 493.606 822.691 494.976 824.258C497.431 827.068 496.142 836.492 496.192 840.214C493.823 838.929 490.939 836.898 488.37 836.236C489.164 838.159 494.578 840.163 496.552 841.101C496.714 825.204 497.96 794.627 502.613 779.666C503.562 773.313 505.819 766.736 508.702 761.029C511.956 754.587 515.684 750.268 522.684 747.96C531.108 746.428 539.264 743.638 547.765 742.564C559.041 741.139 570.488 741.151 581.835 740.857C597.681 740.519 613.525 740.069 629.365 739.507Z"/><path fill="#42211C" transform="scale(0.787313 0.787313)" d="M496.552 841.101C496.714 825.204 497.96 794.627 502.613 779.666C502.311 788.435 500.828 797.164 500.533 805.976C500.14 817.689 501.416 830.216 499.582 841.767C497.699 842.979 495.426 843.275 493.666 844.646C493.863 843.012 496.199 843.025 495.875 841.526L495.158 841.332C489.605 839.796 486.835 835.269 481.836 833.412C478.794 832.282 476.427 830.574 473.171 830.101C472.234 829.965 471.299 829.775 470.365 829.615C474.239 828.533 479.659 830.338 483.038 832.279C484.93 833.366 486.833 834.681 488.37 836.236C489.164 838.159 494.578 840.163 496.552 841.101Z"/><path fill="#302634" transform="scale(0.787313 0.787313)" d="M309.399 851.912L310.459 852.534C310.402 854.412 310.022 856.248 309.99 858.11C309.217 863.115 309.331 868.254 308.973 873.301C308.273 883.151 307.211 893.104 306.953 902.97C306.715 912.068 307.323 921.238 306.882 930.322C304.406 927.023 304.689 923.627 304.532 919.668C304.834 905.328 305.406 863.862 309.399 851.912Z"/><defs><linearGradient id="gradient_11" gradientUnits="userSpaceOnUse" x1="355.84268" y1="821.99091" x2="465.76801" y2="989.62305"><stop offset="0" stop-color="#7C4026"/><stop offset="1" stop-color="#955727"/></linearGradient></defs><path fill="url(#gradient_11)" transform="scale(0.787313 0.787313)" d="M334.378 838.476C336.546 836.468 338.453 835.29 341.402 834.785C347.122 833.807 353.697 834.261 359.506 834.179C375.552 833.951 391.559 834.201 407.602 834.421C420.522 834.598 433.656 833.92 446.536 834.454C455.803 834.839 478.512 857.752 485.937 864.848C488.172 866.985 490.954 869.052 492.999 871.316C493.101 871.429 493.183 871.559 493.275 871.681C494.51 872.173 496.202 872.541 496.925 873.644C496.011 886.404 497.556 899.338 496.619 912.066C496.777 939.889 497.983 968.199 496.348 995.966C492.846 996.241 489.329 996.594 485.815 996.652C475.734 998.165 464.521 997.046 454.281 997.15C450.306 997.19 446.118 997.91 442.18 997.566C419.99 997.963 397.967 997.236 375.799 997.163C368.548 995.472 363.42 990.099 358.668 984.7L355.039 980.97C347.827 976.492 320.609 948.857 316.368 941.643C315.67 925.348 316.243 908.796 316.594 892.493C316.788 883.461 316.144 873.178 318.137 864.358C319.205 859.63 321.727 855.308 323.791 850.958C323.641 848.912 323.565 846.672 324.252 844.705C324.962 842.672 326.693 841.326 328.589 840.486C330.547 839.618 332.25 838.847 334.378 838.476Z"/><path fill="#B87C2A" transform="scale(0.787313 0.787313)" d="M373.714 884.059C398.634 883.397 423.561 883.081 448.49 883.111C448.681 895.214 448.853 993.044 447.199 996.874C445.501 997.319 443.929 997.465 442.18 997.566C419.99 997.963 397.967 997.236 375.799 997.163C375.536 996.715 375.162 996.317 375.008 995.82C374.163 993.105 375.114 977.267 375.066 972.82L374.384 917.898C374.168 906.635 373.604 895.319 373.714 884.059Z"/><path fill="#DA9933" transform="scale(0.787313 0.787313)" d="M334.378 838.476C336.546 836.468 338.453 835.29 341.402 834.785C347.122 833.807 353.697 834.261 359.506 834.179C375.552 833.951 391.559 834.201 407.602 834.421C420.522 834.598 433.656 833.92 446.536 834.454C455.803 834.839 478.512 857.752 485.937 864.848C488.172 866.985 490.954 869.052 492.999 871.316C493.101 871.429 493.183 871.559 493.275 871.681L493.224 872.491C476.488 873.614 459.651 872.878 442.89 873.365C417.638 874.099 392.445 875.685 367.164 875.331C357.88 866.64 350.145 856.8 341.846 847.214C339.449 844.445 336.026 841.729 334.378 838.476Z"/><path fill="#B87C2A" transform="scale(0.787313 0.787313)" d="M323.791 850.958C327.917 852.209 336.72 863.578 339.773 867.247C340.897 868.175 341.876 869.103 342.824 870.211C348.665 876.04 354.97 881.744 360.468 887.878C361.897 897.049 361.888 906.758 362.256 916.038C362.698 927.146 363.331 938.331 363.341 949.446C363.243 955.64 364.008 962.408 363.15 968.5C362.458 973.414 358.266 978.963 359.469 983.658C358.56 983.366 358.253 983.118 357.663 982.414C356.887 981.489 356.174 981.272 355.039 980.97C347.827 976.492 320.609 948.857 316.368 941.643C315.67 925.348 316.243 908.796 316.594 892.493C316.788 883.461 316.144 873.178 318.137 864.358C319.205 859.63 321.727 855.308 323.791 850.958Z"/><path fill="#9D5C27" transform="scale(0.787313 0.787313)" d="M339.773 867.247C340.897 868.175 341.876 869.103 342.824 870.211C340.708 870.041 338.352 870.615 336.197 870.714L335.781 870.295L336.953 868.776C337.834 868.447 338.497 868.201 339.269 867.643C339.442 867.518 339.605 867.379 339.773 867.247Z"/><path fill="#B87C2A" transform="scale(0.787313 0.787313)" d="M493.275 871.681C494.51 872.173 496.202 872.541 496.925 873.644C496.011 886.404 497.556 899.338 496.619 912.066C496.777 939.889 497.983 968.199 496.348 995.966C492.846 996.241 489.329 996.594 485.815 996.652C476.546 995.974 466.689 996.685 457.365 996.763C458.861 981.247 458.378 965.696 458.565 950.13L459.571 882.624C470.387 882.637 481.202 882.569 492.016 882.422C492.131 882.31 492.264 882.213 492.36 882.084C493.794 880.181 493.229 874.904 493.224 872.491L493.275 871.681Z"/><path fill="#9D5C27" transform="scale(0.787313 0.787313)" d="M493.275 871.681C494.51 872.173 496.202 872.541 496.925 873.644C496.011 886.404 497.556 899.338 496.619 912.066C495.597 902.674 497.878 892.151 495.891 883.015C494.553 882.257 493.538 882.442 492.016 882.422C492.131 882.31 492.264 882.213 492.36 882.084C493.794 880.181 493.229 874.904 493.224 872.491L493.275 871.681Z"/><path fill="#9D5C27" transform="scale(0.787313 0.787313)" d="M363.341 949.446C364.606 959.915 364.696 977.509 362.795 987.855L362.441 987.491C361.252 986.292 360.154 985.493 358.668 984.7L355.039 980.97C356.174 981.272 356.887 981.489 357.663 982.414C358.253 983.118 358.56 983.366 359.469 983.658C358.266 978.963 362.458 973.414 363.15 968.5C364.008 962.408 363.243 955.64 363.341 949.446Z"/><path fill="#B87C2A" transform="scale(0.787313 0.787313)" d="M576.715 987.831C575.462 981.892 575.759 953.158 576.565 946.714L576.963 948.245C585.079 950.256 617.271 949.467 626.783 949.125C631.318 948.961 637.54 947.365 641.811 948.712C643.816 952.049 642.962 992.662 642.948 999.276C642.939 1003.59 642.063 1010.47 643.458 1014.48C645.24 1019.61 643.781 1024.9 644.818 1030.03C645.434 1033.08 649.234 1041.99 648.5 1044.38C648.14 1045.55 648.333 1044.68 648.125 1045.64L647.83 1047.03L648.597 1047.73C649.161 1047.75 649.877 1047.82 650.444 1047.71C651.587 1047.47 652.4 1046.75 652.61 1045.58C653.097 1042.86 652.722 1039.39 652.814 1036.58C653.469 1016.64 653.405 996.583 653.56 976.616C653.623 968.472 653.119 960.105 653.683 951.993C653.792 950.431 653.799 948.186 654.757 946.946C661.414 945.404 671.935 946.493 678.909 946.918L719.02 947.158L717.833 1013.59C717.556 1024.7 716.695 1035.83 716.747 1046.94C712.377 1049.09 702.468 1047.99 697.373 1048C688.972 1048.9 680.115 1048.45 671.662 1048.44C656.772 1048.44 641.882 1048.25 626.998 1047.85C610.236 1047.92 593.338 1048.45 576.615 1047.28C576.031 1040.01 576.588 1032.57 576.664 1025.28C576.803 1012.8 576.82 1000.31 576.715 987.831Z"/><path fill="#B87C2A" transform="scale(0.787313 0.787313)" d="M678.909 946.918L719.02 947.158L717.833 1013.59C717.556 1024.7 716.695 1035.83 716.747 1046.94C712.377 1049.09 702.468 1047.99 697.373 1048C682.86 1047.04 667.778 1047.87 653.203 1047.88C654.12 1014.3 653.639 980.66 654.879 947.12C662.689 947.275 671.162 947.986 678.909 946.918Z"/><path fill="#9D5C27" transform="scale(0.787313 0.787313)" d="M576.715 987.831C575.462 981.892 575.759 953.158 576.565 946.714L576.963 948.245C585.079 950.256 617.271 949.467 626.783 949.125C631.318 948.961 637.54 947.365 641.811 948.712C643.816 952.049 642.962 992.662 642.948 999.276C642.939 1003.59 642.063 1010.47 643.458 1014.48C645.24 1019.61 643.781 1024.9 644.818 1030.03C645.434 1033.08 649.234 1041.99 648.5 1044.38C648.14 1045.55 648.333 1044.68 648.125 1045.64L647.83 1047.03L648.597 1047.73C649.161 1047.75 649.877 1047.82 650.444 1047.71C651.587 1047.47 652.4 1046.75 652.61 1045.58C653.097 1042.86 652.722 1039.39 652.814 1036.58C653.469 1016.64 653.405 996.583 653.56 976.616C653.623 968.472 653.119 960.105 653.683 951.993C653.792 950.431 653.799 948.186 654.757 946.946C661.414 945.404 671.935 946.493 678.909 946.918C671.162 947.986 662.689 947.275 654.879 947.12C653.639 980.66 654.12 1014.3 653.203 1047.88C667.778 1047.87 682.86 1047.04 697.373 1048C688.972 1048.9 680.115 1048.45 671.662 1048.44C656.772 1048.44 641.882 1048.25 626.998 1047.85C631.865 1047.33 636.883 1047.47 641.779 1047.39C642.843 1014.77 642.735 981.641 641.574 949.022C636.488 949.802 631.068 949.827 625.926 950.044C609.497 950.666 593.047 950.461 576.638 949.429C577.539 961.912 577.071 975.307 576.715 987.831Z"/><path fill="#B87C2A" transform="scale(0.787313 0.787313)" d="M827.891 952.944C835.634 952.276 843.707 952.684 851.492 952.606C852.451 965.086 852.076 977.809 852.097 990.328L852.45 1033.02C821.28 1034.64 790.001 1033.86 758.813 1033.21C750.795 1032.83 742.863 1032.19 734.826 1032.14C734.373 1019.11 734.884 1005.96 735.136 992.923C735.391 979.799 735.423 966.668 736.169 953.56C746.158 952.689 756.443 952.992 766.47 952.988C786.949 952.98 807.414 953.449 827.891 952.944Z"/><path fill="#DA9933" transform="scale(0.787313 0.787313)" d="M590.36 754.443C601.262 753.437 612.292 753.413 623.235 753.178C631.815 752.994 640.403 752.542 648.984 752.778C656.666 758.179 663.458 765.146 670.658 771.197C687.205 785.102 709.164 799.039 718.703 819.106C704.613 818.725 690.522 818.777 676.422 818.334C670.552 818.149 664.38 818.273 658.566 817.482C656.318 818.214 654.665 818.64 652.456 817.549C647.055 814.882 639.31 801.781 635.197 802.803C634.024 803.094 633.988 803.21 633.417 804.196C634.007 809.416 642.369 813.391 640.372 819.156C639.518 819.927 639.329 820.181 638.154 820.313C633.421 820.843 628.248 820.349 623.456 820.447C611.969 820.682 600.372 821.323 588.895 820.901C588.286 820.879 587.698 820.807 587.095 820.731C582.3 820.623 577.465 821.175 572.687 821.548C568.372 817.99 564.44 813.783 560.44 809.873C553.852 803.486 547.323 797.038 540.854 790.53C533.949 783.471 527.517 775.464 518.905 770.472C518.982 770.369 519.058 770.264 519.136 770.162L519.531 769.654C519.997 769.048 520.455 768.44 520.959 767.865C527.846 760.01 563.426 755.693 574.744 755.002C579.214 757.439 582.984 761.586 586.671 765.048C587.094 765.075 587.535 765 587.939 765.129C591.038 766.123 610.182 788.907 616.402 792.633C613.959 786.735 597.339 775.96 596.711 770.662C597.356 769.863 597.572 769.677 598.626 769.427C599.445 769.232 600.813 769.223 601.636 769.428C605.334 770.349 615.229 783.615 620.641 786.924L620.073 786.043L620.203 786.176C614.173 780.002 608.544 773.419 602.444 767.317C600.851 765.722 595.194 761.248 594.522 759.674C594.362 759.3 594.434 758.866 594.39 758.462L590.36 754.443Z"/><path fill="#DA9933" transform="scale(0.787313 0.787313)" d="M590.36 754.443C601.262 753.437 612.292 753.413 623.235 753.178C631.815 752.994 640.403 752.542 648.984 752.778C656.666 758.179 663.458 765.146 670.658 771.197C687.205 785.102 709.164 799.039 718.703 819.106C704.613 818.725 690.522 818.777 676.422 818.334C670.552 818.149 664.38 818.273 658.566 817.482C656.553 817.166 654.48 817.03 652.451 816.814C641.686 805.582 630.171 795.095 619.386 783.918C611.306 775.545 603.671 765.469 594.39 758.462L590.36 754.443Z"/><path fill="#9D5C27" transform="scale(0.787313 0.787313)" d="M594.39 758.462C603.671 765.469 611.306 775.545 619.386 783.918C630.171 795.095 641.686 805.582 652.451 816.814C654.48 817.03 656.553 817.166 658.566 817.482C656.318 818.214 654.665 818.64 652.456 817.549C647.055 814.882 639.31 801.781 635.197 802.803C634.024 803.094 633.988 803.21 633.417 804.196C634.007 809.416 642.369 813.391 640.372 819.156C639.518 819.927 639.329 820.181 638.154 820.313C633.421 820.843 628.248 820.349 623.456 820.447C611.969 820.682 600.372 821.323 588.895 820.901C588.286 820.879 587.698 820.807 587.095 820.731C591.799 819.848 597.068 820.08 601.857 819.921C614.479 819.501 627.116 819.464 639.743 819.174C627.997 805.912 614.923 793.257 602.366 780.738C597.306 775.694 591.011 770.676 586.671 765.048C587.094 765.075 587.535 765 587.939 765.129C591.038 766.123 610.182 788.907 616.402 792.633C613.959 786.735 597.339 775.96 596.711 770.662C597.356 769.863 597.572 769.677 598.626 769.427C599.445 769.232 600.813 769.223 601.636 769.428C605.334 770.349 615.229 783.615 620.641 786.924L620.073 786.043L620.203 786.176C614.173 780.002 608.544 773.419 602.444 767.317C600.851 765.722 595.194 761.248 594.522 759.674C594.362 759.3 594.434 758.866 594.39 758.462Z"/><path fill="#B87C2A" transform="scale(0.787313 0.787313)" d="M664.633 832.016C683.481 830.854 702.439 832.354 721.31 832.054C721.717 841.922 722.125 930.136 720.912 932.587C720.476 933.468 719.472 934.521 718.869 935.33L711.052 935.62C693.18 936.428 672.48 936.934 654.764 935.325C653.032 926.756 654.14 908.783 654.146 899.455C654.159 877.029 653.753 854.526 654.328 832.11L664.633 832.016Z"/><path fill="#B87C2A" transform="scale(0.787313 0.787313)" d="M578.996 831.349C585.145 831.925 591.818 831.274 598.039 831.234C612.43 831.06 626.822 831.055 641.214 831.221C642.294 846.691 641.828 862.297 642.04 877.801C642.293 896.335 643.185 915.271 642.24 933.767C641.513 934.991 641.282 935.141 640.032 935.844C619.026 937.431 597.954 937.991 576.893 937.52C580.347 903.315 577.217 866.286 578.996 831.349Z"/><path fill="#B87C2A" transform="scale(0.787313 0.787313)" d="M775.048 814.22C784.477 813.679 793.99 813.955 803.433 813.989C816.677 814.036 829.905 814.005 843.144 814.453C843.389 824.989 843.256 835.563 843.269 846.104C843.276 852.216 843.743 858.88 842.98 864.926C842.703 867.123 842.236 869.094 840.814 870.836C835.694 873.483 810.226 872.531 803.305 872.615C781.102 873.387 758.823 873.057 736.607 873.032C737.577 853.486 737.906 833.897 738.916 814.364C750.923 814.716 763.034 814.347 775.048 814.22Z"/><defs><linearGradient id="gradient_12" gradientUnits="userSpaceOnUse" x1="801.01337" y1="882.39459" x2="782.80188" y2="953.86902"><stop offset="0" stop-color="#C18128"/><stop offset="1" stop-color="#DB9F35"/></linearGradient></defs><path fill="url(#gradient_12)" transform="scale(0.787313 0.787313)" d="M742.906 891.126C774.684 890.858 806.703 889.951 838.459 890.915C840.504 893.749 842.55 896.297 845.047 898.746C847.153 908.322 846.069 934.824 848.549 940.478C848.922 941.329 848.681 941.572 848.47 942.455C846.814 943.321 844.207 943.11 842.346 943.197C825.754 942.839 809.154 943.197 792.56 943.217C784.267 943.228 775.983 942.776 767.691 942.855C757.12 942.957 746.499 943.835 735.935 943.472C735.936 926.127 736.133 908.782 736.525 891.441L742.906 891.126Z"/><path fill="#B87C2A" transform="scale(0.787313 0.787313)" d="M509.807 890.169C510.483 889.297 511.317 888.541 512.095 887.76C521.964 898.617 531.155 910.06 540.763 921.147C547.555 928.983 555.245 936.641 561.32 945.021C562.376 966.95 561.223 989.012 561.992 1010.97C562.284 1019.32 562.272 1028.12 564.111 1036.28C565.224 1041.22 566.872 1045.22 570.087 1049.17C567.464 1048.58 563.983 1048.13 561.666 1046.78C549.493 1039.72 525.352 1011.58 517.38 998.994C515.68 996.309 514.141 993.576 513.532 990.424C511.522 980.01 512.051 967.995 511.613 957.364C510.69 934.987 509.431 912.569 509.807 890.169Z"/><path fill="#B87C2A" transform="scale(0.787313 0.787313)" d="M514.034 780.164C519.488 783.187 535.667 801.517 541.147 806.895C550.167 815.748 560.053 823.803 568.457 833.271C569.543 859.798 569.255 886.546 569.021 913.086C568.988 916.8 568.741 920.699 569.043 924.397C569.314 927.716 572.061 932.242 570.757 935.084C562.001 923.463 551.899 912.842 542.947 901.329C536.335 892.827 530.869 883.011 523.768 874.979C520.613 871.409 516.361 868.962 513.036 865.427C511.635 847.774 512.645 829.566 513.323 811.887C513.635 801.314 513.872 790.74 514.034 780.164Z"/><path fill="#DA9933" transform="scale(0.787313 0.787313)" d="M706.089 762.365C720.149 762.004 734.263 762.601 748.332 762.55C764.685 762.491 781.007 762.439 797.36 762.889C803.975 763.071 812.155 762.692 818.558 764.403C821.908 765.298 825.471 768.247 828.033 770.482C834.791 776.376 845.26 787.993 845.579 797.561C845.618 798.744 845.416 799.894 844.578 800.774C842.287 803.179 833.4 802.038 830.111 802.003C796.18 801.914 762.244 802.548 728.322 801.737C721.103 796.372 714.855 788.853 708.597 782.404C702.323 775.938 695.777 769.747 689.423 763.359C694.918 762.491 700.538 762.525 706.089 762.365Z"/><path fill="#42211C" transform="scale(0.787313 0.787313)" d="M368.263 825.738C376.363 824.861 389.407 830.217 397.661 827.498C392.517 826.55 385.613 826.182 380.438 826.791C380.211 826.818 379.985 826.85 379.758 826.879L379.475 826.139L380.183 825.447C383.442 824.88 387.244 825.699 390.604 825.728C401.859 825.827 413.101 825.808 424.356 826.043C423.069 826.861 421.238 827.04 419.757 827.353C418.764 826.987 417.796 826.75 416.767 826.513L416.201 827.174C416.439 827.215 416.68 827.24 416.914 827.298C419.547 827.955 422.309 827.439 424.747 828.667C426.366 827.829 444.374 826.747 446.976 826.855L447.433 828.371L446.613 828.593C442.334 826.909 438.966 829.259 434.607 829.375C423.45 829.673 412.105 829.046 400.913 829.062C396.181 829.069 391.41 828.958 386.682 829.12C384.867 829.182 382.988 829.584 381.181 829.447C379.851 829.346 378.614 828.699 377.43 828.127L377.675 828.207C373.001 825.728 371.044 826.268 365.869 827.139L365.413 826.726C366.358 826.334 367.285 826.03 368.263 825.738Z"/><path fill="#7F4428" transform="scale(0.787313 0.787313)" d="M509.243 879.362C510.055 882.003 511.93 885.058 512.095 887.76C511.317 888.541 510.483 889.297 509.807 890.169C508.529 886.515 508.964 883.152 509.243 879.362Z"/><path fill="#424257" transform="scale(0.787313 0.787313)" d="M630.262 730.859C630.465 733.824 630.216 735.851 629.303 738.652C632.28 738.293 635.638 737.191 638.576 737.733C639.292 737.865 640.015 737.966 640.732 738.093L641.291 737.587C641.321 736.348 641.196 735.48 640.903 734.277C640.402 732.224 640.37 718.997 640.718 716.861C640.254 715.879 640.335 715.817 639.335 715.435L641.671 712.365C642.157 721.306 641.946 730.335 641.962 739.29C637.864 739.211 633.366 738.561 629.365 739.507C613.525 740.069 597.681 740.519 581.835 740.857C570.488 741.151 559.041 741.139 547.765 742.564C539.264 743.638 531.108 746.428 522.684 747.96C515.684 750.268 511.956 754.587 508.702 761.029C505.819 766.736 503.562 773.313 502.613 779.666C497.96 794.627 496.714 825.204 496.552 841.101C494.578 840.163 489.164 838.159 488.37 836.236C490.939 836.898 493.823 838.929 496.192 840.214C496.142 836.492 497.431 827.068 494.976 824.258C493.606 822.691 490.156 822.486 488.171 822.451C487.492 822.439 487.38 822.31 486.9 822.787C487.454 822.833 487.964 822.877 488.498 823.042C490.312 823.605 492.917 824.936 493.821 826.695C494.244 827.517 494.159 827.162 493.858 828.111C492.065 826.494 490.507 825.444 488.154 824.772L484.147 823.626C480.816 823.544 477.546 822.804 474.206 822.875C465.28 823.066 456.406 824.183 447.423 824.186C437.202 824.191 426.928 823.353 416.693 823.261C401.693 823.127 386.729 823.632 371.714 823.32C362.721 823.133 353.64 823.646 344.675 822.955L349.377 822.821C343.99 822.358 338.553 821.996 333.182 821.416C325.022 825.566 317.256 831.322 314.306 840.385C312.412 846.201 312.214 852.348 309.99 858.11C310.022 856.248 310.402 854.412 310.459 852.534L309.399 851.912C305.406 863.862 304.834 905.328 304.532 919.668C304.689 923.627 304.406 927.023 306.882 930.322C307.789 934.394 306.097 938.136 306.998 941.938C307.062 942.208 307.117 942.48 307.186 942.748C307.231 942.921 307.287 943.091 307.338 943.262C309.132 944.885 316.658 961.837 318.814 965.732L318.298 966.385C311.913 961.241 307.046 951.103 303.367 943.789C283.048 942.953 261.975 942.657 241.673 943.553C241.321 943.355 241.017 942.982 240.727 942.699C241.768 941.496 243.431 941.389 244.954 940.994L245.153 940.556C250.589 938.854 256.748 940.955 262.03 939.046C255.871 938.901 248.923 939.109 242.848 938.248C241.604 938.072 241.203 937.544 240.43 936.62L240.47 935.948C240.48 935.753 240.497 935.234 240.527 935.045C240.943 932.423 238.066 926.96 237.679 923.369C236.822 915.42 236.977 906.408 238.039 898.495C237.775 880.87 239.373 863.174 239.624 845.532L240.295 716.521C258.179 714.99 276.82 716.032 294.81 716.033L392.176 716.042L540.575 716.613C570.105 716.57 599.737 715.565 629.253 716.175C631.326 718.614 630.405 727.686 630.262 730.859Z"/><path fill="#2E3249" transform="scale(0.787313 0.787313)" d="M262.03 939.046C255.871 938.901 248.923 939.109 242.848 938.248C241.604 938.072 241.203 937.544 240.43 936.62L240.47 935.948C240.48 935.753 240.497 935.234 240.527 935.045C240.943 932.423 238.066 926.96 237.679 923.369C236.822 915.42 236.977 906.408 238.039 898.495C238.455 908.465 238.132 918.502 238.803 928.45C244.418 927.96 250.335 927.528 255.942 928.253C256.77 929.841 255.67 930.851 256.136 932.553L256.221 932.528C256.607 931.203 256.766 929.616 257.847 928.746C273.276 927.804 288.919 927.121 304.377 927.132C304.367 924.706 304.163 922.056 304.532 919.668C304.689 923.627 304.406 927.023 306.882 930.322C307.789 934.394 306.097 938.136 306.998 941.938C307.062 942.208 307.117 942.48 307.186 942.748C307.231 942.921 307.287 943.091 307.338 943.262C309.132 944.885 316.658 961.837 318.814 965.732L318.298 966.385C311.913 961.241 307.046 951.103 303.367 943.789C283.048 942.953 261.975 942.657 241.673 943.553C241.321 943.355 241.017 942.982 240.727 942.699C241.768 941.496 243.431 941.389 244.954 940.994L245.153 940.556C250.589 938.854 256.748 940.955 262.03 939.046Z"/><path fill="#7F4428" transform="scale(0.787313 0.787313)" d="M262.03 939.046C268.197 938.932 302.505 936.275 305.276 938.369C305.458 939.857 305.473 941.198 305.383 942.693L307.338 943.262C309.132 944.885 316.658 961.837 318.814 965.732L318.298 966.385C311.913 961.241 307.046 951.103 303.367 943.789C283.048 942.953 261.975 942.657 241.673 943.553C241.321 943.355 241.017 942.982 240.727 942.699C241.768 941.496 243.431 941.389 244.954 940.994L245.153 940.556C250.589 938.854 256.748 940.955 262.03 939.046Z"/><path fill="#302634" transform="scale(0.787313 0.787313)" d="M262.03 939.046C268.197 938.932 302.505 936.275 305.276 938.369C305.458 939.857 305.473 941.198 305.383 942.693C295.948 939.337 284.424 941.025 274.548 941.072L244.954 940.994L245.153 940.556C250.589 938.854 256.748 940.955 262.03 939.046Z"/><path fill="#42211C" transform="scale(0.787313 0.787313)" d="M427.341 817.253C436.118 817.269 445.077 816.986 453.828 817.593C458.285 817.903 481.591 821.164 484.147 823.626C480.816 823.544 477.546 822.804 474.206 822.875C465.28 823.066 456.406 824.183 447.423 824.186C437.202 824.191 426.928 823.353 416.693 823.261C401.693 823.127 386.729 823.632 371.714 823.32C362.721 823.133 353.64 823.646 344.675 822.955L349.377 822.821C343.99 822.358 338.553 821.996 333.182 821.416C337.379 819.77 342.439 820.448 346.888 820.217C377.356 818.636 407.829 819.456 438.317 818.833L438.491 818.254C434.748 817.96 431.064 817.791 427.341 817.253Z"/><defs><linearGradient id="gradient_13" gradientUnits="userSpaceOnUse" x1="374.65338" y1="816.18585" x2="375.67807" y2="837.61853"><stop offset="0" stop-color="#0E0706"/><stop offset="1" stop-color="#2E1E21"/></linearGradient></defs><path fill="url(#gradient_13)" transform="scale(0.787313 0.787313)" d="M309.399 851.912C310.503 841.93 312.588 830.926 320.008 823.597C323.176 820.467 326.693 818.835 331.031 817.999C341.853 815.913 354.398 817.01 365.436 817.025L427.341 817.253C431.064 817.791 434.748 817.96 438.491 818.254L438.317 818.833C407.829 819.456 377.356 818.636 346.888 820.217C342.439 820.448 337.379 819.77 333.182 821.416C325.022 825.566 317.256 831.322 314.306 840.385C312.412 846.201 312.214 852.348 309.99 858.11C310.022 856.248 310.402 854.412 310.459 852.534L309.399 851.912Z"/><path fill="#2E3249" transform="scale(0.787313 0.787313)" d="M630.262 730.859C630.465 733.824 630.216 735.851 629.303 738.652C632.28 738.293 635.638 737.191 638.576 737.733C639.292 737.865 640.015 737.966 640.732 738.093L641.291 737.587C641.321 736.348 641.196 735.48 640.903 734.277C640.402 732.224 640.37 718.997 640.718 716.861C640.254 715.879 640.335 715.817 639.335 715.435L641.671 712.365C642.157 721.306 641.946 730.335 641.962 739.29C637.864 739.211 633.366 738.561 629.365 739.507C613.525 740.069 597.681 740.519 581.835 740.857C570.488 741.151 559.041 741.139 547.765 742.564C539.264 743.638 531.108 746.428 522.684 747.96C528.322 741.971 563.529 738.293 572.407 737.879C581.516 737.453 590.816 738.147 599.948 738.249C609.901 738.361 619.787 737.896 629.728 737.491C629.748 735.364 629.483 732.856 630.262 730.859Z"/><path fill="#909192" transform="scale(0.787313 0.787313)" d="M41.7829 319.6C103.662 319.328 165.543 319.379 227.421 319.754L550.177 319.515L733.38 319.67C750.107 319.729 766.835 319.681 783.562 319.525C796.887 319.421 810.32 319.05 823.625 319.9C824.791 334.235 824.773 349.471 824.283 363.838C824.092 360.414 823.958 356.986 823.881 353.557C772.277 354.74 720.659 355.215 669.041 354.983L339.662 355.103L145.57 355.432C122.473 355.445 99.3567 355.611 76.2616 355.303C64.8724 355.152 53.0894 355.459 41.7771 354.141C41.7692 359.533 41.8941 364.958 41.4769 370.337C41.2549 353.574 40.5462 336.309 41.7829 319.6Z"/><path fill="#79707D" transform="scale(0.787313 0.787313)" d="M41.3749 906.125C62.6237 907.002 84.0663 906.387 105.335 906.217C133.363 906.031 161.391 906.024 189.419 906.198C201.298 906.27 213.334 905.56 225.19 906.192L225.687 946.125C225.794 954.764 226.355 964.041 225.108 972.594C181.349 973.153 137.584 973.166 93.8245 972.633L58.4213 972.619C53.082 972.62 46.706 973.3 41.5257 972.331L40.9972 969.449C42.242 965.108 41.3673 954.563 41.3644 949.56L41.3749 906.125Z"/><path fill="#909192" transform="scale(0.787313 0.787313)" d="M40.9972 969.449C44.0182 969.174 46.4746 968.96 49.3148 970.288L49.4155 971.004C47.0183 972.654 44.3215 972.313 41.5257 972.331L40.9972 969.449Z"/><path fill="#302634" transform="scale(0.787313 0.787313)" d="M69.7004 22.8599C70.199 22.0456 70.805 21.3021 71.502 20.6496C73.1281 19.0741 75.1819 18.0118 77.4074 17.5952C83.7231 16.4595 91.5985 17.4818 98.0711 17.5422L141.988 17.8636C142.487 18.7668 142.136 18.5056 143.143 18.8094C147.081 19.9984 151.643 18.6578 155.775 19.8303C199.272 20.2019 242.838 19.1376 286.32 19.9073C280.525 20.4241 248.17 20.8837 246.616 21.5385L246.476 21.8998C247.838 21.8912 249.379 21.7145 250.657 22.1817C247.464 22.2446 244.065 22.8862 240.924 22.7332C238.514 22.6157 236.335 21.8624 233.972 21.5504C230.513 21.0936 226.483 21.4412 222.972 21.5003C209.49 21.7274 196.186 23.098 182.635 22.7359C177.639 22.6024 172.705 21.8598 167.719 21.6175C157.898 21.2203 148.068 21.0835 138.24 21.2071C132.473 21.2227 126.632 20.9294 120.936 21.9459L123.748 22.1395C120.112 22.3644 116.469 22.6603 112.824 22.5772L112.821 22.179L114.521 22.0355L114.402 21.5709C108.876 20.5014 100.811 21.3875 94.9988 21.3107L95.1296 21.7681L100.26 22.921C94.8821 23.5613 88.6124 23.5989 83.1991 23.3842C80.8468 23.2909 76.7497 22.3444 74.5904 22.7898C73.9929 22.913 73.0824 23.6903 72.6916 24.1461C68.5308 28.9986 66.4151 39.5997 64.6266 45.7756C61.7461 55.722 59.4914 65.8652 56.9568 75.9034L41.0964 139.641L26.2797 200.919C23.9709 210.819 21.0517 220.602 19.1043 230.59C18.761 221.216 23.9656 208.829 26.1414 199.337L43.8063 124.532C45.6569 116.499 48.853 106.509 50.0608 98.6365C50.557 95.4023 51.9544 91.8377 52.8011 88.621C54.1897 83.3458 55.2799 77.9378 56.7083 72.6979C57.5003 69.7925 58.5749 67.2549 58.9688 64.2362C59.0853 63.3439 59.4892 62.3976 58.9613 61.6456C57.0435 67.7658 53.7941 85.6981 51.2539 89.5344C49.6847 91.9043 49.8955 96.9829 49.1788 99.9144C48.6467 102.091 47.4935 104.078 46.8826 106.24C44.6516 114.134 43.1223 123.171 41.2035 131.262C39.6759 137.705 37.5795 143.347 36.854 150.044C36.7675 150.842 36.8848 152.362 36.0246 152.543C35.3418 152.686 34.7947 152.629 34.1102 152.561C31.592 158.537 35.6802 162.687 31.1033 167.785C27.6415 171.641 29.7093 178.336 28.759 182.955C28.1358 185.985 26.0795 188.81 25.5205 191.812C25.1433 193.838 26.056 196.292 25.5235 198.237C24.7571 201.036 21.8338 202.405 21.1855 205.961C20.5709 209.332 21.6563 212.76 20.8398 216.106C20.692 216.084 20.5449 216.057 20.3964 216.042C19.655 215.966 19.9161 215.988 19.0603 216.219C16.6117 221.169 14.2175 243.353 11.2811 246.147C13.2453 232.823 17.1862 219.349 20.3441 206.24L35.4452 143.434C41.1361 119.98 46.979 96.5633 52.9738 73.1854C55.9734 61.4879 58.5977 49.4373 62.3602 37.9665C64.1157 32.6145 66.2166 27.3348 69.7004 22.8599Z"/><path fill="#4A411A" transform="scale(0.787313 0.787313)" d="M69.7004 22.8599C70.199 22.0456 70.805 21.3021 71.502 20.6496C73.1281 19.0741 75.1819 18.0118 77.4074 17.5952C83.7231 16.4595 91.5985 17.4818 98.0711 17.5422L141.988 17.8636C142.487 18.7668 142.136 18.5056 143.143 18.8094C147.081 19.9984 151.643 18.6578 155.775 19.8303C136.953 20.4174 117.856 20.2077 99.0229 19.8839C92.2813 19.768 84.6186 18.1867 78.0304 19.1256C75.025 19.5539 72.407 21.5728 69.7004 22.8599Z"/><path fill="#4A4F10" transform="scale(0.787313 0.787313)" d="M141.988 17.8636C161.018 17.172 180.292 17.7884 199.343 17.7839L312.777 17.7834L485.897 17.7739C510.129 17.7425 534.39 17.1125 558.616 17.3712L559.078 18.2729C563.293 19.2598 567.695 18.2731 571.854 19.3267C500.085 20.4323 428.332 19.0474 356.579 19.7706L308.391 19.8388C301.188 19.8358 293.469 19.2579 286.32 19.9073C242.838 19.1376 199.272 20.2019 155.775 19.8303C151.643 18.6578 147.081 19.9984 143.143 18.8094C142.136 18.5056 142.487 18.7668 141.988 17.8636Z"/><path fill="#4A6B52" transform="scale(0.787313 0.787313)" d="M835.944 594.829L836.47 594.683C836.339 602.655 837.068 610.654 837.246 618.628C837.348 623.138 836.859 627.634 836.932 632.142C839.854 623.283 836.529 614.312 839.219 605.584C839.295 605.757 839.364 605.934 839.447 606.105C839.83 606.89 840.479 607.295 841.143 607.825C843.276 609.531 843.78 611.234 844.089 613.919C844.62 618.541 843.755 625.808 840.851 629.547C840.444 630.072 839.999 630.562 839.548 631.049L838.739 689.106C838.502 702.719 837.291 718.257 838.287 731.71C838.874 739.637 840.224 747.673 841.639 755.484C842.138 758.234 842.987 761.493 840.821 763.716C837.34 760.576 833.76 757.672 831.279 753.644L832.66 753.557C835.88 749.692 834.63 745.949 834.25 741.412C834.064 739.181 834.179 736.864 833.656 734.678C832.806 731.123 831.271 727.9 831.371 724.152C831.52 718.542 833.007 713.202 833.911 707.701C834.61 703.447 834.848 699.064 834.992 694.757C835.358 683.906 834.018 673.181 834.102 662.36C834.135 658.218 835.791 654.097 835.592 650.1C835.183 641.873 834.064 633.787 834.22 625.493C834.323 619.985 834.465 614.299 834.918 608.811C835.321 603.942 836.305 599.812 835.944 594.829Z"/><path fill="#4A6B52" transform="scale(0.787313 0.787313)" d="M24.2423 639.116C25.4835 641.394 25.023 644.196 25.736 646.695L25.8462 646.169C26.5815 651.807 26.229 658.59 28.2377 663.88C29.1318 685.984 27.5548 708.343 27.5681 730.492C27.7563 756.132 27.7281 781.773 27.4833 807.413C27.4822 819.063 28.0378 830.767 27.7209 842.408C26.9098 845.294 27.5077 849.859 25.6074 852.108L22.8472 849.811C23.9706 837.737 23.7831 825.48 23.7734 813.363L23.7425 764.547C23.9586 722.703 25.4468 680.95 24.2423 639.116Z"/><path fill="#49573F" transform="scale(0.787313 0.787313)" d="M836.417 445.283C836.747 450.389 836.853 455.49 836.956 460.605C837.511 465.951 837.521 476.791 839.036 481.32C839.364 485.478 839.442 489.656 840.013 493.791C839.095 520.953 839.465 548.263 839.463 575.443C839.463 582.396 840.624 599.689 839.219 605.584C836.529 614.312 839.854 623.283 836.932 632.142C836.859 627.634 837.348 623.138 837.246 618.628C837.068 610.654 836.339 602.655 836.47 594.683L835.944 594.829C834.651 587.41 835.596 578.159 835.601 570.583L835.623 517.418C835.606 510.906 834.471 504.651 834.185 498.19C833.654 486.169 833.965 473.708 834.308 461.667C834.461 456.313 834.561 450.336 836.417 445.283Z"/><path fill="#4A6B52" transform="scale(0.787313 0.787313)" d="M836.417 445.283C835.882 423.629 836.355 401.848 836.384 380.178C836.403 366.024 835.585 351.175 836.73 337.093C836.968 334.173 838.195 331.412 838.555 328.449L838.634 327.77C840.554 334.841 839.591 343.384 839.689 350.745L840.233 467.409C838.205 471.839 840.941 477.253 839.036 481.32C837.521 476.791 837.511 465.951 836.956 460.605C836.853 455.49 836.747 450.389 836.417 445.283Z"/><path fill="#545E22" transform="scale(0.787313 0.787313)" d="M25.6327 321.111L26.6041 321.175C27.5643 322.594 27.6499 324.409 27.748 326.081C28.6354 341.204 27.8756 358.151 27.8878 373.444L28.0035 456.673C27.9577 463.356 27.0991 470.204 27.5009 476.868C23.8292 474.257 26.2278 472.225 24.5013 468.866C25.5037 466.075 27.2691 329.68 25.6327 321.111Z"/><path fill="#497226" transform="scale(0.787313 0.787313)" d="M27.3352 535.393L27.5833 535.299C25.952 553.115 25.3748 571.772 25.9657 589.669C26.3925 602.598 27.7254 615.542 27.2923 628.489C24.8787 623.473 26.7603 613.631 23.1733 610.177C22.6971 588.912 21.1861 562.035 23.6245 541.279L24.2367 542.226L24.9367 542.133C26.2658 540.165 26.7111 537.663 27.3352 535.393Z"/><path fill="#49573F" transform="scale(0.787313 0.787313)" d="M25.6074 852.108C27.5077 849.859 26.9098 845.294 27.7209 842.408C28.521 863.311 28.0376 884.117 27.8002 905.024L27.501 958.41L27.2479 958.643L27.1856 956.14L26.8543 956.511C26.9521 958.219 27.2589 959.878 26.3415 961.404L25.6866 961.117L25.7021 887.67C25.6519 876.092 24.3354 863.554 25.6074 852.108Z"/><path fill="#537644" transform="scale(0.787313 0.787313)" d="M24.5013 468.866C26.2278 472.225 23.8292 474.257 27.5009 476.868C27.711 477.118 27.9941 477.321 28.131 477.617C28.413 478.227 27.7685 530.074 27.5833 535.299L27.3352 535.393C26.7111 537.663 26.2658 540.165 24.9367 542.133L24.2367 542.226L23.6245 541.279C24.1477 537.767 24.3947 534.178 24.7561 530.643C24.3266 526.004 24.7938 520.938 24.8397 516.26C24.9418 505.867 25.0896 495.285 24.6243 484.898C24.4782 481.635 22.0717 475.145 22.5543 472.526C22.7337 471.553 23.9989 469.811 24.5013 468.866Z"/><path fill="#497226" transform="scale(0.787313 0.787313)" d="M665.217 17.2693C688.223 17.4091 711.186 16.5177 734.188 17.4348C743.069 17.2495 752.443 17.1706 761.166 19.0708C760.389 19.7 759.828 20.0518 758.811 20.1827C753.488 20.8681 731.667 20.2688 726.175 19.5655C725.697 19.5044 725.226 19.3999 724.753 19.3079C717.938 19.8497 710.649 19.3543 703.773 19.397C692.674 19.4659 680.378 20.5705 669.47 18.9994C667.837 18.7642 666.594 18.1475 665.217 17.2693Z"/><path fill="#545E22" transform="scale(0.787313 0.787313)" d="M558.616 17.3712C579.894 17.0994 601.174 17.0665 622.453 17.2725L646.525 17.3494C641.818 21.0048 625.004 19.4095 618.653 19.2995C603.167 20.0516 587.359 19.6193 571.854 19.3267C567.695 18.2731 563.293 19.2598 559.078 18.2729L558.616 17.3712Z"/><path fill="#537644" transform="scale(0.787313 0.787313)" d="M23.1733 610.177C26.7603 613.631 24.8787 623.473 27.2923 628.489C27.9207 634.839 29.1441 658.639 28.2377 663.88C26.229 658.59 26.5815 651.807 25.8462 646.169L25.736 646.695C25.023 644.196 25.4835 641.394 24.2423 639.116C23.9617 629.467 23.6053 619.82 23.1733 610.177Z"/><path fill="#49573F" transform="scale(0.787313 0.787313)" d="M857.313 275.722C859.818 286.943 861.565 298.709 855.166 308.987C852.148 313.833 847.092 318.376 842.257 321.397C842.263 320.611 842.278 320.018 842.783 319.371C845.023 316.5 848.059 314.084 850.388 311.185C852.546 308.498 853.667 305.482 856.011 302.895C856.682 297.024 856.109 279.073 857.313 275.722Z"/><path fill="#5C5565" transform="scale(0.787313 0.787313)" d="M81.2749 32.489C152.772 33.3066 224.332 32.613 295.838 32.5721L540.057 32.9381L678.608 33.0161C697.531 32.9185 716.454 33.0069 735.374 33.2812C743.136 33.4447 751.138 33.2823 758.853 34.0371C763.693 34.5106 767.19 36.1351 770.592 39.597C774.547 43.6218 776.936 48.4121 778.916 53.6446C783.692 66.2661 787.459 79.4251 791.236 92.3789C798.205 116.281 804.495 140.377 811.384 164.299C817.543 185.273 823.531 206.298 829.347 227.37C831.859 236.453 835.31 245.999 836.837 255.253C826.219 254.094 815.21 253.878 804.529 253.865C792.452 255.315 779.455 254.192 767.281 254.152C742.77 254.239 718.259 254.147 693.749 253.875L565.231 254.035C552.696 253.926 540.152 254.223 527.62 253.762C521.375 253.532 486.367 254.936 484.368 253.368L229.287 253.866C213.18 255.339 196.219 254.6 180.025 254.59L81.1307 253.862C68.2726 253.797 55.3818 254.133 42.5175 254.155C36.7272 254.164 29.5792 254.925 23.99 253.489C25.0392 245.949 27.7395 238.093 29.6059 230.684L41.1615 184.426L61.2179 104.435C67.2757 80.2982 73.0335 55.9923 81.2749 32.489Z"/><path fill="#79707D" transform="scale(0.787313 0.787313)" d="M252.129 81.8185C276.91 83.07 302.02 82.2064 326.835 82.2247C336.532 82.2318 346.458 81.8253 356.113 82.6169C355.76 93.4216 354.335 104.141 353.354 114.896C351.228 138.217 348.927 161.309 346.249 184.576C345.207 193.628 345.328 202.565 344.549 211.586C343.808 220.163 342.043 228.656 340.466 237.103C339.689 241.27 337.926 248.377 340.503 252.146C341.558 252.499 341.696 252.595 342.753 252.084C346.597 250.226 346.853 244.906 348.094 241.303C348.775 239.327 349.614 236.693 351.669 235.811C351.927 235.7 352.193 235.608 352.455 235.506C354.797 230.212 354.553 222.643 355.341 216.904C360.273 181.022 362.6 144.816 366.738 108.84C367.753 100.007 368.296 91.0566 369.697 82.2784L447.779 82.475C462.484 82.4621 477.58 81.5753 492.244 82.6868C494.091 94.4675 495.192 106.31 496.982 118.077C500.242 139.506 503.982 160.682 506.54 182.231C509.335 205.772 510.726 229.412 514.481 252.834C504.548 253.428 494.184 252.178 484.368 253.368L229.287 253.866C225.41 253.105 220.847 253.421 216.874 253.305C221.38 240.389 223.884 227.411 226.928 214.121C231 196.417 234.632 178.614 237.822 160.73C242.434 134.411 246.311 107.914 252.129 81.8185Z"/><path fill="#79707D" transform="scale(0.787313 0.787313)" d="M81.2749 32.489C152.772 33.3066 224.332 32.613 295.838 32.5721L540.057 32.9381L678.608 33.0161C697.531 32.9185 716.454 33.0069 735.374 33.2812C743.136 33.4447 751.138 33.2823 758.853 34.0371C763.693 34.5106 767.19 36.1351 770.592 39.597C774.547 43.6218 776.936 48.4121 778.916 53.6446C783.692 66.2661 787.459 79.4251 791.236 92.3789C798.205 116.281 804.495 140.377 811.384 164.299C817.543 185.273 823.531 206.298 829.347 227.37C831.859 236.453 835.31 245.999 836.837 255.253C826.219 254.094 815.21 253.878 804.529 253.865C799.12 252.859 793.054 253.284 787.537 253.233C781.808 215.895 766.579 179.058 755.342 143.017C747.574 118.105 742.355 91.6715 731.189 68.0468C591.478 67.199 451.762 67.1757 312.051 67.977L181.469 67.5752L148.72 67.6046C139.036 67.6006 129.433 67.2134 119.853 68.8661C116.569 76.1927 115.841 85.6527 114.384 93.5425C112.667 102.678 110.807 111.786 108.804 120.863C98.8205 164.996 85.9029 208.216 78.7337 252.986C60.5584 253.838 42.1925 253.373 23.99 253.489C25.0392 245.949 27.7395 238.093 29.6059 230.684L41.1615 184.426L61.2179 104.435C67.2757 80.2982 73.0335 55.9923 81.2749 32.489Z"/><path fill="#79707D" transform="scale(0.787313 0.787313)" d="M506.129 82.28C527.856 82.0458 549.667 82.4659 571.404 82.511C589.391 82.5483 607.47 82.1161 625.438 82.7613C627.3 89.8172 628.317 97.1878 629.627 104.366C631.715 115.21 633.696 126.073 635.569 136.956L654.592 253.157C649.27 253.666 643.685 253.373 638.334 253.363L609.628 253.29C582.196 253.237 554.715 253.544 527.292 252.872C525.828 238.282 523.1 223.689 521.249 209.129C518.778 189.681 517.016 170.15 514.225 150.742C510.966 128.091 506.422 105.21 506.129 82.28Z"/><path fill="#79707D" transform="scale(0.787313 0.787313)" d="M130.02 81.6778L198.858 81.7874C212.006 81.7855 225.525 81.153 238.633 82.1395C238 97.176 234.722 112.345 232.099 127.141C227.193 154.814 221.624 182.394 216.434 210.019C213.856 223.742 209.607 239.206 209.91 253.177C206.43 253.498 202.789 253.32 199.288 253.351C163.003 253.309 126.543 254.008 90.2802 253.019C96.1002 214.083 107.359 176.139 116.588 137.919C119.413 126.335 122.148 114.729 124.793 103.102C126.386 96.0676 127.539 88.4456 130.02 81.6778Z"/><path fill="#79707D" transform="scale(0.787313 0.787313)" d="M637.794 82.7617C666.697 82.235 695.698 82.9048 724.597 83.3495C729.969 95.7756 733.025 109.815 737.199 122.717L754.1 176.541C758.272 189.568 762.985 202.567 766.647 215.74C770.084 228.106 771.756 240.904 775.211 253.221C738.42 253.307 701.63 253.184 664.841 252.85C663.7 232.36 658.443 207.044 655.085 186.412L640.533 99.8133C639.527 94.1413 638.865 88.4236 637.794 82.7617Z"/><path fill="#5C5565" transform="scale(0.787313 0.787313)" d="M51.9911 267.22C60.8378 266.741 69.6626 267.274 78.5103 267.194C94.0304 267.054 109.515 266.666 125.049 266.689L274.736 267.242L839.682 267.244C842.142 278.643 844.221 289.636 845.389 301.241C833.234 302.176 820.982 302.197 808.798 302.425L221.514 302.41L79.31 302.546L49.5899 302.511C40.9088 302.482 31.6901 301.666 23.2372 303.833C21.5188 302.307 19.7167 300.882 17.9249 299.444C17.3066 289.448 18.8866 277.281 21.1633 267.552C31.3907 267.052 41.7476 267.275 51.9911 267.22Z"/><path fill="#5C5565" transform="scale(0.787313 0.787313)" d="M352.797 660.312L554.382 660.11L606.582 660.1C617.388 660.082 629.223 659.183 639.861 661.063C641.517 663.32 640.702 695.647 640.712 701.245C602.892 700.868 565.026 702.178 527.204 702.446C464.279 702.933 401.351 702.949 338.425 702.496L277.354 702.435C264.51 702.419 251.51 702.842 238.706 701.807C239.418 692.818 238.479 670.344 241.501 663.499C243.121 661.911 246.627 661.562 248.838 661.358C259.707 660.355 270.918 660.916 281.842 660.79L352.797 660.312Z"/><path fill="#424257" transform="scale(0.787313 0.787313)" d="M227.121 975.143C227.715 975.605 227.456 975.337 227.972 976.129C228.474 976.9 228.518 977.601 228.236 978.484C227.865 979.646 226.622 981.025 225.455 981.427C224.228 981.851 223.556 981.588 222.443 981.065C222.089 980.229 221.803 979.333 221.101 978.723C220.055 977.815 104.036 978.301 91.8583 978.305L88.2403 978.23C93.6001 976.893 117.361 977.852 124.827 977.859L223.054 977.744C224.303 976.736 225.745 975.969 227.121 975.143Z"/><path fill="#BBC6C7" fill-opacity="0.7647059" transform="scale(0.787313 0.787313)" d="M839.036 481.32C840.941 477.253 838.205 471.839 840.233 467.409C842.469 474.915 845.169 480.902 844.265 488.876C844.201 488.759 844.134 488.643 844.072 488.524C843.979 488.346 843.896 488.162 843.801 487.986C842.687 485.932 843.284 483.014 843.061 480.681L843.014 480.227C842.215 477.286 841.377 474.386 840.389 471.502C840.495 477.499 839.948 484.916 841.478 490.734L842.344 491.757L840.013 493.791C839.442 489.656 839.364 485.478 839.036 481.32Z"/><path fill="#A8DCCE" fill-opacity="0.094117649" transform="scale(0.787313 0.787313)" d="M860.424 793.472C860.792 794.579 860.852 795.329 861.741 796.111C863.119 797.321 864.302 801.348 864.362 803.174C864.411 804.684 864.21 805.332 863.39 806.565C862.093 806.938 861.828 806.883 860.507 806.559C860.278 802.246 860.448 797.797 860.424 793.472Z"/><path fill="#BBC6C7" fill-opacity="0.34901962" transform="scale(0.787313 0.787313)" d="M840.389 471.502C841.377 474.386 842.215 477.286 843.014 480.227C842.184 483.656 841.611 487.204 841.478 490.734C839.948 484.916 840.495 477.499 840.389 471.502Z"/><path fill="#BBC6C7" fill-opacity="0.4509804" transform="scale(0.787313 0.787313)" d="M843.014 480.227L843.061 480.681C843.284 483.014 842.687 485.932 843.801 487.986C843.896 488.162 843.979 488.346 844.072 488.524C844.134 488.643 844.201 488.759 844.265 488.876C843.662 489.825 843.094 490.923 842.344 491.757L841.478 490.734C841.611 487.204 842.184 483.656 843.014 480.227Z"/></svg>