<?xml version="1.0" encoding="utf-8" ?><svg xmlns="http://www.w3.org/2000/svg" xmlns:xlink="http://www.w3.org/1999/xlink" width="1041" height="1026" viewBox="0 0 1041 1026"><path fill="#482B16" transform="scale(2.13664 2.13664)" d="M240.417 4.34337C243.807 4.01101 247.547 4.91989 250.956 5.11054C255.288 5.35288 259.787 5.00269 264.078 5.63214C265.052 5.77493 266.146 6.58154 266.987 7.08336C268.943 7.11559 273.052 6.32074 274.571 6.70382C275.457 6.92727 276.198 7.85336 277.128 8.04344C278.234 8.26928 279.521 8.19931 280.656 8.32445C282.978 8.58029 285.306 9.00129 287.604 9.41401C299.032 11.4135 310.272 14.3711 321.203 18.2556C330.127 21.5091 339.452 24.9558 347.932 29.2265C351.58 31.0639 355.084 33.351 358.61 35.416C363.657 38.3721 368.758 41.2026 373.733 44.2852C378.497 47.2372 383.544 50.0821 388.051 53.4157C390.046 54.8913 391.676 56.7451 393.538 58.3676C397.109 61.4209 400.717 64.4318 404.359 67.3998C407.65 70.0868 418.214 78.8198 419.749 82.1575C420.746 84.3261 422.571 86.0688 424.071 87.9101C428.665 93.5471 434.137 99.1477 437.974 105.263C442.562 112.574 446.815 119.969 450.98 127.521C452.957 131.105 455.129 134.655 456.868 138.358C460.784 146.695 463.613 155.332 466.313 164.111C467.279 167.248 468.41 170.338 469.294 173.501C474.576 192.415 477.746 212.539 477.841 232.191C477.878 239.875 478.119 247.715 477.644 255.383C475.92 283.219 468.16 315.69 455.88 340.88C454.765 343.167 453.366 345.32 452.125 347.54C449.165 352.832 446.249 358.046 443.059 363.212C440.114 367.982 437.536 373.107 434.258 377.642C432.305 380.344 429.582 382.348 427.532 384.967C424.991 388.211 422.33 391.389 419.832 394.66C418.415 396.516 417.29 398.633 415.717 400.363C409.324 407.392 401.676 413.192 394.663 419.557C393.186 420.898 392.012 422.564 390.588 423.964C386.877 427.615 381.878 430.231 377.625 433.236C371.567 437.517 365.353 441.32 359.034 445.193C356.153 446.958 353.38 448.953 350.39 450.526C339.332 456.345 322.939 462.733 310.953 465.996C305.735 467.416 300.4 468.418 295.108 469.527C290.349 470.524 285.628 471.257 280.829 472.02C279.068 472.3 277.381 472.833 275.596 472.985C273.728 473.144 271.769 473.001 269.894 472.974L268.317 474.372C266.22 474.527 264.102 474.393 262.008 474.628C259.975 474.856 258.003 475.396 255.953 475.504C252.478 475.687 248.92 475.524 245.438 475.5C242.795 475.816 240.03 475.661 237.368 475.686C234.103 475.718 230.733 475.909 227.478 475.68C225.501 475.542 223.546 475.102 221.573 474.899C219.349 474.671 217.078 474.729 214.843 474.729C214.205 474.077 213.535 473.544 212.806 472.996C206.795 472.544 200.884 471.449 194.983 470.26C174.629 466.158 154.379 459.56 136.033 449.741C134.026 448.667 132.269 447.217 130.337 446.025C128.257 444.743 126.051 443.648 123.955 442.376C114.655 436.733 105.305 431.221 96.8312 424.363C95.4291 423.229 94.4388 421.72 93.0938 420.54C85.9208 414.25 78.5972 408.119 72.1602 401.037C70.5814 399.299 69.2844 397.313 67.8308 395.472C65.8094 392.912 63.6661 390.406 61.5588 387.916C60.1925 386.302 58.5476 384.933 57.1132 383.38C55.9409 382.111 54.9147 380.612 53.9013 379.211C47.9466 370.975 42.7866 361.824 37.7614 352.986C36.5942 350.933 34.798 349.286 33.6435 347.239C32.3077 344.87 31.2526 342.23 30.1276 339.752C27.7989 334.621 25.4785 329.408 23.5182 324.123C21.3523 318.284 19.6543 312.118 17.9933 306.115C16.9707 302.419 15.8286 298.682 15.0277 294.932C13.8665 289.497 13.1878 283.962 12.0792 278.523C11.7121 276.722 10.6401 275.128 10.2416 273.336C8.62297 266.06 8.42902 258.105 8.13467 250.668C7.99478 247.133 7.41937 243.626 7.3228 240.1C7.20634 235.848 7.75529 231.693 8.00504 227.464C8.20572 224.065 8.10704 220.641 8.44261 217.251C8.83833 213.254 9.33632 209.025 10.2233 205.114C10.6626 203.177 11.6678 201.384 12.0642 199.436C13.0022 194.824 13.6972 190.177 14.7067 185.571C16.945 175.358 19.614 164.897 23.0867 155.027C24.7333 150.347 26.7359 145.731 28.6685 141.164C29.7257 138.666 30.6841 136.097 31.8578 133.652C33.3762 130.488 35.6077 127.799 37.4135 124.807C41.4364 118.139 45.1453 111.214 49.4259 104.708C51.6283 101.361 54.0271 97.8918 56.672 94.8836C58.4668 92.8421 60.5202 91.0658 62.2633 88.9675C64.2298 86.6002 66.0674 84.101 68.1032 81.7945C72.2873 77.0538 77.2039 72.3729 81.8192 68.0456C83.6005 66.3754 85.6107 64.9608 87.3771 63.2782C89.0529 61.6819 90.5338 59.8842 92.2154 58.2925C95.217 55.4516 98.7499 52.6525 102.066 50.1851C109.574 44.5978 118.299 39.6614 126.412 34.9837C128.738 33.6431 130.653 31.5924 133.036 30.379C136.193 28.7719 139.552 27.4135 142.8 25.9964C157.886 19.3059 173.646 14.2554 189.811 10.9316C195.919 9.60585 202.08 8.54089 208.279 7.73968C211.167 7.38538 214.078 7.28669 216.962 6.94586C218.926 6.71379 220.617 5.53761 222.618 5.34606C227.537 4.87538 232.905 5.8714 237.725 4.78596C238.627 4.58273 239.5 4.4554 240.417 4.34337Z"/><path fill="#B9B4DD" transform="scale(2.13664 2.13664)" d="M36.0812 136.692C37.8079 134.566 39.4555 132.442 40.8022 130.047C42.1783 127.6 42.9073 124.343 44.9105 122.384C45.4677 121.839 46.4909 121.123 46.4038 120.312C46.3825 120.113 46.2726 119.734 46.2176 119.531C47.2996 116.644 51.8171 114.247 51.4591 111.008C52.6794 109.072 54.5686 107.654 55.9943 105.875C59.5418 101.446 62.5918 96.6604 66.3328 92.3801C66.8802 91.7538 66.9572 91.2944 67.0905 90.4949C67.4429 88.3804 71.3508 86.297 72.9634 84.9049C74.6704 83.4313 76.2427 81.6874 77.844 80.0939C83.1078 74.8556 88.1865 69.2843 93.6606 64.2742C96.3233 61.8372 99.3018 59.7113 102.106 57.4369C103.904 55.9778 105.576 54.2839 107.473 52.958C109.2 51.7518 111.062 50.7383 112.808 49.5581C119.22 45.2245 125.751 40.8637 132.553 37.1528C135.092 35.7672 137.759 34.5849 140.362 33.3229C162.21 22.6173 185.625 15.4616 209.726 12.1249C212.598 11.726 215.482 11.4463 218.351 11.0539C220.013 10.8265 221.655 10.4312 223.332 10.3202C227.016 10.0764 230.782 10.3515 234.475 10.315C236.58 10.2942 238.276 9.04248 240.378 9.11435C243.24 9.21223 245.931 9.95647 248.754 10.1583C252.519 10.4274 256.322 10.1522 260.091 10.3703C262.369 10.5022 264.613 10.953 266.881 11.1738C271.813 11.6539 276.65 12.067 281.544 12.9168C315.717 18.8507 348.675 33.5587 377.27 52.9729C381.582 55.9003 385.964 58.8494 390.067 62.0649C398.978 69.1248 407.361 76.8273 415.148 85.1108C420.262 90.4683 424.601 96.9564 428.961 102.93C435.015 111.141 440.514 119.746 445.421 128.69C446.51 130.64 447.762 132.544 448.751 134.542C449.62 136.295 450.278 138.154 451.05 139.951C453.099 144.72 455.051 149.394 456.858 154.267C459.456 161.274 461.754 168.174 463.837 175.344C464.265 176.818 464.932 178.205 465.331 179.702C468.187 190.407 469.992 201.458 471.446 212.429C471.933 216.104 472.663 219.823 472.915 223.516C473.203 227.742 473.03 232.072 473.03 236.31C473.031 241.44 473.156 246.611 472.977 251.736C472.856 255.188 472.258 258.607 471.904 262.039C468.729 290.922 460.29 318.978 447.005 344.82C445.658 347.487 444.517 350.315 443.03 352.904C441.477 355.608 439.619 358.178 437.952 360.816C436.65 362.877 435.527 365.065 434.179 367.093C432.918 368.989 431.429 370.733 430.119 372.597C424.546 380.533 418.911 388.19 412.418 395.428C409.161 399.059 405.494 402.415 402.052 405.874C399.625 408.313 397.335 410.978 394.797 413.29C393.355 414.604 391.651 415.645 390.132 416.874C386.844 419.534 383.577 422.811 379.897 424.906C378.797 420.637 371.457 404.958 368.681 401.91C368.549 401.903 368.415 401.908 368.283 401.889C368.279 401.888 367.648 401.726 367.619 401.704C367.18 401.375 364.843 397.118 364.255 396.231C360.619 390.746 356.728 385.618 352.802 380.35C352.791 380.183 352.785 380.016 352.765 379.85C352.725 379.511 352.677 379.178 352.644 378.838C350.583 374.631 336.443 361.719 331.898 358.393C329.228 356.439 321.863 352.569 320.411 350.162C319.806 349.84 319.379 349.405 318.934 348.892C318.181 348.025 316.101 345.769 315.849 344.706C315.776 344.401 315.893 344.082 315.916 343.77C312.224 340.236 307.801 337.023 303.669 334.013C300.137 331.44 296.104 328.997 293.356 325.555C292.546 324.541 292.099 323.452 291.62 322.259L291.394 322.3C290.834 321.938 290.711 321.584 290.455 321C289.92 319.775 286.798 311.95 287.097 311.19C284.684 306.467 280.075 303.31 278.433 298.211C278.283 298.106 278.016 297.921 277.882 297.809C277.168 297.215 277.008 295.683 276.799 294.797C275.598 289.701 275.267 284.031 275.383 278.812C275.439 276.307 275.732 273.757 275.594 271.256C275.59 271.177 275.584 271.097 275.578 271.017L275.927 271.425C276.152 268.028 275.982 264.508 275.962 261.1C275.638 262.095 275.661 263.127 275.62 264.164L275.454 264C275.174 262.713 275.548 261.117 275.583 259.776C275.727 254.254 275.04 247.632 277.55 242.512C277.692 242.221 277.799 242.035 277.884 241.712C277.902 241.64 277.912 241.567 277.927 241.494L278.337 241.48C280.187 237.73 280.499 232.356 282.982 228.439C288.214 228.645 293.533 228.93 298.76 228.546C296.078 228.185 293.409 228.554 290.703 228.025L290.745 227.813C297.123 226.707 303.815 228.027 310.235 227.754C315.729 227.52 321.161 226.881 326.635 226.428C328.583 226.267 330.843 225.846 332.756 225.963C333.482 226.008 333.522 226.126 333.985 226.641C342.57 225.647 351.191 224.357 359.247 221.086C365.486 218.554 372.236 214.503 374.942 207.961C376.288 204.707 376.196 201.099 374.846 197.865C373.733 195.172 371.925 192.822 369.608 191.054C365.413 187.869 359.93 186.215 355.051 184.379C349.148 182.156 343.179 180.073 337.353 177.656C334.444 176.352 331.575 175.026 328.756 173.535C321.169 169.372 308.522 162.31 303.814 155.075C303.723 151.71 304.259 148.198 304.476 144.826C304.255 145.02 304.39 144.963 304.058 144.96C303.418 143.315 303.552 138.027 303.234 135.793C302.626 131.526 301.311 127.39 299.848 123.348C298.133 118.61 296.177 114.261 293.215 110.154C291.52 107.805 288.903 105.16 287.766 102.539L288.046 102.073C287.458 101.176 286.363 100.284 285.584 99.5112C280.511 94.4778 274.992 90.6407 268.829 87.0559C265.451 85.9818 262.164 84.2168 258.833 82.949C248.18 78.8938 239.001 77.1665 227.61 77.2278C221.255 77.6597 214.932 78.035 208.663 79.2331C188.356 83.1142 170.412 94.0718 156.879 109.591C149.864 117.636 144.932 126.972 140.603 136.668C137.002 147.038 133.503 157.39 131.838 168.284C129.998 178.629 129.348 189.427 129.179 199.931C129.459 216.514 131.903 232.661 134.26 249.028C135.318 256.374 136.058 263.86 137.286 271.166C138.263 276.128 140.042 294.698 139.288 299.258C139.04 300.76 138.406 301.794 137.613 303.06L137.494 303.256C136.014 305.757 134.949 308.544 134.097 311.314C133.317 313.854 132.862 317.33 131.279 319.49C129.404 322.046 126.214 323.886 123.729 325.846C121.875 327.302 120.139 328.903 118.536 330.632C114.544 334.925 110.376 339.215 106.737 343.811C104.43 346.723 102.933 350.429 100.12 352.901C96.97 355.671 93.1605 357.669 89.7571 360.111C80.8404 366.51 71.2548 375.321 65.4801 384.659C60.4021 379.441 55.1231 370.23 50.7054 364.067C49.9679 363.038 47.7803 360.797 47.4487 359.835C47.3124 359.439 47.3834 358.699 47.3866 358.266C42.9884 352.663 39.8251 345.868 36.77 339.468C23.0377 310.99 15.2592 280.011 13.9099 248.424C13.6702 243.614 12.6806 239.252 13.2697 234.376C13.4979 232.489 13.8189 230.611 13.9119 228.709C14.0737 225.4 13.9772 222.073 14.3278 218.775C15.7452 205.439 18.3706 191.854 21.872 178.911C22.9714 174.847 24.2542 170.834 25.405 166.786C25.9151 164.991 26.1161 163.066 26.7417 161.311C27.4784 159.244 28.5737 157.276 29.3952 155.235C30.4214 152.686 31.209 150.022 32.2743 147.497C33.8052 143.869 35.7562 140.737 36.0812 136.692Z"/><path fill="#A89CF7" transform="scale(2.13664 2.13664)" d="M128.546 107.903C130.1 109.061 131.749 109.886 133.486 110.725C134.453 111.985 133.475 113.251 133.951 114.575C135.264 118.224 139.169 127.908 138.753 131.442C138.509 133.509 137.143 135.341 136.859 137.447C136.597 139.379 137.407 141.319 137.175 143.31C138.105 140.975 138.89 138.557 140.603 136.668C137.002 147.038 133.503 157.39 131.838 168.284C129.998 178.629 129.348 189.427 129.179 199.931C128.918 201.442 129.335 203.047 128.755 204.494L128.343 204.574C128.223 204.465 128.014 204.285 127.897 204.153C127.065 203.206 126.417 201.853 125.766 200.768C124.367 198.434 122.992 196.092 122.034 193.535C119.201 185.973 117.393 173.141 118.365 165.193C119.025 159.798 121.08 154.428 121.319 149.03C121.461 145.826 120.696 142.549 120.357 139.367C120.002 136.036 120.166 132.335 120.48 129.008C121.166 121.754 122.626 112.81 128.546 107.903Z"/><path fill="#ECCB9B" transform="scale(2.13664 2.13664)" d="M137.175 143.31C138.105 140.975 138.89 138.557 140.603 136.668C137.002 147.038 133.503 157.39 131.838 168.284L131.683 166.999C130.754 159.578 135.226 150.437 137.175 143.31Z"/><path fill="#A89CF7" transform="scale(2.13664 2.13664)" d="M328.756 173.535C329.246 170.794 329.773 167.87 330.669 165.232C331.507 162.761 335.928 154.214 337.793 152.778C338.869 151.949 341.244 151.921 342.524 152.173C346.163 152.888 349.245 155.817 352.756 157.06C351.319 159.15 349.901 161.277 348.276 163.227C346.723 165.093 344.957 166.811 343.507 168.758C341.753 171.114 339.403 175.971 337.353 177.656C334.444 176.352 331.575 175.026 328.756 173.535Z"/><path fill="#ECCB9B" transform="scale(2.13664 2.13664)" d="M227.61 77.2278C229.038 76.9582 230.424 77.0015 231.86 76.8559C234.213 76.6171 236.626 76.0654 238.993 76.1134C242.92 76.1931 253.933 78.0131 257.509 79.2147C259.26 79.8028 260.857 80.6686 262.384 81.7013C264.614 83.2104 267.056 85.0181 268.829 87.0559C265.451 85.9818 262.164 84.2168 258.833 82.949C248.18 78.8938 239.001 77.1665 227.61 77.2278Z"/><path fill="#ECCB9B" transform="scale(2.13664 2.13664)" d="M137.286 271.166C138.263 276.128 140.042 294.698 139.288 299.258C139.04 300.76 138.406 301.794 137.613 303.06C137.655 299.414 137.295 295.744 137.136 292.101C136.834 285.182 136.684 278.065 137.286 271.166Z"/><path fill="#211109" transform="scale(2.13664 2.13664)" d="M304.476 144.826C304.255 145.02 304.39 144.963 304.058 144.96C303.418 143.315 303.552 138.027 303.234 135.793C302.626 131.526 301.311 127.39 299.848 123.348C298.133 118.61 296.177 114.261 293.215 110.154C291.52 107.805 288.903 105.16 287.766 102.539L288.046 102.073C298.833 113.67 304.72 128.989 304.476 144.826Z"/><path fill="#211109" transform="scale(2.13664 2.13664)" d="M298.76 228.546C296.078 228.185 293.409 228.554 290.703 228.025L290.745 227.813C297.123 226.707 303.815 228.027 310.235 227.754C315.729 227.52 321.161 226.881 326.635 226.428C328.583 226.267 330.843 225.846 332.756 225.963C333.482 226.008 333.522 226.126 333.985 226.641C329.753 227.203 325.506 227.461 321.253 227.797C313.867 228.383 306.167 229.056 298.76 228.546Z"/><path fill="#211109" transform="scale(2.13664 2.13664)" d="M352.644 378.838C358.801 385.749 364.103 393.888 368.681 401.91C368.549 401.903 368.415 401.908 368.283 401.889C368.279 401.888 367.648 401.726 367.619 401.704C367.18 401.375 364.843 397.118 364.255 396.231C360.619 390.746 356.728 385.618 352.802 380.35C352.791 380.183 352.785 380.016 352.765 379.85C352.725 379.511 352.677 379.178 352.644 378.838Z"/><path fill="#211109" transform="scale(2.13664 2.13664)" d="M278.433 298.211C278.283 298.106 278.016 297.921 277.882 297.809C277.168 297.215 277.008 295.683 276.799 294.797C275.598 289.701 275.267 284.031 275.383 278.812C275.439 276.307 275.732 273.757 275.594 271.256C275.59 271.177 275.584 271.097 275.578 271.017L275.927 271.425C276.053 280.149 276.087 289.726 278.433 298.211Z"/><path fill="#211109" transform="scale(2.13664 2.13664)" d="M275.962 261.1C275.638 262.095 275.661 263.127 275.62 264.164L275.454 264C275.174 262.713 275.548 261.117 275.583 259.776C275.727 254.254 275.04 247.632 277.55 242.512C277.692 242.221 277.799 242.035 277.884 241.712C277.902 241.64 277.912 241.567 277.927 241.494L278.337 241.48C276.913 248.027 276.043 254.387 275.962 261.1Z"/><path fill="#211109" transform="scale(2.13664 2.13664)" d="M287.097 311.19C289.199 314.269 290.828 318.606 291.62 322.259L291.394 322.3C290.834 321.938 290.711 321.584 290.455 321C289.92 319.775 286.798 311.95 287.097 311.19Z"/><path fill="#211109" transform="scale(2.13664 2.13664)" d="M315.916 343.77C317.852 345.665 319.402 347.619 320.411 350.162C319.806 349.84 319.379 349.405 318.934 348.892C318.181 348.025 316.101 345.769 315.849 344.706C315.776 344.401 315.893 344.082 315.916 343.77Z"/><path fill="#A89CF7" transform="scale(2.13664 2.13664)" d="M408.399 326.947C410.642 327.547 413.491 329.826 415.933 330.791C412.624 335.732 412.56 339.373 410.792 344.752C409.241 349.47 401.641 359.468 397.842 362.708C397.46 362.492 397.069 362.253 396.664 362.086C395.042 361.417 395.149 362.723 393.977 363.196C392.574 363.268 391.304 364.034 389.988 364.508C389.292 364.759 388.376 365.14 387.687 364.816C387.516 364.388 387.402 364.018 387.369 363.555C387.16 360.6 387.93 357.33 388.378 354.41C389.131 349.512 389.977 340.34 393.705 336.746C396.853 333.711 400.339 332.872 403.507 329.233C405.587 328.779 406.814 328.452 408.399 326.947Z"/><path fill="#BCB7D4" transform="scale(2.13664 2.13664)" d="M85.6099 309.985C85.7975 310.393 85.8057 310.283 85.8123 310.637C85.8166 310.873 85.7664 311.177 85.8193 311.406C85.9788 312.096 87.0969 312.469 87.6432 312.872C88.1215 313.224 88.1705 313.153 88.258 313.778C88.033 313.735 87.9814 313.735 87.7403 313.632C86.2125 312.977 82.7738 311.027 82.1954 309.498C82.5663 308.753 83.266 309.089 83.6302 308.329C83.2441 307.485 82.7874 306.793 82.134 306.126C79.4693 303.402 77.646 303.382 74.1396 303.091C73.5709 303.044 72.9146 302.855 72.5315 302.417L72.7532 302.206C74.5938 301.94 76.7357 302.567 78.5127 303.015C80.3579 301.575 80.4972 297.604 82.6288 296.291C83.9017 297.618 83.8644 303.9 84.2504 305.866C84.4856 307.063 86.1355 307.757 86.1406 309.006C86.1429 309.575 86.0075 309.637 85.6099 309.985Z"/><path fill="#A89CF7" transform="scale(2.13664 2.13664)" d="M85.6099 309.985C85.7975 310.393 85.8057 310.283 85.8123 310.637C85.8166 310.873 85.7664 311.177 85.8193 311.406C85.9788 312.096 87.0969 312.469 87.6432 312.872C88.1215 313.224 88.1705 313.153 88.258 313.778C88.033 313.735 87.9814 313.735 87.7403 313.632C86.2125 312.977 82.7738 311.027 82.1954 309.498C82.5663 308.753 83.266 309.089 83.6302 308.329C83.2441 307.485 82.7874 306.793 82.134 306.126C79.4693 303.402 77.646 303.382 74.1396 303.091C73.5709 303.044 72.9146 302.855 72.5315 302.417L72.7532 302.206C74.5938 301.94 76.7357 302.567 78.5127 303.015C80.3579 301.575 80.4972 297.604 82.6288 296.291C81.7356 298.616 80.1602 300.5 79.3651 302.864C81.5572 305.166 83.6805 307.453 85.6099 309.985Z"/><path fill="#A89CF7" transform="scale(2.13664 2.13664)" d="M67.6047 338.867L70.5903 341.068C71.4423 341.708 71.4106 342.286 71.5839 343.258C70.8967 343.277 70.2059 343.284 69.525 343.17C68.8698 343.06 68.2156 342.764 67.8468 342.194C67.5389 341.719 67.3207 340.678 67.5245 340.138C67.6958 339.684 67.6286 339.356 67.6047 338.867Z"/><path fill="#A89CF7" transform="scale(2.13664 2.13664)" d="M81.5552 332.808C81.6157 332.833 81.6726 332.869 81.7367 332.883C82.0085 332.94 82.3686 332.917 82.6349 333.017C83.2099 333.232 83.2622 333.406 83.5201 333.922C83.0778 334.629 82.6861 334.75 81.9642 335.144C81.6487 335.237 81.2287 335.397 80.9025 335.397C80.2642 335.396 80.0917 335.267 79.6513 334.872L79.6777 334.291C80.0645 333.488 80.8068 333.21 81.5552 332.808Z"/><path fill="#A89CF7" transform="scale(2.13664 2.13664)" d="M418.488 184.759C419.263 184.749 419.827 184.81 420.484 185.26C420.98 185.6 421.096 185.773 421.172 186.359L420.721 186.735C420.234 186.819 419.731 186.924 419.238 186.951C418.592 186.988 418.277 186.917 417.783 186.513C417.833 185.681 418.049 185.449 418.488 184.759Z"/><path fill="#FCEDCE" transform="scale(2.13664 2.13664)" d="M203.341 90.6354L203.456 89.9087C203.729 89.6757 203.707 89.6744 204.08 89.4688C206.408 88.1861 212.961 86.9147 215.622 86.9555C216.474 86.9686 217.277 87.2014 218.084 87.452C223.408 87.2707 228.533 86.669 233.89 86.968C249.206 87.8229 265.839 94.4849 277.055 104.973C287.871 115.088 293.836 128.619 294.245 143.373C294.275 144.854 294.287 146.334 294.279 147.814C286.399 143.474 277.74 140.63 268.742 143.204C263.197 144.79 258.135 148.684 255.387 153.769C250.847 162.167 252.442 172.283 247.623 180.438C245.702 183.688 242.737 186.655 239.809 189.005C233.113 194.38 218.278 202.23 221.441 212.911C222.024 214.879 223.264 216.474 224.808 217.784C237.959 224.601 258.086 225.87 272.735 227.27C271.004 231.723 269.633 236.135 268.611 240.804C268.108 243.105 267.885 246 267.124 248.179C265.114 262.882 265.557 277.01 267.565 291.701C268.531 298.77 269.692 305.591 272.185 312.306C268.349 324.377 258.416 339.177 247.861 346.39C246.959 346.138 246.033 345.942 245.116 345.753C240.246 344.751 236.354 345.655 232.241 348.38C224.259 343.694 215.39 340.609 206.852 337.1C192.209 331.081 176.238 323.57 163.87 313.554C158.524 309.224 153.697 304.21 149.304 298.924C148.702 283.277 147.188 267.878 145.152 252.355C143.001 235.943 140.341 219.578 139.704 203.007C139.393 194.927 140.329 187.097 140.679 179.057C139.068 174.069 142.555 160.206 144.206 155.062C144.779 153.276 146.036 151.281 146.369 149.5C146.482 148.897 146.365 149.313 146.587 148.672L147.107 148.729C148.798 145.021 150.074 141.137 151.814 137.43C162.733 114.175 179.143 99.3362 203.341 90.6354Z"/><path fill="#ECCB9B" transform="scale(2.13664 2.13664)" d="M224.808 217.784C237.959 224.601 258.086 225.87 272.735 227.27C271.004 231.723 269.633 236.135 268.611 240.804C268.108 243.105 267.885 246 267.124 248.179C266.413 247.808 266.058 248.307 265.453 248.085C263.375 247.322 261.435 246.226 259.319 245.556C256.786 244.753 254.116 244.448 251.628 243.493C241.974 239.785 234.171 232.066 227.911 224.054C226.886 222.741 225.44 221.402 224.811 219.851C224.428 218.903 224.408 218.725 224.808 217.784Z"/><path fill="#211109" transform="scale(2.13664 2.13664)" d="M140.679 179.057C139.068 174.069 142.555 160.206 144.206 155.062C144.779 153.276 146.036 151.281 146.369 149.5C146.482 148.897 146.365 149.313 146.587 148.672L147.107 148.729C144.02 158.779 141.898 168.608 140.679 179.057Z"/><path fill="#211109" transform="scale(2.13664 2.13664)" d="M203.341 90.6354L203.456 89.9087C203.729 89.6757 203.707 89.6744 204.08 89.4688C206.408 88.1861 212.961 86.9147 215.622 86.9555C216.474 86.9686 217.277 87.2014 218.084 87.452C213.106 88.3048 208.205 89.2552 203.341 90.6354Z"/><path fill="#482B16" transform="scale(2.13664 2.13664)" d="M206.757 130.292C208.178 130.238 209.489 130.393 210.858 130.778C213.761 131.594 216.288 133.447 217.73 136.127C220.457 141.197 220.647 149.787 219.06 155.21C217.594 160.223 214.148 164.021 209.634 166.524C209.492 166.556 209.352 166.593 209.209 166.62C207.645 166.916 205.065 165.239 203.76 164.396C200.217 162.108 197.928 158.407 197.085 154.305C195.875 148.409 196.318 140.145 199.76 135.001C201.465 132.455 203.756 130.875 206.757 130.292Z"/><path fill="#E47B28" transform="scale(2.13664 2.13664)" d="M274.653 150.592C288.472 149.311 296.96 162.451 306.518 170.025C312.647 174.881 319.1 178.754 326.078 182.275C331.329 184.924 336.738 187.149 342.252 189.19C348.839 191.628 356.858 193.586 362.509 197.873C364.206 199.16 365.678 200.898 365.927 203.085C366.13 204.874 365.517 206.561 364.4 207.946C357.721 216.231 330.648 218.338 320.385 219.201C295.423 220.67 261.892 220.471 237.648 214.261C235.503 213.712 232.516 213.534 230.676 212.251C229.873 211.691 229.326 210.921 229.224 209.934C228.687 204.751 239.542 199.002 243.274 196.314C246.753 193.809 250.542 191.096 253.339 187.838C260.979 178.939 257.317 164.176 264.131 155.44C266.751 152.082 270.641 151.078 274.653 150.592Z"/><path fill="#482B16" transform="scale(2.13664 2.13664)" d="M279.957 173.273C280.934 173.173 281.908 173.135 282.862 173.411C285.22 174.094 287.224 175.925 288.387 178.051C289.412 179.923 289.921 182.257 289.237 184.331C288.628 186.178 287.423 187.126 285.761 188.002C284.888 188.075 283.932 188.113 283.093 187.831C280.594 186.992 278.448 184.689 277.262 182.37C276.366 180.618 275.853 178.51 276.535 176.596C277.156 174.855 278.395 174.062 279.957 173.273Z"/><path fill="#4C453A" transform="scale(2.13664 2.13664)" d="M132.659 333.194C134.023 334.064 138.455 344.513 139.7 346.79C141.297 349.713 143.153 352.501 144.834 355.378C147.128 359.303 149.266 363.322 151.73 367.146C154.005 370.677 156.708 373.888 159.055 377.362C165.662 387.14 171.877 397.245 178.622 406.929C180.429 409.525 182.584 411.873 184.437 414.439C188.742 420.399 192.834 426.541 197.081 432.549C200.112 436.835 203.348 440.999 206.279 445.352C209.179 449.659 211.607 454.227 214.241 458.694C216.458 462.453 218.846 466.125 221.183 469.811C219.087 469.753 216.95 469.323 214.869 469.051C207.773 468.12 200.834 466.705 193.807 465.392C192.522 464.899 190.847 464.701 189.484 464.346C186.121 463.464 182.775 462.525 179.445 461.528C175.05 460.233 169.838 459.037 165.872 456.759C161.563 454.284 147.598 438.795 143.653 434.254C146.215 429.387 150.008 424.863 152.007 419.787C153.361 416.352 153.744 412.635 154.734 409.092C145.979 404.456 129.363 407.564 123.031 399.298C119.157 394.243 111.091 359.49 112.254 352.784C113.29 346.813 127.797 336.712 132.659 333.194Z"/><path fill="#524D41" transform="scale(2.13664 2.13664)" d="M167.316 418.808C167.709 418.544 168.241 418.636 168.522 419.016C168.804 419.397 168.736 419.932 168.368 420.23C168.115 420.436 167.77 420.486 167.469 420.36C167.168 420.235 166.96 419.954 166.929 419.629C166.897 419.305 167.046 418.989 167.316 418.808Z"/><path fill="#4C453A" transform="scale(2.13664 2.13664)" d="M293.354 337.08C293.837 337.177 294.3 337.257 294.723 337.527C297.187 339.098 299.092 341.645 301.365 343.491C305.153 346.568 309.941 349.461 313.019 353.236C317.335 358.531 319.62 367.131 322.137 373.493C323.586 377.158 325.384 380.862 326.468 384.647C323.838 389.645 318.109 391.622 314.393 395.632C315.731 401.566 319.781 404.968 324.105 408.886C326.963 411.518 329.901 414.062 332.916 416.513C331.4 420.197 330.471 424.125 329.022 427.842C325.943 435.742 322.263 443.471 318.984 451.299L314.714 460.08C309.495 461.572 304.41 463.236 299.101 464.445C295.452 465.277 291.623 465.541 288.053 466.639C289.347 461.025 290.333 455.277 291.549 449.633C294.669 435.158 297.928 420.447 298.243 405.577C298.508 393.077 297.822 380.235 296.836 367.775C296.523 363.807 295.888 359.806 295.236 355.882C294.315 350.345 291.896 342.467 293.354 337.08Z"/><path fill="#4C453A" transform="scale(2.13664 2.13664)" d="M104.073 360.196C104.238 360.322 104.442 360.409 104.568 360.574C105.906 362.333 109.435 383.008 110.537 387.215C112.413 394.383 114.839 403.255 119.636 409.019C120.436 409.981 121.371 410.843 122.516 411.372C127.139 413.508 141.348 414.772 146.779 415.237C145.475 417.544 144.603 420.101 143.337 422.438C142.175 424.583 140.612 426.384 139.079 428.264C138.056 429.52 136.649 431.105 136.746 432.829C136.83 434.295 137.942 435.326 138.53 436.597C138.937 437.476 138.933 438.481 139.35 439.364C141.119 443.106 144.307 446.004 147.241 448.819C141.967 446.232 136.589 444.125 131.625 440.935C125.643 437.774 119.871 433.877 114.282 430.075C107.061 425.163 99.7424 420.076 93.2613 414.203C91.0397 412.189 89.0212 409.867 86.9702 407.677C81.5103 401.846 75.9406 395.762 71.4933 389.114C77.0923 382.166 82.8644 377.275 89.6271 371.599C92.2463 369.401 94.7985 367.091 97.4921 364.986C99.6319 363.313 101.949 361.887 104.073 360.196Z"/><path fill="#FCEDCE" transform="scale(2.13664 2.13664)" d="M169.159 380.667C171.362 381.032 174.996 383.927 177.103 385.157C182.079 388.059 187.924 390.012 192.572 393.397C196.4 396.185 199.177 401.675 203.888 403.01C210.173 404.791 225.371 394.98 230.996 391.72C232.828 403.83 235.311 415.843 237.191 427.942C238.794 438.256 239.87 448.885 240.321 459.312C240.693 463.106 240.537 467.004 240.485 470.81C237.463 470.918 234.439 470.984 231.416 471.008C223.36 456.946 213.93 443.527 204.748 430.183C198.802 421.543 193.095 412.695 186.903 404.231C181.084 396.278 174.812 388.764 169.159 380.667Z"/><path fill="#FCEDCE" transform="scale(2.13664 2.13664)" d="M258.43 382.781C258.703 382.737 258.819 382.836 259.07 382.94C260.372 385.362 260.965 393.438 261.462 396.564C262.957 405.96 264.662 415.336 266.021 424.751C266.955 431.215 267.615 437.733 268.383 444.22C269.346 452.355 270.435 460.56 270.561 468.758C269.276 468.935 268.059 469.382 266.775 469.572C264.13 469.964 261.367 469.954 258.696 470.057C258.144 470.687 257.621 471.347 257.088 471.994C254.434 472.08 252.003 472.1 249.451 471.275C248.211 471 246.967 470.958 245.704 470.888C245.914 455.448 244.94 439.528 242.38 424.293C241.058 416.785 239.695 409.285 238.29 401.792C237.483 397.412 236.55 393.014 236.074 388.585C237.105 387.493 237.96 386.326 238.829 385.104C242.659 385.686 251.447 385.051 255.209 384.045C256.325 383.747 257.38 383.256 258.43 382.781Z"/><path fill="#482B16" transform="scale(2.13664 2.13664)" d="M252.92 408.282C253.555 408.266 254.253 408.333 254.866 408.508C256.557 408.991 258.098 410.226 258.922 411.774C259.718 413.268 259.909 415.036 259.317 416.636C258.502 418.84 256.87 419.98 254.817 420.89C254.79 420.894 254.764 420.899 254.736 420.902C252.178 421.181 250.831 420.528 248.866 419.016C248.792 418.809 248.722 418.601 248.661 418.39C247.981 416.057 247.489 412.983 248.796 410.796C249.736 409.221 251.218 408.682 252.92 408.282Z"/><path fill="#482B16" transform="scale(2.13664 2.13664)" d="M258.343 447.532C259.463 447.544 260.382 447.744 261.334 448.362C262.814 449.323 263.769 450.822 264.073 452.556C264.372 454.255 263.989 455.952 262.913 457.312C261.684 458.867 260.136 459.399 258.234 459.666C257.44 459.555 256.612 459.367 255.889 459.014C254.365 458.271 253.089 457.084 252.602 455.42C252.172 453.948 252.508 452.471 253.27 451.173C254.378 449.285 256.259 448.064 258.343 447.532Z"/><path fill="#FCEDCE" transform="scale(2.13664 2.13664)" d="M144.997 308.608C146.468 309.211 150.053 313.411 151.519 314.8C155.553 318.626 160.029 322.242 164.617 325.375C175.252 332.637 188.115 338.068 199.926 343.226C196.386 343.735 192.99 344.906 190.038 346.936C186.189 354.773 188.333 370.021 190.266 378.176C190.743 379.621 191.018 381.209 191.377 382.693C184.136 378.904 176.899 375.343 169.905 371.096C167.52 369.648 165.03 368.234 162.898 366.421C159.572 363.593 157.309 359.2 154.966 355.553C149.261 346.673 143.854 337.719 138.933 328.378C141.663 325.218 141.559 319.387 142.581 315.416C143.19 313.051 144.044 310.848 144.997 308.608Z"/><path fill="#4C453A" transform="scale(2.13664 2.13664)" d="M326.434 364.194C328.549 365.615 330.201 368.865 331.973 370.793C335.794 374.952 339.834 378.852 343.547 383.126C351.502 392.282 358.473 402.51 364.723 412.895C367.243 417.081 371.55 426.809 374.255 429.651C364.366 437.904 352.55 443.663 341.018 449.228C335.6 452.105 329.719 454.27 324 456.46C325.655 454.359 326.798 452.014 328.008 449.645C329.659 446.413 331.346 443.202 332.642 439.806C334.073 436.057 335.119 432.165 336.476 428.389C337.805 424.689 340.105 420.427 339.915 416.434C339.863 415.333 339.607 414.137 339.024 413.187C336.036 408.324 326.811 402.196 322.301 398.228C325.499 395.746 329.176 393.001 331.754 389.873C332.782 388.625 333.592 387.173 333.695 385.529C333.943 381.581 329.446 372.817 327.872 368.935C327.353 367.654 326.499 365.946 326.438 364.548C326.433 364.43 326.435 364.312 326.434 364.194Z"/><path fill="#4C453A" transform="scale(2.13664 2.13664)" d="M207.165 346.427C210.361 346.637 228.199 354.047 231.129 356.187C231.58 357.899 230.634 364.098 230.725 366.513C228.316 367.206 222.417 368.67 220.974 370.837C220.724 371.213 220.812 371.227 220.881 371.638C220.956 371.687 221.025 371.745 221.106 371.785C222.606 372.513 229.027 371.426 230.914 370.979C231.109 374.272 231.711 377.526 232.05 380.806C229.489 383.618 226.827 385.878 223.679 388.02C217.984 391.606 212.057 394.346 205.935 397.095C201.536 387.69 196.827 377.05 196.145 366.541C195.974 363.908 196.252 361.186 196.402 358.55C196.532 356.26 196.448 353.739 196.894 351.499C197.699 347.455 204.266 349.755 206.716 347.83C207.058 347.561 207.079 346.843 207.165 346.427Z"/><path fill="#FCEDCE" transform="scale(2.13664 2.13664)" d="M265.495 388.061C271.916 391.947 279.915 395.525 287.585 393.618C288.566 393.374 289.518 393.056 290.464 392.703C290.5 397.793 290.6 402.894 290.289 407.978C289.124 427.036 284.709 449.246 279.706 467.648C278.373 467.821 277.238 468.25 275.992 468.729L275.554 468.572C275.376 468.308 275.248 468.119 275.15 467.812C274.654 466.271 274.47 453.524 274.998 452.416C273.039 430.899 269.648 409.265 265.495 388.061Z"/><path fill="#211109" transform="scale(2.13664 2.13664)" d="M274.998 452.416C275.319 456.533 276.676 465.106 275.992 468.729L275.554 468.572C275.376 468.308 275.248 468.119 275.15 467.812C274.654 466.271 274.47 453.524 274.998 452.416Z"/><path fill="#4C453A" transform="scale(2.13664 2.13664)" d="M280.645 344.811C282.558 344.658 283.97 344.887 285.761 345.489C286.201 346.325 286.557 347.133 286.811 348.043C289.366 357.165 289.526 367.119 289.556 376.522C289.565 379.432 290.01 383.76 288.542 386.356C287.439 387.303 285.376 386.995 284.004 386.875C281.473 386.652 278.629 386.342 276.201 385.562C274.254 384.936 266.589 380.877 265.634 380.885C265.061 380.89 265.391 380.982 264.832 380.661C264.83 380.606 264.826 380.551 264.827 380.495C264.847 378.364 262.531 372.667 261.881 370.022C265.51 369.976 269.029 370.859 272.65 370.673C273.045 369.6 273.759 368.199 273.463 367.056C272.662 363.967 265.76 366.957 263.531 365.632C263.06 365.352 262.834 364.983 262.686 364.463C261.811 361.381 262.14 357.507 261.133 353.82C264.335 352.748 266.495 350.789 269.28 349.007C272.682 346.831 276.724 345.635 280.645 344.811Z"/><path fill="#4C453A" transform="scale(2.13664 2.13664)" d="M239.211 352.559C245.445 351.967 251.417 354.229 257.659 354.28C256.09 358.474 256.871 371.361 256.636 376.755C255.662 377.678 254.624 378.277 253.429 378.854C248.132 379.7 242.882 378.904 237.467 379.838C236.461 371.268 236.195 362.689 236.161 354.07C237.131 353.459 238.166 353.022 239.211 352.559Z"/><path fill="#FCEDCE" transform="scale(2.13664 2.13664)" d="M278.86 314.9C278.918 314.941 278.98 314.976 279.034 315.022C279.735 315.627 280.307 316.864 280.76 317.673C284.234 323.877 285.466 330.668 286.201 337.628C277.298 339.536 268.588 341.39 261.042 346.787C259.782 347.734 258.569 348.381 256.962 348.539C256.302 348.603 256.044 348.475 255.566 348.052C255.562 347.919 255.517 347.78 255.555 347.653C255.587 347.545 256.663 346.845 256.809 346.735C258.446 345.506 259.947 344.043 261.415 342.617C263.405 340.683 265.49 338.746 267.278 336.622C272.496 330.425 275.999 322.428 278.86 314.9Z"/></svg>