<?xml version="1.0" encoding="utf-8" ?><svg xmlns="http://www.w3.org/2000/svg" xmlns:xlink="http://www.w3.org/1999/xlink" width="1041" height="1026" viewBox="0 0 1041 1026"><path fill="#522E1B" transform="scale(2.13664 2.13664)" d="M240.143 4.34472C243.664 3.90439 247.79 4.94578 251.341 5.12795C255.534 5.34306 260.066 4.92112 264.193 5.65562C265.131 5.82256 266.198 6.60493 267.014 7.08949C268.972 7.11905 273.024 6.40294 274.415 6.64093C274.893 6.7227 275.361 7.07737 275.761 7.33409C277.61 8.51999 282.341 8.54174 284.68 8.92027C291.719 10.1039 298.703 11.6007 305.609 13.4064C313.673 15.5003 321.233 18.3352 329.002 21.2931C335.342 23.7074 341.824 26.1425 347.88 29.2138C351.656 31.1284 355.285 33.4747 358.94 35.6125C363.768 38.436 368.646 41.1371 373.404 44.0828C378.296 47.1112 383.49 50.0284 388.11 53.4594C389.929 54.8101 391.457 56.4696 393.122 57.9933C395.389 60.0674 397.826 62.003 400.187 63.9693C404.389 67.4683 408.793 70.7752 412.706 74.5992C414.771 76.6172 417.301 78.7151 419.08 80.9653C419.717 81.7698 419.954 82.8277 420.56 83.6692C422.285 86.0647 424.391 88.3051 426.255 90.6095C429.813 95.0065 433.748 99.1308 436.98 103.776C438.356 105.753 439.509 107.877 440.774 109.926C444.295 115.633 447.567 121.281 450.78 127.167C452.873 131.001 455.242 134.773 457.049 138.751C460.789 146.987 463.635 155.357 466.281 163.987C467.277 167.235 468.445 170.433 469.356 173.707C474.157 190.958 477.616 211.348 477.816 229.278C477.912 237.928 478.172 246.782 477.638 255.412C475.905 283.426 468.252 315.267 455.991 340.652C454.763 343.195 453.222 345.601 451.843 348.065C449.105 352.956 446.405 357.785 443.46 362.56C440.521 367.325 437.923 372.576 434.654 377.081C432.52 380.021 429.671 382.245 427.448 385.087C424.939 388.295 422.301 391.426 419.833 394.66C418.394 396.546 417.249 398.696 415.649 400.453C412.035 404.422 408.004 407.705 404.012 411.257C399.502 415.269 395.093 419.344 390.853 423.633C387.059 427.47 382.02 430.149 377.627 433.256C371.739 437.421 365.691 441.044 359.574 444.845C356.925 446.49 354.401 448.42 351.662 449.899C340.629 455.856 323.493 462.544 311.449 465.848C306.256 467.272 300.955 468.294 295.686 469.395C290.81 470.414 285.984 471.185 281.069 471.966C279.235 472.258 277.458 472.82 275.602 472.971C273.727 473.124 271.75 472.988 269.863 472.996C269.314 473.502 268.807 474.072 268.29 474.611C264.082 474.795 259.975 475.453 255.798 475.695C252.623 475.878 249.37 475.754 246.187 475.742C240.096 475.756 233.901 475.996 227.821 475.718C225.632 475.618 223.491 475.146 221.317 474.91C219.185 474.678 217.016 474.716 214.873 474.709C214.267 474.1 213.59 473.574 212.925 473.034C206.972 472.613 201.083 471.479 195.243 470.298C175.243 466.254 155.345 459.896 137.269 450.351C134.926 449.113 132.888 447.434 130.608 446.106C123.164 441.769 115.762 437.39 108.453 432.821C101.018 428.173 95.7033 422.902 89.2233 417.174C83.3429 411.975 77.1126 406.76 71.8938 400.888C70.0542 398.818 68.705 396.357 66.9378 394.232C63.3335 389.898 58.7052 385.543 55.4215 381.25C49.8804 374.005 45.2689 365.875 40.6683 358.001C39.5205 356.036 38.4696 353.92 37.1963 352.044C35.9984 350.279 34.4146 348.713 33.4267 346.818C26.5968 333.711 21.7841 319.803 17.8602 305.602C16.8965 302.114 15.8196 298.591 15.0552 295.056C13.8631 289.543 13.2257 283.906 12.0459 278.398C11.6606 276.599 10.5857 275.006 10.2082 273.206C8.6836 265.936 8.44876 258.137 8.15125 250.729C8.00662 247.127 7.40256 243.55 7.31878 239.957C7.21882 235.669 7.78429 231.473 8.03118 227.207C8.22302 223.892 8.13008 220.558 8.45024 217.251C8.83722 213.253 9.25995 208.774 10.2892 204.905C10.7813 203.055 11.6981 201.302 12.0741 199.426C12.9857 194.878 13.6804 190.302 14.6711 185.76C18.5451 168.003 23.9328 150.278 31.8311 133.863C33.2902 130.831 35.3215 128.268 37.0177 125.392L44.9994 112.131C46.5133 109.606 47.9085 107.024 49.5319 104.563C51.9141 100.953 54.5322 97.1397 57.45 93.9428C59.1663 92.0623 61.1074 90.4539 62.7483 88.4828C64.5841 86.2774 66.2355 83.9026 68.1347 81.7536C72.3126 77.0263 77.2104 72.3607 81.8183 68.0432C83.5985 66.3752 85.6099 64.9665 87.3752 63.2862C88.9927 61.7466 90.4385 60.0279 92.0391 58.4698C95.0082 55.5797 98.5745 52.7635 101.932 50.3259C108.417 45.617 115.531 41.2402 122.455 37.1873C123.832 36.3813 125.311 35.7477 126.671 34.918C128.636 33.7198 130.256 31.8542 132.269 30.7695C135.472 29.044 139.08 27.6136 142.417 26.1528C157.587 19.4185 173.433 14.3245 189.685 10.9577C195.862 9.59694 202.099 8.52643 208.376 7.74965C211.317 7.38156 214.35 7.35388 217.264 6.89856C219.117 6.60907 220.725 5.5528 222.628 5.35848C227.479 4.86298 232.752 5.85266 237.514 4.79782C238.392 4.60314 239.253 4.46813 240.143 4.34472Z"/><path fill="#FEA1A1" transform="scale(2.13664 2.13664)" d="M36.09 136.642C38.3919 133.942 40.5225 130.946 42.0198 127.719C42.6357 126.391 43.0588 124.672 43.8356 123.467C44.4831 122.462 45.853 121.916 46.4137 120.87C46.717 120.304 46.0208 119.694 46.4254 118.916C47.5812 116.691 50.3823 114.504 51.7202 112.121C51.6623 111.945 51.5695 111.675 51.5298 111.502C51.3875 110.884 51.4656 110.777 51.8548 110.269C52.9674 108.818 54.4902 107.676 55.6677 106.272C57.9652 103.531 60.0028 100.487 62.1515 97.6237C63.7382 95.5091 65.4861 93.5138 66.987 91.3372C67.0085 90.9535 67.0058 90.3692 67.1164 90.0016C67.5135 88.6826 70.2949 87.0096 71.3824 86.1764C75.4654 83.0481 79.126 78.8277 82.7622 75.1706C86.4626 71.4489 90.0655 67.4734 93.9736 63.9784C96.4866 61.7312 99.2732 59.7629 101.879 57.6215C103.655 56.1616 105.321 54.4905 107.187 53.1508C108.92 51.9056 110.837 50.9056 112.601 49.6943C119.05 45.2657 125.763 40.8209 132.649 37.0973C149.606 27.928 167.791 21.4057 186.436 16.6586C191.356 15.4058 196.265 14.2562 201.272 13.3949C203.108 13.079 210.778 12.3727 211.614 11.8407C213.772 10.4689 217.454 12.1895 219.822 10.8266C222.561 9.24987 232.493 11.0143 236.193 10.1976C236.879 10.0464 237.658 9.64031 238.294 9.33147C238.683 9.14245 238.956 8.98243 239.399 8.94229C242.836 8.63102 247.013 10.1555 250.624 10.2105C267.798 10.4374 284.876 12.8137 301.459 17.2839C308.928 19.2793 316.437 22.0907 323.633 24.9053C347.719 34.1045 370.321 46.7971 390.712 62.5754C397.11 67.5651 402.883 72.961 408.653 78.6455C411.283 81.2357 414.029 83.7808 416.44 86.5751C420.599 91.3927 424.313 96.5675 428.07 101.696C434.402 110.337 440.003 119.186 445.302 128.485C446.433 130.469 447.733 132.391 448.763 134.428C449.561 136.006 450.074 137.735 450.779 139.357C451.618 141.288 452.612 143.153 453.429 145.093C454.682 148.065 455.72 151.171 456.835 154.2C460.246 163.471 463.485 172.682 465.947 182.264C469.208 194.959 471.096 208.015 472.662 221.014C473.413 227.246 473.04 233.818 473.034 240.101C473.03 244.552 473.215 249.096 472.897 253.532C470.349 285.248 461.61 316.157 447.177 344.512C445.82 347.205 444.657 350.037 443.183 352.662C441.409 355.824 439.159 358.762 437.201 361.815C436.284 363.245 435.696 364.833 434.81 366.265C433.547 368.307 431.829 370.146 430.437 372.113C428.327 375.092 426.415 378.199 424.209 381.113C420.591 385.89 416.047 391.681 411.909 395.991C406.072 402.07 399.487 407.672 394.265 414.296C393.939 414.394 393.617 414.509 393.291 414.605C392.851 414.734 392.469 414.821 392.082 415.09C390.121 416.453 388.345 418.38 386.47 419.897C380.301 424.889 373.835 430.099 367.016 434.16C358.971 439.738 350.436 444.574 341.516 448.608C337.768 450.704 334.01 452.121 330.058 453.741C310.876 461.761 290.598 466.853 269.903 468.847C265.493 469.271 262.727 469.745 258.139 469.745L255.857 471.988C255.445 472.02 255.036 472.035 254.623 472.052C254.5 472.057 254.377 472.066 254.253 472.069C251.102 472.159 247.915 470.807 244.679 470.753C239.613 470.668 234.422 471.105 229.378 470.727C178.952 466.754 131.102 446.819 92.7719 413.812C90.0365 411.427 87.5614 408.619 85.014 406.031C82.3054 403.278 79.4708 400.649 76.7777 397.883C75.0994 396.159 73.6613 394.248 72.0764 392.445C67.1017 386.783 62.5237 381.129 58.1606 374.982C55.5865 371.356 51.1204 363.598 48.1204 360.903C47.7177 360.542 47.4906 360.237 47.2244 359.765C47.2695 359.364 47.4431 358.584 47.3399 358.204C47.3152 358.112 41.5502 349.189 40.9373 348.205C39.9428 346.608 39.2966 344.787 38.4912 343.086C36.9694 339.872 35.3675 336.684 33.9219 333.436C33.2011 331.817 32.6486 330.108 31.9161 328.505C31.4443 327.472 30.4887 326.726 30.0546 325.718C28.8725 322.972 28.3979 319.322 27.3959 316.392C26.7564 314.521 24.3343 310.562 24.4519 308.861C24.4801 308.453 24.5801 308.04 24.5186 307.63C24.3178 306.288 23.2723 304.728 22.833 303.408C22.2047 301.519 21.8823 299.345 21.3907 297.398C17.9266 283.681 15.4548 270.048 14.2559 255.924C14.0314 253.28 14.0458 250.622 13.8597 247.976C13.6593 245.125 13.1385 242.289 13.0098 239.436C12.8563 236.032 13.6643 232.736 13.8883 229.36C14.1117 225.994 13.9814 222.621 14.2996 219.255C15.5262 206.286 18.249 193.124 21.4505 180.514C23.1038 174.002 25.7883 167.433 26.7499 160.787L26.8027 160.407C29.2077 157.974 30.9054 150.721 32.3085 147.355C33.2006 145.214 34.3788 143.226 35.1303 141.02C35.6249 139.568 35.9495 138.169 36.09 136.642Z"/><path fill="#FE8C8D" transform="scale(2.13664 2.13664)" d="M362.355 418.961C364.142 419.548 365.66 420.66 367.396 421.255C368.025 421.471 368.618 421.167 369.204 421.426C369.08 421.436 368.629 421.466 368.524 421.508C367.75 421.819 368.709 424.303 368.523 425.151C368.307 426.133 365.837 427.964 365.197 429.151C364.096 431.196 363.804 432.873 364.468 435.078L364.805 434.988C365.346 434.407 366.009 434.337 366.756 434.205L367.016 434.16C358.971 439.738 350.436 444.574 341.516 448.608C341.214 444.993 341.544 440.404 342.355 436.888C343.674 431.174 345.74 429.277 350.461 426.066C352.314 424.804 354.126 423.372 356.077 422.268C358.143 421.099 360.337 420.233 362.355 418.961Z"/><path fill="#522E1B" transform="scale(2.13664 2.13664)" d="M106.323 83.9007C108.813 82.872 111.604 82.2781 114.213 81.617C120.816 79.944 127.474 78.6626 134.16 77.3789C155.53 73.2809 176.989 69.655 198.519 66.5038C238.598 60.3905 278.514 53.5314 318.829 49.0857C323.662 48.5526 332.548 46.9349 337.063 47.2099C342.451 50.9072 352.137 59.8183 354.702 65.7016C356.258 69.2702 357.062 73.4571 358.072 77.2207L363.243 96.2357L383.645 172.319L413.567 282.892L422.178 314.129C423.787 319.969 425.642 325.832 426.775 331.785C427.441 335.286 428.591 342.012 427.733 345.398C427.218 347.432 425.997 349.466 424.824 351.181C423.644 352.905 422.015 355.27 419.862 355.681C419.48 355.754 419.094 355.81 418.706 355.849C417.171 359.121 416.519 362.773 414.884 365.972C412.282 371.065 400.51 385.463 396.105 388.939C393.373 391.095 389.707 392.882 386.452 394.072C382.757 395.424 378.653 395.814 374.796 396.53C371.198 397.197 367.653 398.137 364.05 398.776C359.836 399.523 355.553 399.969 351.321 400.624C346.965 401.298 342.693 402.305 338.361 403.091C332.218 404.205 326.034 405.099 319.891 406.215C280.773 413.722 241.563 420.744 202.271 427.281C188.348 429.534 173.389 433.063 159.418 434.082C152.674 434.574 149.643 433.887 143.606 431.064C140.63 429.673 132.548 425.308 130.542 423.147C129.973 422.534 129.606 421.753 129.335 420.97C128.862 419.604 128.457 418.014 128.312 416.577C127.043 411.587 125.828 406.507 124.85 401.452C124.599 400.672 124.48 399.859 124.327 399.054C122.74 392.658 121.497 386.138 120.081 379.699C117.431 369.961 115.719 359.955 113.46 350.12C107.681 325.601 102.167 301.02 96.9209 276.381L87.2289 231.953C85.2365 223.077 82.6475 214.012 81.3329 205.021C79.986 200.88 79.3569 196.235 78.487 191.966C76.7198 183.293 74.9968 174.628 72.8075 166.048C72.0207 163.296 71.6525 160.41 71.0073 157.619C68.4457 146.537 64.3024 131.38 66.865 120.068C67.6353 113.715 70.251 107.228 74.1109 102.133C75.4362 99.8737 77.8932 97.2838 80.1027 95.8546C87.6399 89.3232 96.8656 86.3635 106.323 83.9007Z"/><path fill="#34211C" transform="scale(2.13664 2.13664)" d="M72.8075 166.048C72.9031 165.516 72.9192 165.51 73.3251 165.15L73.1267 165.2L73.4153 165.133C76.4819 174.672 78.8958 187.32 80.7623 197.256C81.1597 199.372 81.0271 201.649 81.4923 203.691C81.6242 204.27 81.5276 204.478 81.3329 205.021C79.986 200.88 79.3569 196.235 78.487 191.966C76.7198 183.293 74.9968 174.628 72.8075 166.048Z"/><path fill="#080200" transform="scale(2.13664 2.13664)" d="M80.1027 95.8546C87.6399 89.3232 96.8656 86.3635 106.323 83.9007L106.57 84.1474L106.109 84.436C106.402 84.6105 106.661 84.7376 106.978 84.8771C105.916 85.3479 104.432 85.3747 103.269 85.7179C99.7887 86.7253 96.3801 87.9663 93.0665 89.4324C91.1833 90.2601 89.3066 91.1191 87.5057 92.1152C85.4998 93.2246 83.2798 95.0399 81.092 95.6353C80.7728 95.7222 80.4332 95.8688 80.1027 95.8546Z"/><path fill="#34211C" transform="scale(2.13664 2.13664)" d="M74.1109 102.133L74.3135 102.383C74.2745 102.463 74.2318 102.542 74.1966 102.625C74.0018 103.082 74.1028 102.815 74.0468 103.271C73.9271 104.246 73.1916 105.457 72.7755 106.361C70.7396 110.782 67.6938 115.755 67.3192 120.663L67.0576 120.639L66.865 120.068C67.6353 113.715 70.251 107.228 74.1109 102.133Z"/><path fill="#34211C" transform="scale(2.13664 2.13664)" d="M120.081 379.699L120.181 379.083L120.422 379.034C120.942 380.901 121.579 385.728 122.121 386.972L122.58 386.671C123.6 388.955 125.137 395.832 124.68 398.244C124.661 398.346 124.649 398.45 124.627 398.552C124.562 398.845 124.557 398.774 124.327 399.054C122.74 392.658 121.497 386.138 120.081 379.699Z"/><path fill="#34211C" transform="scale(2.13664 2.13664)" d="M124.85 401.452L125.14 401.043C126.106 402.382 125.457 404.4 126.6 405.868C127.76 407.356 129.029 412.767 128.796 414.624C128.715 415.273 128.494 415.95 128.312 416.577C127.043 411.587 125.828 406.507 124.85 401.452Z"/><path fill="#F7CB96" transform="scale(2.13664 2.13664)" d="M176.961 101.366C185.177 99.7219 193.518 98.6241 201.773 97.1852L274.325 85.1001C275.033 87.2659 273.95 89.8746 274.768 92.0634C270.464 93.038 253.586 95.378 251.396 98.233C251.256 98.4163 251.245 98.5088 251.19 98.7068C251.476 99.3754 251.896 99.6158 252.57 99.874C255.858 101.134 270.151 97.9379 274.129 97.1632C274.16 104.533 275.627 111.903 281.073 117.261C286.098 122.206 292.591 123.978 299.494 123.837C300.772 123.811 302.089 123.745 303.355 123.561C305.094 131.169 308.603 140.417 315.503 144.816C319.722 147.505 324.601 148.532 329.513 147.434C330.453 147.225 331.385 146.976 332.304 146.687C333.524 150.739 338.147 171.691 340.561 173.143C341.086 173.459 341.673 173.499 342.253 173.327C342.61 173.221 342.863 173.005 343.14 172.769C343.715 170.28 337.54 148.576 336.447 145.179C338.87 142.864 341.167 140.504 342.718 137.495C351.716 169.81 359.572 202.427 368.412 234.777C370.24 241.401 372.006 248.042 373.71 254.699C374.817 258.978 375.764 263.421 377.239 267.584C371.274 263.82 363.944 261.305 356.844 262.93C352.352 263.957 348.789 266.555 346.391 270.477C342.633 276.625 341.49 285.141 343.251 292.111C343.307 292.332 343.367 292.552 343.43 292.771C336.036 293.224 329.9 294.396 324.727 300.205C321.154 304.216 319.021 309.624 319.377 315.024C319.635 318.931 320.908 322.81 322.334 326.433C306.289 328.808 290.266 331.858 274.285 334.65C264.18 336.415 253.872 337.727 243.872 339.984C241.758 330.062 237.443 319.522 228.634 313.732C223.703 310.491 217.735 308.602 211.855 309.863C209.728 310.319 207.577 311.101 205.623 312.053C203.549 303.246 201.007 293.294 192.792 288.215C188.252 285.408 182.52 284.657 177.369 285.953C172.079 287.284 168.225 290.324 164.698 294.368L144.305 207.703L139.11 185.252C138.043 180.515 137.135 175.671 135.824 171.001C140.978 173.219 146.279 174.832 151.735 172.638C156.263 170.799 159.868 167.226 161.749 162.714C164.211 156.774 163.34 151.472 161.111 145.636C168.405 144.393 174.21 142.894 178.694 136.511C182.714 130.788 183.371 124.059 182.12 117.311C181.861 115.976 181.588 114.645 181.302 113.316C185.313 112.518 189.395 111.992 193.444 111.421C195.814 111.086 198.382 110.933 200.644 110.132C201.855 109.704 203.195 109.062 203.912 107.941C204.234 107.438 204.351 107.029 204.251 106.433C203.473 105.701 202.855 105.697 201.816 105.725C194.364 105.921 187.109 108.307 179.673 108.854L179.329 108.59C178.749 106.866 176.669 102.975 176.961 101.366Z"/><path fill="#85511B" transform="scale(2.13664 2.13664)" d="M246.82 168.103C260.064 167.151 272.615 170.083 283.615 177.682C293.952 184.823 301.217 196.525 303.374 208.876C305.388 220.411 301.56 234.22 294.758 243.723C286.744 254.919 274.526 260.523 261.304 262.735C260.994 262.778 260.684 262.814 260.372 262.844C246.531 264.106 232.75 259.869 222.01 251.048C212.161 242.808 205.375 231.444 204.283 218.497C203.301 206.86 207.991 192.633 215.517 183.771C222.573 175.461 236.074 168.916 246.82 168.103Z"/><path fill="#F2B258" transform="scale(2.13664 2.13664)" d="M250.185 171.432C274.464 169.369 295.805 187.41 297.813 211.694C299.82 235.978 281.73 257.278 257.442 259.23C233.232 261.176 212.015 243.157 210.014 218.951C208.013 194.745 225.984 173.488 250.185 171.432Z"/><path fill="#F7CB96" transform="scale(2.13664 2.13664)" d="M249.022 175.104C253.502 174.864 257.938 174.851 262.367 175.667C274.489 177.901 282.899 184.122 289.753 194.116L289.473 194.165C286.592 190.336 283.238 186.27 279.401 183.357L279.548 184.279C278.751 185.617 278.845 185.866 279.867 186.992C286.181 193.943 290.703 200.068 292.56 209.54C292.803 210.782 292.841 212.027 293.036 213.269C293.168 214.107 293.717 215.073 294.453 215.519C294.546 215.575 294.649 215.613 294.746 215.66C294.942 216.103 295.155 216.513 295.401 216.931L295.743 216.879C294.926 213.861 295.549 209.008 294.62 205.801C294.526 205.475 294.498 205.318 294.524 204.981L294.743 205.119C295.865 208.441 296.147 212.735 296.145 216.207C296.137 228.796 293.056 235.457 284.335 244.241C277.386 250.432 268.708 254.346 259.469 255.457C249.387 256.634 236.235 253.658 228.184 247.198C222.522 242.655 215.981 234.279 213.553 227.526C212.723 225.216 212.284 222.553 212.037 220.118C211.749 217.279 211.929 214.396 212.181 211.559C212.94 203.009 215.082 195.954 220.651 189.238C227.67 180.773 238.197 176.096 249.022 175.104Z"/><path fill="#85511B" transform="scale(2.13664 2.13664)" d="M249.546 179.098C259.147 178.306 269.619 180.275 277.541 186.026C285.391 191.724 290.905 201.343 292.401 210.865C293.867 220.198 291.821 228.943 286.179 236.557C279.518 245.544 269.559 249.803 258.77 251.442C247.872 252.441 235.885 249.371 227.253 242.433C220.951 237.367 215.955 227.767 215.087 219.76C214.116 210.801 216.15 200.189 221.943 193.073C228.814 184.632 238.874 180.208 249.546 179.098Z"/><path fill="#F2B258" transform="scale(2.13664 2.13664)" d="M252.097 183.351C259.784 182.76 267.828 185.272 274.213 189.529C281.41 194.328 285.813 202.815 287.48 211.126C289.151 219.457 287.377 226.504 282.613 233.517C276.676 242.258 266.189 245.458 256.355 247.305C247.025 247.544 237.379 245.019 230.17 238.846C224.325 233.841 220.147 225.217 219.609 217.568C218.991 208.781 221.398 200.38 227.266 193.768C233.406 186.85 243.086 183.883 252.097 183.351Z"/><path fill="#85511B" transform="scale(2.13664 2.13664)" d="M248.853 184.488C249.389 184.482 250.146 184.407 250.645 184.62C251.332 184.913 251.832 185.825 252.187 186.447C253.6 188.92 254.677 191.705 255.873 194.298C257.552 197.948 259.353 201.54 261.272 205.069C264.784 205.769 268.255 206.667 271.768 207.369C274.496 207.915 277.526 208.183 280.145 209.086C281.06 209.401 282.254 209.914 282.839 210.732C283.197 211.233 283.329 211.81 283.152 212.406C282.093 215.983 268.858 221.163 265.43 222.877C262.305 229.69 263.052 238.261 259.664 244.729C259.488 244.858 259.187 245.094 258.988 245.167C258.164 245.472 257.343 244.934 256.816 244.343C255.493 242.856 254.533 240.506 253.57 238.758C251.511 235.023 249.169 230.728 246.468 227.449C242.893 223.111 232.263 224.338 227.393 221.393C226.647 220.942 226.3 220.537 226.075 219.681C226.172 218.808 226.477 218.321 227.111 217.73C230.311 214.746 240.753 210.49 243.159 207.08C246.994 201.645 245.851 187.921 248.853 184.488Z"/><path fill="#F2B258" transform="scale(2.13664 2.13664)" d="M250.769 193.133C251.418 193.561 255.707 204.669 257.027 206.813C257.606 207.751 258.34 208.63 259.275 209.231C262.787 211.489 270.671 211.627 274.983 212.663L275.348 212.753C271.969 214.462 267.836 215.538 264.733 217.583C261.077 219.993 258.082 229.449 257.247 233.692L257.177 234.285L256.928 234.453C254.946 230.942 252.455 227.075 249.889 223.961C246.331 219.641 239.058 219.275 233.792 218.767C237.991 216.411 242.521 213.266 246.053 210.003C250.152 206.214 250.574 198.449 250.769 193.133Z"/><path fill="#85511B" transform="scale(2.13664 2.13664)" d="M325.506 184.702C330.279 185.297 332.002 192.274 334.908 195.559C337.651 196.354 340.615 197.039 343.193 198.28C344.16 198.745 345.407 199.399 345.711 200.515C346.349 202.856 339.238 206.599 337.74 208.359C334.923 211.67 336.003 217.139 333.617 220.986C332.806 221.166 331.942 221.381 331.112 221.193C327.743 220.432 326.362 212.98 323.734 210.623C320.112 207.375 316.483 208.958 313.524 203.94C315.234 201.205 317.99 199.541 320.562 197.69C322.18 193.343 321.724 187.92 325.506 184.702Z"/><path fill="#F2B258" transform="scale(2.13664 2.13664)" d="M326.769 191.198C328.482 192.897 329.167 195.6 330.382 197.6C331.805 199.94 336.229 200.806 338.726 201.529C333.787 204.775 332.436 206.373 331.454 212.193C331.356 212.776 331.345 213.268 330.937 213.725C329.993 212.474 329.325 210.95 328.465 209.626C325.947 205.75 322.151 205.228 318.114 203.691C319.465 203.293 320.959 202.953 322.199 202.276C326.084 200.154 325.624 195.277 326.684 191.491L326.769 191.198Z"/><path fill="#85511B" transform="scale(2.13664 2.13664)" d="M267.831 275.427C272.727 275.908 273.084 283.272 276.57 285.788C279.144 287.647 283.39 287.828 286.32 289.165C287.389 289.653 288.09 290.178 288.475 291.302C288.312 294.101 281.31 297.669 279.345 299.753C279.274 299.829 279.204 299.907 279.134 299.984C278.465 303.847 278.34 307.64 276.134 311.02C275.461 311.57 275.017 311.94 274.126 311.965C273.133 311.656 272.591 311.126 271.999 310.275C270.238 307.74 269.505 304.288 267.352 302.035C264.837 299.402 258.519 299.426 256.633 296.706C256.28 296.198 256.172 295.659 256.323 295.059C257.017 292.303 261.376 290.735 262.792 288.246C264.154 285.851 264.158 282.733 264.768 280.086C265.255 277.977 265.999 276.594 267.831 275.427Z"/><path fill="#F2B258" transform="scale(2.13664 2.13664)" d="M269.284 282.957C269.553 283.23 269.415 283.064 269.694 283.53C270.367 284.651 271.154 285.739 271.749 286.901C272.111 287.609 272.261 288.471 272.667 289.14C273.807 291.023 279.729 291.854 281.698 292.298C281.481 292.417 281.266 292.54 281.053 292.666C275.819 295.741 275.295 297.72 273.816 303.372C273.801 303.376 273.787 303.386 273.771 303.385C272.915 303.289 270.727 298.982 269.948 298.028C268.042 295.694 264.574 295.339 261.788 295.061C267.586 291.366 267.553 289.21 269.284 282.957Z"/><path fill="#85511B" transform="scale(2.13664 2.13664)" d="M176.413 209.259C177.071 209.226 177.858 209.148 178.501 209.317C181.23 210.031 183.288 216.262 184.829 218.523L185.025 218.807C188.01 220.492 191.588 220.165 194.567 221.689C195.479 222.155 196.629 222.922 196.846 224.009C197.481 227.193 190.12 229.998 188.423 232.044C186.01 234.953 187.193 240.449 184.281 244.072C183.912 244.301 183.506 244.587 183.098 244.735C180.233 245.771 177.277 237.128 175.936 235.33C173.886 232.58 169.234 232.596 166.393 231.003C165.501 230.503 165.1 230.028 164.849 229.047C165.351 225.328 170.574 223.594 172.404 220.56C174.543 217.012 173.113 212.365 176.413 209.259Z"/><path fill="#F2B258" transform="scale(2.13664 2.13664)" d="M177.966 216.095C179.588 217.074 179.808 219.739 180.711 221.253C182.103 223.586 186.408 224.195 188.837 224.787C183.037 229.162 183.656 230.346 182.014 237.064C180.443 235.671 179.491 232.984 178.277 231.243C176.596 228.834 174.076 228.574 171.404 228.144C176.316 224.118 176.981 222.216 177.966 216.095Z"/><path fill="#85511B" transform="scale(2.13664 2.13664)" d="M227.778 125.477C231.382 126.214 233.222 131.342 235.308 134.043L235.511 134.304C238.961 135.73 245.116 135.68 247.599 138.6C248.303 141.83 241.696 144.544 239.967 146.843C237.407 150.247 238.696 155.193 236.474 158.777C235.872 159.152 235.25 159.527 234.51 159.368C231.907 158.807 228.751 151.965 227.281 149.751C225.236 148.954 223.035 148.648 220.966 147.906C219.733 147.464 217.937 146.561 217.495 145.21C216.689 142.745 222.479 139.293 223.445 136.978C224.648 134.094 224.215 130.736 225.382 127.842C225.92 126.509 226.469 126.035 227.778 125.477Z"/><path fill="#F2B258" transform="scale(2.13664 2.13664)" d="M229.377 132.453C230.44 133.641 231.256 135.792 232.213 137.169C233.811 139.471 237.948 139.691 240.531 140.142C239.618 140.672 238.641 141.191 237.801 141.833C234.902 144.05 234.569 146.771 234.123 150.146L233.817 150.623C233.011 150.296 232.458 148.74 231.927 147.994C229.959 145.229 226.774 144.721 223.664 144.257C227.864 140.218 228.311 137.947 229.377 132.453Z"/><path fill="#522E1B" transform="scale(2.13664 2.13664)" d="M352.584 227.335C353.625 227.451 354.649 227.894 355.356 228.688C357.662 231.278 363.206 255.783 363.003 259.685C362.191 259.576 361.749 259.545 361.187 258.885C358.015 255.16 353.2 235.593 352.554 230.336C352.431 229.332 352.499 228.339 352.584 227.335Z"/><path fill="#F7CB96" transform="scale(2.13664 2.13664)" d="M147.821 410.204C147.718 409.877 147.663 409.733 147.595 409.417C146.644 405.005 148.244 399.78 150.729 396.133C154.615 390.428 160.982 387.714 167.382 385.806C174.962 383.547 183.22 382.898 191.027 381.582L232.404 374.29L313.255 359.809C340.39 355.285 367.477 350.48 394.511 345.394C394.505 347.77 394.338 350.154 394.221 352.528C388.553 354.811 380.111 356.116 373.981 357.417L375.228 357.568C373.606 358.609 370.662 357.788 369.35 359.347C369.964 359.537 370.368 359.373 370.977 359.218C372.351 358.871 374.545 358.774 375.889 359.218C380.334 359.451 385.01 358.845 389.425 358.331C389.512 360.094 389.681 361.786 390.172 363.49C390.473 364.41 390.806 365.33 391.03 366.272C392.286 369.331 393.614 371.998 395.971 374.356C382.604 376.308 369.281 378.786 355.965 381.068L285.849 393.522C272.757 395.952 259.592 397.963 246.512 400.441C236.88 402.266 227.276 404.339 217.622 406.031C207.016 407.889 196.338 409.338 185.719 411.12C175.901 412.767 165.969 415.103 156.046 415.959C154.136 416.124 152.284 415.998 150.694 414.804C149.181 413.668 148.365 411.968 147.821 410.204Z"/><path fill="#D79B65" transform="scale(2.13664 2.13664)" d="M147.821 410.204C147.718 409.877 147.663 409.733 147.595 409.417C146.644 405.005 148.244 399.78 150.729 396.133C154.615 390.428 160.982 387.714 167.382 385.806C174.962 383.547 183.22 382.898 191.027 381.582L232.404 374.29L313.255 359.809C340.39 355.285 367.477 350.48 394.511 345.394C394.505 347.77 394.338 350.154 394.221 352.528C388.553 354.811 380.111 356.116 373.981 357.417C369.908 358.423 354.907 360.4 352.467 361.728C351.77 361.423 351.247 361.289 350.481 361.31C346.854 361.411 343.084 362.332 339.498 362.93C335.059 363.671 330.506 364.17 326.156 365.361C323.6 366.061 318.522 368.375 316.262 368.461C310.073 370.732 303.34 371.538 296.862 372.598C287.575 374.039 278.299 375.551 269.035 377.134C243.284 381.738 217.747 387.392 192.019 392.082C181.175 394.058 165.845 394.768 156.28 400.181C154.271 402.811 150.803 408.149 148.247 409.862C148.096 409.963 147.929 410.057 147.821 410.204Z"/><path fill="#080200" transform="scale(2.13664 2.13664)" d="M156.28 400.181C156.257 400.105 156.219 400.033 156.212 399.954C156.164 399.421 156.297 399.359 156.65 399.022C159.478 396.321 164.612 394.938 168.293 394.02C177.477 391.732 186.919 390.218 196.234 388.583L238.796 381.153C259.861 377.343 280.88 373.56 302.079 370.552C306.171 369.972 312.406 368.305 316.262 368.461C310.073 370.732 303.34 371.538 296.862 372.598C287.575 374.039 278.299 375.551 269.035 377.134C243.284 381.738 217.747 387.392 192.019 392.082C181.175 394.058 165.845 394.768 156.28 400.181Z"/><path fill="#CA7E42" transform="scale(2.13664 2.13664)" d="M390.172 363.49C390.473 364.41 390.806 365.33 391.03 366.272C386.272 368.061 374.195 369.107 368.651 369.954C362.827 370.845 356.909 372.276 351.051 372.786C349.317 372.937 347.876 372.864 346.165 372.543C351.324 368.029 367.47 366.553 374.47 365.506C379.644 364.731 384.939 363.691 390.172 363.49Z"/><path fill="#080200" transform="scale(2.13664 2.13664)" d="M352.467 361.728C354.907 360.4 369.908 358.423 373.981 357.417L375.228 357.568C373.606 358.609 370.662 357.788 369.35 359.347C369.964 359.537 370.368 359.373 370.977 359.218C372.351 358.871 374.545 358.774 375.889 359.218C371.982 359.639 354.916 362.101 352.467 361.728Z"/><path fill="#34211C" transform="scale(2.13664 2.13664)" d="M251.951 389.356L252.574 389.439L252.649 389.828C252.118 390.569 251.307 391.155 250.517 391.607C244.515 395.046 214.779 399.295 206.877 400.74C196.739 402.594 186.614 405.018 176.368 406.187C173.961 406.461 171.489 406.783 169.114 406.163C168.739 406.01 168.368 405.868 168.02 405.659C167.546 405.376 167.53 405.446 167.376 404.878C169.448 403.548 245.078 390.046 251.951 389.356Z"/><path fill="#CA7E42" transform="scale(2.13664 2.13664)" d="M110.438 159.737C111.24 160.234 111.479 162.195 111.684 163.071C115.718 180.339 119.124 197.803 122.966 215.124L137.387 278.375L143.881 308.04C145.074 313.516 146.01 319.233 147.658 324.582C145.751 325.217 143.892 325.989 142.097 326.893C130.946 332.478 126.87 341.945 123.161 353.192L122.855 353.793L122.482 353.52C121.08 349.821 120.509 345.371 119.653 341.49L114.312 317.108L99.2311 248.684L90.4569 209.758C89.5724 205.806 87.0937 197.021 87.1065 193.471C87.1147 191.188 92.1179 177.48 93.4 174.45C97.072 165.77 102.056 163.132 110.438 159.737Z"/><path fill="#522E1B" transform="scale(2.13664 2.13664)" d="M106.853 230.748C107.594 230.706 108.393 230.67 109.125 230.798C110.19 230.984 111.319 231.484 111.887 232.448C115.627 238.8 120.423 265.279 122.406 273.893C124.937 284.88 128.462 297.082 130.117 308.12C130.505 310.712 131.033 313.912 130.233 316.469C129.13 319.993 126.581 321.742 123.471 323.315C122.412 323.686 121.329 323.952 120.217 323.665C119.104 323.378 118.242 322.553 117.722 321.55C115.713 317.682 111.82 297.25 110.551 291.668C107.912 280.444 105.38 269.195 102.956 257.923C102.008 253.441 100.693 248.866 100.161 244.32C99.8772 241.895 100.218 239.298 101.028 236.989C102.083 233.985 104.038 232.094 106.853 230.748Z"/><path fill="#F2B258" transform="scale(2.13664 2.13664)" d="M106.536 234.208C106.845 234.46 106.853 234.43 107.053 234.691C108.093 236.047 108.677 237.977 109.177 239.592C113.084 252.22 115.594 265.42 118.593 278.291C120.712 287.385 123.43 296.423 125.086 305.614C125.637 308.67 126.109 311.735 125.674 314.829C124.87 316.006 124.039 316.879 122.995 317.838C122.662 318.136 122.437 318.223 122.006 318.335C121.54 318.016 121.37 317.652 121.209 317.127C120.832 315.899 120.721 314.573 120.434 313.318L117.816 302.309L110.694 270.607C108.756 261.928 105.278 252.014 104.625 243.298C104.385 240.084 105 237.042 106.536 234.208Z"/><path fill="#D79B65" transform="scale(2.13664 2.13664)" d="M340.078 106.927C346.172 107.873 352.347 107.903 358.491 108.243C360.374 116.147 362.984 123.92 364.994 131.805L384.063 204.617C390.846 228.884 397.464 253.197 403.917 277.554C401.543 278.352 399.309 279.428 397.107 280.611C393.82 282.529 390.715 284.743 387.83 287.225C386.424 280.435 384.553 273.646 382.865 266.919C379.098 251.869 375.151 236.866 371.023 221.911L353.164 153.644C348.951 138.042 344.085 122.571 340.078 106.927Z"/><path fill="#CA7E42" transform="scale(2.13664 2.13664)" d="M366.46 323.587L366.618 323.706C366.798 324.338 365.406 331.133 365.286 332.525C365.015 335.653 365.191 338.743 365.363 341.87C360.885 342.428 356.321 343.611 351.87 344.432L325.717 349.082L250.576 362.409C238.78 364.49 226.961 366.793 215.136 368.658C214.995 367.317 214.639 366.002 214.336 364.689C213.233 360.351 210.939 356.27 209.28 352.125L287.025 338.196C313.568 333.56 340.122 329.325 366.46 323.587Z"/><path fill="#D79B65" transform="scale(2.13664 2.13664)" d="M283.209 62.3523L283.876 62.2305C284.39 62.5229 286.333 69.6892 286.692 70.6713C287.474 72.81 288.425 74.8524 289.412 76.9014C283.336 78.0788 277.15 78.9015 271.042 79.9359C252.827 83.067 234.585 86.0395 216.318 88.853C195.109 92.2927 173.993 96.4233 152.802 99.9799C151.096 100.281 149.368 100.495 147.654 100.742C148.11 94.8913 148.295 89.3527 147.992 83.4757C153.323 82.2521 158.804 81.5441 164.198 80.6417C175.352 78.768 186.522 76.9918 197.707 75.3131L283.209 62.3523Z"/><path fill="#D79B65" transform="scale(2.13664 2.13664)" d="M122.996 143.952C124.809 145.511 134.296 190.141 135.584 195.688L153.825 273.497L159.086 296.114C161.088 305.115 162.957 314.134 165.48 323.01C162.688 322.975 159.915 322.991 157.125 323.104L153.169 323.312C152.746 320.556 151.884 317.755 151.244 315.035C150.22 310.581 149.23 306.12 148.274 301.651C144.518 283.792 140.512 265.986 136.257 248.24C130.32 222.116 124.543 195.956 118.927 169.761C117.47 163.115 116.183 156.426 114.662 149.795C117.575 147.995 120.302 146.059 122.996 143.952Z"/><path fill="#F2B258" transform="scale(2.13664 2.13664)" d="M334.905 56.3587C337.721 56.2456 340.348 56.3115 342.884 57.724C343.922 58.3019 345.358 59.3557 345.848 60.4813C347.408 64.0685 347.981 69.4239 348.975 73.3629C351.377 82.8716 354.094 92.3185 356.595 101.804C352.659 101.475 348.692 101.452 344.751 101.16C335.984 100.509 327.257 98.3015 319.454 94.2316C303.903 85.6981 295.302 78.9458 289.969 61.3692C304.983 59.8596 319.81 57.308 334.905 56.3587Z"/><path fill="#522E1B" transform="scale(2.13664 2.13664)" d="M325.855 72.0218C327.785 71.9188 329.529 71.9984 331.299 72.8959C333.097 73.8074 334.508 75.3322 335.128 77.2659C335.716 79.1041 335.518 81.1037 334.581 82.7907C333.365 84.9596 331.251 86.0426 328.95 86.7065C327.23 86.9725 325.835 87.0013 324.203 86.3114C322.242 85.475 320.72 83.8552 320.008 81.8453C319.376 80.04 319.401 78.017 320.28 76.2956C321.439 74.0259 323.541 72.8278 325.855 72.0218Z"/><path fill="#F2B258" transform="scale(2.13664 2.13664)" d="M327.118 76.6991C327.983 76.8876 328.862 77.1871 329.345 78.0004C329.66 78.5296 329.751 78.9584 329.634 79.5658C329.355 81.0161 328.481 81.5209 327.324 82.29C326.985 82.3078 326.864 82.3297 326.504 82.2716C325.894 82.1731 325.303 81.6078 324.984 81.1174C324.516 80.3987 324.626 79.3557 324.904 78.5905C325.308 77.4756 326.11 77.1699 327.118 76.6991Z"/><path fill="#D79B65" transform="scale(2.13664 2.13664)" d="M179.144 290.283C182.43 290.059 185.563 290.441 188.472 292.071C194.728 295.576 197.653 303.15 198.838 309.848C199.447 313.286 199.619 316.858 200.574 320.22L200.688 320.612C200.783 320.577 200.878 320.541 200.974 320.507C205.034 319.064 208.229 316.002 212.639 315.355C217.39 314.658 222.04 316.237 225.796 319.127C232.429 324.23 236.093 332.699 237.175 340.809C233.659 341.75 230.06 342.365 226.47 342.948C219.56 344.123 212.662 345.368 205.777 346.685C195.381 334.375 187.083 328.494 171.426 323.904C170.446 321.058 169.853 318.031 169.155 315.103C168.009 310.296 166.857 305.493 165.945 300.635C169.555 295.933 173.147 291.634 179.144 290.283Z"/><path fill="#522E1B" transform="scale(2.13664 2.13664)" d="M216.082 326.734L216.214 326.739C216.552 326.746 216.89 326.752 217.228 326.786C218.687 326.935 219.907 327.906 220.796 329.019C221.527 329.934 221.95 331.04 221.783 332.222C221.634 333.269 221.157 333.749 220.348 334.343C220.258 334.368 220.169 334.395 220.079 334.418C218.983 334.696 217.661 335.118 216.644 334.424C214.98 333.291 216.053 330.018 215.701 328.288C215.573 327.66 215.842 327.314 216.082 326.734Z"/><path fill="#522E1B" transform="scale(2.13664 2.13664)" d="M180.215 301.498C181.831 301.964 182.973 303.81 183.902 305.122C184.472 305.926 185.453 307.094 185.28 308.121C184.344 308.574 183.411 309.034 182.48 309.5C182.055 309.831 181.805 309.968 181.273 310.068C180.273 309.59 179.517 308.411 179.024 307.447C178.425 306.276 177.735 304.092 178.314 302.805C178.669 302.014 179.466 301.801 180.215 301.498Z"/><path fill="#D79B65" transform="scale(2.13664 2.13664)" d="M274.325 85.1001C280.387 83.7701 286.813 83.7754 292.785 82.1103C295.018 84.5988 297.255 87.0502 299.808 89.2219C309.342 97.333 322.503 103.695 334.628 106.688L341.631 133.896C336.542 138.257 333.238 142.58 325.944 141.965C321.842 141.619 317.719 139.821 315.073 136.602C312.143 133.039 310.564 128.046 309.566 123.616C309.219 122.074 309.035 120.173 308.327 118.771C307.951 118.027 307.577 117.748 306.746 117.641C304.579 117.36 302.165 117.711 299.97 117.732C294.225 117.786 287.75 116.539 283.981 111.816C280.458 107.402 279.298 99.4649 279.928 94.0207C280.035 93.0891 280.206 92.1575 280.386 91.2377C278.5 91.4597 276.63 91.6782 274.768 92.0634C273.95 89.8746 275.033 87.2659 274.325 85.1001Z"/><path fill="#522E1B" transform="scale(2.13664 2.13664)" d="M294.583 96.5699C295.191 96.52 295.638 96.5091 296.244 96.6347C297.408 97.9724 296.075 99.385 296.27 100.96C296.895 101.573 297.528 101.506 298.372 101.643L298.493 102.111C298.024 102.845 297.11 103.283 296.385 103.74C295.763 103.787 295.131 103.823 294.534 103.596C293.394 103.163 292.508 102.04 292.113 100.914C291.771 99.9404 291.787 98.772 292.294 97.8552C292.802 96.9351 293.637 96.8151 294.583 96.5699Z"/><path fill="#522E1B" transform="scale(2.13664 2.13664)" d="M322.007 126.695C322.768 126.327 323.021 126.148 323.883 126.192C324.63 126.578 324.959 127.249 325.259 128.003L325.712 128.238L326.607 127.821C327.012 128.134 326.994 128.162 327.1 128.663C327.323 129.72 327.828 132.133 327.238 132.971C326.147 133.445 324.966 133.369 323.795 133.393C322.885 131.429 321.324 128.881 322.007 126.695Z"/><path fill="#85511B" transform="scale(2.13664 2.13664)" d="M322.007 126.695C322.768 126.327 323.021 126.148 323.883 126.192C324.63 126.578 324.959 127.249 325.259 128.003C324.999 128.052 325.117 128.012 324.846 128.151C324.571 128.293 324.296 128.432 324.019 128.569C323.055 128.38 322.624 127.448 322.007 126.695Z"/><path fill="#D79B65" transform="scale(2.13664 2.13664)" d="M360.572 267.547C360.742 267.539 360.912 267.537 361.082 267.534C368.206 267.44 373.973 269.859 379.013 274.801C380.509 280.245 381.565 285.795 383.174 291.228C381.182 294.545 378.444 297.518 376.295 300.77C372.781 306.084 370.44 311.768 367.933 317.585C359.21 319.504 350.372 321.022 341.598 322.697C336.925 323.591 332.246 324.458 327.563 325.295C326.678 322.519 325.546 319.63 325.129 316.742C324.536 312.642 326.162 308.223 328.634 304.972C332.838 299.442 338.387 298.833 344.887 299.071C346.585 299.132 348.55 299.382 350.218 299.088C350.778 298.99 350.876 298.952 351.191 298.513C351.068 295.683 349.585 292.708 348.987 289.904C347.839 284.524 347.962 278.597 351.057 273.858C353.273 270.465 356.654 268.389 360.572 267.547Z"/><path fill="#522E1B" transform="scale(2.13664 2.13664)" d="M340.318 309.017C341.023 308.92 341.688 308.797 342.338 309.185C342.914 309.529 343.207 310.092 343.338 310.729C343.708 312.524 343.182 315.363 342.06 316.834C341.581 317.461 340.968 317.459 340.253 317.591C339.773 317.519 339.296 317.434 338.82 317.338C338.024 317.171 337.544 316.852 337.119 316.138C336.603 315.27 336.55 314.285 336.798 313.323C337.33 311.254 338.578 310.102 340.318 309.017Z"/><path fill="#522E1B" transform="scale(2.13664 2.13664)" d="M364.365 281.781C365.126 281.731 365.852 281.585 366.539 281.988C366.924 283.019 365.752 284.501 365.741 285.759C366.194 286.686 366.878 286.89 367.626 287.575L367.612 288.132C367.176 288.834 366.653 289.229 366.001 289.725C365.214 289.804 364.215 289.912 363.467 289.599C362.476 289.185 361.746 288.12 361.424 287.127C361.022 285.888 361.156 284.537 361.794 283.402C362.385 282.367 363.274 282.081 364.365 281.781Z"/><path fill="#D79B65" transform="scale(2.13664 2.13664)" d="M146.984 106.663C151.751 105.478 156.746 104.879 161.588 104.022C166.681 103.12 171.823 101.93 176.961 101.366C176.669 102.975 178.749 106.866 179.329 108.59L179.673 108.854C177.545 109.084 175.399 109.144 173.261 109.239C175.297 113.496 176.493 117.722 176.553 122.468C176.611 127.037 175.473 131.545 172.172 134.869C167.207 139.867 161.081 139.096 154.643 139.237C153.859 139.254 153.082 139.149 152.529 139.731C151.984 142.585 155.508 147.225 156.508 150.017C157.815 153.667 157.409 157.418 155.752 160.89C154.193 164.154 151.487 166.797 148.028 167.962C144.707 169.08 141.018 168.61 137.917 167.055C136.619 166.404 135.616 165.654 134.851 164.395C132.392 160.341 130.07 145.944 128.082 140.085C138.394 129.68 143.469 120.655 146.984 106.663Z"/><path fill="#522E1B" transform="scale(2.13664 2.13664)" d="M161.247 120.268C161.946 120.243 162.77 120.157 163.457 120.305C164.184 120.463 164.921 121.105 165.275 121.748C165.722 122.558 165.709 123.477 165.392 124.332C164.818 125.876 163.826 126.328 162.4 126.945C161.731 127.046 160.885 127.191 160.222 126.994C159.473 126.772 158.872 126.237 158.535 125.537C158.13 124.696 158.185 123.749 158.5 122.887C159.024 121.453 159.931 120.917 161.247 120.268Z"/><path fill="#F2B258" transform="scale(2.13664 2.13664)" d="M405.154 283.739L405.517 283.724C406.104 284.338 417.468 326.736 419.331 332.401C415.308 332.668 411.037 333.765 407.046 334.459C398.979 335.832 390.922 337.26 382.875 338.743L370.508 341.034C370.529 334.036 371.984 326.436 374.306 319.859C379.99 303.763 389.496 291.189 405.154 283.739Z"/><path fill="#522E1B" transform="scale(2.13664 2.13664)" d="M394.29 307.218C398.665 306.886 402.473 310.183 402.769 314.561C403.066 318.938 399.738 322.719 395.359 322.98C391.029 323.238 387.3 319.957 387.007 315.629C386.714 311.302 389.965 307.547 394.29 307.218Z"/><path fill="#F2B258" transform="scale(2.13664 2.13664)" d="M395.433 312.324C396.025 312.364 396.492 312.405 396.985 312.77C397.531 313.174 397.91 313.972 397.996 314.632C398.119 315.582 397.784 316.616 397.142 317.324C396.419 318.123 395.687 318.34 394.639 318.355C394.38 318.256 394.129 318.144 393.881 318.019C392.976 317.563 391.773 316.715 391.547 315.646C391.405 314.973 391.515 314.472 391.876 313.89C392.567 312.771 394.262 312.555 395.433 312.324Z"/><path fill="#F2B258" transform="scale(2.13664 2.13664)" d="M154.574 328.483C162.404 328.794 169.936 329.642 177.289 332.595C181.368 334.232 185.141 336.489 188.713 339.036C200.592 347.509 204.32 356.672 209.71 369.415L202.847 370.808C190.474 372.885 177.433 374.34 165.433 377.992C164.694 372.502 163.355 367.157 162.222 361.744C159.861 350.614 157.311 339.526 154.574 328.483Z"/><path fill="#522E1B" transform="scale(2.13664 2.13664)" d="M175.248 346.552C176.549 346.469 177.859 346.43 179.104 346.872C181.039 347.558 182.58 348.887 183.441 350.76C184.407 352.86 184.471 355.555 183.582 357.692C182.633 359.975 180.995 361.025 178.831 361.954C177.3 362.069 175.944 362.004 174.51 361.392C172.669 360.597 171.219 359.103 170.481 357.238C169.652 355.122 169.633 352.478 170.592 350.4C171.565 348.291 173.163 347.317 175.248 346.552Z"/><path fill="#F2B258" transform="scale(2.13664 2.13664)" d="M176.667 351.355C178.099 351.089 179.475 352.035 179.737 353.468C180 354.9 179.048 356.273 177.615 356.531C176.188 356.788 174.823 355.842 174.561 354.416C174.3 352.99 175.242 351.621 176.667 351.355Z"/><path fill="#CA7E42" transform="scale(2.13664 2.13664)" d="M395.166 380.298L395.523 380.358C395.13 381.363 391.495 384.679 390.504 385.509C389.461 386.382 388.397 386.793 387.073 387.046C380.974 388.211 374.678 388.536 368.54 389.646L265.997 408.364C238.722 413.549 211.384 418.395 183.989 422.9C176.048 424.276 155.407 428.864 148.625 428.078C145.298 427.692 142.353 425.942 140.315 423.313C138.89 421.473 138.478 419.961 138.774 417.664C139.433 414.892 140.64 412.2 142.053 409.737C143.17 414.015 144.366 417.689 148.38 420.128C151.112 421.787 153.981 422.08 157.083 421.774C160.929 421.395 164.741 420.572 168.556 419.958L195.934 415.267L290.154 398.361C308.225 395.1 326.324 391.988 344.447 389.026C355.746 387.355 367.016 385.488 378.25 383.424C383.877 382.432 389.613 381.631 395.166 380.298Z"/><path fill="#F2B258" transform="scale(2.13664 2.13664)" d="M141.152 84.8452C141.647 84.7435 141.525 84.673 142.004 84.9885C142.045 85.847 142.018 86.6878 141.982 87.546C140.715 117.631 135.117 124.39 113.622 144.167C113.085 141.465 112.644 138.759 112.053 136.064C108.614 122.155 105.936 107.934 103.356 93.843C111.386 90.823 119.855 89.0528 128.24 87.3267C132.518 86.4461 136.829 85.4597 141.152 84.8452Z"/><path fill="#522E1B" transform="scale(2.13664 2.13664)" d="M121.582 105.076C122.954 105.141 124.245 105.147 125.457 105.89C126.693 106.648 127.476 107.858 127.79 109.26C128.244 111.291 127.93 113.747 126.735 115.481C125.593 117.139 124.273 117.641 122.371 117.974C121.314 117.847 120.369 117.672 119.451 117.101C117.787 116.066 116.71 114.302 116.366 112.391C116.059 110.685 116.329 108.857 117.356 107.431C118.429 105.94 119.829 105.367 121.582 105.076Z"/><path fill="#F2B258" transform="scale(2.13664 2.13664)" d="M121.232 109.372C121.857 109.206 122.523 109.389 122.975 109.851C123.426 110.313 123.594 110.983 123.413 111.604C123.232 112.224 122.731 112.699 122.102 112.847C121.149 113.069 120.194 112.487 119.956 111.538C119.719 110.588 120.287 109.624 121.232 109.372Z"/><path fill="#CA7E42" transform="scale(2.13664 2.13664)" d="M97.0919 95.4797L97.6174 95.626C98.7337 99.12 99.2436 103.039 99.9978 106.642C101.72 114.747 103.362 122.869 104.924 131.007C101.52 130.77 98.0089 130.464 94.7595 131.734C87.2695 134.662 82.9473 142.392 79.9021 149.327C79.2622 150.794 78.708 152.306 78.1262 153.798C75.7965 141.467 72.6707 128.11 76.5678 115.765C80.136 104.462 87.2617 100.565 97.0919 95.4797Z"/><path fill="#CA7E42" transform="scale(2.13664 2.13664)" d="M154.819 356.305C155.017 356.321 155.191 356.448 155.365 356.539C155.877 359.679 156.888 362.862 157.584 365.983C158.614 370.601 159.416 375.263 160.418 379.887C159.521 380.242 158.641 380.636 157.779 381.07C148.797 385.697 144.418 391.85 140.185 400.71C138.502 404.231 136.967 407.719 135.768 411.437C135.538 411.59 135.69 411.523 135.282 411.533C134.163 408.007 133.462 404.224 132.648 400.612C131.765 396.693 130.393 392.24 130.581 388.208C130.743 384.729 137.878 370.037 140.066 366.622C143.633 361.057 148.397 357.715 154.819 356.305Z"/><path fill="#CA7E42" transform="scale(2.13664 2.13664)" d="M105.095 134.816L105.756 134.766C106.527 135.807 109.58 152.809 110.108 155.376C107.13 155.674 104.287 156.688 101.639 158.057C90.6842 163.719 88.7736 172.635 85.2601 183.512L85.0693 183.627L84.7681 183.414C84.44 181.744 83.8531 180.14 83.4639 178.483C82.4874 174.325 81.6618 170.097 80.8281 165.907C80.6233 164.878 80.4381 163.964 80.5512 162.908C81.0751 158.018 85.4293 148.173 88.1726 144.117C92.7943 137.283 97.4151 136.324 105.095 134.816Z"/><path fill="#CA7E42" transform="scale(2.13664 2.13664)" d="M148.126 330.19C148.461 330.196 148.583 330.279 148.874 330.43C149.759 332.559 150.236 334.988 150.824 337.224C152.052 341.844 153.197 346.486 154.257 351.147C152.182 351.608 150.178 352.145 148.216 352.976C140.531 356.234 136.66 362.228 133.022 369.376C131.674 372.023 130.339 374.657 129.226 377.414L128.315 379.942C127.667 375.512 124.367 365.176 124.88 361.556C125.146 359.683 129.108 350.542 130.143 348.166C134.051 339.194 138.98 333.802 148.126 330.19Z"/><defs><linearGradient id="gradient_0" gradientUnits="userSpaceOnUse" x1="411.01288" y1="362.17664" x2="412.72089" y2="340.2952"><stop offset="0" stop-color="#B86C34"/><stop offset="1" stop-color="#CC8749"/></linearGradient></defs><path fill="url(#gradient_0)" transform="scale(2.13664 2.13664)" d="M422.62 340.351L422.883 340.38C423.065 342.315 410.775 360.846 408.669 363.472C408.334 362.19 407.938 360.95 407.507 359.699C405.977 354.672 404.239 349.55 402.444 344.609C406.367 343.49 410.289 342.686 414.305 341.978C417.053 341.493 419.947 341.155 422.62 340.351Z"/><path fill="#CA7E42" transform="scale(2.13664 2.13664)" d="M398.513 356.461C398.659 356.624 398.709 356.669 398.839 356.878C400.676 359.842 403.333 368.047 402.529 371.448C401.909 371.208 401.687 371.039 401.348 370.457C399.54 367.355 397.508 359.858 398.513 356.461Z"/><path fill="#FE8C8D" transform="scale(2.13664 2.13664)" d="M66.8456 334.829C66.9308 334.839 67.017 334.844 67.1012 334.86C67.9769 335.031 68.3748 335.429 68.8269 336.142C69.0377 337.002 68.7314 337.615 68.4215 338.403L68.2797 338.76C68.5587 340.337 70.2307 340.541 71.3891 341.463C71.6618 342.115 71.6395 342.212 71.5155 342.915C70.5957 343.389 69.2829 343.075 68.3015 342.907L67.9598 343.222C66.4723 342.396 67.5185 341.768 66.6851 340.785C66.459 341.082 66.3331 341.351 66.207 341.699L66.0586 342.116L65.7246 341.897C65.6785 341.4 65.6964 341.189 65.889 340.718C66.3555 339.575 66.9182 337.827 66.5503 336.602C66.3861 336.055 66.4219 336.32 66.367 335.738C66.3194 335.233 66.5294 335.191 66.8456 334.829Z"/><path fill="#FE8C8D" transform="scale(2.13664 2.13664)" d="M75.3018 237.868C75.4853 238.034 75.6098 238.128 75.7476 238.354C76.8691 240.189 75.5884 247.256 75.5391 249.703C75.4975 251.771 77.2326 254.875 76.5763 256.71C75.9116 256.819 75.539 256.673 74.9343 256.436L74.7093 256.345C74.095 256.815 73.4561 258.891 73.1222 259.675C73.0647 259.989 72.8587 260.3 72.7157 260.585L72.4338 260.548C72.9467 258.072 74.6067 255.102 75.5846 252.709C74.9097 248.016 76.4267 241.299 75.3018 237.868Z"/><path fill="#FE8C8D" transform="scale(2.13664 2.13664)" d="M43.9313 283.695C45.2633 283.921 46.8422 285.492 48.1152 286.139C49.0572 286.617 50.1201 286.916 51.1265 287.232L51.26 287.494C50.1966 287.701 48.9926 286.675 47.8197 286.58L47.686 287.03C45.0583 287.807 44.6635 286.529 42.6911 285.562C41.7852 285.118 40.7709 284.795 39.8247 284.44C40.3583 284.267 41.2541 284.556 41.8317 284.636C42.8541 284.778 43.1774 284.286 43.9313 283.695Z"/><path fill="#FE8C8D" transform="scale(2.13664 2.13664)" d="M80.0437 330.917L80.7469 331.054C81.4222 331.682 81.2304 331.83 81.5547 332.56C81.8453 333.213 83.5166 332.847 84.2465 333.129L84.1989 333.691C83.251 334.852 81.6887 335.284 80.2586 335.535C79.8036 334.93 79.709 334.65 79.7593 333.921C80.185 333.605 80.5513 333.297 80.9166 332.913C80.9031 332.302 81.029 332.269 80.5768 331.808L80.0325 331.936C79.6453 332.3 79.4589 332.463 79.3122 332.991C79.1667 333.515 79.3354 333.25 78.9913 333.623L78.6545 333.374L78.6187 332.892C78.9383 332.088 79.4681 331.552 80.0437 330.917Z"/><path fill="#FE8C8D" transform="scale(2.13664 2.13664)" d="M46.255 222.138C46.6383 222.228 47.0629 222.371 47.4114 222.552C47.9064 222.808 48.7236 223.215 48.7518 223.851C48.7742 224.357 48.5226 224.584 48.2433 224.955C47.7747 225.043 47.617 225.102 47.2488 225.436C47.1502 225.525 47.0599 225.624 46.9654 225.718L47.0165 226.044L46.0283 225.846C45.8054 225.513 45.6264 225.225 45.5444 224.824C45.3276 223.761 45.699 223.011 46.255 222.138Z"/><path fill="#FE8C8D" transform="scale(2.13664 2.13664)" d="M287.859 446.346C288.269 446.451 288.663 446.606 289.061 446.749C289.79 447.698 290.359 448.635 290.791 449.752L290.355 450.621C290.002 450.723 289.721 450.921 289.375 450.729C288.58 450.285 288.123 449.246 287.839 448.424C287.547 447.58 287.467 447.159 287.859 446.346Z"/><path fill="#FE8C8D" transform="scale(2.13664 2.13664)" d="M48.9522 225.262C49.8423 225.532 50.9622 225.854 51.588 226.562C51.8498 227.297 51.5227 227.942 51.2899 228.645C50.4198 228.485 49.5861 228.118 48.8982 227.567C48.4489 226.528 48.6244 226.293 48.9522 225.262Z"/><path fill="#FE8C8D" transform="scale(2.13664 2.13664)" d="M51.423 214.355C51.9125 214.344 52.5358 214.299 52.9678 214.583C53.5179 214.945 53.5682 215.263 53.7135 215.851C53.4069 216.69 53.3086 216.711 52.6045 217.19C52.2305 217.161 51.7742 217.148 51.4211 217.006C50.8284 216.766 50.6622 216.44 50.4401 215.881C50.6338 215.077 50.8571 214.932 51.423 214.355Z"/><path fill="#FE8C8D" transform="scale(2.13664 2.13664)" d="M419.49 184.479C419.88 184.561 420.273 184.772 420.575 185.039C421.05 185.457 421.114 185.701 421.104 186.31C420.518 186.954 420.162 186.839 419.317 186.934C419.236 186.939 419.155 186.952 419.074 186.949C418.386 186.929 418.019 186.871 417.516 186.419L417.605 185.811C418.111 185.027 418.647 184.833 419.49 184.479Z"/><path fill="#FE8C8D" transform="scale(2.13664 2.13664)" d="M52.5349 293.774C53.208 294.448 53.9753 295.071 54.3201 295.977C54.1693 296.593 54.1834 296.69 53.7107 297.098C53.6191 297.077 53.5281 297.053 53.436 297.034C53.0647 296.958 52.6367 296.929 52.2921 296.763C51.6798 296.468 51.4843 296.061 51.2898 295.455C51.5707 294.545 51.8416 294.395 52.5349 293.774Z"/><path fill="#FE8C8D" transform="scale(2.13664 2.13664)" d="M55.0393 254.332C55.7229 254.306 56.2132 254.303 56.8271 254.645C57.1238 254.809 57.2885 254.96 57.6486 254.98C58.1899 255.011 58.4234 254.925 58.9634 255.136C58.6147 255.199 58.3114 255.236 57.9996 255.417C57.9418 255.45 57.889 255.492 57.8338 255.53C57.3807 256.346 57.3112 256.644 56.4704 257.096C55.735 257.082 55.7244 257.046 55.1517 256.575C54.7872 255.649 54.905 255.299 55.0393 254.332Z"/><path fill="#FE8C8D" transform="scale(2.13664 2.13664)" d="M79.0953 270.111C80.2225 270.365 80.9797 270.562 81.6658 271.521C81.6756 272.386 81.5389 272.586 81.144 273.328C80.2757 272.916 79.401 272.601 78.7809 271.839C78.6032 270.969 78.7246 270.883 79.0953 270.111Z"/><path fill="#FE8C8D" transform="scale(2.13664 2.13664)" d="M440.426 177.153C441.216 177.401 441.715 177.634 442.257 178.28C442.876 179.019 443.061 179.633 442.991 180.561C442.589 180.547 442.146 180.549 441.76 180.419C441.118 180.203 440.595 179.729 440.317 179.112C440 178.414 440.184 177.833 440.426 177.153Z"/><path fill="#FE8C8D" transform="scale(2.13664 2.13664)" d="M74.5406 335.26C75.5955 335.215 76.3615 335.154 77.1793 335.896C77.0346 336.701 76.7652 336.802 76.1783 337.345C75.5261 337.3 74.5909 337.234 74.0407 336.832C73.599 336.509 73.5983 336.359 73.5739 335.866L74.5406 335.26Z"/><path fill="#FE8C8D" transform="scale(2.13664 2.13664)" d="M77.7249 330.208C77.8869 330.435 78.1432 330.742 78.2558 331.006C78.5437 331.681 78.4659 331.814 78.2251 332.468C77.6891 332.955 77.2736 333.081 76.5961 333.255C76.1991 332.933 75.883 332.609 75.5524 332.219L75.789 331.467C76.4086 330.938 77.002 330.58 77.7249 330.208Z"/><path fill="#FE8C8D" transform="scale(2.13664 2.13664)" d="M76.0567 299.481C76.9881 299.338 77.7228 299.479 78.4972 300.024C78.84 300.757 78.6864 300.996 78.529 301.772C77.6024 301.788 76.8425 301.683 76.0588 301.177C75.7218 300.394 75.8426 300.277 76.0567 299.481Z"/><path fill="#FE8C8D" transform="scale(2.13664 2.13664)" d="M56.9139 230.957L56.9563 231.006C57.6946 231.228 58.1316 231.412 58.6363 232.019C58.5706 232.774 58.1481 233.161 57.6748 233.705C57.4401 233.692 57.3419 233.697 57.0952 233.626C56.5251 233.464 56.2446 233.226 55.9651 232.727C56.0907 231.823 56.3415 231.644 56.9139 230.957Z"/><path fill="#FE8C8D" transform="scale(2.13664 2.13664)" d="M75.4007 290.106C75.8877 290.303 76.4832 290.49 76.8795 290.841C77.269 291.186 77.2514 291.341 77.3004 291.826L76.8605 292.161C76.0116 292.282 75.3779 292.199 74.54 292.033L74.3245 291.832C73.9999 291.907 73.7181 291.986 73.4092 292.116C73.3191 292.154 73.2305 292.196 73.1412 292.235L73.0614 292.004C73.6306 291.452 73.7136 291.43 74.4969 291.285C74.8588 290.92 75.1155 290.531 75.4007 290.106Z"/><path fill="#FE8C8D" transform="scale(2.13664 2.13664)" d="M54.4275 210.245C53.9655 209.759 53.6988 209.463 53.4642 208.817C53.5286 208.317 53.5262 207.957 53.8447 207.545C54.0924 207.224 54.3091 207.315 54.6818 207.283C55.3915 207.861 55.4124 208.381 55.6812 209.242C55.2702 209.653 54.9364 209.949 54.4275 210.245Z"/><path fill="#FE8C8D" transform="scale(2.13664 2.13664)" d="M436.153 178.081C436.79 178.155 437.385 178.152 437.835 178.703C438.295 179.268 438.337 179.892 438.381 180.582C437.463 180.593 436.833 180.54 436.112 179.974C435.849 179.265 435.992 178.787 436.153 178.081Z"/><path fill="#FE8C8D" transform="scale(2.13664 2.13664)" d="M430.865 236.096C430.937 236.136 431.016 236.165 431.081 236.216C431.644 236.662 431.688 236.964 431.877 237.628C431.701 238.408 431.649 238.517 431.095 239.092C430.377 238.656 429.985 238.425 429.646 237.63C429.936 236.8 430.209 236.654 430.865 236.096Z"/><path fill="#FE8C8D" transform="scale(2.13664 2.13664)" d="M39.6224 316.695C39.9072 316.762 40.2267 316.925 40.4996 317.036C40.9303 317.566 41.0132 317.678 41.1265 318.346C40.8153 318.76 40.8147 318.772 40.3139 318.898L39.615 318.98C39.0299 318.745 38.9301 318.831 38.6154 318.25C38.7934 317.405 39.0228 317.287 39.6224 316.695Z"/><path fill="#FE8C8D" transform="scale(2.13664 2.13664)" d="M71.2289 367.596C71.9055 367.832 72.1302 368.217 72.5187 368.777C72.6415 369.665 72.6507 369.679 72.1903 370.445C71.5568 370.297 71.2054 370.226 70.7014 369.785C70.5752 368.898 70.8986 368.417 71.2289 367.596Z"/><path fill="#FE8C8D" transform="scale(2.13664 2.13664)" d="M55.6812 209.242C56.1091 209.789 56.6059 210.265 56.6294 210.992C56.2602 211.51 56.2485 211.485 55.6261 211.636C55.1317 211.474 54.6834 211.458 54.4951 210.899C54.4416 210.739 54.4359 210.418 54.4275 210.245C54.9364 209.949 55.2702 209.653 55.6812 209.242Z"/><path fill="#FE8C8D" transform="scale(2.13664 2.13664)" d="M434.087 184.576C434.643 184.836 434.883 185.011 435.241 185.513C435.357 186.304 435.215 186.699 434.896 187.423C434.315 187.328 434.056 187.268 433.623 186.86C433.371 186.044 433.789 185.33 434.087 184.576Z"/><path fill="#FE8C8D" transform="scale(2.13664 2.13664)" d="M46.58 219.617C47.3025 219.733 47.8031 219.82 48.423 220.249C48.6711 221.055 48.5332 221.114 48.1942 221.851C47.4282 221.769 47.1361 221.675 46.5193 221.214C46.2686 220.455 46.3295 220.387 46.58 219.617Z"/><path fill="#FE8C8D" transform="scale(2.13664 2.13664)" d="M56.5114 351.26C56.8526 351.473 57.0606 351.707 57.3338 351.998C57.3068 352.787 57.1031 352.883 56.6125 353.475C55.9329 353.219 55.7346 353.232 55.3338 352.603C55.6451 351.845 55.8714 351.74 56.5114 351.26Z"/><path fill="#FE8C8D" transform="scale(2.13664 2.13664)" d="M90.2284 358.447C90.7692 358.489 91.1224 358.604 91.6149 358.83C91.9658 359.451 91.8928 359.567 91.8074 360.288C91.1641 360.237 90.7262 360.156 90.1178 359.908C89.865 359.276 90.032 359.083 90.2284 358.447Z"/><path fill="#FE8C8D" transform="scale(2.13664 2.13664)" d="M59.9542 353.662C60.2674 353.517 60.6353 353.559 60.9079 353.771C61.1805 353.983 61.312 354.329 61.2489 354.668C61.1858 355.007 60.9385 355.283 60.608 355.383C60.1443 355.522 59.6516 355.28 59.4796 354.827C59.3076 354.374 59.5148 353.866 59.9542 353.662Z"/><path fill="#FE8C8D" transform="scale(2.13664 2.13664)" d="M63.1289 311.185C63.5686 311.138 63.9666 311.448 64.0296 311.886C64.0926 312.323 63.7981 312.732 63.363 312.812C63.0668 312.866 62.7648 312.753 62.5758 312.519C62.3867 312.285 62.3408 311.966 62.4561 311.688C62.5714 311.41 62.8295 311.217 63.1289 311.185Z"/></svg>