<?xml version="1.0" encoding="utf-8" ?><svg xmlns="http://www.w3.org/2000/svg" xmlns:xlink="http://www.w3.org/1999/xlink" width="1041" height="1026" viewBox="0 0 1041 1026"><path fill="#563113" transform="scale(2.13664 2.13664)" d="M240.113 4.34176C243.292 3.9505 247.046 4.95864 250.275 5.12435C254.516 5.34195 259.371 4.83232 263.496 5.65565C264.257 5.80769 265.174 6.58354 265.814 7.02041C267.997 7.14823 270.191 7.00669 272.372 7.23458C285.173 8.5722 300.999 11.9484 313.24 15.8526C318.591 17.5592 323.764 19.6123 329.002 21.6229C335.01 23.9286 341.112 26.3152 346.868 29.1997C351.87 31.7061 356.604 34.9103 361.487 37.6542C366.991 40.7467 372.352 44.0209 377.701 47.3707C380.767 49.2907 383.937 51.1531 386.858 53.2899C389.675 55.3511 392.102 58.0178 394.78 60.2788C399.649 64.3891 404.816 68.2626 409.539 72.5269C411.923 74.679 416.217 78.5439 418.087 80.9896C418.671 81.753 418.898 82.7416 419.453 83.5353C421.296 86.1678 423.65 88.6307 425.684 91.1427C429.057 95.3095 432.755 99.226 435.858 103.602C438.099 106.763 439.99 110.274 442.032 113.576C444.901 118.215 447.41 122.908 450.05 127.674C452.04 131.267 454.209 134.818 455.944 138.542C459.757 146.722 462.552 155.168 465.204 163.769C466.188 166.961 467.341 170.106 468.24 173.324C472.694 189.257 475.79 206.512 476.656 223.058C476.923 228.162 476.844 233.323 476.841 238.433C476.838 243.955 476.952 249.548 476.652 255.059C475.376 274.998 471.606 294.698 465.428 313.698C462.503 322.925 459.131 332.166 454.883 340.88C453.811 343.079 452.47 345.149 451.27 347.279C448.235 352.665 445.223 358.019 441.997 363.296C439.339 367.646 436.989 372.345 434.075 376.503C431.986 379.484 429.248 381.64 426.988 384.416C424.231 387.804 421.39 391.268 418.765 394.753C417.5 396.433 416.478 398.338 415.116 399.938C411.701 403.948 407.551 407.328 403.598 410.771C401.76 412.372 400.069 414.138 398.233 415.741C396.665 417.111 394.911 418.334 393.427 419.789C392.36 420.835 391.443 422.05 390.437 423.156C386.612 427.365 380.836 430.265 376.227 433.552C369.809 438.128 363.155 442.045 356.427 446.14C354.606 447.248 352.983 448.696 351.105 449.698C343.473 453.77 335.426 457.048 327.351 460.118C322.373 462.011 317.446 463.907 312.313 465.347C306.832 466.885 301.237 467.959 295.673 469.141C286.798 471.026 277.894 472.61 268.821 473.033C268.278 473.509 267.767 474.053 267.248 474.558C265.531 474.714 263.802 474.695 262.082 474.86C259.611 475.097 257.143 475.541 254.666 475.675C251.361 475.854 247.999 475.742 244.687 475.727C241.375 475.734 226.574 476.288 224.61 475.357C222.19 474.21 217.584 474.702 214.888 474.663C214.274 474.1 213.629 473.572 212.991 473.036C189.249 471.018 158.007 461.487 136.965 450.22C134.82 449.072 132.9 447.529 130.822 446.268L112.583 435.318C107.011 431.964 101.527 428.358 96.5726 424.125C95.174 422.93 94.1416 421.367 92.7455 420.166C85.7013 414.103 78.404 408.026 72.157 401.119C70.4233 399.202 69.0297 397.024 67.4663 394.975C65.8654 392.876 64.031 390.866 62.3291 388.84C59.9306 385.985 57.1068 383.551 54.8645 380.559C48.3365 371.849 43.1298 362.03 37.5695 352.688C36.2412 350.457 34.3246 348.549 33.1129 346.269C32.2291 344.605 31.5857 342.79 30.7889 341.081C28.17 335.463 25.5967 329.743 23.452 323.925C21.2756 318.021 19.5801 311.821 17.9038 305.757C16.8915 302.095 15.7518 298.393 14.9721 294.676C13.8235 289.201 13.177 283.599 11.9323 278.148C11.4685 276.117 10.598 274.201 10.1044 272.171C8.61331 266.037 8.41483 256.961 8.15319 250.544C8.01161 247.071 7.46362 243.628 7.37072 240.157C7.25852 235.966 7.76506 231.891 8.00943 227.722C8.20468 224.392 8.10159 221.033 8.42096 217.711C8.82766 213.48 9.3073 208.965 10.3537 204.842C10.8078 203.053 11.7029 201.369 12.0686 199.566C13.0147 194.903 13.7047 190.201 14.7255 185.541C18.4235 167.933 24.0734 150.793 31.5707 134.437C33.0963 131.167 35.2291 128.384 37.0826 125.312C40.8045 119.142 44.3871 112.868 48.1514 106.729C50.6198 102.703 53.497 98.4836 56.6206 94.9417C58.4434 92.8748 60.5729 91.1089 62.3487 88.9884C64.4088 86.5284 66.2302 83.8417 68.3877 81.4685C72.6591 76.7703 77.5229 71.8994 82.2375 67.655C85.5286 64.6921 89.0364 61.9283 92.358 59.003C93.107 58.3433 93.4324 57.4419 94.093 56.7296C95.8493 54.8358 98.2951 53.1583 100.333 51.5589C105.286 47.672 110.874 44.3968 116.201 41.0479C119.732 38.8279 123.432 36.8671 126.944 34.6478C128.802 33.4739 130.421 31.8186 132.344 30.7699C134.286 29.7106 136.43 28.8784 138.437 27.9334C151.894 21.5941 168.407 15.5897 182.89 12.4086C190.192 10.8047 197.605 9.21394 205.007 8.18863C208.96 7.64115 212.983 7.51932 216.912 6.94196C218.755 6.67107 220.375 5.60486 222.234 5.38496C227.193 4.79829 232.849 6.02933 237.659 4.77511C238.49 4.55833 239.26 4.4433 240.113 4.34176Z"/><path fill="#95E470" transform="scale(2.13664 2.13664)" d="M221.862 10.1997C226.456 10.1572 231.362 10.5761 235.907 9.9817C237.267 9.80377 238.446 8.10307 239.768 8.18481C239.906 8.3436 240.256 8.85483 240.418 8.93109C241.519 9.44909 248.43 9.92567 250.042 10.0439C253.493 10.2968 256.979 10.0117 260.428 10.2737C269.092 10.9321 277.659 12.1626 286.225 13.5847C291.524 14.7321 296.963 15.7931 302.178 17.2722C309.76 19.4229 317.292 22.2774 324.612 25.1927C328.765 26.8466 333.001 28.4221 337.077 30.2525C359.129 40.1563 383.484 55.3085 401.438 71.5314C404.146 73.9782 406.679 76.6854 409.261 79.2679C411.447 81.4545 413.762 83.5622 415.832 85.8568C419.362 89.7678 422.515 94.1409 425.618 98.3887C430.315 104.819 434.895 111.278 439.207 117.976C441.513 121.557 443.538 125.286 445.62 128.998C446.652 130.837 447.824 132.641 448.754 134.529C449.642 136.332 450.29 138.244 451.097 140.082C453.437 145.412 455.52 150.69 457.523 156.156C464.584 175.423 468.714 191.619 471.42 211.98C471.917 215.716 472.617 219.497 472.893 223.25C473.221 227.73 473.039 232.323 473.039 236.815C473.039 242.046 473.207 247.35 472.952 252.572C472.813 255.43 472.305 258.249 471.988 261.088C471.129 268.79 470.256 276.218 468.606 283.808C460.522 322.32 443.224 358.299 418.192 388.663C416.153 391.091 414.149 393.624 411.972 395.925C406.044 402.189 399.645 407.893 394.076 414.507C393.654 414.582 393.014 414.606 392.632 414.763C391.965 415.039 383.982 421.894 382.678 422.905C377.077 427.246 371.434 431.445 365.486 435.302C361.375 438.345 358.25 439.85 353.869 442.271C349.887 444.471 345.758 446.809 341.555 448.563C337.733 450.725 333.931 452.161 329.901 453.844C310.666 461.876 291.204 467.004 270.386 468.931C266.163 469.322 262.262 469.834 257.987 469.781L255.862 472.02C251.951 472.051 248.327 471.104 244.459 470.942C239.189 470.721 233.893 471.094 228.627 470.766C216.799 470.029 202.367 467.641 190.853 464.902C186.076 463.718 181.331 462.412 176.622 460.984C172.385 459.674 167.763 457.403 163.338 457.214L161.533 455.394C160.49 455.279 159.422 455.253 158.373 455.187C158.328 455.147 158.284 455.104 158.237 455.065C158.16 454.999 158.08 454.936 158.002 454.87C155.754 452.964 151.919 451.751 149.22 450.481C144.571 448.293 139.878 446.033 135.312 443.673C126.579 439.16 115.582 432.104 107.654 426.258C104.964 424.327 102.207 422.423 99.6374 420.335C97.7746 418.822 96.0324 416.971 93.9698 415.741C90.44 413.345 87.3962 409.416 84.3706 406.374C81.4692 403.457 78.4332 400.66 75.5911 397.686C74.0309 396.054 72.6768 394.257 71.184 392.568C67.9337 388.889 64.6702 385.221 61.7006 381.306C56.9318 375.018 52.9463 368.047 47.9583 361.959C47.0685 360.873 46.1622 360.169 46.3282 358.694C46.3423 358.568 46.3964 358.443 46.3772 358.317C46.3031 357.833 44.9713 356.372 44.617 355.831C42.8882 353.194 40.5345 349.603 39.233 346.814C37.1769 342.408 35.0043 338.047 33.0059 333.616C32.2313 331.898 31.6739 330.02 30.8456 328.345C30.3663 327.375 29.2568 326.616 28.8769 325.651C28.5255 324.758 28.6763 323.488 28.379 322.499C27.1452 318.392 25.4152 314.44 24.03 310.388C23.3053 308.268 22.9193 306.012 22.1183 303.919C21.9312 303.43 21.6358 302.99 21.3217 302.575C21.4479 300.921 21.1198 300.002 20.6984 298.449C19.6865 294.718 18.557 290.937 17.7431 287.161C14.9692 274.291 13.6977 261.324 12.8599 248.218C12.6511 244.952 12.068 241.719 12.0536 238.439C12.0392 235.178 12.6774 231.951 12.8684 228.702C14.4436 198.997 21.4541 169.833 33.5518 142.658C34.4342 140.666 34.5295 138.413 35.4536 136.443C36.5074 134.197 38.5868 132.412 39.8213 130.224C40.9839 128.162 41.4731 125.575 42.7302 123.621C43.4667 122.475 44.8297 121.827 45.5171 120.629C45.4234 120.302 45.208 119.721 45.264 119.368C45.3938 118.55 47.9567 115.709 48.5827 114.83C49.79 113.136 50.5336 111.202 51.7697 109.538C53.3012 107.478 65.915 92.1834 66.0819 90.9551C66.144 90.4981 66.14 90.0186 66.3882 89.6113C67.4654 87.8435 71.2016 85.5308 72.8464 83.967C79.5908 77.5549 85.8265 70.5544 92.6362 64.2329C95.6881 61.3997 99.2285 59.069 102.385 56.3474C103.56 55.3346 106.586 51.9676 108.033 51.7672C109.607 51.5491 110.362 50.6261 111.6 49.6941C117.656 45.1387 124.344 41.0649 130.958 37.3651C133.194 36.1144 135.584 35.1272 137.884 34.0004C144.848 30.5897 151.842 27.4066 159.079 24.6008C172.121 19.5443 186.258 15.5694 200.041 13.2222C204.333 12.528 208.639 11.9232 212.956 11.4081C215.04 11.1451 217.341 11.087 219.356 10.5156C220.223 10.2697 220.965 10.2213 221.862 10.1997Z"/><path fill="#76C73F" transform="scale(2.13664 2.13664)" d="M362.455 419.001C364.592 419.841 366.952 420.684 368.923 421.86C368.562 423.102 368.419 424.034 368.573 425.328L368.618 425.682C367.049 426.675 366.067 427.674 365.222 429.34C364.434 430.896 363.566 433.103 364.132 434.829C364.716 435.353 364.697 435.318 365.486 435.302C361.375 438.345 358.25 439.85 353.869 442.271C349.887 444.471 345.758 446.809 341.555 448.563C340.682 445.712 341.971 438.392 342.871 435.441C343.495 433.399 344.368 431.32 345.768 429.682C347.341 427.842 353.868 423.346 356.226 422.061C358.244 420.96 360.412 420.088 362.455 419.001Z"/><path fill="#563113" transform="scale(2.13664 2.13664)" d="M229.865 49.7799C236.791 49.5748 243.75 49.3834 250.672 49.83C253.537 50.0098 262.974 50.3681 265.409 51.4444C276.355 52.9262 290.515 56.3468 300.784 60.4066C301.642 60.6838 302.598 60.8939 303.356 61.3843C307.514 62.6654 311.541 64.4328 315.503 66.2188C326.34 71.1041 335.417 76.515 345.228 83.1496C348.033 82.0921 349.899 80.05 352.385 78.502C355.822 80.4237 359.325 82.7813 362.973 84.2433C360.928 87.0483 359.174 89.693 359.723 93.3712C359.736 93.4618 359.754 93.5518 359.767 93.6426C359.813 93.9661 359.747 94.1953 359.634 94.4952C374.797 107.215 387.78 122.326 398.07 139.231C400.758 143.571 403.67 148.228 405.6 152.962C408.455 157.555 412 166.741 413.634 171.935C419.222 187.391 423.33 204.945 424.38 221.401C424.768 225.849 425.052 230.306 425.235 234.768C425.262 239.016 425.362 243.281 424.983 247.517C425.007 249.211 425.137 252.23 424.55 253.798C424.344 261.253 423.17 268.779 421.653 276.073C420.232 283.384 418.335 292.763 415.367 299.55C409.899 317.655 398.745 338.523 387.37 353.646C386.896 354.349 386.461 354.97 385.838 355.548C383.628 360.261 368.141 376.034 363.294 380.487C360.186 383.574 356.606 386.714 353.036 389.243C349.979 391.863 346.88 394.452 343.546 396.716C339.193 400.057 334.436 402.879 329.714 405.66C295.919 425.392 256.589 433.503 217.745 428.752C216.72 428.617 215.708 428.47 214.699 428.233C214.59 428.233 214.481 428.238 214.371 428.233C209.862 427.999 205.095 426.749 200.68 425.805C172.319 419.888 145.788 407.262 123.308 388.985C119.155 385.619 114.491 382.042 110.958 378.011C105.871 374.182 100.071 367.129 96.0844 362.079C93.2376 359.812 86.0765 348.868 83.7174 345.507C81.6569 342.427 79.7139 339.271 77.8924 336.044C76.7602 334.045 75.7545 331.813 74.404 329.97C73.0912 326.875 71.4031 323.894 69.9533 320.857C68.1854 317.152 66.6567 313.337 65.108 309.538C62.8195 303.532 60.8297 297.417 59.1458 291.214C58.837 290.429 58.5636 289.634 58.2893 288.837L58.2922 288.544C55.3425 279.628 52.7173 264.745 52.4289 255.275C51.9069 254.029 51.9855 251.912 51.997 250.543C50.9726 244.799 51.547 235.061 51.7895 228.944C51.6258 225.66 52.1792 220.677 52.7227 217.416C52.6462 213.275 53.7977 208.672 54.4792 204.56C58.6724 179.075 68.1664 154.752 82.3475 133.165C85.5915 128.143 88.869 122.995 92.8649 118.529C93.3223 117.715 94.0719 117 94.686 116.294L95.2895 115.712C97.2415 113.246 99.3428 110.943 101.472 108.63C106.159 103.491 111.303 98.033 116.894 93.8706C118.319 91.8757 121.495 89.8702 123.536 88.4426C130.062 82.6964 139.301 77.0821 146.938 72.833C151.011 70.1151 157.555 67.1542 162.172 65.3767C171.397 61.2303 181.431 57.6563 191.304 55.4371C192.627 54.765 194.75 54.5436 196.233 54.2303C207.323 51.9471 218.562 50.4599 229.865 49.7799Z"/><path fill="#76C73F" transform="scale(2.13664 2.13664)" d="M352.385 78.502C355.822 80.4237 359.325 82.7813 362.973 84.2433C360.928 87.0483 359.174 89.693 359.723 93.3712C359.736 93.4618 359.754 93.5518 359.767 93.6426C359.813 93.9661 359.747 94.1953 359.634 94.4952C355.042 90.4349 350.15 86.7929 345.228 83.1496C348.033 82.0921 349.899 80.05 352.385 78.502Z"/><path fill="#30190B" transform="scale(2.13664 2.13664)" d="M303.356 61.3843C307.514 62.6654 311.541 64.4328 315.503 66.2188C326.34 71.1041 335.417 76.515 345.228 83.1496C350.15 86.7929 355.042 90.4349 359.634 94.4952C374.797 107.215 387.78 122.326 398.07 139.231C400.758 143.571 403.67 148.228 405.6 152.962C405.281 152.787 405.18 152.663 404.978 152.35C401.116 146.375 397.885 140.031 393.958 134.074C382.712 117.276 368.884 102.36 352.983 89.8776C342.621 81.6877 331.653 74.8663 319.862 68.9472C315.528 66.7714 310.991 64.9624 306.542 63.0357C305.842 62.7327 304.33 62.3942 303.766 61.9644C303.577 61.821 303.492 61.5777 303.356 61.3843Z"/><path fill="#30190B" transform="scale(2.13664 2.13664)" d="M110.958 378.011C111.661 377.925 112.264 378.442 112.806 378.877C114.699 380.399 116.336 382.234 118.16 383.833C121.008 386.331 124.069 388.648 127.057 390.981C143.4 403.723 161.831 413.533 181.529 419.974C191.329 423.209 201.16 425.185 211.263 427.162C211.835 427.274 214.605 427.645 214.699 428.233C214.59 428.233 214.481 428.238 214.371 428.233C209.862 427.999 205.095 426.749 200.68 425.805C172.319 419.888 145.788 407.262 123.308 388.985C119.155 385.619 114.491 382.042 110.958 378.011Z"/><path fill="#30190B" transform="scale(2.13664 2.13664)" d="M52.7227 217.416C52.6462 213.275 53.7977 208.672 54.4792 204.56C58.6724 179.075 68.1664 154.752 82.3475 133.165C85.5915 128.143 88.869 122.995 92.8649 118.529C91.9467 121.715 86.3181 128.225 84.2087 131.457C81.6212 135.422 79.2046 139.579 76.8162 143.669C64.4864 164.783 57.8141 188.177 53.7512 212.132C53.3446 214.53 53.3282 216.953 52.9323 219.361C52.8072 218.718 52.7721 218.068 52.7227 217.416Z"/><path fill="#30190B" transform="scale(2.13664 2.13664)" d="M59.1458 291.214L59.6066 291.198C61.1296 294.127 62.0747 299.012 63.2848 302.391C66.148 310.601 69.5524 318.613 73.4757 326.373C77.6995 334.762 82.4754 342.427 87.8935 350.08C90.6223 353.935 93.9803 357.732 96.2977 361.822L96.0844 362.079C93.2376 359.812 86.0765 348.868 83.7174 345.507C81.6569 342.427 79.7139 339.271 77.8924 336.044C76.7602 334.045 75.7545 331.813 74.404 329.97C73.0912 326.875 71.4031 323.894 69.9533 320.857C68.1854 317.152 66.6567 313.337 65.108 309.538C62.8195 303.532 60.8297 297.417 59.1458 291.214Z"/><path fill="#30190B" transform="scale(2.13664 2.13664)" d="M387.37 353.646C387.342 351.835 395.26 341.23 396.852 338.679C399.34 334.692 401.341 330.496 403.412 326.286C406.114 320.795 408.774 315.287 411.072 309.611C412.387 306.361 413.432 302.991 414.793 299.766L415.367 299.55C409.899 317.655 398.745 338.523 387.37 353.646Z"/><path fill="#30190B" transform="scale(2.13664 2.13664)" d="M424.38 221.401L424.112 222.353L423.845 222.063C423.16 218.961 423.17 215.739 422.725 212.594C421.823 206.224 420.593 199.736 419.186 193.457C418.076 188.503 416.6 183.54 415.193 178.659C414.674 176.858 413.77 174.814 413.506 172.996C413.451 172.618 413.542 172.297 413.634 171.935C419.222 187.391 423.33 204.945 424.38 221.401Z"/><path fill="#30190B" transform="scale(2.13664 2.13664)" d="M265.409 51.4444C276.355 52.9262 290.515 56.3468 300.784 60.4066C300.406 60.4963 300.025 60.6057 299.633 60.5791C298.085 60.4743 295.993 59.5539 294.49 59.1097C290.067 57.803 285.601 56.5648 281.236 55.0731C277.788 53.8948 267.603 53.6867 265.409 51.4444Z"/><path fill="#30190B" transform="scale(2.13664 2.13664)" d="M363.294 380.487C363.302 380.102 363.296 379.773 363.515 379.434C364.736 377.547 368.581 374.255 370.347 372.433C374.277 368.444 378.038 364.292 381.619 359.987C382.554 358.859 384.45 355.943 385.838 355.548C383.628 360.261 368.141 376.034 363.294 380.487Z"/><path fill="#30190B" transform="scale(2.13664 2.13664)" d="M52.4289 255.275L52.7793 255.265C53.5426 258.268 53.641 261.417 54.047 264.483C54.6027 268.679 55.3988 272.953 56.2187 277.103C56.8696 280.398 58.7774 285.358 58.2922 288.544C55.3425 279.628 52.7173 264.745 52.4289 255.275Z"/><path fill="#30190B" transform="scale(2.13664 2.13664)" d="M101.472 108.63C106.159 103.491 111.303 98.033 116.894 93.8706C115.026 96.9521 108.951 102.039 106.155 104.872C102.656 108.418 99.3979 112.12 96.0015 115.752C95.5121 115.843 95.7492 115.86 95.2895 115.712C97.2415 113.246 99.3428 110.943 101.472 108.63Z"/><path fill="#30190B" transform="scale(2.13664 2.13664)" d="M162.172 65.3767C171.397 61.2303 181.431 57.6563 191.304 55.4371C190.349 56.5475 188 56.9373 186.594 57.3568C183.184 58.3744 179.744 59.334 176.387 60.5198C173.533 61.5278 165.425 65.249 163.113 65.3771C162.799 65.3945 162.486 65.3875 162.172 65.3767Z"/><path fill="#30190B" transform="scale(2.13664 2.13664)" d="M146.938 72.833C146.925 72.9094 146.91 72.9856 146.898 73.0623C146.845 73.418 146.858 73.2815 146.886 73.6786C142.001 76.4503 137.398 79.3773 132.766 82.5507C130.11 84.3701 127.537 86.4127 124.789 88.0848C124.343 88.3562 124.071 88.4786 123.536 88.4426C130.062 82.6964 139.301 77.0821 146.938 72.833Z"/><path fill="#30190B" transform="scale(2.13664 2.13664)" d="M229.865 49.7799C236.791 49.5748 243.75 49.3834 250.672 49.83L250.585 50.1789C246.011 50.5728 233.821 51.1628 229.865 49.7799Z"/><path fill="#30190B" transform="scale(2.13664 2.13664)" d="M51.7895 228.944L52.0887 228.81C52.6906 231.867 52.7172 247.703 51.997 250.543C50.9726 244.799 51.547 235.061 51.7895 228.944Z"/><path fill="#30190B" transform="scale(2.13664 2.13664)" d="M421.653 276.073C421.514 275.344 421.499 274.578 421.559 273.839C421.744 271.558 422.431 269.294 422.698 267.01C423.204 262.676 423.027 257.913 424.326 253.733L424.55 253.798C424.344 261.253 423.17 268.779 421.653 276.073Z"/><path fill="#30190B" transform="scale(2.13664 2.13664)" d="M424.983 247.517C424.458 244.855 423.946 236.8 424.876 234.446L425.235 234.768C425.262 239.016 425.362 243.281 424.983 247.517Z"/><path fill="#30190B" transform="scale(2.13664 2.13664)" d="M343.546 396.716C343.629 396.138 343.531 396.138 343.993 395.713C345.053 394.739 351.434 389.409 352.367 389.214C352.585 389.168 352.813 389.233 353.036 389.243C349.979 391.863 346.88 394.452 343.546 396.716Z"/><path fill="#76C73F" transform="scale(2.13664 2.13664)" d="M227.806 60.8561C227.933 60.8407 228.059 60.8211 228.186 60.8098C231.782 60.4887 235.537 60.6479 239.152 60.6589C270.324 60.9835 300.868 69.459 327.75 85.2433C338.521 91.6669 348.304 99.4443 357.592 107.828C364.822 114.355 370.931 121.594 376.868 129.294C392.1 149.048 401.629 167.806 408.012 191.938C411.169 203.595 413.086 215.554 413.731 227.615C416.247 277.192 400.407 324 366.997 360.902C346.161 383.917 313.803 404.852 283.708 412.961C272.46 415.992 260.308 417.451 248.688 418.013C248.464 418.034 248.24 418.053 248.016 418.068C203.259 420.826 159.242 405.679 125.661 375.962C87.7471 342.545 66.1785 298.634 63.071 248.2C59.7889 200.564 75.9532 153.632 107.873 118.12C138.009 84.1254 182.667 63.5573 227.806 60.8561Z"/><path fill="#563113" transform="scale(2.13664 2.13664)" d="M190.312 135.048C191.818 134.962 193.265 134.916 194.759 135.198C196.55 135.537 198.158 136.179 199.784 136.992C206.586 140.395 213.025 144.499 219.503 148.469L250.334 167.717C268.266 178.841 286.01 190.265 303.559 201.984C311.151 207.023 318.99 211.777 326.306 217.215C329.22 219.38 332.069 221.746 334.122 224.776C337.12 229.2 338.284 234.095 337.251 239.368C336.574 242.824 334.775 245.629 332.41 248.187C326.905 254.143 316.447 261.283 309.634 266.174C298.08 274.47 286.507 282.6 274.697 290.536C260.272 300.551 245.539 310.117 230.521 319.219C222.092 324.419 206.24 334.734 197.298 336.926C193.249 337.918 188.607 337.267 185.071 335.048C180.402 332.118 177.261 326.704 176.048 321.419C174.633 315.252 174.745 308.387 174.651 302.086C174.545 294.067 174.497 286.047 174.507 278.028C174.129 250.528 174.12 223.024 174.479 195.524L174.523 166.725C174.51 161.486 174.196 156.061 174.654 150.85C174.887 148.21 175.611 145.652 177.043 143.405C180.109 138.592 184.871 136.215 190.312 135.048Z"/><path fill="#95E470" transform="scale(2.13664 2.13664)" d="M191.425 145.995C191.684 145.983 191.745 145.972 191.982 145.986C193.937 146.104 196.358 147.564 198.045 148.484C202.278 150.791 206.343 153.483 210.439 156.027L230.896 168.749C240.272 174.47 249.617 180.243 258.929 186.069C273.446 195.246 287.808 204.667 302.008 214.328C307.738 218.175 321.337 226.526 325.149 231.255C326.386 232.789 326.825 234.785 326.495 236.725C326.206 238.419 324.664 240.137 323.459 241.314C321.586 243.142 319.373 244.728 317.317 246.348C313.356 249.521 309.317 252.596 305.204 255.57C294.524 263.269 283.751 270.839 272.889 278.278C264.526 283.904 256.296 289.719 247.875 295.264C240.937 299.833 233.818 304.165 226.752 308.534C218.02 313.933 209.02 319.485 199.742 323.893C197.561 324.93 193.346 326.617 190.972 325.629C189.531 325.03 188.513 322.885 187.946 321.5C186.811 318.733 186.306 315.83 186.135 312.857C185.941 309.494 186.047 306.115 185.963 302.747C185.709 293.142 185.564 283.534 185.528 273.925C185.342 253.401 185.323 232.876 185.471 212.352L185.772 171.41C185.796 167.155 185.792 162.899 185.763 158.644C185.745 156.33 185.578 153.904 185.746 151.602C185.789 151.011 185.914 150.446 186.156 149.904C187.102 147.781 189.361 146.73 191.425 145.995Z"/><path fill="#76C73F" transform="scale(2.13664 2.13664)" d="M71.4418 108.038C71.2106 105.384 71.6135 102.627 72.0344 100.01C72.8223 95.1123 73.9286 89.6787 77.8038 86.2157C79.0773 85.0776 80.5594 84.1937 81.8563 83.088C83.2006 81.9419 84.2317 80.3285 85.7245 79.3656C86.2812 79.0065 86.5826 78.9061 87.2252 79.0277L86.3943 79.5514C87.1668 80.9797 91.7027 81.4612 93.3027 82.0274C94.3288 83.0393 94.3975 84.8187 94.5954 86.1821C95.0067 86.4258 95.3239 86.6601 95.6668 86.9933C96.398 90.7393 95.4851 94.9466 95.6418 98.7541C95.7077 100.357 96.7886 99.9679 97.587 101.067C98.906 102.882 97.8345 106.738 99.7504 108.282C100.316 108.738 100.803 108.652 101.472 108.63C99.3428 110.943 97.2415 113.246 95.2895 115.712L94.686 116.294C93.2591 114.739 89.4866 114.38 87.4351 113.527C86.0043 112.932 84.8231 112.169 83.5994 111.227C81.169 111.683 76.0059 112.182 73.6657 111.619C73.5405 111.167 73.5 110.982 73.6465 110.518C73.7535 110.179 73.8524 109.882 73.9273 109.534C73.3034 108.78 72.3118 108.446 71.4418 108.038Z"/><path fill="#76C73F" transform="scale(2.13664 2.13664)" d="M37.4161 283.531C39.9982 284.175 42.812 284.164 45.2987 284.869C48.2478 285.706 51.0744 287.378 54.0127 288.356C55.2935 288.783 57.0145 289.472 58.2893 288.837C58.5636 289.634 58.837 290.429 59.1458 291.214C60.8297 297.417 62.8195 303.532 65.108 309.538C63.9548 309.558 62.8206 309.404 61.6793 309.252C52.1774 307.985 42.2721 302.802 36.4303 295.06C35.2151 293.45 31.7821 289.549 32.2903 287.482C32.7032 285.803 35.9892 284.402 37.4161 283.531Z"/><path fill="#76C73F" transform="scale(2.13664 2.13664)" d="M60.1322 353.009C59.8549 352.62 59.705 352.413 59.6467 351.922C59.5949 351.487 59.6787 351.509 59.9148 351.19C60.4938 351.221 60.5596 351.232 60.9726 351.682C62.541 353.391 62.9135 356.001 62.8562 358.227C61.3784 358.069 59.8069 358.102 58.5899 357.165C58.4854 356.809 58.415 356.511 58.3903 356.137C58.3834 356.032 58.3816 355.927 58.3773 355.823C57.3129 354.983 55.7714 355.698 54.5321 354.8C54.5111 354.361 54.5125 354.21 54.8107 353.872C55.2807 353.338 55.7942 353.526 56.4355 353.553C56.9715 353.146 57.3592 352.703 57.7847 352.19C57.7914 352.523 57.8721 352.722 57.6415 353.002C57.0014 353.78 55.8206 353.641 55.3422 354.488L55.6172 354.991C56.6085 355.097 57.4479 354.95 58.4191 354.774L58.7288 354.494C58.6816 353.84 58.54 353.441 58.8644 352.851L59.192 352.837C59.1162 353.323 59.0499 353.813 58.9605 354.296C59.0868 354.534 59.2707 354.957 59.4655 355.162C59.923 355.643 60.1055 355.637 60.7216 355.654C61.1728 355.226 61.1451 355.159 61.2446 354.537C61.0398 353.742 60.7421 353.494 60.1322 353.009Z"/><path fill="#76C73F" transform="scale(2.13664 2.13664)" d="M430.043 213.94C430.548 214.128 430.876 214.295 431.286 214.647C431.338 214.891 431.374 214.993 431.355 215.265C431.314 215.87 431.064 216.252 430.623 216.624C429.827 216.517 429.261 216.5 428.485 216.738C428.42 216.758 428.355 216.781 428.29 216.802C427.816 217.098 427.807 217.073 427.249 216.994L426.952 216.557C426.925 216.081 426.955 215.763 427.198 215.352C427.824 214.296 428.94 214.181 430.043 213.94Z"/><path fill="#76C73F" transform="scale(2.13664 2.13664)" d="M448.763 240.315L449.119 240.369C450.262 240.543 451.533 240.671 452.201 241.751C452.48 242.203 452.513 242.607 452.407 243.104L451.915 243.276C450.994 243.3 450.247 243.639 449.347 243.242C448.783 242.992 448.448 242.67 448.303 242.055C448.164 241.462 448.464 240.796 448.763 240.315Z"/><path fill="#76C73F" transform="scale(2.13664 2.13664)" d="M296.308 437.063L297.045 437.2L297.184 437.495C297.145 437.586 297.114 437.681 297.065 437.766C296.417 438.897 295.281 439.441 294.092 439.815C293.723 439.725 293.494 439.595 293.166 439.41C292.917 438.809 292.835 438.549 292.981 437.909C293.871 437.163 295.17 437.205 296.308 437.063Z"/><path fill="#76C73F" transform="scale(2.13664 2.13664)" d="M254.472 31.3198C254.669 31.3256 254.964 31.3293 255.151 31.359C255.756 31.4546 256.241 31.7921 256.51 32.3693C256.783 32.9561 256.688 33.1636 256.483 33.7218L255.701 34.0379C254.743 33.6982 253.71 33.4866 253.237 32.5299C253.586 31.8329 253.832 31.7366 254.472 31.3198Z"/><path fill="#76C73F" transform="scale(2.13664 2.13664)" d="M436.49 177.884C436.817 177.942 437.205 177.987 437.521 178.106C438.094 178.32 438.28 178.607 438.554 179.125C438.448 180.033 438.298 180.166 437.754 180.863C437.429 180.803 437.045 180.756 436.73 180.638C436.151 180.419 435.973 180.136 435.699 179.61C435.793 178.743 435.984 178.568 436.49 177.884Z"/><path fill="#76C73F" transform="scale(2.13664 2.13664)" d="M35.0194 213.392C35.1887 213.442 35.3559 213.499 35.5205 213.563C36.0786 213.775 36.6504 214.26 36.8297 214.85C37.1345 215.853 36.5512 216.96 36.1422 217.838L35.4721 217.389C35.0448 216.307 34.6374 214.513 35.0194 213.392Z"/><path fill="#76C73F" transform="scale(2.13664 2.13664)" d="M39.9406 319.568C40.1256 319.62 40.4258 319.696 40.593 319.774C41.0553 319.988 41.2588 320.239 41.4502 320.708C41.7856 321.529 41.4388 322.369 41.0859 323.113C40.761 323.047 40.2586 322.988 39.9769 322.822C39.4007 322.48 39.3521 322.135 39.1645 321.544C39.2782 320.719 39.4884 320.264 39.9406 319.568Z"/><path fill="#76C73F" transform="scale(2.13664 2.13664)" d="M434.96 184.155C434.953 184.721 434.913 184.51 435.056 185.011C435.191 185.481 435.317 185.944 435.437 186.417C435.252 187.177 434.693 187.518 434.117 187.986C434.037 187.896 433.954 187.808 433.877 187.715C433.317 187.032 433.231 186.672 433.304 185.83C433.776 185.056 434.222 184.673 434.96 184.155Z"/><path fill="#76C73F" transform="scale(2.13664 2.13664)" d="M416.628 124.364C417.188 124.98 417.614 125.439 417.879 126.237C417.749 127.009 417.509 127.211 416.971 127.733C416.245 127.13 415.575 126.525 415.438 125.554C415.793 124.735 415.875 124.757 416.628 124.364Z"/><path fill="#76C73F" transform="scale(2.13664 2.13664)" d="M434.536 214.63C435.453 214.736 436.473 214.864 437.143 215.547C437.149 216.143 437.113 216.159 436.752 216.639C435.934 216.587 434.646 216.695 434.024 216.124C433.964 215.386 434.156 215.245 434.536 214.63Z"/><path fill="#76C73F" transform="scale(2.13664 2.13664)" d="M429.336 163.082C429.858 163.376 430.294 163.679 430.585 164.227C430.948 164.912 430.775 165.607 430.626 166.318C429.962 166.132 429.433 165.999 428.885 165.55C428.693 164.664 429.069 163.934 429.336 163.082Z"/><path fill="#76C73F" transform="scale(2.13664 2.13664)" d="M71.2362 367.388C71.9286 367.784 72.213 368.186 72.5174 368.896C72.4176 369.812 72.2789 369.859 71.6727 370.506C71.0859 370.264 70.6933 370.128 70.3258 369.575C70.3424 368.704 70.8117 368.13 71.2362 367.388Z"/><path fill="#76C73F" transform="scale(2.13664 2.13664)" d="M43.7925 196.832C44.5028 196.973 44.7606 196.886 45.1847 197.497C45.0647 198.273 44.406 198.827 43.9016 199.393C43.783 199.354 43.6605 199.327 43.5456 199.278C42.9996 199.048 42.7149 198.783 42.5079 198.246C42.8391 197.468 43.1289 197.331 43.7925 196.832Z"/><path fill="#76C73F" transform="scale(2.13664 2.13664)" d="M108.341 402.801C108.582 402.881 108.818 403.021 109.046 403.134C109.135 403.347 109.206 403.49 109.262 403.705C109.489 404.587 109.2 405.388 108.749 406.131C107.971 405.657 107.723 405.491 107.412 404.642C107.528 403.84 107.866 403.422 108.341 402.801Z"/><path fill="#76C73F" transform="scale(2.13664 2.13664)" d="M52.4345 175.405C52.7722 175.154 53.2225 175.114 53.5995 175.301C53.9765 175.488 54.2164 175.871 54.2201 176.292C54.2238 176.713 53.9908 177.101 53.6171 177.295C53.1 177.563 52.4635 177.389 52.1544 176.895C51.8453 176.402 51.9671 175.753 52.4345 175.405Z"/><path fill="#76C73F" transform="scale(2.13664 2.13664)" d="M92.9654 375.187L92.4072 374.689C92.4005 374.019 92.3758 373.998 92.791 373.479C93.4198 373.31 93.4251 373.261 93.9995 373.55C94.1427 374.14 94.1103 374.391 93.845 374.975C93.8031 375.067 93.735 375.145 93.6799 375.23L92.9654 375.187Z"/></svg>