<?xml version="1.0" encoding="utf-8" ?><svg xmlns="http://www.w3.org/2000/svg" xmlns:xlink="http://www.w3.org/1999/xlink" width="1041" height="1026" viewBox="0 0 1041 1026"><path fill="#47301E" transform="scale(2.13664 2.13664)" d="M240.55 4.35027C243.958 3.97228 247.782 4.91235 251.211 5.11755C255.308 5.36271 259.465 5.12572 263.55 5.56918C264.175 5.63694 264.66 5.79776 265.198 6.11685C265.783 6.46295 266.391 6.89746 267.066 7.03792C268.975 7.43526 271.112 6.85359 273.058 7.03986C274.515 7.17928 275.953 7.65237 277.402 7.87495C281.245 8.46501 285.074 8.93211 288.897 9.68172C306.717 13.1755 320.364 17.5533 337.131 24.4155C344.487 27.4261 350.989 31.074 357.872 34.9992C363.578 38.2526 369.254 41.5017 374.838 44.9634C379.284 47.7198 384.036 50.3871 388.208 53.5442C390.103 54.9785 391.67 56.7502 393.456 58.3035C397.475 61.7339 401.537 65.1143 405.64 68.4439C408.475 70.7559 418.565 79.2781 419.663 82.0582C420.562 84.3335 422.585 86.0542 424.124 87.9322C428.487 93.2596 434.468 99.712 438.011 105.351C441.197 110.421 444.468 115.57 447.405 120.784C448.871 123.386 450.102 126.111 451.545 128.723C453.23 131.774 455.228 134.734 456.686 137.899C460.594 146.385 463.54 155.077 466.272 163.987C467.292 167.315 468.496 170.588 469.418 173.945C474.807 193.31 477.64 213.297 477.844 233.398C477.864 240.684 478.097 248.107 477.637 255.378C475.878 283.176 468.164 315.608 455.938 340.81C454.764 343.23 453.259 345.5 451.954 347.852C448.96 353.249 445.965 358.556 442.71 363.806C439.919 368.307 437.492 373.144 434.415 377.441C432.408 380.243 429.612 382.282 427.531 384.997C425.908 387.113 424.303 389.26 422.6 391.311C421.572 392.548 420.402 393.722 419.451 395.014C418.308 396.566 417.509 398.438 416.235 399.882C412.681 403.909 408.534 407.354 404.497 410.866C399.888 414.874 395.307 419.041 390.996 423.362C387.034 427.332 382.077 430.064 377.528 433.283C371.383 437.632 365.081 441.497 358.661 445.418C356 447.043 353.452 448.873 350.701 450.345C340.116 456.009 323.262 462.576 311.75 465.759C306.377 467.245 300.895 468.304 295.439 469.438C290.645 470.434 285.896 471.184 281.066 471.948C279.19 472.245 277.369 472.826 275.471 472.977C273.652 473.123 271.72 472.969 269.888 472.972C269.36 473.473 268.88 474.047 268.39 474.587C264.204 474.788 260.117 475.442 255.963 475.697C252.406 475.914 248.754 475.754 245.187 475.741C239.139 475.757 232.804 476.143 226.789 475.661C224.04 475.441 221.091 474.964 218.396 474.384C216.874 474.057 215.409 473.507 213.874 473.217C210.188 472.521 206.387 472.209 202.676 471.61C197.478 470.772 192.286 469.581 187.152 468.41C174.47 465.518 162.981 461.177 150.984 456.286C146.336 454.391 141.777 452.675 137.289 450.385C134.68 449.054 132.503 447.196 129.997 445.747C121.776 440.992 113.277 436.249 105.485 430.802C102.569 428.764 99.5632 426.576 96.8881 424.23C95.2519 422.795 93.7537 421.215 92.1095 419.784C85.2759 413.836 78.3539 407.765 72.2165 401.087C69.6169 398.258 67.454 394.922 64.9566 391.974C62.2618 388.793 59.2853 385.819 56.6521 382.601C53.651 378.932 51.0106 374.862 48.496 370.85C45.3645 365.854 42.4375 360.744 39.375 355.709C36.5548 351.071 33.5453 346.502 31.0864 341.66C21.6606 323.095 14.9027 297.398 11.7942 277.008C11.4304 274.622 9.30332 263.959 9.63907 262.599C10.0784 260.818 8.91164 259.468 8.49407 257.758C8.02843 255.851 8.25837 253.437 8.24095 251.475C8.20109 246.985 8.17868 242.524 8.23033 238.035C8.2961 232.317 7.90126 226.487 8.3532 220.789C8.83809 214.675 10.5117 208.596 11.5523 202.553C15.333 180.6 20.5637 158.502 30.1088 138.266C33.227 131.655 37.0639 125.353 40.7067 119.023C42.4337 116.022 44.4384 113.286 46.2731 110.368C49.1787 105.746 51.8536 101.294 55.2613 96.9834C56.7208 95.1371 58.4144 93.4897 59.9775 91.7333C61.8796 89.5958 63.7023 87.3757 65.5903 85.2219C67.3129 83.257 68.8865 81.1606 70.6421 79.2256C73.3663 76.223 76.3596 73.3369 79.2837 70.5268C81.3559 68.5354 83.714 66.8735 85.8218 64.9226C88.9052 62.0688 92.0372 59.3463 95.154 56.5389C97.8769 54.0863 100.429 51.5862 103.394 49.4078C110.82 43.9509 119.773 38.9401 127.797 34.3242C131.226 32.3511 134.294 29.9854 137.885 28.2378C140.358 27.0341 142.99 26.1012 145.521 25.0219C160.175 18.7741 173.295 14.6201 188.857 11.1757C196.047 9.63261 203.307 8.43856 210.613 7.59773C213.023 7.3069 215.475 7.23762 217.874 6.90587C219.805 6.63881 221.524 5.58733 223.484 5.36303C227.888 4.8591 234.408 5.97158 238.385 4.808C239.11 4.59586 239.803 4.46635 240.55 4.35027Z"/><path fill="#FA93F3" transform="scale(2.13664 2.13664)" d="M39.6161 345.211L31.8183 328.509C31.3847 327.585 30.6212 326.85 30.2186 325.928C29.0848 323.33 28.5791 320.205 27.6206 317.493C20.4386 297.776 15.9489 277.18 14.2727 256.262C14.0243 253.479 14.0462 250.687 13.8537 247.904C13.6631 245.148 13.1124 242.42 12.9851 239.658C12.822 236.122 13.6731 232.752 13.8839 229.252C14.0872 225.876 13.9664 222.499 14.2935 219.125C15.8944 202.608 19.7474 186.128 24.3913 170.235C25.2072 167.443 25.7318 164.521 26.6654 161.771C27.3359 159.797 28.3054 157.884 29.0918 155.947C30.2454 153.106 31.1288 150.139 32.3268 147.326C33.0032 145.737 33.8989 144.247 34.5898 142.667C35.4478 140.705 35.4659 138.368 36.4667 136.471C37.7234 134.089 39.6962 132.037 41.0828 129.712C42.7747 126.875 42.8442 124.617 45.2241 121.974C45.9284 121.192 46.4232 120.876 46.3501 119.775C46.213 117.711 51.39 114.089 51.5695 111.301C51.6663 109.799 55.3603 106.674 56.4112 105.319C59.9741 100.727 63.2864 95.984 66.9699 91.4767C67.016 91.0294 67.0342 90.4362 67.1636 90.0135C67.5711 88.6834 73.2154 84.6506 74.4674 83.4588C77.4992 80.5726 80.4252 77.5276 83.3735 74.5532C86.8909 71.0047 90.3223 67.2269 94.053 63.9081C96.4468 61.7786 99.0859 59.9037 101.57 57.8776C103.462 56.3334 105.236 54.576 107.223 53.1557C109.048 51.8503 111.038 50.7627 112.893 49.4894C119.217 45.1464 125.807 40.8145 132.553 37.1495C151.98 26.5952 173.369 19.2901 194.939 14.6106C201.116 13.2706 207.545 12.2385 213.826 11.5251C215.288 11.3589 218.395 11.6402 219.568 10.91C222.726 8.945 233.647 11.7158 238.812 9.14187L239.134 8.97952C242.811 9.42791 246.709 10.0003 250.398 10.1855C253.862 10.3594 257.383 10.0781 260.834 10.4188C267.622 11.0892 274.565 11.7057 281.284 12.8669C296.988 15.581 311.348 20.0477 326.149 25.8623C329.823 27.3055 333.58 28.6694 337.173 30.2963C363.597 42.1016 387.756 58.4285 408.565 78.5419C411.104 81.0417 413.74 83.5027 416.106 86.1672C423.067 94.0072 429.601 103.421 435.381 112.148C438.926 117.5 442.113 122.914 445.296 128.483C446.574 130.717 448.104 132.901 449.232 135.21C449.854 136.485 450.094 137.922 450.663 139.223C451.563 141.281 452.674 143.234 453.53 145.316C455.373 149.793 456.9 154.427 458.616 158.957C465.105 176.092 469.014 193.79 471.437 211.915C471.957 215.801 472.668 219.737 472.923 223.649C473.282 229.172 473.04 234.849 473.037 240.387C473.034 244.766 473.231 249.257 472.896 253.62C470.927 276.684 465.842 299.375 457.782 321.074C456.786 323.776 455.447 326.377 454.31 329.023C453.205 331.596 452.325 334.267 451.109 336.79C449.107 340.942 446.881 344.97 444.986 349.176C444.543 344.014 444.433 338.86 443.456 333.752C442.187 327.119 440.051 320.813 437.685 314.501C432.511 300.699 426.891 289.353 418.647 277.008C415.421 272.178 411.411 267.866 408.202 263.039C406.175 259.989 405.972 256.085 403.604 253.263C399.518 248.394 388.277 239.404 382.945 235.775C384.637 234.311 388.466 232.401 389.416 230.484L389.211 230.205C388.866 230.222 388.498 230.17 388.153 230.145C386.926 229.426 385.863 228.481 385.053 227.303C384.679 226.758 384.391 226.433 383.882 226.011C383.606 225.782 383.66 225.656 383.595 225.314C382.46 223.828 378.749 221.98 377.018 221.032C379.407 219.069 381.956 217.123 384.034 214.83C387.39 211.126 388.476 206.535 388.221 201.625C387.562 200.48 386.806 199.376 385.553 198.838C381.193 196.963 372.268 200.56 368.085 202.348C368.398 199.214 368.481 196.063 368.838 192.923C369.725 185.11 370.963 177.302 371.982 169.5C375.004 146.358 379.77 118.384 366.658 97.3923C358.597 84.4857 346.061 77.7421 331.574 74.3576C320.446 73.2713 310.654 74.3369 300.268 78.6763C297.437 80.2212 294.541 81.8247 292.016 83.843C285.433 89.1055 280.285 97.6127 277.934 105.646C276.089 111.954 275.684 123.272 276.717 129.852C272.377 133.276 268.65 137.058 263.838 139.904C259.551 142.438 254.02 143.844 250.223 147.002C248.695 148.273 247.618 150.154 247.411 152.142C247.198 154.184 248.021 156.08 249.32 157.623C253.382 162.445 261.747 163.716 267.642 164.109C273.383 164.491 279.162 164.022 284.9 164.327C291.036 173.89 292.735 190.049 294.151 201.23C290.67 204.86 290.404 208.796 289.88 213.562C286.643 216.416 283.83 219.559 283.508 224.073C283.332 226.533 283.722 229.064 284.185 231.476C280.722 234.637 277.309 237.884 273.776 240.963C268.146 245.87 259.108 252.006 255.651 258.393C256.386 260.268 257.489 261.633 258.832 263.107C257.138 265.146 255.456 267.16 254.055 269.419C248.976 277.604 237.99 300.486 235.85 309.692C231.864 300.62 226.53 292.075 219.551 284.993C216.726 282.126 213.491 279.713 210.909 276.604C208.495 273.699 206.482 270.415 204.272 267.352C201.877 264.033 199.193 260.905 196.463 257.859C196.379 257.843 196.297 257.808 196.211 257.81C195.805 257.821 195.505 257.983 195.083 257.897C194.426 257.763 189.763 252.644 189.245 251.798C188.998 251.394 188.728 251.007 188.464 250.614L188.575 250.145C188.122 249.651 187.671 249.15 187.434 248.513C184.938 241.811 185.189 222.619 185.457 215.319C185.769 206.797 188.374 191.998 194.876 186.198C199.328 182.226 207.647 183.352 213.157 183.65C222.628 184.161 240.626 185.837 247.928 179.161C249.394 177.82 250.653 176.202 250.677 174.13C250.783 164.766 233.93 156.733 227.117 152.177C222.264 148.932 217.457 145.507 213.477 141.207C214.552 133.458 213.885 126.264 211.74 118.766C211.412 119.002 211.571 118.866 211.216 119.256L210.931 119.574C209.898 118.224 209.522 115.575 208.872 113.957C208.31 112.557 207.529 111.361 206.664 110.134C206.813 109.75 206.973 109.402 207.156 109.035C207.125 108.977 207.099 108.916 207.064 108.86C202.243 101.082 192.573 94.6686 184.302 91.1785C181.341 89.929 178.315 89.0848 175.261 88.1254C172.602 87.6891 169.996 87.0284 167.322 86.6797C158.569 85.5386 150.615 87.4787 142.669 91.0659C128.181 97.9592 118.111 110.193 112.778 125.17C103.149 152.215 105.95 182.219 110.084 210.033C110.947 214.641 111.443 219.311 111.567 223.999C112.274 228.493 112.001 234.05 111.575 238.593C111.436 241.665 111.517 245.29 110.364 248.173C109.139 251.235 105.246 253.143 103.387 255.95C101.39 258.967 101.169 263.195 98.4655 265.655C95.0933 268.724 90.9785 270.994 87.5205 274.043C81.7694 279.112 76.9835 284.867 71.6179 290.288L67.5089 295.09C65.1009 298.052 62.7848 301.088 60.5637 304.193C59.5983 305.521 58.5743 307.371 57.4287 308.512C52.8372 315.493 48.6352 322.604 45.4249 330.34C44.1958 333.302 43.3427 336.392 42.174 339.375C41.3971 341.357 40.3852 343.223 39.6161 345.211Z"/><path fill="#F67CEE" transform="scale(2.13664 2.13664)" d="M65.4407 294.922C65.8892 294.742 65.6652 294.874 66.0868 294.486C65.9864 293.486 59.3241 283.592 58.1876 281.542C56.3682 278.26 54.6542 274.786 53.6926 271.145C53.1037 268.914 52.8554 266.505 51.9329 264.383C49.5613 258.929 45.6474 254.691 44.0906 248.736C42.2497 241.695 40.925 233.273 41.164 226C41.2685 222.817 41.7613 219.624 42.2358 216.479C42.8727 212.257 43.6752 208.197 45.8718 204.464C46.7136 203.034 47.9742 200.855 49.6553 200.414C51.4911 201.162 53.2796 202.815 55.0303 203.853C55.08 208.343 57.6067 213.804 58.7535 218.29C61.1244 227.565 62.5793 244.868 61.0501 254.084C60.553 257.08 59.2175 259.793 58.5914 262.734C58.0378 265.334 58.8326 267.269 59.607 269.705C61.75 276.445 64.1539 280.378 68.2453 286.07C69.2016 287.401 70.5445 288.528 71.3875 289.903C71.4656 290.03 71.5411 290.159 71.6179 290.288L67.5089 295.09C65.1009 298.052 62.7848 301.088 60.5637 304.193C59.5983 305.521 58.5743 307.371 57.4287 308.512C56.8808 308.493 56.3977 308.44 55.8735 308.279C47.3486 305.662 36.8245 297.683 32.6596 289.689C32.1834 288.775 31.9913 288.084 32.2857 287.09C33.5784 285.425 35.9642 284.686 37.8536 283.855C40.1966 284.263 42.5476 284.514 44.8661 285.069C49.2563 286.121 55.2842 288.461 59.1909 290.74C61.3705 292.012 63.3304 293.553 65.4407 294.922Z"/><path fill="#EACA9C" transform="scale(2.13664 2.13664)" d="M300.268 78.6763C302.867 75.836 306.929 74.1741 310.543 73.0684C312.96 72.3288 315.308 72.1364 317.817 71.9844C322.953 71.6734 326.933 71.9082 331.574 74.3576C320.446 73.2713 310.654 74.3369 300.268 78.6763Z"/><path fill="#EACA9C" transform="scale(2.13664 2.13664)" d="M142.669 91.0659C145.92 87.527 151.413 85.6479 156.072 85.1749C161.116 84.6627 171.198 84.8161 175.261 88.1254C172.602 87.6891 169.996 87.0284 167.322 86.6797C158.569 85.5386 150.615 87.4787 142.669 91.0659Z"/><path fill="#EACA9C" transform="scale(2.13664 2.13664)" d="M110.084 210.033C110.947 214.641 111.443 219.311 111.567 223.999L111.267 224.014L110.697 223.453C110.567 223.661 110.636 223.51 110.675 223.952C110.279 224.317 110.259 224.193 110.235 224.783C109.936 220.831 108.847 216.223 109.742 212.329C109.901 211.639 110.006 210.997 110.065 210.291L110.084 210.033Z"/><path fill="#FBC76C" transform="scale(2.13664 2.13664)" d="M110.235 224.783C110.259 224.193 110.279 224.317 110.675 223.952C110.636 223.51 110.567 223.661 110.697 223.453L111.267 224.014L111.567 223.999C112.274 228.493 112.001 234.05 111.575 238.593C111.618 235.906 110.894 233.392 110.504 230.751C110.211 228.77 110.217 226.781 110.235 224.783Z"/><path fill="#351D14" transform="scale(2.13664 2.13664)" d="M207.156 109.035C209.276 112.132 210.609 115.198 211.74 118.766C211.412 119.002 211.571 118.866 211.216 119.256L210.931 119.574C209.898 118.224 209.522 115.575 208.872 113.957C208.31 112.557 207.529 111.361 206.664 110.134C206.813 109.75 206.973 109.402 207.156 109.035Z"/><path fill="#351D14" transform="scale(2.13664 2.13664)" d="M188.575 250.145C191.331 252.584 193.963 255.158 196.463 257.859C196.379 257.843 196.297 257.808 196.211 257.81C195.805 257.821 195.505 257.983 195.083 257.897C194.426 257.763 189.763 252.644 189.245 251.798C188.998 251.394 188.728 251.007 188.464 250.614L188.575 250.145Z"/><path fill="#351D14" transform="scale(2.13664 2.13664)" d="M383.595 225.314C385.639 226.598 387.891 228.141 389.211 230.205C388.866 230.222 388.498 230.17 388.153 230.145C386.926 229.426 385.863 228.481 385.053 227.303C384.679 226.758 384.391 226.433 383.882 226.011C383.606 225.782 383.66 225.656 383.595 225.314Z"/><path fill="#F8ECCC" transform="scale(2.13664 2.13664)" d="M118.583 253.219C118.783 249.666 119.46 246.094 119.85 242.552C120.312 237.96 120.435 233.34 120.217 228.73C119.798 220.518 118.557 212.291 117.551 204.135C114.943 182.995 112.871 162.396 116.909 141.27C118.426 133.34 120.678 125.405 124.729 118.366C130.962 107.537 140.942 98.9756 153.127 95.704C165.167 92.4715 176.729 95.5228 187.28 101.726C198.396 108.261 202.655 115.507 205.852 127.68C204.89 126.684 203.883 125.768 202.843 124.854C202.304 125.03 201.754 125.203 201.234 125.431C199.99 125.975 199.152 127.075 198.685 128.323C197.634 131.133 198.345 135.09 199.557 137.751C198.709 137.947 197.869 138.175 197.039 138.435C190.154 140.624 186.5 147.148 181.103 151.387C174.998 156.182 166.642 157.974 162.895 165.521C161.39 168.553 161.511 171.508 162.592 174.628C165.853 180.141 171.638 182.568 177.634 184.106C180.076 184.711 182.522 185.304 184.97 185.885C182.788 191.623 179.899 197.77 178.901 203.848C176.43 215.488 177.378 230.467 178.623 242.234L178.962 241.115C179.956 243.185 178.973 246.512 180.02 248.577C180.323 247.675 180.108 246.406 180.065 245.455C180.803 247.058 181.584 252.518 181.57 254.346C181.133 254.365 181.349 254.396 180.924 254.243C180.706 258.483 181.801 262.652 182.02 266.866L181.483 266.906C181.887 283.644 180.122 298.973 174.456 314.825C171.177 309.144 166.953 304.12 162.785 299.077C158.315 293.669 153.902 288.398 148.88 283.485C141.014 275.789 122.639 262.238 118.583 253.219Z"/><path fill="#EACA9C" transform="scale(2.13664 2.13664)" d="M162.592 174.628C165.853 180.141 171.638 182.568 177.634 184.106C180.076 184.711 182.522 185.304 184.97 185.885C182.788 191.623 179.899 197.77 178.901 203.848C178.615 203.808 178.669 203.822 178.342 203.746C176.327 203.279 167.239 192.325 165.835 190.084C163.028 185.605 161.372 179.867 162.592 174.628Z"/><path fill="#351D14" transform="scale(2.13664 2.13664)" d="M178.623 242.234L178.962 241.115C179.956 243.185 178.973 246.512 180.02 248.577C180.323 247.675 180.108 246.406 180.065 245.455C180.803 247.058 181.584 252.518 181.57 254.346C181.133 254.365 181.349 254.396 180.924 254.243C180.706 258.483 181.801 262.652 182.02 266.866L181.483 266.906C180.733 263.894 180.767 260.136 180.432 257.012C179.903 252.077 179.135 247.172 178.623 242.234Z"/><path fill="#47301E" transform="scale(2.13664 2.13664)" d="M166.342 122.576C167.266 122.592 168.133 122.698 168.989 123.077C170.993 123.967 172.307 125.728 172.998 127.77C174.24 131.44 173.948 136.206 172.117 139.638C170.967 141.793 169.624 142.893 167.323 143.618C166.001 143.694 165.024 143.689 163.865 142.981C161.772 141.704 160.647 139.357 160.133 137.036C159.338 133.445 159.651 128.762 161.71 125.626C162.893 123.824 164.243 122.966 166.342 122.576Z"/><path fill="#F8ECCC" transform="scale(2.13664 2.13664)" d="M105.587 288.69C107.352 290.904 109.122 293.424 111.318 295.229C112.393 296.112 114.221 296.832 115.068 297.834C117.382 298.907 119.66 300.057 121.897 301.283C123.043 301.906 124.297 302.812 125.486 303.289C128.847 304.457 132.436 305.961 135.94 306.62C137.722 306.96 139.506 307.099 141.295 307.371C140.982 311.564 141.956 314.794 144.718 317.993C145.968 319.441 147.436 320.793 148.9 322.024C150.872 322.907 157.307 325.777 158.548 327.076C162.013 328.671 166.35 330.623 168.874 333.59C171.076 336.34 172.995 339.886 172.604 343.501C172.355 345.813 172.021 348.12 171.764 350.433C171.8 351 171.763 351.689 171.94 352.225C172.181 352.541 172.365 352.762 172.473 353.153C173.208 355.813 172.918 359.126 173.279 361.895C173.522 363.759 174.116 365.561 174.235 367.44C174.37 369.585 174.366 372.386 174.008 374.511C173.955 374.825 173.86 375.055 173.737 375.346C173.329 382.138 173.694 389.109 173.608 395.931C173.489 400.933 173.522 408.681 172.505 413.384C172.117 424.038 169.982 436.742 166.608 446.816C165.336 448.439 163.962 448.987 161.924 449.226C159.339 449.529 156.57 449.288 153.966 449.22C151.028 449.152 147.575 448.988 144.828 447.914C141.822 446.524 139.036 444.623 135.841 443.662C134.636 443.14 133.583 442.039 132.408 441.378C130.707 440.422 128.817 439.765 127.151 438.762C126.484 438.36 125.942 437.83 125.447 437.236C121.736 434.803 117.567 432.864 114.142 430.026C110.77 428.257 106.716 425.148 103.794 422.68C100.386 420.322 93.9389 415.307 91.286 412.446C92.1201 407.919 93.8308 403.439 95.2767 399.073C97.4487 392.593 99.5751 386.097 101.656 379.586C102.619 376.556 103.806 373.418 104.379 370.293C103.925 368.909 104.796 368.123 104.852 366.778C104.874 366.248 104.944 366.452 104.601 366.084L104.549 366.805L104.305 366.798C103.951 365.098 106.171 358.757 106.892 356.93L107.117 356.859C106.803 359.291 105.629 361.546 105.308 363.97L105.669 364.437C106.57 359.209 109.639 352.55 110.098 347.602C110.109 347.477 110.117 347.351 110.127 347.226L110.601 347.24C111.623 345.272 111.729 342.121 112.034 339.912C111.717 338.278 111.759 336.432 111.637 334.761C111.425 332.084 111.163 329.412 110.852 326.746C110.372 323.312 109.747 315.436 108.241 312.641L109.716 312.47C108.159 306.756 104.209 294.374 105.587 288.69Z"/><path fill="#73A8B0" transform="scale(2.13664 2.13664)" d="M105.587 288.69C107.352 290.904 109.122 293.424 111.318 295.229C112.393 296.112 114.221 296.832 115.068 297.834C115.075 297.938 115.078 298.042 115.088 298.146C115.213 299.45 117.068 303.109 117.563 304.826C118.979 309.744 119.861 315.112 120.438 320.198C122.283 336.438 123.241 352.971 122.088 369.304C121.168 382.327 118.962 395.333 117.083 408.25C116.054 415.315 115.631 423.132 114.142 430.026C110.77 428.257 106.716 425.148 103.794 422.68C100.386 420.322 93.9389 415.307 91.286 412.446C92.1201 407.919 93.8308 403.439 95.2767 399.073C97.4487 392.593 99.5751 386.097 101.656 379.586C102.619 376.556 103.806 373.418 104.379 370.293C103.925 368.909 104.796 368.123 104.852 366.778C104.874 366.248 104.944 366.452 104.601 366.084L104.549 366.805L104.305 366.798C103.951 365.098 106.171 358.757 106.892 356.93L107.117 356.859C106.803 359.291 105.629 361.546 105.308 363.97L105.669 364.437C106.57 359.209 109.639 352.55 110.098 347.602C110.109 347.477 110.117 347.351 110.127 347.226L110.601 347.24C111.623 345.272 111.729 342.121 112.034 339.912C111.717 338.278 111.759 336.432 111.637 334.761C111.425 332.084 111.163 329.412 110.852 326.746C110.372 323.312 109.747 315.436 108.241 312.641L109.716 312.47C108.159 306.756 104.209 294.374 105.587 288.69Z"/><defs><linearGradient id="gradient_0" gradientUnits="userSpaceOnUse" x1="92.198479" y1="380.65311" x2="112.85846" y2="380.78287"><stop offset="0" stop-color="#DAC4A1"/><stop offset="1" stop-color="#F5E6C4"/></linearGradient></defs><path fill="url(#gradient_0)" transform="scale(2.13664 2.13664)" d="M112.034 339.912C113.186 340.848 113.246 342.461 113.382 343.855C113.844 348.587 113.709 353.506 113.526 358.252C112.848 375.811 109.366 392.616 106.239 409.823C105.788 412.307 104.716 420.943 103.794 422.68C100.386 420.322 93.9389 415.307 91.286 412.446C92.1201 407.919 93.8308 403.439 95.2767 399.073C97.4487 392.593 99.5751 386.097 101.656 379.586C102.619 376.556 103.806 373.418 104.379 370.293C103.925 368.909 104.796 368.123 104.852 366.778C104.874 366.248 104.944 366.452 104.601 366.084L104.549 366.805L104.305 366.798C103.951 365.098 106.171 358.757 106.892 356.93L107.117 356.859C106.803 359.291 105.629 361.546 105.308 363.97L105.669 364.437C106.57 359.209 109.639 352.55 110.098 347.602C110.109 347.477 110.117 347.351 110.127 347.226L110.601 347.24C111.623 345.272 111.729 342.121 112.034 339.912Z"/><path fill="#231D15" transform="scale(2.13664 2.13664)" d="M104.379 370.293C103.925 368.909 104.796 368.123 104.852 366.778C104.874 366.248 104.944 366.452 104.601 366.084L104.549 366.805L104.305 366.798C103.951 365.098 106.171 358.757 106.892 356.93L107.117 356.859C106.803 359.291 105.629 361.546 105.308 363.97L105.669 364.437C106.57 359.209 109.639 352.55 110.098 347.602C110.109 347.477 110.117 347.351 110.127 347.226L110.601 347.24C109.927 351.647 108.399 356.155 107.209 360.458C106.318 363.679 105.588 367.185 104.379 370.293Z"/><path fill="#C8D2CE" transform="scale(2.13664 2.13664)" d="M109.716 312.47C110.433 315.562 112.057 323.104 111.494 326.008C111.291 326.268 111.114 326.542 110.852 326.746C110.372 323.312 109.747 315.436 108.241 312.641L109.716 312.47Z"/><path fill="#F8ECCC" transform="scale(2.13664 2.13664)" d="M115.068 297.834C117.382 298.907 119.66 300.057 121.897 301.283C123.043 301.906 124.297 302.812 125.486 303.289C127.299 309.337 128.539 315.453 129.827 321.626C130.766 326.123 131.813 330.623 132.342 335.19C135.363 361.278 131.993 388.191 128.591 414.096L126.69 428.255C126.337 431.088 126.32 434.527 125.447 437.236C121.736 434.803 117.567 432.864 114.142 430.026C115.631 423.132 116.054 415.315 117.083 408.25C118.962 395.333 121.168 382.327 122.088 369.304C123.241 352.971 122.283 336.438 120.438 320.198C119.861 315.112 118.979 309.744 117.563 304.826C117.068 303.109 115.213 299.45 115.088 298.146C115.078 298.042 115.075 297.938 115.068 297.834Z"/><path fill="#F8ECCC" transform="scale(2.13664 2.13664)" d="M158.548 327.076C162.013 328.671 166.35 330.623 168.874 333.59C171.076 336.34 172.995 339.886 172.604 343.501C172.355 345.813 172.021 348.12 171.764 350.433C171.8 351 171.763 351.689 171.94 352.225C172.181 352.541 172.365 352.762 172.473 353.153C173.208 355.813 172.918 359.126 173.279 361.895C173.522 363.759 174.116 365.561 174.235 367.44C174.37 369.585 174.366 372.386 174.008 374.511C173.955 374.825 173.86 375.055 173.737 375.346C173.329 382.138 173.694 389.109 173.608 395.931C173.489 400.933 173.522 408.681 172.505 413.384C172.117 424.038 169.982 436.742 166.608 446.816C165.336 448.439 163.962 448.987 161.924 449.226C159.339 449.529 156.57 449.288 153.966 449.22C155.59 444.744 156.168 439.49 157.007 434.788C162.281 405.205 163.13 373.264 160.63 343.328C160.223 338.454 160.375 332.55 158.508 328C158.347 327.608 158.455 327.48 158.548 327.076Z"/><path fill="#73A8B0" transform="scale(2.13664 2.13664)" d="M171.94 352.225C172.181 352.541 172.365 352.762 172.473 353.153C173.208 355.813 172.918 359.126 173.279 361.895C173.522 363.759 174.116 365.561 174.235 367.44C174.37 369.585 174.366 372.386 174.008 374.511C173.955 374.825 173.86 375.055 173.737 375.346C173.329 382.138 173.694 389.109 173.608 395.931C173.489 400.933 173.522 408.681 172.505 413.384C172.061 407.6 172.237 401.529 172.179 395.723C172.099 387.835 171.865 379.96 172.043 372.07C172.126 368.341 172.536 364.65 172.528 360.915C172.507 358.037 172.121 355.103 171.94 352.225Z"/><path fill="#4D3F30" transform="scale(2.13664 2.13664)" d="M171.94 352.225C172.181 352.541 172.365 352.762 172.473 353.153C173.208 355.813 172.918 359.126 173.279 361.895C173.522 363.759 174.116 365.561 174.235 367.44C174.37 369.585 174.366 372.386 174.008 374.511C173.955 374.825 173.86 375.055 173.737 375.346C173.353 370.554 173.18 365.676 172.528 360.915C172.507 358.037 172.121 355.103 171.94 352.225Z"/><path fill="#7D9FA2" transform="scale(2.13664 2.13664)" d="M168.874 333.59C171.076 336.34 172.995 339.886 172.604 343.501C172.355 345.813 172.021 348.12 171.764 350.433C170.632 347.448 168.267 336.518 168.874 333.59Z"/><path fill="#73A8B0" transform="scale(2.13664 2.13664)" d="M125.486 303.289C128.847 304.457 132.436 305.961 135.94 306.62L136.021 307.062C136.568 309.9 137.665 312.718 138.298 315.569C139.75 322.112 140.754 328.846 141.634 335.487C145.041 361.209 142.139 391.183 138.965 416.856C138.191 423.121 137.638 429.414 136.895 435.685C136.584 438.316 136.396 441.074 135.841 443.662C134.636 443.14 133.583 442.039 132.408 441.378C130.707 440.422 128.817 439.765 127.151 438.762C126.484 438.36 125.942 437.83 125.447 437.236C126.32 434.527 126.337 431.088 126.69 428.255L128.591 414.096C131.993 388.191 135.363 361.278 132.342 335.19C131.813 330.623 130.766 326.123 129.827 321.626C128.539 315.453 127.299 309.337 125.486 303.289Z"/><path fill="#73A8B0" transform="scale(2.13664 2.13664)" d="M148.9 322.024C150.872 322.907 157.307 325.777 158.548 327.076C158.455 327.48 158.347 327.608 158.508 328C160.375 332.55 160.223 338.454 160.63 343.328C163.13 373.264 162.281 405.205 157.007 434.788C156.168 439.49 155.59 444.744 153.966 449.22C151.028 449.152 147.575 448.988 144.828 447.914L145.198 447.499C146.136 442.817 147.313 438.193 148.07 433.476C151.142 414.311 152.248 394.547 152.55 375.158C152.705 365.181 152.758 355.079 152.082 345.123C151.755 340.303 151.381 335.325 150.556 330.564C150.078 327.812 149.109 325.023 148.913 322.243C148.907 322.17 148.904 322.097 148.9 322.024Z"/><path fill="#F8ECCC" transform="scale(2.13664 2.13664)" d="M284.529 124.041C284.286 112.434 285.666 102.638 293.819 93.826C300.901 86.0594 310.861 81.5418 321.369 81.3304C332.913 81.0689 344.102 85.3258 352.552 93.194C365.324 105.261 366.586 118.877 367.023 135.37C367.956 140.245 366.872 145.42 367.129 150.382L367.192 150.241C367.126 154.226 366.518 156.322 365.449 160.057C365.163 159.749 365.267 159.917 365.12 159.564C364.441 163.538 363.492 169.109 363.483 173.068C364.617 174.505 364.096 176.42 363.896 178.123C363.396 182.38 362.91 186.741 362.214 190.966C361.958 192.517 361.29 193.099 361.114 195.191L360.838 195.462L360.648 195.052C359.916 196.7 359.636 203.82 359.444 205.989C359.252 206.062 359.058 206.131 358.864 206.197C348.222 209.834 320.689 218.999 310.836 218.58C308.212 218.468 305.959 217.316 303.642 216.2C302.291 204.172 301.354 192.181 299.333 180.228C298.02 174.668 296.13 169.573 293.511 164.506C297.916 164.345 302.355 164.263 306.742 163.804C313.134 163.134 321.217 162.346 325.507 157.051C326.242 155.907 326.882 154.694 327.234 153.374C327.845 151.086 327.483 149.136 326.256 147.14C323.874 143.265 320.396 140.416 317.37 137.085C314.034 133.414 311.061 129.068 307.051 126.077C304.795 124.395 302.321 123.584 299.623 122.933C299.099 120.086 299.104 116.973 298.142 114.235C297.776 113.192 297.168 112.031 296.091 111.582C295.144 111.188 293.988 111.472 293.11 111.923C289.68 113.685 289.045 119.075 288.038 122.408C286.885 122.979 285.697 123.499 284.529 124.041Z"/><path fill="#EACA9C" transform="scale(2.13664 2.13664)" d="M293.511 164.506C297.916 164.345 302.355 164.263 306.742 163.804C313.134 163.134 321.217 162.346 325.507 157.051C326.604 160.479 324.949 163.623 323.421 166.612C320.465 172.394 314.836 176.146 308.747 178.032C305.717 178.971 302.254 179.101 299.333 180.228C298.02 174.668 296.13 169.573 293.511 164.506Z"/><path fill="#351D14" transform="scale(2.13664 2.13664)" d="M363.483 173.068C364.617 174.505 364.096 176.42 363.896 178.123C363.396 182.38 362.91 186.741 362.214 190.966C361.958 192.517 361.29 193.099 361.114 195.191L360.838 195.462L360.648 195.052C361.127 187.812 362.385 180.25 363.483 173.068Z"/><path fill="#351D14" transform="scale(2.13664 2.13664)" d="M367.023 135.37C367.956 140.245 366.872 145.42 367.129 150.382L367.192 150.241C367.126 154.226 366.518 156.322 365.449 160.057C365.163 159.749 365.267 159.917 365.12 159.564C366.139 151.461 366.693 143.532 367.023 135.37Z"/><path fill="#47301E" transform="scale(2.13664 2.13664)" d="M327.052 111.548C327.825 111.507 328.63 111.505 329.388 111.687C331.004 112.077 332.346 113.621 333.098 115.026C334.759 118.129 335.201 122.429 334.059 125.769C333.286 128.03 332.145 129.373 330.012 130.406C328.838 130.46 327.734 130.493 326.65 129.967C324.867 129.101 323.668 127.297 323.016 125.482C321.887 122.34 321.675 117.892 323.179 114.854C324.075 113.042 325.179 112.213 327.052 111.548Z"/><path fill="#F8ECCC" transform="scale(2.13664 2.13664)" d="M210.799 287.106C212.183 288.061 213.44 288.962 214.582 290.206C214.523 290.467 214.383 290.723 214.406 290.99C214.481 291.879 217.764 299.459 218.413 300.499C218.473 300.595 218.535 300.689 218.596 300.784C219.495 304.987 222.469 308.833 222.467 313.3L218.276 309.136C219.268 311.308 220.45 313.381 221.336 315.601C223.107 320.036 224.368 324.755 225.668 329.346C235.386 363.654 235.021 399.993 230.407 435.089C228.15 436.5 225.721 438.008 223.221 438.944C219.683 440.849 216.004 442.204 212.176 443.392C209.196 444.683 205.768 445.34 202.575 445.913C199.429 446.566 196.261 447.108 193.076 447.539C190.557 447.911 187.785 448.26 185.239 448.242C182.307 448.263 178.155 449.266 175.504 447.874C173.021 444.808 176.087 432.406 176.772 428.547C179.833 411.285 180.221 390.738 179.445 373.28C179.08 365.068 178.096 356.856 177.972 348.636C177.874 342.182 180.662 335.189 185.178 330.549C186.818 328.216 189.727 325.996 191.84 324.066C194.32 321.673 196.502 318.939 198.696 316.289C200.268 313.93 201.801 311.376 202.596 308.636C203.138 306.77 202.843 304.686 203.921 303.019C203.326 301.95 202.61 300.981 201.891 299.994C203.556 298.492 205.188 297.015 206.664 295.32C208.361 292.674 209.705 290.057 210.799 287.106Z"/><path fill="#F8ECCC" transform="scale(2.13664 2.13664)" d="M198.696 316.289C199.805 317.829 201.468 333.977 201.792 336.529C202.655 343.338 204.168 350.043 205.025 356.843C207.325 375.085 207.71 393.144 206.701 411.495C206.297 418.274 205.557 425.029 204.485 431.735C203.906 435.567 202.384 442.368 202.575 445.913C199.429 446.566 196.261 447.108 193.076 447.539C190.557 447.911 187.785 448.26 185.239 448.242C182.307 448.263 178.155 449.266 175.504 447.874C173.021 444.808 176.087 432.406 176.772 428.547C179.833 411.285 180.221 390.738 179.445 373.28C179.08 365.068 178.096 356.856 177.972 348.636C177.874 342.182 180.662 335.189 185.178 330.549C186.818 328.216 189.727 325.996 191.84 324.066C194.32 321.673 196.502 318.939 198.696 316.289Z"/><path fill="#F8ECCC" transform="scale(2.13664 2.13664)" d="M185.178 330.549C185.848 331.382 185.547 333.126 185.588 334.232C185.728 337.644 185.975 341.051 186.329 344.447C186.481 345.931 186.883 347.642 186.857 349.116C186.853 349.335 186.814 349.423 186.755 349.612C187.847 350.596 189.254 351.856 189.349 353.442C189.42 354.624 188.734 355.978 187.979 356.848C188.382 358.05 189.776 382.045 189.498 382.776C189.448 382.908 189.361 383.023 189.292 383.146C190.489 384.27 191.661 385.458 191.714 387.217C191.763 388.857 190.978 390.146 190.011 391.384C190.021 391.412 189.655 416.409 189.497 417.666C190.28 418.869 191.043 420.082 190.742 421.586C190.501 422.788 189.836 423.733 189.243 424.776C189.03 426.467 186.879 447.727 186.712 447.831C186.273 448.107 185.741 448.155 185.239 448.242C182.307 448.263 178.155 449.266 175.504 447.874C173.021 444.808 176.087 432.406 176.772 428.547C179.833 411.285 180.221 390.738 179.445 373.28C179.08 365.068 178.096 356.856 177.972 348.636C177.874 342.182 180.662 335.189 185.178 330.549Z"/><path fill="#4D3F30" transform="scale(2.13664 2.13664)" d="M189.243 424.776C188.912 424.952 188.581 425.128 188.236 425.275C187.009 425.798 185.393 426.032 184.148 425.439C183.099 424.939 182.374 423.939 182.017 422.853C181.574 421.508 181.672 419.976 182.372 418.735C182.914 417.774 183.812 416.96 184.891 416.667C186.582 416.208 188.071 416.798 189.497 417.666C190.28 418.869 191.043 420.082 190.742 421.586C190.501 422.788 189.836 423.733 189.243 424.776Z"/><path fill="#4D3F30" transform="scale(2.13664 2.13664)" d="M190.011 391.384C188.843 391.993 187.773 392.468 186.427 392.238C185.315 392.047 184.398 391.383 183.8 390.438C182.957 389.103 182.773 387.37 183.195 385.861C183.541 384.622 184.311 383.532 185.489 382.968C186.818 382.333 187.972 382.688 189.292 383.146C190.489 384.27 191.661 385.458 191.714 387.217C191.763 388.857 190.978 390.146 190.011 391.384Z"/><path fill="#351D14" transform="scale(2.13664 2.13664)" d="M185.025 358.434C183.516 357.886 182.183 357.4 181.254 355.989C180.509 354.858 180.147 353.463 180.445 352.122C180.663 351.145 181.206 350.335 182.07 349.819C183.516 348.956 185.206 349.222 186.755 349.612C187.847 350.596 189.254 351.856 189.349 353.442C189.42 354.624 188.734 355.978 187.979 356.848C187.055 357.547 186.076 357.967 185.025 358.434Z"/><path fill="#73A8B0" transform="scale(2.13664 2.13664)" d="M185.178 330.549C186.818 328.216 189.727 325.996 191.84 324.066C193.716 327.078 193.441 337.493 193.778 341.462C195.262 358.947 197.099 376.674 197.266 394.226C197.354 403.473 196.701 412.601 196.081 421.817C195.508 430.33 194.961 439.197 193.076 447.539C190.557 447.911 187.785 448.26 185.239 448.242C185.741 448.155 186.273 448.107 186.712 447.831C186.879 447.727 189.03 426.467 189.243 424.776C189.836 423.733 190.501 422.788 190.742 421.586C191.043 420.082 190.28 418.869 189.497 417.666C189.655 416.409 190.021 391.412 190.011 391.384C190.978 390.146 191.763 388.857 191.714 387.217C191.661 385.458 190.489 384.27 189.292 383.146C189.361 383.023 189.448 382.908 189.498 382.776C189.776 382.045 188.382 358.05 187.979 356.848C188.734 355.978 189.42 354.624 189.349 353.442C189.254 351.856 187.847 350.596 186.755 349.612C186.814 349.423 186.853 349.335 186.857 349.116C186.883 347.642 186.481 345.931 186.329 344.447C185.975 341.051 185.728 337.644 185.588 334.232C185.547 333.126 185.848 331.382 185.178 330.549Z"/><path fill="#73A8B0" transform="scale(2.13664 2.13664)" d="M203.921 303.019C206.768 307.164 206.604 315.548 207.457 320.487C209.196 330.565 211.294 340.568 212.765 350.697C214.729 364.222 215.511 377.705 215.804 391.354C215.942 397.802 216.158 404.271 215.761 410.714C215.223 419.446 214.048 428.035 212.859 436.695C212.662 438.134 211.665 442.239 212.176 443.392C209.196 444.683 205.768 445.34 202.575 445.913C202.384 442.368 203.906 435.567 204.485 431.735C205.557 425.029 206.297 418.274 206.701 411.495C207.71 393.144 207.325 375.085 205.025 356.843C204.168 350.043 202.655 343.338 201.792 336.529C201.468 333.977 199.805 317.829 198.696 316.289C200.268 313.93 201.801 311.376 202.596 308.636C203.138 306.77 202.843 304.686 203.921 303.019Z"/><path fill="#73A8B0" transform="scale(2.13664 2.13664)" d="M210.799 287.106C212.183 288.061 213.44 288.962 214.582 290.206C214.523 290.467 214.383 290.723 214.406 290.99C214.481 291.879 217.764 299.459 218.413 300.499C218.473 300.595 218.535 300.689 218.596 300.784C219.495 304.987 222.469 308.833 222.467 313.3L218.276 309.136C219.268 311.308 220.45 313.381 221.336 315.601C223.107 320.036 224.368 324.755 225.668 329.346C235.386 363.654 235.021 399.993 230.407 435.089C228.15 436.5 225.721 438.008 223.221 438.944C222.972 434.521 224.137 429.401 224.707 425.008C225.503 418.865 226.07 412.591 226.234 406.396C227.035 376.092 222.438 345.544 214.364 316.379C212.478 309.568 210.396 301.359 206.664 295.32C208.361 292.674 209.705 290.057 210.799 287.106Z"/><path fill="#F8ECCC" transform="scale(2.13664 2.13664)" d="M99.7339 273.739C99.9151 274.915 100.179 276.076 100.427 277.239C100.895 278.619 101.815 280.338 102.038 281.732C103.175 284.074 104.358 286.394 105.587 288.69C104.209 294.374 108.159 306.756 109.716 312.47L108.241 312.641C107.322 313.752 106.607 320.602 106.496 322.492C106.616 325.847 105.831 329.504 105.31 332.81C102.36 351.519 96.3375 369.407 90.6608 387.401C88.7486 393.463 87.1792 399.946 84.7862 405.819L81.7192 402.667C78.554 399.729 74.5658 396.568 72.5214 392.73C70.4937 391.182 68.1338 388.296 66.8618 386.065C63.6701 382.175 60.4771 378.249 58.1264 373.775C55.608 371.013 53.4284 366.446 51.9068 363.019C50.0745 359.443 47.9179 355.832 46.4992 352.076C51.3112 332.061 60.1267 316.923 72.9903 300.967C77.838 294.954 82.7773 289.241 88.3267 283.851C91.9654 280.317 95.935 277.102 99.7339 273.739Z"/><path fill="#73A8B0" transform="scale(2.13664 2.13664)" d="M99.7339 273.739C99.9151 274.915 100.179 276.076 100.427 277.239C100.895 278.619 101.815 280.338 102.038 281.732L101.271 282.081C97.6096 285.424 94.6954 290.156 91.8819 294.224C88.091 299.704 84.3237 305.311 81.1375 311.171C73.3742 325.448 68.0624 341.257 63.1943 356.734C62.0989 360.216 59.6796 371.577 58.1264 373.775C55.608 371.013 53.4284 366.446 51.9068 363.019C50.0745 359.443 47.9179 355.832 46.4992 352.076C51.3112 332.061 60.1267 316.923 72.9903 300.967C77.838 294.954 82.7773 289.241 88.3267 283.851C91.9654 280.317 95.935 277.102 99.7339 273.739Z"/><path fill="#F8ECCC" transform="scale(2.13664 2.13664)" d="M99.7339 273.739C99.9151 274.915 100.179 276.076 100.427 277.239C100.133 277.803 99.879 278.286 99.4281 278.748C93.8711 284.533 87.9109 290.182 82.7775 296.339C74.6175 306.126 66.5502 320.715 61.7645 332.503C60.0487 336.73 58.6804 341.084 57.279 345.421C55.5241 350.854 52.9922 356.851 52.3588 362.493L51.9068 363.019C50.0745 359.443 47.9179 355.832 46.4992 352.076C51.3112 332.061 60.1267 316.923 72.9903 300.967C77.838 294.954 82.7773 289.241 88.3267 283.851C91.9654 280.317 95.935 277.102 99.7339 273.739Z"/><path fill="#94B6BA" transform="scale(2.13664 2.13664)" d="M100.427 277.239C100.895 278.619 101.815 280.338 102.038 281.732L101.271 282.081C100.333 281.142 100.216 280.221 99.6236 279.108L99.4281 278.748C99.879 278.286 100.133 277.803 100.427 277.239Z"/><path fill="#73A8B0" transform="scale(2.13664 2.13664)" d="M66.8618 386.065L66.9926 385.62C68.0214 382.048 68.5296 378.267 69.4389 374.647C71.3168 367.17 73.5237 359.755 75.6245 352.337C77.5402 345.573 79.2813 338.761 81.6466 332.132C86.1193 319.597 93.7933 305.185 104.236 296.688C100.615 309.283 95.2817 321.458 90.5134 333.651C88.2808 339.36 86.2863 345.204 84.3774 351.028C81.0464 361.193 78.348 371.642 75.447 381.942C74.4771 385.385 73.9124 389.478 72.5214 392.73C70.4937 391.182 68.1338 388.296 66.8618 386.065Z"/><path fill="#73A8B0" transform="scale(2.13664 2.13664)" d="M106.496 322.492C106.616 325.847 105.831 329.504 105.31 332.81C102.36 351.519 96.3375 369.407 90.6608 387.401C88.7486 393.463 87.1792 399.946 84.7862 405.819L81.7192 402.667C82.9446 399.582 83.299 394.899 84.1834 391.518C87.4983 378.987 90.9024 366.479 94.3956 353.996C95.755 349.104 96.7529 344.111 98.3099 339.276C99.6358 335.158 102.646 326.16 105.258 323.057C105.662 322.971 105.933 322.918 106.276 322.671C106.352 322.616 106.422 322.552 106.496 322.492Z"/><defs><linearGradient id="gradient_1" gradientUnits="userSpaceOnUse" x1="373.52725" y1="418.06693" x2="259.35214" y2="275.25095"><stop offset="0" stop-color="#908272"/><stop offset="1" stop-color="#B4A392"/></linearGradient></defs><path fill="url(#gradient_1)" transform="scale(2.13664 2.13664)" d="M338.098 248.457L338.496 248.535C339.005 252.146 326.203 272.611 323.79 277.121C321.284 281.855 318.935 286.671 316.749 291.561C312.36 301.514 308.5 311.607 306.702 322.381C305.835 327.578 305.184 333.111 305.336 338.381C305.551 345.772 307.242 353.134 307.992 360.488C309.191 372.258 310.249 384.021 311.733 395.759C312.311 400.33 312.708 404.998 313.634 409.512C319.786 409.731 326.006 408.303 332.087 407.517C338.926 406.633 345.781 405.936 352.599 404.874C359.787 403.686 366.942 402.302 374.055 400.725C380.626 399.326 387.233 397.853 393.62 395.748C394.026 397.829 394.355 400.016 395.151 401.986C372.019 408.16 348.455 413.384 324.392 413.541C306.188 413.292 275.034 405.444 257.822 398.93C257.822 397.16 257.806 395.46 257.511 393.711C261.182 394.884 271.525 398.584 275.098 397.929C275.835 397.794 276.205 397.399 276.589 396.791C278.514 393.734 279.316 388.283 280.304 384.762C285.305 366.944 289.076 344.33 290.274 325.914C291.257 308.648 291.19 291.338 290.076 274.079C289.726 267.691 290.237 260.756 288.968 254.501C288.649 254.844 288.332 255.198 287.991 255.519C287.608 255.88 287.399 256.126 286.851 256.118C286.671 254.689 290.763 249.664 291.783 248.262C292.698 250.946 293.931 253.59 294.997 256.225C297.159 261.572 299.264 267.037 302.086 272.08C303.028 273.763 303.978 275.447 305.992 275.927C306.857 276.133 307.647 275.977 308.379 275.483C311.036 273.688 313.552 270.543 315.852 268.287C318.499 265.691 321.266 263.223 323.953 260.669C328.482 256.362 332.84 251.893 338.098 248.457Z"/><path fill="#515455" transform="scale(2.13664 2.13664)" d="M258.27 405.327C264.315 406.754 270.159 409.005 276.072 410.884C280.179 412.189 284.381 413.143 288.432 414.632C289.391 424.263 287.976 430.922 295.963 438.112C297.751 439.721 302.526 443.611 305.052 443.194C305.736 443.081 306.255 442.785 306.653 442.216C308.548 439.506 305.393 421.683 304.592 417.977C317.739 419.919 329.193 420.152 342.429 418.874C346.395 418.491 355.72 416.399 358.997 416.814L359.307 417.228L359.471 416.512C359.707 416.29 359.884 416.134 360.206 416.052C360.83 415.895 360.872 415.925 361.396 416.235C363.139 415.695 365.509 415.702 367.346 415.492C373.455 414.447 390.368 411.191 395.446 408.457C395.472 409.745 395.828 412.92 395.011 413.884C394.157 414.89 384.17 422.604 382.869 423.5C382.425 423.806 382.101 423.986 381.554 424.04C380.776 424.988 379.767 425.677 378.796 426.415C376.712 428.027 374.739 429.835 372.523 431.261C371.698 432.125 370.544 432.967 369.47 433.504C368.693 434.088 367.737 434.536 366.921 435.099C354.127 443.917 339.326 450.55 324.904 456.222C320.005 453.761 315.93 450.082 310.719 448.137C308.252 447.216 305.799 447.626 303.289 447.059C297.075 445.656 291.55 442.815 286.088 439.655C287.637 442.414 289.509 444.673 291.8 446.855C298.783 453.505 303.237 452.76 311.396 456.192C313.22 456.96 314.865 458.01 316.528 459.07C314.526 459.958 312.354 460.546 310.271 461.22C298.168 465.134 283.557 467.996 270.91 468.98C269.926 465.993 268.317 463.087 267.103 460.17C264.675 454.339 262.438 448.401 260.048 442.546C258.956 439.872 256.964 436.252 256.732 433.406C256.514 430.723 257.004 427.894 257.274 425.223C257.941 418.631 258.864 411.955 258.27 405.327Z"/><path fill="#515455" transform="scale(2.13664 2.13664)" d="M367.346 415.492C373.455 414.447 390.368 411.191 395.446 408.457C395.472 409.745 395.828 412.92 395.011 413.884C394.157 414.89 384.17 422.604 382.869 423.5C382.425 423.806 382.101 423.986 381.554 424.04C376.075 422.169 371.235 419.276 366.264 416.38L366.175 416.226C366.562 415.947 366.933 415.729 367.346 415.492Z"/><path fill="#515455" transform="scale(2.13664 2.13664)" d="M361.396 416.235C363.139 415.695 365.509 415.702 367.346 415.492C366.933 415.729 366.562 415.947 366.175 416.226L366.264 416.38C371.235 419.276 376.075 422.169 381.554 424.04C380.776 424.988 379.767 425.677 378.796 426.415C376.712 428.027 374.739 429.835 372.523 431.261C371.12 429.238 369.292 427.439 367.82 425.438C365.734 422.601 363.946 418.588 361.396 416.235Z"/><path fill="#4D3F30" transform="scale(2.13664 2.13664)" d="M378.796 426.415C374.526 424.944 367.987 421.273 365.62 417.381C365.353 416.942 365.429 417.002 365.53 416.554L366.264 416.38C371.235 419.276 376.075 422.169 381.554 424.04C380.776 424.988 379.767 425.677 378.796 426.415Z"/><path fill="#4D3F30" transform="scale(2.13664 2.13664)" d="M359.307 417.228L359.471 416.512C359.707 416.29 359.884 416.134 360.206 416.052C360.83 415.895 360.872 415.925 361.396 416.235C363.946 418.588 365.734 422.601 367.82 425.438C369.292 427.439 371.12 429.238 372.523 431.261C371.698 432.125 370.544 432.967 369.47 433.504C366.978 430.454 360.559 420.727 359.307 417.228Z"/><path fill="#464F4F" transform="scale(2.13664 2.13664)" d="M270.335 427.547C270.647 427.354 271.046 427.372 271.339 427.592C271.632 427.813 271.759 428.191 271.659 428.544C271.559 428.898 271.253 429.153 270.888 429.188C270.477 429.227 270.093 428.978 269.961 428.586C269.829 428.195 269.984 427.765 270.335 427.547Z"/><path fill="#A39585" transform="scale(2.13664 2.13664)" d="M398.527 263.198C398.578 263.231 398.63 263.262 398.679 263.299C400.96 265.008 402.757 268.218 404.559 270.44C420.504 290.103 434.724 320.508 438.282 345.549C432.368 344.161 426.577 343.443 420.523 342.995C410.707 342.815 400.964 343.834 391.544 346.748C389.634 340.475 387.775 334.186 385.967 327.883C384.426 322.591 382.756 317.316 381.943 311.85C380.85 304.498 380.929 296.437 381.85 289.068C383.61 274.982 387.779 271.495 398.527 263.198Z"/><path fill="#E17A2C" transform="scale(2.13664 2.13664)" d="M202.913 143.097C203.667 143.003 204.496 143.057 205.258 143.047C208.387 144.672 210.799 147.54 213.377 149.897C214.997 151.377 216.727 152.702 218.483 154.014C221.809 156.546 225.242 158.934 228.774 161.17C232.444 163.467 236.478 165.546 239.805 168.315C241.089 169.382 242.563 170.659 242.716 172.407C242.459 173.41 241.968 173.915 241.064 174.42C235.2 177.697 212.213 176.773 205.843 174.755C198.851 172.54 192.862 168.454 185.665 166.617C183.566 166.265 181.258 165.673 179.171 166.268C178.633 166.735 178.632 166.691 178.575 167.398C179.809 169.226 193.946 177.135 196.797 178.793C195.907 178.945 195.015 179.083 194.121 179.209C186.614 180.232 174.954 178.654 168.878 173.784C167.806 172.924 166.89 171.795 166.764 170.381C166.612 168.66 167.601 167.019 168.654 165.743C173.133 160.315 180.615 158.933 186.049 154.784C189.798 151.92 192.228 147.622 196.269 145.09C198.379 143.768 200.468 143.327 202.913 143.097Z"/><path fill="#E17A2C" transform="scale(2.13664 2.13664)" d="M293.526 128.343C293.811 128.302 294.093 128.275 294.381 128.263C304.545 127.854 307.124 133.699 313.12 140.5C314.844 142.456 316.944 144.046 318.858 145.807C320.341 147.173 322.801 149.26 322.807 151.437C322.811 152.604 322.211 153.585 321.357 154.34C315.052 159.916 293.508 158.527 285.188 158.175C278.916 157.804 264.255 157.178 259.061 155.272C257.127 154.563 255.854 153.584 254.373 152.184C259.23 149.777 264.279 147.461 268.721 144.326C276.822 138.609 283.054 129.651 293.526 128.343Z"/><path fill="#370000" transform="scale(2.13664 2.13664)" d="M292.78 142.804L293.213 143.032C293.42 143.376 293.5 143.429 293.514 143.854C293.573 145.597 292.11 147.306 290.957 148.478C290.821 148.455 290.717 148.342 290.603 148.264C291.265 146.377 292.325 144.79 292.78 142.804Z"/><path fill="#73A8B0" transform="scale(2.13664 2.13664)" d="M108.347 263.093C108.572 262.649 108.805 262.213 109.065 261.788C109.813 260.569 110.55 259.549 111.995 259.197C112.854 259.313 113.21 259.706 113.821 260.291C116.016 262.54 117.891 265.069 120.075 267.323C121.011 268.116 122.008 268.88 122.814 269.806C125.86 272.522 128.423 275.714 131.496 278.404L133.019 279.667C133.713 280.197 134.424 280.703 135.029 281.335C135.528 281.722 136.456 282.28 136.794 282.781C139.239 284.679 141.486 286.777 143.68 288.956C145.896 290.989 148.596 293.641 150.111 296.268L149.657 296.66C149.683 298.455 150.793 300.171 150.917 302.033L149.452 302.548C147.735 301.771 143.957 302.07 141.807 301.632C137.329 301.138 132.206 299.171 128.187 297.204C126.183 296.581 123.942 295.559 122.146 294.477C120.123 293.208 118.299 291.621 116.623 289.927C110.735 283.974 106.697 276.954 106.724 268.426L106.832 267.381C107.274 265.913 107.724 264.495 108.347 263.093Z"/><path fill="#94B6BA" transform="scale(2.13664 2.13664)" d="M133.266 284.337C133.946 284.249 134.361 283.908 134.853 283.457C135.01 282.631 134.949 282.468 134.689 281.703L135.029 281.335C135.528 281.722 136.456 282.28 136.794 282.781C139.239 284.679 141.486 286.777 143.68 288.956C145.896 290.989 148.596 293.641 150.111 296.268L149.657 296.66C149.683 298.455 150.793 300.171 150.917 302.033L149.452 302.548C147.735 301.771 143.957 302.07 141.807 301.632C137.329 301.138 132.206 299.171 128.187 297.204C126.183 296.581 123.942 295.559 122.146 294.477C122.187 292.123 122.502 289.786 122.942 287.476C123.351 286.561 122.881 285.307 123.603 284.592C124.211 284.701 124.504 284.851 124.973 285.222C125.242 285.435 125.516 285.641 125.788 285.85C126.369 285.474 126.517 285.271 127.233 285.489C127.639 285.613 128.086 285.926 128.457 286.14C128.834 285.488 129.221 284.841 129.617 284.2C130.001 283.825 131.716 283.823 132.3 283.755L133.266 284.337Z"/><path fill="#F8ECCC" transform="scale(2.13664 2.13664)" d="M122.942 287.476C123.351 286.561 122.881 285.307 123.603 284.592C124.211 284.701 124.504 284.851 124.973 285.222C125.242 285.435 125.516 285.641 125.788 285.85C126.369 285.474 126.517 285.271 127.233 285.489C127.639 285.613 128.086 285.926 128.457 286.14C129.716 287.011 130.982 287.871 132.192 288.81C134.764 291.913 137.157 295.179 139.78 298.234C140.106 298.614 142.194 300.621 142.27 300.975C142.301 301.115 142.251 301.261 142.242 301.404L141.807 301.632C137.329 301.138 132.206 299.171 128.187 297.204C126.183 296.581 123.942 295.559 122.146 294.477C122.187 292.123 122.502 289.786 122.942 287.476Z"/><path fill="#73A8B0" transform="scale(2.13664 2.13664)" d="M122.942 287.476C123.351 286.561 122.881 285.307 123.603 284.592C124.211 284.701 124.504 284.851 124.973 285.222C125.242 285.435 125.516 285.641 125.788 285.85C128.018 288.383 128.595 292.338 128.378 295.652C128.339 296.172 128.275 296.69 128.187 297.204C126.183 296.581 123.942 295.559 122.146 294.477C122.187 292.123 122.502 289.786 122.942 287.476Z"/><path fill="#C8D2CE" transform="scale(2.13664 2.13664)" d="M136.794 282.781C139.239 284.679 141.486 286.777 143.68 288.956C143.539 289.023 143.403 289.101 143.257 289.157C142.592 289.412 140.218 288.186 139.426 287.903C138.629 286.893 136.583 284.789 136.378 283.527C136.323 283.191 136.596 283.023 136.794 282.781Z"/><path fill="#B1C4BE" transform="scale(2.13664 2.13664)" d="M132.3 283.755L133.266 284.337C132.726 284.855 132.102 285.346 132.038 286.143C131.965 287.055 132.445 287.888 132.192 288.81C130.982 287.871 129.716 287.011 128.457 286.14C128.834 285.488 129.221 284.841 129.617 284.2C130.001 283.825 131.716 283.823 132.3 283.755Z"/><path fill="#DCD3C6" transform="scale(2.13664 2.13664)" d="M139.187 290.737C140.777 291.16 142.67 292.487 143.626 293.823C144.656 295.264 144.835 296.203 144.524 297.93C144.038 298.01 143.899 297.98 143.441 297.857C141.594 295.702 140.05 293.472 139.187 290.737Z"/><path fill="#F8ECCC" transform="scale(2.13664 2.13664)" d="M106.724 268.426C107.798 269.39 108.424 270.723 109.146 271.953C111.156 275.375 113.782 278.165 117.372 280.003C118.73 280.684 119.987 281.449 121.259 282.278C121.722 283.333 122.393 284.491 122.637 285.611L122.942 287.476C122.502 289.786 122.187 292.123 122.146 294.477C120.123 293.208 118.299 291.621 116.623 289.927C110.735 283.974 106.697 276.954 106.724 268.426Z"/><path fill="#C8D2CE" transform="scale(2.13664 2.13664)" d="M117.372 280.003C118.73 280.684 119.987 281.449 121.259 282.278C121.722 283.333 122.393 284.491 122.637 285.611C122.365 285.305 122.143 285.055 121.78 284.856C119.586 283.653 118.25 282.372 117.372 280.003Z"/><path fill="#F8ECCC" transform="scale(2.13664 2.13664)" d="M122.814 269.806C125.86 272.522 128.423 275.714 131.496 278.404C130.974 279.041 130.827 279.067 130.018 279.138C129.192 279.211 128.257 279.088 127.629 279.751C127.095 280.317 126.91 280.951 126.156 281.299C125.178 279.481 123.76 277.974 122.95 276.043C122.215 274.291 122.054 271.576 122.814 269.806Z"/><path fill="#F8ECCC" transform="scale(2.13664 2.13664)" d="M113.196 264.243C113.293 263.469 112.99 262.652 113.001 261.867C113.011 261.058 113.266 260.848 113.821 260.291C116.016 262.54 117.891 265.069 120.075 267.323C118.516 268.746 118.019 271.853 117.374 273.826C115.188 270.674 114.05 267.987 113.196 264.243Z"/><path fill="#94B6BA" transform="scale(2.13664 2.13664)" d="M121.259 282.278L121.512 282.252C122.459 282.149 123.925 281.566 124.791 281.784L125.424 283.164C125.756 283.898 126.101 284.535 126.91 284.805C127.475 284.994 128.001 284.965 128.582 284.905L129.617 284.2C129.221 284.841 128.834 285.488 128.457 286.14C128.086 285.926 127.639 285.613 127.233 285.489C126.517 285.271 126.369 285.474 125.788 285.85C125.516 285.641 125.242 285.435 124.973 285.222C124.504 284.851 124.211 284.701 123.603 284.592C122.881 285.307 123.351 286.561 122.942 287.476L122.637 285.611C122.393 284.491 121.722 283.333 121.259 282.278Z"/><path fill="#7D9FA2" transform="scale(2.13664 2.13664)" d="M133.019 279.667C133.713 280.197 134.424 280.703 135.029 281.335L134.689 281.703C134.949 282.468 135.01 282.631 134.853 283.457C134.361 283.908 133.946 284.249 133.266 284.337L132.3 283.755C131.941 283.267 131.547 282.763 131.298 282.207C130.878 281.268 131.173 280.503 131.546 279.606C132.001 279.985 131.96 280.08 132.585 280.096L133.019 279.667Z"/><path fill="#B1C4BE" transform="scale(2.13664 2.13664)" d="M108.347 263.093C108.572 262.649 108.805 262.213 109.065 261.788C109.813 260.569 110.55 259.549 111.995 259.197C112.854 259.313 113.21 259.706 113.821 260.291C113.266 260.848 113.011 261.058 113.001 261.867C112.99 262.652 113.293 263.469 113.196 264.243C113.151 264.17 113.1 264.101 113.061 264.024C112.536 262.973 112.978 261.657 111.793 261.037C110.723 261.52 110.439 262.257 110.036 263.305C109.768 264.003 109.559 264.714 109.373 265.437C109.295 264.581 108.765 263.829 108.347 263.093Z"/><path fill="#B1C4BE" transform="scale(2.13664 2.13664)" d="M131.496 278.404L133.019 279.667L132.585 280.096C131.96 280.08 132.001 279.985 131.546 279.606C130.512 279.571 130.299 279.703 129.545 280.396C128.782 281.098 128.045 281.862 127.336 282.619C126.936 282.215 126.419 281.802 126.156 281.299C126.91 280.951 127.095 280.317 127.629 279.751C128.257 279.088 129.192 279.211 130.018 279.138C130.827 279.067 130.974 279.041 131.496 278.404Z"/><path fill="#C8D2CE" transform="scale(2.13664 2.13664)" d="M108.347 263.093C108.765 263.829 109.295 264.581 109.373 265.437C109.312 266.261 109.391 266.639 108.877 267.303C108.18 267.462 107.538 267.416 106.832 267.381C107.274 265.913 107.724 264.495 108.347 263.093Z"/><path fill="#F8ECCC" transform="scale(2.13664 2.13664)" d="M214.582 290.206C216.803 292.604 219.511 296.642 221.193 299.472C223.979 301.985 225.863 306.537 227.619 309.862C230.274 314.792 232.648 319.868 234.729 325.066C243.41 347.304 249.422 377.885 250.661 401.558C250.836 404.913 250.822 408.29 250.851 411.65L250.767 413.479C247.564 414.072 243.415 414.386 240.454 415.672C242.297 386.63 241.126 357.632 230.385 330.238C228.114 324.445 225.196 318.888 222.467 313.3C222.469 308.833 219.495 304.987 218.596 300.784C218.535 300.689 218.473 300.595 218.413 300.499C217.764 299.459 214.481 291.879 214.406 290.99C214.383 290.723 214.523 290.467 214.582 290.206Z"/><path fill="#C8D2CE" transform="scale(2.13664 2.13664)" d="M214.582 290.206C216.803 292.604 219.511 296.642 221.193 299.472C219.011 298.744 217.194 294.238 215.717 292.408C216.227 293.998 218.81 299.531 218.596 300.784C218.535 300.689 218.473 300.595 218.413 300.499C217.764 299.459 214.481 291.879 214.406 290.99C214.383 290.723 214.523 290.467 214.582 290.206Z"/><path fill="#4D3F30" transform="scale(2.13664 2.13664)" d="M340.906 261.745C341.6 259.63 342.109 257.453 342.905 255.371C343.809 253.004 345.009 250.708 346.11 248.425C349.218 241.983 353.067 233.624 359.563 229.964C359.685 229.895 359.81 229.829 359.933 229.761C361.383 228.961 363.04 228.754 364.649 228.445C368.962 237.968 371.415 248.306 375.543 257.955C373.517 258.411 371.818 259.328 369.799 258.438C366.759 260.321 364.22 260.632 360.723 260.753C358.214 260.653 355.41 261.098 352.87 261.235C348.882 261.449 344.89 261.45 340.906 261.745Z"/><path fill="#C5B8AE" transform="scale(2.13664 2.13664)" d="M360.723 260.753L360.392 260.439C360.092 259.542 359.706 258.515 359.861 257.559C360.016 256.603 360.609 255.865 361.403 255.338C362.605 254.541 364.144 254.41 365.518 254.764C367.607 255.302 368.751 256.666 369.799 258.438C366.759 260.321 364.22 260.632 360.723 260.753Z"/><path fill="#3C3733" transform="scale(2.13664 2.13664)" d="M364.461 256.249C364.936 256.285 365.515 256.408 365.911 256.691C366.417 257.054 366.557 257.373 366.614 257.965C366.025 258.485 365.825 258.406 365.062 258.458C364.035 258.552 363.102 258.783 362.233 258.104L362.199 257.589C362.782 256.792 363.57 256.586 364.461 256.249Z"/><path fill="#A39585" transform="scale(2.13664 2.13664)" d="M395.29 360.019C401.427 356.772 409.276 357.302 415.904 355.616C412.62 354.647 409.255 353.681 405.819 353.536C401.912 353.371 398.238 354.434 394.552 354.367C394.202 354.361 393.984 354.269 393.697 354.08C393.523 353.595 393.435 353.279 393.674 352.765C393.975 352.116 394.534 351.96 395.14 351.708C404.17 347.956 419.058 347.74 428.682 349.495C433.797 350.427 438.648 352.03 443.428 354.034C442.441 355.076 441.652 357.252 440.543 357.892C439.867 358.95 439.244 360.4 438.439 361.311C438.38 361.6 438.427 361.49 438.273 361.749C436.988 363.916 435.885 366.104 434.83 368.39C422.015 365.535 409.944 363.249 396.882 366.482C396.605 364.271 396.013 362.122 395.29 360.019Z"/><path fill="#4D3F30" transform="scale(2.13664 2.13664)" d="M428.768 357.148C432.512 357.024 436.919 356.923 440.543 357.892C439.867 358.95 439.244 360.4 438.439 361.311C435.25 360.083 431.661 358.968 428.768 357.148Z"/><path fill="#F8ECCC" transform="scale(2.13664 2.13664)" d="M402.597 370.682C411.836 369.728 421.555 371.088 430.372 373.93C423.034 384.246 415.191 394.467 405.803 403.017C405.01 404.068 403.875 405.03 402.937 405.967C402.308 401.481 402.164 396.891 401.644 392.384C400.836 385.378 399.603 378.413 398.388 371.469C399.789 371.151 401.176 370.89 402.597 370.682Z"/><path fill="#EACA9C" transform="scale(2.13664 2.13664)" d="M398.388 371.469C399.789 371.151 401.176 370.89 402.597 370.682C402.569 372.026 402.392 373.356 402.46 374.7C402.684 379.125 403.785 383.467 404.227 387.874C404.72 392.782 404.753 397.875 405.506 402.735L405.803 403.017C405.01 404.068 403.875 405.03 402.937 405.967C402.308 401.481 402.164 396.891 401.644 392.384C400.836 385.378 399.603 378.413 398.388 371.469Z"/><path fill="#F8ECCC" transform="scale(2.13664 2.13664)" d="M221.802 444.829C224.127 443.638 226.643 442.867 228.946 441.629C227.856 446.336 222.342 466.978 219.208 469.635C218.792 469.987 218.357 469.941 217.867 469.78C217.438 469.638 216.937 469.268 216.571 469C214.6 468.915 212.628 468.829 210.681 468.49C209.205 468.233 207.885 467.827 206.369 467.697C203.256 467.595 199.595 466.638 196.557 465.899C196.667 465.834 196.789 465.785 196.887 465.703C197.903 464.846 200.297 453.033 200.516 451.163C203.845 450.299 207.182 449.467 210.527 448.668C214.311 447.653 218.171 446.299 221.802 444.829Z"/><path fill="#73A8B0" transform="scale(2.13664 2.13664)" d="M200.516 451.163C203.845 450.299 207.182 449.467 210.527 448.668C210.478 453.184 208.596 458.998 207.449 463.376C207.083 464.775 206.546 466.263 206.369 467.697C203.256 467.595 199.595 466.638 196.557 465.899C196.667 465.834 196.789 465.785 196.887 465.703C197.903 464.846 200.297 453.033 200.516 451.163Z"/><path fill="#73A8B0" transform="scale(2.13664 2.13664)" d="M221.802 444.829C224.127 443.638 226.643 442.867 228.946 441.629C227.856 446.336 222.342 466.978 219.208 469.635C218.792 469.987 218.357 469.941 217.867 469.78C217.438 469.638 216.937 469.268 216.571 469C218.914 464.06 220.64 450.892 221.802 444.829Z"/><path fill="#4D3F30" transform="scale(2.13664 2.13664)" d="M354.66 382.488C355.32 383.41 356.428 395.247 356.811 397.59C350.943 398.939 344.697 400.566 338.696 401.103C336.194 401.326 333.617 401.236 331.106 401.24C329.703 401.242 327.846 401.479 326.519 401.122C326.05 400.996 326.09 400.833 325.861 400.433C324.572 397.609 323.304 394.775 322.06 391.93C330.323 386.412 331.95 388.775 340.726 387.112C345.422 386.222 350.248 384.328 354.66 382.488Z"/><path fill="#73A8B0" transform="scale(2.13664 2.13664)" d="M189.376 260.279C189.968 260.187 190.322 260.122 190.836 260.494C192.038 261.362 197.918 268.981 198.878 270.623L198.886 270.972C198.907 271.641 199.58 272.848 199.363 273.127C199.829 273.935 200.306 274.737 200.793 275.532C203.115 279.25 206.157 282.195 205.028 286.918C204.168 290.515 202.086 293.471 198.899 295.378C197.539 296.192 196.036 296.684 194.545 297.202L192.827 298.087C190.93 298.9 189.194 299.463 187.163 299.866C187.508 296.766 187.945 293.667 188.373 290.577C189.184 283.614 189.494 276.355 189.521 269.351C189.547 267.61 188.364 261.421 188.851 260.424L189.376 260.279Z"/><path fill="#F8ECCC" transform="scale(2.13664 2.13664)" d="M200.793 275.532C203.115 279.25 206.157 282.195 205.028 286.918C204.168 290.515 202.086 293.471 198.899 295.378C197.539 296.192 196.036 296.684 194.545 297.202C194.545 297.124 194.545 297.045 194.543 296.966C194.458 293.199 198.708 283.921 200.047 279.918C200.496 278.577 199.991 276.539 200.793 275.532Z"/><path fill="#F8ECCC" transform="scale(2.13664 2.13664)" d="M189.521 269.351C189.721 268.982 189.75 268.658 190.188 268.546C191.073 268.319 192.158 268.855 192.976 269.161C194.135 277.896 195.101 283.613 189.538 291.027C189.344 291.286 189.178 291.392 188.877 291.503C188.526 291.156 188.502 291.058 188.373 290.577C189.184 283.614 189.494 276.355 189.521 269.351Z"/><path fill="#231D15" transform="scale(2.13664 2.13664)" d="M189.376 260.279C189.968 260.187 190.322 260.122 190.836 260.494C192.038 261.362 197.918 268.981 198.878 270.623L198.886 270.972C198.907 271.641 199.58 272.848 199.363 273.127C196.037 268.855 192.602 264.623 189.376 260.279Z"/><path fill="#4D3F30" transform="scale(2.13664 2.13664)" d="M258.264 300.154C261.069 302.203 266.294 312.147 268.05 315.745C266.79 315.316 265.601 314.718 264.398 314.15C261.407 318.539 259.135 332.681 257.607 338.607C256.706 342.099 255.439 345.525 254.272 348.937C253.304 351.042 253.08 353.975 252.576 356.261C251.547 352.809 250.31 348.688 250.266 345.095C250.22 341.368 251.318 337.227 251.945 333.528C253.836 322.372 256.155 311.273 258.264 300.154Z"/><path fill="#DCD3C6" transform="scale(2.13664 2.13664)" d="M150.111 296.268C155.072 302.129 160.87 308.003 164.716 314.667C166.09 316.472 167.94 318.883 168.099 321.177C169.711 322.177 171.064 323.088 172.158 324.692C172.26 326.81 172.465 328.843 172.886 330.924C170.656 328.634 168.479 326.437 165.734 324.751C157.785 319.869 154.048 320.556 147.745 312.425L147.161 311.306C147.058 310.701 146.979 310.092 146.923 309.482C146.669 306.664 147.713 304.64 149.452 302.548L150.917 302.033C150.793 300.171 149.683 298.455 149.657 296.66L150.111 296.268Z"/><path fill="#F8ECCC" transform="scale(2.13664 2.13664)" d="M150.111 296.268C155.072 302.129 160.87 308.003 164.716 314.667C164.641 314.687 164.568 314.714 164.491 314.727C161.469 315.218 156.775 312.374 154.437 310.685C152.08 310.053 150.363 310.061 147.977 310.523C147.687 310.778 147.422 311.019 147.161 311.306C147.058 310.701 146.979 310.092 146.923 309.482C146.669 306.664 147.713 304.64 149.452 302.548L150.917 302.033C150.793 300.171 149.683 298.455 149.657 296.66L150.111 296.268Z"/><path fill="#DCD3C6" transform="scale(2.13664 2.13664)" d="M150.917 302.033C151.651 307.507 153.34 307.094 154.437 310.685C152.08 310.053 150.363 310.061 147.977 310.523C147.687 310.778 147.422 311.019 147.161 311.306C147.058 310.701 146.979 310.092 146.923 309.482C146.669 306.664 147.713 304.64 149.452 302.548L150.917 302.033Z"/><path fill="#94B6BA" transform="scale(2.13664 2.13664)" d="M147.161 311.306C147.422 311.019 147.687 310.778 147.977 310.523C150.363 310.061 152.08 310.053 154.437 310.685C156.775 312.374 161.469 315.218 164.491 314.727C164.568 314.714 164.641 314.687 164.716 314.667C166.09 316.472 167.94 318.883 168.099 321.177C164.906 320.43 157.591 318.063 154.817 316.42C152.907 315.289 151.428 313.386 149.326 312.639C148.811 312.791 148.453 312.643 147.96 312.492L147.745 312.425L147.161 311.306Z"/><path fill="#4D3F30" transform="scale(2.13664 2.13664)" d="M390.559 372.728L390.835 372.88C392.165 377.761 393.421 383.771 393.466 388.818C390.148 390.396 378.911 393.998 375.495 393.989C372.903 390.198 372.584 384.874 371.921 380.459C378.905 378.115 384.061 376.315 390.559 372.728Z"/><path fill="#F8ECCC" transform="scale(2.13664 2.13664)" d="M248.832 430.829L248.982 430.876L249.147 431.238C247.055 440.648 243.864 454.096 237.283 461.389C234.839 464.097 231.689 466.253 228.75 468.401C228.498 468.271 228.625 468.376 228.457 468.002C233.753 457.723 235.956 443.934 238.2 432.563C241.824 432.267 245.296 431.652 248.832 430.829Z"/><path fill="#FA93F3" transform="scale(2.13664 2.13664)" d="M252.174 447.606C254.398 448.707 261.469 466.262 262.908 469.653C259.619 469.662 258.238 469.617 255.845 471.974C253.206 472.109 251.313 471.863 248.8 471.047C244.691 470.66 240.528 470.768 236.404 470.768C244.423 464.728 248.241 456.531 252.174 447.606Z"/><path fill="#73A8B0" transform="scale(2.13664 2.13664)" d="M187.163 299.866C189.194 299.463 190.93 298.9 192.827 298.087C194.96 301.036 198.019 303.556 197.335 307.573C197.298 307.79 197.256 308.005 197.207 308.219C196.49 311.435 194.633 314.794 192.249 317.075C187.727 321.582 182.758 325.5 178.529 330.321C178.757 327.195 178.365 323.705 179.572 320.765C180.916 316.826 182.694 312.779 184.584 309.074C185.692 306.143 186.433 302.914 187.163 299.866Z"/><path fill="#F8ECCC" transform="scale(2.13664 2.13664)" d="M187.163 299.866C189.194 299.463 190.93 298.9 192.827 298.087C194.96 301.036 198.019 303.556 197.335 307.573C197.298 307.79 197.256 308.005 197.207 308.219C194.718 308.781 192.809 311.29 190.717 312.701C189.225 313.707 187.629 314.298 185.919 314.819C185.705 312.9 185.517 310.797 184.584 309.074C185.692 306.143 186.433 302.914 187.163 299.866Z"/><path fill="#DCD3C6" transform="scale(2.13664 2.13664)" d="M179.572 320.765C184.736 320.971 189.731 316.821 191.506 316.847C191.765 316.851 192.001 316.999 192.249 317.075C187.727 321.582 182.758 325.5 178.529 330.321C178.757 327.195 178.365 323.705 179.572 320.765Z"/><path fill="#C5B8AE" transform="scale(2.13664 2.13664)" d="M313.056 247.347L312.693 247.539C311.655 247.262 310.666 246.963 309.585 246.93L309.407 247.176C309.949 247.422 310.363 247.52 310.951 247.614C312.238 247.821 313.198 248.417 314.177 249.248C314.428 249.933 314.445 250.041 314.304 250.756C313.691 251.157 312.938 250.913 312.238 250.762C311.372 250.576 310.199 250.09 309.362 250.463L309.124 250.737C308.64 251.289 308.267 251.836 307.516 252.019L306.874 251.85C306.492 250.54 307.444 248.594 306.397 247.688L306.011 247.62C305.013 247.442 304.31 247.386 303.678 246.489C302.324 244.565 302.17 241.059 302.652 238.789C302.924 237.508 303.613 236.088 304.761 235.376C306.394 234.364 308.496 233.962 310.383 233.807C311.838 234.397 313.245 235.137 314.716 235.673C317.066 236.53 321.017 236.877 322.064 239.514C322.803 241.375 321.949 243.829 321.123 245.545C320.474 246.893 319.546 248.424 318.334 249.314C317.352 249.297 316.577 249.077 315.653 248.758L315.557 248.347C314.741 247.934 313.921 247.641 313.056 247.347Z"/><path fill="#3C3733" transform="scale(2.13664 2.13664)" d="M313.056 247.347L312.693 247.539C311.655 247.262 310.666 246.963 309.585 246.93L309.407 247.176C309.949 247.422 310.363 247.52 310.951 247.614C312.238 247.821 313.198 248.417 314.177 249.248C314.428 249.933 314.445 250.041 314.304 250.756C313.691 251.157 312.938 250.913 312.238 250.762C311.372 250.576 310.199 250.09 309.362 250.463L309.124 250.737C308.64 251.289 308.267 251.836 307.516 252.019L306.874 251.85C306.492 250.54 307.444 248.594 306.397 247.688L306.011 247.62C305.013 247.442 304.31 247.386 303.678 246.489C302.324 244.565 302.17 241.059 302.652 238.789C302.924 237.508 303.613 236.088 304.761 235.376C306.394 234.364 308.496 233.962 310.383 233.807C311.838 234.397 313.245 235.137 314.716 235.673C317.066 236.53 321.017 236.877 322.064 239.514C322.803 241.375 321.949 243.829 321.123 245.545C320.474 246.893 319.546 248.424 318.334 249.314C317.352 249.297 316.577 249.077 315.653 248.758L315.557 248.347C316.365 248.41 317.285 248.758 318.079 248.96C319.414 247.456 320.674 245.751 321.403 243.862C321.893 242.59 322.085 241.169 321.478 239.9C320.133 237.09 316.663 236.988 314.116 236.029C312.985 235.603 311.89 234.942 310.728 234.62C309.162 234.185 307.036 234.682 305.657 235.47C304.389 236.193 303.295 237.392 302.97 238.846C302.666 240.207 302.821 241.416 303.532 242.604C303.429 242.97 303.323 243.334 303.234 243.703C304.467 244.338 305.555 245.242 306.754 245.853C307.393 246.111 307.927 246.37 308.494 246.762C309.885 246.649 311.685 246.389 312.919 247.22C312.971 247.254 313.01 247.304 313.056 247.347Z"/><path fill="#C5B8AE" transform="scale(2.13664 2.13664)" d="M303.234 243.703C304.467 244.338 305.555 245.242 306.754 245.853C306.057 246.157 305.608 246.463 305.049 246.976C304.441 246.475 303.749 245.885 303.355 245.191C303.033 244.625 303.021 244.293 303.234 243.703Z"/><path fill="#DCD3C6" transform="scale(2.13664 2.13664)" d="M306.754 245.853C307.393 246.111 307.927 246.37 308.494 246.762C307.568 247.2 306.801 247.693 305.772 247.302C305.523 247.208 305.287 247.094 305.049 246.976C305.608 246.463 306.057 246.157 306.754 245.853Z"/><path fill="#C5B8AE" transform="scale(2.13664 2.13664)" d="M309.547 248.011C310.553 248.054 311.55 248.217 312.453 248.692C313.03 248.996 313.465 249.382 313.686 250.004L313.378 250.355C312.357 250.486 311.405 249.946 310.477 249.566C309.366 249.835 308.596 250.633 307.685 251.29C307.394 251.271 307.155 251.345 306.955 251.119C306.939 250.882 306.911 250.689 306.976 250.448C307.316 249.173 308.425 248.492 309.547 248.011Z"/><path fill="#3C3733" transform="scale(2.13664 2.13664)" d="M303.532 242.604C304.648 242.232 306.48 241.372 307.626 241.856C307.957 241.996 308.168 242.189 308.22 242.543C308.369 243.563 307.38 245.103 306.754 245.853C305.555 245.242 304.467 244.338 303.234 243.703C303.323 243.334 303.429 242.97 303.532 242.604Z"/><path fill="#3C3733" transform="scale(2.13664 2.13664)" d="M315.322 241.625C317.249 241.544 318.821 242.976 320.166 244.172C318.858 244.715 317.863 245.297 316.469 244.736L316.112 244.795C316.139 245.363 316.2 245.854 315.959 246.388L315.326 246.382C314.704 246.032 314.395 245.948 314.151 245.229C313.725 243.974 314.641 242.567 315.322 241.625Z"/><path fill="#3C3733" transform="scale(2.13664 2.13664)" d="M305.272 237.507C305.467 237.503 305.661 237.499 305.856 237.506C306.899 237.541 308.195 237.961 308.856 238.823C309.318 239.425 309.188 239.666 309.067 240.364C308.19 240.378 307.988 240.414 307.243 239.904C306.304 239.262 305.486 238.63 305.272 237.507Z"/><path fill="#A39585" transform="scale(2.13664 2.13664)" d="M254.594 284.38L254.962 284.876C254.115 296.715 251.324 308.098 249.108 319.715C248.115 324.918 247.677 330.258 246.562 335.412C246.109 334.009 245.606 332.619 245.12 331.227C243.955 327.293 242.272 323.357 240.869 319.494C244.003 307.549 249.019 295.389 254.594 284.38Z"/><path fill="#F8ECCC" transform="scale(2.13664 2.13664)" d="M189.231 452.807C192.832 451.869 196.833 451.937 200.516 451.163C200.297 453.033 197.903 464.846 196.887 465.703C196.789 465.785 196.667 465.834 196.557 465.899C193.783 465.547 190.434 464.868 187.861 463.813C185.517 463.655 178.978 461.518 176.311 460.702C176.642 460.493 176.747 460.335 176.918 459.971C177.587 458.548 177.996 455.036 177.528 453.539C181.438 453.346 185.329 453.137 189.231 452.807Z"/><path fill="#73A8B0" transform="scale(2.13664 2.13664)" d="M177.528 453.539C181.438 453.346 185.329 453.137 189.231 452.807C188.76 456.256 187.68 460.374 187.861 463.813C185.517 463.655 178.978 461.518 176.311 460.702C176.642 460.493 176.747 460.335 176.918 459.971C177.587 458.548 177.996 455.036 177.528 453.539Z"/><defs><linearGradient id="gradient_2" gradientUnits="userSpaceOnUse" x1="332.28168" y1="314.289" x2="342.16824" y2="324.35202"><stop offset="0" stop-color="#8B8173"/><stop offset="1" stop-color="#D6BFB5"/></linearGradient></defs><path fill="url(#gradient_2)" transform="scale(2.13664 2.13664)" d="M311.859 354.159C311.051 347.935 310.958 342.785 313.366 336.877C317.244 327.363 325.581 320.338 333.158 313.824C336.099 311.296 338.925 308.602 341.954 306.182C347.015 302.14 352.359 298.448 357.461 294.457C358.754 293.446 364.859 287.831 365.421 287.632C365.836 287.486 365.823 287.58 366.184 287.759L366.39 288.558C365.976 289.99 364.29 291.424 363.231 292.425C357.645 297.71 351.552 302.3 345.703 307.265C342.383 310.082 339.39 313.255 336.088 316.087C330.499 320.88 324.975 325.454 319.986 330.916C312.94 338.631 312.653 342.738 313.12 352.771C312.77 353.357 312.538 353.911 311.859 354.159Z"/><path fill="#4D3F30" transform="scale(2.13664 2.13664)" d="M362.303 371.918C362.709 372.126 362.63 372.043 362.889 372.289C363.489 372.859 364.1 373.341 364.752 373.845C365.085 374.103 365.83 374.619 366.04 374.987C366.315 375.47 369.433 393.265 369.746 395.615C368.069 395.906 366.379 396.145 364.697 396.408C362.635 396.63 360.572 396.84 358.508 397.038C358.457 391.504 357.495 385.988 357.48 380.466C357.469 376.628 359.779 374.434 362.303 371.918Z"/><defs><linearGradient id="gradient_3" gradientUnits="userSpaceOnUse" x1="322.19684" y1="268.27377" x2="322.25623" y2="228.45639"><stop offset="0" stop-color="#B4A69C"/><stop offset="1" stop-color="#D9C8B4"/></linearGradient></defs><path fill="url(#gradient_3)" transform="scale(2.13664 2.13664)" d="M352.728 227.75L352.834 228.168C351.314 230.203 349.099 232.005 347.227 233.722C340.025 240.327 332.201 246.166 324.76 252.492C318.366 257.928 312.61 263.887 306.393 269.479C304.077 265.64 302.815 261.52 301.182 257.377C298.877 251.615 296.51 245.879 294.082 240.169C293.369 238.703 292.622 237.37 292.603 235.701L293.08 235.749C296.347 239.537 299.167 248.49 301.681 253.344C303.573 256.997 305.987 260.362 307.885 264.014C311.619 261.28 315.11 257.919 318.629 254.906C325.928 248.657 333.158 242.422 340.631 236.377C344.409 233.321 348.243 229.687 352.728 227.75Z"/><path fill="#515455" transform="scale(2.13664 2.13664)" d="M290.563 415.424C294.676 416.215 298.875 416.597 302.924 417.684C303.722 425.079 303.542 432.509 304.067 439.92C290.796 431.534 294.347 428.919 290.641 415.693L290.563 415.424Z"/><path fill="#4D3F30" transform="scale(2.13664 2.13664)" d="M286.797 237.205L287.041 237.309C288.104 239.243 288.735 241.624 289.49 243.705C288.057 245.943 286.166 247.902 284.718 250.161C282.587 253.486 281.216 257.862 278.383 260.642L277.824 260.583C277.633 260.214 277.516 259.88 277.15 259.651C277.088 259.612 277.017 259.589 276.951 259.557C276.802 259.477 276.653 259.397 276.508 259.309C273.681 257.59 272.903 254.061 272.118 251.097C276.661 246.193 281.992 241.875 286.797 237.205Z"/><path fill="#7D9FA2" transform="scale(2.13664 2.13664)" d="M250.767 413.479C250.767 416.171 250.915 418.964 250.659 421.64C250.485 422.477 250.29 423.315 250.16 424.159C246.584 425.348 243.164 425.971 239.449 426.476C239.484 424.972 239.734 423.482 239.938 421.993C240.015 419.913 240.125 417.727 240.454 415.672C243.415 414.386 247.564 414.072 250.767 413.479Z"/><path fill="#F8ECCC" transform="scale(2.13664 2.13664)" d="M239.938 421.993C242.075 421.857 244.284 421.799 246.394 421.43C247.644 421.212 249.165 420.398 250.358 420.42L250.659 421.64C250.485 422.477 250.29 423.315 250.16 424.159C246.584 425.348 243.164 425.971 239.449 426.476C239.484 424.972 239.734 423.482 239.938 421.993Z"/><path fill="#4D3F30" transform="scale(2.13664 2.13664)" d="M255.696 381.377C258.478 382.218 269.605 386.928 271.619 388.567C272.701 389.447 272.673 390.893 272.763 392.166C267.395 391.628 262.411 390.523 257.181 389.279C256.32 386.732 256.03 384.032 255.696 381.377Z"/><path fill="#231D15" transform="scale(2.13664 2.13664)" d="M173.608 395.931L173.735 395.662C173.881 395.348 173.852 395.477 173.879 395.253C174.13 399.042 174.764 402.896 174.668 406.692C174.58 410.139 174.055 413.655 173.698 417.087C173.222 421.664 172.897 426.302 172.209 430.851C171.705 434.175 170.933 437.496 170.274 440.794C170.005 442.144 169.909 444.088 169.395 445.306C169.104 445.996 168.629 446.826 168.134 447.38C168.07 447.451 167.996 447.513 167.928 447.58L167.603 447.508C168.708 443.98 171.845 433.768 171.427 430.453L171.06 429.863C171.065 429.935 171.072 430.006 171.073 430.078C171.207 435.101 168.74 439.854 168.039 444.701C167.919 445.529 167.251 446.389 166.815 447.095L166.671 447.067L166.608 446.816C169.982 436.742 172.117 424.038 172.505 413.384C173.522 408.681 173.489 400.933 173.608 395.931Z"/><path fill="#F8ECCC" transform="scale(2.13664 2.13664)" d="M171.103 449.977C171.589 450.671 172.082 451.387 172.647 452.02C173.98 453.513 175.684 453.457 177.528 453.539C177.996 455.036 177.587 458.548 176.918 459.971C176.747 460.335 176.642 460.493 176.311 460.702C174.101 459.977 168.584 458.752 167.327 457.205C167.511 456.124 168.018 455.18 168.479 454.194C169.51 452.896 170.283 451.414 171.103 449.977Z"/><path fill="#A39585" transform="scale(2.13664 2.13664)" d="M281.875 325.714C278.159 321.637 261.132 296.782 260.427 292.749C260.341 292.257 260.272 292.104 260.563 291.68C261.862 292.833 262.758 294.787 263.734 296.239C268.003 302.588 272.027 308.988 276.106 315.455C277.553 317.749 279.207 319.924 280.588 322.255C282.173 324.021 283.117 326.093 284.117 328.223C283.323 327.434 282.458 326.677 281.875 325.714Z"/><path fill="#766E65" transform="scale(2.13664 2.13664)" d="M280.588 322.255C282.173 324.021 283.117 326.093 284.117 328.223C283.323 327.434 282.458 326.677 281.875 325.714C281.874 324.994 281.765 324.668 281.412 324.032C281.165 323.587 280.936 323.169 280.753 322.693L280.588 322.255Z"/><path fill="#C5B8AE" transform="scale(2.13664 2.13664)" d="M313.12 352.771C313.433 357.617 317.518 387.022 317.128 388.628C317.078 388.834 316.914 388.994 316.806 389.177L316.26 389.354C315.747 388.832 315.649 388.546 315.506 387.817C315.035 385.409 315.125 382.798 314.82 380.347C313.728 371.629 312.741 362.899 311.859 354.159C312.538 353.911 312.77 353.357 313.12 352.771Z"/><path fill="#DCD3C6" transform="scale(2.13664 2.13664)" d="M333.798 223.786C334.253 223.753 334.727 223.753 335.18 223.8C335.921 223.878 336.753 224.237 337.159 224.889C337.61 225.612 337.536 226.466 337.267 227.238C336.568 229.243 335.229 230.262 333.368 231.123C332.604 231.078 331.849 231 331.159 230.64C330.449 230.27 329.859 229.644 329.624 228.869C329.342 227.934 329.576 227.016 330.051 226.187C330.897 224.709 332.238 224.218 333.798 223.786Z"/><path fill="#3C3733" transform="scale(2.13664 2.13664)" d="M333.901 225.282C334.101 225.294 334.32 225.3 334.514 225.348C335.24 225.525 335.33 225.65 335.73 226.237C335.793 226.714 335.796 227.038 335.594 227.475C335.118 228.503 334.472 228.847 333.44 229.219C332.48 228.978 332.002 228.765 331.421 227.973C331.363 227.539 331.26 227.324 331.451 226.907C331.953 225.811 332.836 225.625 333.901 225.282Z"/><path fill="#DCD3C6" transform="scale(2.13664 2.13664)" d="M293.822 223.035C294.596 222.968 295.557 222.895 296.314 223.08C297.171 223.288 297.897 223.95 298.295 224.721C298.689 225.488 298.719 226.36 298.455 227.173C297.97 228.672 297.098 229.259 295.725 229.906C295.062 229.997 294.233 230.05 293.583 229.875C292.663 229.629 291.791 228.866 291.36 228.027C290.904 227.139 290.89 226.081 291.245 225.155C291.715 223.93 292.692 223.543 293.822 223.035Z"/><path fill="#231D15" transform="scale(2.13664 2.13664)" d="M294.315 224.279C295.504 223.988 296.703 224.718 296.991 225.908C297.279 227.098 296.547 228.295 295.356 228.581C294.169 228.866 292.976 228.136 292.688 226.95C292.401 225.763 293.129 224.568 294.315 224.279Z"/><path fill="#F8ECCC" transform="scale(2.13664 2.13664)" d="M353.585 216.822C354.383 216.778 355.386 216.696 356.095 217.149C356.628 217.49 357.018 217.926 357.142 218.565C357.303 219.394 356.962 220.264 356.516 220.946C355.556 222.416 354.28 222.815 352.629 223.123C352.289 223.012 351.95 222.904 351.619 222.768C350.647 222.367 349.477 221.522 349.184 220.46C349.033 219.909 349.148 219.376 349.445 218.898C350.268 217.571 352.165 217.169 353.585 216.822Z"/><path fill="#231D15" transform="scale(2.13664 2.13664)" d="M353.64 217.996C354.383 218.252 354.765 218.44 355.342 218.972C355.459 219.353 355.612 219.557 355.471 219.953C355.087 221.033 354.063 221.363 353.096 221.778C352.366 221.419 351.809 221.121 351.235 220.539C351.055 219.888 351.057 219.871 351.317 219.248C352.031 218.594 352.742 218.334 353.64 217.996Z"/><path fill="#DCD3C6" transform="scale(2.13664 2.13664)" d="M377.212 206.03C377.865 206.035 378.473 206.052 379.089 206.293C379.697 206.53 380.213 206.873 380.432 207.523C380.619 208.08 380.517 208.635 380.306 209.162C379.522 211.112 378.123 211.918 376.281 212.667C375.858 212.608 375.416 212.552 375.007 212.423C374.259 212.187 373.235 211.426 372.998 210.645C372.742 209.801 372.929 209.077 373.383 208.339C374.23 206.96 375.722 206.42 377.212 206.03Z"/><path fill="#231D15" transform="scale(2.13664 2.13664)" d="M377.568 206.941C377.965 207.133 378.23 207.336 378.573 207.608C378.832 208.201 379.053 208.53 378.781 209.187C378.276 210.407 376.85 210.761 375.715 211.027C375.575 210.972 375.423 210.94 375.295 210.861C374.741 210.521 374.796 210.193 374.77 209.622C375.36 208.281 376.275 207.576 377.568 206.941Z"/><path fill="#C5B8AE" transform="scale(2.13664 2.13664)" d="M316.348 400.225C315.721 399.026 315.344 396.972 315.745 395.66C315.95 394.992 316.081 394.832 316.599 394.359C317.198 394.312 317.496 394.385 317.975 394.777C319.792 396.259 319.888 398.853 320.951 400.807C321.211 401.305 321.347 401.692 321.444 402.246C321.176 402.977 320.987 403.306 320.426 403.846C319.786 404.051 319.562 404.143 318.892 403.925C317.318 403.413 316.865 401.594 316.348 400.225Z"/><path fill="#B9A79A" transform="scale(2.13664 2.13664)" d="M316.348 400.225L316.567 400.31C317.686 400.758 318.597 401.644 319.798 401.764C320.278 401.49 320.579 401.214 320.951 400.807C321.211 401.305 321.347 401.692 321.444 402.246C321.176 402.977 320.987 403.306 320.426 403.846C319.786 404.051 319.562 404.143 318.892 403.925C317.318 403.413 316.865 401.594 316.348 400.225Z"/><path fill="#C5B8AE" transform="scale(2.13664 2.13664)" d="M266.61 283.889C266.84 283.892 267.012 283.885 267.232 283.916C268.041 284.03 269.015 284.756 269.462 285.427C270.124 286.421 270.14 287.61 269.923 288.747C269.601 290.428 268.726 291.126 267.392 292.053L266.93 292.003C265.468 291.143 264.471 288.286 263.763 286.763C264.639 285.667 265.526 284.778 266.61 283.889Z"/><path fill="#DCD3C6" transform="scale(2.13664 2.13664)" d="M372.567 229.556C371.738 228.536 370.083 227.139 369.852 225.835C369.751 225.266 369.866 225.174 370.165 224.717C370.434 224.619 370.699 224.513 370.989 224.491C372.902 224.344 375.161 226.068 376.577 227.198L377.463 227.939C377.501 228.62 377.277 228.889 376.818 229.386C376.247 230.006 374.855 230.949 374.006 231.108C373.878 231.132 373.746 231.106 373.615 231.105C373.209 230.597 372.885 230.122 372.567 229.556Z"/><path fill="#F8ECCC" transform="scale(2.13664 2.13664)" d="M375.22 228.034L375.252 227.757C375.599 228.161 375.934 228.48 376.353 228.807L376.725 228.573C376.735 228.067 376.666 227.694 376.577 227.198L377.463 227.939C377.501 228.62 377.277 228.889 376.818 229.386C376.247 230.006 374.855 230.949 374.006 231.108C373.878 231.132 373.746 231.106 373.615 231.105C373.209 230.597 372.885 230.122 372.567 229.556C373.113 229.312 373.674 229.147 374.244 228.974C374.714 228.949 374.817 228.927 375.214 228.734L375.22 228.034Z"/><path fill="#3C3733" transform="scale(2.13664 2.13664)" d="M374.244 228.974C373.531 228.503 372.672 227.931 372.436 227.07L372.773 226.812C373.729 226.9 374.445 227.513 375.22 228.034L375.214 228.734C374.817 228.927 374.714 228.949 374.244 228.974Z"/><path fill="#766E65" transform="scale(2.13664 2.13664)" d="M269.465 254.407C269.686 254.448 269.933 254.584 270.141 254.671C270.996 255.855 271.451 257.242 271.98 258.593C272.511 258.997 273.076 259.393 273.572 259.838C274.029 260.248 274.382 260.476 274.415 261.118C273.593 261.381 272.865 261.113 272.056 260.918C269.529 260.479 268.104 259.593 266.331 257.812C267.264 256.582 268.388 255.508 269.465 254.407Z"/><path fill="#A39585" transform="scale(2.13664 2.13664)" d="M347.114 316.644C348.021 316.724 348.888 316.827 349.569 317.504C351.006 318.933 354.322 323.808 354.402 325.777C353.908 325.89 352.519 326.284 352.106 326.033C350.794 325.234 347.702 318.352 347.114 316.644Z"/><path fill="#DCD3C6" transform="scale(2.13664 2.13664)" d="M349.941 285.245C350.083 285.269 350.226 285.29 350.367 285.316C351.214 285.469 351.834 285.864 352.282 286.606C352.72 287.332 352.791 288.112 352.588 288.922C352.233 290.337 351.602 290.834 350.385 291.567C349.345 291.174 348.394 290.749 347.872 289.701C347.513 288.983 347.418 288.161 347.702 287.401C348.107 286.316 348.922 285.704 349.941 285.245Z"/><path fill="#B9A79A" transform="scale(2.13664 2.13664)" d="M358.526 336.626C359.296 336.634 359.831 336.623 360.448 337.138C361.8 338.267 363.948 342.376 364.022 344.088C364.039 344.467 363.831 344.527 363.582 344.771C362.944 345.052 362.295 345.462 361.582 345.316C360.887 343.396 358.457 338.404 358.526 336.626Z"/><path fill="#B9A79A" transform="scale(2.13664 2.13664)" d="M255.181 358.627C256.114 358.79 256.745 358.988 257.374 359.693C257.948 362.029 256.213 365.433 255.419 367.694L255.045 368.388L254.627 368.409C253.303 365.825 254.434 361.287 255.181 358.627Z"/><path fill="#B9A79A" transform="scale(2.13664 2.13664)" d="M354.693 328.137C355.107 328.162 355.651 328.1 355.996 328.347C357.205 329.212 359.111 332.412 359.154 333.897C359.166 334.304 358.903 334.379 358.625 334.626C357.799 334.826 357.487 334.985 356.662 334.726C355.303 333.349 354.616 331.877 354.22 329.994C354.026 329.067 354.207 328.888 354.693 328.137Z"/><path fill="#B9A79A" transform="scale(2.13664 2.13664)" d="M258.209 349.24C258.971 349.244 259.785 349.138 260.464 349.502C260.306 351.804 259.35 354.319 258.715 356.545C257.786 356.477 257.16 356.495 256.484 355.838C255.9 353.705 257.377 351.187 258.209 349.24Z"/><path fill="#C5B8AE" transform="scale(2.13664 2.13664)" d="M261.802 338.175C262.344 338.274 262.829 338.432 263.349 338.608C263.422 339.009 263.395 339.193 263.309 339.582C262.937 341.255 262.061 345.833 260.682 346.716C260.036 346.529 259.378 346.437 258.946 345.879C259.497 343.497 260.534 340.259 261.802 338.175Z"/><path fill="#C5B8AE" transform="scale(2.13664 2.13664)" d="M362.271 347.517C363.324 347.493 364.379 347.513 365.432 347.518C366.046 349.43 367.098 351.846 366.756 353.871C366.27 353.996 365.841 354.07 365.34 354.094C363.671 353.182 362.87 349.271 362.271 347.517Z"/><path fill="#C5B8AE" transform="scale(2.13664 2.13664)" d="M265.978 318.035C266.681 318.142 266.948 318.135 267.521 318.58C268.453 320.975 267.192 324.077 266.526 326.459C266.114 326.375 265.341 326.266 265.144 325.886C264.324 324.301 265.377 319.72 265.978 318.035Z"/><path fill="#7D9FA2" transform="scale(2.13664 2.13664)" d="M167.327 457.205C163.565 457.607 164.429 455.972 162.057 455.47C161.599 455.373 161.434 455.37 161.107 454.988L161.246 454.68C163.371 454.08 166.259 454.186 168.479 454.194C168.018 455.18 167.511 456.124 167.327 457.205Z"/><path fill="#DCD3C6" transform="scale(2.13664 2.13664)" d="M263.908 328.706C264.305 328.706 264.642 328.715 265.032 328.804C265.33 328.873 265.335 328.82 265.454 329.101C266.082 330.592 264.502 334.142 263.997 335.701C263.871 335.828 263.607 335.953 263.45 336.046L263.038 335.851C262.346 334.275 263.565 330.432 263.908 328.706Z"/><path fill="#4D3F30" transform="scale(2.13664 2.13664)" d="M250.851 411.65L251.172 410.456L251.016 410.788L251.347 410.568L251.408 410.841C251.582 411.598 251.751 412.135 252.167 412.789C252.148 414.338 251.577 415.821 251.549 417.366C251.49 416.612 251.468 415.921 251.539 415.168C251.068 417.156 251.868 423.078 250.436 424.289L250.16 424.159C250.29 423.315 250.485 422.477 250.659 421.64C250.915 418.964 250.767 416.171 250.767 413.479L250.851 411.65Z"/></svg>