<?xml version="1.0" encoding="utf-8" ?><svg xmlns="http://www.w3.org/2000/svg" xmlns:xlink="http://www.w3.org/1999/xlink" width="1409" height="1371" viewBox="0 0 1409 1371"><path fill="#603E1D" transform="scale(6.31957 6.31957)" d="M99.9636 1.07029C106.374 0.836625 112.812 1.03902 119.228 0.979313C122.129 0.952321 124.816 1.10346 127.002 3.30919C131.132 7.4748 129.997 19.4474 130.03 25.2142C136.092 27.3083 142.476 29.2685 148.141 32.2919C152.027 28.3981 161.499 17.8099 165.963 16.0474C168.007 16.6087 169.871 17.5208 171.653 18.6525C175.131 20.8601 178.284 23.5885 181.519 26.125C183.856 27.9568 186.45 29.6722 188.501 31.8259C189.474 32.8478 190.638 34.2843 190.924 35.6909C191.894 40.4458 182.096 52.2215 179.145 56.5276C183.693 61.958 187.925 68.1482 190.732 74.673C195.878 73.691 208.903 70.6594 213.197 73.0228C218.458 75.9183 218.564 85.5386 219.65 90.8528C220.247 93.7711 221.084 96.6113 221.953 99.4585C221.55 101.066 220.963 103.024 219.965 104.366C217.172 108.12 203.287 109.491 198.491 110.214C198.3 117.305 198.019 124.536 196.819 131.53C201.495 135.908 210.668 138.949 214.072 143.381C215.203 144.853 215.325 146.557 215.099 148.35C214.623 152.116 206.694 169.137 204.017 171.156C202.738 172.121 200.736 172.872 199.123 172.779C196.245 172.612 191.619 170.059 188.814 168.935C185.926 167.777 183.115 166.867 180.02 166.449C179.022 167.786 178.091 169.143 176.913 170.334C173.385 173.9 168.949 176.68 165.734 180.554C167.179 185.949 170.377 190.845 171.779 196.258C172.358 198.493 172.483 200.916 171.222 202.962C169.164 206.3 152.953 213.099 148.586 214.647C147.03 215.199 145.416 215.573 143.808 215.941L143.698 215.89C137.682 213.047 135.268 206.881 132.164 201.373C131.279 199.802 130.402 198.135 129.086 196.879C126.94 196.926 124.836 197.551 122.695 197.735C111.802 199.35 101.313 198.965 90.5417 196.631C89.1285 199.647 83.3303 210.041 81.3202 212.374C80.3638 213.483 79.2664 214.214 78.0363 214.981C76.5705 215.076 75.1633 215.063 73.7337 214.705C69.4793 213.64 56.8822 208.027 53.2791 205.56C51.6023 204.411 50.0115 202.909 48.9862 201.139C48.4537 200.219 48.1047 199.244 48.1091 198.172C48.1299 193 53.4539 184.662 54.9468 179.15C50.1975 175.267 44.9748 169.513 41.3936 164.53C35.8496 166.072 26.4714 172.204 21.279 171.882C19.5745 171.776 18.0189 170.404 16.9557 169.157C14.8422 166.679 7.99953 153.18 6.74594 149.691C6.27758 148.388 5.89698 147.103 6.02403 145.698C6.15787 144.217 6.84162 142.289 7.81613 141.142C10.4985 137.983 15.3895 135.92 18.8971 133.704C20.7353 132.542 22.4172 131.219 24.0881 129.833C24.074 127.507 23.2274 111.5 22.3694 110.002C20.6679 108.486 13.798 107.754 11.1959 107.142C7.81543 106.349 3.96817 105.341 2.0525 102.15C1.36806 101.01 1.03208 99.7721 1.05904 98.4474C1.14438 94.2554 2.96144 89.3679 3.92371 85.2521C4.51582 82.7195 4.87745 80.1283 5.54546 77.6145C6.18061 75.2243 7.31241 72.1385 9.59778 70.8614C14.0649 68.365 26.6783 71.972 31.4438 73.2971C32.9295 71.5657 33.9803 69.2764 35.1348 67.3095C36.8885 64.3216 38.6217 61.6552 40.7371 58.925C41.301 58.1973 41.9127 57.4803 42.302 56.6398C43.2982 54.4893 36.241 45.1947 34.8527 42.7967C33.6934 40.7941 32.7986 38.7985 31.9971 36.6349C32.6599 34.8274 33.4539 33.432 34.7568 32.0167C37.7274 28.7902 48.7875 19.8206 52.5282 17.6694C53.9197 16.8692 55.4981 16.1432 57.1279 16.1C61.5272 15.9832 65.98 23.0478 68.6293 25.9827C70.4071 27.9522 72.3031 29.7992 74.2234 31.6283C76.6867 30.6553 79.0873 29.5333 81.5734 28.6193C85.3432 27.2334 89.2408 26.1111 93.0725 24.9048C92.8075 19.7912 92.5936 10.4998 94.6069 5.90458C95.7449 3.30706 97.4192 2.0707 99.9636 1.07029ZM114.403 132.168C125.597 130.376 133.21 119.836 131.393 108.646C129.575 97.4553 119.019 89.866 107.832 91.708C96.6812 93.5442 89.1208 104.061 90.9323 115.216C92.7438 126.371 103.243 133.955 114.403 132.168Z"/><path fill="#C99356" transform="scale(6.31957 6.31957)" d="M107.141 8.10756C111.863 7.87921 117.37 7.7548 121.894 9.21021C121.901 9.25244 121.909 9.29459 121.915 9.3369C122.81 15.2806 121.577 25.2117 123.811 30.3042C127.518 33.3742 133.093 34.0552 137.481 35.8959C140.553 37.1845 144.349 39.8452 147.346 40.6269C148.49 40.925 149.603 40.485 150.564 39.8801C155.965 36.4804 160.542 28.4163 166.491 25.0003C171.515 27.3957 179.679 33.8179 183.197 38.0505C179.665 44.6788 173.357 49.9087 170.781 57.0259C171.958 60.2205 177.316 66.1485 179.658 69.8505C181.821 73.27 183.089 77.266 185.331 80.5627C185.913 81.4184 186.748 81.9541 187.602 82.5064C189.562 82.492 191.574 81.9065 193.491 81.5164C196.267 80.9516 207.616 79.0445 209.803 80.5731C211.178 81.5339 213.107 97.5279 213.656 100.377C207.573 101.82 201.373 102.626 195.257 103.886C194.008 104.143 192.356 104.484 191.63 105.64C190.506 107.429 190.992 111.198 191.014 113.228C191.041 115.729 190.993 118.174 190.727 120.664C190.396 123.767 188.577 131.745 189.235 134.419C189.454 135.31 189.984 136.04 190.67 136.633C194.199 139.676 203.772 143.768 208.444 146.599C206.889 151.758 203.922 158.238 201.271 162.951C200.947 163.527 200.409 164.489 199.755 164.673C196.258 165.655 181.892 156.908 178.797 157.87C177.95 158.133 177.194 158.774 176.556 159.37C175.177 160.658 174.151 162.233 172.883 163.618C170.181 166.567 166.991 169.397 163.789 171.794C161.931 173.184 158.043 175.223 157.053 177.273C156.711 177.981 156.968 178.922 157.184 179.628C158.06 182.505 159.621 185.363 160.85 188.107C162.432 191.63 163.851 195.224 165.103 198.878C161.594 202.428 149.645 205.923 144.397 207.979C140.873 202.495 137.023 191.736 131.371 188.846C127.215 188.916 122.962 189.971 118.81 190.436C112.62 191.097 106.361 191.281 100.192 190.346C96.3376 189.763 92.457 188.743 88.5604 188.592C83.8347 190.396 79.9552 202.747 75.0644 207.194C70.7573 205.632 61.2937 201.841 57.9511 199.145C57.3671 198.674 56.8069 198.15 56.6326 197.392C55.567 192.757 64.0271 182.248 63.43 176.47C61.3006 172.921 56.7149 170.232 53.7471 167.291C51.1269 164.695 48.8434 161.73 46.13 159.234C45.2152 158.392 44.2627 157.62 43.1415 157.07C40.5334 155.791 26.7517 163.185 23.2712 164.393C20.5185 161.267 15.7719 152.557 14.6056 148.571C14.3399 147.662 14.0516 146.34 14.5171 145.451C16.2577 142.128 29.9774 137.693 32.2071 133.475C32.7426 132.462 32.8881 131.14 32.8961 130.001C32.9208 126.446 32.0717 122.774 31.8392 119.205C31.539 114.598 32.7619 109.395 31.3193 104.984C27.068 100.494 16.6177 101.547 11.0869 98.9255C10.5001 98.6473 9.7876 98.1842 9.57184 97.5488C9.12145 96.2224 12.2122 80.2475 13.0288 78.6228C15.1055 74.4912 31.1016 81.8334 35.0825 80.3239C36.8043 79.6711 38.1595 76.741 39.0199 75.2294C40.8531 72.0092 42.6869 68.7929 44.8758 65.795C46.8233 63.1276 49.9441 60.6778 51.2138 57.6154C51.5436 56.8199 51.5707 56.0062 51.3166 55.1857C49.8108 50.3219 42.7348 42.9528 40.318 37.2951C42.1792 34.3283 54.102 25.7863 57.5476 24.2433C61.2231 27.1189 69.8699 38.6954 72.2924 39.8938C72.8706 40.1798 74.6292 39.6753 75.2875 39.4763C77.7811 38.7227 80.1775 37.4529 82.6268 36.5352C85.8667 35.3212 89.219 34.4075 92.5123 33.3515C93.8134 32.9342 95.2871 32.5038 96.396 31.6782C102.777 26.9277 98.4918 15.5761 101.777 9.18268C103.151 8.04675 105.427 8.20601 107.141 8.10756ZM114.403 132.168C125.597 130.376 133.21 119.836 131.393 108.646C129.575 97.4553 119.019 89.866 107.832 91.708C96.6812 93.5442 89.1208 104.061 90.9323 115.216C92.7438 126.371 103.243 133.955 114.403 132.168Z"/><path fill="#603E1D" transform="scale(6.31957 6.31957)" d="M105.372 58.9156C134.615 55.7498 160.863 76.9521 163.917 106.207C166.972 135.462 145.67 161.629 116.403 164.572C87.2939 167.499 61.298 146.337 58.2599 117.239C55.2218 88.1407 76.2855 62.0645 105.372 58.9156ZM114.403 132.168C125.597 130.376 133.21 119.836 131.393 108.646C129.575 97.4553 119.019 89.866 107.832 91.708C96.6812 93.5442 89.1208 104.061 90.9323 115.216C92.7438 126.371 103.243 133.955 114.403 132.168Z"/><path fill="#C99356" transform="scale(6.31957 6.31957)" d="M109.296 64.376C135.347 63.5545 157.14 83.9921 157.991 110.043C158.841 136.094 138.428 157.909 112.378 158.789C86.287 159.67 64.4296 139.217 63.5777 113.125C62.7258 87.0334 83.2027 65.1988 109.296 64.376ZM114.403 132.168C125.597 130.376 133.21 119.836 131.393 108.646C129.575 97.4553 119.019 89.866 107.832 91.708C96.6812 93.5442 89.1208 104.061 90.9323 115.216C92.7438 126.371 103.243 133.955 114.403 132.168Z"/><path fill="#603E1D" transform="scale(6.31957 6.31957)" d="M108.275 83.5493C123.785 82.0612 137.578 93.3977 139.122 108.903C140.665 124.408 129.378 138.241 113.879 139.84C98.3008 141.447 84.3821 130.09 82.8307 114.507C81.2793 98.923 92.6858 85.045 108.275 83.5493ZM114.403 132.168C125.597 130.376 133.21 119.836 131.393 108.646C129.575 97.4553 119.019 89.866 107.832 91.708C96.6812 93.5442 89.1208 104.061 90.9323 115.216C92.7438 126.371 103.243 133.955 114.403 132.168Z"/></svg>