<?xml version="1.0" encoding="utf-8" ?><svg xmlns="http://www.w3.org/2000/svg" xmlns:xlink="http://www.w3.org/1999/xlink" width="86" height="83" viewBox="0 0 86 83"><path fill="#632116" d="M43.9846 15.2343C44.4998 14.5058 45.0454 13.7593 45.6415 13.0957C47.8183 10.7173 50.8404 9.28668 54.0597 9.11057C57.2737 8.93863 60.4234 10.056 62.8105 12.2148C66.4235 15.4834 68.11 20.4104 67.7891 25.2114C67.7173 26.2842 67.1164 27.2666 67.171 28.317C68.5993 29.2642 70.0329 30.21 71.3632 31.2931C75.4185 34.5946 77.8172 39.4026 78.3443 44.608C78.8218 49.3239 77.6938 53.9944 74.6588 57.6953C70.6965 62.527 65.6608 63.3012 59.8125 63.8893C58.6236 66.5085 56.9471 68.5683 54.7988 70.4603C52.7637 72.0468 50.3106 73.0062 47.7391 73.2212C44.5797 73.4739 41.4986 72.5785 39.0826 70.4995C36.4134 68.2027 35.1416 65.2978 34.8782 61.8408C32.9539 63.4958 30.5665 64.4178 28.0405 64.6079C24.1232 64.9026 20.3051 63.7205 17.3301 61.141C14.3648 58.5469 12.564 54.8718 12.3311 50.9388C12.1241 47.8795 13.0461 44.8503 15.0814 42.5326C17.2478 40.0657 19.6443 39.3082 22.8032 39.0999C19.6374 35.7718 17.4742 31.3425 17.1369 26.7339C16.8195 22.3971 18.3293 18.3155 21.1588 15.048C24.1656 11.5758 28.1656 9.42931 32.7425 9.09361C33.9436 9.11308 35.1249 9.16084 36.3085 9.38119C39.8941 10.0487 41.9958 12.3373 43.9846 15.2343Z"/><path fill="#FA8349" d="M22.0443 28.9659C21.7572 25.0915 22.3054 21.7482 24.9169 18.713C27.0045 16.3191 29.9591 14.8544 33.1283 14.6422C35.5961 14.4602 37.5536 15.1434 39.4137 16.754C41.3066 18.3929 43.1764 20.4237 44.7901 22.3333C46.5345 19.2672 48.9755 15.932 52.5589 14.9481C54.5267 14.4243 56.6224 14.7095 58.3787 15.7402C60.2968 16.8535 61.6952 18.6822 62.2669 20.825C62.8464 22.9877 62.5954 25.1437 61.4643 27.0821C60.4571 28.8083 57.5445 31.0375 56.9561 32.3276C61.8857 32.3343 65.4444 32.1954 69.1135 35.8871C71.7652 38.5551 73.6478 41.9651 73.6363 45.7988C73.6257 49.3489 72.0619 52.7698 69.5584 55.2557C67.3336 57.4648 64.4317 58.8918 61.2629 58.8674C59.9109 58.857 58.7533 58.7174 57.5647 58.0408C57.2689 58.3229 56.7934 58.6792 56.6127 59.0383C56.7358 60.0067 56.7551 60.89 56.4868 61.8381C55.9491 63.7387 54.4003 65.2164 52.7148 66.1455C50.4898 67.3722 47.7335 67.8238 45.2713 67.1099C39.6784 65.4881 38.173 58.1968 35.6473 53.6371C34.1296 55.789 31.9925 57.7485 29.4174 58.497C27.131 59.1616 24.5135 58.8576 22.4292 57.7121C19.4993 56.102 17.6045 52.927 16.6927 49.8005C18.6068 43.3032 24.2647 42.6738 28.9832 38.3769C29.1415 37.8163 28.8023 37.8014 28.3657 37.4887C25.2674 35.2704 22.9258 32.7717 22.0443 28.9659Z"/><path fill="#9F2520" d="M56.6127 59.0383C55.8761 58.5547 55.0964 56.5031 54.8318 55.629C54.6505 55.03 54.5533 54.3203 54.8607 53.7507L55.3165 53.8784C56.3874 54.9902 56.9467 56.6444 57.5647 58.0408C57.2689 58.3229 56.7934 58.6792 56.6127 59.0383Z"/><path fill="#F9B77C" d="M33.4297 37.238L33.5079 37.1168C35.812 33.5565 38.6567 31.2284 42.8636 30.337C47.7309 29.3056 48.8808 29.0219 53.1564 31.8017C53.5767 32.2595 54.0229 32.7107 54.3661 33.2305L54.8267 34.6914C54.8333 34.708 54.8396 34.7246 54.8463 34.7412C55.126 35.4314 55.7022 35.611 56.024 36.1414C56.6478 37.1697 56.2956 39.2641 56.6107 40.5096C57.2973 41.1024 57.8142 41.9208 58.35 42.6477C58.2069 43.264 58.0573 43.886 57.8575 44.4866C56.6534 48.1051 53.7257 51.1126 50.3347 52.786C47.2849 54.291 43.3124 54.5076 40.1004 53.4C37.2732 52.4251 35.0637 50.4551 33.7584 47.7698C32.0479 44.2509 32.1761 40.8591 33.4297 37.238Z"/><path fill="#D24428" d="M33.4297 37.238L33.5079 37.1168C35.812 33.5565 38.6567 31.2284 42.8636 30.337C47.7309 29.3056 48.8808 29.0219 53.1564 31.8017C52.7142 32.2934 52.3454 32.7625 52.0203 33.3394C50.6984 32.0117 46.7538 31.8508 44.9832 31.851C41.9204 31.8514 39.0599 32.8818 36.8817 35.0706C34.9773 36.9842 33.9567 39.4018 33.9687 42.1043C33.9816 45.0271 35.0058 48.0185 37.1089 50.0966C39.2171 52.1799 41.9274 52.8103 44.8126 52.78C47.8272 52.7484 50.5921 51.9027 52.7316 49.7016C54.3565 48.03 55.8609 45.2223 55.7998 42.8337C55.7876 42.3593 55.722 41.8801 55.6543 41.4109C55.7702 41.0517 56.3163 40.7369 56.6107 40.5096C57.2973 41.1024 57.8142 41.9208 58.35 42.6477C58.2069 43.264 58.0573 43.886 57.8575 44.4866C56.6534 48.1051 53.7257 51.1126 50.3347 52.786C47.2849 54.291 43.3124 54.5076 40.1004 53.4C37.2732 52.4251 35.0637 50.4551 33.7584 47.7698C32.0479 44.2509 32.1761 40.8591 33.4297 37.238Z"/><path fill="#D24428" d="M54.8267 34.6914C54.8333 34.708 54.8396 34.7246 54.8463 34.7412C55.126 35.4314 55.7022 35.611 56.024 36.1414C56.6478 37.1697 56.2956 39.2641 56.6107 40.5096C56.3163 40.7369 55.7702 41.0517 55.6543 41.4109C55.2837 40.2121 55.2704 38.9335 55.2027 37.6887L54.8762 36.7288C54.8351 36.0299 54.755 35.624 54.3173 35.0675L54.8267 34.6914Z"/><path fill="#9F2520" d="M53.1564 31.8017C53.5767 32.2595 54.0229 32.7107 54.3661 33.2305L54.8267 34.6914L54.3173 35.0675C53.3336 34.681 52.7102 34.1112 52.0203 33.3394C52.3454 32.7625 52.7142 32.2934 53.1564 31.8017Z"/><path fill="#E66936" d="M55.2027 37.6887C54.2291 38.2368 53.1969 38.8672 52.0406 38.6891L51.9702 38.3254C52.6115 37.4873 53.9175 37.1187 54.8762 36.7288L55.2027 37.6887Z"/><path fill="#E66936" d="M51.6488 61.7098C52.078 61.7114 52.4191 61.7977 52.8237 61.9242L53.0377 62.381C52.6361 63.1711 51.9209 63.4158 51.1553 63.753C50.957 63.7655 50.8228 63.6615 50.659 63.5639C50.6511 63.5161 50.6456 63.469 50.6469 63.4203C50.6686 62.6373 51.1194 62.2301 51.6488 61.7098Z"/></svg>