<?xml version="1.0" encoding="utf-8" ?><svg xmlns="http://www.w3.org/2000/svg" xmlns:xlink="http://www.w3.org/1999/xlink" width="104" height="103" viewBox="0 0 104 103"><path fill="#5B130F" d="M43.4301 12.0534C47.4116 11.9271 50.8841 11.9412 54.274 14.3542C59.2331 17.8844 61.6503 24.5966 62.6162 30.394C62.6667 30.4443 62.9276 30.7408 62.9705 30.7471C63.4504 30.8176 64.6991 30.4018 65.2654 30.318C67.6472 29.971 70.0739 30.0963 72.4072 30.6867C76.922 31.8211 80.663 34.7226 83.0467 38.7087C85.0261 42.0185 85.9823 46.2676 85.021 50.0568C84.0797 53.7673 81.3515 56.9275 78.0925 58.8494C73.9887 61.2694 70.3846 61.2693 65.8877 60.1155C66.5674 63.3482 66.6994 66.4097 65.832 69.6261C64.6641 73.9565 62.3039 77.286 58.4035 79.5336C56.8176 80.2302 55.1004 80.6731 53.3936 80.9425C49.7552 81.5167 45.9284 81.1602 42.8792 78.9392C39.6779 76.6074 38.2728 73.1368 37.6745 69.3393C35.3356 69.625 32.8721 69.9113 30.53 69.5756C26.7477 69.0334 23.3876 66.5441 21.1393 63.5423C18.4275 59.9217 17.5437 55.6932 18.1962 51.246C18.8059 47.09 20.9004 42.7082 24.3386 40.167C27.3757 37.9222 30.4691 37.8184 34.0803 38.3584C33.7564 37.5383 33.4828 36.6992 33.2607 35.8459C31.8048 30.3424 31.951 23.7925 34.8852 18.7804C36.7653 15.5689 39.7971 12.9956 43.4301 12.0534Z"/><path fill="#F5854D" d="M40.8684 42.4899C37.9739 36.7025 35.5068 30.2578 37.6605 23.7704C38.4512 21.3888 39.9648 19.2422 42.243 18.0911C44.2101 17.0972 46.6654 16.8938 48.7509 17.6006C51.8525 18.6517 54.1836 21.5534 55.5752 24.4043C58.1634 29.7065 57.4079 34.6427 57.8642 40.2486C61.3593 37.5289 64.6621 34.2658 69.4623 34.8393C72.436 35.1946 75.0204 37.1377 76.8109 39.4529C78.6179 41.7895 79.7095 44.6147 79.325 47.5962C79.0068 50.0635 77.7234 52.4654 75.7372 53.9859C73.7117 55.5365 70.8721 56.2564 68.3465 55.915C64.4988 55.3948 61.114 52.7373 57.3107 51.7647C59.7629 57.1744 63.6916 62.9689 61.3799 69.1153C60.4154 71.7273 58.4508 73.8478 55.9199 75.0087C53.4528 76.1206 50.2347 76.3121 47.6923 75.3398C45.633 74.5465 43.9801 72.9569 43.1069 70.9302C42.0915 68.5851 43.1832 60.1313 43.2131 56.9498C40.2859 59.9987 36.6804 63.8525 32.1348 63.9593C30.1609 64.0057 28.3193 63.234 26.9052 61.868C24.5546 59.5973 23.4976 56.0007 23.4533 52.8058C23.4258 50.8224 23.924 47.136 25.5425 45.7619C25.5635 45.744 25.5873 45.7296 25.6096 45.7135C26.0682 44.9634 26.5812 44.3606 27.2419 43.7875C28.6025 42.6072 29.9151 42.2725 31.6626 42.3933C35.1263 43.0845 37.9269 45.291 40.7274 47.308C40.9054 46.5674 40.7389 45.6273 40.7859 44.8444L40.8512 45.0178C41.0817 44.1989 40.9326 43.3274 40.8684 42.4899Z"/><path fill="#F0A764" d="M25.6096 45.7135C26.0682 44.9634 26.5812 44.3606 27.2419 43.7875C28.6025 42.6072 29.9151 42.2725 31.6626 42.3933C31.4229 43.3409 31.3246 44.189 31.3249 45.1662C30.4795 45.8649 29.6875 46.4313 28.7091 46.9375C28.4953 47.0539 28.3217 46.9712 28.0878 46.9289C27.5611 46.333 27.657 45.1755 27.6248 44.408C26.8252 44.6754 26.5867 45.1633 26.081 45.8038L25.6096 45.7135Z"/><path fill="#EFB180" d="M28.7091 46.9375C28.3039 46.6068 28.2243 46.0216 28.1742 45.5255C28.0976 44.7666 28.402 44.3836 28.8492 43.8354C29.3628 43.6517 29.6607 43.4835 30.2126 43.7124C30.8844 43.991 31.068 44.5518 31.3249 45.1662C30.4795 45.8649 29.6875 46.4313 28.7091 46.9375Z"/><path fill="#761C15" d="M40.8684 42.4899C41.9753 44.3193 42.8739 46.3375 42.547 48.5251C42.3775 48.7575 42.3214 48.937 42.0313 49.0019L41.5757 48.6389L42.0315 48.9923C41.3758 48.6154 41.0803 47.9475 40.7274 47.308C40.9054 46.5674 40.7389 45.6273 40.7859 44.8444L40.8512 45.0178C41.0817 44.1989 40.9326 43.3274 40.8684 42.4899Z"/><path fill="#EFB180" d="M30.2977 55.7604C31.1362 54.5464 31.2105 52.9881 32.04 51.8764C32.508 51.2493 33.1907 51.0411 33.9292 50.9234C34.1229 51.7035 34.1593 52.1726 33.8831 52.9352C34.5255 54.654 37.0036 54.1304 35.8094 56.754C35.64 57.1261 35.4281 57.4759 35.2556 57.8468C34.9999 58.3618 34.8039 58.6404 34.3167 58.9737C32.8984 58.9193 31.3882 56.7329 30.2977 55.7604Z"/><path fill="#F0A764" d="M33.9292 50.9234C34.1229 51.7035 34.1593 52.1726 33.8831 52.9352C34.5255 54.654 37.0036 54.1304 35.8094 56.754C35.64 57.1261 35.4281 57.4759 35.2556 57.8468C34.6615 57.2146 33.8519 57.3452 33.2963 56.5387C32.2073 54.9581 33.6041 52.7172 33.9292 50.9234Z"/><path fill="#F0A764" d="M52.8722 58.5835C53.36 58.7134 53.8053 59.2911 54.1187 59.6646C54.7343 60.3984 55.1032 60.9451 55.0027 61.9258C54.8731 63.1911 53.9513 63.7457 53.0344 64.4769C52.1943 64.0094 51.1535 63.551 50.8265 62.5899C50.7491 61.1754 52.1078 59.7111 52.8722 58.5835Z"/><path fill="#EFB180" d="M69.5299 45.1577C70.1492 45.5221 70.447 45.9184 70.8254 46.52C70.8969 48.0942 69.1722 49.1792 68.2474 50.4087C67.9458 50.5018 67.6313 50.4181 67.3274 50.3685L67.1055 49.89C67.5402 48.3062 68.7815 46.6461 69.5299 45.1577Z"/><path fill="#EFB180" d="M46.5326 36.474C45.9737 36.2487 45.6099 36.0812 45.2299 35.5872C45.225 35.3636 45.1568 34.9073 45.2362 34.7143C45.514 34.0395 45.976 33.5752 46.6579 33.2935C47.2465 33.0502 47.3955 33.0873 47.9867 33.3271C48.2296 34.3159 48.5345 35.1313 48.3203 36.1554C47.9176 36.518 47.7395 36.7065 47.1543 36.6552C46.9476 36.637 46.7259 36.548 46.5326 36.474Z"/><path fill="#F0A764" d="M47.9867 33.3271C48.2296 34.3159 48.5345 35.1313 48.3203 36.1554C47.9176 36.518 47.7395 36.7065 47.1543 36.6552C46.9476 36.637 46.7259 36.548 46.5326 36.474C46.9761 35.3995 47.407 34.3375 47.9867 33.3271Z"/><path fill="#EFB180" d="M47.5222 24.6041C47.5978 24.6284 47.6712 24.6553 47.7421 24.6916C48.1036 24.8768 48.6054 25.5171 48.7232 25.9031C48.862 26.3578 48.8044 26.6194 48.5696 27.0323C48.112 27.8371 46.8772 28.0165 46.0464 28.2345C45.8288 28.3802 45.6841 28.3558 45.4329 28.3653C45.4061 27.5814 47.0674 25.5001 47.5222 24.6041Z"/></svg>