<?xml version="1.0" encoding="utf-8" ?><svg xmlns="http://www.w3.org/2000/svg" xmlns:xlink="http://www.w3.org/1999/xlink" width="118" height="189" viewBox="0 0 118 189"><path fill="#6E4205" d="M0 105.04C0.0109147 105.022 0.022084 105.004 0.0327442 104.987C0.193552 104.717 0.334486 104.423 0.401741 104.116C0.889564 101.887 1.02605 99.4446 1.4093 97.1748C2.28758 91.9733 3.38066 86.6135 4.66022 81.4965C6.0431 75.9664 8.08659 70.6784 9.9789 65.3135C16.8873 45.7271 32.0639 7.96408 54.1369 2.15127C59.4582 0.749948 64.4549 1.38366 69.2618 4.18601C73.0956 6.42102 76.2212 9.81925 79.12 13.1269C91.2765 26.9978 98.3476 42.5895 104.654 59.7779C106.627 65.154 108.713 70.7061 110.163 76.2455C110.762 78.5354 111.065 80.9318 111.519 83.2555C112.154 86.503 112.9 89.7273 113.526 92.9775C116.651 109.186 120.567 128.772 111.689 143.94C104.684 155.907 94.5486 159.949 82.1291 164.375C81.9524 165.861 81.6088 167.326 81.4744 168.811C81.0264 173.763 81.1495 179.987 76.8266 183.393C72.2247 187.019 59.6945 187.365 53.994 186.665C50.9349 186.289 47.5839 185.333 45.6124 182.784C43.0411 179.46 43.3922 169.823 42.4358 165.177C28.3038 161.593 16.3244 155.294 8.60474 142.311C5.02976 136.298 2.9901 129.814 1.59027 123.005C1.15159 120.871 0.807418 113.012 0 111.961L0 105.04Z"/><path fill="#909E22" d="M61.3182 9.148C61.3402 9.14642 61.362 9.14295 61.384 9.14327C64.0097 9.18193 70.249 14.1099 72.1563 16.0684C86.1669 30.4552 97.0135 58.1984 102.426 77.3785C103.791 82.2171 104.792 87.1868 105.876 92.0952C107.961 101.541 109.87 111.373 109.746 121.088C109.633 129.913 107.826 139.33 101.246 145.724C95.4864 151.32 83.4132 156.474 75.4632 157.612C72.8562 157.968 70.2394 158.248 67.6161 158.453C66.1289 158.56 64.4977 158.524 63.0349 158.777C62.4946 158.87 62.0217 159.459 61.5754 159.537C61.5031 159.55 57.4859 158.956 56.6878 158.943C56.667 158.944 56.6461 158.946 56.6253 158.945C45.5341 158.441 35.8085 156.087 26.4959 149.799C24.1922 148.243 21.9087 146.639 19.9336 144.671C11.2284 135.997 8.10543 122.241 8.11 110.334C8.11962 85.3172 26.8933 34.836 44.7712 17.0602C49.7326 12.1271 54.2151 9.12813 61.3182 9.148Z"/><path fill="#ABB43C" d="M56.0651 27.4883C56.4058 26.8472 56.4999 26.6431 57.137 26.2447C57.6687 26.3533 57.8946 26.3895 58.1996 26.8897C58.2969 27.0492 58.3477 27.2544 58.3958 27.4338C58.6465 27.2752 58.7859 27.1032 59.0886 27.1693C60.0928 27.3883 61.2057 28.4352 61.9956 29.0733C67.1656 33.2499 71.3711 38.4738 74.8668 44.1026C78.6447 50.1861 82.3102 56.4027 85.4598 62.8361C86.6992 65.3676 87.708 67.9817 88.8861 70.5357C89.647 72.1852 91.1854 74.5392 91.3609 76.3214C92.0563 76.7608 92.0612 77.3576 92.2351 78.1291C92.4125 78.9168 92.5914 79.8921 92.3791 80.6834C93.1861 82.3558 93.6654 86.1763 94.1722 88.1596C95.6593 93.9788 100.734 109.481 100.468 114.778C101.069 116.281 99.8997 119.247 99.3932 120.723C100.248 122.459 99.2013 125.727 98.5989 127.491C95.8676 135.487 89.6732 141.402 82.1856 145.059C78.7924 146.717 74.955 148.11 71.3141 149.113C68.9345 149.768 66.6107 149.986 64.3646 151.069C64.1751 151.341 63.8619 151.483 63.5547 151.583C62.5531 151.906 60.5913 152.036 59.6715 151.526C59.2395 151.287 59.2367 151.033 59.1093 150.592L58.7441 150.946C56.01 150.387 53.1109 150.484 50.3446 150.09C48.4865 149.826 46.4577 149.084 44.6377 148.584C35.8199 146.158 26.8464 139.226 22.3277 131.24C20.4177 127.864 18.8307 123.778 18.2491 119.929C16.5127 108.438 20.9656 93.003 24.0247 81.9483C28.6839 65.111 40.179 36.4852 56.0651 27.4883Z"/><path fill="#ABB43C" d="M56.0651 27.4883C56.4058 26.8472 56.4999 26.6431 57.137 26.2447C57.6687 26.3533 57.8946 26.3895 58.1996 26.8897C58.2969 27.0492 58.3477 27.2544 58.3958 27.4338C58.6465 27.2752 58.7859 27.1032 59.0886 27.1693C60.0928 27.3883 61.2057 28.4352 61.9956 29.0733C67.1656 33.2499 71.3711 38.4738 74.8668 44.1026C78.6447 50.1861 82.3102 56.4027 85.4598 62.8361C86.6992 65.3676 87.708 67.9817 88.8861 70.5357C89.647 72.1852 91.1854 74.5392 91.3609 76.3214C89.493 79.4764 87.3316 82.4632 85.1912 85.4367C79.0128 94.0201 72.5682 101.558 62.6423 105.938C62.419 103.019 62.4965 100.06 62.3096 97.1317L60.4446 68.8047C61.3618 68.7484 62.2588 68.7753 63.0364 68.2297C67.4868 65.1073 75.1533 55.0663 76.0128 49.694C76.0988 49.1566 76.1042 48.9827 75.7823 48.5404C75.5559 48.5551 75.336 48.5972 75.1301 48.6969C74.3804 49.0602 73.6907 49.7529 73.1634 50.3844C71.564 52.2996 70.4491 54.5974 68.901 56.5731C66.514 59.6194 63.6268 62.3699 61.4369 65.5555C60.8586 66.3968 60.5092 67.3783 60.1672 68.3341C60.6229 58.5461 59.6609 48.4473 59.0276 38.6689C58.8974 36.6589 59.1366 33.906 58.5219 32.045L58.4665 31.8252C57.5497 32.1433 57.2391 31.9113 56.3187 31.8132C56.1128 30.4176 56.1399 28.9023 56.0651 27.4883Z"/><path fill="#745C04" d="M56.0651 27.4883C56.4058 26.8472 56.4999 26.6431 57.137 26.2447C57.6687 26.3533 57.8946 26.3895 58.1996 26.8897C58.2969 27.0492 58.3477 27.2544 58.3958 27.4338C58.4754 28.9042 58.5083 30.353 58.4665 31.8252C57.5497 32.1433 57.2391 31.9113 56.3187 31.8132C56.1128 30.4176 56.1399 28.9023 56.0651 27.4883Z"/><path fill="#ABB43C" d="M92.3791 80.6834C93.1861 82.3558 93.6654 86.1763 94.1722 88.1596C95.6593 93.9788 100.734 109.481 100.468 114.778C97.9597 119.221 94.4812 123.79 91.2007 127.736C84.9892 135.208 73.8305 143.496 63.8306 144.413C63.5035 132.989 63.1139 121.566 62.662 110.146C76.452 104.454 85.0112 93.0873 92.3791 80.6834Z"/><path fill="#745C04" d="M58.4665 31.8252L58.5219 32.045C59.1366 33.906 58.8974 36.6589 59.0276 38.6689C59.6609 48.4473 60.6229 58.5461 60.1672 68.3341C60.5092 67.3783 60.8586 66.3968 61.4369 65.5555C63.6268 62.3699 66.514 59.6194 68.901 56.5731C70.4491 54.5974 71.564 52.2996 73.1634 50.3844C73.6907 49.7529 74.3804 49.0602 75.1301 48.6969C75.336 48.5972 75.5559 48.5551 75.7823 48.5404C76.1042 48.9827 76.0988 49.1566 76.0128 49.694C75.1533 55.0663 67.4868 65.1073 63.0364 68.2297C62.2588 68.7753 61.3618 68.7484 60.4446 68.8047L62.3096 97.1317C62.4965 100.06 62.419 103.019 62.6423 105.938C72.5682 101.558 79.0128 94.0201 85.1912 85.4367C87.3316 82.4632 89.493 79.4764 91.3609 76.3214C92.0563 76.7608 92.0612 77.3576 92.2351 78.1291C92.4125 78.9168 92.5914 79.8921 92.3791 80.6834C85.0112 93.0873 76.452 104.454 62.662 110.146C63.1139 121.566 63.5035 132.989 63.8306 144.413C73.8305 143.496 84.9892 135.208 91.2007 127.736C94.4812 123.79 97.9597 119.221 100.468 114.778C101.069 116.281 99.8997 119.247 99.3932 120.723C100.248 122.459 99.2013 125.727 98.5989 127.491C95.8676 135.487 89.6732 141.402 82.1856 145.059C78.7924 146.717 74.955 148.11 71.3141 149.113C68.9345 149.768 66.6107 149.986 64.3646 151.069C64.1751 151.341 63.8619 151.483 63.5547 151.583C62.5531 151.906 60.5913 152.036 59.6715 151.526C59.2395 151.287 59.2367 151.033 59.1093 150.592L59.6986 148.207C59.9107 148.018 60.0902 147.819 60.2191 147.562C60.778 146.45 60.5215 145.471 60.1412 144.349C59.6382 141.928 59.864 138.805 59.7589 136.297C59.3996 127.724 59.543 118.934 58.7883 110.403C57.6964 110.23 56.5996 109.985 55.5307 109.704C45.3877 107.038 33.486 95.9581 28.2198 86.8807C26.5339 83.9748 26.42 81.7613 27.2598 78.5941C27.837 79.6025 28.4253 80.6045 29.0246 81.5999C32.8705 87.9508 43.1111 99.2573 49.6904 103.063C52.5752 104.732 55.7377 105.636 58.9523 106.427C58.7367 95.566 57.9127 84.7743 57.367 73.933C57.2065 70.7455 56.7049 67.6721 56.7173 64.4595C56.5905 64.4116 56.4647 64.3607 56.3402 64.3069C53.2535 62.971 45.3886 55.0642 44.1857 52.0083C43.8394 51.1287 43.57 49.8936 43.9893 48.9917C44.2157 48.5045 44.3849 48.5039 44.8625 48.3263C47.2445 49.3444 54.2785 57.6944 56.8214 60.0024C56.2756 56.0688 56.0991 46.7554 56.2787 42.6135C56.0556 39.0454 56.1499 35.3835 56.3187 31.8132C57.2391 31.9113 57.5497 32.1433 58.4665 31.8252Z"/><path fill="#ABB43C" d="M99.3932 120.723C100.248 122.459 99.2013 125.727 98.5989 127.491C95.8676 135.487 89.6732 141.402 82.1856 145.059C78.7924 146.717 74.955 148.11 71.3141 149.113C68.9345 149.768 66.6107 149.986 64.3646 151.069C64.3368 150.091 64.1442 149.111 63.9925 148.146C67.0675 147.57 69.9677 146.896 72.8811 145.712C84.9419 140.811 94.2556 132.868 99.3932 120.723Z"/><path fill="#6E4205" d="M58.4665 31.8252L58.5219 32.045C58.5239 32.9603 58.6797 34.1992 58.1056 34.9576C57.6275 35.1634 57.011 35.258 56.8082 35.7485C55.9228 37.8894 57.2699 40.483 56.2787 42.6135C56.0556 39.0454 56.1499 35.3835 56.3187 31.8132C57.2391 31.9113 57.5497 32.1433 58.4665 31.8252Z"/><path fill="#745C04" d="M19.9512 116.86C21.6635 119.031 22.9603 121.516 24.412 123.863C27.5903 129.002 31.54 133.542 36.368 137.208C42.2911 141.705 52.673 145.381 60.1412 144.349C60.5215 145.471 60.778 146.45 60.2191 147.562C60.0902 147.819 59.9107 148.018 59.6986 148.207C51.2015 148.331 41.5875 145.57 34.6925 140.621C26.5741 134.794 21.5741 126.709 19.9512 116.86Z"/><path fill="#CC7648" d="M73.5454 166.346C74.0988 166.233 74.5271 166.116 75.067 166.36C75.3757 169.133 74.346 175.332 73.5896 178.091C72.8801 178.492 72.1128 178.825 71.3685 179.157C66.7379 181.221 57.3355 181.321 52.6201 179.518L50.5394 178.468C50.5065 174.634 50.1434 170.931 49.6188 167.139C57.3337 168.335 65.8669 167.332 73.5454 166.346Z"/></svg>