<?xml version="1.0" encoding="utf-8" ?><svg xmlns="http://www.w3.org/2000/svg" xmlns:xlink="http://www.w3.org/1999/xlink" width="234" height="322" viewBox="0 0 234 322"><path fill="#535B09" d="M19.3823 54.7369C19.843 53.638 20.0946 52.3408 20.6239 51.308C22.2338 48.167 25.8953 45.4332 28.2794 42.82C30.5976 40.279 32.8278 37.5789 35.3161 35.205C46.9823 24.075 61.3829 15.9604 76.2084 9.89812C85.3372 6.1653 94.7888 3.81145 104.557 2.49469C110.943 1.6338 117.336 0.961042 123.795 1.13132C127.487 1.22866 131.253 1.83685 134.894 2.43686C146.566 4.36065 156.523 7.49298 167.421 12.058C174.89 15.1868 181.955 19.9307 188.39 24.8002C191.661 27.2755 195.254 29.6473 198.312 32.3635C209.456 42.2611 217.28 55.8897 222.854 69.5446C226.573 78.6567 229.883 90.7034 231.283 100.347C231.813 103.994 232 107.71 232.275 111.384C232.474 114.045 232.768 116.677 232.783 119.35C232.812 124.339 232.373 129.246 231.967 134.21C231.599 138.71 231.365 143.326 230.42 147.761C229.4 152.543 226.407 161.116 224.484 165.697C213.228 192.515 195.416 208.968 168.566 219.884C164.193 221.661 159.539 223.316 154.931 224.378C152.045 225.044 149.12 225.339 146.254 226.132C144.577 226.477 142.943 226.655 141.236 226.771C137.788 226.727 134.374 227.27 130.944 227.543C127.984 227.779 124.998 227.758 122.03 227.755L122.036 227.914C120.285 228.06 118.532 228.19 116.779 228.305C115.803 228.396 114.639 228.386 113.723 228.731C110.85 227.554 107.296 228.351 104.246 228.033C102.258 227.688 100.966 228.383 99.4598 228.263C98.377 228.176 96.9318 226.98 95.7048 226.698C93.1299 226.536 90.6254 226.185 88.0323 226.122C82.5614 224.3 76.9674 222.957 71.5086 221.034C65.0071 218.745 59.0714 214.863 53.2393 211.255C51.4451 210.145 49.3788 209.112 47.7437 207.786C45.3399 205.837 43.3944 203.252 41.1234 201.143C38.6769 198.871 36.0428 196.837 33.6529 194.492C25.3584 186.353 19.3436 177.136 14.0715 166.856C11.409 161.665 10.3741 155.789 7.84184 150.626C6.07954 147.032 3.08745 144.221 1.34997 140.593C1.94132 138.444 1.93354 135.537 2.85956 133.587C3.5913 132.479 2.97603 130.34 2.80997 129.096C1.8793 122.122 1.41001 115.378 1.93134 108.349C2.64889 98.6744 4.78353 86.5755 8.11023 77.4737C9.66169 73.2289 11.6799 69.2234 13.5706 65.1267C14.8311 62.3956 18.7157 56.897 19.3317 54.9087C19.3494 54.8517 19.3654 54.7942 19.3823 54.7369Z"/><path fill="#5F5A0F" d="M116.779 228.305C116.794 228.267 116.808 228.229 116.825 228.192C116.853 228.131 116.886 228.072 116.914 228.011C117.007 227.81 117.089 227.612 117.221 227.432C117.729 226.741 118.94 226.276 119.767 226.119C120.28 226.26 120.35 226.25 120.663 226.672C120.504 227.006 120.395 227.284 120.334 227.65L122.03 227.755L122.036 227.914C120.285 228.06 118.532 228.19 116.779 228.305Z"/><path fill="#8F9B2B" d="M121.039 8.75131C122.202 8.78212 123.667 9.16311 124.873 9.29153C128.91 9.72114 133.13 10.0237 137.112 10.7951C143.137 11.9625 148.426 13.7379 154.186 15.7194C162.924 18.7256 171.342 21.9452 179.058 27.2045C183.232 30.0499 186.956 33.5047 190.697 36.8835C194.673 40.4744 198.791 44.3312 202.152 48.5177C205.881 53.1639 208.735 58.922 211.405 64.2445C217.76 76.9129 221.359 86.2763 223.379 100.465C223.736 102.973 224.207 105.543 224.368 108.069C224.54 110.767 224.378 113.512 224.424 116.217C224.528 122.271 224.571 128.153 223.89 134.183C221.224 159.54 208.524 182.775 188.62 198.709C170.311 213.275 142.213 219.313 119.202 219.276C116.738 219.272 114.114 219.85 111.707 219.577C110.22 219.41 108.748 219.487 107.271 219.361C104.096 219.089 100.863 218.688 97.7129 218.213C94.1701 217.68 90.729 216.743 87.2706 215.83C77.1988 213.17 67.9199 209.847 59.1487 204.102C56.608 202.438 54.2839 200.517 51.8437 198.717C46.3073 194.633 40.9873 190.597 36.2089 185.6C30.27 179.389 25.0031 171.421 21.3396 163.634C20.448 161.739 19.7971 159.732 18.9602 157.811C17.8298 155.216 16.503 152.632 15.603 149.948C13.2851 143.034 11.6802 135.478 10.1968 128.349C10.3826 128.03 10.5515 127.694 10.6237 127.329C10.7239 126.822 10.1427 121.307 10.0095 121.173C9.75014 120.912 9.50896 121.046 9.23942 120.643C10.3178 119.181 10.0307 117.667 10.0297 115.9C10.029 114.654 10.1683 113.183 9.96564 111.96C9.79619 110.936 9.00072 109.624 9.05473 108.63C9.12064 107.416 10.1654 106.295 10.3012 105.101C10.4692 103.626 10.3229 102.064 10.4452 100.569C10.6766 97.7397 11.3451 94.839 11.9656 92.0718C13.4938 85.2562 15.6329 78.2639 18.539 71.9162C19.5664 69.6722 20.9473 67.5135 22.1922 65.3769C27.6006 56.0943 32.5545 49.4529 40.011 41.7115C42.1508 39.4899 44.2854 37.1953 46.6562 35.217C59.9483 24.1261 80.5027 14.9548 97.4513 11.5192C99.6575 11.072 101.891 10.892 104.114 10.5695C106.031 10.2915 107.925 9.85812 109.854 9.66639C112.061 9.44698 119.499 9.79183 120.858 8.87817C120.919 8.83698 120.979 8.7936 121.039 8.75131Z"/><path fill="#535B09" d="M185.173 104.904C186.445 104.655 189.223 105.889 190.454 106.441C195.253 108.594 198.675 112.398 200.522 117.309C203.092 124.14 202.665 131.444 199.65 138.048C197.165 143.488 192.834 148.045 187.156 150.154C180.851 152.495 174.785 151.826 168.744 149.075C167.971 148.466 166.816 147.631 166.433 146.696C165.881 145.348 167.522 143.981 168.043 142.821L168.127 142.63C170.548 141.415 176.868 144.777 179.987 143.948C184.58 142.728 189.381 139.579 191.693 135.368C194.471 130.31 193.953 124.652 192.356 119.286C191.136 115.188 189.08 113.069 185.331 111.052C184.076 111.365 182.572 111.891 181.291 111.804C180.393 111.743 179.08 111.479 178.506 110.703C178.15 110.222 178.106 109.705 178.205 109.135C178.549 107.156 180.569 106.056 182.072 105.031C183.107 105.036 184.141 104.961 185.173 104.904Z"/><path fill="#535B09" d="M134.635 43.81C136.567 43.626 137.76 43.85 139.485 44.7857C142.501 46.4216 145.91 50.2789 146.884 53.5675C146.241 55.3112 148.169 56.3658 148.456 58.1667C149.025 61.7399 147.245 66.8004 145.132 69.6605C142.97 72.5872 139.508 74.9745 135.862 75.4837C132.608 75.9381 129.204 74.8713 126.593 72.9416C126.393 72.7325 126.21 72.514 126.034 72.284C124.921 70.8288 123.816 69.0885 124.111 67.1717C124.379 65.4301 125.472 64.5559 126.796 63.5681C128.871 65.2654 130.193 67.4044 132.943 68.2381C133.999 68.5584 136.19 68.8752 137.162 68.2535C138.752 67.2372 139.594 64.8332 140.097 63.0859C142.887 53.3903 136.992 53.6238 132.439 48.6842C131.73 47.9158 131.218 46.8723 130.712 45.9603C131.929 44.8711 133.1 44.2982 134.635 43.81Z"/><path fill="#535B09" d="M122.124 119.009C123.363 118.998 124.656 119.275 125.883 119.449C125.869 119.759 125.864 120.07 125.867 120.381C125.907 123.963 126.618 127.522 129.303 130.112C132.046 132.757 135.01 133.061 138.615 132.987C139.469 131.693 140.27 130.327 140.723 128.838C140.296 127.496 139.732 125.993 139.753 124.574C139.767 123.633 140.064 122.574 140.759 121.909C141.31 121.39 142.045 121.113 142.802 121.138C143.937 121.166 144.941 121.753 145.695 122.573C147.313 124.332 148.238 127.366 148.152 129.754C147.652 132.798 146.84 134.894 144.532 137.004C141.996 139.321 138.889 140.74 135.4 140.562C131.055 140.341 125.998 138.051 123.091 134.792C120.661 132.068 119.09 127.932 119.352 124.263C119.51 122.052 120.482 120.443 122.124 119.009Z"/><path fill="#535B09" d="M102.088 69.4182C102.589 69.4055 103.115 69.4461 103.586 69.6327C105.506 70.3936 107.113 73.3469 107.938 75.1571C109.593 78.7933 109.623 82.9019 108.204 86.6141C106.7 90.5456 103.812 94.122 99.9091 95.8515C96.394 97.409 93.0783 97.1855 89.5396 95.8252C88.082 95.1122 86.5556 94.3499 85.5534 93.0265C84.8183 92.0559 84.518 90.6285 84.7169 89.4288C84.8267 88.7668 85.2432 87.8309 85.8216 87.4605C86.2687 87.1741 90.774 89.2675 91.8336 89.4591C93.7777 89.8106 95.9155 89.781 97.5778 88.5832C100.402 86.548 101.634 81.8194 100.998 78.4896C100.609 76.4544 99.3297 74.2991 99.692 72.1937C99.925 70.8395 101.06 70.1663 102.088 69.4182Z"/><path fill="#535B09" d="M186.627 64.4897C187.131 64.4467 187.637 64.4373 188.142 64.4617C190.943 64.5978 193.723 65.5609 195.628 67.7014C198.18 70.5696 199.503 74.9568 199.308 78.7517C199.1 82.802 197.643 85.9937 194.609 88.6965C191.997 91.0224 189.295 91.6257 185.885 91.4164C184.6 90.9036 183.226 90.1183 182.401 88.9786C181.566 87.8247 181.044 86.3757 181.319 84.9429C181.446 84.2839 181.794 83.6284 182.374 83.2641C182.849 82.9655 183.113 82.784 183.676 82.9164L183.976 83.8059C184.593 84.3173 186.872 83.8047 187.838 83.7476C189.95 82.5198 191 80.8179 192.356 78.8681L192.346 78.4896C192.148 72.0465 189.53 72.0382 185.799 68.4281C185.321 67.9653 185.071 67.4806 185.08 66.81C185.093 65.8204 185.97 65.1154 186.627 64.4897Z"/><path fill="#535B09" d="M48.3893 68.5514C49.1341 68.4511 49.9027 68.4031 50.6456 68.5492C52.1265 68.8405 52.9323 70.1417 53.7054 71.3033C53.7821 72.0437 53.8114 72.7883 53.7931 73.5324C53.705 78.512 52.0188 82.3296 48.43 85.7653C44.9727 89.0751 41.7254 89.3027 37.1985 89.2062C37.1346 89.1854 37.0702 89.166 37.0067 89.1439C35.5352 88.6307 33.782 87.1609 33.1613 85.7174C32.849 84.9912 32.7948 84.0562 33.1071 83.3198C33.5746 82.2171 34.8844 81.8322 35.9056 81.3937C37.1827 81.89 38.4187 82.4512 39.6599 83.03C42.8467 80.7454 45.8882 77.1148 46.4371 73.0898C46.5745 72.0826 46.1915 70.8293 46.5062 69.8704C46.7271 69.1972 47.786 68.8613 48.3893 68.5514Z"/><path fill="#535B09" d="M157.583 171.652C158.803 171.768 160.342 172.261 161.282 173.081C162.072 173.771 162.489 174.749 162.537 175.791C162.647 178.181 161.078 180.89 159.525 182.642C155.836 186.802 151.345 187.648 146.055 187.977L143.288 186.526C143.012 186.389 142.747 186.229 142.497 186.049C140.805 184.825 139.526 183.168 139.233 181.037C139.123 180.237 139.492 179.116 140.005 178.5C140.358 178.075 140.757 177.749 141.339 177.72C142.869 177.646 145.862 181.287 149.522 180.904C154.717 180.361 154.817 175.076 157.583 171.652Z"/><path fill="#535B09" d="M76.7019 170.535C76.853 170.522 77.0042 170.511 77.1556 170.502C78.4941 170.418 79.5068 170.549 80.5374 171.488C81.5079 172.373 81.9362 173.54 81.9785 174.837C82.051 177.066 81.0568 179.182 79.517 180.755C77.0027 183.325 74.3519 183.704 70.9558 183.72C69.2186 182.625 67.4206 181.657 65.703 180.521C64.8187 179.785 64.0299 178.976 63.5335 177.926C62.7915 176.357 62.4352 173.44 63.0816 171.772C63.26 171.312 63.5752 170.904 64.0457 170.729C66.8468 169.689 70.2916 175.073 72.6874 176.169C74.9763 175.052 74.1041 171.729 76.7019 170.535Z"/><path fill="#535B09" d="M62.7654 136.635C63.8105 136.751 64.7234 136.95 65.5984 137.565C66.8691 138.458 67.5752 139.767 67.8229 141.283C68.1887 143.391 67.682 145.558 66.419 147.285C65.0274 149.174 62.9497 150.28 60.6429 150.59C57.8605 150.963 55.5932 150.225 53.4033 148.549C52.2038 147.441 51.177 146.191 50.6835 144.611C50.2513 143.228 50.0486 141.271 50.7871 139.949C50.9443 139.668 51.2835 139.323 51.5932 139.236C53.9295 138.578 56.5644 142.614 58.6559 143.748C60.2903 141.646 61.4609 138.973 62.7654 136.635Z"/><path fill="#6F390F" d="M88.0323 226.122C90.6254 226.185 93.1299 226.536 95.7048 226.698C96.9318 226.98 98.377 228.176 99.4598 228.263C100.966 228.383 102.258 227.688 104.246 228.033C107.296 228.351 110.85 227.554 113.723 228.731C114.639 228.386 115.803 228.396 116.779 228.305C118.532 228.19 120.285 228.06 122.036 227.914L122.03 227.755C124.998 227.758 127.984 227.779 130.944 227.543C134.374 227.27 137.788 226.727 141.236 226.771C142.943 226.655 144.577 226.477 146.254 226.132C147.546 230.473 147.117 235.217 147.393 239.693C148.15 251.976 150.268 271.615 158.131 281.53C164.156 289.128 175.281 289.718 178.928 295.814C178.201 302.581 172.994 304.631 166.888 304.745C165.048 304.779 163.104 304.481 161.287 304.802C159.519 305.114 157.834 305.947 156.461 307.096C156.272 307.827 156.781 307.873 157.354 308.282C159.621 309.897 161.283 312.176 162.224 314.791C161.942 315.371 161.652 315.953 161.32 316.508C159.965 318.776 157.419 320.343 154.896 320.946C146.975 322.842 130.101 318.756 122.611 315.376C119.404 313.93 116.291 311.683 113.284 309.835C112.553 310.828 111.759 311.61 110.739 312.298C107.137 314.726 99.7917 317.323 95.4431 317.749C93.7372 317.915 92.0246 317.747 90.3497 317.408C88.1982 316.974 85.8276 316.333 84.5664 314.379C83.5184 312.754 83.786 311.54 84.1699 309.777C80.4927 311.451 76.4745 313.435 72.3581 313.573C70.3476 313.64 68.0303 313.136 66.5417 311.695C65.3164 310.51 64.6685 308.586 64.6532 306.903C64.6135 302.521 73.8874 296.685 76.8117 293.668C79.0865 291.322 81.5307 288.357 82.7808 285.305C86.3609 276.565 86.3925 266.64 87.0128 257.358C87.705 246.999 88.1907 236.504 88.0323 226.122Z"/><path fill="#95481A" d="M122.03 227.755C124.998 227.758 127.984 227.779 130.944 227.543C134.374 227.27 137.788 226.727 141.236 226.771L141.236 226.996C141.23 230.198 140.31 233.643 140.723 236.865C140.85 237.859 141.536 238.779 141.664 239.754C141.737 240.313 141.145 240.969 140.826 241.378C140.614 242.522 141.666 243.636 141.687 244.886C141.724 247.079 141.415 249.284 141.588 251.478C142.367 261.336 145.855 275.843 151.44 283.996C156.289 291.075 162.348 292.938 169.225 297.11C168.349 297.81 167.484 298.536 166.588 299.211C161.332 299.514 158.354 299.309 153.533 301.901C152.284 302.572 150.825 303.435 149.86 304.485C149.433 304.95 149.088 305.508 148.756 306.043C148.706 307.177 148.766 308.411 148.232 309.439C149.863 310.572 151.505 311.688 153.045 312.945C145.392 313.349 138.238 311.388 130.966 309.31C129.327 309.212 127.506 308.346 126.013 307.713C126.426 306.853 125.836 305.577 125.599 304.702C124.407 300.309 123.768 296.006 123.229 291.496C121.923 280.573 121.651 269.161 121.835 258.167C121.911 253.654 123.355 241.057 122.546 237.635C121.962 235.15 123.952 229.948 122.876 228.041L122.036 227.914L122.03 227.755Z"/><path fill="#B56328" d="M133.964 305.373C133.041 302.015 132.025 298.627 131.391 295.199C130.288 289.229 129.991 282.987 129.616 276.935C129.491 274.914 129.02 272.787 129.09 270.772C129.168 268.528 130.491 266.45 130.568 264.269C130.645 262.089 130.287 259.882 130.342 257.691C130.458 253.094 130.949 248.507 131.263 243.923C131.379 242.233 131.204 240.325 131.512 238.674C131.691 237.712 132.598 236.938 132.783 236.008C133.126 234.275 131.706 232.969 132.802 231.108C133.245 230.356 133.979 229.214 134.736 228.793C135.485 229.344 135.697 230.008 135.84 230.888C136.451 234.642 136.057 238.885 136.243 242.702C137.224 262.816 135.588 279.848 143.01 299.123C144.353 302.611 145.714 306.616 148.232 309.439C149.863 310.572 151.505 311.688 153.045 312.945C145.392 313.349 138.238 311.388 130.966 309.31C131.995 308.048 132.841 306.529 133.964 305.373Z"/><path fill="#B56328" d="M116.779 228.305C118.532 228.19 120.285 228.06 122.036 227.914L122.876 228.041C123.952 229.948 121.962 235.15 122.546 237.635C123.355 241.057 121.911 253.654 121.835 258.167C121.651 269.161 121.923 280.573 123.229 291.496C123.768 296.006 124.407 300.309 125.599 304.702C125.836 305.577 126.426 306.853 126.013 307.713C121.911 306.332 118.474 303.818 114.676 301.813C113.816 301.882 112.895 301.816 112.054 301.978C111.188 302.145 110.348 302.515 109.493 302.661C109.144 300.197 107.226 297.921 106.733 295.368C106.245 292.843 104.622 277.366 105.055 275.854C105.129 275.596 105.534 275.146 105.697 274.905C105.636 274.265 105.416 274.205 104.944 273.805C103.689 270.944 104.222 243.658 104.217 238.773L104.246 228.033C107.296 228.351 110.85 227.554 113.723 228.731C114.639 228.386 115.803 228.396 116.779 228.305Z"/><path fill="#95481A" d="M104.246 228.033C107.296 228.351 110.85 227.554 113.723 228.731C111.448 230.955 111.868 235.053 111.57 238.074C111.355 242.345 111.654 246.628 111.663 250.901C111.669 254.07 111.371 257.272 111.498 260.437C111.585 262.607 111.938 264.768 112.013 266.935C112.066 268.457 111.598 269.933 111.637 271.434C111.694 273.691 112.13 276.121 112.35 278.385C112.767 282.663 113.077 287.001 113.686 291.255C113.979 293.306 115.022 295.218 115.328 297.24C115.562 298.785 114.247 300.041 114.676 301.813C113.816 301.882 112.895 301.816 112.054 301.978C111.188 302.145 110.348 302.515 109.493 302.661C109.144 300.197 107.226 297.921 106.733 295.368C106.245 292.843 104.622 277.366 105.055 275.854C105.129 275.596 105.534 275.146 105.697 274.905C105.636 274.265 105.416 274.205 104.944 273.805C103.689 270.944 104.222 243.658 104.217 238.773L104.246 228.033Z"/><path fill="#A14D1B" d="M116.779 228.305C118.532 228.19 120.285 228.06 122.036 227.914L122.876 228.041C123.952 229.948 121.962 235.15 122.546 237.635C118.913 237.798 115.204 238.119 111.57 238.074C111.868 235.053 111.448 230.955 113.723 228.731C114.639 228.386 115.803 228.396 116.779 228.305Z"/><path fill="#B56328" d="M95.1479 238.038C98.1561 238.568 101.21 238.397 104.217 238.773C104.222 243.658 103.689 270.944 104.944 273.805C105.416 274.205 105.636 274.265 105.697 274.905C105.534 275.146 105.129 275.596 105.055 275.854C104.622 277.366 106.245 292.843 106.733 295.368C107.226 297.921 109.144 300.197 109.493 302.661C108.297 303.129 107.051 304.06 105.935 304.725C102.485 306.783 99.1949 308.576 95.2244 309.422C94.3168 309.615 93.1026 309.915 92.1934 309.707C91.503 309.55 91.3342 309.262 90.9736 308.689C90.7748 306.702 92.3312 304.715 93.3164 303.071C90.9957 301.815 88.6973 300.518 86.4223 299.181C82.7794 302.914 78.3239 305.761 73.0528 306.131C76.6178 303.199 80.0203 300.11 83.4321 297.004C84.4327 296.004 85.4463 295.017 86.473 294.045C91.7918 283.605 92.887 272.606 93.7774 261.144C93.9128 259.401 94.4411 257.72 94.4631 255.966C94.5109 252.141 94.6229 248.343 94.7458 244.518C94.8185 242.259 94.6747 240.283 95.1479 238.038Z"/><path fill="#A14D1B" d="M86.473 294.045C86.9255 295.124 86.9463 295.656 86.4925 296.74C86.2592 297.298 86.0057 297.606 85.5177 297.959C85.1329 298.019 84.767 298.175 84.422 297.946C84.0132 297.675 83.9214 297.22 83.4321 297.004C84.4327 296.004 85.4463 295.017 86.473 294.045Z"/><path fill="#A14D1B" d="M95.7048 226.698C96.9318 226.98 98.377 228.176 99.4598 228.263C100.966 228.383 102.258 227.688 104.246 228.033L104.217 238.773C101.21 238.397 98.1561 238.568 95.1479 238.038C95.7982 234.411 95.3023 230.419 95.7048 226.698Z"/></svg>