<?xml version="1.0" encoding="utf-8" ?><svg xmlns="http://www.w3.org/2000/svg" xmlns:xlink="http://www.w3.org/1999/xlink" width="106" height="142" viewBox="0 0 106 142"><path fill="#4F4B0B" d="M14.39 77.3864C12.6462 75.7654 11.1301 74.1282 10.5549 71.7354C9.97845 69.3379 10.6122 66.6312 11.3357 64.3324C14.0755 55.6272 20.0739 48.6015 25.7944 41.7131C28.9549 37.9073 32.2759 33.9244 34.17 29.3069C35.758 25.3857 36.8525 21.2825 37.4287 17.0914C38.0006 13.0206 37.0229 7.82203 39.2766 4.19577C40.1996 2.71056 41.8268 1.43689 43.5555 1.05963C44.8175 0.78422 46.2599 1.19132 47.3268 1.87566C52.747 5.35236 53.1191 18.1421 55.952 23.9416C58.2224 28.5895 62.4133 31.3212 66.4437 34.3009C73.9212 39.8291 84.1469 46.7941 86.288 56.4156C87.2295 60.6468 86.5389 64.2895 84.2263 67.93C87.7816 69.3459 91.0116 71.209 93.9334 73.6898C100.319 79.1119 104.222 85.6833 104.91 94.0639C104.557 98.802 104.154 103.077 100.314 106.383C98.3594 108.066 95.8674 109.014 93.2739 108.804C91.8086 108.685 90.42 108.013 89.1551 107.298C87.4869 109.953 85.6466 111.964 82.4821 112.69C80.2799 113.195 77.7656 113.131 75.5322 112.895C75.106 113.783 74.6644 114.697 74.0295 115.456C72.856 116.859 70.0482 118.636 69.4635 120.265C67.4855 125.775 73.5742 135.634 66.0616 138.274C60.4338 140.252 52.7716 139.925 47.3864 137.34C46.2028 136.771 44.9773 136.043 44.5155 134.741C44.1867 133.814 44.0423 132.692 43.5786 131.835C43.299 128.701 43.2199 125.557 42.9132 122.423C40.8535 121.203 39.0783 119.413 37.3126 117.811C35.8824 119.952 33.9254 121.971 31.53 123.004C29.5993 123.836 27.4417 123.928 25.481 123.133C22.6768 121.995 21.4246 119.736 20.3092 117.092C17.9617 117.921 15.646 118.648 13.126 118.579C9.94105 118.491 7.12597 117.05 4.95718 114.753C1.76305 111.369 0.757521 107.009 0.899241 102.463C1.23111 91.8179 6.9489 84.3633 14.39 77.3864Z"/><path fill="#667C35" d="M64.7896 69.1089C65.9156 69.9307 67.1315 70.8618 68.4136 71.4164C72.3186 73.1058 76.8237 71.7182 80.5619 70.253C82.109 71.573 84.0666 72.478 85.7678 73.6067C90.2065 76.0447 93.742 79.6399 96.4451 83.9084C99.0216 87.2643 101.077 92.1534 100.515 96.4684C100.262 98.4088 99.3584 100.276 97.7774 101.473C96.5225 102.423 94.953 102.755 93.4066 102.533C91.4636 102.254 89.2883 101.091 87.7597 99.8692C86.6021 99.2617 85.7609 98.7022 84.8231 97.8004C84.8163 97.8143 84.8091 97.8281 84.8025 97.8421C83.6279 100.34 87.8581 105.961 81.4439 108.361C79.8899 108.943 77.7527 109.355 76.1907 108.659C75.7565 108.465 75.2847 108.125 75.1216 107.663C74.8392 106.864 74.9197 106.12 74.293 105.469L73.8648 105.392C73.277 106.103 73.4262 107.206 73.1018 108.097C71.5681 112.309 68.5104 117.016 63.6478 117.492C61.5399 117.699 58.5247 117.439 56.8615 116.044C55.2176 114.666 54.9981 112.16 54.3778 110.232C52.487 113.753 50.7378 117.176 46.6396 118.42C44.7419 118.997 43.0245 118.929 41.2707 117.991C40.2771 117.46 39.6694 116.79 39.0589 115.857C38.7956 113.925 38.6661 112.01 38.5671 110.065C38.045 109.808 37.4105 109.642 36.8584 109.446C35.5899 112.469 34.2333 115.132 31.6163 117.24C30.5178 118.125 29.2553 118.773 27.8079 118.598C26.2947 118.416 25.5054 117.311 24.6251 116.206C24.3661 114.491 24.6248 112.119 23.9692 110.552C21.224 110.287 20.1823 113.739 17.5467 114.097C14.1924 114.552 9.7641 113.652 7.03748 111.58C5.91266 110.724 5.35152 109.798 5.15518 108.407C5.35567 107.918 5.57946 107.705 6.01466 107.413C5.4668 106.657 5.21924 105.704 5.08314 104.79C4.07904 98.0492 7.93908 89.94 12.5083 85.1878C14.5246 83.0908 17.0278 81.3682 18.7629 79.0248C20.6462 79.5804 22.5944 80.4817 24.5611 80.5898C25.4587 80.4486 26.3998 80.5168 27.2819 80.3192C30.542 79.5891 32.5732 76.3664 34.2459 73.7612C35.5583 76.6093 37.4153 79.5443 40.4281 80.802C42.4317 81.6384 44.6928 81.4958 46.669 80.6605C49.6205 79.4131 51.3325 76.9204 52.5106 74.0619C53.4194 74.7572 54.3879 75.5284 55.4823 75.8945C57.1114 76.4394 58.8751 76.3463 60.4106 75.5696C63.0708 74.224 63.9273 71.7487 64.7896 69.1089Z"/><path fill="#546B23" d="M64.7896 69.1089C65.9156 69.9307 67.1315 70.8618 68.4136 71.4164C72.3186 73.1058 76.8237 71.7182 80.5619 70.253C82.109 71.573 84.0666 72.478 85.7678 73.6067C85.744 73.6039 85.7202 73.6013 85.6965 73.5982C83.9295 73.3647 80.9619 70.742 79.7641 70.8819C79.1235 71.5883 79.0926 72.2207 79.137 73.1647C79.2308 75.1562 80.3655 79.6627 78.9465 81.2095C78.3651 81.8433 76.957 81.9058 76.1461 81.9248C74.9082 81.9537 74.2874 81.4542 73.4261 80.6205C72.0959 79.3331 70.9462 77.7946 69.7783 76.3587C69.0566 76.7661 69.0451 77.4996 68.5388 78.1235C67.702 79.1548 66.5038 79.8813 65.7282 80.977C64.2694 83.0381 62.3393 89.2008 58.9062 88.2204C56.8468 87.6322 55.5225 85.2701 54.4322 83.5915C51.1692 85.8576 49.8528 89.5975 46.3219 91.5263C45.1913 91.2251 43.8182 90.968 42.8295 90.3264C38.6758 87.631 39.6201 82.1122 34.582 85.0247C32.591 86.1757 29.189 88.907 26.8218 88.2879C26.2202 88.1306 25.8039 87.6906 25.5019 87.1671C24.5044 85.4378 24.2763 82.5439 24.5611 80.5898C25.4587 80.4486 26.3998 80.5168 27.2819 80.3192C30.542 79.5891 32.5732 76.3664 34.2459 73.7612C35.5583 76.6093 37.4153 79.5443 40.4281 80.802C42.4317 81.6384 44.6928 81.4958 46.669 80.6605C49.6205 79.4131 51.3325 76.9204 52.5106 74.0619C53.4194 74.7572 54.3879 75.5284 55.4823 75.8945C57.1114 76.4394 58.8751 76.3463 60.4106 75.5696C63.0708 74.224 63.9273 71.7487 64.7896 69.1089Z"/><path fill="#546B23" d="M77.4609 102.798C80.0747 100.127 80.5499 96.4836 81.8318 93.1026L84.8231 97.8004C84.8163 97.8143 84.8091 97.8281 84.8025 97.8421C83.6279 100.34 87.8581 105.961 81.4439 108.361C79.8899 108.943 77.7527 109.355 76.1907 108.659C75.7565 108.465 75.2847 108.125 75.1216 107.663C74.8392 106.864 74.9197 106.12 74.293 105.469L73.8648 105.392C73.277 106.103 73.4262 107.206 73.1018 108.097C71.5681 112.309 68.5104 117.016 63.6478 117.492C61.5399 117.699 58.5247 117.439 56.8615 116.044C55.2176 114.666 54.9981 112.16 54.3778 110.232C52.487 113.753 50.7378 117.176 46.6396 118.42C44.7419 118.997 43.0245 118.929 41.2707 117.991C40.2771 117.46 39.6694 116.79 39.0589 115.857C38.7956 113.925 38.6661 112.01 38.5671 110.065C39.786 110.624 41.716 110.447 43.0193 110.181C48.709 109.019 52.3599 104.831 55.3974 100.255C56.1557 102.127 56.3003 104.382 57.2058 106.133C58.092 107.846 59.6502 109.744 61.5384 110.321C62.8192 110.711 64.1517 110.428 65.3075 109.802C68.7476 107.94 69.8717 104.128 70.8972 100.645C71.5099 101.893 72.2302 104.572 73.3846 105.134C73.9699 104.752 73.9731 103.664 74.223 102.967C75.0937 102.578 76.507 102.782 77.4609 102.798Z"/><path fill="#546B23" d="M6.01466 107.413C8.04066 109.582 10.5723 111.066 13.6102 111.18C19.1759 111.389 20.8867 105.819 25.2514 104.265C26.0985 103.963 27.189 104.246 28.0815 104.095C29.4216 103.869 30.4549 103.617 31.4917 104.741C32.3614 105.683 32.9814 107.543 33.4155 108.755C34.5536 108.942 35.7687 109.061 36.8584 109.446C35.5899 112.469 34.2333 115.132 31.6163 117.24C30.5178 118.125 29.2553 118.773 27.8079 118.598C26.2947 118.416 25.5054 117.311 24.6251 116.206C24.3661 114.491 24.6248 112.119 23.9692 110.552C21.224 110.287 20.1823 113.739 17.5467 114.097C14.1924 114.552 9.7641 113.652 7.03748 111.58C5.91266 110.724 5.35152 109.798 5.15518 108.407C5.35567 107.918 5.57946 107.705 6.01466 107.413Z"/><path fill="#546B23" d="M96.4451 83.9084C99.0216 87.2643 101.077 92.1534 100.515 96.4684C100.262 98.4088 99.3584 100.276 97.7774 101.473C96.5225 102.423 94.953 102.755 93.4066 102.533C91.4636 102.254 89.2883 101.091 87.7597 99.8692C88.8779 98.6782 91.5554 97.8401 93.0218 96.8956C99.7063 92.59 95.369 88.7341 96.4267 83.9889L96.4451 83.9084Z"/><path fill="#667C35" d="M44.5022 3.93687C45.2445 4.56918 45.985 5.2015 46.4961 6.0445C49.6008 11.1646 48.955 19.7235 52.8225 26.2464C58.3248 35.5264 74.4861 43.3453 77.7868 51.7653C79.2252 52.4165 79.8504 53.6915 80.3826 55.1065C81.2507 57.4143 81.4502 60.4999 80.4132 62.7699C79.7939 64.1256 78.759 65.1882 77.3472 65.701C74.6468 66.6819 71.3159 66.2623 68.4863 66.1691C67.0237 65.258 65.2003 64.2037 64.785 62.3846C64.7714 62.3249 64.7599 62.2647 64.7505 62.2042L64.386 62.1551C63.388 65.03 62.6468 68.4998 59.6447 69.9468C58.6594 70.4217 57.6063 70.6209 56.5374 70.8013C54.7004 70.2637 53.2452 69.4913 52.2982 67.7273C51.7422 66.6915 51.1808 65.2503 50.9369 64.0995C50.14 64.087 49.5632 64.332 48.9664 64.898C46.8205 66.9331 45.5401 70.2788 42.0557 70.265C40.5328 70.2589 38.0085 68.9698 36.9396 67.9173L36.9022 67.7483C36.8449 67.7163 36.7875 67.6847 36.7317 67.6502C35.6554 66.9843 35.1312 63.3965 34.8232 62.0914C34.5041 62.49 34.1595 62.8675 33.7915 63.2215C31.1617 65.7124 26.4957 68.7581 22.7183 68.6289C20.6726 68.559 19.781 67.7851 18.456 66.3766C18.228 65.3141 18.06 64.3135 18.0087 63.2239C20.5179 51.1861 33.6094 43.5365 37.9563 31.3121C39.5335 26.8766 40.3334 21.8936 40.5639 17.1938C40.6961 14.4997 40.3536 11.4659 41.1665 8.87239C41.8149 6.80372 42.9835 5.43279 44.5022 3.93687Z"/><path fill="#546B23" d="M77.7868 51.7653C79.2252 52.4165 79.8504 53.6915 80.3826 55.1065C81.2507 57.4143 81.4502 60.4999 80.4132 62.7699C79.7939 64.1256 78.759 65.1882 77.3472 65.701C74.6468 66.6819 71.3159 66.2623 68.4863 66.1691C67.0237 65.258 65.2003 64.2037 64.785 62.3846C64.7714 62.3249 64.7599 62.2647 64.7505 62.2042C65.1632 61.8971 65.4249 60.1225 65.5585 59.569C66.9977 60.2682 68.4744 60.7216 70.0867 60.7343C72.1756 60.7507 74.2433 60.0828 75.7398 58.5826C77.7058 56.6116 77.7902 54.3902 77.7868 51.7653Z"/><path fill="#546B23" d="M50.9369 64.0995C52.0666 64.2776 53.7769 65.2909 54.8429 65.1466C56.6341 64.9042 60.6677 57.3988 62.987 57.0873C63.9919 57.4483 64.6895 58.8324 65.5162 59.5336L65.5585 59.569C65.4249 60.1225 65.1632 61.8971 64.7505 62.2042L64.386 62.1551C63.388 65.03 62.6468 68.4998 59.6447 69.9468C58.6594 70.4217 57.6063 70.6209 56.5374 70.8013C54.7004 70.2637 53.2452 69.4913 52.2982 67.7273C51.7422 66.6915 51.1808 65.2503 50.9369 64.0995Z"/><path fill="#4F4B0B" d="M59.2057 50.3508C58.3575 50.1836 57.6246 49.9586 57.0073 49.3198C55.138 47.3854 55.1996 43.1786 54.2197 40.6911C53.3807 38.5615 49.7006 33.7916 49.7867 31.7698C49.8105 31.2112 50.0046 30.944 50.404 30.5893C51.3451 30.8568 52.9763 32.7406 53.727 33.4457C56.8269 36.3572 63.0163 41.7694 63.1229 46.3204C63.1607 47.9388 62.3775 49.1109 61.3012 50.2391C60.6167 50.2719 59.8807 50.2515 59.2057 50.3508Z"/><path fill="#546B23" d="M59.2057 50.3508C58.8115 44.5129 53.0547 37.8584 52.6498 34.2117C52.6936 34.2235 52.7374 34.2352 52.7801 34.2502C53.7689 34.5984 55.0619 36.3959 55.7444 37.1776C58.3579 40.1709 61.0803 43.5495 61.3021 47.7461C61.3429 48.5194 60.8778 49.4499 61.2488 50.1473C61.2653 50.1784 61.2837 50.2085 61.3012 50.2391C60.6167 50.2719 59.8807 50.2515 59.2057 50.3508Z"/><path fill="#4F4B0B" d="M43.4362 39.6795L43.8181 40.0608C43.851 40.2927 43.8621 40.5324 43.8288 40.7649C43.3689 43.9737 39.3421 54.4621 36.91 56.3094C36.5764 56.0618 36.5189 55.783 36.4159 55.3957C36.9263 51.9245 40.8452 42.05 43.4362 39.6795Z"/><path fill="#4F4B0B" d="M45.6225 43.4007L46.0331 43.7246C47.2533 46.4422 47.6061 51.5683 47.1637 54.5449C47.0025 55.6297 46.7153 56.1672 45.835 56.824C45.0291 56.3915 44.4408 55.9624 44.1597 55.0531C43.2637 52.1553 44.2512 46.0512 45.6225 43.4007Z"/><path fill="#8D4913" d="M54.5324 117.206L55.6001 118.407C58.1072 121.213 61.8536 121.074 65.3001 121.266C65.2981 124.57 66.5271 132.255 65.5594 134.959L65.1795 134.994C65.2298 134.497 65.2674 133.998 65.2922 133.499C63.4226 133.662 61.0898 135.059 59.4394 135.958C56.4608 136.264 52.3609 136.454 49.5903 135.142C48.2014 134.484 47.256 133.373 46.7463 131.93C46.0245 129.885 46.4685 128.112 46.2684 126.045C46.1757 125.086 45.7566 124.167 45.7138 123.204C45.7011 122.916 45.8133 122.608 45.9366 122.353C46.6221 122.29 47.3068 122.218 47.9904 122.136C50.9756 121.773 52.7893 119.431 54.5324 117.206Z"/><path fill="#546B23" d="M18.456 66.3766C19.781 67.7851 20.6726 68.559 22.7183 68.6289C26.4957 68.7581 31.1617 65.7124 33.7915 63.2215C34.1595 62.8675 34.5041 62.49 34.8232 62.0914C35.1312 63.3965 35.6554 66.9843 36.7317 67.6502C36.7875 67.6847 36.8449 67.7163 36.9022 67.7483L36.9396 67.9173C36.5686 67.85 36.3595 67.9016 36.0116 68.0397C35.2516 69.4483 35.3943 71.3058 35.7457 72.8299C36.1751 74.6923 38.0691 75.5475 39.5896 76.5C41.4985 76.5169 43.9719 76.9389 45.6387 75.897C47.277 74.873 49.7346 72.4394 50.1677 70.5034C50.3947 69.4892 49.8285 67.1942 49.2822 66.3103L49.403 65.9067L49.7367 66.0766C50.2882 67.2625 50.4385 68.7902 50.6791 70.0773C50.0276 71.71 49.3158 73.0543 48.0985 74.333C46.543 75.9669 44.5884 76.99 42.2954 77.0357C39.4779 77.0919 37.574 75.8035 35.6406 73.9403C35.4297 71.9981 35.2141 70.1381 35.2408 68.1778L35.042 68.008C33.8316 68.6987 32.7657 70.8548 31.8145 71.9747C30.007 74.1029 27.6269 75.6914 24.7811 75.9186C22.6731 76.087 19.9578 75.6776 18.325 74.2654C17.0231 73.1394 15.8145 70.5466 15.7109 68.8109C15.5853 66.7074 16.6519 64.7452 18.0087 63.2239C18.06 64.3135 18.228 65.3141 18.456 66.3766Z"/></svg>