<?xml version="1.0" encoding="utf-8" ?><svg xmlns="http://www.w3.org/2000/svg" xmlns:xlink="http://www.w3.org/1999/xlink" width="258" height="200" viewBox="0 0 258 200"><path fill="#674A0A" d="M107.757 6.05418C110.118 5.04137 112.398 3.51027 114.832 2.73527C120.813 0.830533 131.862 0.774173 137.722 3.14129C139.467 3.84595 141.02 4.95184 142.477 6.12587C148.394 10.8954 148.523 16.2589 152.961 20.9114C153.528 25.7575 155.71 30.0391 156.686 34.7485C158.553 43.7566 160.666 71.812 158.15 80.1067C161.695 78.9611 165.254 79.1623 168.749 78.2346C168.842 78.0355 169.038 77.4686 169.224 77.3994C171.21 76.657 175.418 78.1849 177.248 79.0786C183.072 81.9239 187.503 88.3087 189.556 94.3177C191.159 99.0109 190.198 110.02 188.716 114.725C196.182 113.056 207.168 112.891 213.774 117.128C217.339 119.415 219.758 124.34 220.617 128.366C221.155 130.883 220.99 133.48 220.92 136.034L221.018 135.987C225.613 133.809 235.671 134.413 240.369 136.109C245.867 138.093 250.88 143.337 253.329 148.577C256.514 155.39 257.161 160.776 256.702 168.245C256.547 170.753 256.363 173.334 255.48 175.709C253.779 180.283 248.694 184.36 244.362 186.32C234.413 190.82 221.082 192.407 210.26 193.868C206.615 194.359 203.02 195.15 199.361 195.559C186.836 196.956 174.096 197.994 161.499 198.445C158.69 198.545 155.883 198.319 153.077 198.401C129.907 198.973 106.726 198.901 83.5607 198.185C70.5638 197.845 57.6516 197.65 44.7009 196.433C41.237 196.108 37.7125 195.861 34.2773 195.31C29.2271 194.501 23.9577 192.825 19.1879 191.016C14.1113 189.09 4.83945 184.848 2.53073 179.801C1.47087 177.485 1.57263 172.408 2.49753 170.039C3.73593 166.867 7.14411 164.406 10.1705 163.114C14.7629 161.154 19.537 160.982 24.4416 160.767C21.4941 147.535 23.3436 129.255 28.6117 116.787C29.974 113.563 32.0143 110.573 33.7983 107.575C34.7077 106.047 35.4598 104.415 36.4104 102.914C39.9059 97.3971 47.0168 90.9799 52.9517 88.3835C55.5033 87.2671 58.2825 86.7538 60.991 86.1622C67.0435 84.8404 72.2388 84.5537 78.4022 84.4784C77.6205 81.4509 77.741 77.8885 77.7268 74.7767C77.6545 58.8503 80.643 48.576 85.7297 33.8574C87.2016 29.5984 86.9438 28.245 89.5016 23.8954C92.2607 19.2033 100.546 8.26173 105.558 6.9157C105.724 6.87104 105.892 6.83162 106.062 6.79751L107.757 6.05418Z"/><path fill="#BEC66D" d="M95.9917 86.7101C93.6438 85.8147 84.5757 83.4887 83.5421 82.7701C83.3092 82.6082 83.1626 81.7967 83.1153 81.5235C82.3338 77.0111 82.8023 72.773 83.22 68.2778C83.4016 66.3233 83.2487 64.3681 83.5177 62.4143C85.124 50.7502 90.1796 34.7608 96.9743 25.0972C102.595 17.1029 111.325 8.3971 121.353 6.68866C127.629 5.61957 132.648 7.10399 137.771 10.7448C148.136 19.0079 151.85 36.5572 153.265 49.0707C153.7 52.9185 153.751 56.7696 153.956 60.6313C154.094 63.2418 154.441 65.9142 154.292 68.5275C154.02 73.2967 152.965 78.0982 152.977 82.8725C152.979 83.979 153.098 84.6823 153.772 85.5762C154.439 85.8735 155.159 86.2131 155.897 86.2462C157.702 86.3271 159.767 85.4546 161.462 84.9217C167.415 83.0498 172.978 82.8639 177.791 87.3767C179.496 88.9756 181.253 91.1364 182.19 93.2963C182.943 94.3919 183.418 95.9551 183.825 97.2085C186.229 104.614 183.618 108.371 183.287 115.313C183.233 116.448 183.219 118.211 184.053 119.065C186.616 121.686 192.293 119.427 195.247 118.922C196.502 118.707 197.828 118.715 199.096 118.77C203.417 118.958 208.804 120.122 211.836 123.467C216.303 128.397 215.81 132.837 215.499 138.935C216.679 141.023 218.009 142.031 220.208 142.903C220.961 142.586 221.638 142.132 222.344 141.724C226.289 139.444 231.24 139.165 235.583 140.349C240.614 141.72 245.025 145.665 247.567 150.152C248.687 152.128 251.898 160.216 252.044 162.397C252.089 163.058 251.704 163.767 251.638 164.433C251.39 166.928 251.563 169.292 250.861 171.758C248.271 180.854 236.194 183.413 228.258 185.219C223.583 186.286 218.873 187.188 214.135 187.922C211.511 188.314 208.249 188.023 205.913 189.211C205.022 189.664 197.466 190.36 195.771 190.562C190.673 191.168 185.614 191.487 180.503 191.905C173.608 192.47 166.673 193.118 159.754 193.346C145.799 193.807 131.77 193.538 117.805 193.55C104.355 193.653 90.9056 193.528 77.4608 193.175C74.3939 193.073 71.3455 192.764 68.2826 192.628C58.9427 192.214 49.7142 191.839 40.4112 190.774C34.5502 190.103 28.9603 188.409 23.405 186.471C17.2844 184.335 9.19382 181.095 6.24669 174.992C8.62194 169.052 14.5108 166.567 20.6096 166.176C23.0256 166.021 25.7751 166.255 28.0914 165.484C29.0195 165.175 29.8756 164.463 30.6577 163.889C30.4019 163.286 30.1878 162.666 30.0169 162.034C29.4813 160.102 29.4639 158.083 29.1691 156.105C26.9743 141.375 29.2698 126.839 36.6654 113.815C43.2195 102.272 53.2876 94.0996 66.1412 90.5731C78.203 87.2638 91.4948 90.9555 101.646 97.8389C104.107 99.5081 105.981 102.132 108.52 103.554L108.615 103.607C109.839 102.968 111.552 102.028 112.237 100.798C112.577 100.189 112.627 99.5691 112.409 98.9075C110.839 94.1381 100.435 88.9424 95.9917 86.7101Z"/><path fill="#D4DF8D" d="M95.9917 86.7101C93.6438 85.8147 84.5757 83.4887 83.5421 82.7701C83.3092 82.6082 83.1626 81.7967 83.1153 81.5235C82.3338 77.0111 82.8023 72.773 83.22 68.2778C83.4016 66.3233 83.2487 64.3681 83.5177 62.4143C85.124 50.7502 90.1796 34.7608 96.9743 25.0972C102.595 17.1029 111.325 8.3971 121.353 6.68866C127.629 5.61957 132.648 7.10399 137.771 10.7448C137.735 10.785 137.7 10.8256 137.664 10.8653C136.036 12.6506 128.737 16.6955 126.037 18.755C113.579 28.2571 105.343 43.3174 100.779 58.0672C98.4492 65.5987 96.9266 73.728 96.5801 81.611C96.5253 82.8574 96.9874 85.9875 95.9917 86.7101Z"/><path fill="#D4DF8D" d="M153.772 85.5762C154.439 85.8735 155.159 86.2131 155.897 86.2462C157.702 86.3271 159.767 85.4546 161.462 84.9217C167.415 83.0498 172.978 82.8639 177.791 87.3767C179.496 88.9756 181.253 91.1364 182.19 93.2963C182.175 93.3161 182.163 93.3382 182.145 93.3559C182.064 93.4377 181.741 93.7631 181.649 93.7887C180.936 93.9888 175.683 93.1632 174.385 93.1912C164.317 93.408 156.969 101.88 150.531 108.592C150.763 106.044 152.817 87.185 153.378 86.0075C153.439 85.8791 153.669 85.689 153.772 85.5762Z"/><path fill="#A8AE46" d="M136.928 110.818C139.337 110.493 142.299 111.234 144.35 112.506C146.567 113.881 148.344 116.22 148.913 118.784C149.549 121.647 148.501 125.176 146.953 127.594C144.758 131.024 140.948 133.158 137.048 134.011L136.931 134.028C136.582 134.075 136.234 134.127 135.885 134.169C133.226 134.493 130.479 133.623 128.382 131.969C126.269 130.303 125.092 127.892 124.777 125.247C124.356 121.802 125.348 118.334 127.526 115.632C129.98 112.548 133.104 111.266 136.928 110.818Z"/><path fill="#A8AE46" d="M124.393 154.295C128.134 154.113 131.444 154.612 134.368 157.134C136.735 159.176 138.552 162.207 138.765 165.37C138.966 168.361 137.64 171.132 135.706 173.342C133.92 175.383 131.599 177.097 128.813 177.278C125.368 177.4 122.829 177.097 119.855 175.191C117.118 173.438 114.759 170.793 114.08 167.54C113.551 165.006 114.319 162.177 115.721 160.044C117.658 157.098 120.975 155.017 124.393 154.295Z"/><path fill="#A8AE46" d="M77.7908 127.06C77.8345 127.052 77.8778 127.041 77.922 127.034C80.1323 126.722 82.3236 127.042 84.1292 128.428C86.0326 129.89 87.2764 132.448 87.5789 134.802C87.9468 137.665 86.6962 140.372 84.9594 142.575C82.7711 145.35 80.3035 146.799 76.8101 147.212C74.6811 147.247 72.8721 146.819 71.1154 145.589C68.831 143.99 67.3163 141.264 66.8579 138.54C66.4645 136.203 67.0796 134.058 68.4485 132.158C70.7853 128.916 73.9748 127.675 77.7908 127.06Z"/><path fill="#A8AE46" d="M210.809 162.095C213.353 162.246 215.605 162.772 217.716 164.271C219.742 165.709 221.225 167.8 221.63 170.277C221.997 172.632 221.41 175.036 220 176.958C217.87 179.914 214.527 180.934 211.091 181.502C209.104 181.591 207.093 181.185 205.369 180.169C202.239 178.325 200.998 175.312 200.124 171.949C200.663 170.176 201.365 168.601 202.51 167.13C204.536 164.524 207.506 162.521 210.809 162.095Z"/><path fill="#A8AE46" d="M180.752 166.301C183.497 166.073 186.236 166.439 188.547 168.041C190.22 169.202 191.404 170.934 191.749 172.957C192.152 175.319 191.348 177.799 189.967 179.712C187.811 182.697 184.8 183.627 181.315 184.176C179.119 184.539 176.431 183.956 174.536 182.803C172.626 181.641 171.141 179.698 170.644 177.505C170.193 175.512 170.797 173.558 171.867 171.878C173.981 168.559 177.031 167.109 180.752 166.301Z"/><path fill="#A8AE46" d="M52.2784 164.541C53.856 164.458 56.0011 165.493 57.2064 166.471C59.1274 168.039 60.3418 170.31 60.5796 172.779C60.8125 175.026 60.3024 177.404 58.8316 179.165C57.2649 181.041 55.5114 181.397 53.2195 181.571C51.253 181.539 49.4777 181.417 47.7585 180.341C46.0662 179.293 44.8767 177.597 44.4663 175.649C43.9483 173.249 44.4227 170.166 45.8124 168.12C47.4007 165.781 49.658 165.058 52.2784 164.541Z"/><path fill="#A8AE46" d="M175.439 131.797C175.626 131.768 175.81 131.746 175.999 131.742C177.29 131.717 178.866 132.772 179.761 133.646C181.466 135.311 182.636 138.094 182.641 140.474C182.646 142.632 181.611 144.736 180.081 146.227C178.247 148.015 176.517 148.339 174.027 148.299C172.621 148.009 171.268 147.662 170.041 146.887C168.425 145.869 167.272 144.343 166.858 142.465C166.394 140.361 166.899 138.107 168.065 136.316C169.784 133.676 172.447 132.428 175.439 131.797Z"/><path fill="#A8AE46" d="M77.0247 171.034C78.4066 170.906 79.8376 171.11 81.0948 171.719C82.8584 172.555 84.2034 174.076 84.8175 175.928C85.4354 177.829 85.1782 180.057 84.2381 181.817C83.3249 183.527 82.117 184.498 80.2796 185.053C78.8865 185.122 77.3684 185.152 76.0317 184.71C73.5671 183.893 72.5017 181.857 71.4161 179.697C71.7071 177.802 72.0007 175.903 72.9414 174.2C73.8788 172.504 75.205 171.565 77.0247 171.034Z"/></svg>