<?xml version="1.0" encoding="utf-8" ?><svg xmlns="http://www.w3.org/2000/svg" xmlns:xlink="http://www.w3.org/1999/xlink" width="139" height="113" viewBox="0 0 139 113"><path fill="#5B4406" d="M64.3592 0.88334C64.6152 0.863703 64.8714 0.847239 65.1278 0.833953C75.1344 0.305387 84.693 2.98342 91.9624 10.1635C94.1756 12.3496 95.8657 14.9777 98.195 17.0709C100.81 17.1644 103.41 16.6171 106.013 16.6494C112.101 16.7249 119.447 20.4614 124.282 23.9377C130.374 28.3176 136.456 35.8403 137.658 43.4374C138.728 50.194 138.068 57.5354 135.495 63.8689C134.403 66.5563 132.941 69.2665 132.159 72.0573C131.617 73.9868 131.64 76.3201 131.386 78.3236C130.673 83.947 128.352 89.0986 125.015 93.649C114.325 108.228 98.6872 109.774 81.9634 110.636C79.2167 110.777 76.4724 110.06 73.7537 110.481C72.0896 110.44 70.4632 110.799 68.8018 110.819C66.9343 110.841 65.0652 110.619 63.1962 110.664C48.0974 111.034 33.1322 111.931 19.5328 104.03C17.6004 102.908 15.9954 101.402 14.3998 99.8563C8.04192 93.6965 4.60181 86.5696 2.37234 78.0751C-0.618932 66.678 1.41188 46.5163 7.37943 36.3498C10.5528 30.9435 16.6463 26.059 22.4704 23.7271C25.5808 22.4818 28.9908 21.728 32.2286 20.8866C32.4346 20.5338 32.662 20.1939 32.9095 19.8689C41.0432 9.28654 50.9494 2.63666 64.3592 0.88334Z"/><path fill="#9EAB2A" d="M35.8074 28.8802C37.6135 28.1255 39.9451 22.0089 41.4909 20.1522C46.388 14.2697 53.3903 10.8171 60.6178 8.72455C62.4705 8.18814 64.3902 7.6027 66.3298 7.52926C70.1115 7.38608 74.516 8.4947 77.9949 9.92215C87.1513 13.6792 89.4208 19.1712 95.6181 26.0364C99.2107 23.7672 103.808 22.814 107.981 23.7551C115.935 25.5492 122.321 30.124 126.638 36.9934C130.337 43.0003 131.532 50.2188 129.965 57.097C128.64 62.8768 125.269 66.6991 122.595 71.7585C123.172 72.3293 123.787 72.8865 124.332 73.4866C124.122 81.4054 121.598 87.627 115.739 93.1736C109.278 99.2896 100.219 101.545 91.6594 102.645C90.3799 102.809 88.7502 103.294 87.4995 103.273C86.6582 103.259 85.9321 102.589 85.0852 102.656C83.74 102.761 82.4053 103.878 81.0829 103.872C79.9889 103.868 78.9723 103.053 77.8421 103.052C76.3798 103.052 74.8864 103.309 73.4141 103.348C69.4898 103.451 65.5656 103.371 61.6413 103.394C59.2658 103.408 56.9166 103.587 54.5365 103.512C52.3299 103.443 50.063 103.65 47.8818 103.509C44.5946 103.297 42.0141 101.952 38.6818 102.864C35.9679 101.783 33.1001 101.273 30.3456 100.324C19.1532 96.4654 14.5466 90.5882 9.9275 80.0075C9.4274 78.8619 9.98016 78.0004 9.75248 76.9053C9.49983 75.6902 8.4702 74.695 8.15887 73.4977C7.81329 72.1687 8.61268 71.078 8.62465 69.825C8.6297 69.2958 8.02283 68.7713 7.84608 68.2673C7.50359 67.2909 7.75744 64.3712 8.13727 63.4319C8.33899 62.9331 8.71794 62.4871 8.90331 61.9841C8.62899 61.7749 8.34715 61.537 8.1274 61.2705C7.6638 60.7083 7.63929 59.7733 7.70927 59.0779C7.85227 57.6568 8.71668 56.3864 9.00887 55.0029C9.44508 52.9373 9.33636 50.6658 9.8781 48.6423C10.1902 47.4765 11.1467 46.3804 11.6568 45.2764C13.8108 40.6142 14.207 38.1338 18.5311 34.6701C23.4722 30.7122 29.4551 28.1761 35.8074 28.8802Z"/><path fill="#7C8A0C" d="M35.8074 28.8802C37.6135 28.1255 39.9451 22.0089 41.4909 20.1522C46.388 14.2697 53.3903 10.8171 60.6178 8.72455C62.4705 8.18814 64.3902 7.6027 66.3298 7.52926C70.1115 7.38608 74.516 8.4947 77.9949 9.92215C87.1513 13.6792 89.4208 19.1712 95.6181 26.0364C99.2107 23.7672 103.808 22.814 107.981 23.7551C115.935 25.5492 122.321 30.124 126.638 36.9934C130.337 43.0003 131.532 50.2188 129.965 57.097C128.64 62.8768 125.269 66.6991 122.595 71.7585C123.172 72.3293 123.787 72.8865 124.332 73.4866C124.122 81.4054 121.598 87.627 115.739 93.1736C109.278 99.2896 100.219 101.545 91.6594 102.645C90.3799 102.809 88.7502 103.294 87.4995 103.273C86.6582 103.259 85.9321 102.589 85.0852 102.656C83.74 102.761 82.4053 103.878 81.0829 103.872C79.9889 103.868 78.9723 103.053 77.8421 103.052C76.3798 103.052 74.8864 103.309 73.4141 103.348C69.4898 103.451 65.5656 103.371 61.6413 103.394C59.2658 103.408 56.9166 103.587 54.5365 103.512C52.3299 103.443 50.063 103.65 47.8818 103.509C44.5946 103.297 42.0141 101.952 38.6818 102.864C35.9679 101.783 33.1001 101.273 30.3456 100.324C19.1532 96.4654 14.5466 90.5882 9.9275 80.0075C9.4274 78.8619 9.98016 78.0004 9.75248 76.9053C9.49983 75.6902 8.4702 74.695 8.15887 73.4977C7.81329 72.1687 8.61268 71.078 8.62465 69.825C8.6297 69.2958 8.02283 68.7713 7.84608 68.2673C7.50359 67.2909 7.75744 64.3712 8.13727 63.4319C8.33899 62.9331 8.71794 62.4871 8.90331 61.9841C9.0979 62.6771 9.4934 63.2836 9.6597 63.9587C10.1848 66.0901 10.4288 68.2774 11.1058 70.3754C12.4197 74.4475 15.8736 82.3427 19.7951 84.555C22.0036 85.801 28.7927 88.4142 31.2245 87.9714C34.9958 90.0632 35.2521 88.8872 38.4051 89.5978C38.4301 89.6257 38.4543 89.6542 38.4801 89.6813C39.9139 91.1883 48.4139 91.5593 50.5825 91.5387C54.1318 91.5051 63.7456 90.9746 66.1944 88.4748C66.5111 88.6834 66.9563 88.8258 67.3285 88.8888C71.1328 89.533 75.295 87.3677 78.2858 85.2238L78.62 85.5475C84.3888 86.8008 90.1055 86.8016 95.8539 85.2392C101.754 83.6358 108.322 79.8324 111.427 74.3821C113.47 70.7948 114.11 65.4287 113.023 61.4711C110.084 60.8606 104.953 61.66 102.704 59.5477C102.67 58.8574 103.923 58.8241 104.339 58.1149L104.079 57.6734C106.613 56.823 108.979 56.0972 110.434 53.6212C112.103 50.7836 111.799 47.4524 110.99 44.4082C111.204 43.8348 111.245 43.4597 111.031 42.8663C109.239 37.899 103.549 35.1373 98.8331 33.9295C97.5112 33.5909 96.2643 33.8124 95.1263 32.9115C93.2544 31.4295 91.7436 29.431 90.2375 27.5913C86.2124 22.6748 81.844 17.2969 75.9358 14.6103C70.1533 11.9808 62.7369 12.4034 56.8908 14.6151C49.3333 17.4741 43.6807 23.1784 40.3987 30.4766C38.7496 30.1608 37.2714 29.708 35.8074 28.8802Z"/><path fill="#5B4406" d="M104.079 57.6734C104.035 57.6781 103.991 57.6825 103.947 57.6865C101.53 57.9084 99.3609 57.4107 97.472 55.8268C95.5132 54.1842 94.3668 51.7193 94.1549 49.1916C93.9802 47.1075 94.4995 44.9224 95.8879 43.3182C97.0604 41.9637 98.6572 41.2553 100.433 41.1496C102.601 41.0205 103.398 41.5774 104.923 42.9412C106.584 44.4262 106.567 42.9301 108.201 42.8625C109.336 42.8155 110.221 43.693 110.99 44.4082C111.799 47.4524 112.103 50.7836 110.434 53.6212C108.979 56.0972 106.613 56.823 104.079 57.6734Z"/><path fill="#9EAB2A" d="M106.234 52.9807C105.245 53.0232 104.146 53.7659 103.13 53.9386C102.013 54.1285 100.624 53.7033 99.7163 53.0545C98.5765 52.2393 97.8595 50.9011 97.6328 49.5342C97.3769 47.9909 97.7364 46.231 98.6623 44.9579C99.0787 44.3855 99.663 43.8732 100.39 43.7773C102.679 43.4751 102.226 47.3241 103.733 48.4289C104.475 47.4023 105.864 44.9212 107.02 44.6154C107.796 44.9694 108.202 45.6762 108.49 46.4505C108.989 47.7958 109.077 49.4113 108.46 50.7367C107.974 51.7812 107.18 52.3732 106.234 52.9807Z"/><path fill="#B2B111" d="M103.733 48.4289C104.475 47.4023 105.864 44.9212 107.02 44.6154C107.796 44.9694 108.202 45.6762 108.49 46.4505C108.989 47.7958 109.077 49.4113 108.46 50.7367C107.974 51.7812 107.18 52.3732 106.234 52.9807C105.261 51.3476 105.567 49.5506 103.733 48.4289Z"/><path fill="#5B4406" d="M61.286 77.7926C62.204 76.0976 63.8507 74.2638 65.3204 73.0313C66.5059 72.0371 67.9788 71.2106 69.5776 71.3694C71.5157 71.5618 72.6457 72.8917 73.7947 74.2988C73.4545 75.9933 73.265 78.8512 71.7802 79.9092C71.6007 80.0372 71.4343 79.9565 71.2262 79.9201C70.2188 78.7832 70.2592 76.7567 69.4119 75.4019C68.8431 75.0264 68.8208 75.0031 68.1472 75.0838C66.6301 75.9767 65.4472 77.9566 64.7615 79.5375C65.1852 80.6121 65.6399 81.7791 66.3743 82.6823C67.4996 84.066 69.3129 84.8926 71.0735 85.0483C76.9314 85.5666 75.7515 78.2779 77.7013 76.7226C77.9745 76.5047 78.205 76.6175 78.5287 76.6647C80.312 77.9584 80.2701 79.6882 80.6169 81.6937C79.9367 82.9126 79.0721 84.0691 78.2858 85.2238C75.295 87.3677 71.1328 89.533 67.3285 88.8888C66.9563 88.8258 66.5111 88.6834 66.1944 88.4748C65.3896 87.7447 64.556 87.0163 63.8205 86.216C61.4426 83.6283 61.1495 81.134 61.286 77.7926Z"/><path fill="#5B4406" d="M31.2245 87.9714C30.0952 86.6371 28.9818 84.8513 29.1528 83.022C29.1918 82.6041 29.3603 82.2905 29.6221 81.9642C30.2381 81.622 30.4487 81.4396 31.1885 81.6407C31.4047 81.6995 31.6182 81.7734 31.8299 81.8468C32.6596 81.3749 32.7854 80.8476 33.0313 79.9532C33.3554 78.7742 33.6065 77.1918 34.7649 76.5187C35.6923 75.9797 36.9986 75.9384 38.011 76.221C39.7389 76.7032 41.0952 78.1309 41.9381 79.6644C42.8578 81.3377 43.2039 83.1626 42.6505 85.0163C42.1331 86.7493 40.8734 88.3512 39.264 89.1982C38.9838 89.3442 38.6972 89.4775 38.4051 89.5978C35.2521 88.8872 34.9958 90.0632 31.2245 87.9714Z"/><path fill="#B2B111" d="M36.7145 78.5645C36.9464 78.6127 37.1701 78.7318 37.3637 78.8665C38.2749 79.501 39.3498 81.1048 39.5265 82.1877C39.6468 82.9244 39.5226 83.8343 39.072 84.4471C38.3926 85.3711 37.2055 85.4848 36.1559 85.6416C35.0278 85.4643 33.3888 85.2763 32.5272 84.4584C32.7257 83.6251 34.0589 83.0303 34.6215 82.2923C35.4413 81.2172 36.0463 79.7607 36.7145 78.5645Z"/><path fill="#5B4406" d="M60.2198 32.342C60.3078 32.4855 60.397 32.6281 60.4875 32.77C60.9139 33.4401 61.0876 33.6611 61.8711 33.8346C62.5414 33.5443 62.7994 32.9381 63.1643 32.3487C63.7097 31.4676 63.9826 31.1123 65.0145 30.87C65.3768 30.9441 65.7436 31.0367 66.058 31.2383C68.3752 32.7241 66.1806 34.3687 66.5919 36.1301C66.5957 36.1465 66.6002 36.1628 66.6043 36.1792C67.5105 36.6632 68.7498 37.1327 69.5093 37.8103C70.3363 37.942 70.5972 37.337 71.3496 37.2389C71.7425 37.1877 71.8703 37.3192 72.1643 37.5404C72.7542 38.8958 73.0028 41.3387 72.6641 42.7922C72.3487 44.1458 70.8929 45.6373 69.739 46.334C67.1754 47.8817 64.3723 47.5176 61.6238 46.8149C59.3185 46.2254 57.216 45.3758 55.9529 43.2137C54.9967 41.5759 54.7356 39.6236 55.2278 37.792C55.9626 35.1147 57.9431 33.6439 60.2198 32.342Z"/><path fill="#9EAB2A" d="M68.6362 39.3057C68.6783 39.3699 68.72 39.4338 68.7586 39.5002C69.126 40.1334 69.2812 40.7197 69.0881 41.4314C68.8694 42.2373 68.2885 42.967 67.561 43.3718C64.9846 44.8051 64.6235 42.8899 63.6001 42.6207C63.287 42.5384 62.9125 43.1633 62.6022 43.3284C62.162 43.5626 61.8926 43.585 61.4148 43.427C60.3965 43.0901 59.5634 42.1755 59.0879 41.2441C58.5376 40.166 58.3252 38.8285 58.7247 37.6656C59.064 36.678 59.7573 36.0589 60.6752 35.616C61.8136 35.6811 62.3283 36.4613 63.359 36.83C64.2759 37.1581 64.8632 36.4007 65.6238 36.0417L66.1491 36.3708L66.6043 36.1792C67.5105 36.6632 68.7498 37.1327 69.5093 37.8103C69.1982 38.2958 68.8664 38.7752 68.6362 39.3057Z"/><path fill="#5B4406" d="M66.6043 36.1792C67.5105 36.6632 68.7498 37.1327 69.5093 37.8103C69.1982 38.2958 68.8664 38.7752 68.6362 39.3057C67.8123 38.3231 66.9832 37.3448 66.1491 36.3708L66.6043 36.1792Z"/><path fill="#5B4406" d="M24.6754 45.7982C25.4224 45.9584 26.3072 46.4913 26.839 47.0353C28.6325 48.8695 25.3216 50.8068 25.3149 52.5798L25.9812 53.2121C26.2137 54.0883 26.1092 55.1712 25.7913 56.0142C25.4619 56.8877 24.8706 57.5414 24.0127 57.9205C22.5777 58.5544 21.093 58.1874 19.6982 57.6476C19.2858 57.3655 18.8602 57.0704 18.5119 56.7104C17.6401 55.8157 17.1646 54.6081 17.1922 53.3593C17.26 50.8802 18.9931 49.105 20.6853 47.5253C21.0561 48.0149 21.4564 48.627 21.9202 49.0273C22.3921 49.4345 22.6837 49.431 23.2723 49.3748C24.2209 48.5733 24.3975 46.9631 24.6754 45.7982Z"/><path fill="#B2B111" d="M21.1635 51.6927L22.2823 51.9337C22.7362 52.2888 23.1917 52.6427 23.3414 53.2292C23.574 54.1401 23.1926 54.655 22.7283 55.3797C22.3205 55.2556 21.8866 55.1285 21.5075 54.9323C20.8934 54.6146 20.5732 54.1247 20.381 53.4788C20.4837 52.6439 20.6737 52.3752 21.1635 51.6927Z"/></svg>