<?xml version="1.0" encoding="utf-8" ?><svg xmlns="http://www.w3.org/2000/svg" xmlns:xlink="http://www.w3.org/1999/xlink" width="135" height="167" viewBox="0 0 135 167"><path fill="#565D0A" d="M38.627 38.9L38.6258 38.8308C38.505 30.2273 42.008 20.8148 47.2102 14.034C48.9951 11.7075 51.1822 9.60348 53.2262 7.50486C57.6919 2.91987 64.8311 0.566835 71.1836 0.493228C76.3501 0.433362 80.4118 1.9178 85.0852 3.91549C86.8679 4.6775 88.8429 5.42492 90.2429 6.8095C91.9727 8.52016 92.7556 11.1376 93.7808 13.3067C98.7843 23.8924 101.042 30.3452 101.059 42.294C105.061 42.2273 109.692 42.0344 113.509 43.3627C117.749 44.8377 120.944 47.9579 122.882 51.9429C126.891 60.1877 124.592 68.5552 121.781 76.704C124.481 77.9535 127.13 79.864 129.142 82.0564C133.024 86.2862 134.211 91.0523 133.961 96.6697C132.497 105.719 127.026 113.979 119.619 119.323C111.491 125.186 100.332 129.059 90.4451 130.704C88.7392 130.988 82.8015 131.369 81.5893 132.017C80.194 130.946 77.8398 131.492 76.1943 131.624C69.922 131.85 63.3926 132.4 57.1245 132.007C55.6202 131.872 53.8404 131.513 52.3865 132.017C51.6699 131.401 47.8072 131.297 46.7024 131.168C40.1678 130.402 33.7762 129.522 27.5079 127.416C17.6368 124.099 8.15933 118.516 3.38592 108.883C0.583409 103.228 -0.129641 96.8732 1.92127 90.8411C3.75626 85.413 7.69928 80.9523 12.8611 78.4649C11.1901 74.7092 9.37594 71.6401 8.94007 67.4696C8.26824 61.0417 10.4063 55.0355 14.4524 50.065C20.9211 42.1186 28.7587 39.9168 38.627 38.9Z"/><path fill="#8F9928" d="M45.0331 45.0046C45.4244 42.4967 45.232 39.8484 45.3552 37.3106C45.7859 28.4371 48.2233 19.565 55.0024 13.419C59.6537 9.20198 65.8802 6.80657 72.1725 7.13143C78.1422 7.43963 82.7411 10.3738 86.6707 14.7309C92.1629 20.8205 96.2906 30.4708 95.84 38.7711C95.7642 40.1673 95.5136 41.718 94.9203 42.9964C93.3975 46.2776 88.8179 50.5255 86.097 52.9665C84.9826 54.2226 83.8453 55.7222 83.0688 57.2139C83.3755 57.2295 83.7203 57.2113 84.0009 57.0756C85.3962 56.401 86.7487 55.3746 88.0706 54.5539C91.8458 52.2103 95.8766 49.891 100.191 48.7218C104.3 47.608 109.17 47.4415 112.955 49.6307C116.018 51.4022 118.426 54.5829 119.333 57.9978C121.304 65.4214 117.198 72.5594 113.594 78.7261C116.066 79.2636 118.466 80.088 120.643 81.3864C123.93 83.3458 127.106 86.5247 128.042 90.3284C129.16 94.8697 127.56 99.9414 125.186 103.824C118.643 114.525 106.514 119.36 94.8442 122.16C74.3317 127.08 37.7421 128.569 19.3923 117.299C13.5078 113.684 8.75947 108.442 7.13626 101.584C6.07067 97.082 7.43079 92.0334 9.84574 88.142C13.0417 82.9921 17.4559 81.5044 22.9942 80.2057C21.7125 79.3336 20.5351 78.4349 19.4499 77.3227C16.579 74.3804 14.4259 70.4896 14.4972 66.2858C14.5894 60.8461 17.3158 55.6484 21.1725 51.9256C28.2182 45.1245 35.7653 44.8525 45.0331 45.0046Z"/><path fill="#7A8518" d="M45.0331 45.0046C45.4244 42.4967 45.232 39.8484 45.3552 37.3106C45.7859 28.4371 48.2233 19.565 55.0024 13.419C59.6537 9.20198 65.8802 6.80657 72.1725 7.13143C78.1422 7.43963 82.7411 10.3738 86.6707 14.7309C92.1629 20.8205 96.2906 30.4708 95.84 38.7711C95.7642 40.1673 95.5136 41.718 94.9203 42.9964C93.3975 46.2776 88.8179 50.5255 86.097 52.9665L86.0915 52.8782C85.9494 50.3209 86.7794 47.7631 86.7463 45.172C86.6351 36.48 83.5783 24.1343 76.8426 18.0905C74.4726 15.964 71.7135 14.938 68.5263 15.1163C64.2128 15.3576 60.4417 17.421 57.6098 20.6185C52.7398 26.1172 50.3338 34.643 49.0472 41.7144C48.5428 44.4868 48.2816 47.7013 47.1818 50.2906C39.1035 50.186 33.3091 52.4381 27.4671 58.119C24.5396 60.9658 20.3431 65.5482 20.2871 69.8487C20.2506 72.6526 21.684 75.5311 23.6192 77.5073C26.6135 80.5651 30.4483 81.2399 33.7652 84.9801C28.8799 84.9756 23.4204 84.6102 19.6588 88.3836C17.9031 90.1448 16.4402 92.6881 16.4697 95.2323C16.5124 98.9007 18.8659 102.697 21.4339 105.179C23.3089 106.991 25.7311 108.685 28.1045 109.757C38.3332 114.378 59.2262 116.463 70.7902 116.249C84.4294 115.995 102.526 114.197 112.453 103.889C115.912 100.298 118.016 94.963 117.894 89.9514C117.851 88.1653 116.345 85.8636 115.076 84.666C112.011 81.773 107.722 81.32 103.73 81.1927C108.336 76.36 111.733 71.2971 111.563 64.4082C111.496 61.6792 110.674 59.0896 108.657 57.1698C106.661 55.2707 103.965 54.6136 101.271 54.6932C96.4493 54.8357 86.4778 59.4596 83.2378 57.9625L82.981 57.5095L83.0688 57.2139C83.3755 57.2295 83.7203 57.2113 84.0009 57.0756C85.3962 56.401 86.7487 55.3746 88.0706 54.5539C91.8458 52.2103 95.8766 49.891 100.191 48.7218C104.3 47.608 109.17 47.4415 112.955 49.6307C116.018 51.4022 118.426 54.5829 119.333 57.9978C121.304 65.4214 117.198 72.5594 113.594 78.7261C116.066 79.2636 118.466 80.088 120.643 81.3864C123.93 83.3458 127.106 86.5247 128.042 90.3284C129.16 94.8697 127.56 99.9414 125.186 103.824C118.643 114.525 106.514 119.36 94.8442 122.16C74.3317 127.08 37.7421 128.569 19.3923 117.299C13.5078 113.684 8.75947 108.442 7.13626 101.584C6.07067 97.082 7.43079 92.0334 9.84574 88.142C13.0417 82.9921 17.4559 81.5044 22.9942 80.2057C21.7125 79.3336 20.5351 78.4349 19.4499 77.3227C16.579 74.3804 14.4259 70.4896 14.4972 66.2858C14.5894 60.8461 17.3158 55.6484 21.1725 51.9256C28.2182 45.1245 35.7653 44.8525 45.0331 45.0046Z"/><path fill="#7A8518" d="M49.9423 99.4015C50.285 99.4977 50.735 99.5986 51.0278 99.8083C51.4677 100.123 51.6903 100.501 51.7574 101.041C51.9352 102.472 50.9392 104.282 50.0401 105.323C48.873 106.674 47.3783 107.513 45.5793 107.627C42.994 107.792 41.0055 106.608 39.1541 104.956C37.7814 103.083 37.5703 101.437 37.173 99.2006C37.6417 99.8295 38.1214 100.449 38.6969 100.985C40.1559 102.344 41.9788 103.405 44.0317 103.313C46.6819 103.194 48.2855 101.195 49.9423 99.4015Z"/><path fill="#565D0A" d="M85.1419 75.5419C85.2417 75.5436 85.4038 75.6831 85.4924 75.7398C85.3996 77.6144 84.5633 79.1971 83.2292 80.4949C81.4682 82.2079 79.2211 83.2968 76.7535 83.2537C76.5035 82.9773 76.2904 82.6697 76.1195 82.3385C75.7821 81.6975 75.6809 80.9454 75.9151 80.2486C76.6721 77.9958 80.4882 77.5146 82.4547 76.8099C83.3754 76.4799 84.2731 75.9909 85.1419 75.5419Z"/><path fill="#565D0A" d="M65.6267 96.5133C66.0949 96.5245 66.7712 96.5093 67.2038 96.6833C67.736 96.8974 67.8204 97.0537 68.0385 97.5496C68.0067 97.8477 67.9351 98.13 67.7897 98.3947C66.678 100.419 64.1318 101.303 62.071 101.894C61.7737 101.846 61.4705 101.735 61.18 101.653C60.2399 100.599 60.0069 98.8331 59.6645 97.4867L59.8534 97.5108C62.3145 97.812 63.36 97.4755 65.6267 96.5133Z"/><path fill="#7A8518" d="M67.7086 44.0906C68.0913 44.2704 68.3997 44.4809 68.5979 44.851C69.2524 46.0732 69.2497 47.3194 68.8417 48.6319C68.0511 51.1754 66.3657 53.1344 64.0359 54.367C63.5162 54.0523 63.2255 53.6693 62.8757 53.1884C62.4988 50.8239 64.9224 50.3635 65.9564 48.6015C66.72 47.3003 67.1975 45.5193 67.7086 44.0906Z"/><path fill="#565D0A" d="M48.5213 67.3657C49.0581 67.5834 49.0981 67.5694 49.3893 68.0805C49.9045 68.9852 50.7545 70.7289 51.8486 70.9966C52.981 71.2737 53.6316 69.5558 54.4951 69.0214C55.3591 69.4593 56.4438 71.4969 57.0324 72.339C56.9849 72.5764 56.9821 72.7932 56.8153 72.9751C56.114 73.7398 55.5563 74.2279 54.482 74.2643C53.114 74.3108 51.7421 73.4804 50.7866 72.5634C49.2821 71.1196 48.5547 69.4348 48.5213 67.3657Z"/><path fill="#565D0A" d="M99.1182 96.1239C100.309 96.5755 101.445 96.8217 102.679 97.0973C103.491 97.2789 104.44 97.5191 104.912 98.2639C104.891 99.0283 104.634 99.2961 104.228 99.9256C102.97 100.13 101.411 100.333 100.175 99.9491C99.6319 99.7805 99.1584 99.476 98.9005 98.954C98.4678 98.078 98.8544 96.9948 99.1182 96.1239Z"/><path fill="#9D4D27" d="M76.1943 131.624C77.8398 131.492 80.194 130.946 81.5893 132.017C82.7606 136.42 86.1392 156.527 84.1202 159.897C82.8992 161.935 79.7858 162.88 77.5957 163.373C71.132 164.827 58.0482 166.135 52.1196 162.415C50.9198 161.662 50.1642 160.762 49.8551 159.368C48.5882 153.657 51.3905 143.729 51.6624 137.766C52.0545 135.895 52.1752 133.918 52.3865 132.017C53.8404 131.513 55.6202 131.872 57.1245 132.007C63.3926 132.4 69.922 131.85 76.1943 131.624Z"/><path fill="#6F3811" d="M76.1943 131.624C77.8398 131.492 80.194 130.946 81.5893 132.017C82.7606 136.42 86.1392 156.527 84.1202 159.897C82.8992 161.935 79.7858 162.88 77.5957 163.373C71.132 164.827 58.0482 166.135 52.1196 162.415C50.9198 161.662 50.1642 160.762 49.8551 159.368C48.5882 153.657 51.3905 143.729 51.6624 137.766C52.0545 135.895 52.1752 133.918 52.3865 132.017C53.8404 131.513 55.6202 131.872 57.1245 132.007C56.7876 136.956 54.7219 153.825 55.6936 157.49C56.005 157.873 56.329 158.176 56.7595 158.417C60.8335 160.702 74.5893 158.772 79.034 157.484C78.3502 148.863 77.1117 140.229 76.1943 131.624Z"/></svg>