<?xml version="1.0" encoding="utf-8" ?><svg xmlns="http://www.w3.org/2000/svg" xmlns:xlink="http://www.w3.org/1999/xlink" width="110" height="213" viewBox="0 0 110 213"><path fill="#67480B" d="M10.0582 93.2416C12.5102 85.8504 14.1247 78.2291 16.6643 70.8568C20.056 61.0111 24.4548 51.4912 28.2735 41.8037C28.7809 40.5164 28.4873 39.106 28.7574 37.7791C29.1565 35.8181 30.4961 33.3905 31.3702 31.564C32.1597 29.9141 33.2639 28.4287 34.1792 26.8482C37.1337 21.746 40.1466 16.7059 43.4622 11.8245C45.2477 9.19598 47.2064 5.54841 49.3718 3.33644C50.9264 1.74847 53.365 1.11414 55.539 1.09477C67.1952 0.990924 73.9703 20.3073 77.5756 29.1225C78.1507 30.5289 78.9605 33.6399 80.0008 34.636C80.0117 34.6464 80.0228 34.6564 80.0338 34.6666C81.281 34.7414 82.6022 34.6627 83.4953 35.6728C83.7177 35.9243 83.7465 36.2995 83.8233 36.6243C83.6219 37.6583 82.9494 38.5846 82.0766 39.1643C81.8553 39.31 81.6283 39.4471 81.3963 39.5752C83.019 43.2072 84.1745 48.8229 85.1848 52.7267L92.3888 80.393C93.3968 84.3432 93.9232 88.5324 95.3022 92.3658C96.2447 92.5758 97.1737 92.8813 98.1002 93.1537C100.564 98.7785 98.0519 98.6338 98.5233 102.661C98.7987 105.013 99.6341 107.365 100.188 109.666C101.026 113.144 101.704 116.673 102.494 120.164C104.828 130.491 108.435 146.253 107.711 156.601C107.285 162.688 105.277 169.339 102.004 174.508C100.136 177.458 97.9531 179.66 95.2736 181.86C93.8339 183.042 92.375 184.392 90.7773 185.342C85.596 188.42 78.5853 189.376 72.7673 190.675C72.7174 195.46 73.4418 201.687 70.9855 205.936C69.9031 207.809 68.085 208.954 66.019 209.491C59.9472 211.071 47.8918 211.831 42.5172 208.667C36.4787 205.112 38.6277 196.176 37.1067 190.308C30.7359 187.935 23.514 187.784 16.9986 185.711C11.69 184.022 7.52066 180.688 4.9418 175.681C-2.15804 161.898 3.53475 128.332 6.2871 113.144C6.87882 109.879 7.78306 106.648 8.31757 103.383C8.75499 100.71 6.96806 97.8233 7.81683 95.2702C8.20011 94.1173 9.05362 93.7517 10.0582 93.2416Z"/><path fill="#7B4409" d="M80.0338 34.6666C81.281 34.7414 82.6022 34.6627 83.4953 35.6728C83.7177 35.9243 83.7465 36.2995 83.8233 36.6243C83.6219 37.6583 82.9494 38.5846 82.0766 39.1643C81.8553 39.31 81.6283 39.4471 81.3963 39.5752C80.4891 38.2273 79.9849 36.281 80.0338 34.6666Z"/><defs><linearGradient id="gradient_0" gradientUnits="userSpaceOnUse" x1="111.37389" y1="149.60602" x2="7.4476337" y2="69.768517"><stop offset="0" stop-color="#869512"/><stop offset="1" stop-color="#A0B22D"/></linearGradient></defs><path fill="url(#gradient_0)" d="M10.2407 132.015C10.6 130.853 10.7839 129.785 10.9282 128.583C11.2088 126.244 12.998 113.182 13.5435 112.114C13.7569 111.696 14.5431 111.596 14.9678 111.262L15.0189 110.706L14.1025 110.686C12.9546 108.687 15.6623 104.083 15.4712 102.606C15.437 102.341 15.1697 101.905 15.0573 101.651C17.223 95.8078 18.6703 89.5769 20.4051 83.5899C23.9629 71.3114 27.7043 58.7028 32.6361 46.8911C36.7059 37.1442 46.9132 14.4765 54.9512 8.31399C55.7043 7.73657 56.696 7.37649 57.57 7.01759C63.3084 9.7822 65.8246 17.0677 67.9989 22.5851C68.7872 24.5854 69.6941 26.5969 70.3454 28.6435C70.779 30.0058 70.3469 31.2355 71.2826 32.3212C72.9025 33.8051 75.5273 39.4224 75.5971 41.6447C75.5979 41.6678 75.5972 41.6909 75.5972 41.7139C77.4097 46.4954 78.3923 51.2078 79.654 56.1392C80.5481 59.6339 81.6449 63.0694 82.4592 66.5864C82.8373 68.2194 83.0174 69.9057 83.4286 71.5258C83.677 72.5043 84.4395 73.2397 84.6801 74.2091C85.1656 76.1649 85.3923 78.2103 85.8653 80.1862C89.7804 96.1869 93.4416 112.249 96.8476 128.366L99.509 140.882C100.027 143.218 100.786 145.656 101.102 148.015C101.21 148.824 100.604 149.571 100.699 150.395C100.809 151.339 101.577 152.201 101.62 153.14C101.784 156.666 100.615 160.942 99.1866 164.117C95.8472 171.541 91.7564 177.703 83.8323 180.707C79.3724 182.397 74.6831 182.894 69.9652 183.208C68.3445 183.316 66.3907 183.239 64.8217 183.62C64.0184 183.815 63.187 184.426 62.4962 184.876C61.8982 184.569 61.0874 184.055 60.4162 183.978C58.4344 183.749 56.0925 184.133 54.0704 184.164C49.7507 184.229 45.1454 184.098 40.8533 183.564C39.1831 183.356 37.7671 182.495 36.1478 182.168C32.8735 181.507 29.4598 181.702 26.1882 181.134C23.3935 180.649 20.9286 179.12 17.987 179.42C11.8089 175.324 10.3272 172.288 8.85563 165.007C8.64512 163.965 8.329 162.756 8.49546 161.693C8.59527 161.055 8.84302 160.415 8.81526 159.763C8.73739 157.936 8.17259 155.922 8.43366 154.112C8.5298 153.445 8.95376 152.811 9.32031 152.259L9.36321 152.195C9.22119 150.99 8.94882 149.656 9.01721 148.448C9.1031 147.146 9.39118 145.866 9.44734 144.563C9.6187 140.59 9.42138 137.788 10.93 133.969L10.2407 132.015Z"/><path fill="#717D0C" d="M74.3375 45.3939C74.3918 45.3205 74.4353 45.2492 74.4851 45.1731C75.0517 44.3078 74.8082 43.073 74.969 42.0532L75.5972 41.7139C77.4097 46.4954 78.3923 51.2078 79.654 56.1392C80.5481 59.6339 81.6449 63.0694 82.4592 66.5864C82.8373 68.2194 83.0174 69.9057 83.4286 71.5258C83.677 72.5043 84.4395 73.2397 84.6801 74.2091C85.1656 76.1649 85.3923 78.2103 85.8653 80.1862C89.7804 96.1869 93.4416 112.249 96.8476 128.366L99.509 140.882C100.027 143.218 100.786 145.656 101.102 148.015C101.21 148.824 100.604 149.571 100.699 150.395C100.809 151.339 101.577 152.201 101.62 153.14C101.784 156.666 100.615 160.942 99.1866 164.117C95.8472 171.541 91.7564 177.703 83.8323 180.707C79.3724 182.397 74.6831 182.894 69.9652 183.208C68.3445 183.316 66.3907 183.239 64.8217 183.62C64.0184 183.815 63.187 184.426 62.4962 184.876C61.8982 184.569 61.0874 184.055 60.4162 183.978C58.4344 183.749 56.0925 184.133 54.0704 184.164C49.7507 184.229 45.1454 184.098 40.8533 183.564C39.1831 183.356 37.7671 182.495 36.1478 182.168C32.8735 181.507 29.4598 181.702 26.1882 181.134C23.3935 180.649 20.9286 179.12 17.987 179.42C11.8089 175.324 10.3272 172.288 8.85563 165.007C8.64512 163.965 8.329 162.756 8.49546 161.693C8.59527 161.055 8.84302 160.415 8.81526 159.763C8.73739 157.936 8.17259 155.922 8.43366 154.112C8.5298 153.445 8.95376 152.811 9.32031 152.259L9.36321 152.195C9.22119 150.99 8.94882 149.656 9.01721 148.448C10.7605 150.166 9.26014 152.33 8.96373 153.857C8.85412 154.422 9.06425 158.43 9.33312 158.794C9.66403 159.241 10.1001 159.028 10.3271 159.72C10.1105 159.739 9.987 159.7 9.79157 159.605C9.77071 159.595 9.75012 159.584 9.72939 159.574C9.458 160.201 8.94049 161.096 8.85928 161.77C8.67131 163.329 10.194 168.542 10.7283 170.205C11.8864 173.808 14.3346 176.974 17.7731 178.684C18.8421 179.216 20.1938 178.774 21.3298 178.994C23.4045 179.398 25.3301 180.581 27.5095 180.957C29.6275 181.323 31.83 180.818 33.9657 181.083C36.2647 181.367 38.448 182.66 40.7388 183.052C47.5486 184.218 57.4759 183.795 64.3853 183.325C65.428 183.254 66.6795 183.385 67.6836 183.118C68.1458 182.995 68.2929 182.01 68.9332 181.791C68.9557 182.084 68.9973 182.35 69.0702 182.635C69.3381 182.702 69.7114 182.813 69.989 182.774C70.6758 182.677 70.8722 182.246 71.2536 181.744L71.5929 181.808L71.6263 182.588C72.1457 182.663 72.6826 182.714 73.2077 182.703C74.5601 182.675 75.8965 182.179 77.214 181.906C82.8217 180.745 87.8321 179.264 91.932 174.947C94.8756 171.848 101.053 161.247 100.893 157.024C100.873 156.501 100.799 156.333 100.42 155.985C100.153 156.428 100.216 156.515 100.311 157.023L99.6665 157.06C99.6185 157.154 99.5685 157.246 99.5093 157.334C98.4108 158.972 97.0426 158.614 95.3893 158.961L94.9075 158.49L95.2903 158.407C95.4439 158.218 95.6056 158.019 95.7173 157.802C96.9308 155.447 94.2747 155.407 93.7718 153.77L93.5085 153.669C91.7792 156.023 91.7357 159.478 89.6874 161.641L89.4994 161.523C91.5153 158.215 93.6277 152.681 93.6481 148.778C93.679 142.854 92.0459 136.8 90.973 131.017C89.4962 123.058 88.0573 115.02 86.2563 107.131C84.2224 98.2214 81.8109 89.3859 79.8402 80.4582C78.4981 74.3781 77.8759 68.0409 76.9756 61.8792C76.1713 56.3742 75.0872 50.9007 74.3375 45.3939Z"/><path fill="#6D6B12" d="M71.2826 32.3212C72.9025 33.8051 75.5273 39.4224 75.5971 41.6447C75.5979 41.6678 75.5972 41.6909 75.5972 41.7139L74.969 42.0532C74.8082 43.073 75.0517 44.3078 74.4851 45.1731C74.4353 45.2492 74.3918 45.3205 74.3375 45.3939C74.0052 43.7446 73.7309 42.054 73.2916 40.431C72.5926 37.8478 71.3532 34.989 71.2826 32.3212Z"/><path fill="#67480B" d="M67.4969 114.63C67.5671 105.425 67.916 96.092 67.411 86.894C67.3095 85.0434 66.8698 83.2402 66.7354 81.416C66.6786 80.6441 67.1174 79.934 67.0403 79.1429C66.7986 76.6613 65.5113 74.456 65.1122 72.0887C64.9536 71.1477 65.8588 70.3936 65.7855 69.4422C65.6562 67.7634 64.2774 65.7723 64.3636 64.2128C64.3692 64.1122 64.3831 64.0125 64.4008 63.9134C64.7386 63.8949 65.048 63.8825 65.3691 63.7659C65.6202 61.0832 63.5319 58.9584 64.8013 55.7898C65.3071 55.5929 65.5011 55.6408 65.9945 55.8601C66.5592 56.111 67.1125 56.5241 67.6275 56.8652C69.4574 62.4955 70.1798 68.8231 71.0062 74.6694C71.2536 76.4201 71.7014 78.3687 71.7312 80.1286C71.7412 80.7215 71.5528 81.2778 71.4214 81.8479C71.3437 82.1851 72.3179 90.4374 72.3976 91.7122C72.8332 98.683 73.8287 105.593 74.2899 112.55C74.4445 114.882 74.1252 117.212 74.1381 119.545C74.1532 122.287 74.473 125.07 74.387 127.804C74.304 130.441 73.3721 133.007 73.2193 135.603C73.1622 136.573 73.6142 137.539 73.565 138.506C73.4847 140.082 73.0434 141.752 72.8252 143.327C72.1565 148.155 71.9268 152.819 69.9636 157.389C69.2569 157.548 68.0808 157.631 67.5925 158.14C67.4779 159.214 67.4637 161.462 66.5744 162.188C66.4514 162.288 66.2039 162.303 66.0443 162.334C65.2703 162.053 64.8281 161.41 64.3244 160.794C64.1123 160.176 64.3588 159.633 64.63 159.079C65.0134 158.297 65.509 157.547 65.9681 156.806C65.5557 155.669 65.2284 154.61 65.2253 153.385C65.2179 150.386 65.9962 147.486 66.1985 144.511C66.4551 140.738 66.4832 136.947 66.7456 133.171C67.0424 128.901 67.5672 124.684 67.7286 120.394C67.7593 119.576 67.4674 118.813 67.4906 118.011C67.2538 116.776 67.1255 115.861 67.4969 114.63Z"/><path fill="#717D0C" d="M67.4969 114.63C68.0728 115.191 69.1672 116.007 69.2718 116.824C68.6993 117.61 68.2037 117.485 67.4906 118.011C67.2538 116.776 67.1255 115.861 67.4969 114.63Z"/><path fill="#67480B" d="M43.2627 86.6549C43.6878 86.7003 44.1212 86.8298 44.497 87.0363C45.2967 87.4758 45.5179 88.6529 45.7541 89.47C45.1833 91.7022 42.8903 104.649 43.5243 106.126L44.5866 106.396C44.2521 106.793 43.6929 106.877 43.3908 107.204C42.4141 108.262 43.2417 114.379 43.2065 115.995C43.1407 119.023 42.8221 122.038 42.8603 125.086C42.9449 131.823 43.8869 138.476 44.7859 145.137C45.0525 147.112 46.9086 153.933 46.452 155.342C46.2108 156.087 45.8092 156.572 45.1049 156.922C44.1551 157.395 43.4731 157.258 42.5029 156.924C40.4694 155.047 38.0102 148.49 38.0163 145.736C38.0196 144.23 39.1632 142.22 38.6729 140.803C38.2677 140.802 37.944 140.803 37.5718 140.627C36.7949 138.322 35.7862 128.268 36.1501 126.036L36.6409 125.722C37.2421 124.377 35.8624 124.352 35.7714 123.275C35.6591 121.945 36.3773 120.528 36.4572 119.169C36.6835 115.316 36.5412 111.383 36.7143 107.512C36.9473 102.298 39.5467 90.0561 43.2627 86.6549Z"/><path fill="#717D0C" d="M14.0381 163.713C16.037 164.311 18.0439 165.437 19.9703 166.269C21.9325 167.118 24.0293 167.725 26.0932 168.273C28.0768 168.8 28.6699 168.197 29.9806 168.389C30.8805 168.52 31.4331 169.44 32.1885 169.653C32.9344 169.864 35.5968 169.211 36.6788 169.29C38.12 169.395 39.8074 170.411 41.2829 170.727C41.7383 170.825 42.2596 170.449 42.622 170.208C44.3452 170.4 50.8188 170.475 51.7198 170.901C52.4186 171.231 53.0588 172.142 53.669 172.661L54.1424 172.513C54.2154 172.285 54.2923 172.059 54.373 171.833C54.6289 171.129 54.8491 170.818 55.6245 170.771C65.8991 170.152 74.8841 171.62 84.6426 167.059L84.7675 167.66L85.1548 167.674L87.5253 165.471L88.2055 165.927C87.8679 166.237 87.5342 166.551 87.2044 166.87C87.161 167.331 86.9959 167.834 87.2871 168.203C87.6794 167.897 87.9879 167.509 88.4941 167.547L88.5514 167.786C88.2232 168.636 87.8215 168.351 87.3776 168.992L87.5706 169.516L88.5478 169.755L88.4386 170.065C87.9126 170.154 87.4725 170.156 86.9438 170.088C86.6733 170.507 86.6776 170.835 86.6897 171.324C85.6508 172.394 86.2085 173.51 85.4887 174.597C85.0954 175.191 84.8212 175.14 84.1549 175.27C80.9318 175.382 77.8389 179.118 75.1245 180.241L73.1209 178.74C72.2825 179.115 72.1337 179.743 71.6755 180.51C70.6036 179.938 70.4582 178.5 69.369 177.885C66.4674 177.946 63.5972 177.437 60.7021 177.272C59.366 177.195 57.9462 177.401 56.6322 177.251C55.8502 177.161 53.7645 176.153 53.1283 176.444C52.691 176.644 52.44 177.275 51.8512 177.512C50.5955 177.361 48.8525 177.391 47.6853 176.98C45.9465 176.367 43.8062 173.129 42.5946 171.758C40.5177 169.408 37.2352 170.619 35.0023 170.025C34.6709 169.937 34.1701 169.257 33.8499 169.222C33.2116 169.152 32.7431 170.407 31.891 170.07C31.5791 169.947 31.2451 169.23 30.9314 169.029C30.0995 168.496 28.4912 168.998 27.5362 168.925C25.329 168.756 15.3716 165.256 14.0381 163.713Z"/><path fill="#DD7E4C" d="M42.9481 190.518C45.8239 190.432 48.7442 190.69 51.6226 190.765C56.1554 190.89 60.6906 190.905 65.2241 190.81C65.2213 192.921 65.7848 199.514 64.9681 201.239C64.6982 201.809 64.2213 201.859 63.6784 202.053C62.1607 202.589 60.6923 203.075 59.0989 203.326C56.4283 203.746 49.0724 203.949 46.6121 202.928C43.1759 201.502 44.5333 196.84 44.1508 193.934C43.999 192.78 43.3989 191.587 42.9481 190.518Z"/></svg>