<?xml version="1.0" encoding="utf-8" ?><svg xmlns="http://www.w3.org/2000/svg" xmlns:xlink="http://www.w3.org/1999/xlink" width="834" height="369" viewBox="0 0 834 369"><path fill="#ACB652" d="M2.50729 160.217C2.29159 154.887 1.4305 149.563 1.3772 144.236C1.33734 140.252 2.09871 136.272 2.24333 132.287C2.60283 122.381 2.06157 89.8645 8.02493 83.0371C12.3503 78.085 21.012 75.6744 27.2311 74.6555C30.8026 74.0704 34.4863 74.29 38.092 74.1049C42.1208 73.898 46.1372 73.3965 50.1727 73.3248C58.9397 73.1689 67.7817 73.6357 76.5342 73.2284C90.9917 72.5557 106.001 71.3793 120.307 69.1746C149.924 64.6103 178.541 54.031 205.246 40.6368C213.782 36.3559 222.201 31.542 230.483 26.7799C243.082 19.5349 261.717 7.03101 276.16 5.5065C287.31 4.32961 298.993 5.80287 310.131 6.7549C336.341 8.99522 362.805 12.9847 388.613 18.0474C411.569 22.5506 434.436 28.0332 457.521 31.7884C484.983 36.454 512.771 38.9489 540.625 39.2499C548.45 39.2821 556.098 38.511 563.878 38.3502C571.785 38.1868 579.71 38.4649 587.615 38.2295C591.206 38.1225 594.784 37.6752 598.37 37.4594C610.392 36.7357 622.729 37.2623 634.783 37.2623C662.101 37.2623 684.247 37.7782 709.928 48.6003C718.144 52.0625 725.955 56.2917 733.899 60.3174C744.379 65.6282 756.37 71.1902 765.205 79.0562C780.48 92.6557 778.36 123.165 779.432 142.206C779.882 149.697 780.464 157.798 779.785 165.272C779.945 172.353 779.147 179.157 778.859 186.198C778.266 202.874 777.209 219.53 775.687 236.147C774.178 254.871 768.522 283.7 760.163 300.364C754.802 311.051 746.345 322.575 735.519 328.022C731.607 329.991 727.511 331.055 723.428 332.548C719.907 333.836 716.475 335.384 712.913 336.561C699.111 341.122 683.484 342.601 669.031 341.609C665.321 341.354 661.611 340.67 657.915 340.241C652.124 339.57 646.286 339.067 640.671 337.407C636.54 336.186 632.567 334.45 628.41 333.311C623.882 332.071 619.197 331.432 614.648 330.24C609.53 328.898 604.633 327.072 599.301 326.736C592.535 326.31 584.665 326.142 577.939 326.96C571.607 327.731 565.509 329.23 559.104 329.581C548.545 330.159 537.769 329.742 527.188 329.729C520.963 329.721 514.69 329.875 508.471 329.629C504.671 329.479 500.895 328.975 497.096 328.819C492.45 328.628 487.781 328.846 483.141 328.526C462.794 327.121 441.523 322.485 423.222 313.246C402.708 322.984 383.046 321.677 361.076 321.712C352.88 321.725 344.387 322.236 336.223 321.539C332.838 321.25 329.377 320.867 326.042 320.241C322.63 319.601 318.762 317.956 315.311 318.173C309.297 318.552 300.947 321.586 294.717 322.834C291.354 323.508 287.938 323.802 284.55 324.319C273.095 326.067 261.679 327.548 250.061 327.744C234.749 328.003 211.495 326.661 197.206 321.142C191.384 318.893 186.296 315.653 180.876 312.636C174.551 309.115 168.867 306.048 163.608 300.928C157.699 295.174 153.381 289.733 153.046 281.324C153.035 281.049 152.993 280.048 152.863 279.85C152.452 279.224 141.389 276.464 140.072 276.142C110.727 268.955 54.7178 251.076 33.4376 230.45C17.8339 215.327 2.84687 181.984 2.50729 160.217Z"/><path fill="#7E9048" d="M2.50729 160.217C3.83114 165.066 6.48009 169.863 8.64199 174.405C20.962 200.289 40.0113 222.92 65.0628 237.225C104.392 259.684 156.635 265.001 200.149 253.055C220.905 247.357 239.93 236.758 254.425 220.655C278.498 246.833 309.244 257.041 344.18 258.503C384.361 260.184 418.843 247.921 452.595 226.904C482.583 256.147 533.869 262.388 573.79 261.855C599.715 261.51 628.555 259.099 652.232 247.687C657.906 244.952 663.058 241.494 668.219 237.917C672.454 248.455 675.196 252.053 685.923 256.601C706.272 265.227 732.833 264.464 753.152 256.173C761.973 252.573 771.343 246.647 775.156 237.494C775.341 237.048 775.518 236.599 775.687 236.147C774.178 254.871 768.522 283.7 760.163 300.364C754.802 311.051 746.345 322.575 735.519 328.022C731.607 329.991 727.511 331.055 723.428 332.548C719.907 333.836 716.475 335.384 712.913 336.561C699.111 341.122 683.484 342.601 669.031 341.609C665.321 341.354 661.611 340.67 657.915 340.241C652.124 339.57 646.286 339.067 640.671 337.407C636.54 336.186 632.567 334.45 628.41 333.311C623.882 332.071 619.197 331.432 614.648 330.24C609.53 328.898 604.633 327.072 599.301 326.736C592.535 326.31 584.665 326.142 577.939 326.96C571.607 327.731 565.509 329.23 559.104 329.581C548.545 330.159 537.769 329.742 527.188 329.729C520.963 329.721 514.69 329.875 508.471 329.629C504.671 329.479 500.895 328.975 497.096 328.819C492.45 328.628 487.781 328.846 483.141 328.526C462.794 327.121 441.523 322.485 423.222 313.246C402.708 322.984 383.046 321.677 361.076 321.712C352.88 321.725 344.387 322.236 336.223 321.539C332.838 321.25 329.377 320.867 326.042 320.241C322.63 319.601 318.762 317.956 315.311 318.173C309.297 318.552 300.947 321.586 294.717 322.834C291.354 323.508 287.938 323.802 284.55 324.319C273.095 326.067 261.679 327.548 250.061 327.744C234.749 328.003 211.495 326.661 197.206 321.142C191.384 318.893 186.296 315.653 180.876 312.636C174.551 309.115 168.867 306.048 163.608 300.928C157.699 295.174 153.381 289.733 153.046 281.324C153.035 281.049 152.993 280.048 152.863 279.85C152.452 279.224 141.389 276.464 140.072 276.142C110.727 268.955 54.7178 251.076 33.4376 230.45C17.8339 215.327 2.84687 181.984 2.50729 160.217Z"/><path fill="#91A34A" d="M361.572 269.584C367.392 268.571 373.485 268.665 379.371 267.728C407.639 263.232 431.815 253.722 452.39 233.384C471.518 258.418 506.203 267.261 535.955 271.253C556.003 273.943 577.478 273.855 597.507 270.848C598.883 278.443 600.769 285.936 603.151 293.277C593.653 293.233 583.929 292.776 574.462 293.627C568.197 294.19 562.059 295.923 555.77 296.269C537.797 297.257 519.548 296.477 501.607 295.407C494.158 294.963 486.662 295.077 479.228 294.4C470.642 293.619 462.42 291.641 454.152 289.272C450.648 288.268 443.83 286.992 441.289 284.215C439.188 281.919 437.954 263.423 435.043 257.291C434.184 262.135 433.699 267.041 434.526 271.934C426.579 276.387 422.988 275.997 414.975 278.401C411.633 279.403 408.65 281.499 405.346 282.609C397.509 285.241 388.717 286.396 380.581 287.806C379.473 282.973 377.45 278.881 373.81 275.455C370.527 272.363 366.198 269.434 361.572 269.584Z"/><path fill="#91A34A" d="M666.951 244.759C675.655 256.646 682.037 263.025 696.917 266.522C719.688 271.874 745.046 268.18 764.961 255.862C763.008 259.398 761.2 262.969 758.7 266.164C750.927 276.1 733.461 291 722.374 296.83C718.029 299.115 713.208 300.583 708.58 302.204C691.46 309.696 669.159 309.154 651.068 305.085C646.421 304.04 641.934 302.247 637.35 300.955C632.784 299.669 628.08 298.867 623.474 297.735C618.294 296.461 613.24 294.865 608.002 293.813C605.752 286.237 604.723 278.052 603.722 270.225C626.312 266.694 649.61 260.479 666.951 244.759Z"/><path fill="#91A34A" d="M256.36 229.621C272.89 252.192 290.673 261.136 317.531 266.524C316.713 267.833 317.103 269.001 317.44 270.46C318.424 274.709 320.1 279.378 322.509 283.04C317.413 282.997 312.281 282.871 307.19 283.149C302.145 283.424 297.123 284.092 292.073 284.28C269.554 285.12 231.541 285.135 210.625 278.481C203.437 276.195 197.31 271.386 190.31 268.607C211.338 264.037 230.152 256.799 245.837 241.42C249.603 237.728 252.919 233.609 256.36 229.621Z"/><path fill="#ACB652" d="M317.531 266.524C332.274 269.43 346.566 270.684 361.572 269.584C366.198 269.434 370.527 272.363 373.81 275.455C377.45 278.881 379.473 282.973 380.581 287.806C371.968 288.732 359.717 288.693 351.05 287.881C340.978 280.489 334.175 282.866 322.509 283.04C320.1 279.378 318.424 274.709 317.44 270.46C317.103 269.001 316.713 267.833 317.531 266.524Z"/><path fill="#7E9048" d="M779.395 150.942C778.088 149.341 776.404 146.332 776.24 144.234C776.154 143.13 776.511 142.618 777.199 141.813C778.021 141.777 778.662 141.966 779.432 142.206C779.882 149.697 780.464 157.798 779.785 165.272C778.983 163.671 779.429 153.517 779.395 150.942Z"/><path fill="#7E9048" d="M150.134 85.2815C152.957 84.8394 156.432 84.8821 159.291 84.9595C166.021 85.1418 170.072 87.8358 174.592 92.5947C181.155 92.9791 190.017 90.8654 195.682 94.8763C201.355 98.8931 207.352 105.345 208.576 112.384C209.674 118.7 208.47 124.021 204.786 129.253C202.879 131.962 199.38 136.722 195.901 137.244C194.659 137.43 193.456 137.236 192.449 136.458C191.549 135.763 190.811 134.778 190.709 133.62C190.457 130.752 194.441 127.189 196.19 125.089C198.479 122.342 199.971 119.14 199.584 115.487C198.945 109.47 193.899 105.534 189.56 101.973C183.791 101.677 176.224 103.149 170.82 101.052C166.853 99.5128 164.91 95.1427 160.756 94.3293C158.164 93.8219 155.226 94.1727 152.619 94.4132C138.219 95.7418 134.817 105.872 124.159 113.012C119.838 115.908 115.824 116.139 110.867 115.177C101.488 113.692 91.864 109.957 82.3169 110.501C78.2264 110.733 74.3899 111.779 70.4915 112.968C67.8082 113.787 64.8242 114.492 62.4505 116.026C58.1713 118.793 54.1507 126.672 53.4621 131.632C52.7828 136.525 54.9223 146.302 51.2207 150.191C50.5513 150.894 49.8414 151.294 48.8404 151.246C47.6779 151.19 46.0725 150.124 45.3848 149.231C42.7922 145.863 43.7483 134.32 44.4043 130.144C45.6261 122.365 50.2054 113.427 56.6869 108.744C60.1008 106.278 64.2023 105.053 68.1956 103.874C87.8111 98.0818 97.4661 103.681 116.329 106.638C119.828 104.795 122.234 102.463 125.08 99.7482C132.659 92.5183 139.343 86.4416 150.134 85.2815Z"/><path fill="#7E9048" d="M323.315 20.9656C334.297 20.8354 345.203 22.8054 355.446 26.7696C358.138 27.7946 361.176 28.7836 362.441 31.5971C362.515 32.2544 362.561 32.8859 362.301 33.5115C361.818 34.6726 360.493 36.2991 359.194 36.4868C354.499 37.1654 346.179 33.4449 341.328 32.3113C334.922 30.8143 328.681 29.8708 322.081 30.2089C305.534 31.0568 300.737 36.1208 288.314 45.2347C284.567 47.9835 280.711 50.3789 276.241 51.7703C268.627 54.1406 260.509 53.4751 252.664 53.9187C245.98 54.2966 237.48 56.1122 231.31 58.7799C226.492 60.8635 224.141 64.3585 222.256 69.0545C226.033 70.8541 229.44 71.7049 233.577 72.2895C239.023 72.9646 253.774 71.9249 257.563 74.9015C258.475 75.6171 259.014 76.6614 259.114 77.813C259.213 78.9431 258.822 80.142 258.084 81.0019C257.023 82.2388 255.649 82.653 254.065 82.7327C251.699 82.8517 249.265 82.3769 246.895 82.2899C237.409 81.9419 223.491 82.5039 216.046 75.6925C214.281 74.078 213.205 71.9551 213.116 69.554C212.934 64.6741 216.217 59.2287 219.467 55.7742C226.237 48.5783 242.405 45.2069 251.987 44.6144C259.506 44.1494 267.485 44.9554 274.721 42.4803C278.364 41.2343 281.294 38.6534 284.372 36.4298C299.056 25.8244 304.452 21.493 323.315 20.9656Z"/><path fill="#7E9048" d="M672.635 53.5176C674.512 53.1844 676.681 53.2443 678.593 53.2037C689.838 52.9648 687.504 58.7064 694.966 61.9598C699.739 64.0406 705.065 63.6785 710.137 64.0833C714.559 64.4363 716.343 66.4637 720.018 68.3457C722.254 69.4904 724.958 69.6287 727.171 70.8993C732.206 73.7908 732.809 82.0727 736.006 86.6447C738.493 90.2017 742.272 92.9935 745.088 96.326C746.77 98.3177 747.917 100.46 748.481 103.02C750.169 110.674 748.618 118.767 750.221 126.483C751.763 133.902 756.781 141.297 756.018 149.019C755.663 152.615 753.83 157.614 750.943 159.917C749.835 160.801 747.828 161.286 746.437 161.029C745.74 160.901 745.101 160.592 744.721 159.972C742.414 156.213 746.313 150.992 747.094 147.316C745.286 140.122 741.772 133.406 740.657 126.034C739.645 119.341 741.471 110.123 738.791 104.045C736.731 99.3733 731.421 96.2197 728.398 92.1303C725.598 88.3434 724.097 83.3449 722.388 78.9761C717.901 77.6736 714.311 75.9223 710.344 73.4506C708.592 73.4332 706.841 73.3838 705.092 73.3023C694.223 72.7116 689.107 70.7992 681.947 62.7763C679.078 62.6771 676.225 62.6272 673.364 62.9007C667.459 63.4653 654.316 66.789 649.462 63.5943C648.662 63.0679 648.086 62.3802 647.906 61.4153C647.692 60.2697 647.99 58.927 648.695 57.9977C650.911 55.076 668.219 54.0959 672.635 53.5176Z"/><path fill="#7E9048" d="M164.154 186.599C165.031 186.967 165.709 187.386 166.186 188.225C168.104 191.603 166.54 197.456 165.502 200.959C164.649 200.579 164.155 199.909 163.682 199.133C161.574 195.672 163.238 190.222 164.154 186.599Z"/><path fill="#7E9048" d="M609.819 187.186L611.036 187.396C611.26 187.624 611.729 187.965 611.764 188.279C611.996 190.359 606.797 196.173 605.363 198.153C604.943 198.132 604.577 198.101 604.193 197.911C603.414 197.527 603.442 197.338 603.162 196.547C603.66 192.995 607.137 189.381 609.819 187.186Z"/><path fill="#7E9048" d="M563.542 128.563C563.779 128.745 564.068 128.883 564.187 129.163C565.497 132.232 561.591 139.785 560.344 142.804C559.572 142.258 559.273 141.831 559.101 140.927C558.338 136.925 561.369 131.758 563.542 128.563Z"/><path fill="#7E9048" d="M183.168 189.511C183.335 189.572 183.414 189.598 183.584 189.679C184.293 190.017 184.896 190.736 185.129 191.492C185.976 194.243 183.677 198.644 182.507 201.114C181.707 200.353 180.806 199.568 180.469 198.482C179.548 195.517 181.875 192.074 183.168 189.511Z"/><path fill="#7E9048" d="M391.322 70.362C392.293 70.6006 392.479 70.6845 393.197 71.3765L393.186 72.4271C392.418 74.04 391.134 75.1678 389.872 76.3911C389.232 76.2816 388.695 75.9526 388.127 75.6544C387.981 75.3279 387.685 74.8931 387.748 74.5406C388.077 72.6988 389.922 71.4085 391.322 70.362Z"/><path fill="#7E9048" d="M375.646 68.9846C375.895 69.0084 376.141 69.0358 376.386 69.0874C377.546 69.332 378.041 69.8971 378.626 70.8495C378.9 72.1211 378.681 72.9184 378.274 74.1311C377.995 74.0818 377.718 74.03 377.444 73.9563C376.305 73.6503 375.878 73.0978 375.316 72.1334C375.088 70.8943 375.248 70.1634 375.646 68.9846Z"/></svg>