<?xml version="1.0" encoding="utf-8" ?><svg xmlns="http://www.w3.org/2000/svg" xmlns:xlink="http://www.w3.org/1999/xlink" width="539" height="357" viewBox="0 0 539 357"><path fill="#859841" d="M343.998 26.6723C356.987 17.4894 371.341 10.6919 387.362 9.35434C390.583 9.08546 393.907 9.21664 397.139 9.22365C403.493 9.23743 409.692 9.48653 415.972 10.58C423.053 11.8126 431.946 14.5427 438.913 16.7051C441.181 17.4089 443.66 17.9588 445.831 18.8922C449.42 20.4352 452.831 22.5819 456.374 24.2748C458.565 25.322 461.017 26.0054 463.102 27.2344C466.794 29.4101 472.167 35.5287 476.161 36.5913C476.237 36.6117 476.312 36.6392 476.388 36.6625C476.433 36.6764 476.479 36.6894 476.525 36.7029C476.573 36.7827 476.621 36.8632 476.671 36.9423C479.143 40.8613 483.935 42.5548 487.367 45.3199C488.749 46.4332 489.341 48.0709 490.52 49.3423C493.005 52.0223 495.772 54.5239 498.352 57.1206C505.729 64.5441 512.093 72.4708 517.709 81.296C519.194 83.6301 521.14 85.6671 522.506 88.0465C523.9 90.4737 524.926 93.2144 525.906 95.8286C529.947 106.606 529.837 114.407 529.828 125.706C529.825 129.853 529.961 134.072 529.682 138.21C529.383 142.664 528.557 147.124 527.878 151.535C527.2 155.946 526.628 160.417 525.741 164.79C524.552 170.653 522.71 176.922 520.213 182.377L519.835 182.399C519.699 181.918 519.675 181.585 519.693 181.094C518.367 183.635 518.255 186.855 517.264 189.587C515.423 194.663 512.355 199.594 509.595 204.23C508.121 206.707 506.35 208.98 504.72 211.351C502.717 214.265 500.916 217.194 498.694 219.963C490.729 229.891 480.346 237.806 470.039 245.127C465.625 248.262 461.118 251.715 456.279 254.164C449.28 257.706 441.722 259.914 434.476 262.886C425.449 266.588 416.724 270.463 407.384 273.403C398.648 276.152 389.243 278.37 380.149 279.406C374.509 280.049 368.655 279.731 362.978 279.723C350.442 279.704 336.604 280.331 324.399 277.095C323.472 276.849 323.24 275.801 322.266 275.519C320.359 274.967 318.709 276.077 316.772 275.256C315.777 274.834 315.233 273.466 314.086 273.672C311.637 274.112 310.908 272.304 308.778 271.586C306.358 270.77 303.812 270.319 301.365 269.589C298.526 268.741 295.764 267.479 293.106 266.184C291.913 265.602 290.532 265.044 289.434 264.3C289.134 264.097 288.962 263.888 288.763 263.597C286.323 260.042 255.103 241.657 250.171 240.753C242.132 239.278 227.714 249.374 221.231 254.022C207.172 264.102 192.255 274.02 174.538 275.525C166.004 276.249 155.91 275.7 147.157 275.693C137.644 275.685 127.297 276.49 117.908 274.941C112.37 274.027 107.305 272.506 101.928 271.005C89.5402 267.549 76.4793 264.025 65.5803 256.9C64.4602 256.168 63.8862 255.033 62.865 254.202C58.5986 250.732 54.2338 247.737 50.3087 243.815C48.7926 242.301 46.6481 240.836 45.3467 239.21C45.1379 238.95 45.0261 238.618 44.912 238.309C43.599 234.758 42.4483 235.975 41.5606 234.149C39.0407 228.966 37.0721 223.651 34.6793 218.435C33.7436 216.395 32.334 214.632 31.5887 212.488C30.6773 209.866 30.1083 206.366 29.8704 203.602C29.6546 201.095 30.743 199.117 30.5906 196.674C30.4515 194.445 30.0395 192.214 29.982 189.981C29.8448 184.646 31.0098 177.898 32.6882 172.867C33.4097 170.704 34.3741 168.605 34.9841 166.407C35.508 164.519 35.6243 162.58 36.3041 160.721C40.1779 150.129 46.9064 140.38 54.2757 131.926C57.8914 127.778 62.1335 124.198 65.4836 119.823C66.1566 119.602 66.8935 119.624 67.5204 119.256C68.7691 118.523 75.3487 112.284 75.7695 110.912C74.542 111.471 73.5942 113.098 72.3603 113.846C73.7177 111.63 78.8535 108.101 79.1663 105.836C81.57 102.274 87.2891 97.9786 90.5819 95.0331C92.6694 93.1659 94.6397 91.1628 96.781 89.3559C111.075 77.2935 124.732 69.7126 142.137 62.9379C145.539 61.6135 149.058 60.5899 152.48 59.3143C156.606 57.776 160.539 55.7742 164.707 54.3065C166.188 54.6165 172.401 52.8768 174.298 52.3757C175.497 52.0591 177.369 51.2904 178.002 50.1996C181.193 49.352 184.597 48.6719 187.889 48.3792C194.34 47.8055 201.179 48.2238 207.676 48.2263C214.8 48.229 222.185 47.8131 229.271 48.4431C234.355 48.8952 239.577 49.9534 244.559 51.0569C246.954 51.5874 249.247 52.4366 251.621 53.0351C254.309 53.7129 257.088 54.0585 259.754 54.8266C263.586 55.9307 267.414 57.4108 271.33 58.1746C278.155 59.5053 285.734 59.6316 292.659 59.0957C293.392 59.0444 294.173 59.0039 294.888 58.8299C296.351 58.4736 297.919 57.4353 299.386 56.9003C303.391 55.4395 307.487 54.2267 311.476 52.7032C312.457 52.306 313.387 51.8973 314.312 51.3815C315.774 50.9555 317.947 48.2073 318.852 46.893C322.24 45.3588 328.668 38.8048 331.9 36.0351C333.275 35.756 334.826 34.2677 336.183 33.6134L335.169 34.3282C337.22 33.5944 340.287 31.4437 341.715 29.7876L341.679 29.5047L340.775 29.6583C340.962 29.0909 343.188 28.438 343.998 26.6723Z"/><path fill="#51421B" d="M106.662 165.091C109.501 165.176 111.026 166.04 113.219 167.802C119.698 164.482 118.596 167.858 122.497 167.565C123.806 167.466 125.044 166.437 126.385 166.208C127.796 165.968 129.445 166.665 130.545 167.524C132.576 169.111 133.639 171.823 133.926 174.322C134.165 176.402 133.844 178.694 132.431 180.329C131.774 181.088 130.851 181.655 129.83 181.699C128.229 181.769 127.136 180.956 126.068 179.897L125.82 179.65C125.587 178.972 125.384 177.917 124.771 177.507C122.449 178.584 121.764 179.167 119.195 178.278C119.087 178.24 118.516 177.989 118.415 178.003C117.221 178.166 113.841 183.608 111.716 184.5C110.499 185.01 109.259 184.8 108.097 184.261C105.482 183.05 103.48 180.327 102.563 177.653C101.598 174.839 101.327 170.717 102.723 168.002C103.621 166.255 104.888 165.644 106.662 165.091Z"/><path fill="#51421B" d="M343.63 228.487C343.126 228.234 342.62 227.979 342.142 227.68C340.214 226.473 338.565 224.432 338.083 222.181C337.688 220.351 338.067 218.439 339.13 216.899C340.546 214.802 342.981 213.64 345.417 213.221C349.42 212.533 352.096 213.802 355.271 216.036C356.358 215.522 357.475 214.938 358.614 214.552C359.311 214.316 360.095 214.232 360.831 214.257C362.688 214.319 364.509 214.889 366.361 214.976C369.336 215.115 372.39 214.716 375.347 215.072C376.442 215.205 377.529 215.462 378.521 215.957C379.532 216.462 380.407 217.237 380.738 218.352C381.106 219.589 380.703 221.278 380.033 222.362C379.48 223.255 378.772 223.95 377.718 224.182C374.453 224.902 366.977 223.822 362.996 223.975C359.903 224.094 356.904 225.206 353.783 225.017C352.152 224.918 350.996 224.47 349.607 223.63C349.537 225.212 349.429 226.546 348.215 227.727C347.341 228.577 346.05 228.785 344.878 228.696C344.45 228.663 344.044 228.593 343.63 228.487Z"/><path fill="#5F5526" d="M343.63 228.487C344.667 227.749 346.336 227.106 347.127 226.139C347.845 225.262 347.64 223.836 348.457 222.988C349.089 223.105 349.155 223.206 349.607 223.63C349.537 225.212 349.429 226.546 348.215 227.727C347.341 228.577 346.05 228.785 344.878 228.696C344.45 228.663 344.044 228.593 343.63 228.487Z"/><path fill="#51421B" d="M424.293 85.1012C425.387 85.0092 426.483 84.9668 427.579 85.0609C430.225 85.2879 431.995 86.5654 433.643 88.5532C434.844 87.5924 436.122 86.646 437.694 86.4408C439.828 86.1622 441.378 87.277 442.993 88.49C444.727 88.1908 446.155 88.0988 447.733 89.0396C449.152 89.8856 450.377 91.2198 450.742 92.8739C450.964 93.8768 450.797 94.862 450.219 95.7103C448.554 98.1501 445.386 98.2286 442.734 98.6711C440.277 98.9229 439.476 97.4456 437.82 97.4641C435.849 97.4863 434.396 99.1755 432.48 99.1651C430.546 99.1545 428.711 97.5237 427.417 96.2737C427.341 96.4743 427.26 96.6729 427.175 96.8694C426.64 98.0993 426.056 98.992 424.727 99.4473C423.792 99.7678 422.793 99.6286 421.926 99.1732C420.574 98.463 419.697 97.1737 419.242 95.7459C418.537 93.5366 418.573 90.4977 419.683 88.4217C420.719 86.4825 422.273 85.7334 424.293 85.1012Z"/><path fill="#869940" fill-opacity="0.74901962" d="M292.659 59.0957C295.39 57.602 297.754 55.5179 300.521 54.0516C304.463 51.9628 309.299 50.9737 313.5 49.4094C315.374 48.7118 316.92 47.5076 318.852 46.893C317.947 48.2073 315.774 50.9555 314.312 51.3815L313.894 50.9455C312.815 51.1556 311.742 51.2878 310.82 51.9249L310.665 52.3181C310.931 52.4539 311.193 52.606 311.476 52.7032C307.487 54.2267 303.391 55.4395 299.386 56.9003C297.919 57.4353 296.351 58.4736 294.888 58.8299C294.173 59.0039 293.392 59.0444 292.659 59.0957Z"/><path fill="#869940" fill-opacity="0.89803922" d="M65.4836 119.823C69.4628 114.936 74.4708 110.047 79.1663 105.836C78.8535 108.101 73.7177 111.63 72.3603 113.846C73.5942 113.098 74.542 111.471 75.7695 110.912C75.3487 112.284 68.7691 118.523 67.5204 119.256C66.8935 119.624 66.1566 119.602 65.4836 119.823Z"/><path fill="#869940" fill-opacity="0.9254902" d="M331.9 36.0351C334.582 32.7452 340.225 28.7316 343.998 26.6723C343.188 28.438 340.962 29.0909 340.775 29.6583L341.679 29.5047L341.715 29.7876C340.287 31.4437 337.22 33.5944 335.169 34.3282L336.183 33.6134C334.826 34.2677 333.275 35.756 331.9 36.0351Z"/><path fill="#869940" fill-opacity="0.93333334" d="M164.707 54.3065C169.086 52.6595 173.32 50.7392 178.002 50.1996C177.369 51.2904 175.497 52.0591 174.298 52.3757C172.401 52.8768 166.188 54.6165 164.707 54.3065Z"/><path fill="#869940" fill-opacity="0.58431375" d="M311.476 52.7032C311.193 52.606 310.931 52.4539 310.665 52.3181L310.82 51.9249C311.742 51.2878 312.815 51.1556 313.894 50.9455L314.312 51.3815C313.387 51.8973 312.457 52.306 311.476 52.7032Z"/></svg>