<?xml version="1.0" encoding="utf-8" ?><svg xmlns="http://www.w3.org/2000/svg" xmlns:xlink="http://www.w3.org/1999/xlink" width="884" height="947" viewBox="0 0 884 947"><defs><linearGradient id="gradient_0" gradientUnits="userSpaceOnUse" x1="806.51208" y1="424.15509" x2="9.7411146" y2="437.89468"><stop offset="0" stop-color="#889A42"/><stop offset="1" stop-color="#B5BD56"/></linearGradient></defs><path fill="url(#gradient_0)" d="M469.781 15.4231C471.006 15.3611 472.231 15.3268 473.457 15.32C531.088 15.0399 590.756 19.375 647.287 30.8989C661.881 33.8739 676.341 36.931 690.482 41.7048C709.31 48.0606 732.889 59.4269 747.069 73.6113C756.96 83.5046 764.774 101.008 771.227 113.596C786.207 142.817 796.406 171.637 801.726 204.168C803.863 217.238 803.128 230.128 803.8 243.226C804.05 248.1 804.637 252.954 804.787 257.834C805.201 271.31 804.802 284.89 804.853 298.378C804.931 319.079 804.961 339.658 803.546 360.322C801.899 384.393 799.495 408.356 797.222 432.372C796.072 444.526 794.704 456.726 793.999 468.912C791.856 506.283 791.147 543.723 791.873 581.149C792.015 594.11 792.804 607.082 792.84 620.027C793.005 678.43 797.259 707.447 764.298 759.161C757.737 769.455 751.301 780.475 742.568 789.117C735.474 796.137 725.477 800.73 716.521 804.931C694.985 815.035 673.39 820.855 650.183 825.694C599.563 836.249 552.201 838.376 500.963 841.498C450.2 844.708 399.354 846.428 348.491 846.655C323.363 846.69 298.073 847.287 272.963 846.608C268.54 846.489 264.136 845.959 259.716 845.782C255.138 845.599 250.55 845.781 245.975 845.488C231.891 844.586 217.942 842.761 203.985 840.744C190.444 838.787 176.4 836.682 163.404 832.342C155.147 829.522 147.24 825.764 139.838 821.143C104.636 798.992 78.4578 763.039 62.0851 725.238C53.216 704.762 46.2396 680.868 41.2597 659.096C38.3426 646.343 36.2006 633.438 33.9352 620.561C30.5531 601.801 27.5709 582.971 24.9908 564.084C21.3166 535.494 18.985 506.652 16.1316 477.969C13.801 454.541 11.5562 431.308 9.96756 407.809C9.18712 396.265 8.08698 384.847 8.26948 373.257C8.3671 367.057 9.55396 360.807 10.244 354.646C12.4197 335.219 15.481 315.918 18.4023 296.593C21.3828 276.877 24.0663 257.107 27.3937 237.447C29.42 225.474 31.3762 213.55 34.7375 201.859C40.4037 182.152 48.7109 169.034 56.9617 150.955C59.7007 144.953 61.2101 138.291 64.7781 132.701C71.5635 122.07 82.4403 114.095 92.387 106.643C96.7348 103.385 101.077 99.8446 105.642 96.9034C119.339 88.0775 134.183 81.0778 149.135 74.6984C194.77 55.228 242.304 44.3474 290.997 35.8121C325.218 29.6743 359.633 24.6651 394.184 20.7926C412.15 18.8635 430.161 17.3822 448.201 16.35C455.176 15.9624 462.409 17.0775 469.28 15.5416C469.448 15.5041 469.614 15.4626 469.781 15.4231Z"/><path fill="#789242" d="M261.224 64.5051C264.642 63.9829 268.282 64.5648 271.761 64.4404C293.882 63.649 313.751 65.822 335.615 66.5184C355.741 67.1594 375.939 65.9921 396.066 66.7754C387.62 67.581 378.517 66.9356 370.005 66.9338C351.936 66.9302 334.004 67.0857 315.962 65.8983C319.037 67.6096 322.819 68.6125 326.123 69.8591C332.411 72.232 338.349 75.0953 343.959 78.8117C357.893 88.0418 368.35 101.255 371.601 117.912C373.961 130.01 371.145 144.599 364.263 154.867C364.923 143.365 365.61 131.016 361.413 120.068C348.354 85.9965 308.837 72.5314 274.984 74.2604C267.325 74.6515 249.302 78.7031 242.988 75.9293L242.657 74.8398C242.9 74.2521 242.891 74.1806 243.343 73.6057C247.208 68.6875 263.284 66.1253 269.364 64.9556C257.867 64.108 245.872 65.9556 234.4 66.6965C233.596 68.0456 232.885 69.4598 231.641 70.4574C230.108 69.9463 230.053 68.9751 228.945 67.8973C228.208 67.1806 214.254 68.1584 212.392 68.2906C207.023 68.6719 210.43 70.6838 208.245 73.1789C206.494 72.5807 205.172 70.8814 203.896 69.5851C197.876 71.1852 191.488 71.7551 185.396 73.1668C179.428 74.5497 173.549 76.5664 167.741 78.4956C151.465 83.9007 141.645 88.3457 127.704 98.5475C106.862 113.872 82.5576 127.148 66.3928 147.811C62.2381 153.122 59.0798 159.318 56.9523 165.708C53.3781 176.444 52.411 188.157 49.4025 199.128L29.3234 274.976C26.907 284.022 23.456 292.938 21.36 302.015L21.2345 302.58L20.9292 302.135C20.3673 299.66 26.0266 285.465 27.0247 281.597L49.5457 196.268C52.6502 184.096 53.339 170.763 58.8942 159.4C60.6997 155.706 62.5588 151.213 65.1174 147.999C78.4303 131.274 96.6308 119.786 113.855 107.624C127.758 97.8064 140.566 87.2129 156.875 81.5961C170.633 76.8577 183.952 72.4495 198.344 70.0292C199.639 69.8114 203.592 68.9286 204.759 69.5517C205.778 70.0958 206.35 71.4973 207.597 72.1053C207.599 72.1018 207.603 72.0988 207.604 72.0947C207.911 70.7629 208.157 69.7372 208.871 68.5603C209.769 67.9465 210.282 67.745 211.374 67.7208C217.207 67.592 223.642 66.59 229.395 67.159C229.97 68.0093 230.564 68.8462 231.177 69.6691L231.856 69.4952C232.39 68.6653 232.946 67.6097 233.62 66.8986C235.581 64.8313 256.687 64.9849 260.814 64.5518L261.224 64.5051Z"/><path fill="#789242" d="M479.733 565.906C481.402 565.904 483.171 565.756 484.543 566.83C487.906 573.5 486.565 594.499 484.641 601.553C484.444 601.534 484.247 601.522 484.051 601.497C482.559 601.304 481.263 600.872 480.337 599.601C476.059 593.722 478.275 573.376 479.733 565.906Z"/><path fill="#789242" d="M407.742 71.7968C415.096 73.8382 419.434 85.1003 423.026 91.243C422.632 88.2756 422.284 84.4549 423.194 81.5739C423.539 80.4813 423.691 80.0034 424.73 79.4962C424.88 79.572 425.04 79.631 425.181 79.7237C426.999 80.9227 427.397 84.1306 427.877 86.1174C428.456 89.4234 428.985 92.5616 428.231 95.9047C427.898 97.3792 427.381 98.0281 426.125 98.8185C424.436 98.8991 423.27 98.3555 421.893 97.3885C414.229 92.0056 409.159 80.7908 407.742 71.7968Z"/><path fill="#789242" d="M459.603 589.222C461.345 589.289 463.31 589.749 464.639 590.911C464.786 591.75 464.824 591.958 464.372 592.735C461.265 598.065 451.227 600.38 445.804 601.655C443.943 601.938 442.145 601.731 440.304 601.414L439.671 600.198C439.707 600.113 439.735 600.022 439.78 599.941C442.967 594.151 453.572 590.528 459.603 589.222Z"/><path fill="#5A6D22" d="M718.984 706.696C721.126 707.401 722.427 708.69 723.478 710.665C727.056 717.386 725.413 726.767 723.225 733.667C722.533 734.59 722.516 734.774 721.423 735.076L720.5 734.431C718.185 728.971 718.893 713.117 718.984 706.696Z"/><path fill="#789242" d="M366.795 189.336C367.554 189.689 367.411 189.577 368.027 190.015C375.278 195.18 381.934 205.043 383.293 213.878C378.147 211.899 373.872 206.876 370.868 202.429C368.174 198.442 365.866 194.267 366.795 189.336Z"/><path fill="#789242" d="M445.591 555.294C450.48 556.744 455.44 559.404 459.669 562.221C462.779 564.291 465.545 566.3 466.301 570.146C460.47 570.102 453.44 568.23 449.141 564.12C446.378 561.479 445.582 559.035 445.591 555.294Z"/><path fill="#5A6D22" d="M730.404 374.738C730.573 374.816 730.75 374.879 730.91 374.972C731.771 375.472 732.375 376.098 732.646 377.063C734.158 382.457 725.86 396.142 723.106 401.159L722.154 401.222C721.306 400.673 720.991 400.578 720.71 399.547C719.145 393.791 727.514 379.927 730.404 374.738Z"/><path fill="#5A6D22" d="M632.596 111.77C633.097 112.349 633.472 112.829 633.755 113.547C634.327 114.998 633.696 116.806 633.083 118.147C630.133 124.608 620.486 130.856 614.126 133.336L612.81 131.582C612.763 130.975 612.537 130.419 612.929 129.91C614.906 127.342 619.336 124.751 621.892 122.609C625.815 119.319 629.289 115.667 632.596 111.77Z"/><path fill="#5A6D22" d="M737.714 396.599L738.872 396.685C739.73 397.394 739.674 397.416 739.852 398.525C737.712 405.856 727.35 413.3 721.213 417.548C720.165 416.769 720.089 416.738 719.715 415.496C721.269 409.042 732.618 400.823 737.714 396.599Z"/><path fill="#5A6D22" d="M747.614 688.447C747.791 688.42 747.966 688.356 748.144 688.365C749.365 688.433 749.766 689.205 750.493 690.036C750.744 691.193 750.878 691.761 750.24 692.819C747.244 697.783 738.048 700.223 732.843 701.399C731.956 701.205 731.416 700.934 730.621 700.517C730.038 699.513 729.988 699.527 730.199 698.395C733.8 693.904 742.08 691.998 747.015 688.837L747.614 688.447Z"/><path fill="#5A6D22" d="M604.854 179.083C609.737 180.408 614.07 184.647 617.417 188.274C620.266 191.361 623.225 194.729 623.074 199.13C620.728 199.161 618.426 197.277 616.684 195.827C611.981 191.913 605.478 185.408 604.854 179.083Z"/><path fill="#789242" d="M546.635 605.503C550.008 606.374 553.057 607.912 555.947 609.839C559.519 612.221 562.493 615.166 563.34 619.523C558.492 619.499 552.722 617.352 549.353 613.821C546.717 611.056 546.462 609.118 546.635 605.503Z"/><path fill="#5A6D22" d="M661.576 679.681C661.714 679.658 661.85 679.613 661.99 679.611C662.937 679.592 663.572 679.76 664.116 680.607C664.718 681.544 664.663 682.334 664.239 683.32C662.32 687.782 653.155 690.612 648.791 691.685C647.409 691.782 647.331 691.65 646.151 690.891C645.949 690.309 645.704 689.998 645.912 689.37C647.13 685.709 657.6 682.224 661 680.053L661.576 679.681Z"/><path fill="#789242" d="M219.946 336.032C220.593 336.249 221.211 336.454 221.81 336.787C228.117 340.297 234.694 350.221 236.876 356.944C235.639 356.73 234.385 356.373 233.263 355.796C226.684 352.409 221.907 342.789 219.946 336.032Z"/><path fill="#789242" d="M92.1741 426.544C93.4669 427.464 94.3172 429.013 95.2016 430.318C95.511 436.342 94.6698 440.645 91.9042 446.033L91.2904 446.057C90.3255 445.344 89.8394 444.574 89.5277 443.423C88.0933 438.128 89.5183 431.197 92.1741 426.544Z"/><path fill="#789242" d="M577.815 307.895C579.304 308.44 581.239 309.206 581.984 310.718C582.438 311.64 582.364 312.428 581.955 313.367C580.673 316.315 577.313 317.664 574.504 318.622C572.825 318.569 571.704 318.169 570.375 317.204C570.117 316.61 569.867 316.334 569.996 315.663C570.627 312.395 575.293 309.658 577.815 307.895Z"/><path fill="#789242" d="M419.645 221.016C420.808 221.399 421.437 221.705 422.389 222.526C422.563 223.117 422.803 223.445 422.561 224.056C421.17 227.571 413.426 230.494 410.108 232.129C409.743 232.146 409.278 232.18 408.923 232.131C407.734 231.97 407.566 231.802 406.907 230.894C406.948 230.328 406.916 230.292 407.155 229.685C408.538 226.167 416.44 222.558 419.645 221.016Z"/><path fill="#789242" d="M433.964 516.187C437.86 517.042 442.613 518.744 445.829 521.142C447.6 522.462 448.245 523.48 448.543 525.66C446.946 525.722 445.349 525.711 443.758 525.529C440.737 525.184 437.004 524.002 435.092 521.476C433.81 519.783 433.65 518.223 433.964 516.187Z"/><path fill="#789242" d="M481.859 445.949C482.685 446.297 483.403 446.722 484.011 447.391C487.648 451.395 490.044 459.246 489.893 464.533C487.925 463.59 486.564 462.653 485.267 460.863C482.155 456.564 481.043 451.139 481.859 445.949Z"/><path fill="#789242" d="M412.167 611.148C415.384 613.733 418.944 619.124 419.735 623.181C420.029 624.69 419.994 626.031 419.072 627.304C415.999 625.333 412.699 621.897 411.474 618.443C410.437 615.517 410.878 613.89 412.167 611.148Z"/><path fill="#789242" d="M386.166 98.4224C387.225 99.3305 388.162 100.71 388.27 102.131C388.605 106.582 385.435 110.883 382.786 114.173C381.636 112.722 380.658 110.973 380.541 109.097C380.273 104.777 383.505 101.414 386.166 98.4224Z"/><path fill="#789242" d="M396.43 111.847C397.503 112.132 398.179 112.431 399.084 113.076C399.415 113.804 399.651 114.03 399.541 114.856C399.109 118.087 394.348 121.087 391.874 122.872C390.993 122.9 390.085 122.68 389.365 122.177C388.713 121.721 388.851 121.317 388.727 120.586C389.685 116.821 393.41 114.028 396.43 111.847Z"/><path fill="#789242" d="M331.484 438.868C332.466 439.098 333.437 439.407 334.253 440.023C338.12 442.941 338.38 449.42 339.018 453.86C337.43 453.675 336.243 453.382 335.063 452.265C331.66 449.042 331.561 443.229 331.484 438.868Z"/><path fill="#789242" d="M56.1621 586.98C57.0735 587.323 57.818 587.773 58.6051 588.339C62.6962 591.278 65.724 595.326 66.5329 600.368C63.8199 599.732 61.2931 598.523 59.3199 596.504C56.5746 593.694 56.1639 590.722 56.1621 586.98Z"/><path fill="#789242" d="M330.375 557.346C331.619 557.718 332.853 558.059 333.835 558.95C337.372 562.16 338.357 566.759 338.673 571.305C337.349 571.013 336.082 570.735 334.997 569.874C331.379 567.003 330.772 561.627 330.375 557.346Z"/><path fill="#789242" d="M307.682 558.676C309.203 559.328 310.038 559.882 310.944 561.292C313.075 564.613 313.699 568.749 312.934 572.58C311.046 572.143 309.774 571.441 308.732 569.774C306.659 566.46 306.928 562.337 307.682 558.676Z"/><path fill="#789242" d="M68.7033 427.803C70.9272 428.661 72.8055 429.788 73.8376 432.038C75.1176 434.829 74.3649 437.568 73.3877 440.307C71.5815 439.47 69.9541 438.142 68.99 436.372C67.4568 433.558 67.9498 430.745 68.7033 427.803Z"/><path fill="#789242" d="M204.225 351.056C205.066 351.222 205.927 351.389 206.738 351.671C211.285 353.249 212.992 357.943 214.758 361.959C213.085 361.662 211.546 361.238 210.099 360.31C206.93 358.279 204.93 354.692 204.225 351.056Z"/><path fill="#789242" d="M313.934 444.098C315.877 444.406 317.57 445.062 319 446.464C321.354 448.773 321.763 451.825 321.775 454.964C320.515 454.432 319.236 453.835 318.158 452.981C315.139 450.591 314.35 447.78 313.934 444.098Z"/><path fill="#789242" d="M72.5991 164.771C73.5542 165.446 74.5037 166.251 74.8224 167.432C75.674 170.587 73.4715 174.42 72.0861 177.167C71.3488 176.608 70.7857 176.071 70.4039 175.204C69.0745 172.185 71.5004 167.576 72.5991 164.771Z"/><path fill="#92C6BC" d="M864.374 947C869.458 940.791 877.857 934.429 884 928.959L884 947L864.374 947Z"/></svg>