<?xml version="1.0" encoding="utf-8" ?><svg xmlns="http://www.w3.org/2000/svg" xmlns:xlink="http://www.w3.org/1999/xlink" width="539" height="357" viewBox="0 0 539 357"><path fill="#ACB652" d="M92.2 43.119C97.8243 41.1418 103.801 39.0648 109.752 38.446C113.965 38.0079 118.416 38.2217 122.653 38.2491C126.01 38.2708 129.575 38.1303 132.909 38.5009C133.935 38.6149 134.81 39.2422 135.817 39.3741C138.605 39.7392 141.192 38.8473 143.885 40.1289L144.2 40.2808C147.494 41.8514 153.776 40.2494 158.898 42.6567C158.952 42.682 159.005 42.7089 159.059 42.7351C161.851 42.3056 162.885 42.9729 165.473 43.3557C168.03 43.7339 170.584 43.846 173.124 44.3937C176.304 45.0796 179.424 46.1864 182.528 47.1501C190.588 49.652 198.383 52.4754 206.248 55.5561C208.136 56.2955 209.949 57.3175 211.834 58.0065C212.789 58.3557 213.82 58.4753 214.772 58.8445C216.168 59.3864 217.493 60.1678 218.864 60.7795C224.117 63.1246 229.717 65.3571 235.456 65.9529C239.791 66.403 246.237 66.9829 250.398 65.912C253.242 65.18 256.686 62.4159 259.466 61.0094C270.342 55.5063 280.27 51.8154 292.469 50.4896C304.836 49.1453 324.134 51.4344 336.241 53.9581C342.155 55.1909 347.647 57.1078 353.731 57.7333C357.814 55.1632 366.712 53.9391 371.605 53.4425C375.806 53.0161 409.243 52.8564 412.232 53.6108C413.194 53.8535 414.021 54.5928 415.029 54.6608C416.101 54.7332 417.168 54.1507 418.235 54.315C419.51 54.5114 420.674 55.2991 421.957 55.5025C427.251 56.3415 432.465 56.9171 437.73 58.0455C441.716 58.8999 445.355 60.3128 449.248 61.4261C458.004 63.9303 466.828 66.3145 475.097 70.2322C478.456 71.8237 481.604 73.7588 484.818 75.6147C485.824 76.1958 487.038 76.2256 487.986 76.8762C489.803 78.1239 491.451 79.8406 493.109 81.3021C500.972 88.2342 508.768 95.9908 513.818 105.306C515.409 108.239 516.645 111.355 517.956 114.419C518.42 115.503 518.856 116.998 519.497 117.968C519.757 118.362 520.344 118.549 520.768 118.72C521.681 119.953 522.055 122.154 522.445 123.638C523.251 126.71 523.996 129.814 524.38 132.97C524.982 137.903 524.838 142.908 524.84 147.868C524.843 156.749 524.855 164.48 523.538 173.318C522.621 179.384 521.521 185.42 520.24 191.419C520.045 190.116 520.049 188.801 519.865 187.506C518.978 190.53 518.233 193.582 518.005 196.735C517.916 197.966 518.025 199.197 517.905 200.426C515.321 209.664 512.401 218.817 509.675 228.015C508.549 231.815 507.067 238.289 505.688 241.607C505.519 242.011 505.233 242.282 504.938 242.594C503.196 244.436 504.379 247.669 503.52 250.003C502.22 253.54 500.193 256.766 498.756 260.239C497.882 262.351 497.234 264.564 496.408 266.697C494.48 271.676 492.214 276.708 489.522 281.317C485.434 288.315 479.544 293.762 473.953 299.489C471.56 299.65 469.186 302.84 467.679 304.572C466.48 305.95 465.404 307.364 464.461 308.932L464.563 309.527C460.85 313.313 457.167 317.307 453.132 320.751C449.568 323.794 445.532 326.323 441.65 328.935C429.337 337.22 418.882 343.186 404.54 347.381C398.883 349.035 393.035 349.949 387.285 351.215C378.276 353.199 369.121 355.557 359.849 355.663C351.775 355.756 343.606 355.881 335.538 355.551C315.263 354.722 294.456 352.053 274.709 347.326C272.535 346.806 270.702 345.275 268.519 344.729C265.583 343.994 262.653 343.753 259.709 343.15C257.493 342.695 255.284 341.928 253.12 341.267C252.785 340.934 252.4 340.414 252.036 340.137C250.692 339.113 243.558 338.202 241.402 337.407C235.909 335.381 230.66 332.773 225.202 330.671C215.821 327.059 205.838 324.394 196.056 322.092C192.573 321.273 189.049 320.304 185.492 319.886C181.634 319.434 177.575 319.639 173.689 319.649C169.681 319.66 165.663 319.673 161.671 320.078C154.754 320.78 147.888 322.07 140.951 322.581C137.196 322.857 133.372 322.715 129.608 322.708L111.972 322.719C111.12 322.119 110.539 321.919 109.505 321.814L109.198 321.785L111.92 321.227C110.164 321.074 108.353 320.996 106.615 320.718C103.222 320.176 100.11 319.393 96.6454 319.513C96.0122 318.292 88.3451 317.052 86.6731 316.22C82.6104 314.93 78.6371 313.02 74.7346 311.304C73.6612 309.935 64.9853 306.3 63.0604 305.271C60.8798 304.106 58.8541 301.898 56.8887 300.363C54.0964 298.182 44.3278 292.026 43.4071 288.913C42.9157 287.252 42.1741 287.091 40.8446 286.138C39.4955 285.17 39.1644 283.014 38.3231 281.615C35.3049 276.597 32.5317 271.66 29.9156 266.414C29.038 264.654 27.959 262.869 27.2983 261.018C25.925 257.169 25.2801 253.048 24.2573 249.098C23.5917 246.528 22.4764 244.166 22.0347 241.523C21.0579 235.68 21.2821 229.719 21.2779 223.817L21.2787 202.236C21.2819 194.196 21.0466 186.091 21.3434 178.06C21.487 174.176 22.1102 170.318 22.2427 166.43C22.4135 161.42 21.8969 156.229 22.402 151.251C22.5104 150.183 23.2741 149.42 23.4031 148.411C23.5933 146.924 23.1221 145.403 23.3325 143.89C24.1691 137.874 25.8399 131.974 27.1809 126.055C27.8245 123.214 28.0422 120.02 28.8877 117.275C29.487 115.33 30.9255 113.67 31.5879 111.75C32.0874 110.302 31.9613 108.672 32.4566 107.191C34.5544 100.921 37.7353 94.63 41.0291 88.9139C43.4647 84.6872 46.668 80.8758 49.4943 76.9013C52.9881 76.5679 54.1564 73.2911 56.4022 70.9956C59.0005 67.1694 67.8923 59.5625 71.7181 56.066C72.9649 54.9265 74.1051 53.6327 75.3881 52.5403C76.3532 51.7186 77.7632 51.1018 78.8848 50.4871L78.8138 50.5495C81.8766 49.2255 84.6543 47.2671 87.6039 45.7059C88.8478 45.0476 90.544 44.5684 91.6634 43.7945C91.9357 43.6063 92.0383 43.398 92.2 43.119Z"/><path fill="#ADB74F" fill-opacity="0.92941177" d="M53.7747 71.599C56.0558 68.7301 58.7633 66.1462 61.3507 63.5543C70.3421 54.5471 79.874 46.9514 92.2 43.119C92.0383 43.398 91.9357 43.6063 91.6634 43.7945C90.544 44.5684 88.8478 45.0476 87.6039 45.7059C84.6543 47.2671 81.8766 49.2255 78.8138 50.5495L78.8848 50.4871C77.7632 51.1018 76.3532 51.7186 75.3881 52.5403C74.1051 53.6327 72.9649 54.9265 71.7181 56.066C67.8923 59.5625 59.0005 67.1694 56.4022 70.9956C55.5166 71.4549 54.7455 71.5219 53.7747 71.599Z"/><path fill="#ADB74F" fill-opacity="0.93725491" d="M96.6454 319.513C100.11 319.393 103.222 320.176 106.615 320.718C108.353 320.996 110.164 321.074 111.92 321.227L109.198 321.785L109.505 321.814C110.539 321.919 111.12 322.119 111.972 322.719C111.032 322.702 110.093 322.656 109.156 322.58C106.853 322.378 98.0775 321.208 96.6454 319.513Z"/><path fill="#ADB74F" fill-opacity="0.92156863" d="M464.563 309.527L464.461 308.932C465.404 307.364 466.48 305.95 467.679 304.572C469.186 302.84 471.56 299.65 473.953 299.489C471.546 303.245 467.718 306.394 464.563 309.527Z"/><path fill="#ADB74F" fill-opacity="0.011764706" d="M74.7346 311.304C78.6371 313.02 82.6104 314.93 86.6731 316.22C83.3099 316.551 78.3639 314.924 75.5625 313.023C74.8876 312.565 74.8802 312.037 74.7346 311.304Z"/><path fill="#ADB74F" fill-opacity="0.52941179" d="M519.865 187.506C520.049 188.801 520.045 190.116 520.24 191.419C519.653 194.468 518.874 197.476 517.905 200.426C518.025 199.197 517.916 197.966 518.005 196.735C518.233 193.582 518.978 190.53 519.865 187.506Z"/><path fill="#ADB74F" fill-opacity="0.94509804" d="M53.7747 71.599C54.7455 71.5219 55.5166 71.4549 56.4022 70.9956C54.1564 73.2911 52.9881 76.5679 49.4943 76.9013L53.7747 71.599Z"/></svg>