<?xml version="1.0" encoding="utf-8" ?><svg xmlns="http://www.w3.org/2000/svg" xmlns:xlink="http://www.w3.org/1999/xlink" width="290" height="91" viewBox="0 0 290 91"><path fill="#5C5F06" d="M216.705 14.247C219.149 12.6643 221.446 10.7904 223.847 9.13281C229.575 5.18013 235.963 2.5648 242.906 1.81815C255.354 0.479644 261.176 3.58626 270.686 11.2423C274.339 14.9506 277.263 18.953 280.035 23.355C287.644 34.0459 287.301 37.3535 288.951 49.7739C289.196 51.623 289.217 54.2568 290 55.9113L290 66.6854C288.757 69.0548 288.101 71.3717 287.894 74.0407C286.466 75.9802 284.466 77.9235 282.558 79.3793C280.065 81.2816 277.004 82.6705 274.006 83.5528C271.333 84.3394 268.549 84.6027 265.805 85.0362C257.157 86.4027 248.502 87.2285 239.763 87.8426C232.405 88.3596 224.957 88.1087 217.585 88.1981C213.336 88.2497 209.095 88.5107 204.842 88.4958C199.685 88.4776 194.522 88.1097 189.363 88.0117C170.848 87.5413 152.327 87.38 133.807 87.5279C123.204 87.6724 112.669 88.3649 102.085 88.8978C98.0318 89.1019 93.9696 89.0927 89.9188 89.3046C86.8887 89.4631 83.8732 89.8686 80.8419 89.9889C72.605 90.3158 64.2823 90.1292 56.0373 90.1436C48.2008 90.1572 39.85 90.737 32.0882 89.6863C22.5823 88.3996 13.1978 85.2508 7.15525 77.293C1.6169 69.9992 1.0575 60.8073 2.27087 52.0358C3.27791 44.756 6.09307 36.8054 10.4852 30.8575C11.5944 29.3554 13.1322 28.1875 14.2692 26.6977C15.288 25.3626 16.0413 23.8331 17.0893 22.5158C19.641 19.3082 23.4671 15.9892 26.7393 13.5137C34.7779 7.43234 44.0424 4.23259 54.1906 5.64943C62.7018 6.83772 70.0188 11.2897 75.1878 18.1469C78.6034 14.2883 82.9542 11.0495 87.5188 8.68097C95.853 4.35642 106.87 2.176 115.963 5.07722C121.006 6.68626 125.288 9.92046 127.732 14.6652C129.737 11.6935 132.332 9.16603 135.355 7.2399C141.697 3.18567 150.992 0.439304 158.481 2.09512C164.788 3.4896 169.464 7.88448 172.859 13.2208C180.878 7.13782 189.26 2.58567 199.742 3.79732C209.46 4.9206 211.097 7.18329 216.705 14.247Z"/><path fill="#899520" d="M212.892 27.3089C215.074 23.2885 218.34 19.7374 221.785 16.7557C229.195 10.3427 239.231 6.29664 249.095 7.00781C256.98 7.29342 263.898 11.8815 269.113 17.4934C271.619 20.1842 273.722 23.2232 275.358 26.5161C279.336 34.3644 284.435 51.2847 284.11 59.8817C283.925 64.7451 282.552 69.6013 278.889 72.9832C271.287 80.0024 252.331 81.2182 242.036 82.0396C228.425 83.1256 214.85 82.6608 201.227 82.2329C185.299 81.6135 169.362 81.266 153.422 81.1906C130.376 81.4869 107.333 81.9321 84.2931 82.5263C68.4144 82.9601 53.0678 83.7552 37.1571 83.0869C29.1979 82.7527 19.4966 81.6828 13.7835 75.4484C9.22616 70.4754 7.69128 62.5373 7.996 55.9465C8.30922 49.1718 10.2848 42.091 13.7413 36.2397C14.9441 34.2035 16.4169 32.3487 17.6378 30.3303C20.1599 26.1609 22.261 22.3037 25.9439 18.9482C32.2796 13.1838 40.6322 10.1492 49.1905 10.5026C57.0064 10.8265 64.3779 14.2248 69.7002 19.9577C72.1854 22.6856 72.8597 25.1938 73.3445 28.7647C79.7695 21.8629 84.3442 15.7754 93.3784 12.0496C99.7323 9.42922 108.605 7.79918 115.122 10.5255C122.537 13.628 122.786 21.2287 125.461 27.7392C126.65 27.0325 131.419 18.2069 133.762 15.8622C138.683 10.9355 146.204 8.31592 153.1 8.33429C159.278 8.35076 164.393 10.5799 167.572 16.0217C168.744 18.0275 169.686 20.172 171.344 21.8345C173.458 20.4345 175.334 18.5305 177.292 16.9117C181.731 13.243 187.49 11.0734 193.198 10.5584C198.21 10.1061 202.828 10.8365 206.775 14.1442C210.863 17.5703 212.444 22.144 212.892 27.3089Z"/><path fill="#758412" d="M125.461 27.7392C126.65 27.0325 131.419 18.2069 133.762 15.8622C138.683 10.9355 146.204 8.31592 153.1 8.33429C159.278 8.35076 164.393 10.5799 167.572 16.0217C168.744 18.0275 169.686 20.172 171.344 21.8345C173.458 20.4345 175.334 18.5305 177.292 16.9117C181.731 13.243 187.49 11.0734 193.198 10.5584C198.21 10.1061 202.828 10.8365 206.775 14.1442C210.863 17.5703 212.444 22.144 212.892 27.3089C212.723 28.2753 212.008 29.1918 211.474 29.9988C209.838 29.9677 208.295 29.9916 206.67 30.233C202.302 25.1609 200.886 18.2502 193.092 17.6599C187.163 17.2109 180.934 20.3198 175.746 22.8335C173.698 23.8257 171.558 24.7066 169.824 26.2033C167.806 27.9451 165.422 30.7081 162.552 30.7477C159.72 29.911 158.159 25.0684 156.45 22.8578C152.251 17.4262 146.059 15.4579 139.883 18.8146C136.322 20.7502 129.256 28.7864 125.572 27.782C125.531 27.7708 125.501 27.7563 125.461 27.7392Z"/><path fill="#758412" d="M249.095 7.00781C256.98 7.29342 263.898 11.8815 269.113 17.4934C271.619 20.1842 273.722 23.2232 275.358 26.5161C279.336 34.3644 284.435 51.2847 284.11 59.8817C283.925 64.7451 282.552 69.6013 278.889 72.9832C271.287 80.0024 252.331 81.2182 242.036 82.0396C228.425 83.1256 214.85 82.6608 201.227 82.2329C185.299 81.6135 169.362 81.266 153.422 81.1906C130.376 81.4869 107.333 81.9321 84.2931 82.5263C68.4144 82.9601 53.0678 83.7552 37.1571 83.0869C29.1979 82.7527 19.4966 81.6828 13.7835 75.4484C9.22616 70.4754 7.69128 62.5373 7.996 55.9465C8.30922 49.1718 10.2848 42.091 13.7413 36.2397C14.9441 34.2035 16.4169 32.3487 17.6378 30.3303C20.1599 26.1609 22.261 22.3037 25.9439 18.9482C32.2796 13.1838 40.6322 10.1492 49.1905 10.5026C57.0064 10.8265 64.3779 14.2248 69.7002 19.9577C72.1854 22.6856 72.8597 25.1938 73.3445 28.7647C72.274 28.8743 71.0801 28.5914 70.0473 28.3429C64.0507 26.9001 61.5899 21.9246 56.8793 18.5734C52.8357 15.6967 47.6277 14.9472 42.7925 15.7773C35.2091 17.0792 28.5077 20.7717 23.6899 26.8489C22.6382 28.1755 21.8611 29.7295 20.885 31.1158L17.7311 31.1241C15.2442 34.307 13.2241 37.6811 11.696 41.4229C8.12292 50.1719 6.87581 60.6044 10.6285 69.5087C12.9062 74.9132 16.2207 77.7918 21.5808 79.9633C25.9333 81.7265 31.0363 82.5226 35.7329 82.7164C36.9654 82.7672 38.1955 82.6055 39.425 82.6709C55.7546 83.5403 71.9221 82.3351 88.2418 81.9131L105.032 81.6443C107.153 81.5953 109.261 81.3674 111.386 81.3439C115.198 81.3016 119.016 81.497 122.828 81.4089L144.976 80.9018C148.393 80.8164 151.758 80.5743 155.188 80.5882C159.057 80.6039 162.889 80.8794 166.749 80.9568L209.219 81.9842C217.43 82.1668 225.425 82.4954 233.645 82.1133C244.623 81.6028 263.2 80.3975 273.116 76.181C277.081 74.4947 280.567 71.5419 282.2 67.4826C285.379 59.58 282.528 47.6221 279.965 39.645C279.694 38.7995 279.16 38.074 278.893 37.2567C278.055 34.695 277.459 32.1352 276.399 29.6442C272.578 20.6645 265.54 12.631 256.357 8.92691C254.012 7.98094 251.426 7.9474 249.095 7.00781Z"/><path fill="#758412" d="M112.304 55.0694C113.043 55.3613 114.663 56.11 115.129 56.72C115.346 57.3425 115.378 57.8571 115.24 58.5046C114.744 60.84 113.408 63.0478 111.407 64.3416C109.899 64.365 108.433 64.2967 106.931 64.1593C105.962 63.4293 105.178 62.7157 104.421 61.7665C104.113 61.2906 103.801 60.8034 103.55 60.2949C103.016 59.2117 102.566 57.9011 102.972 56.7106C104.964 55.2016 107.76 60.0669 109.718 59.9753C111.131 59.2128 111.706 56.5048 112.304 55.0694Z"/><path fill="#758412" d="M263.238 47.1331C263.699 47.2047 263.939 47.458 264.263 47.7648C264.544 48.3801 264.639 48.944 264.599 49.621C264.476 51.7089 263.116 54.0017 261.583 55.3753C260.538 56.311 259.085 57.1122 257.646 57.0139C256.023 56.903 255.067 56.2555 254.034 55.0771C253.316 54.2426 252.16 52.8773 252.009 51.771C251.923 51.1485 251.921 50.9085 252.297 50.4092C253.7 49.9 256.295 51.7475 257.614 52.3439C259.899 51.5497 261.605 48.8403 263.238 47.1331Z"/><path fill="#758412" d="M191.213 55.6977C191.72 55.7039 192.238 55.7775 192.736 55.8712C193.565 56.027 193.92 56.295 194.372 56.9588C194.41 57.4403 194.363 57.8338 194.147 58.2717C193.196 60.2001 190.488 61.8161 188.519 62.4924C186.897 63.0494 185.65 62.9599 184.106 62.2043C183.69 61.8708 183.259 61.5262 182.895 61.1358C182.256 60.4503 181.742 59.7379 181.784 58.7651C181.839 57.5149 182.738 56.8323 183.584 56.0381L187.067 58.8137C188.652 58.0583 189.938 56.88 191.213 55.6977Z"/><path fill="#758412" d="M232.416 64.9089C234.077 65.4243 235.881 66.9413 237.334 67.9086C239.756 67.6842 241.614 66.7802 243.901 66.0835C244.509 65.8981 244.991 65.7517 245.562 66.0547C245.567 66.1074 245.569 66.1588 245.568 66.2118C245.545 67.1357 244.471 68.1824 243.836 68.8056C241.827 70.2089 238.334 71.4604 235.858 71.1343C233.239 70.7893 231.847 69.0846 230.324 67.1032L232.416 64.9089Z"/><path fill="#758412" d="M44.541 37.3146C46.2365 37.2092 49.3086 36.9887 50.6535 38.1901C51.1272 38.6132 51.111 38.9146 51.1428 39.5022C50.5655 40.87 49.0967 41.6146 47.8884 42.361C47.5567 42.4258 47.2242 42.4865 46.891 42.5429C45.2624 42.8175 43.7768 42.7429 42.3846 41.736C41.6402 41.1976 41.3448 40.6446 41.1983 39.7513C41.2496 39.3664 41.3256 38.9967 41.5632 38.6799C42.3164 37.6755 43.3822 37.4844 44.541 37.3146Z"/><path fill="#758412" d="M215.617 41.3222C216.543 41.6191 218.183 44.353 218.939 45.223C220.166 44.422 221.272 43.3635 222.563 42.6758C223.223 42.3244 223.65 42.1754 224.364 42.3875C224.422 42.4808 224.472 42.5773 224.508 42.6814C224.813 43.559 224.136 44.7741 223.753 45.5549C222.859 46.7076 221.929 47.4845 220.667 48.2025C219.238 48.3488 217.841 48.2878 216.409 48.2189C215.692 47.501 214.913 46.6082 214.628 45.6214C214.158 43.995 214.861 42.7031 215.617 41.3222Z"/><path fill="#758412" d="M51.7263 58.3295C52.4125 58.3098 53.3105 58.4124 53.8977 58.7799C54.6414 59.2453 55.4769 60.0473 55.6632 60.9352C55.7802 61.4924 55.6239 62.0711 55.3055 62.535C54.2674 64.0476 52.211 64.1619 50.5562 64.4499C49.6218 64.3814 48.3918 64.196 47.6394 63.6127C47.2312 63.2963 46.925 62.8396 46.8667 62.3195C46.7771 61.5192 47.1735 60.8024 47.6681 60.2037C48.7837 58.853 50.0772 58.4977 51.7263 58.3295Z"/><path fill="#758412" d="M142.779 34.8578C142.803 34.8632 142.827 34.868 142.851 34.8738C143.531 35.0389 144.162 35.7099 144.509 36.2862C145.489 37.9156 145.559 40.1208 145.1 41.9256C144.773 43.2145 144.158 43.6807 143.078 44.331C142.608 44.082 142.081 43.8149 141.681 43.4609C140.835 42.7133 140.447 41.582 140.392 40.4786C140.288 38.3639 141.402 36.3729 142.779 34.8578Z"/><path fill="#758412" d="M192.877 28.6646C192.944 28.6928 193.01 28.7217 193.077 28.7513C195.136 29.6712 196.119 31.1554 196.903 33.1959C196.587 34.5457 196.253 35.734 195.446 36.8782C194.728 37.0869 193.767 37.4092 193.035 37.1431C192.466 36.9366 192.112 36.5688 191.875 36.0138C191.106 34.2061 192.194 30.4623 192.877 28.6646Z"/><path fill="#758412" d="M155.575 58.9526C156.218 59.0983 157.007 59.4373 157.551 59.8222C158.417 60.4351 159.043 61.7497 159.219 62.775C159.353 63.5575 159.225 64.5013 158.742 65.1522C158.357 65.672 157.696 65.745 157.099 65.8367C155.788 65.4837 154.641 65.226 153.844 64.0123C153.382 63.3089 153.161 62.5693 153.342 61.7353C153.652 60.3103 154.426 59.7026 155.575 58.9526Z"/><path fill="#758412" d="M175.6 36.2201C175.85 36.2192 176.1 36.2435 176.345 36.2925C177.255 36.4748 178.072 37.209 178.562 37.9718C179.206 38.9743 179.377 40.2394 179.112 41.3935C178.833 42.6015 178.249 43.1199 177.248 43.7411L176.429 43.6063C175.872 43.2176 175.49 42.7985 175.131 42.2198C174.354 40.9648 173.591 38.9694 174.003 37.478C174.19 36.799 175.028 36.5281 175.6 36.2201Z"/><path fill="#758412" d="M96.5886 33.6997C97.2452 33.7503 98.0885 34.0142 98.5637 34.4863C98.9359 34.8561 99.1073 35.3378 99.1062 35.8581C99.1022 37.9045 96.84 40.0286 95.5259 41.3396C95.3701 41.4202 95.082 41.4257 94.9033 41.4536C94.6415 41.2552 94.4387 41.0265 94.2876 40.7335C93.5713 39.3447 93.5271 37.703 94.0041 36.226C94.4508 34.8428 95.3842 34.3286 96.5886 33.6997Z"/><path fill="#758412" d="M240.126 31.6098C240.743 31.7936 241.39 32.1984 241.897 32.5956C242.629 33.1691 243.135 33.7211 243.238 34.6804C243.415 36.3234 242.293 37.6999 241.338 38.9097C241.072 39.1301 240.748 39.435 240.427 39.5623C239.913 39.7663 239.655 39.6595 239.173 39.4442C238.641 38.7613 238.47 38.0543 238.43 37.1983C238.329 35.0427 238.65 33.2377 240.126 31.6098Z"/><path fill="#758412" d="M73.258 44.5901C73.9233 44.877 74.608 45.2981 75.1934 45.725C76.2485 46.4944 77.4056 47.3957 77.6217 48.7586C77.4017 49.4134 77.2429 49.5252 76.6964 49.9442C76.252 49.9851 75.8023 50.0225 75.3558 50.0178C74.3759 50.0073 73.4328 49.4686 72.762 48.7769C72.2403 48.2389 71.991 47.5836 72.0062 46.835C72.0274 45.7896 72.5513 45.2722 73.258 44.5901Z"/><path fill="#758412" d="M109.006 31.429C109.127 31.4287 109.249 31.4311 109.37 31.4362C110.756 31.4986 112.344 32.2572 113.276 33.2926C113.928 34.016 113.966 34.4213 113.917 35.3424C113.59 35.4994 113.222 35.6257 112.871 35.7139C112.302 35.8567 111.765 35.6944 111.273 35.396C109.95 34.5941 109.362 32.854 109.006 31.429Z"/></svg>