<?xml version="1.0" encoding="utf-8" ?><svg xmlns="http://www.w3.org/2000/svg" xmlns:xlink="http://www.w3.org/1999/xlink" width="266" height="380" viewBox="0 0 266 380"><path fill="#5B4008" d="M82.3533 44.6123C83.4949 39.9356 85.4472 30.5663 88.0547 26.8312C89.1588 25.2497 90.9481 24.3109 92.1005 22.6667C94.7643 18.8661 97.5221 15.009 101.043 11.9391C108.364 5.5566 117.822 0.650369 127.747 1.34741C134.759 1.83988 143.586 4.08363 148.355 9.57864C153.425 7.09168 155.87 4.73992 161.67 3.50544C171.998 1.30701 182.662 4.77958 191.316 10.4405C196.187 13.6263 200.676 18.2716 204.624 22.5298C219.973 39.0856 228.624 55.8856 232.579 78.2291C232.983 80.5073 233.38 83.0851 233.18 85.4025C232.989 87.6166 231.665 90.5379 232.18 92.6995C232.193 92.7552 232.211 92.8097 232.226 92.8648C232.262 92.8269 232.299 92.7895 232.335 92.7512C232.833 92.2183 232.993 91.5119 233.597 91.1236C233.564 91.3799 233.599 91.2694 233.513 91.4609C234.288 95.1079 237.434 96.8874 239.277 99.9321C240.126 101.335 240.673 102.915 241.441 104.366C242.767 106.87 244.291 109.135 245.348 111.787C247.404 116.944 247.659 121.995 248.494 127.415C249.062 131.1 250.987 138.401 252.509 141.786C254.322 142.834 258.86 146.078 259.43 148.091C260.199 150.815 259.775 163.387 259.781 166.864C259.782 168.019 260.026 169.142 260.033 170.294C260.624 171.102 261.201 171.926 261.814 172.716C261.286 173.903 260.652 175.154 260.321 176.41C259.508 179.497 259.612 183.202 259.638 186.375C259.7 193.89 260.552 201.936 259.273 209.353C265.354 219.987 266.543 233.801 263.339 245.478C261.775 251.18 256.852 261.863 252.667 266.033C250.435 268.256 247.531 269.767 245.694 272.373C246.605 273.944 247.702 275.601 248.329 277.304C249.975 281.778 249.397 287.883 248.609 292.491C248.428 293.547 248.645 294.592 248.369 295.624C245.782 305.295 240.284 314.983 231.359 320.041C229.298 321.209 227.121 322.506 224.922 323.381C222.11 324.5 218.967 325.206 216.057 326.092C212.431 336.571 210.011 342.16 200.883 348.939C198.37 350.806 195.761 352.678 192.939 354.048C184.948 357.928 174.485 359.531 165.94 356.535C162.6 355.364 158.824 353.579 155.957 351.489C155.939 354.143 155.783 356.792 155.78 359.445C155.774 364.381 156.695 371.743 152.829 375.626C149.775 378.693 144.272 378.068 141.421 380L125.042 380C122.74 378.477 118.424 379.689 116.288 377.524C114.585 375.798 114.875 357.039 114.676 353.427C114.643 353.438 114.61 353.449 114.576 353.461C111.889 354.397 109.585 355.789 107.06 357.055C104.497 358.34 101.609 359.542 98.8778 360.417C94.6181 361.781 85.8802 361.835 81.5501 360.826C78.4152 360.095 74.7404 358.461 71.8861 356.962C65.7093 353.719 61.6729 350.266 57.7587 344.509C56.3225 342.396 54.9067 340.084 54.3077 337.575C53.5502 334.403 53.663 330.743 52.6688 327.71C51.5965 324.439 45.8654 324.958 42.7308 323.322C40.9888 322.413 39.3054 321.112 37.7134 319.95C30.4654 314.657 25.2243 308.247 22.4805 299.592C21.4967 296.488 21.0528 293.31 20.7187 290.08C19.7399 280.618 20.9617 273.903 25.2851 265.528C23.2948 264.839 21.3283 264.048 19.3557 263.307C16.8931 263.76 15.3051 263.631 13.0182 262.66L12.9058 259.426C6.50936 255.289 2.36991 246.878 0.859337 239.567C0.501078 237.833 0.827955 235.619 0.0808456 234.041C0.0549585 233.987 0.0269485 233.933 0 233.879L0 231.397C0.0426469 231.251 0.0793535 231.105 0.120297 230.959C0.542414 229.453 0.483884 227.963 0.579645 226.417C1.03311 219.094 6.16772 210.497 11.459 205.615C13.8808 203.38 16.6838 201.572 19.1525 199.373C16.1137 194.263 13.2146 188.684 12.0291 182.805C10.1782 173.627 9.41215 161.923 14.845 153.784C18.1985 148.76 23.0594 145.949 28.9175 144.802L28.8287 144.442C27.4809 138.972 25.7571 132.465 26.0212 126.8C26.1368 124.32 26.6639 121.837 27.1122 119.399C27.8396 115.444 29.1227 111.327 31.2328 107.869C34.3209 102.809 41.2304 96.2019 46.548 93.5352C48.6974 92.4573 50.9526 91.8672 53.2801 91.3085C53.3145 87.489 53.5415 83.2101 54.514 79.5155C57.4828 68.2368 63.4117 57.6793 72.8609 50.5416C75.8243 48.3032 79.1518 46.4854 82.3533 44.6123Z"/><path fill="#F1D8AD" d="M232.024 96.3047C231.53 95.7009 231.286 95.1869 231.361 94.3992C231.425 93.7313 231.735 93.2792 232.226 92.8648C232.296 92.933 232.367 92.9951 232.425 93.074C232.829 93.6233 233.147 94.7146 232.985 95.3679C232.834 95.979 232.547 96.0089 232.024 96.3047Z"/><path fill="#9CA52E" d="M70.9948 103.429C69.2288 101.44 67.027 99.7718 65.1938 97.8015C61.0966 93.3979 61.0909 91.1667 61.3065 85.3847C61.7301 74.0223 69.8341 61.95 78.8211 55.4445C81.0396 53.8386 85.8914 51.4507 87.3091 49.3905C89.0834 46.812 89.5932 43.0522 90.6125 40.1079C92.976 33.2806 98.4645 24.3502 103.754 19.4582C109.684 13.9741 118.513 8.55338 126.898 8.91063C135.948 9.29622 143.305 14.1469 149.199 20.6567C151.722 18.7776 153.829 16.3792 156.392 14.5262C156.224 14.309 156.03 14.075 155.912 13.8269C155.632 13.2393 155.714 13.0219 155.941 12.4659L156.427 12.3958C157.13 12.8781 157.175 13.1701 157.471 13.9409C165.028 10.7474 171.337 9.74396 179.123 12.8851C195.653 19.5545 210.986 40.2126 217.772 56.3124C222.119 66.6241 225.968 78.3702 225.996 89.6083C221.95 86.167 210.678 80.3645 205.515 78.7544C204.832 79.2032 203.826 79.6945 203.648 80.5521C203.415 81.674 203.707 82.6093 204.351 83.539C206.426 86.5381 209.688 87.5463 212.522 89.5334C217.318 92.8946 222.747 96.4342 226.868 100.56C230.5 104.197 233.847 107.87 236.282 112.42C239.801 118.995 241.133 126.347 243.147 133.455C244.22 137.238 246.029 140.806 247.141 144.596C249.923 154.088 251.011 162.821 251.54 172.654C251.821 177.869 252.049 182.721 251.189 187.91C250.409 192.615 249.58 197.541 248.188 202.098C244.746 213.539 237.634 223.529 227.948 230.523C226.349 231.666 219.63 234.537 219.067 235.838C219.201 237.357 219.657 238.762 220.852 239.784C221.771 240.57 222.979 240.888 224.17 240.759C227.77 240.369 234.322 235.416 236.871 232.857C243.395 226.533 248.702 220.219 252.394 211.856C253.467 215.008 255.234 217.847 256.339 220.973C259.822 230.822 258.226 241.302 253.706 250.53C250.39 257.3 245.021 263.697 237.779 266.324C235.834 265.653 232.875 264.604 230.916 265.659C230.32 265.98 229.906 266.414 229.758 267.09C229.528 268.139 230.044 269.314 230.639 270.154C232.158 272.293 235.803 274.581 238.42 275.003C238.949 275.088 239.485 275.14 240.02 275.185C240.657 277.688 241.74 280.25 242.215 282.754C243.625 290.189 240.761 298.071 237.023 304.368C234.005 309.45 225.719 315.57 220.343 317.934L219.854 317.869L219.473 316.79L218.936 316.751C218.882 316.8 218.829 316.851 218.773 316.899C216.617 318.754 212.106 316.974 209.128 320.722C210.182 324.945 210.216 326.727 207.927 330.514C204.264 336.573 197.917 343.375 191.511 346.429C188.526 347.851 185.208 348.639 182.433 350.466C180.465 350.01 178.292 350.525 176.29 350.637C173.5 350.793 170.307 350.273 167.647 349.439C164.651 348.499 154.722 342.354 153.268 342.292C153.103 342.285 152.796 342.408 152.624 342.45C151.845 343.039 151.425 343.971 150.962 344.81C149.09 345.647 148.083 347.037 146.448 348.146C140.925 351.896 134.408 352.984 128.115 350.578C126.506 349.963 122.931 348.499 122.254 346.854C122.154 346.61 122.287 346.18 122.397 345.947C123.453 343.704 126.104 341.799 125.372 339.005C125.177 338.437 124.907 337.898 124.567 337.403C124.079 336.684 123.311 335.896 122.411 335.783C120.087 335.49 113.697 344.209 111.504 345.896C104.928 350.953 94.6239 353.112 86.4726 352.437C85.0788 352.321 83.8027 351.493 82.415 351.319C81.1667 351.162 79.8353 351.51 78.6082 351.293C77.3726 351.075 76.8764 350.081 76.2569 349.11C75.5601 349.027 74.8205 348.957 74.147 348.757C72.6371 348.307 71.0791 347.095 69.8404 346.144C64.4926 342.041 63.4457 339.954 60.3905 334.188C60.1215 334.098 59.7998 334.016 59.5751 333.839C59.535 333.807 59.3634 333.644 59.3547 333.618C59.3179 333.51 59.8687 332.126 59.9294 331.903C60.2024 330.902 60.2426 330.02 60.1546 328.992C60.0484 327.751 59.6671 326.967 59.0249 325.904C61.3518 325.748 63.5116 325.313 65.7383 324.619C69.5093 323.443 75.2749 321.434 77.1776 317.677C77.628 316.787 77.9634 315.619 77.5905 314.647C77.0986 313.363 75.8367 312.772 74.6562 312.269C72.907 312.941 71.3199 314.131 69.7021 315.064C67.4374 316.37 62.4478 318.879 59.9394 319.274C58.5058 319.5 55.7823 318.971 53.728 319.177C52.3986 318.308 50.9953 318.318 49.5403 317.855C46.2957 316.822 41.9829 314.522 39.4744 312.231C33.0049 306.325 29.2378 298.157 28.0552 289.568C27.815 287.823 27.8917 286.108 27.7151 284.377C27.6121 283.368 26.4702 282.918 26.4214 281.843C26.753 281.671 27.5167 281.327 27.72 281.027C28.4733 279.916 28.6124 277.255 29.0322 275.869C29.9479 272.845 31.3852 270.102 32.8115 267.298C34.6136 266.547 36.2504 266.114 38.2209 266.356C41.7404 265.566 44.7927 264.187 47.9912 262.566C51.3158 260.018 54.6998 257.42 56.9519 253.824C57.025 253.061 57.0367 252.638 56.6287 251.945C55.9162 251.233 54.8335 251.097 53.8852 250.877C51.9248 251.411 50.2462 252.723 48.5255 253.773C44.1949 256.416 39.9036 258.433 34.8317 259.103C33.2826 258.237 30.9091 258.81 29.1257 258.518C27.3063 258.219 25.4917 257.595 23.7875 256.905C15.5454 253.565 11.1672 247.103 7.9018 239.191C6.38118 235.507 7.23653 225.123 8.8052 221.278C9.30335 219.928 10.1351 218.743 11.1045 217.693C11.9892 216.671 12.6754 215.407 13.4849 214.314C16.0953 210.789 19.4647 207.76 23.4247 205.812C24.8923 207.429 26.3303 208.908 28.1488 210.14C29.4573 211.026 32.3019 212.899 33.8852 212.504C34.3689 212.383 34.6767 212.149 34.9204 211.706C35.5189 210.618 35.0081 208.941 34.3882 207.969C33.1988 206.104 30.9033 204.673 29.4553 202.912C24.3935 196.757 19.9984 188.582 18.0377 180.869C16.2758 173.939 16.3744 164.316 20.1819 158.036C21.7441 155.459 23.9983 153.678 26.9483 152.976C31.5634 151.878 36.2857 152.846 39.431 156.558C40.496 157.815 41.6351 159.552 43.0598 160.399C43.6385 160.742 44.3133 160.914 44.973 160.704C45.7971 160.442 46.6872 159.692 47.0697 158.914C49.2176 154.541 39.3588 147.309 37.1615 144.066C35.6756 141.872 34.764 138.729 34.046 136.185C33.4581 134.102 33.3868 131.934 33.3316 129.783C33.1607 123.122 34.3393 118.231 37.6149 112.383C40.5323 107.174 45.5198 102.39 51.4034 100.795C60.6246 98.295 61.7126 105.521 67.1949 108.593C67.8888 108.982 68.7469 109.242 69.53 108.975C70.6176 108.603 71.0939 107.534 71.6139 106.6L70.9948 103.429Z"/><path fill="#7C8A11" d="M236.871 232.857C243.395 226.533 248.702 220.219 252.394 211.856C253.467 215.008 255.234 217.847 256.339 220.973C259.822 230.822 258.226 241.302 253.706 250.53C250.39 257.3 245.021 263.697 237.779 266.324C235.834 265.653 232.875 264.604 230.916 265.659C230.32 265.98 229.906 266.414 229.758 267.09C229.528 268.139 230.044 269.314 230.639 270.154C232.158 272.293 235.803 274.581 238.42 275.003C238.949 275.088 239.485 275.14 240.02 275.185C240.657 277.688 241.74 280.25 242.215 282.754C243.625 290.189 240.761 298.071 237.023 304.368C234.005 309.45 225.719 315.57 220.343 317.934L219.854 317.869L219.473 316.79L218.936 316.751C218.882 316.8 218.829 316.851 218.773 316.899C216.617 318.754 212.106 316.974 209.128 320.722C210.182 324.945 210.216 326.727 207.927 330.514C204.264 336.573 197.917 343.375 191.511 346.429C188.526 347.851 185.208 348.639 182.433 350.466C180.465 350.01 178.292 350.525 176.29 350.637C173.5 350.793 170.307 350.273 167.647 349.439C164.651 348.499 154.722 342.354 153.268 342.292C153.103 342.285 152.796 342.408 152.624 342.45C151.845 343.039 151.425 343.971 150.962 344.81C149.09 345.647 148.083 347.037 146.448 348.146C140.925 351.896 134.408 352.984 128.115 350.578C126.506 349.963 122.931 348.499 122.254 346.854C122.154 346.61 122.287 346.18 122.397 345.947C123.453 343.704 126.104 341.799 125.372 339.005L126.11 337.566C127.677 336.42 130.355 337.825 132.208 337.657C137.334 337.193 142.614 335.52 147.523 334.042C148.901 333.626 150.926 333.046 152.362 333.258C155.293 333.691 163.516 338.375 166.495 339.969C167.268 340.125 167.98 339.589 168.63 339.226C169.349 339.349 169.476 339.59 169.962 340.101C171.568 340.704 173.964 339.772 175.616 339.48L176.332 340.064C179.126 339.767 182.12 338.698 184.638 337.474C192.877 333.467 199.905 324.423 202.658 315.769C203.471 313.214 203.481 310.478 204.366 307.932C211.566 302.938 218.21 296.174 221.317 287.834C223.053 283.174 224.525 277.298 223.3 272.335C222.935 270.857 222.179 269.419 221.545 268.04C223.232 265.216 226.181 263.205 228.544 260.96C232.047 257.633 238.632 249.793 239.985 245.093C240.293 244.022 239.407 242.331 239.505 242.036C239.681 241.501 240.774 240.744 241.126 240.205C241.503 239.627 241.717 238.786 241.922 238.131C241.637 236.998 241.409 235.228 240.764 234.27C239.798 232.835 238.333 233.171 236.871 232.857Z"/><path fill="#7C8A11" d="M32.8115 267.298C34.6136 266.547 36.2504 266.114 38.2209 266.356L36.9644 266.668L38.1673 266.905C38.2308 267.489 37.9076 267.825 37.5554 268.278C36.7819 269.275 35.7064 270.015 34.9162 270.99C33.0935 273.241 32.6844 277.579 32.9925 280.365C33.9492 289.015 37.8383 297.437 44.7054 302.896C51.5677 308.352 60.9364 310.177 69.5046 309.173C71.088 308.988 72.6388 308.737 74.2381 308.885C74.3507 309.301 74.0989 309.354 74.055 309.721C73.9681 310.448 74.4373 311.582 74.6562 312.269C72.907 312.941 71.3199 314.131 69.7021 315.064C67.4374 316.37 62.4478 318.879 59.9394 319.274C58.5058 319.5 55.7823 318.971 53.728 319.177C52.3986 318.308 50.9953 318.318 49.5403 317.855C46.2957 316.822 41.9829 314.522 39.4744 312.231C33.0049 306.325 29.2378 298.157 28.0552 289.568C27.815 287.823 27.8917 286.108 27.7151 284.377C27.6121 283.368 26.4702 282.918 26.4214 281.843C26.753 281.671 27.5167 281.327 27.72 281.027C28.4733 279.916 28.6124 277.255 29.0322 275.869C29.9479 272.845 31.3852 270.102 32.8115 267.298Z"/><path fill="#7C8A11" d="M8.8052 221.278C9.36546 221.696 9.48418 221.585 10.1911 221.5C8.82138 227.347 10.5827 234.325 13.7092 239.365C17.6072 245.649 24.1634 248.648 31.1534 250.282C36.5261 251.537 41.1241 251.499 46.2946 249.48C47.4202 249.04 48.9298 248.152 50.1276 248.082C51.5102 248.001 52.7361 248.758 53.4866 249.897C53.6549 250.152 53.7511 250.444 53.8397 250.734L53.8852 250.877C51.9248 251.411 50.2462 252.723 48.5255 253.773C44.1949 256.416 39.9036 258.433 34.8317 259.103C33.2826 258.237 30.9091 258.81 29.1257 258.518C27.3063 258.219 25.4917 257.595 23.7875 256.905C15.5454 253.565 11.1672 247.103 7.9018 239.191C6.38118 235.507 7.23653 225.123 8.8052 221.278Z"/><path fill="#7C8A11" d="M56.9519 253.824C57.316 256.119 56.6155 257.424 55.2884 259.245C54.1087 260.864 52.3375 262.628 50.2598 262.922C49.3979 263.044 48.771 262.968 47.9912 262.566C51.3158 260.018 54.6998 257.42 56.9519 253.824Z"/><path fill="#ADBB36" d="M8.8052 221.278C9.30335 219.928 10.1351 218.743 11.1045 217.693C11.2199 219.295 10.8999 220.108 10.1911 221.5C9.48418 221.585 9.36546 221.696 8.8052 221.278Z"/><path fill="#774D0B" d="M156.392 14.5262C156.224 14.309 156.03 14.075 155.912 13.8269C155.632 13.2393 155.714 13.0219 155.941 12.4659L156.427 12.3958C157.13 12.8781 157.175 13.1701 157.471 13.9409C157.131 14.1297 156.752 14.3897 156.392 14.5262Z"/><path fill="#ADBB36" d="M53.8807 106.323C54.8406 106.272 55.734 106.296 56.6782 106.47C58.4173 106.79 60.7681 107.187 61.8369 108.729C61.9234 109.217 62.0375 109.441 61.7519 109.884C60.5331 111.772 54.772 114.326 52.5887 116.516C47.0595 122.063 45.6462 128.828 42.7581 135.754C41.9415 136.662 40.4498 137.321 39.3889 137.919C38.5613 135.914 37.6468 133.892 37.187 131.765C36.0921 126.7 37.9764 119.948 40.7314 115.656C43.7817 110.904 48.341 107.513 53.8807 106.323Z"/><path fill="#ADBB36" d="M31.3805 155.335C33.1 155.356 34.0351 155.96 35.365 156.932C36.5449 157.794 38.2426 158.85 38.4789 160.357C37.8595 161.171 33.732 161.912 31.8364 163.857C26.4912 169.342 26.4494 178.665 26.5851 185.805C26.4189 186.452 26.3776 186.783 25.9103 187.282L25.42 187.219C23.644 185.458 22.3774 181.183 21.9161 178.751C20.7704 172.712 19.6701 165.485 23.4154 160.086C25.4155 157.203 28.0178 155.931 31.3805 155.335Z"/><path fill="#774D0B" d="M116.35 171.332C120.499 170.308 124.687 172.864 125.674 177.023C126.66 181.181 124.067 185.346 119.9 186.296C115.785 187.234 111.683 184.68 110.709 180.573C109.734 176.467 112.252 172.342 116.35 171.332Z"/><path fill="#E9990F" d="M116.876 175.716C117.453 175.708 118.096 175.661 118.661 175.783C119.495 175.963 120.302 176.723 120.761 177.42C121.214 178.105 121.364 178.839 121.168 179.648C120.94 180.589 120.372 180.939 119.595 181.388C119.418 181.406 119.24 181.42 119.063 181.43C118.039 181.489 117.003 181.339 116.226 180.615C115.657 180.082 115.348 179.329 115.38 178.55C115.431 177.346 116.029 176.513 116.876 175.716Z"/><path fill="#774D0B" d="M120.929 74.5643C122.608 74.7174 124.251 75.2562 125.628 76.2473C127.204 77.3586 128.272 79.0517 128.596 80.9523C128.91 82.9085 128.274 84.8773 127.13 86.462C125.65 88.5119 123.516 89.7517 121.041 90.1548C119.223 90.0733 117.586 89.7857 116.07 88.7081C114.629 87.68 113.658 86.1182 113.375 84.3707C113.001 82.1098 113.816 79.7496 115.147 77.9327C116.651 75.8799 118.461 74.9565 120.929 74.5643Z"/><path fill="#E9990F" d="M120.329 79.4911C120.667 79.5038 121.004 79.5608 121.333 79.6404C122.07 79.8189 122.776 80.2697 123.149 80.9452C123.444 81.4777 123.461 82.0899 123.31 82.6678C123.003 83.8518 122.178 84.3062 121.194 84.8912C120.851 84.9478 120.502 85.0002 120.156 84.9435C119.563 84.8464 118.96 84.5094 118.634 83.9945C118.269 83.4174 118.256 82.7286 118.377 82.0778C118.619 80.7791 119.276 80.2078 120.329 79.4911Z"/><path fill="#774D0B" d="M119.249 238.958C123.415 238.234 127.379 241.028 128.096 245.196C128.814 249.364 126.013 253.323 121.844 254.034C117.684 254.744 113.736 251.95 113.02 247.792C112.304 243.633 115.091 239.68 119.249 238.958Z"/><path fill="#E9990F" d="M119.196 244.25C119.686 244.227 120.18 244.208 120.671 244.23C121.418 244.263 122.329 244.623 122.796 245.23C123.121 245.654 123.216 246.071 123.165 246.592C123.068 247.587 122.27 248.207 121.557 248.801C121.141 248.961 120.713 249.082 120.265 249.113C119.696 249.152 119.16 248.934 118.748 248.545C118.268 248.092 118.057 247.497 118.036 246.849C117.997 245.688 118.43 245.048 119.196 244.25Z"/><path fill="#774D0B" d="M225.151 147.121C229.301 146.786 232.937 149.878 233.274 154.028C233.611 158.177 230.522 161.816 226.372 162.155C222.219 162.495 218.577 159.403 218.24 155.249C217.902 151.096 220.997 147.455 225.151 147.121Z"/><path fill="#E9990F" d="M224.145 151.511C224.603 151.47 225.067 151.428 225.527 151.442C226.289 151.467 227.005 151.812 227.499 152.392C227.953 152.924 228.191 153.503 228.136 154.21C228.036 155.501 227.325 156.096 226.397 156.858C226.065 156.947 225.71 157.052 225.367 157.08C224.631 157.14 223.832 156.938 223.294 156.407C222.842 155.961 222.656 155.256 222.663 154.634C222.677 153.401 223.289 152.349 224.145 151.511Z"/><path fill="#774D0B" d="M87.6619 274.79C88.5027 274.741 89.3876 274.666 90.2066 274.899C92.2022 275.468 93.9324 276.689 94.9403 278.518C95.9108 280.279 96.1589 282.29 95.5893 284.222C94.7128 287.196 92.5015 289.009 89.8767 290.399C88.3123 290.584 87.1031 290.581 85.6439 289.921C83.8765 289.122 82.6103 287.611 81.9517 285.804C81.1619 283.638 81.2153 281.035 82.2388 278.953C83.4171 276.557 85.2662 275.615 87.6619 274.79Z"/><path fill="#E9990F" d="M87.8509 279.384C88.0339 279.378 88.0023 279.373 88.2224 279.398C89.029 279.49 89.9831 280.029 90.4752 280.682C90.9217 281.275 91.0742 282.099 90.9259 282.822C90.7211 283.821 90.081 284.215 89.2956 284.763C88.8581 284.892 88.3193 285.088 87.8608 285.034C87.3981 284.979 86.9546 284.664 86.6781 284.3C86.196 283.666 86.1232 282.882 86.1974 282.116C86.327 280.779 86.8366 280.199 87.8509 279.384Z"/><path fill="#774D0B" d="M178.475 156.773C182.518 155.817 186.568 158.33 187.506 162.377C188.444 166.424 185.913 170.462 181.862 171.383C177.836 172.298 173.828 169.786 172.896 165.764C171.963 161.742 174.457 157.723 178.475 156.773Z"/><path fill="#E9990F" d="M179.035 161.184C180.182 161.198 181.239 161.193 182.108 162.073C182.646 162.618 182.876 163.328 182.839 164.084C182.773 165.426 181.967 166.406 181.02 167.265C179.996 167.279 178.924 167.117 178.139 166.396C177.61 165.91 177.351 165.35 177.306 164.637C177.216 163.194 178.114 162.172 179.035 161.184Z"/><path fill="#774D0B" d="M132.165 296.176C134.06 293.375 137.624 292.235 140.793 293.414C143.962 294.593 145.913 297.787 145.517 301.144C145.12 304.502 142.478 307.153 139.122 307.562C135.766 307.97 132.565 306.03 131.375 302.866C130.537 300.64 130.832 298.145 132.165 296.176Z"/><path fill="#825E09" d="M132.165 296.176L132.518 297.233L133.359 296.71C133.825 296.871 133.995 296.869 134.204 297.359C134.602 298.296 134.358 299.751 133.947 300.652C133.707 301.176 133.47 301.502 132.955 301.796C132.299 301.807 132.222 301.699 131.677 301.314L131.375 302.866C130.537 300.64 130.832 298.145 132.165 296.176Z"/><path fill="#774D0B" d="M132.165 296.176L132.518 297.233C132.012 298.625 131.77 299.842 131.677 301.314L131.375 302.866C130.537 300.64 130.832 298.145 132.165 296.176Z"/><path fill="#E9990F" d="M137.235 297.254C137.693 297.25 138.175 297.24 138.628 297.314C139.305 297.425 140.008 297.875 140.392 298.435C140.806 299.039 140.911 299.77 140.756 300.477C140.477 301.754 139.653 302.505 138.606 303.198C138.322 303.211 138.033 303.219 137.75 303.178C136.952 303.068 136.24 302.621 135.793 301.951C135.355 301.3 135.256 300.461 135.396 299.7C135.616 298.502 136.279 297.932 137.235 297.254Z"/><path fill="#774D0B" d="M172.8 37.2783C174.31 37.1098 175.753 37.2728 177.108 37.9918C178.813 38.8971 179.991 40.4893 180.508 42.335C181.036 44.2437 180.771 46.2847 179.774 47.9957C178.606 50.0286 176.779 51.0942 174.581 51.7122C172.954 51.8858 171.502 51.9489 170.031 51.1309C168.346 50.1933 167.215 48.6055 166.713 46.7578C166.176 44.7772 166.355 42.5794 167.415 40.7994C168.651 38.7224 170.531 37.8204 172.8 37.2783Z"/><path fill="#E9990F" d="M172.757 41.9683C173.626 41.9974 174.474 42.1244 175.13 42.7584C175.634 43.2459 175.868 43.7909 175.837 44.4968C175.787 45.673 175.105 46.2724 174.321 47.0456C174.112 47.0499 173.903 47.0528 173.694 47.0418C172.945 47.0026 172.373 46.5906 171.91 46.0139C171.396 45.3747 171.29 44.5892 171.377 43.7978C171.472 42.935 172.132 42.4818 172.757 41.9683Z"/><path fill="#774D0B" d="M104.238 43.0668C105.969 42.8873 107.563 42.909 109.182 43.6177C110.787 44.3206 112.088 45.5971 112.711 47.2477C113.392 49.0529 113.26 51.2568 112.447 52.9978C111.472 55.0875 109.79 56.1786 107.695 56.9611C106.449 57.3157 104.98 57.4636 103.729 57.067C102.062 56.5384 100.73 55.294 99.95 53.7436C99.0108 51.8754 98.8834 49.8545 99.579 47.8839C100.421 45.4985 102.003 44.1105 104.238 43.0668Z"/><path fill="#E9990F" d="M106.371 47.4175C106.998 47.6087 107.757 47.9546 108.167 48.4786C108.381 48.7524 108.542 49.2224 108.489 49.5709C108.277 50.9473 107.408 51.5011 106.359 52.2769C106.183 52.2679 106.006 52.2572 105.832 52.2269C105.22 52.1204 104.868 51.7504 104.525 51.2624C104.285 50.9228 104.243 50.3407 104.328 49.9363C104.6 48.6344 105.299 48.0845 106.371 47.4175Z"/><path fill="#774D0B" d="M94.045 120.483C97.7459 119.604 101.454 121.91 102.302 125.618C103.15 129.326 100.814 133.015 97.0988 133.833C93.4268 134.641 89.7899 132.337 88.9515 128.672C88.113 125.007 90.3867 121.351 94.045 120.483Z"/><path fill="#E9990F" d="M95.4673 125.239C95.7714 125.247 96.2121 125.228 96.4965 125.336C97.1653 125.592 97.2721 125.898 97.5349 126.504C97.4227 127.935 96.7901 128.637 95.8039 129.632C95.2528 129.431 94.4882 128.989 94.1425 128.5C93.786 127.995 93.7127 127.518 93.8505 126.915C94.0293 126.132 94.8497 125.656 95.4673 125.239Z"/><path fill="#774D0B" d="M165.797 98.7707C167.206 95.6371 170.724 94.0384 174.011 95.0374C177.298 96.0364 179.332 99.3221 178.759 102.71C178.187 106.098 175.186 108.533 171.753 108.396C170.58 108.349 169.438 108.001 168.439 107.384C165.521 105.583 164.39 101.898 165.797 98.7707Z"/><path fill="#5B4008" d="M165.797 98.7707C165.831 101.676 166.384 104.453 168.483 106.608L168.439 107.384C165.521 105.583 164.39 101.898 165.797 98.7707Z"/><path fill="#E9990F" d="M172.066 99.4076C172.415 99.3999 172.746 99.5105 173.081 99.5975C173.558 100.07 173.892 100.42 173.87 101.148C173.831 102.47 173.18 103.258 172.23 104.088C171.705 103.828 170.976 103.477 170.619 103.003C170.378 102.685 170.259 102.29 170.285 101.892C170.361 100.811 171.309 100.068 172.066 99.4076Z"/><path fill="#774D0B" d="M62.3164 178.512C64.7327 178.291 67.0808 179.387 68.4628 181.381C69.8448 183.376 70.0468 185.959 68.9917 188.144C67.9365 190.329 65.7874 191.777 63.3662 191.935C59.6899 192.174 56.5039 189.414 56.2167 185.741C55.9294 182.068 58.6476 178.847 62.3164 178.512Z"/><path fill="#E9990F" d="M62.7679 182.691C63.2394 182.745 63.7188 182.796 64.0856 183.129C64.4569 183.466 64.7027 184.031 64.7178 184.529C64.7522 185.667 64.2286 186.415 63.5138 187.237C63.0172 187.142 62.6174 186.961 62.22 186.642C61.7792 186.287 61.5332 185.823 61.5133 185.255C61.4751 184.166 62.1027 183.46 62.7679 182.691Z"/><path fill="#774D0B" d="M206.447 223.288C207.534 223.205 208.775 223.465 209.773 223.887C211.439 224.575 212.746 225.921 213.384 227.607C214.075 229.457 213.986 231.508 213.137 233.292C212.105 235.451 210.64 236.294 208.496 237.086C207.11 237.064 206.023 236.972 204.785 236.31C202.908 235.308 201.408 233.576 200.825 231.514C200.383 229.947 200.54 228.281 201.343 226.857C202.469 224.858 204.32 223.91 206.447 223.288Z"/><path fill="#E9990F" d="M206.684 228.152C207.446 227.946 208.261 228.176 208.803 228.751C209.345 229.325 209.528 230.151 209.279 230.9C209.03 231.65 208.389 232.202 207.611 232.338C206.481 232.535 205.396 231.808 205.148 230.688C204.9 229.568 205.576 228.451 206.684 228.152Z"/><path fill="#825E09" d="M208.172 225.084C208.861 225.268 209.098 225.333 209.629 225.844C209.875 226.579 209.695 227.136 209.511 227.855C209.133 227.727 208.747 227.445 208.496 227.134C208.035 226.563 208.129 225.767 208.172 225.084Z"/><path fill="#774D0B" d="M183.839 281.014C185.391 280.883 186.967 281.162 188.33 281.947C189.648 282.716 190.597 283.987 190.96 285.469C191.445 287.383 191.086 289.527 190.076 291.216C189.055 292.926 187.495 294.003 185.592 294.501C184.467 294.376 183.35 294.253 182.298 293.806C180.552 293.065 179.01 291.72 178.318 289.924C177.762 288.483 177.835 286.895 178.46 285.488C179.521 283.1 181.533 281.94 183.839 281.014Z"/><path fill="#E9990F" d="M183.893 285.618C184.617 285.36 185.424 285.512 186.004 286.015C186.585 286.518 186.85 287.295 186.699 288.048C186.547 288.801 186.001 289.415 185.271 289.654C184.162 290.016 182.967 289.42 182.59 288.316C182.213 287.212 182.794 286.009 183.893 285.618Z"/><path fill="#774D0B" d="M166.447 229.856C168.757 229.442 171.112 230.301 172.613 232.106C174.113 233.911 174.528 236.383 173.699 238.579C172.87 240.774 170.925 242.355 168.606 242.718C165.076 243.27 161.758 240.879 161.167 237.355C160.575 233.831 162.93 230.487 166.447 229.856Z"/><path fill="#E9990F" d="M166.566 234.584C167.235 234.281 168.016 234.365 168.607 234.803C169.197 235.24 169.505 235.963 169.41 236.692C169.315 237.421 168.833 238.042 168.151 238.314C167.127 238.722 165.965 238.238 165.534 237.224C165.103 236.21 165.561 235.037 166.566 234.584Z"/><path fill="#7C8A11" d="M147.281 266.565C147.669 266.619 148.055 266.686 148.439 266.765C149.422 266.971 150.276 267.575 150.797 268.433C151.371 269.375 151.464 270.51 151.215 271.568C150.893 272.935 150.031 274.012 148.829 274.717C148.016 275.194 147.54 275.097 146.696 274.864C145.385 274.792 144.202 274.573 143.071 273.87C142.21 273.336 141.527 272.645 141.309 271.624C141.129 270.782 141.352 269.892 141.836 269.19C143.133 267.306 145.195 266.969 147.281 266.565Z"/><path fill="#CB6A34" d="M119.218 352.976C123.464 358.512 125.813 356.744 129.954 360.044C131.679 359.89 132.565 359.586 134.258 360.301C136.645 360.038 136.804 359.166 138.452 358.664C139.14 358.454 140.228 358.99 141.041 358.812C144.664 358.021 148.076 355.995 151.279 354.202C148.97 358.73 150.803 366.18 150.557 371.286C144.996 372.963 135.497 376.43 129.804 374.882C126.53 374.527 123.274 374.14 120.021 373.629C119.887 366.76 119.458 359.85 119.218 352.976Z"/><path fill="#FEA657" d="M119.218 352.976C123.464 358.512 125.813 356.744 129.954 360.044C129.86 364.953 129.489 369.984 129.804 374.882C126.53 374.527 123.274 374.14 120.021 373.629C119.887 366.76 119.458 359.85 119.218 352.976Z"/></svg>