<?xml version="1.0" encoding="utf-8" ?><svg xmlns="http://www.w3.org/2000/svg" xmlns:xlink="http://www.w3.org/1999/xlink" width="123" height="171" viewBox="0 0 123 171"><path fill="#495614" d="M62.2913 0L63.5449 0C68.5218 3.88483 73.1925 18.1189 75.7082 24.1723C79.2236 32.6309 83.4143 43.384 89.6088 50.2401C95.4226 56.6748 107.294 63.4102 108.374 72.5695C108.826 76.4073 107.185 79.9973 104.844 82.9342C103.636 84.434 102.284 85.8122 100.808 87.0494C109.472 91.8235 118.202 97.1543 121.137 107.28C122.766 112.902 121.664 119.064 118.867 124.131C115.125 130.909 107.55 135.577 100.261 137.671C97.0332 138.598 93.9064 138.71 90.5694 138.615C87.9235 140.641 85.0169 141.956 81.5895 141.512C78.9798 141.174 74.6697 138.554 73.4288 138.463C73.5167 143.327 73.4468 148.441 74.3815 153.233C74.9337 156.065 76.5705 158.877 76.6525 161.755C76.6931 163.178 76.2093 164.605 75.2113 165.636C72.2899 168.653 65.5922 168.97 61.7095 168.999C58.6424 169.022 55.6762 168.714 52.7275 167.849C52.2897 166.75 50.328 165.789 49.4851 164.844L48.6947 164.896L48.3629 165.296C48.5779 166.252 49.667 167.065 50.3368 167.753C49.1218 167.615 48.0504 167.412 46.9383 166.883C45.4762 166.188 44.0844 165.104 43.5426 163.52C43.1987 162.501 43.274 161.387 43.752 160.424C44.7542 158.374 46.621 157.573 48.6468 156.862C49.4986 151.934 49.3516 146.505 49.5598 141.486C48.6528 140.691 44.5138 140.036 43.1857 139.72C42.0588 140.496 40.9066 141.36 39.6673 141.944C37.4985 142.966 35.0491 143.441 32.7362 142.603C30.2993 141.72 28.8335 139.668 27.7655 137.416C24.0805 137.684 20.825 137.847 17.2694 136.675C11.1529 134.659 5.57133 130.135 2.6648 124.351C-0.201052 118.647 -0.0506916 112.575 1.9318 106.609C5.23789 96.6608 12.7658 89.2995 21.9759 84.6736C20.2773 81.7332 18.8913 78.1961 18.8784 74.7563C18.8478 66.6616 27.7604 60.5738 33.1018 55.5456C37.5373 51.3701 42.1907 46.9132 45.3898 41.6941C47.5734 38.1317 49.2743 34.3855 50.7234 30.4737C53.0653 24.1518 58.5739 3.74664 62.2913 0Z"/><path fill="#864B23" d="M67.4595 136.704C67.7932 135.849 67.8788 135.445 68.5919 134.845C68.9423 134.87 69.054 134.832 69.2975 135.116C70.5291 136.552 70.2698 140.386 70.3027 142.266C70.5447 146.066 70.8882 149.872 71.5871 153.618C72.0517 156.109 72.7926 158.572 73.132 161.082C73.2276 161.788 73.3832 162.779 73.0673 163.416C72.5766 164.407 71.2965 164.974 70.3017 165.291C64.4502 167.155 55.5289 166.036 50.0944 163.203C51.4139 156.202 51.5491 148.815 51.985 141.717C55.9243 141.82 60.0719 142.384 63.7823 140.668C65.6181 139.819 66.7701 138.592 67.4595 136.704Z"/><path fill="#404308" d="M64.4201 134.032C63.8713 132.24 62.6749 128.957 63.5962 127.163C63.6249 127.108 63.6579 127.054 63.6908 127.001C64.2009 127.026 64.3231 127.135 64.6678 127.513C66.2411 129.239 67.3465 133.22 69.4007 134.274C70.6515 134.916 72.3247 135.224 73.6671 135.707C73.1383 136.694 74.1409 137.271 73.2335 137.978L73.4288 138.463C73.5167 143.327 73.4468 148.441 74.3815 153.233C74.9337 156.065 76.5705 158.877 76.6525 161.755C76.6931 163.178 76.2093 164.605 75.2113 165.636C72.2899 168.653 65.5922 168.97 61.7095 168.999C58.6424 169.022 55.6762 168.714 52.7275 167.849C52.2897 166.75 50.328 165.789 49.4851 164.844L49.6581 164.591C51.5219 166.142 53.1304 167.487 55.5776 168.023C60.5728 169.117 69.595 168.691 73.9648 165.861C75.1038 165.124 75.8381 164.255 76.1138 162.908C76.682 160.132 74.8564 157.51 74.1407 154.911C73.8048 153.691 73.7407 152.351 73.6092 151.093C73.3304 148.424 73.0232 145.718 72.9155 143.037C72.8543 141.513 73.03 139.881 72.8445 138.38C72.7778 137.84 72.598 137.189 72.2772 136.743C71.9218 136.248 71.6258 136.161 71.067 136.062C70.0427 137.217 70.6024 140.588 70.5459 142.185L70.3027 142.266C70.2698 140.386 70.5291 136.552 69.2975 135.116C69.054 134.832 68.9423 134.87 68.5919 134.845C67.8788 135.445 67.7932 135.849 67.4595 136.704L66.6258 137.039C66.4642 135.641 65.3992 134.902 64.4201 134.032Z"/><path fill="#864B23" d="M49.5598 141.486L50.133 141.175C50.143 143.346 49.8128 145.597 49.7059 147.779C49.51 151.779 49.4677 155.725 49.3915 159.726C49.3684 160.939 48.9867 162.593 49.1623 163.736C49.2103 164.048 49.453 164.362 49.6581 164.591L49.4851 164.844L48.6947 164.896L48.3629 165.296C48.5779 166.252 49.667 167.065 50.3368 167.753C49.1218 167.615 48.0504 167.412 46.9383 166.883C45.4762 166.188 44.0844 165.104 43.5426 163.52C43.1987 162.501 43.274 161.387 43.752 160.424C44.7542 158.374 46.621 157.573 48.6468 156.862C49.4986 151.934 49.3516 146.505 49.5598 141.486Z"/><path fill="#482305" d="M66.6258 137.039L67.4595 136.704C66.7701 138.592 65.6181 139.819 63.7823 140.668C60.0719 142.384 55.9243 141.82 51.985 141.717C51.5491 148.815 51.4139 156.202 50.0944 163.203C55.5289 166.036 64.4502 167.155 70.3017 165.291C71.2965 164.974 72.5766 164.407 73.0673 163.416C73.3832 162.779 73.2276 161.788 73.132 161.082C72.7926 158.572 72.0517 156.109 71.5871 153.618C70.8882 149.872 70.5447 146.066 70.3027 142.266L70.5459 142.185C71.0564 143.444 71.2512 149.333 71.5265 151.272C72.0042 154.635 73.9404 160.065 73.6286 163.165C73.5725 163.722 73.2137 164.079 72.792 164.42C69.5556 167.032 62.0637 166.587 58.15 166.124C55.8378 165.851 51.8794 165.296 50.3748 163.34C50.0499 162.918 49.8562 162.382 49.8554 161.848C49.8516 159.327 50.5925 156.36 50.8431 153.79C51.2179 149.946 51.2082 146.024 51.7183 142.214L50.9429 141.239L51.0981 140.993C53.1394 142.081 57.9173 141.283 60.2951 141.238C60.5405 141.234 60.7953 141.236 61.0385 141.206C61.7914 141.112 62.8877 140.698 63.3672 140.096C62.3659 139.603 60.6238 139.954 59.4145 139.525C60.7724 139.544 62.1007 139.628 63.4515 139.766C64.5842 138.909 65.6418 138.069 66.6258 137.039Z"/><path fill="#657B33" d="M87.7255 85.0101C89.309 86.4542 90.9071 88.0584 92.68 89.2633C94.7261 90.6539 96.9824 91.7462 98.9609 93.2356C104.511 97.4138 113.019 105.333 113.37 112.685C113.484 115.071 112.992 117.831 111.322 119.644C110.387 120.659 109.191 121.108 107.828 121.152C106.224 121.203 104.799 120.817 103.327 120.228C102.578 119.003 101.628 116.879 100.122 116.473C99.2566 116.239 98.4761 116.573 97.7475 117.019C97.2452 117.33 96.7489 117.65 96.2589 117.98C96.3103 121.988 96.6506 126.207 93.5815 129.349C92.2959 130.665 90.9052 131.151 89.1883 131.631C86.4743 130.923 84.1137 129.362 81.4904 128.423C79.3608 127.661 77.3187 127.615 75.1397 127.225C73.3828 124.62 71.6689 122.289 69.4418 120.055C68.3356 121.698 67.3642 123.394 66.4047 125.125C64.217 124.884 62.3007 124.817 60.8105 122.97C59.689 121.58 58.6338 118.519 56.9629 117.867C53.3977 119.291 52.5882 127.953 46.2568 131.801C44.9526 132.594 43.7122 133.03 42.2397 132.389C41.3362 131.996 40.7956 131.348 40.3016 130.517C40.0906 130.218 39.5814 129.898 39.2902 129.655C39.2985 128.659 39.4607 127.365 38.9582 126.478C38.5583 126.148 38.4122 125.97 37.8568 126.036C34.7877 126.402 32.1794 133.183 26.7484 129.696C26.2052 128.808 25.6378 127.894 25.3028 126.903C24.7782 125.351 25.0362 122.906 23.0431 122.432C21.8806 122.155 20.293 122.542 19.1125 122.697C17.9433 122.191 16.7015 121.759 16.2032 120.473C15.3663 118.313 16.5828 114.858 17.3867 112.765C14.8819 113.291 12.1428 114.022 9.82026 112.476C8.93279 111.885 8.41637 111.002 8.22065 109.964C7.57355 106.531 9.36128 102.926 11.2727 100.182C14.6242 95.3706 19.2409 90.5383 24.5404 87.9473C27.4802 90.9467 30.8333 92.6832 35.0896 92.7203C38.3582 92.7488 41.3559 91.6457 44.2511 90.2266C45.4605 93.4426 46.776 96.527 50.1114 98.0575C52.371 99.0944 54.9506 98.9024 57.2319 98.0387C60.2661 96.8899 62.6297 94.7793 64.5017 92.1672C66.2947 95.1913 68.4956 97.8193 72.07 98.718C74.8887 99.4267 77.8087 98.8094 80.2739 97.3248C84.1236 95.0065 86.315 91.0297 87.3543 86.7599C87.493 86.1799 87.6167 85.5964 87.7255 85.0101Z"/><path fill="#657B33" d="M63.0873 4.68737C64.5456 5.86391 73.2269 28.7813 74.8081 32.4415C76.4011 36.1653 78.1565 39.8175 80.0691 43.3878C82.1269 47.0697 84.3973 50.6287 86.8687 54.0468C91.0582 59.7701 95.929 64.7584 97.7607 71.8095C97.1617 72.9106 96.5398 73.848 95.7421 74.8182C94.2709 75.2978 92.7942 75.7602 91.3123 76.2055C87.6511 75.0895 85.3114 72.4044 82.6149 69.8397C80.9492 74.3696 79.8691 78.8242 77.203 82.9322C76.6643 83.1117 76.1127 83.2976 75.556 83.4112C74.4753 83.6318 73.0534 83.1749 72.1647 82.5617C69.3879 80.6456 68.9329 77.0589 68.3594 74.0094C66.9633 76.1602 65.2702 78.0963 63.5869 80.0248C63.2404 80.3776 62.8877 80.7244 62.529 81.0648C60.8071 82.6868 58.3468 83.7712 55.9521 83.6839C54.6512 83.6365 53.422 83.184 52.5342 82.2066C50.8541 80.3571 51.4062 77.9755 51.508 75.6773C47.649 78.4885 44.3526 79.3137 39.7472 80.2824L37.5944 75.8814C36.7105 77.0367 35.8072 77.992 34.7046 78.9407C33.6154 79.1781 32.4835 79.4428 31.3628 79.3789C29.8424 79.2923 28.1943 78.7352 27.1603 77.574C26.2504 76.5521 25.9643 75.2256 26.0428 73.8867C26.0908 73.0694 26.8682 69.0467 27.5466 68.6038C27.8331 68.4167 28.9884 68.2566 29.1492 68.0437C29.3491 67.7791 29.0603 67.4434 29.4333 67.112C29.5915 67.5854 29.7634 67.9884 30.0282 68.412C30.53 68.4902 30.7187 68.5028 31.1947 68.2987C36.1431 66.1776 41.7972 58.0342 44.6868 53.4399C45.7365 51.7709 46.4717 49.7811 47.4015 48.0302C50.7012 41.817 54.0633 35.8401 56.2454 29.1107C58.8456 21.0918 59.9348 12.5542 63.0873 4.68737Z"/><path fill="#657B33" d="M39.2902 129.655C39.5814 129.898 40.0906 130.218 40.3016 130.517C38.8828 133.665 39.9321 134.093 39.4672 136.968C39.3262 137.84 38.9597 138.622 38.2245 139.144C37.1548 139.904 35.4739 140.074 34.2092 139.856C32.7518 139.605 31.9521 138.372 31.1678 137.248C33.6609 135.515 35.9479 133.427 38.3992 131.616L39.2902 129.655Z"/><path fill="#886708" fill-opacity="0.97254902" d="M50.3368 167.753C49.667 167.065 48.5779 166.252 48.3629 165.296L48.6947 164.896L49.4851 164.844C50.328 165.789 52.2897 166.75 52.7275 167.849L50.3368 167.753Z"/></svg>